<svg width="186" height="252" viewBox="0 0 186 252" fill="none" xmlns="http://www.w3.org/2000/svg">
<path d="M93.3588 125.716L32.8308 160.663L93.3588 195.611L153.887 160.663L93.3588 125.716Z" fill="#455A64"/>
<path d="M117.052 181.932L56.5241 146.984L68.6325 139.986L129.16 174.934L117.052 181.932Z" fill="#37474F"/>
<path d="M32.8309 160.664V216.577L93.3589 251.524V195.611L32.8309 160.664Z" fill="#263238"/>
<path d="M93.3589 195.611V251.524L153.887 216.631V160.663L93.3589 195.611Z" fill="#37474F"/>
<path d="M129.161 174.934V185.858L127.879 185.61L126.736 187.277L125.441 187.015L124.326 188.668L123.031 188.406L121.901 190.073L120.606 189.811L119.477 191.478L118.168 191.216L117.052 192.869V181.932L129.161 174.934Z" fill="#263238"/>
<path d="M93.3589 195.61L94.5574 249.333L138.886 225.241L93.3589 251.524V195.61Z" fill="#455A64"/>
<g opacity="0.8">
<path opacity="0.8" d="M109.738 236.413C109.695 236.413 109.652 236.405 109.613 236.388C109.574 236.371 109.538 236.346 109.509 236.316C109.479 236.285 109.456 236.248 109.441 236.208C109.426 236.168 109.419 236.125 109.421 236.083V228.782C109.419 228.739 109.426 228.696 109.441 228.656C109.456 228.616 109.479 228.58 109.509 228.549C109.538 228.518 109.574 228.493 109.613 228.477C109.652 228.46 109.695 228.451 109.738 228.451C109.825 228.451 109.909 228.486 109.971 228.548C110.033 228.61 110.068 228.694 110.068 228.782V236.151C110.052 236.227 110.01 236.294 109.95 236.342C109.89 236.39 109.815 236.415 109.738 236.413Z" fill="#E0E0E0"/>
<path opacity="0.8" d="M108.787 231.317H108.663C108.583 231.283 108.52 231.22 108.486 231.14C108.453 231.06 108.452 230.97 108.484 230.89L109.655 228.204L110.936 229.705C110.966 229.735 110.991 229.77 111.007 229.809C111.024 229.848 111.032 229.89 111.032 229.932C111.032 229.975 111.024 230.017 111.007 230.056C110.991 230.095 110.966 230.13 110.936 230.16C110.873 230.215 110.792 230.245 110.709 230.245C110.625 230.245 110.544 230.215 110.481 230.16L109.862 229.443L109.118 231.165C109.082 231.219 109.032 231.261 108.974 231.288C108.916 231.315 108.851 231.325 108.787 231.317Z" fill="#E0E0E0"/>
<path opacity="0.8" d="M112.754 234.691C112.711 234.691 112.668 234.682 112.628 234.665C112.588 234.649 112.551 234.624 112.521 234.594C112.49 234.563 112.466 234.527 112.449 234.486C112.432 234.446 112.424 234.403 112.424 234.36V227.059C112.424 226.971 112.459 226.887 112.521 226.825C112.583 226.763 112.667 226.729 112.754 226.729C112.842 226.729 112.926 226.763 112.988 226.825C113.05 226.887 113.085 226.971 113.085 227.059V234.36C113.085 234.448 113.05 234.532 112.988 234.594C112.926 234.656 112.842 234.691 112.754 234.691Z" fill="#E0E0E0"/>
<path opacity="0.8" d="M111.804 229.595H111.666C111.627 229.578 111.591 229.554 111.561 229.523C111.531 229.493 111.508 229.456 111.492 229.416C111.477 229.376 111.47 229.334 111.471 229.291C111.473 229.248 111.483 229.206 111.501 229.167L112.658 226.495L113.953 227.983C113.983 228.012 114.007 228.048 114.024 228.087C114.04 228.126 114.049 228.168 114.049 228.21C114.049 228.253 114.04 228.294 114.024 228.333C114.007 228.373 113.983 228.408 113.953 228.437C113.922 228.468 113.886 228.493 113.845 228.509C113.805 228.526 113.762 228.535 113.719 228.535C113.675 228.535 113.632 228.526 113.592 228.509C113.552 228.493 113.515 228.468 113.484 228.437L112.878 227.721L112.121 229.457C112.088 229.509 112.04 229.551 111.984 229.575C111.927 229.6 111.864 229.607 111.804 229.595Z" fill="#E0E0E0"/>
</g>
<g opacity="0.8">
<path opacity="0.8" d="M101.059 241.357C100.935 241.358 100.812 241.33 100.701 241.275C100.573 241.19 100.47 241.072 100.402 240.934C100.334 240.796 100.304 240.643 100.315 240.489V239.594C100.314 239.551 100.32 239.509 100.335 239.469C100.351 239.428 100.374 239.392 100.403 239.361C100.433 239.33 100.468 239.306 100.508 239.289C100.547 239.272 100.589 239.263 100.632 239.263C100.72 239.263 100.804 239.298 100.866 239.36C100.928 239.422 100.963 239.506 100.963 239.594V240.489C100.941 240.556 100.941 240.629 100.963 240.696C100.963 240.696 101.073 240.696 101.183 240.696C101.385 240.509 101.544 240.28 101.648 240.026C101.753 239.771 101.801 239.497 101.789 239.222V235.489C101.789 235.446 101.798 235.404 101.815 235.365C101.831 235.325 101.856 235.29 101.887 235.26C101.918 235.23 101.954 235.207 101.994 235.192C102.035 235.177 102.077 235.17 102.12 235.172C102.204 235.172 102.285 235.206 102.344 235.265C102.403 235.324 102.437 235.405 102.437 235.489V239.222C102.454 239.61 102.379 239.997 102.218 240.351C102.058 240.706 101.817 241.017 101.514 241.261C101.371 241.326 101.216 241.359 101.059 241.357Z" fill="#E0E0E0"/>
<path opacity="0.8" d="M97.6292 238.355V237.79C97.7029 236.347 98.1154 234.941 98.8334 233.687C99.5514 232.433 100.555 231.366 101.762 230.572C102.195 230.206 102.73 229.982 103.295 229.931C103.859 229.881 104.426 230.006 104.917 230.289C105.408 230.572 105.8 231 106.039 231.514C106.278 232.028 106.352 232.603 106.252 233.161V233.396L97.6292 238.355ZM103.732 230.641C103.155 230.668 102.595 230.844 102.106 231.15C101.071 231.83 100.195 232.724 99.5366 233.772C98.8782 234.82 98.4531 235.998 98.2904 237.225L105.619 232.996C105.643 232.585 105.564 232.173 105.388 231.8C105.212 231.427 104.946 231.104 104.613 230.861C104.341 230.717 104.039 230.642 103.732 230.641Z" fill="#E0E0E0"/>
</g>
<path d="M117.576 181.629L57.0339 146.682L69.1422 139.698L129.684 174.645L117.576 181.629Z" fill="#FF80B6"/>
<path d="M129.684 174.645L129.67 185.238L128.389 184.99L127.259 186.643L125.965 186.395L124.849 188.048L123.554 187.786L122.411 189.453L121.116 189.191L119.986 190.858L118.691 190.596L117.576 192.249V181.629L129.684 174.645Z" fill="#FF80B6"/>
<path opacity="0.15" d="M129.684 174.645L129.67 185.238L128.389 184.99L127.259 186.656L125.965 186.395L124.849 188.048L123.554 187.8L122.411 189.453L121.116 189.191L119.986 190.858L118.691 190.596L117.576 192.249V181.629L129.684 174.645Z" fill="black"/>
<path opacity="0.5" d="M57.0339 146.682L69.1422 140.497L129.684 174.645L69.1422 139.698L57.0339 146.682Z" fill="white"/>
<path d="M98.9101 75.7803H87.4768V84.1005H98.9101V75.7803Z" fill="#455A64"/>
<path d="M98.9102 84.0866L106.087 76.648V71.689L98.9102 75.8353V84.0866Z" fill="#37474F"/>
<path d="M87.4768 84.0866L80.3137 76.648V71.689L87.4768 75.8353V84.0866Z" fill="#37474F"/>
<path d="M93.3588 196.203C93.1919 196.199 93.0327 196.131 92.9146 196.013C92.7966 195.895 92.7287 195.736 92.7252 195.569L92.5736 79.8579C92.5718 79.7754 92.5865 79.6933 92.6168 79.6165C92.6471 79.5397 92.6925 79.4697 92.7503 79.4107C92.808 79.3516 92.877 79.3048 92.9531 79.2727C93.0292 79.2407 93.111 79.2243 93.1935 79.2243C93.2761 79.2224 93.3582 79.2371 93.435 79.2674C93.5118 79.2978 93.5817 79.3431 93.6408 79.4009C93.6998 79.4586 93.7467 79.5276 93.7787 79.6037C93.8107 79.6798 93.8272 79.7616 93.8272 79.8442L93.9925 195.555C93.989 195.722 93.9211 195.881 93.803 195.999C93.6849 196.118 93.5258 196.185 93.3588 196.189V196.203Z" fill="#EBEBEB"/>
<path d="M153.887 161.297C153.779 161.295 153.674 161.266 153.58 161.213C153.486 161.161 153.407 161.085 153.35 160.994L102.616 78.219C102.563 78.1486 102.525 78.0678 102.505 77.9818C102.484 77.8959 102.482 77.8067 102.499 77.7199C102.515 77.6332 102.549 77.5508 102.6 77.4781C102.65 77.4053 102.714 77.3439 102.789 77.2976C102.865 77.2513 102.949 77.2213 103.036 77.2094C103.124 77.1975 103.213 77.204 103.297 77.2285C103.382 77.253 103.461 77.2949 103.529 77.3517C103.596 77.4084 103.651 77.4786 103.69 77.5578L154.424 160.388C154.469 160.458 154.499 160.536 154.513 160.618C154.527 160.7 154.524 160.785 154.505 160.866C154.486 160.947 154.45 161.023 154.401 161.09C154.351 161.157 154.289 161.213 154.217 161.256C154.112 161.296 153.999 161.31 153.887 161.297Z" fill="#EBEBEB"/>
<path d="M32.6104 161.296C32.4936 161.294 32.3796 161.261 32.2798 161.2C32.1545 161.111 32.0667 160.978 32.0336 160.828C32.0005 160.678 32.0245 160.521 32.1008 160.387L82.8346 77.6125C82.8735 77.5333 82.9286 77.4631 82.9963 77.4063C83.0639 77.3496 83.1427 77.3077 83.2275 77.2832C83.3123 77.2587 83.4013 77.2522 83.4887 77.2641C83.5762 77.276 83.6602 77.306 83.7354 77.3523C83.8106 77.3986 83.8753 77.46 83.9253 77.5328C83.9753 77.6055 84.0096 77.6879 84.026 77.7746C84.0423 77.8613 84.0404 77.9505 84.0202 78.0365C84.0001 78.1224 83.9622 78.2032 83.909 78.2737L33.1752 161.049C33.1091 161.134 33.0229 161.201 32.9242 161.244C32.8256 161.287 32.7178 161.305 32.6104 161.296Z" fill="#EBEBEB"/>
<path d="M154.7 47.6104C150.388 47.6104 149.024 19.6606 149.024 19.6606H160.375C160.375 19.6606 158.997 47.6104 154.7 47.6104Z" fill="#37474F"/>
<path d="M150.719 17.3469C151.96 16.7154 153.334 16.3862 154.727 16.3862C156.12 16.3862 157.494 16.7154 158.736 17.3469C160.953 18.6142 160.953 20.6943 158.736 21.9753C157.494 22.6068 156.12 22.936 154.727 22.936C153.334 22.936 151.96 22.6068 150.719 21.9753C148.501 20.6943 148.501 18.6142 150.719 17.3469Z" fill="#455A64"/>
<path d="M31.9905 47.6104C36.2884 47.6104 37.6521 19.6606 37.6521 19.6606H26.3152C26.3152 19.6606 27.6927 47.6104 31.9905 47.6104Z" fill="#37474F"/>
<path d="M35.9992 17.3469C34.7573 16.7154 33.3838 16.3862 31.9906 16.3862C30.5974 16.3862 29.2239 16.7154 27.982 17.3469C25.7642 18.628 25.7642 20.6943 27.982 21.9753C29.2239 22.6068 30.5974 22.936 31.9906 22.936C33.3838 22.936 34.7573 22.6068 35.9992 21.9753C38.2032 20.6943 38.2032 18.628 35.9992 17.3469Z" fill="#455A64"/>
<path d="M33.0512 32.0031L76.0159 66.7302L33.0512 101.457L37.3491 103.937L93.1935 76.6483L149.052 103.937L153.349 101.457L110.385 66.7302L153.349 32.0031L149.052 29.5098L93.1935 56.7983L37.3353 29.5098L33.0512 32.0031Z" fill="#E0E0E0"/>
<path d="M37.3491 98.9779L93.1935 66.7303L149.052 98.9779L153.349 96.4983L110.385 56.7984L153.349 27.0303L149.052 24.5508L93.1935 46.8803L37.3353 24.5508L33.0512 27.0303L76.0159 56.7984L33.0512 96.4983L37.3491 98.9779Z" fill="#F5F5F5"/>
<path d="M149.052 98.9781V103.937L153.349 101.458V96.4985L149.052 98.9781Z" fill="#E0E0E0"/>
<path d="M93.1935 66.7305V76.6486L149.052 103.937V98.9781L93.1935 66.7305Z" fill="#EBEBEB"/>
<path d="M33.0512 27.0308L76.0159 56.7988L69.2661 62.116L33.0512 32.0036V27.0308Z" fill="#EBEBEB"/>
<path d="M110.385 56.7988L117.135 62.116L153.35 32.0036V27.0308L110.385 56.7988Z" fill="#E0E0E0"/>
<path d="M100.976 52.2666H85.4243C84.9754 52.2666 84.6116 52.6305 84.6116 53.0793V60.5317C84.6116 60.9805 84.9754 61.3444 85.4243 61.3444H100.976C101.425 61.3444 101.789 60.9805 101.789 60.5317V53.0793C101.789 52.6305 101.425 52.2666 100.976 52.2666Z" fill="#FF80B6"/>
<path d="M37.3491 98.9781V103.937L33.0512 101.458V96.4985L37.3491 98.9781Z" fill="#EBEBEB"/>
<path d="M153.983 123.319C149.672 123.319 148.308 95.3555 148.308 95.3555H159.645C159.645 95.3555 158.267 123.319 153.983 123.319Z" fill="#37474F"/>
<path d="M149.975 93.0407C151.217 92.4092 152.59 92.0801 153.983 92.0801C155.376 92.0801 156.75 92.4092 157.992 93.0407C160.21 94.3218 160.21 96.4019 157.992 97.6692C156.75 98.3007 155.376 98.6298 153.983 98.6298C152.59 98.6298 151.217 98.3007 149.975 97.6692C147.812 96.4019 147.812 94.2667 149.975 93.0407Z" fill="#455A64"/>
<path d="M32.4176 123.319C36.7292 123.319 38.0929 95.3555 38.0929 95.3555H26.7422C26.7422 95.3555 28.1197 123.319 32.4176 123.319Z" fill="#37474F"/>
<path d="M36.4262 93.0407C35.1843 92.4092 33.8108 92.0801 32.4176 92.0801C31.0244 92.0801 29.6509 92.4092 28.409 93.0407C26.1912 94.3218 26.1912 96.4019 28.409 97.6692C29.6509 98.3007 31.0244 98.6298 32.4176 98.6298C33.8108 98.6298 35.1843 98.3007 36.4262 97.6692C38.644 96.4019 38.644 94.2667 36.4262 93.0407Z" fill="#455A64"/>
<path opacity="0.3" d="M176.106 81.2491L153.983 94.0187L131.86 81.2491C144.065 74.1963 163.874 74.1963 176.106 81.2491Z" fill="#FF80B6"/>
<path opacity="0.1" d="M176.106 106.789L153.983 94.0191L176.106 81.2495C188.311 88.3024 188.311 99.7771 176.106 106.789Z" fill="#FF80B6"/>
<path opacity="0.3" d="M176.106 106.789C163.874 113.841 144.065 113.841 131.86 106.789L153.983 94.019L176.106 106.789Z" fill="#FF80B6"/>
<path opacity="0.1" d="M153.983 94.0191L131.86 106.789C119.656 99.7357 119.656 88.3024 131.86 81.2495L153.983 94.0191Z" fill="#FF80B6"/>
<path d="M157.248 95.6442V94.2667H156.173C155.488 93.9466 154.74 93.7808 153.983 93.7808C153.226 93.7808 152.479 93.9466 151.793 94.2667H150.718V95.6442C150.737 95.9384 150.835 96.222 151.003 96.4647C151.17 96.7073 151.401 96.8998 151.669 97.0217C152.385 97.3815 153.175 97.5689 153.976 97.5689C154.778 97.5689 155.568 97.3815 156.284 97.0217C156.555 96.9018 156.788 96.7101 156.958 96.4673C157.128 96.2245 157.228 95.9399 157.248 95.6442Z" fill="#FF80B6"/>
<path opacity="0.3" d="M157.248 95.6442V94.2667H156.173C155.488 93.9466 154.74 93.7808 153.983 93.7808C153.226 93.7808 152.479 93.9466 151.793 94.2667H150.718V95.6442C150.737 95.9384 150.835 96.222 151.003 96.4647C151.17 96.7073 151.401 96.8998 151.669 97.0217C152.385 97.3815 153.175 97.5689 153.976 97.5689C154.778 97.5689 155.568 97.3815 156.284 97.0217C156.555 96.9018 156.788 96.7101 156.958 96.4673C157.128 96.2245 157.228 95.9399 157.248 95.6442Z" fill="black"/>
<path d="M156.284 92.8895C155.568 92.5297 154.778 92.3423 153.976 92.3423C153.175 92.3423 152.385 92.5297 151.669 92.8895C151.371 92.9641 151.107 93.1362 150.918 93.3783C150.729 93.6203 150.626 93.9186 150.626 94.2257C150.626 94.5327 150.729 94.831 150.918 95.0731C151.107 95.3152 151.371 95.4872 151.669 95.5619C152.385 95.9217 153.175 96.1091 153.976 96.1091C154.778 96.1091 155.568 95.9217 156.284 95.5619C156.581 95.4872 156.846 95.3152 157.035 95.0731C157.224 94.831 157.326 94.5327 157.326 94.2257C157.326 93.9186 157.224 93.6203 157.035 93.3783C156.846 93.1362 156.581 92.9641 156.284 92.8895Z" fill="#FF80B6"/>
<path d="M155.127 93.5915C154.771 93.4144 154.38 93.3223 153.983 93.3223C153.586 93.3223 153.195 93.4144 152.84 93.5915C152.206 93.9634 152.206 94.5558 152.84 94.969C153.193 95.1526 153.585 95.2484 153.983 95.2484C154.381 95.2484 154.773 95.1526 155.127 94.969C155.76 94.5558 155.76 93.9634 155.127 93.5915Z" fill="#455A64"/>
<path opacity="0.3" d="M54.5404 81.2491L32.4176 94.0187L10.2947 81.2491C22.4581 74.1963 42.3081 74.1963 54.5404 81.2491Z" fill="#FF80B6"/>
<path opacity="0.1" d="M54.5404 106.789L32.4176 94.0191L54.5404 81.2495C66.7452 88.3024 66.7452 99.7771 54.5404 106.789Z" fill="#FF80B6"/>
<path opacity="0.3" d="M54.5404 106.789C42.3081 113.841 22.5132 113.841 10.2947 106.789L32.4176 94.019L54.5404 106.789Z" fill="#FF80B6"/>
<path opacity="0.1" d="M32.4176 94.0191L10.2947 106.789C-1.91009 99.7357 -1.91009 88.3024 10.2947 81.2495L32.4176 94.0191Z" fill="#FF80B6"/>
<path d="M35.6823 95.6442V94.2667H34.6079C33.922 93.9466 33.1744 93.7808 32.4176 93.7808C31.6608 93.7808 30.9132 93.9466 30.2273 94.2667H29.1529V95.6442C29.1728 95.9399 29.2731 96.2245 29.4431 96.4673C29.613 96.7101 29.8461 96.9018 30.1171 97.0217C30.8331 97.3815 31.6232 97.5689 32.4245 97.5689C33.2257 97.5689 34.0159 97.3815 34.7318 97.0217C35.0003 96.8998 35.2305 96.7073 35.398 96.4647C35.5654 96.222 35.6637 95.9384 35.6823 95.6442Z" fill="#FF80B6"/>
<path opacity="0.3" d="M35.6823 95.6442V94.2667H34.6079C33.922 93.9466 33.1744 93.7808 32.4176 93.7808C31.6608 93.7808 30.9132 93.9466 30.2273 94.2667H29.1529V95.6442C29.1728 95.9399 29.2731 96.2245 29.4431 96.4673C29.613 96.7101 29.8461 96.9018 30.1171 97.0217C30.8331 97.3815 31.6232 97.5689 32.4245 97.5689C33.2257 97.5689 34.0159 97.3815 34.7318 97.0217C35.0003 96.8998 35.2305 96.7073 35.398 96.4647C35.5654 96.222 35.6637 95.9384 35.6823 95.6442Z" fill="black"/>
<path d="M34.7318 92.8895C34.0159 92.5297 33.2258 92.3423 32.4245 92.3423C31.6232 92.3423 30.8331 92.5297 30.1172 92.8895C29.8193 92.9641 29.5549 93.1362 29.366 93.3783C29.1771 93.6203 29.0745 93.9186 29.0745 94.2257C29.0745 94.5327 29.1771 94.831 29.366 95.0731C29.5549 95.3152 29.8193 95.4872 30.1172 95.5619C30.8331 95.9217 31.6232 96.1091 32.4245 96.1091C33.2258 96.1091 34.0159 95.9217 34.7318 95.5619C35.0297 95.4872 35.2941 95.3152 35.483 95.0731C35.6719 94.831 35.7745 94.5327 35.7745 94.2257C35.7745 93.9186 35.6719 93.6203 35.483 93.3783C35.2941 93.1362 35.0297 92.9641 34.7318 92.8895Z" fill="#FF80B6"/>
<path d="M33.561 93.5915C33.2058 93.4144 32.8144 93.3223 32.4176 93.3223C32.0208 93.3223 31.6294 93.4144 31.2743 93.5915C30.6406 93.9634 30.6406 94.5558 31.2743 94.969C31.6274 95.1526 32.0196 95.2484 32.4176 95.2484C32.8156 95.2484 33.2078 95.1526 33.561 94.969C34.1946 94.5558 34.1946 93.9634 33.561 93.5915Z" fill="#455A64"/>
<path opacity="0.3" d="M176.85 5.48594L154.699 18.2555L132.659 5.48594C144.823 -1.56693 164.618 -1.56693 176.85 5.48594Z" fill="#FF80B6"/>
<path opacity="0.1" d="M176.85 31.0245L154.699 18.2549L176.822 5.48535C189.055 12.5382 189.055 24.0129 176.85 31.0245Z" fill="#FF80B6"/>
<path opacity="0.3" d="M176.85 31.0249C164.618 38.0778 144.823 38.0778 132.604 31.0249L154.699 18.2554L176.85 31.0249Z" fill="#FF80B6"/>
<path opacity="0.1" d="M154.7 18.2549L132.659 31.0245C120.455 23.9716 120.455 12.5382 132.659 5.48535L154.7 18.2549Z" fill="#FF80B6"/>
<path d="M157.992 19.881V18.5035H156.917C156.231 18.1834 155.484 18.0176 154.727 18.0176C153.97 18.0176 153.223 18.1834 152.537 18.5035H151.462V19.881C151.482 20.1767 151.583 20.4613 151.753 20.7041C151.922 20.9469 152.156 21.1386 152.427 21.2585C153.143 21.6183 153.933 21.8057 154.734 21.8057C155.535 21.8057 156.325 21.6183 157.041 21.2585C157.31 21.1367 157.54 20.9441 157.707 20.7015C157.875 20.4588 157.973 20.1752 157.992 19.881Z" fill="#FF80B6"/>
<path opacity="0.3" d="M157.992 19.881V18.5035H156.917C156.231 18.1834 155.484 18.0176 154.727 18.0176C153.97 18.0176 153.223 18.1834 152.537 18.5035H151.462V19.881C151.482 20.1767 151.583 20.4613 151.753 20.7041C151.922 20.9469 152.156 21.1386 152.427 21.2585C153.143 21.6183 153.933 21.8057 154.734 21.8057C155.535 21.8057 156.325 21.6183 157.041 21.2585C157.31 21.1367 157.54 20.9441 157.707 20.7015C157.875 20.4588 157.973 20.1752 157.992 19.881Z" fill="black"/>
<path d="M157.041 17.1256C156.327 16.7594 155.536 16.5684 154.734 16.5684C153.932 16.5684 153.141 16.7594 152.427 17.1256C152.135 17.2049 151.877 17.378 151.694 17.6183C151.51 17.8585 151.41 18.1525 151.41 18.4549C151.41 18.7573 151.51 19.0513 151.694 19.2915C151.877 19.5318 152.135 19.7049 152.427 19.7842C153.141 20.1504 153.932 20.3415 154.734 20.3415C155.536 20.3415 156.327 20.1504 157.041 19.7842C157.333 19.7049 157.591 19.5318 157.774 19.2915C157.958 19.0513 158.058 18.7573 158.058 18.4549C158.058 18.1525 157.958 17.8585 157.774 17.6183C157.591 17.378 157.333 17.2049 157.041 17.1256Z" fill="#FF80B6"/>
<path d="M155.87 17.8288C155.515 17.6517 155.124 17.5596 154.727 17.5596C154.33 17.5596 153.939 17.6517 153.584 17.8288C152.95 18.2007 152.95 18.7931 153.584 19.2063C153.937 19.3899 154.329 19.4857 154.727 19.4857C155.125 19.4857 155.517 19.3899 155.87 19.2063C156.504 18.7931 156.504 18.2007 155.87 17.8288Z" fill="#455A64"/>
<path opacity="0.3" d="M54.141 5.48594L32.0319 18.2555L9.90901 5.48594C22.0725 -1.56693 41.8811 -1.56693 54.141 5.48594Z" fill="#FF80B6"/>
<path opacity="0.1" d="M54.141 31.0245L32.0319 18.2549L54.141 5.48535C66.3182 12.5382 66.3182 24.0129 54.141 31.0245Z" fill="#FF80B6"/>
<path opacity="0.3" d="M54.141 31.0249C41.9224 38.0778 22.1138 38.0778 9.90901 31.0249L32.0319 18.2554L54.141 31.0249Z" fill="#FF80B6"/>
<path opacity="0.1" d="M31.9905 18.2549L9.86767 31.0245C-2.33711 24.0129 -2.33711 12.5382 9.86767 5.48535L31.9905 18.2549Z" fill="#FF80B6"/>
<path d="M35.2553 19.881V18.5035H34.1808C33.495 18.1834 32.7474 18.0176 31.9906 18.0176C31.2337 18.0176 30.4861 18.1834 29.8003 18.5035H28.7259V19.881C28.7445 20.1752 28.8428 20.4588 29.0102 20.7015C29.1776 20.9441 29.4079 21.1367 29.6763 21.2585C30.3923 21.6183 31.1824 21.8057 31.9837 21.8057C32.7849 21.8057 33.5751 21.6183 34.291 21.2585C34.562 21.1386 34.7951 20.9469 34.9651 20.7041C35.135 20.4613 35.2354 20.1767 35.2553 19.881Z" fill="#FF80B6"/>
<path opacity="0.3" d="M35.2553 19.881V18.5035H34.1808C33.495 18.1834 32.7474 18.0176 31.9906 18.0176C31.2337 18.0176 30.4861 18.1834 29.8003 18.5035H28.7259V19.881C28.7445 20.1752 28.8428 20.4588 29.0102 20.7015C29.1776 20.9441 29.4079 21.1367 29.6763 21.2585C30.3923 21.6183 31.1824 21.8057 31.9837 21.8057C32.7849 21.8057 33.5751 21.6183 34.291 21.2585C34.562 21.1386 34.7951 20.9469 34.9651 20.7041C35.135 20.4613 35.2354 20.1767 35.2553 19.881Z" fill="black"/>
<path d="M34.291 17.1256C33.577 16.7594 32.7861 16.5684 31.9836 16.5684C31.1812 16.5684 30.3903 16.7594 29.6763 17.1256C29.3845 17.2049 29.1269 17.378 28.9432 17.6183C28.7595 17.8585 28.66 18.1525 28.66 18.4549C28.66 18.7573 28.7595 19.0513 28.9432 19.2915C29.1269 19.5318 29.3845 19.7049 29.6763 19.7842C30.3903 20.1504 31.1812 20.3415 31.9836 20.3415C32.7861 20.3415 33.577 20.1504 34.291 19.7842C34.5828 19.7049 34.8404 19.5318 35.0241 19.2915C35.2077 19.0513 35.3072 18.7573 35.3072 18.4549C35.3072 18.1525 35.2077 17.8585 35.0241 17.6183C34.8404 17.378 34.5828 17.2049 34.291 17.1256Z" fill="#FF80B6"/>
<path d="M33.1339 17.8279C32.7761 17.6517 32.3826 17.5601 31.9837 17.5601C31.5848 17.5601 31.1913 17.6517 30.8335 17.8279C30.6744 17.8599 30.5312 17.946 30.4284 18.0715C30.3256 18.1971 30.2694 18.3544 30.2694 18.5167C30.2694 18.679 30.3256 18.8363 30.4284 18.9618C30.5312 19.0874 30.6744 19.1735 30.8335 19.2054C31.1891 19.3891 31.5835 19.4849 31.9837 19.4849C32.3839 19.4849 32.7783 19.3891 33.1339 19.2054C33.7676 18.7922 33.7676 18.1999 33.1339 17.8279Z" fill="#455A64"/>
<path d="M95.0394 55.6964C94.4644 55.408 93.83 55.2578 93.1867 55.2578C92.5434 55.2578 91.9089 55.408 91.3339 55.6964C91.1166 55.776 90.929 55.9204 90.7964 56.1101C90.6639 56.2998 90.5927 56.5257 90.5927 56.7571C90.5927 56.9885 90.6639 57.2144 90.7964 57.4041C90.929 57.5938 91.1166 57.7382 91.3339 57.8178C91.9028 58.1102 92.5332 58.2628 93.1729 58.2628C93.8125 58.2628 94.443 58.1102 95.0119 57.8178C95.2303 57.7411 95.4198 57.5991 95.5549 57.4111C95.69 57.2231 95.764 56.9982 95.767 56.7667C95.77 56.5353 95.7018 56.3085 95.5717 56.117C95.4415 55.9256 95.2558 55.7788 95.0394 55.6964Z" fill="#FAFAFA"/>
</svg>
