<svg width="235" height="249" viewBox="0 0 235 249" fill="none" xmlns="http://www.w3.org/2000/svg">
<path d="M143.701 112.771L232.085 163.794C232.919 164.243 233.616 164.909 234.102 165.722C234.588 166.536 234.845 167.465 234.845 168.413C234.845 169.36 234.588 170.289 234.102 171.103C233.616 171.916 232.919 172.582 232.085 173.031L101.948 248.172C101.086 248.612 100.132 248.841 99.1648 248.841C98.1974 248.841 97.2437 248.612 96.382 248.172L7.99797 197.143C7.16376 196.694 6.4667 196.028 5.98081 195.214C5.49492 194.401 5.23835 193.472 5.23835 192.524C5.23835 191.577 5.49492 190.648 5.98081 189.834C6.4667 189.021 7.16376 188.355 7.99797 187.906L138.135 112.771C138.997 112.331 139.951 112.102 140.918 112.102C141.886 112.102 142.839 112.331 143.701 112.771Z" fill="#F0F0F0"/>
<path d="M99.1682 242.81V248.835C98.1984 248.861 97.2385 248.635 96.382 248.179L7.99804 197.143C7.19135 196.706 6.51332 196.066 6.03162 195.285C5.54992 194.504 5.2814 193.611 5.25288 192.694C5.22435 191.777 5.4368 190.869 5.86904 190.06C6.30127 189.251 6.93817 188.569 7.71615 188.083C6.47056 188.981 6.56234 190.286 7.99804 191.118L96.382 242.148C97.2398 242.601 98.1984 242.828 99.1682 242.81Z" fill="#E6E6E6"/>
<path opacity="0.1" d="M99.1682 242.81V248.835C98.1984 248.861 97.2385 248.635 96.382 248.179L7.99804 197.143C7.19135 196.706 6.51332 196.066 6.03162 195.285C5.54992 194.504 5.2814 193.611 5.25288 192.694C5.22435 191.777 5.4368 190.869 5.86904 190.06C6.30127 189.251 6.93817 188.569 7.71615 188.083C6.47056 188.981 6.56234 190.286 7.99804 191.118L96.382 242.148C97.2398 242.601 98.1984 242.828 99.1682 242.81Z" fill="black"/>
<path d="M101.948 242.148L232.085 167.013C233.626 166.121 233.626 164.686 232.085 163.801L143.701 112.771C142.839 112.331 141.886 112.102 140.918 112.102C139.951 112.102 138.997 112.331 138.135 112.771L7.99801 187.906C6.46398 188.791 6.46398 190.233 7.99801 191.118L96.382 242.148C97.2448 242.584 98.1981 242.811 99.1649 242.811C100.132 242.811 101.085 242.584 101.948 242.148Z" fill="#FAFAFA"/>
<path d="M99.1682 243.118C98.1404 243.138 97.1246 242.895 96.2181 242.41L7.8341 191.4C7.44811 191.258 7.11508 191 6.87986 190.663C6.64464 190.325 6.51854 189.923 6.51854 189.512C6.51854 189.101 6.64464 188.699 6.87986 188.361C7.11508 188.024 7.44811 187.767 7.8341 187.624L137.971 112.483C138.886 112.021 139.897 111.781 140.921 111.781C141.946 111.781 142.956 112.021 143.871 112.483L232.255 163.512C232.641 163.656 232.973 163.914 233.207 164.252C233.442 164.59 233.568 164.992 233.568 165.403C233.568 165.815 233.442 166.216 233.207 166.554C232.973 166.892 232.641 167.151 232.255 167.295L102.112 242.462C101.202 242.928 100.189 243.154 99.1682 243.118ZM140.921 112.41C140.009 112.394 139.107 112.608 138.299 113.033L8.16188 188.188C7.88727 188.28 7.64858 188.456 7.47949 188.692C7.31039 188.927 7.21943 189.209 7.21943 189.499C7.21943 189.789 7.31039 190.071 7.47949 190.306C7.64858 190.542 7.88727 190.718 8.16188 190.81L96.5459 241.84C97.3586 242.251 98.257 242.466 99.1682 242.466C100.079 242.466 100.978 242.251 101.79 241.84L231.921 166.724C232.199 166.635 232.441 166.461 232.613 166.225C232.785 165.989 232.878 165.705 232.878 165.413C232.878 165.122 232.785 164.837 232.613 164.602C232.441 164.366 232.199 164.191 231.921 164.102L143.537 113.053C142.732 112.628 141.832 112.414 140.921 112.43V112.41Z" fill="#E0E0E0"/>
<path d="M113.348 199.378L158.622 173.241L179.921 185.539L134.654 211.677L113.348 199.378Z" fill="#E0E0E0"/>
<path d="M114.489 200.034L134.654 211.676L178.787 186.201L158.622 174.558L114.489 200.034Z" fill="#EBEBEB"/>
<path d="M140.921 107.952V5.8933C140.887 4.95564 140.631 4.03942 140.176 3.2192C139.72 2.39898 139.077 1.69796 138.299 1.17319C137.456 0.765547 136.529 0.562035 135.593 0.579118C134.657 0.596201 133.738 0.833401 132.91 1.27153L2.77962 76.4064C1.97132 76.9358 1.29867 77.6476 0.815869 78.4846C0.333064 79.3215 0.0536015 80.2602 0 81.2249V183.284C0.034626 184.222 0.290178 185.138 0.745854 185.958C1.20153 186.778 1.84445 187.479 2.62228 188.004C3.46521 188.412 4.39225 188.615 5.32841 188.598C6.26458 188.581 7.18358 188.344 8.01107 187.906L138.142 112.771C138.95 112.242 139.623 111.53 140.106 110.693C140.588 109.856 140.868 108.917 140.921 107.952Z" fill="#E6E6E6"/>
<path opacity="0.1" d="M140.921 107.952V5.8933C140.887 4.95564 140.631 4.03942 140.176 3.2192C139.72 2.39898 139.077 1.69796 138.299 1.17319C137.456 0.765547 136.529 0.562035 135.593 0.579118C134.657 0.596201 133.738 0.833401 132.91 1.27153L2.77962 76.4064C1.97132 76.9358 1.29867 77.6476 0.815869 78.4846C0.333064 79.3215 0.0536015 80.2602 0 81.2249V183.284C0.034626 184.222 0.290178 185.138 0.745854 185.958C1.20153 186.778 1.84445 187.479 2.62228 188.004C3.46521 188.412 4.39225 188.615 5.32841 188.598C6.26458 188.581 7.18358 188.344 8.01107 187.906L138.142 112.771C138.95 112.242 139.623 111.53 140.106 110.693C140.588 109.856 140.868 108.917 140.921 107.952Z" fill="black"/>
<path d="M140.856 5.24436C140.587 3.93322 139.473 3.51366 138.135 4.28723L7.998 79.4221C7.18199 79.9347 6.50617 80.6421 6.03129 81.4806L0.786732 78.4781C1.2562 77.6321 1.93295 76.9193 2.75344 76.4065L132.917 1.27161C133.746 0.833414 134.666 0.5962 135.603 0.579118C136.54 0.562036 137.468 0.765564 138.312 1.17327C138.998 1.6357 139.579 2.23709 140.017 2.93844C140.455 3.63978 140.741 4.42541 140.856 5.24436Z" fill="#F0F0F0"/>
<path d="M7.99807 79.4221L138.142 4.28722C139.676 3.4022 140.922 4.11677 140.922 5.89337V107.953C140.868 108.917 140.588 109.856 140.106 110.693C139.623 111.53 138.95 112.242 138.142 112.771L8.00463 187.906C6.46404 188.791 5.21845 188.076 5.21845 186.3V84.2406C5.27051 83.2755 5.54932 82.3363 6.03226 81.4991C6.51521 80.6619 7.18869 79.9503 7.99807 79.4221Z" fill="#FAFAFA"/>
<path d="M6.75901 188.614C6.44697 188.616 6.13976 188.537 5.86744 188.384C5.5339 188.155 5.26755 187.841 5.09584 187.475C4.92414 187.108 4.8533 186.703 4.89064 186.3V84.2404C4.94953 83.2196 5.24639 82.2267 5.75749 81.3411C6.26858 80.4555 6.97975 79.7018 7.83415 79.1401L137.978 4.00514C138.294 3.73923 138.684 3.57703 139.096 3.54057C139.507 3.50411 139.92 3.59515 140.278 3.80134C140.636 4.00752 140.922 4.31886 141.097 4.69309C141.272 5.06732 141.327 5.48631 141.256 5.89319V107.952C141.2 108.974 140.905 109.968 140.394 110.854C139.882 111.741 139.169 112.494 138.312 113.053L8.16193 188.188C7.73981 188.45 7.25595 188.597 6.75901 188.614ZM8.16193 79.7038C7.3996 80.2013 6.76502 80.8711 6.30948 81.6592C5.85394 82.4473 5.59022 83.3315 5.53965 84.2404V186.3C5.47258 186.588 5.50022 186.89 5.61845 187.161C5.73669 187.433 5.93923 187.659 6.19604 187.806C6.45285 187.953 6.75025 188.014 7.04414 187.978C7.33804 187.943 7.61277 187.814 7.82759 187.611L137.978 112.482C138.74 111.986 139.375 111.318 139.83 110.531C140.286 109.744 140.55 108.86 140.6 107.952V5.89319C140.667 5.60489 140.64 5.30266 140.521 5.03131C140.403 4.75996 140.201 4.53395 139.944 4.38678C139.687 4.23961 139.39 4.17913 139.096 4.2143C138.802 4.24947 138.527 4.37843 138.312 4.58205L8.16193 79.7038Z" fill="#E0E0E0"/>
<path d="M135.703 11.7212L10.4368 84.0437V180.472L135.703 108.149V11.7212Z" fill="#37474F"/>
<path d="M133.933 107.127V12.7441L10.4368 84.044V178.426L133.933 107.127Z" fill="#482C4E"/>
<path d="M27.8028 187.041L139.25 122.696C139.767 122.434 140.338 122.298 140.918 122.298C141.498 122.298 142.069 122.434 142.587 122.696L180.964 144.855C181.882 145.386 181.882 146.251 180.964 146.782L69.5168 211.126C68.9983 211.388 68.4258 211.524 67.8451 211.524C67.2644 211.524 66.6918 211.388 66.1734 211.126L27.7963 188.968C26.885 188.437 26.885 187.572 27.8028 187.041Z" fill="#E0E0E0"/>
<path d="M74.0139 205.75L68.8283 202.761C68.4837 202.583 68.1016 202.491 67.7139 202.491C67.3261 202.491 66.944 202.583 66.5994 202.761L61.5777 205.659C61.4038 205.659 61.2371 205.728 61.1142 205.851C60.9912 205.974 60.9221 206.14 60.9221 206.314C60.9221 206.488 60.9912 206.655 61.1142 206.778C61.2371 206.901 61.4038 206.97 61.5777 206.97L66.7633 209.966C67.1077 210.14 67.4884 210.231 67.8745 210.231C68.2606 210.231 68.6413 210.14 68.9857 209.966L74.0139 207.062C74.1 207.062 74.1852 207.045 74.2648 207.012C74.3443 206.979 74.4166 206.93 74.4774 206.87C74.5383 206.809 74.5866 206.736 74.6196 206.657C74.6525 206.577 74.6695 206.492 74.6695 206.406C74.6695 206.32 74.6525 206.235 74.6196 206.155C74.5866 206.076 74.5383 206.003 74.4774 205.943C74.4166 205.882 74.3443 205.833 74.2648 205.8C74.1852 205.767 74.1 205.75 74.0139 205.75Z" fill="#FAFAFA"/>
<path d="M84.844 199.523L79.6584 196.534C79.3129 196.359 78.9311 196.268 78.544 196.268C78.1568 196.268 77.7751 196.359 77.4295 196.534L70.3362 200.631C70.1624 200.631 69.9956 200.7 69.8727 200.823C69.7497 200.946 69.6807 201.113 69.6807 201.286C69.6807 201.46 69.7497 201.627 69.8727 201.75C69.9956 201.873 70.1624 201.942 70.3362 201.942L75.5152 204.931C75.8599 205.109 76.242 205.202 76.6297 205.202C77.0174 205.202 77.3995 205.109 77.7442 204.931L84.844 200.834C84.9301 200.834 85.0153 200.817 85.0949 200.784C85.1744 200.751 85.2467 200.703 85.3076 200.642C85.3684 200.581 85.4167 200.509 85.4497 200.429C85.4826 200.35 85.4996 200.265 85.4996 200.179C85.4996 200.092 85.4826 200.007 85.4497 199.928C85.4167 199.848 85.3684 199.776 85.3076 199.715C85.2467 199.654 85.1744 199.606 85.0949 199.573C85.0153 199.54 84.9301 199.523 84.844 199.523Z" fill="#FAFAFA"/>
<path d="M95.674 193.295L90.4884 190.299C90.1428 190.124 89.7611 190.033 89.3739 190.033C88.9868 190.033 88.605 190.124 88.2595 190.299L81.1662 194.396C80.9923 194.396 80.8256 194.465 80.7026 194.588C80.5797 194.711 80.5106 194.878 80.5106 195.052C80.5106 195.225 80.5797 195.392 80.7026 195.515C80.8256 195.638 80.9923 195.707 81.1662 195.707L86.3452 198.703C86.6908 198.878 87.0725 198.969 87.4597 198.969C87.8468 198.969 88.2286 198.878 88.5741 198.703L95.674 194.606C95.8478 194.606 96.0146 194.537 96.1375 194.414C96.2605 194.291 96.3295 194.124 96.3295 193.95C96.3295 193.776 96.2605 193.61 96.1375 193.487C96.0146 193.364 95.8478 193.295 95.674 193.295Z" fill="#FAFAFA"/>
<path d="M65.9243 194.153L71.1098 197.149C71.4554 197.324 71.8371 197.415 72.2243 197.415C72.6115 197.415 72.9932 197.324 73.3388 197.149L80.432 193.052C80.6059 193.052 80.7727 192.983 80.8956 192.86C81.0185 192.737 81.0876 192.57 81.0876 192.397C81.0876 192.223 81.0185 192.056 80.8956 191.933C80.7727 191.81 80.6059 191.741 80.432 191.741L75.253 188.745C74.9075 188.57 74.5257 188.479 74.1386 188.479C73.7514 188.479 73.3697 188.57 73.0241 188.745L65.9243 192.842C65.8382 192.842 65.7529 192.859 65.6734 192.892C65.5939 192.925 65.5216 192.973 65.4607 193.034C65.3998 193.095 65.3515 193.168 65.3186 193.247C65.2857 193.327 65.2687 193.412 65.2687 193.498C65.2687 193.584 65.2857 193.669 65.3186 193.749C65.3515 193.828 65.3998 193.901 65.4607 193.961C65.5216 194.022 65.5939 194.071 65.6734 194.104C65.7529 194.137 65.8382 194.153 65.9243 194.153Z" fill="#FAFAFA"/>
<path d="M135.506 170.278L130.321 167.282C129.975 167.107 129.594 167.016 129.206 167.016C128.819 167.016 128.438 167.107 128.092 167.282L91.9963 188.122C91.8224 188.122 91.6557 188.191 91.5327 188.314C91.4098 188.437 91.3407 188.604 91.3407 188.778C91.3407 188.952 91.4098 189.118 91.5327 189.241C91.6557 189.364 91.8224 189.433 91.9963 189.433L97.1753 192.429C97.5208 192.604 97.9026 192.695 98.2897 192.695C98.6769 192.695 99.0587 192.604 99.4042 192.429L103.187 190.233L104.931 189.237L135.506 171.589C135.68 171.589 135.847 171.52 135.97 171.397C136.093 171.274 136.162 171.107 136.162 170.933C136.162 170.759 136.093 170.593 135.97 170.47C135.847 170.347 135.68 170.278 135.506 170.278Z" fill="#FAFAFA"/>
<path d="M69.602 198.015L64.423 195.025C64.0774 194.851 63.6956 194.76 63.3085 194.76C62.9213 194.76 62.5396 194.851 62.194 195.025L52.6555 200.506C52.4816 200.506 52.3149 200.575 52.1919 200.698C52.069 200.821 51.9999 200.988 51.9999 201.161C51.9999 201.335 52.069 201.502 52.1919 201.625C52.3149 201.748 52.4816 201.817 52.6555 201.817L57.8345 204.813C58.18 204.988 58.5618 205.078 58.9489 205.078C59.3361 205.078 59.7179 204.988 60.0634 204.813L69.602 199.3C70.2182 198.946 70.2182 198.375 69.602 198.015Z" fill="#FAFAFA"/>
<path d="M58.4245 194.167L53.2389 191.178C52.8945 191.003 52.5138 190.912 52.1277 190.912C51.7416 190.912 51.361 191.003 51.0165 191.178L43.7266 195.38C43.5527 195.38 43.386 195.449 43.263 195.572C43.1401 195.695 43.071 195.861 43.071 196.035C43.071 196.209 43.1401 196.376 43.263 196.499C43.386 196.622 43.5527 196.691 43.7266 196.691L48.9122 199.687C49.2577 199.861 49.6395 199.952 50.0266 199.952C50.4138 199.952 50.7955 199.861 51.1411 199.687L58.4245 195.478C58.5106 195.478 58.5958 195.461 58.6754 195.428C58.7549 195.395 58.8272 195.347 58.888 195.286C58.9489 195.225 58.9972 195.153 59.0302 195.073C59.0631 194.994 59.0801 194.909 59.0801 194.823C59.0801 194.736 59.0631 194.651 59.0302 194.572C58.9972 194.492 58.9489 194.42 58.888 194.359C58.8272 194.298 58.7549 194.25 58.6754 194.217C58.5958 194.184 58.5106 194.167 58.4245 194.167Z" fill="#FAFAFA"/>
<path d="M45.772 191.171L40.5864 188.175C40.242 188 39.8613 187.909 39.4752 187.909C39.0891 187.909 38.7084 188 38.364 188.175L34.8043 190.227C34.188 190.587 34.188 191.157 34.8043 191.538L39.9898 194.534C40.3342 194.708 40.7149 194.799 41.101 194.799C41.4871 194.799 41.8678 194.708 42.2122 194.534L45.772 192.482C45.9458 192.482 46.1126 192.413 46.2355 192.29C46.3585 192.167 46.4275 192 46.4275 191.826C46.4275 191.652 46.3585 191.486 46.2355 191.363C46.1126 191.24 45.9458 191.171 45.772 191.171Z" fill="#FAFAFA"/>
<path d="M38.3051 185.172L37.0791 184.471C36.7357 184.293 36.3546 184.201 35.9679 184.201C35.5813 184.201 35.2002 184.293 34.8568 184.471L29.8416 187.395C29.6678 187.395 29.501 187.464 29.3781 187.587C29.2551 187.71 29.1861 187.877 29.1861 188.05C29.1861 188.224 29.2551 188.391 29.3781 188.514C29.501 188.637 29.6678 188.706 29.8416 188.706L31.0676 189.414C31.412 189.589 31.7926 189.679 32.1787 189.679C32.5649 189.679 32.9455 189.589 33.2899 189.414L38.3051 186.516C38.9213 186.084 38.9213 185.533 38.3051 185.172Z" fill="#FAFAFA"/>
<path d="M38.6262 183.579L39.8456 184.287C40.1912 184.462 40.5729 184.553 40.9601 184.553C41.3472 184.553 41.729 184.462 42.0745 184.287L47.0897 181.39C47.2635 181.39 47.4303 181.321 47.5532 181.198C47.6762 181.075 47.7452 180.908 47.7452 180.734C47.7452 180.56 47.6762 180.393 47.5532 180.271C47.4303 180.148 47.2635 180.079 47.0897 180.079L45.8637 179.371C45.5182 179.196 45.1364 179.105 44.7493 179.105C44.3621 179.105 43.9804 179.196 43.6348 179.371L38.6262 182.268C38.4524 182.268 38.2856 182.337 38.1627 182.46C38.0397 182.583 37.9707 182.75 37.9707 182.924C37.9707 183.098 38.0397 183.264 38.1627 183.387C38.2856 183.51 38.4524 183.579 38.6262 183.579Z" fill="#FAFAFA"/>
<path d="M47.3716 178.531L48.591 179.233C48.9365 179.407 49.3183 179.498 49.7054 179.498C50.0926 179.498 50.4743 179.407 50.8199 179.233L55.835 176.342C56.0089 176.342 56.1756 176.273 56.2986 176.15C56.4215 176.027 56.4906 175.86 56.4906 175.686C56.4906 175.512 56.4215 175.346 56.2986 175.223C56.1756 175.1 56.0089 175.031 55.835 175.031L54.6091 174.323C54.2635 174.148 53.8818 174.057 53.4946 174.057C53.1075 174.057 52.7257 174.148 52.3802 174.323L47.3716 177.22C46.7554 177.601 46.7554 178.171 47.3716 178.531Z" fill="#FAFAFA"/>
<path d="M56.1431 173.477L57.369 174.185C57.7146 174.359 58.0963 174.45 58.4835 174.45C58.8706 174.45 59.2524 174.359 59.598 174.185L64.6131 171.294C64.7869 171.294 64.9537 171.225 65.0766 171.102C65.1996 170.979 65.2686 170.812 65.2686 170.638C65.2686 170.464 65.1996 170.297 65.0766 170.174C64.9537 170.052 64.7869 169.982 64.6131 169.982L63.3544 169.301C63.0088 169.126 62.6271 169.035 62.2399 169.035C61.8527 169.035 61.471 169.126 61.1254 169.301L56.1431 172.192C55.9949 172.222 55.8617 172.302 55.766 172.419C55.6703 172.536 55.618 172.683 55.618 172.834C55.618 172.985 55.6703 173.132 55.766 173.249C55.8617 173.366 55.9949 173.447 56.1431 173.477Z" fill="#FAFAFA"/>
<path d="M64.8557 168.429L66.0816 169.137C66.4271 169.312 66.8089 169.403 67.196 169.403C67.5832 169.403 67.9649 169.312 68.3105 169.137L73.3256 166.24C73.4995 166.24 73.6662 166.17 73.7892 166.047C73.9121 165.925 73.9812 165.758 73.9812 165.584C73.9812 165.41 73.9121 165.243 73.7892 165.12C73.6662 164.997 73.4995 164.928 73.3256 164.928L72.0997 164.227C71.7551 164.049 71.373 163.957 70.9852 163.957C70.5975 163.957 70.2154 164.049 69.8708 164.227L64.8557 167.118C64.6818 167.118 64.515 167.187 64.3921 167.31C64.2691 167.433 64.2001 167.6 64.2001 167.774C64.2001 167.947 64.2691 168.114 64.3921 168.237C64.515 168.36 64.6818 168.429 64.8557 168.429Z" fill="#FAFAFA"/>
<path d="M73.6009 163.381L74.8269 164.089C75.1724 164.264 75.5542 164.355 75.9413 164.355C76.3285 164.355 76.7102 164.264 77.0558 164.089L82.0643 161.191C82.2382 161.191 82.405 161.122 82.5279 160.999C82.6509 160.876 82.7199 160.71 82.7199 160.536C82.7199 160.362 82.6509 160.195 82.5279 160.072C82.405 159.949 82.2382 159.88 82.0643 159.88L80.845 159.205C80.4994 159.03 80.1177 158.939 79.7305 158.939C79.3434 158.939 78.9616 159.03 78.6161 159.205L73.6009 162.103C73.4561 162.136 73.3268 162.217 73.2341 162.333C73.1415 162.449 73.091 162.593 73.091 162.742C73.091 162.89 73.1415 163.034 73.2341 163.151C73.3268 163.267 73.4561 163.348 73.6009 163.381Z" fill="#FAFAFA"/>
<path d="M82.3659 158.333L83.5919 159.041C83.9374 159.215 84.3192 159.306 84.7063 159.306C85.0935 159.306 85.4752 159.215 85.8208 159.041L90.8294 156.143C91.0032 156.143 91.17 156.074 91.2929 155.951C91.4159 155.828 91.4849 155.662 91.4849 155.488C91.4849 155.314 91.4159 155.147 91.2929 155.024C91.17 154.901 91.0032 154.832 90.8294 154.832L89.5772 154.15C89.2316 153.976 88.8499 153.885 88.4627 153.885C88.0756 153.885 87.6938 153.976 87.3483 154.15L82.3659 157.048C82.2177 157.078 82.0845 157.158 81.9888 157.276C81.8931 157.393 81.8408 157.539 81.8408 157.69C81.8408 157.842 81.8931 157.988 81.9888 158.105C82.0845 158.222 82.2177 158.303 82.3659 158.333Z" fill="#FAFAFA"/>
<path d="M91.0916 153.305L92.3175 154.013C92.6619 154.187 93.0426 154.278 93.4287 154.278C93.8148 154.278 94.1955 154.187 94.5399 154.013L99.555 151.115C99.7288 151.115 99.8956 151.046 100.019 150.923C100.141 150.8 100.211 150.634 100.211 150.46C100.211 150.286 100.141 150.119 100.019 149.996C99.8956 149.873 99.7288 149.804 99.555 149.804L98.3356 149.096C97.9901 148.922 97.6083 148.831 97.2212 148.831C96.834 148.831 96.4522 148.922 96.1067 149.096L91.0916 151.994C90.9177 151.994 90.751 152.063 90.628 152.186C90.5051 152.309 90.436 152.475 90.436 152.649C90.436 152.823 90.5051 152.99 90.628 153.113C90.751 153.236 90.9177 153.305 91.0916 153.305Z" fill="#FAFAFA"/>
<path d="M99.8369 148.237L101.063 148.939C101.406 149.117 101.787 149.209 102.174 149.209C102.561 149.209 102.942 149.117 103.285 148.939L108.3 146.048C108.474 146.048 108.641 145.979 108.764 145.856C108.887 145.733 108.956 145.566 108.956 145.392C108.956 145.218 108.887 145.052 108.764 144.929C108.641 144.806 108.474 144.737 108.3 144.737L107.081 144.029C106.735 143.854 106.354 143.763 105.966 143.763C105.579 143.763 105.198 143.854 104.852 144.029L99.8369 146.926C99.7508 146.926 99.6656 146.943 99.586 146.976C99.5065 147.009 99.4342 147.057 99.3733 147.118C99.3125 147.179 99.2642 147.252 99.2312 147.331C99.1983 147.411 99.1813 147.496 99.1813 147.582C99.1813 147.668 99.1983 147.753 99.2312 147.833C99.2642 147.912 99.3125 147.985 99.3733 148.045C99.4342 148.106 99.5065 148.155 99.586 148.188C99.6656 148.221 99.7508 148.237 99.8369 148.237Z" fill="#FAFAFA"/>
<path d="M108.589 143.19L109.815 143.891C110.159 144.066 110.54 144.157 110.926 144.157C111.312 144.157 111.693 144.066 112.037 143.891L117.052 141C117.226 141 117.393 140.931 117.516 140.808C117.639 140.685 117.708 140.518 117.708 140.345C117.708 140.171 117.639 140.004 117.516 139.881C117.393 139.758 117.226 139.689 117.052 139.689L115.8 139.007C115.456 138.833 115.075 138.742 114.689 138.742C114.303 138.742 113.922 138.833 113.578 139.007L108.589 141.898C108.437 141.925 108.299 142.004 108.2 142.122C108.101 142.24 108.046 142.39 108.046 142.544C108.046 142.698 108.101 142.848 108.2 142.966C108.299 143.084 108.437 143.163 108.589 143.19Z" fill="#FAFAFA"/>
<path d="M117.327 138.135L118.553 138.843C118.898 139.018 119.278 139.109 119.665 139.109C120.051 139.109 120.431 139.018 120.776 138.843L125.791 135.952C126.407 135.592 126.407 135.021 125.791 134.641L124.565 133.933C124.221 133.758 123.84 133.667 123.454 133.667C123.068 133.667 122.687 133.758 122.343 133.933L117.327 136.824C117.154 136.824 116.987 136.893 116.864 137.016C116.741 137.139 116.672 137.306 116.672 137.48C116.672 137.653 116.741 137.82 116.864 137.943C116.987 138.066 117.154 138.135 117.327 138.135Z" fill="#FAFAFA"/>
<path d="M126.073 133.087L127.299 133.795C127.643 133.969 128.024 134.06 128.41 134.06C128.796 134.06 129.177 133.969 129.521 133.795L134.536 130.897C135.152 130.543 135.152 129.973 134.536 129.586L133.31 128.885C132.967 128.707 132.586 128.614 132.199 128.614C131.812 128.614 131.431 128.707 131.088 128.885L126.073 131.776C125.899 131.776 125.732 131.845 125.609 131.968C125.486 132.091 125.417 132.257 125.417 132.431C125.417 132.605 125.486 132.772 125.609 132.895C125.732 133.018 125.899 133.087 126.073 133.087Z" fill="#FAFAFA"/>
<path d="M134.812 128.039L136.037 128.747C136.382 128.922 136.763 129.013 137.149 129.013C137.535 129.013 137.915 128.922 138.26 128.747L143.275 125.85C143.449 125.85 143.616 125.78 143.739 125.658C143.861 125.535 143.931 125.368 143.931 125.194C143.931 125.02 143.861 124.853 143.739 124.73C143.616 124.607 143.449 124.538 143.275 124.538L142.049 123.83C141.705 123.656 141.324 123.565 140.938 123.565C140.552 123.565 140.171 123.656 139.827 123.83L134.812 126.754C134.663 126.784 134.53 126.865 134.434 126.982C134.339 127.099 134.286 127.245 134.286 127.397C134.286 127.548 134.339 127.694 134.434 127.812C134.53 127.929 134.663 128.009 134.812 128.039Z" fill="#FAFAFA"/>
<path d="M84.2146 190.869L89.4592 187.827C89.6331 187.827 89.7998 187.758 89.9228 187.635C90.0457 187.512 90.1148 187.346 90.1148 187.172C90.1148 186.998 90.0457 186.831 89.9228 186.708C89.7998 186.585 89.6331 186.516 89.4592 186.516L84.2736 183.527C83.9292 183.352 83.5485 183.261 83.1624 183.261C82.7763 183.261 82.3957 183.352 82.0513 183.527L76.8067 186.562C76.6328 186.562 76.4661 186.631 76.3431 186.754C76.2202 186.877 76.1511 187.044 76.1511 187.218C76.1511 187.391 76.2202 187.558 76.3431 187.681C76.4661 187.804 76.6328 187.873 76.8067 187.873L81.9922 190.869C82.3367 191.044 82.7173 191.135 83.1034 191.135C83.4895 191.135 83.8702 191.044 84.2146 190.869Z" fill="#FAFAFA"/>
<path d="M54.7467 190.305L59.9323 193.301C60.2767 193.476 60.6574 193.567 61.0435 193.567C61.4296 193.567 61.8103 193.476 62.1547 193.301L67.3992 190.259C67.5731 190.259 67.7399 190.19 67.8628 190.067C67.9857 189.944 68.0548 189.778 68.0548 189.604C68.0548 189.43 67.9857 189.263 67.8628 189.14C67.7399 189.017 67.5731 188.948 67.3992 188.948L62.2137 185.959C61.8702 185.781 61.4892 185.688 61.1025 185.688C60.7158 185.688 60.3348 185.781 59.9913 185.959L54.7467 188.994C54.5729 188.994 54.4061 189.063 54.2832 189.186C54.1602 189.309 54.0912 189.476 54.0912 189.65C54.0912 189.824 54.1602 189.99 54.2832 190.113C54.4061 190.236 54.5729 190.305 54.7467 190.305Z" fill="#FAFAFA"/>
<path d="M47.3585 182.982L42.1139 186.024C41.4977 186.378 41.4977 186.949 42.1139 187.335L47.2995 190.325C47.6439 190.499 48.0245 190.59 48.4106 190.59C48.7968 190.59 49.1774 190.499 49.5218 190.325L54.7664 187.29C54.9403 187.29 55.107 187.221 55.23 187.098C55.3529 186.975 55.422 186.808 55.422 186.634C55.422 186.46 55.3529 186.293 55.23 186.17C55.107 186.047 54.9403 185.978 54.7664 185.978L49.5874 182.982C49.2421 182.807 48.8603 182.715 48.4729 182.715C48.0856 182.715 47.7037 182.807 47.3585 182.982Z" fill="#FAFAFA"/>
<path d="M56.3529 177.79L51.1084 180.826C50.4921 181.186 50.4921 181.757 51.1084 182.137L56.2939 185.133C56.6383 185.307 57.019 185.398 57.4051 185.398C57.7912 185.398 58.1719 185.307 58.5163 185.133L63.7609 182.097C64.3771 181.737 64.3771 181.167 63.7609 180.786L58.5753 177.79C58.2309 177.616 57.8502 177.525 57.4641 177.525C57.078 177.525 56.6973 177.616 56.3529 177.79Z" fill="#FAFAFA"/>
<path d="M65.3211 172.598L60.0765 175.634C59.9027 175.634 59.7359 175.703 59.613 175.826C59.49 175.949 59.421 176.115 59.421 176.289C59.421 176.463 59.49 176.63 59.613 176.753C59.7359 176.876 59.9027 176.945 60.0765 176.945L65.2621 179.941C65.6065 180.115 65.9872 180.206 66.3733 180.206C66.7594 180.206 67.1401 180.115 67.4845 179.941L72.729 176.899C72.9029 176.899 73.0697 176.83 73.1926 176.707C73.3155 176.584 73.3846 176.417 73.3846 176.243C73.3846 176.07 73.3155 175.903 73.1926 175.78C73.0697 175.657 72.9029 175.588 72.729 175.588L67.5435 172.598C67.1991 172.424 66.8184 172.333 66.4323 172.333C66.0462 172.333 65.6655 172.424 65.3211 172.598Z" fill="#FAFAFA"/>
<path d="M74.3418 167.406L69.0972 170.441C68.9233 170.441 68.7566 170.51 68.6336 170.633C68.5107 170.756 68.4416 170.923 68.4416 171.097C68.4416 171.271 68.5107 171.438 68.6336 171.561C68.7566 171.683 68.9233 171.753 69.0972 171.753L74.2828 174.748C74.6272 174.923 75.0079 175.014 75.394 175.014C75.7801 175.014 76.1607 174.923 76.5052 174.748L81.7497 171.707C81.9236 171.707 82.0903 171.638 82.2133 171.515C82.3362 171.392 82.4053 171.225 82.4053 171.051C82.4053 170.877 82.3362 170.71 82.2133 170.587C82.0903 170.465 81.9236 170.395 81.7497 170.395L76.5642 167.406C76.2197 167.232 75.8391 167.141 75.453 167.141C75.0669 167.141 74.6862 167.232 74.3418 167.406Z" fill="#FAFAFA"/>
<path d="M83.3362 162.214L78.0917 165.249C77.9178 165.249 77.7511 165.319 77.6281 165.441C77.5052 165.564 77.4361 165.731 77.4361 165.905C77.4361 166.079 77.5052 166.246 77.6281 166.369C77.7511 166.492 77.9178 166.561 78.0917 166.561L83.2772 169.557C83.6216 169.731 84.0023 169.822 84.3884 169.822C84.7745 169.822 85.1552 169.731 85.4996 169.557L90.7442 166.515C90.9181 166.515 91.0848 166.446 91.2077 166.323C91.3307 166.2 91.3998 166.033 91.3998 165.859C91.3998 165.685 91.3307 165.519 91.2077 165.396C91.0848 165.273 90.9181 165.204 90.7442 165.204L85.5586 162.214C85.2152 162.037 84.8341 161.944 84.4474 161.944C84.0608 161.944 83.6797 162.037 83.3362 162.214Z" fill="#FAFAFA"/>
<path d="M92.3306 157.015L87.086 160.057C86.9122 160.057 86.7454 160.126 86.6225 160.249C86.4995 160.372 86.4305 160.539 86.4305 160.713C86.4305 160.887 86.4995 161.053 86.6225 161.176C86.7454 161.299 86.9122 161.368 87.086 161.368L92.2716 164.358C92.6151 164.535 92.9961 164.628 93.3828 164.628C93.7694 164.628 94.1505 164.535 94.494 164.358L99.7385 161.323C99.9124 161.323 100.079 161.253 100.202 161.131C100.325 161.008 100.394 160.841 100.394 160.667C100.394 160.493 100.325 160.326 100.202 160.203C100.079 160.08 99.9124 160.011 99.7385 160.011L94.553 157.015C94.2086 156.841 93.8279 156.75 93.4418 156.75C93.0557 156.75 92.675 156.841 92.3306 157.015Z" fill="#FAFAFA"/>
<path d="M101.325 151.823L96.0804 154.865C95.9066 154.865 95.7398 154.934 95.6169 155.057C95.4939 155.18 95.4249 155.347 95.4249 155.521C95.4249 155.694 95.4939 155.861 95.6169 155.984C95.7398 156.107 95.9066 156.176 96.0804 156.176L101.266 159.165C101.61 159.34 101.991 159.431 102.377 159.431C102.763 159.431 103.144 159.34 103.488 159.165L108.733 156.13C108.907 156.13 109.074 156.061 109.196 155.938C109.319 155.815 109.389 155.648 109.389 155.475C109.389 155.301 109.319 155.134 109.196 155.011C109.074 154.888 108.907 154.819 108.733 154.819L103.547 151.823C103.203 151.649 102.822 151.558 102.436 151.558C102.05 151.558 101.669 151.649 101.325 151.823Z" fill="#FAFAFA"/>
<path d="M110.319 146.631L105.075 149.673C104.901 149.673 104.734 149.742 104.611 149.865C104.488 149.988 104.419 150.155 104.419 150.329C104.419 150.502 104.488 150.669 104.611 150.792C104.734 150.915 104.901 150.984 105.075 150.984L110.26 153.973C110.605 154.148 110.986 154.239 111.372 154.239C111.758 154.239 112.138 154.148 112.483 153.973L117.727 150.938C117.901 150.938 118.068 150.869 118.191 150.746C118.314 150.623 118.383 150.457 118.383 150.283C118.383 150.109 118.314 149.942 118.191 149.819C118.068 149.696 117.901 149.627 117.727 149.627L112.522 146.631C112.18 146.46 111.803 146.371 111.421 146.371C111.038 146.371 110.661 146.46 110.319 146.631Z" fill="#FAFAFA"/>
<path d="M119.314 141.439L114.069 144.474C113.895 144.474 113.729 144.544 113.606 144.666C113.483 144.789 113.414 144.956 113.414 145.13C113.414 145.304 113.483 145.471 113.606 145.594C113.729 145.717 113.895 145.786 114.069 145.786L119.255 148.775C119.599 148.95 119.98 149.04 120.366 149.04C120.752 149.04 121.133 148.95 121.477 148.775L126.722 145.74C127.338 145.379 127.338 144.809 126.722 144.429L121.536 141.433C121.191 141.259 120.81 141.169 120.424 141.17C120.038 141.172 119.658 141.264 119.314 141.439Z" fill="#FAFAFA"/>
<path d="M128.308 136.26L123.064 139.295C122.89 139.295 122.723 139.364 122.6 139.487C122.477 139.61 122.408 139.777 122.408 139.951C122.408 140.125 122.477 140.292 122.6 140.415C122.723 140.537 122.89 140.607 123.064 140.607L128.249 143.602C128.594 143.777 128.974 143.868 129.361 143.868C129.747 143.868 130.127 143.777 130.472 143.602L135.716 140.561C136.333 140.207 136.333 139.636 135.716 139.249L130.531 136.26C130.186 136.086 129.806 135.995 129.42 135.995C129.033 135.995 128.653 136.086 128.308 136.26Z" fill="#FAFAFA"/>
<path d="M144.711 134.044L139.525 131.055C139.181 130.88 138.8 130.79 138.414 130.79C138.028 130.79 137.647 130.88 137.303 131.055L132.058 134.09C131.884 134.09 131.718 134.159 131.595 134.282C131.472 134.405 131.403 134.572 131.403 134.746C131.403 134.92 131.472 135.086 131.595 135.209C131.718 135.332 131.884 135.401 132.058 135.401L137.244 138.397C137.588 138.572 137.969 138.663 138.355 138.663C138.741 138.663 139.122 138.572 139.466 138.397L144.711 135.356C144.884 135.356 145.051 135.286 145.174 135.164C145.297 135.041 145.366 134.874 145.366 134.7C145.366 134.526 145.297 134.359 145.174 134.236C145.051 134.113 144.884 134.044 144.711 134.044Z" fill="#FAFAFA"/>
<path d="M141.033 130.183L146.218 133.179C146.563 133.354 146.944 133.445 147.33 133.445C147.716 133.445 148.096 133.354 148.441 133.179L152.204 131.003C152.378 131.003 152.544 130.934 152.667 130.811C152.79 130.688 152.859 130.521 152.859 130.347C152.859 130.173 152.79 130.006 152.667 129.883C152.544 129.761 152.378 129.691 152.204 129.691L147.025 126.702C146.679 126.527 146.297 126.437 145.91 126.437C145.523 126.437 145.141 126.527 144.796 126.702L141.033 128.872C140.947 128.872 140.862 128.889 140.782 128.922C140.702 128.955 140.63 129.003 140.569 129.064C140.508 129.125 140.46 129.197 140.427 129.277C140.394 129.356 140.377 129.441 140.377 129.528C140.377 129.614 140.394 129.699 140.427 129.778C140.46 129.858 140.508 129.93 140.569 129.991C140.63 130.052 140.702 130.1 140.782 130.133C140.862 130.166 140.947 130.183 141.033 130.183Z" fill="#FAFAFA"/>
<path d="M71.2212 180.786C70.8768 180.612 70.4961 180.521 70.11 180.521C69.7239 180.521 69.3432 180.612 68.9988 180.786L63.7543 183.828C63.5804 183.828 63.4137 183.897 63.2907 184.02C63.1678 184.143 63.0987 184.31 63.0987 184.484C63.0987 184.658 63.1678 184.824 63.2907 184.947C63.4137 185.07 63.5804 185.139 63.7543 185.139L68.9398 188.129C69.2833 188.306 69.6643 188.399 70.051 188.399C70.4377 188.399 70.8187 188.306 71.1622 188.129L76.4068 185.094C76.5806 185.094 76.7474 185.024 76.8703 184.902C76.9933 184.779 77.0624 184.612 77.0624 184.438C77.0624 184.264 76.9933 184.097 76.8703 183.974C76.7474 183.851 76.5806 183.782 76.4068 183.782L71.2212 180.786Z" fill="#FAFAFA"/>
<path d="M80.1435 182.911L85.3881 179.875C85.562 179.875 85.7287 179.806 85.8516 179.683C85.9746 179.56 86.0437 179.394 86.0437 179.22C86.0437 179.046 85.9746 178.879 85.8516 178.756C85.7287 178.633 85.562 178.564 85.3881 178.564L80.2222 175.595C79.8778 175.42 79.4971 175.329 79.111 175.329C78.7249 175.329 78.3442 175.42 77.9998 175.595L72.7552 178.636C72.5814 178.636 72.4146 178.705 72.2917 178.828C72.1687 178.951 72.0997 179.118 72.0997 179.292C72.0997 179.466 72.1687 179.633 72.2917 179.756C72.4146 179.878 72.5814 179.948 72.7552 179.948L77.9408 182.937C78.2847 183.104 78.6629 183.189 79.0453 183.184C79.4277 183.18 79.8037 183.086 80.1435 182.911Z" fill="#FAFAFA"/>
<path d="M89.138 177.719L94.3825 174.683C94.5564 174.683 94.7231 174.614 94.8461 174.491C94.969 174.368 95.0381 174.202 95.0381 174.028C95.0381 173.854 94.969 173.687 94.8461 173.564C94.7231 173.441 94.5564 173.372 94.3825 173.372L89.197 170.376C88.8525 170.202 88.4719 170.111 88.0858 170.111C87.6997 170.111 87.319 170.202 86.9746 170.376L81.73 173.418C81.5561 173.418 81.3894 173.487 81.2665 173.61C81.1435 173.733 81.0744 173.9 81.0744 174.074C81.0744 174.248 81.1435 174.414 81.2665 174.537C81.3894 174.66 81.5561 174.729 81.73 174.729L86.9156 177.719C87.26 177.893 87.6407 177.984 88.0268 177.984C88.4129 177.984 88.7935 177.893 89.138 177.719Z" fill="#FAFAFA"/>
<path d="M98.1324 172.526L103.377 169.491C103.993 169.13 103.993 168.56 103.377 168.18L98.1914 165.184C97.847 165.009 97.4663 164.918 97.0802 164.918C96.6941 164.918 96.3134 165.009 95.969 165.184L90.7245 168.226C90.1082 168.58 90.1082 169.15 90.7245 169.537L95.91 172.526C96.2544 172.701 96.6351 172.792 97.0212 172.792C97.4073 172.792 97.788 172.701 98.1324 172.526Z" fill="#FAFAFA"/>
<path d="M107.127 167.334L112.371 164.292C112.988 163.938 112.988 163.368 112.371 162.981L107.186 159.992C106.841 159.817 106.461 159.726 106.075 159.726C105.689 159.726 105.308 159.817 104.964 159.992L99.7189 163.027C99.5451 163.027 99.3783 163.096 99.2554 163.219C99.1324 163.342 99.0634 163.509 99.0634 163.682C99.0634 163.856 99.1324 164.023 99.2554 164.146C99.3783 164.269 99.5451 164.338 99.7189 164.338L104.905 167.334C105.249 167.508 105.63 167.599 106.016 167.599C106.402 167.599 106.782 167.508 107.127 167.334Z" fill="#FAFAFA"/>
<path d="M116.121 162.142L121.366 159.1C121.54 159.1 121.706 159.031 121.829 158.908C121.952 158.785 122.021 158.618 122.021 158.445C122.021 158.271 121.952 158.104 121.829 157.981C121.706 157.858 121.54 157.789 121.366 157.789L116.18 154.8C115.836 154.625 115.455 154.534 115.069 154.534C114.683 154.534 114.302 154.625 113.958 154.8L108.713 157.835C108.539 157.835 108.373 157.904 108.25 158.027C108.127 158.15 108.058 158.317 108.058 158.491C108.058 158.664 108.127 158.831 108.25 158.954C108.373 159.077 108.539 159.146 108.713 159.146L113.899 162.142C114.243 162.317 114.624 162.407 115.01 162.407C115.396 162.407 115.777 162.317 116.121 162.142Z" fill="#FAFAFA"/>
<path d="M125.116 156.95L130.36 153.908C130.534 153.908 130.701 153.839 130.824 153.716C130.947 153.593 131.016 153.426 131.016 153.252C131.016 153.078 130.947 152.912 130.824 152.789C130.701 152.666 130.534 152.597 130.36 152.597L125.175 149.607C124.83 149.433 124.45 149.342 124.063 149.342C123.677 149.342 123.297 149.433 122.952 149.607L117.708 152.643C117.534 152.643 117.367 152.712 117.244 152.835C117.121 152.958 117.052 153.124 117.052 153.298C117.052 153.472 117.121 153.639 117.244 153.762C117.367 153.885 117.534 153.954 117.708 153.954L122.893 156.95C123.238 157.124 123.618 157.215 124.004 157.215C124.391 157.215 124.771 157.124 125.116 156.95Z" fill="#FAFAFA"/>
<path d="M134.11 151.751L139.355 148.716C139.529 148.716 139.695 148.647 139.818 148.524C139.941 148.401 140.01 148.234 140.01 148.06C140.01 147.886 139.941 147.72 139.818 147.597C139.695 147.474 139.529 147.405 139.355 147.405L134.169 144.415C133.826 144.238 133.445 144.145 133.058 144.145C132.671 144.145 132.29 144.238 131.947 144.415L126.702 147.451C126.528 147.451 126.362 147.52 126.239 147.643C126.116 147.766 126.047 147.932 126.047 148.106C126.047 148.28 126.116 148.447 126.239 148.57C126.362 148.693 126.528 148.762 126.702 148.762L131.888 151.751C132.231 151.929 132.612 152.021 132.999 152.021C133.386 152.021 133.767 151.929 134.11 151.751Z" fill="#FAFAFA"/>
<path d="M143.104 146.559L148.349 143.524C148.523 143.524 148.69 143.455 148.813 143.332C148.936 143.209 149.005 143.042 149.005 142.868C149.005 142.694 148.936 142.528 148.813 142.405C148.69 142.282 148.523 142.213 148.349 142.213L143.163 139.217C142.819 139.042 142.438 138.951 142.052 138.951C141.666 138.951 141.285 139.042 140.941 139.217L135.697 142.258C135.523 142.258 135.356 142.328 135.233 142.45C135.11 142.573 135.041 142.74 135.041 142.914C135.041 143.088 135.11 143.255 135.233 143.378C135.356 143.501 135.523 143.57 135.697 143.57L140.882 146.559C141.227 146.734 141.607 146.824 141.993 146.824C142.379 146.824 142.76 146.734 143.104 146.559Z" fill="#FAFAFA"/>
<path d="M144.691 138.377L149.877 141.367C150.221 141.541 150.602 141.632 150.988 141.632C151.374 141.632 151.755 141.541 152.099 141.367L161.133 136.122C161.307 136.122 161.473 136.053 161.596 135.93C161.719 135.807 161.788 135.64 161.788 135.467C161.788 135.293 161.719 135.126 161.596 135.003C161.473 134.88 161.307 134.811 161.133 134.811L155.947 131.822C155.603 131.644 155.22 131.551 154.833 131.551C154.445 131.551 154.063 131.644 153.718 131.822L144.691 137.066C144.517 137.066 144.35 137.135 144.227 137.258C144.105 137.381 144.035 137.548 144.035 137.722C144.035 137.896 144.105 138.062 144.227 138.185C144.35 138.308 144.517 138.377 144.691 138.377Z" fill="#FAFAFA"/>
<path d="M93.2352 185.657L98.4798 182.622C98.6537 182.622 98.8204 182.553 98.9434 182.43C99.0663 182.307 99.1354 182.14 99.1354 181.966C99.1354 181.792 99.0663 181.625 98.9434 181.503C98.8204 181.38 98.6537 181.311 98.4798 181.311L93.3008 178.321C92.9562 178.143 92.5741 178.051 92.1863 178.051C91.7986 178.051 91.4165 178.143 91.0719 178.321L85.8273 181.356C85.6534 181.356 85.4867 181.426 85.3637 181.548C85.2408 181.671 85.1717 181.838 85.1717 182.012C85.1717 182.186 85.2408 182.353 85.3637 182.476C85.4867 182.599 85.6534 182.668 85.8273 182.668L91.0063 185.657C91.3509 185.835 91.733 185.927 92.1208 185.927C92.5085 185.927 92.8906 185.835 93.2352 185.657Z" fill="#FAFAFA"/>
<path d="M102.249 180.452L107.494 177.417C107.668 177.417 107.835 177.348 107.957 177.225C108.08 177.102 108.149 176.935 108.149 176.761C108.149 176.587 108.08 176.421 107.957 176.298C107.835 176.175 107.668 176.106 107.494 176.106L102.308 173.11C101.964 172.935 101.583 172.844 101.197 172.844C100.811 172.844 100.43 172.935 100.086 173.11L94.8414 176.152C94.6675 176.152 94.5008 176.221 94.3778 176.344C94.2549 176.467 94.1858 176.633 94.1858 176.807C94.1858 176.981 94.2549 177.148 94.3778 177.271C94.5008 177.394 94.6675 177.463 94.8414 177.463L100.027 180.452C100.371 180.627 100.752 180.718 101.138 180.718C101.524 180.718 101.905 180.627 102.249 180.452Z" fill="#FAFAFA"/>
<path d="M111.27 175.247L116.515 172.211C116.688 172.211 116.855 172.142 116.978 172.019C117.101 171.896 117.17 171.73 117.17 171.556C117.17 171.382 117.101 171.215 116.978 171.092C116.855 170.969 116.688 170.9 116.515 170.9L111.336 167.904C110.99 167.73 110.608 167.639 110.221 167.639C109.834 167.639 109.452 167.73 109.107 167.904L103.862 170.946C103.688 170.946 103.521 171.015 103.399 171.138C103.276 171.261 103.207 171.428 103.207 171.602C103.207 171.775 103.276 171.942 103.399 172.065C103.521 172.188 103.688 172.257 103.862 172.257L109.041 175.247C109.387 175.421 109.768 175.512 110.156 175.512C110.543 175.512 110.924 175.421 111.27 175.247Z" fill="#FAFAFA"/>
<path d="M120.284 170.042L125.529 167.006C126.145 166.646 126.145 166.075 125.529 165.695L120.389 162.725C120.045 162.551 119.664 162.46 119.278 162.46C118.892 162.46 118.511 162.551 118.167 162.725L112.922 165.767C112.777 165.8 112.648 165.882 112.555 165.998C112.463 166.114 112.412 166.258 112.412 166.406C112.412 166.555 112.463 166.699 112.555 166.815C112.648 166.931 112.777 167.013 112.922 167.046L118.108 170.042C118.446 170.209 118.818 170.296 119.196 170.296C119.573 170.296 119.946 170.209 120.284 170.042Z" fill="#FAFAFA"/>
<path d="M129.305 164.836L134.549 161.795C135.166 161.441 135.166 160.87 134.549 160.483L129.37 157.494C129.025 157.319 128.643 157.229 128.256 157.229C127.869 157.229 127.487 157.319 127.141 157.494L121.897 160.529C121.723 160.529 121.556 160.598 121.433 160.721C121.31 160.844 121.241 161.011 121.241 161.185C121.241 161.359 121.31 161.526 121.433 161.648C121.556 161.771 121.723 161.84 121.897 161.84L127.076 164.836C127.421 165.011 127.803 165.102 128.19 165.102C128.577 165.102 128.959 165.011 129.305 164.836Z" fill="#FAFAFA"/>
<path d="M138.319 159.631L143.563 156.589C143.737 156.589 143.904 156.52 144.027 156.397C144.15 156.274 144.219 156.107 144.219 155.933C144.219 155.76 144.15 155.593 144.027 155.47C143.904 155.347 143.737 155.278 143.563 155.278L138.378 152.288C138.033 152.114 137.653 152.023 137.267 152.023C136.881 152.023 136.5 152.114 136.155 152.288L130.911 155.324C130.737 155.324 130.57 155.393 130.447 155.516C130.324 155.639 130.255 155.805 130.255 155.979C130.255 156.153 130.324 156.32 130.447 156.443C130.57 156.566 130.737 156.635 130.911 156.635L136.096 159.631C136.441 159.805 136.822 159.896 137.208 159.896C137.594 159.896 137.974 159.805 138.319 159.631Z" fill="#FAFAFA"/>
<path d="M147.34 154.426L152.584 151.384C152.758 151.384 152.925 151.315 153.048 151.192C153.171 151.069 153.24 150.902 153.24 150.728C153.24 150.555 153.171 150.388 153.048 150.265C152.925 150.142 152.758 150.073 152.584 150.073L147.405 147.083C147.06 146.909 146.678 146.818 146.291 146.818C145.903 146.818 145.522 146.909 145.176 147.083L139.932 150.119C139.758 150.119 139.591 150.188 139.468 150.311C139.345 150.434 139.276 150.6 139.276 150.774C139.276 150.948 139.345 151.115 139.468 151.238C139.591 151.361 139.758 151.43 139.932 151.43L145.111 154.426C145.456 154.6 145.838 154.691 146.225 154.691C146.612 154.691 146.994 154.6 147.34 154.426Z" fill="#FAFAFA"/>
<path d="M148.946 146.225L154.131 149.214C154.475 149.392 154.856 149.484 155.242 149.484C155.629 149.484 156.01 149.392 156.354 149.214L157.009 148.853L158.687 147.883L170.081 141.327C170.255 141.327 170.422 141.258 170.545 141.135C170.668 141.012 170.737 140.846 170.737 140.672C170.737 140.498 170.668 140.331 170.545 140.208C170.422 140.085 170.255 140.016 170.081 140.016L164.896 137.02C164.551 136.846 164.171 136.755 163.784 136.755C163.398 136.755 163.018 136.846 162.673 137.02L148.972 144.933C148.819 144.956 148.68 145.033 148.578 145.149C148.476 145.265 148.419 145.413 148.416 145.568C148.412 145.722 148.464 145.873 148.561 145.993C148.658 146.113 148.794 146.195 148.946 146.225Z" fill="#FAFAFA"/>
<path d="M146.336 164.024L141.151 161.028C140.805 160.853 140.424 160.762 140.036 160.762C139.649 160.762 139.267 160.853 138.922 161.028L131.829 165.105C131.655 165.105 131.488 165.174 131.365 165.297C131.242 165.42 131.173 165.587 131.173 165.761C131.173 165.935 131.242 166.102 131.365 166.225C131.488 166.347 131.655 166.417 131.829 166.417L137.008 169.413C137.353 169.587 137.735 169.678 138.122 169.678C138.509 169.678 138.891 169.587 139.237 169.413L146.336 165.315C146.488 165.289 146.626 165.209 146.725 165.091C146.824 164.973 146.879 164.824 146.879 164.669C146.879 164.515 146.824 164.366 146.725 164.248C146.626 164.13 146.488 164.05 146.336 164.024Z" fill="#FAFAFA"/>
<path d="M157.166 157.77L151.981 154.78C151.636 154.602 151.254 154.51 150.866 154.51C150.479 154.51 150.097 154.602 149.752 154.78L142.678 158.877C142.062 159.231 142.062 159.802 142.678 160.189L147.857 163.178C148.203 163.353 148.585 163.444 148.972 163.444C149.359 163.444 149.741 163.353 150.086 163.178L157.186 159.081C157.36 159.078 157.526 159.006 157.647 158.882C157.768 158.757 157.834 158.589 157.832 158.415C157.829 158.241 157.758 158.076 157.633 157.955C157.508 157.833 157.34 157.767 157.166 157.77Z" fill="#FAFAFA"/>
<path d="M164.43 153.574L163.506 153.043C163.162 152.865 162.781 152.772 162.395 152.772C162.008 152.772 161.627 152.865 161.283 153.043L157.743 155.082C157.57 155.082 157.403 155.151 157.28 155.274C157.157 155.397 157.088 155.563 157.088 155.737C157.088 155.911 157.157 156.078 157.28 156.201C157.403 156.324 157.57 156.393 157.743 156.393L158.668 156.924C159.013 157.098 159.395 157.189 159.782 157.189C160.169 157.189 160.551 157.098 160.897 156.924L164.43 154.885C164.604 154.885 164.771 154.816 164.894 154.693C165.017 154.57 165.086 154.403 165.086 154.229C165.086 154.056 165.017 153.889 164.894 153.766C164.771 153.643 164.604 153.574 164.43 153.574Z" fill="#FAFAFA"/>
<path d="M171.707 149.371L170.783 148.84C170.437 148.666 170.055 148.575 169.668 148.575C169.281 148.575 168.899 148.666 168.554 148.84L165.02 150.879C164.404 151.24 164.404 151.81 165.02 152.19L165.945 152.728C166.289 152.902 166.67 152.993 167.056 152.993C167.442 152.993 167.823 152.902 168.167 152.728L171.707 150.682C171.881 150.682 172.048 150.613 172.171 150.49C172.294 150.367 172.363 150.201 172.363 150.027C172.363 149.853 172.294 149.686 172.171 149.563C172.048 149.44 171.881 149.371 171.707 149.371Z" fill="#FAFAFA"/>
<path d="M178.977 145.176L178.053 144.645C177.71 144.467 177.329 144.375 176.942 144.375C176.555 144.375 176.174 144.467 175.831 144.645L172.291 146.684C172.117 146.684 171.95 146.753 171.827 146.876C171.704 146.999 171.635 147.165 171.635 147.339C171.635 147.513 171.704 147.68 171.827 147.803C171.95 147.926 172.117 147.995 172.291 147.995L173.215 148.526C173.56 148.7 173.942 148.791 174.329 148.791C174.717 148.791 175.098 148.7 175.444 148.526L178.977 146.487C179.151 146.487 179.318 146.418 179.441 146.295C179.564 146.172 179.633 146.005 179.633 145.831C179.633 145.658 179.564 145.491 179.441 145.368C179.318 145.245 179.151 145.176 178.977 145.176Z" fill="#FAFAFA"/>
<path d="M166.521 146.382C166.176 146.208 165.794 146.117 165.407 146.117C165.02 146.117 164.638 146.208 164.293 146.382L160.759 148.421C160.585 148.421 160.418 148.49 160.295 148.613C160.173 148.736 160.103 148.903 160.103 149.077C160.103 149.25 160.173 149.417 160.295 149.54C160.418 149.663 160.585 149.732 160.759 149.732L161.683 150.27C162.029 150.444 162.411 150.535 162.798 150.535C163.185 150.535 163.567 150.444 163.912 150.27L167.446 148.224C167.62 148.224 167.786 148.155 167.909 148.032C168.032 147.909 168.101 147.743 168.101 147.569C168.101 147.395 168.032 147.228 167.909 147.105C167.786 146.982 167.62 146.913 167.446 146.913L166.521 146.382Z" fill="#FAFAFA"/>
<path d="M87.6845 50.6902C88.245 50.3995 88.8738 50.2661 89.5041 50.3042C90.1343 50.3423 90.7425 50.5505 91.2639 50.9066C94.2009 52.598 96.5937 57.5016 96.5937 61.8284V72.029C96.5937 72.1525 96.5446 72.2709 96.4574 72.3582C96.3701 72.4455 96.2517 72.4945 96.1282 72.4945C96.0048 72.4945 95.8864 72.4455 95.7991 72.3582C95.7118 72.2709 95.6628 72.1525 95.6628 72.029V61.8284C95.6628 57.7966 93.4863 53.2535 90.805 51.7064C90.4271 51.439 89.9841 51.2785 89.5227 51.2416C89.0612 51.2047 88.5983 51.2927 88.1827 51.4966C87.0748 52.1522 86.4389 53.7583 86.4389 55.9479V66.1027C86.4389 66.1638 86.4269 66.2244 86.4035 66.2808C86.3801 66.3373 86.3458 66.3886 86.3026 66.4318C86.2594 66.475 86.208 66.5093 86.1516 66.5327C86.0951 66.5561 86.0346 66.5682 85.9735 66.5682C85.9126 66.5682 85.8524 66.5561 85.7963 66.5326C85.7402 66.5091 85.6893 66.4747 85.6466 66.4314C85.6039 66.3881 85.5703 66.3368 85.5476 66.2803C85.5249 66.2239 85.5137 66.1635 85.5145 66.1027V55.9479C85.5014 53.4174 86.2816 51.5031 87.6845 50.6902Z" fill="#263238"/>
<path d="M64.8903 109.187L67.7486 60.1435L75.9301 55.4365L78.6114 101.267L64.8903 109.187Z" fill="#FF80B6"/>
<path opacity="0.4" d="M64.8903 109.187L67.7486 60.1435L75.9301 55.4365L78.6114 101.267L64.8903 109.187Z" fill="white"/>
<path d="M104.664 72.029L107.345 117.86L78.6113 101.267L75.9301 55.4365L104.664 72.029Z" fill="#FF80B6"/>
<path opacity="0.3" d="M104.664 72.029L107.345 117.86L78.6113 101.267L75.9301 55.4365L104.664 72.029Z" fill="white"/>
<path opacity="0.05" d="M104.664 72.029L107.345 117.86L78.6113 101.267L75.9301 55.4365L104.664 72.029Z" fill="black"/>
<path d="M104.664 72.0288L96.4888 76.7358L93.6305 125.779L107.345 117.86L104.664 72.0288Z" fill="#FF80B6"/>
<path opacity="0.55" d="M104.664 72.0288L96.4888 76.7358L93.6305 125.779L107.345 117.86L104.664 72.0288Z" fill="white"/>
<path opacity="0.05" d="M93.6305 125.78L99.5241 117.5L100.265 88.5957L100.999 117.002L107.345 117.86L93.6305 125.78Z" fill="black"/>
<path d="M64.8903 109.187L93.6305 125.779L96.4888 76.736L67.7486 60.1436L64.8903 109.187ZM86.9044 76.1067C86.9044 75.4511 87.3632 75.1758 87.9336 75.5036C88.2316 75.6986 88.4794 75.9611 88.6571 76.2697C88.8348 76.5784 88.9372 76.9245 88.9563 77.2802C88.9563 77.9357 88.4974 78.2045 87.9336 77.8833C87.6329 77.6905 87.3827 77.4288 87.2037 77.1197C87.0246 76.8107 86.922 76.4634 86.9044 76.1067ZM76.7168 70.2066C76.7168 69.551 77.1757 69.2756 77.746 69.6034C78.0441 69.7989 78.2924 70.0613 78.4711 70.3698C78.6498 70.6782 78.754 71.0242 78.7753 71.38C78.7753 72.0356 78.3098 72.3044 77.746 71.9832C77.4426 71.7871 77.1908 71.5209 77.0116 71.2072C76.8325 70.8935 76.7314 70.5413 76.7168 70.1803V70.2066Z" fill="#FF80B6"/>
<path opacity="0.7" d="M64.8903 109.187L93.6305 125.779L96.4888 76.736L67.7486 60.1436L64.8903 109.187ZM86.9044 76.1067C86.9044 75.4511 87.3632 75.1758 87.9336 75.5036C88.2316 75.6986 88.4794 75.9611 88.6571 76.2697C88.8348 76.5784 88.9372 76.9245 88.9563 77.2802C88.9563 77.9357 88.4974 78.2045 87.9336 77.8833C87.6329 77.6905 87.3827 77.4288 87.2037 77.1197C87.0246 76.8107 86.922 76.4634 86.9044 76.1067ZM76.7168 70.2066C76.7168 69.551 77.1757 69.2756 77.746 69.6034C78.0441 69.7989 78.2924 70.0613 78.4711 70.3698C78.6498 70.6782 78.754 71.0242 78.7753 71.38C78.7753 72.0356 78.3098 72.3044 77.746 71.9832C77.4426 71.7871 77.1908 71.5209 77.0116 71.2072C76.8325 70.8935 76.7314 70.5413 76.7168 70.1803V70.2066Z" fill="white"/>
<path d="M79.4899 55.3581C80.0498 55.0665 80.6783 54.9319 81.3085 54.9689C81.9388 55.0058 82.5473 55.2128 83.0693 55.5679C86.0062 57.2658 88.3925 62.1629 88.3925 66.4897V76.6641C88.3934 76.725 88.3822 76.7853 88.3595 76.8418C88.3368 76.8982 88.3031 76.9496 88.2604 76.9929C88.2177 77.0362 88.1668 77.0706 88.1107 77.0941C88.0546 77.1175 87.9944 77.1296 87.9336 77.1296C87.8102 77.1296 87.6918 77.0806 87.6045 76.9933C87.5172 76.906 87.4682 76.7876 87.4682 76.6641V66.4897C87.4682 62.4579 85.2851 57.9214 82.6038 56.3742C82.2227 56.1004 81.7741 55.9355 81.3063 55.8974C80.8386 55.8593 80.3692 55.9493 79.9488 56.1579C78.8474 56.8135 78.2115 58.4196 78.2115 60.6092V70.764C78.2115 70.8875 78.1625 71.0059 78.0752 71.0931C77.9879 71.1804 77.8695 71.2295 77.7461 71.2295C77.6226 71.2295 77.5042 71.1804 77.4169 71.0931C77.3296 71.0059 77.2806 70.8875 77.2806 70.764V60.6027C77.2806 58.0787 78.0869 56.1645 79.4899 55.3581Z" fill="#37474F"/>
<path d="M72.4294 87.3236C71.7352 85.4716 71.395 83.5058 71.4263 81.5283C71.4263 79.3781 71.7607 77.8484 72.4294 76.9393C73.098 76.0303 74.088 75.9451 75.3991 76.6837C76.783 77.5367 77.8279 78.8435 78.3557 80.3811C79.0525 82.2234 79.395 84.1807 79.3653 86.1501C79.3653 88.3004 79.031 89.841 78.3557 90.785C77.6805 91.729 76.6971 91.8142 75.3991 91.0669C73.9993 90.2077 72.9477 88.8821 72.4294 87.3236ZM76.0547 102.651L73.7339 101.209L85.6653 82.5641L88.0385 83.9605L76.0547 102.651ZM74.5337 86.3074C74.5644 86.6081 74.6571 86.8991 74.8061 87.162C74.9551 87.4249 75.157 87.6541 75.3991 87.8349C75.8121 88.0775 76.1006 87.8939 76.2513 87.2973C76.4316 86.3558 76.5064 85.3971 76.4742 84.4391C76.5039 83.3788 76.4292 82.3183 76.2513 81.2727C76.2136 80.9954 76.1183 80.7291 75.9715 80.4909C75.8247 80.2527 75.6298 80.0478 75.3991 79.8894C74.9664 79.6403 74.6714 79.7714 74.5206 80.2762C74.3275 81.2315 74.2505 82.2066 74.2912 83.1804C74.2713 84.2281 74.3526 85.2753 74.5337 86.3074ZM82.7284 105.509C82.0402 103.656 81.7023 101.691 81.7319 99.7138C81.7319 97.5636 82.0641 96.0339 82.7284 95.1249C83.3927 94.2158 84.3848 94.1306 85.7047 94.8692C87.0885 95.7222 88.1335 97.029 88.6613 98.5666C89.3574 100.407 89.6999 102.362 89.6709 104.329C89.6709 106.479 89.3343 108.024 88.6613 108.964C88.0057 109.908 87.0027 110 85.7047 109.252C84.3047 108.392 83.2514 107.067 82.7284 105.509ZM84.8393 104.493C84.8672 104.794 84.9587 105.086 85.1079 105.35C85.2571 105.613 85.4605 105.842 85.7047 106.02C86.1177 106.256 86.4061 106.079 86.5569 105.483C86.7372 104.541 86.8119 103.583 86.7798 102.625C86.8094 101.564 86.7348 100.504 86.5569 99.4582C86.5192 99.1809 86.4239 98.9146 86.2771 98.6764C86.1303 98.4382 85.9353 98.2333 85.7047 98.0749C85.2654 97.8258 84.977 97.9504 84.8262 98.4617C84.6327 99.417 84.5557 100.392 84.5967 101.366C84.5766 102.41 84.6601 103.453 84.8459 104.48L84.8393 104.493Z" fill="white"/>
<path d="M63.5989 68.2659C64.0877 68.01 64.637 67.8918 65.1878 67.9242C65.7387 67.9565 66.2704 68.1381 66.7259 68.4494C69.2826 69.931 71.3674 74.2053 71.3674 77.9814V86.8841C71.3682 86.9371 71.3585 86.9898 71.3388 87.0391C71.3191 87.0884 71.2898 87.1332 71.2526 87.1711C71.2154 87.2089 71.171 87.239 71.122 87.2595C71.0731 87.28 71.0205 87.2905 70.9675 87.2905C70.8597 87.2905 70.7563 87.2477 70.6801 87.1715C70.6038 87.0952 70.561 86.9919 70.561 86.8841V77.9749C70.561 74.4544 68.6599 70.4948 66.3195 69.1443C65.9862 68.9049 65.5938 68.7612 65.1847 68.7288C64.7756 68.6965 64.3655 68.7767 63.9988 68.9608C63.0351 69.518 62.4778 70.9275 62.4778 72.8417V81.7116C62.4787 81.7647 62.469 81.8174 62.4493 81.8667C62.4296 81.9159 62.4003 81.9608 62.363 81.9986C62.3258 82.0365 62.2814 82.0665 62.2325 82.087C62.1835 82.1075 62.131 82.1181 62.0779 82.1181C61.9701 82.1181 61.8668 82.0752 61.7905 81.999C61.7143 81.9228 61.6715 81.8194 61.6715 81.7116V72.8483C61.6715 70.639 62.3729 68.9673 63.5989 68.2659Z" fill="#263238"/>
<path d="M43.7023 119.315L46.2 76.5128L53.3392 72.4023L55.6796 112.399L43.7023 119.315Z" fill="#FF80B6"/>
<path opacity="0.2" d="M43.7023 119.315L46.2 76.5128L53.3392 72.4023L55.6796 112.399L43.7023 119.315Z" fill="black"/>
<path d="M78.4147 86.8839L80.7551 126.88L55.6795 112.399L53.3391 72.4023L78.4147 86.8839Z" fill="#FF80B6"/>
<path opacity="0.3" d="M78.4147 86.8839L80.7551 126.88L55.6795 112.399L53.3391 72.4023L78.4147 86.8839Z" fill="black"/>
<path d="M78.4148 86.8843L71.2756 90.9947L68.7844 133.797L80.7552 126.881L78.4148 86.8843Z" fill="#FF80B6"/>
<path opacity="0.15" d="M78.4148 86.8843L71.2756 90.9947L68.7844 133.797L80.7552 126.881L78.4148 86.8843Z" fill="black"/>
<path opacity="0.15" d="M68.7844 133.797L73.9307 126.572L74.5731 101.339L75.2156 126.133L80.7552 126.88L68.7844 133.797Z" fill="black"/>
<path d="M43.7023 119.315L68.7844 133.797L71.2756 90.9947L46.2 76.5132L43.7023 119.315ZM62.9171 90.4703C62.9171 89.8934 63.317 89.6574 63.8087 89.9458C64.07 90.1143 64.2877 90.3424 64.4438 90.6114C64.5999 90.8803 64.6901 91.1824 64.7068 91.493C64.7068 92.0699 64.3069 92.2993 63.8087 92.024C63.5423 91.8503 63.3221 91.6146 63.1668 91.3372C63.0115 91.0597 62.9258 90.7488 62.9171 90.4309V90.4703ZM54.0341 85.2716C54.0341 84.6947 54.434 84.4587 54.9257 84.7471C55.1879 84.9163 55.4061 85.1454 55.5623 85.4156C55.7185 85.6857 55.8081 85.9892 55.8238 86.3008C55.8238 86.8712 55.4239 87.1072 54.9257 86.8253C54.6647 86.6554 54.4477 86.426 54.2927 86.1559C54.1377 85.8857 54.0491 85.5827 54.0341 85.2716Z" fill="#FF80B6"/>
<path d="M56.4401 72.3367C56.9289 72.0807 57.4782 71.9626 58.029 71.995C58.5799 72.0273 59.1115 72.2089 59.5671 72.5202C62.1304 74.0018 64.2151 78.2761 64.2151 82.0522V90.9549C64.2151 91.0627 64.1723 91.166 64.0961 91.2423C64.0198 91.3185 63.9165 91.3613 63.8087 91.3613C63.7556 91.3613 63.703 91.3508 63.6541 91.3303C63.6051 91.3098 63.5608 91.2797 63.5235 91.2419C63.4863 91.204 63.457 91.1592 63.4373 91.1099C63.4176 91.0606 63.4079 91.0079 63.4087 90.9549V82.0522C63.4087 78.5318 61.501 74.5722 59.1672 73.2217C58.8337 72.9832 58.4417 72.8396 58.0331 72.8061C57.6245 72.7726 57.2144 72.8505 56.8465 73.0316C55.8828 73.5954 55.3256 74.9983 55.3256 76.9191V85.7824C55.3329 85.8397 55.3279 85.8978 55.311 85.953C55.2941 86.0082 55.2656 86.0592 55.2275 86.1025C55.1893 86.1458 55.1424 86.1805 55.0898 86.2043C55.0372 86.2281 54.9801 86.2404 54.9224 86.2404C54.8647 86.2404 54.8076 86.2281 54.755 86.2043C54.7024 86.1805 54.6555 86.1458 54.6173 86.1025C54.5792 86.0592 54.5507 86.0082 54.5338 85.953C54.5169 85.8978 54.5119 85.8397 54.5192 85.7824V76.9191C54.5192 74.6967 55.2207 73.0381 56.4401 72.3367Z" fill="#37474F"/>
<path d="M51.084 100.736C50.5321 99.2703 50.2629 97.7132 50.2908 96.1472C50.2908 94.4514 50.5552 93.2342 51.084 92.4956C51.6129 91.757 52.393 91.6893 53.4244 92.2924C54.5156 92.9665 55.3401 93.9972 55.7582 95.2097C56.3072 96.6628 56.5785 98.2061 56.558 99.7594C56.558 101.455 56.2914 102.674 55.7582 103.417C55.2272 104.165 54.4471 104.237 53.4244 103.647C52.3309 102.977 51.5037 101.948 51.084 100.736ZM53.9489 112.831L52.1133 111.691L61.5273 96.9863L63.4022 98.0876L53.9489 112.831ZM52.7229 99.9364C52.7435 100.171 52.8124 100.398 52.9252 100.605C53.038 100.811 53.1924 100.992 53.3785 101.136C53.7063 101.326 53.9358 101.189 54.0341 100.716C54.176 99.9736 54.2353 99.2173 54.2111 98.4613C54.2342 97.625 54.1749 96.7884 54.0341 95.9636C54.007 95.7456 53.9346 95.5356 53.8218 95.3471C53.7089 95.1586 53.5579 94.9957 53.3785 94.8688C53.0376 94.6721 52.8082 94.7705 52.6902 95.1769C52.5335 95.9289 52.4718 96.6975 52.5066 97.4649C52.4993 98.2937 52.5718 99.1214 52.7229 99.9364ZM59.1934 115.08C58.6477 113.613 58.3809 112.056 58.4068 110.491C58.4068 108.795 58.669 107.58 59.1934 106.846C59.7179 106.112 60.5002 106.042 61.5404 106.636C62.6315 107.318 63.4537 108.355 63.8676 109.573C64.4172 111.026 64.6886 112.57 64.6674 114.123C64.6674 115.819 64.4008 117.038 63.8676 117.781C63.3344 118.524 62.5565 118.598 61.5338 118.004C60.4431 117.33 59.6222 116.295 59.2131 115.08H59.1934ZM60.8586 114.274C60.8779 114.509 60.9461 114.738 61.059 114.946C61.1719 115.154 61.3269 115.336 61.5141 115.48C61.8419 115.67 62.0648 115.526 62.1697 115.06C62.318 114.316 62.3796 113.557 62.3533 112.799C62.3777 111.962 62.3162 111.125 62.1697 110.301C62.1429 110.084 62.0707 109.875 61.9577 109.687C61.8448 109.5 61.6936 109.338 61.5141 109.213C61.1733 109.009 60.9372 109.114 60.8192 109.514C60.6693 110.269 60.6099 111.04 60.6422 111.809C60.638 112.636 60.7171 113.462 60.8782 114.274H60.8586Z" fill="#FAFAFA"/>
</svg>
