<svg width="245" height="122" viewBox="0 0 245 122" fill="none" xmlns="http://www.w3.org/2000/svg">
<path d="M93.2073 115.441C95.2302 117.175 95.6045 119.286 94.1075 120.153L91.3968 121.734L55.52 110.301L71.9564 96.9722L93.2073 115.441Z" fill="#EBEBEB"/>
<path d="M80.3307 113.575C83.1224 113.157 86.8648 112.637 89.5452 112.27L71.9355 96.9722L55.4992 110.301L91.3759 121.734C91.3759 121.734 75.4959 114.299 80.3307 113.575Z" fill="#E0E0E0"/>
<path d="M91.3962 121.734L94.1069 120.153C95.6039 119.286 95.2094 117.175 93.2067 115.441L71.9659 96.9722C71.9659 96.9722 89.7374 113.565 91.4063 115.105C93.0752 116.645 96.2816 119.072 91.3962 121.734Z" fill="#FAFAFA"/>
<path d="M228.713 95.3L174.954 51.3656L174.842 51.284C173.234 50.3457 166.386 52.8239 159.549 56.8013L149.434 62.6755C142.597 66.6529 138.308 70.6404 139.957 71.5787L140.088 71.6399L222.594 104.04L228.268 100.736C230.574 99.3794 230.756 96.9216 228.713 95.3Z" fill="#EBEBEB"/>
<path d="M168.986 72.0577L187.293 61.4005L174.954 51.3143L174.842 51.2327C173.234 50.2945 166.386 52.7727 159.549 56.75L149.434 62.6243C142.597 66.6016 138.308 70.5892 139.957 71.5274L140.088 71.5886L222.594 103.989L169.117 76.6368C166.761 75.4334 166.71 73.3835 168.986 72.0577Z" fill="#E0E0E0"/>
<path d="M227.054 101.419L228.288 100.705C230.574 99.3794 230.756 96.942 228.713 95.2694L174.953 51.335C174.953 51.335 222.614 91.4858 225.082 94.0558C227.55 96.6258 231.495 98.8185 227.054 101.419Z" fill="#FAFAFA"/>
<path d="M179.141 74.5156C174.496 76.3586 169.99 78.54 165.658 81.0425C165.658 81.0425 165.446 81.8482 166.558 82.4907C167.328 82.8918 168.192 83.0718 169.057 83.0108C172.832 80.8463 176.415 78.359 179.768 75.5762C179.887 75.4831 179.968 75.3494 179.996 75.2002C180.024 75.0511 179.997 74.8968 179.92 74.7664C179.842 74.6361 179.721 74.5386 179.577 74.4924C179.434 74.4462 179.279 74.4545 179.141 74.5156Z" fill="#BA68C8"/>
<path d="M179.141 74.5156C174.496 76.3586 169.99 78.54 165.658 81.0425C165.658 81.0425 165.446 81.8482 166.558 82.4907C167.328 82.8918 168.192 83.0718 169.057 83.0108C172.832 80.8463 176.415 78.359 179.768 75.5762C179.887 75.4831 179.968 75.3494 179.996 75.2002C180.024 75.0511 179.997 74.8968 179.92 74.7664C179.842 74.6361 179.721 74.5386 179.577 74.4924C179.434 74.4462 179.279 74.4545 179.141 74.5156Z" fill="#BA68C8"/>
<path d="M179.141 74.5156C174.496 76.3586 169.99 78.54 165.658 81.0425C165.658 81.0425 165.446 81.8482 166.558 82.4907C167.328 82.8918 168.192 83.0718 169.057 83.0108C172.832 80.8463 176.415 78.359 179.768 75.5762C179.887 75.4831 179.968 75.3494 179.996 75.2002C180.024 75.0511 179.997 74.8968 179.92 74.7664C179.842 74.6361 179.721 74.5386 179.577 74.4924C179.434 74.4462 179.279 74.4545 179.141 74.5156Z" fill="#BA68C8"/>
<path d="M179.141 74.5156C174.496 76.3586 169.99 78.54 165.658 81.0425C165.658 81.0425 165.446 81.8482 166.558 82.4907C167.328 82.8918 168.192 83.0718 169.057 83.0108C172.832 80.8463 176.415 78.359 179.768 75.5762C179.887 75.4831 179.968 75.3494 179.996 75.2002C180.024 75.0511 179.997 74.8968 179.92 74.7664C179.842 74.6361 179.721 74.5386 179.577 74.4924C179.434 74.4462 179.279 74.4545 179.141 74.5156Z" fill="#BA68C8"/>
<path d="M179.141 74.5156C174.496 76.3586 169.99 78.54 165.658 81.0425C165.658 81.0425 165.446 81.8482 166.558 82.4907C167.328 82.8918 168.192 83.0718 169.057 83.0108C172.832 80.8463 176.415 78.359 179.768 75.5762C179.887 75.4831 179.968 75.3494 179.996 75.2002C180.024 75.0511 179.997 74.8968 179.92 74.7664C179.842 74.6361 179.721 74.5386 179.577 74.4924C179.434 74.4462 179.279 74.4545 179.141 74.5156Z" fill="#BA68C8"/>
<path opacity="0.15" d="M179.141 74.5156C174.496 76.3586 169.99 78.54 165.658 81.0425C165.658 81.0425 165.446 81.8482 166.558 82.4907C167.328 82.8918 168.192 83.0718 169.057 83.0108C172.832 80.8463 176.415 78.359 179.768 75.5762C179.887 75.4831 179.968 75.3494 179.996 75.2002C180.024 75.0511 179.997 74.8968 179.92 74.7664C179.842 74.6361 179.721 74.5386 179.577 74.4924C179.434 74.4462 179.279 74.4545 179.141 74.5156Z" fill="black"/>
<path opacity="0.15" d="M168.045 80.9303C168.844 79.9614 179.101 74.5359 179.879 74.7297C179.801 74.612 179.684 74.526 179.549 74.4868C179.414 74.4477 179.269 74.4578 179.141 74.5155C174.496 76.3585 169.99 78.5399 165.658 81.0424C165.658 81.0424 165.446 81.8481 166.558 82.4906C167.328 82.8917 168.192 83.0717 169.057 83.0107C168.136 82.715 167.236 81.8991 168.045 80.9303Z" fill="black"/>
<path d="M195.041 83.4288C191.408 84.8645 187.886 86.5691 184.502 88.5286C184.502 88.5286 184.33 89.161 185.2 89.671C185.805 89.9843 186.483 90.1253 187.162 90.079C190.116 88.3853 192.921 86.4403 195.547 84.2651C195.631 84.1867 195.685 84.0815 195.701 83.9673C195.717 83.8531 195.693 83.737 195.633 83.6385C195.574 83.5401 195.482 83.4654 195.374 83.4272C195.267 83.389 195.149 83.3895 195.041 83.4288Z" fill="#BA68C8"/>
<path opacity="0.15" d="M195.041 83.4288C191.408 84.8645 187.886 86.5691 184.502 88.5286C184.502 88.5286 184.33 89.161 185.2 89.671C185.805 89.9843 186.483 90.1253 187.162 90.079C190.116 88.3853 192.921 86.4403 195.547 84.2651C195.631 84.1867 195.685 84.0815 195.701 83.9673C195.717 83.8531 195.693 83.737 195.633 83.6385C195.574 83.5401 195.482 83.4654 195.374 83.4272C195.267 83.389 195.149 83.3895 195.041 83.4288Z" fill="black"/>
<path opacity="0.15" d="M186.363 88.4472C188.059 87.2354 189.868 86.1935 191.764 85.3363C194.596 83.8675 195.527 83.4799 195.729 83.9287C195.736 83.843 195.721 83.7571 195.685 83.6791C195.649 83.6011 195.594 83.5337 195.525 83.4835C195.456 83.4332 195.375 83.4018 195.29 83.3923C195.205 83.3827 195.12 83.3953 195.041 83.4289C191.408 84.8647 187.886 86.5693 184.502 88.5288C184.502 88.5288 184.33 89.1611 185.2 89.6711C185.805 89.9844 186.483 90.1255 187.162 90.0791C187.162 90.0791 185.695 89.1203 186.363 88.4472Z" fill="black"/>
<path d="M211.326 92.9847C211.394 92.9276 211.441 92.8477 211.456 92.7594C211.472 92.671 211.455 92.58 211.41 92.5027C211.365 92.4253 211.294 92.3667 211.21 92.3373C211.126 92.3079 211.035 92.3096 210.952 92.3422C208.328 93.3853 205.782 94.6193 203.335 96.0344C203.335 96.0344 203.214 96.4934 203.851 96.8708C204.292 97.0968 204.784 97.1989 205.277 97.1666C207.408 95.9489 209.431 94.5499 211.326 92.9847Z" fill="#BA68C8"/>
<path opacity="0.15" d="M211.326 92.9847C211.394 92.9276 211.441 92.8477 211.456 92.7594C211.472 92.671 211.455 92.58 211.41 92.5027C211.365 92.4253 211.294 92.3667 211.21 92.3373C211.126 92.3079 211.035 92.3096 210.952 92.3422C208.328 93.3853 205.782 94.6193 203.335 96.0344C203.335 96.0344 203.214 96.4934 203.851 96.8708C204.292 97.0968 204.784 97.1989 205.277 97.1666C207.408 95.9489 209.431 94.5499 211.326 92.9847Z" fill="black"/>
<path opacity="0.15" d="M204.579 96.0245C206.097 94.9827 207.713 94.0944 209.404 93.3726C211.255 92.5464 211.427 92.475 211.427 92.6892C211.429 92.6279 211.415 92.5672 211.387 92.5127C211.359 92.4581 211.318 92.4115 211.268 92.377C211.218 92.3425 211.159 92.3213 211.099 92.3153C211.038 92.3092 210.977 92.3186 210.921 92.3424C208.297 93.3855 205.752 94.6195 203.305 96.0347C203.305 96.0347 203.184 96.4937 203.821 96.8711C204.261 97.097 204.754 97.1992 205.247 97.1669C204.741 96.9527 204.145 96.4631 204.579 96.0245Z" fill="black"/>
<path d="M81.3422 86.9984L51.5949 51.1512C49.9058 49.1115 47.2052 48.2344 45.5261 49.1931L42.5524 50.9166L54.1742 102.785L81.3422 86.9984Z" fill="#F5F5F5"/>
<path d="M81.3421 86.9982L75.3947 79.8594C72.7952 81.5115 63.0042 87.3347 57.3501 85.2237C50.7857 82.7659 44.0999 57.627 44.0999 57.627L54.2146 102.806L81.3421 86.9982Z" fill="#E0E0E0"/>
<path d="M56.814 101.205L81.332 86.9273C72.1782 88.9669 65.7453 87.0802 60.344 81.8281C53.5267 75.2298 42.5826 50.8149 42.5826 50.8149L54.0122 101.807L56.814 101.205Z" fill="#BA68C8"/>
<path opacity="0.1" d="M81.3422 86.9572C74.3833 88.4666 69.0023 87.7425 64.4507 85.0093C61.922 85.7028 59.3933 85.9578 57.3704 85.2133C51.251 82.9289 45.0204 60.9106 44.2213 57.9531L54.0325 101.857L56.8343 101.204L81.3422 86.9572Z" fill="black"/>
<path d="M51.0599 53.0581C49.2999 51.0796 46.6904 49.7844 45.2237 50.1618L42.5838 50.8451L45.5575 49.1521C47.1961 48.2241 49.8967 49.1521 51.6263 51.1918L81.3432 86.937L51.0599 53.0581Z" fill="white"/>
<path d="M178.585 72.6799C178.587 73.9535 178.214 75.199 177.513 76.2589C176.813 77.3187 175.816 78.1451 174.649 78.6334C173.483 79.1217 172.199 79.25 170.96 79.002C169.721 78.7541 168.582 78.141 167.689 77.2404C166.796 76.3398 166.188 75.1922 165.942 73.943C165.696 72.6937 165.823 71.399 166.308 70.2227C166.792 69.0464 167.612 68.0415 168.663 67.3352C169.714 66.6288 170.949 66.2529 172.212 66.2549C173.049 66.2549 173.878 66.4211 174.651 66.744C175.424 67.0668 176.126 67.5401 176.718 68.1367C177.31 68.7333 177.779 69.4416 178.1 70.2211C178.42 71.0006 178.585 71.8361 178.585 72.6799Z" fill="#E0E0E0"/>
<path opacity="0.1" d="M178.585 72.6799C178.587 73.9535 178.214 75.199 177.513 76.2589C176.813 77.3187 175.816 78.1451 174.649 78.6334C173.483 79.1217 172.199 79.25 170.96 79.002C169.721 78.7541 168.582 78.141 167.689 77.2404C166.796 76.3398 166.188 75.1922 165.942 73.943C165.696 72.6937 165.823 71.399 166.308 70.2227C166.792 69.0464 167.612 68.0415 168.663 67.3352C169.714 66.6288 170.949 66.2529 172.212 66.2549C173.049 66.2549 173.878 66.4211 174.651 66.744C175.424 67.0668 176.126 67.5401 176.718 68.1367C177.31 68.7333 177.779 69.4416 178.1 70.2211C178.42 71.0006 178.585 71.8361 178.585 72.6799Z" fill="black"/>
<path opacity="0.1" d="M178.585 72.6795C178.583 71.5157 178.268 70.3741 177.673 69.3764C177.079 68.3787 176.227 67.5622 175.209 67.0139C174.191 66.4655 173.045 66.2059 171.892 66.2625C170.739 66.3192 169.623 66.69 168.662 67.3356C168.281 69.0586 168.321 70.8493 168.779 72.5532C169.237 74.257 170.1 75.8229 171.292 77.1158C171.747 77.5645 168.682 77.5441 166.235 74.8925C166.747 76.3132 167.741 77.506 169.04 78.2611C170.339 79.0162 171.86 79.2853 173.337 79.0209C174.813 78.7566 176.15 77.9758 177.111 76.8159C178.073 75.656 178.598 74.1913 178.595 72.6795H178.585Z" fill="black"/>
<path d="M186.869 53.4863C180.699 53.4863 170.179 63.9498 169.603 64.7045C168.938 65.6062 168.605 66.7133 168.662 67.8354C168.766 69.8771 169.347 71.8652 170.358 73.6375C171.368 75.4098 172.78 76.9162 174.478 78.0338C175.45 78.688 176.632 78.9468 177.786 78.7578C178.706 78.6252 192.887 74.5663 195.992 69.1816L186.869 53.4863Z" fill="#E0E0E0"/>
<path opacity="0.1" d="M195.972 69.1307L187.293 54.231C185.645 54.4043 184.259 54.7613 183.885 55.4446C182.59 57.5862 182.448 61.7063 183.885 64.8168C185.321 67.9273 185.24 68.9982 178.969 71.0276C172.698 73.0571 171.08 72.7817 168.925 70.0078C169.675 73.3075 171.666 76.185 174.478 78.0339C175.45 78.6882 176.632 78.9469 177.786 78.758C178.706 78.5744 192.887 74.5155 195.972 69.1307Z" fill="black"/>
<path d="M186.869 53.4863C180.699 53.4863 170.179 63.9498 169.603 64.7045C169.06 65.43 168.749 66.3052 168.713 67.2133C169.107 65.6938 170.786 64.2558 172.991 62.3589C176.013 59.8846 179.185 57.6025 182.489 55.526C183.682 54.9447 182.408 57.994 183.773 61.3289L187.344 54.19L186.869 53.4863Z" fill="#FAFAFA"/>
<path d="M196.65 66.0915C196.65 70.385 193.615 72.1289 189.964 69.9771C188.018 68.6999 186.398 66.9777 185.236 64.9504C184.074 62.9231 183.403 60.6481 183.278 58.3102C183.278 54.0065 186.312 52.2727 189.964 54.4144C191.91 55.6938 193.53 57.4179 194.692 59.4468C195.853 61.4757 196.524 63.7522 196.65 66.0915Z" fill="#455A64"/>
<path opacity="0.5" d="M189.66 62.1959L192.846 58.6775L189.074 62.4815L189.66 62.1959ZM189.246 61.7574L191.42 57.5251L188.76 62.1857L189.246 61.7574ZM188.74 61.4413L189.751 56.7704L188.345 61.9818L188.74 61.4413ZM188.163 61.2679L187.981 56.4849V61.8798L188.163 61.2679ZM193.929 60.1665L189.306 62.8486L189.943 62.7365L193.929 60.1665ZM188.608 65.7246L191.177 69.8039L188.497 65.0821L188.608 65.7246ZM194.586 61.8798L189.438 63.2668H190.085L194.586 61.8798ZM189.144 65.439L192.654 68.6821L188.861 64.8475L189.144 65.439ZM187.546 61.2475L186.161 56.6786L187.496 61.9002L187.546 61.2475ZM190.045 63.9297L194.768 63.7155H189.438L190.045 63.9297ZM189.559 65.0209L193.757 67.2135L189.134 64.5314L189.559 65.0209ZM189.873 64.5008L194.495 65.5206L189.337 64.1234L189.873 64.5008ZM185.908 64.2152L185.736 64.4804L186.545 64.001L185.908 64.2152ZM186.818 65.5614V66.2447L187.314 64.6639L186.818 65.5614ZM186.161 64.6741L186.029 65.0005L186.616 64.409L186.161 64.6741ZM186.464 65.1025L186.393 65.5512L186.939 64.5314L186.464 65.1025ZM188.012 65.8571L188.902 68.5189L188.062 65.2146L188.012 65.8571ZM187.374 65.7756L187.587 67.1931V64.7761L187.374 65.7756ZM185.999 62.094L184.34 61.2985L186.363 62.5835L185.999 62.094ZM185.463 63.9399L186.535 63.6849H185.827L185.463 63.9399ZM186.96 61.2679L184.411 57.2497L187.081 62.0328L186.96 61.2679ZM186.434 61.6758L183.996 59.4322L186.707 62.2673L186.434 61.6758ZM185.958 62.6957L185.786 62.5937L184.775 62.5223L186.201 62.9914L185.958 62.6957ZM186.08 63.277L185.837 63.2056L185.139 63.3382L186.15 63.4197L186.08 63.277Z" fill="white"/>
<path d="M188.821 64.8169L194.01 70.0487C194.047 70.0862 194.095 70.1127 194.146 70.1253C194.198 70.1379 194.252 70.1361 194.303 70.12L194.465 70.0385C194.465 70.0385 194.465 69.9671 194.343 69.8855L189.063 64.5619C188.993 64.4906 189.003 64.4702 189.063 64.5619L195.577 68.3455C195.597 68.3575 195.62 68.3649 195.643 68.3672C195.667 68.3695 195.69 68.3666 195.712 68.3589C195.734 68.3511 195.755 68.3386 195.771 68.3222C195.788 68.3058 195.801 68.286 195.81 68.264C195.829 68.2135 195.829 68.1578 195.81 68.1073C195.792 68.0567 195.756 68.0146 195.709 67.9886L189.256 64.2356C189.165 64.2356 189.175 64.1642 189.256 64.2356L195.911 66.0407C196.022 66.0407 196.093 66.0407 196.083 65.8979C196.077 65.8415 196.055 65.7881 196.019 65.7445C195.983 65.7009 195.935 65.6691 195.881 65.6532L189.357 63.8889C189.256 63.8889 189.256 63.8889 189.357 63.8889H195.638C195.661 63.8898 195.683 63.8853 195.703 63.8758C195.724 63.8662 195.742 63.8518 195.756 63.8339C195.77 63.8159 195.779 63.7949 195.783 63.7725C195.787 63.7501 195.786 63.7271 195.78 63.7053C195.765 63.6528 195.735 63.6061 195.694 63.5714C195.652 63.5367 195.601 63.5158 195.547 63.5115H189.397C189.286 63.5115 189.286 63.5115 189.397 63.5115L195.021 61.992C195.045 61.9878 195.068 61.9781 195.088 61.9638C195.107 61.9495 195.124 61.9309 195.135 61.9093C195.147 61.8878 195.154 61.8638 195.155 61.8393C195.156 61.8147 195.152 61.7902 195.142 61.7676C195.122 61.7197 195.085 61.6809 195.039 61.6583C194.992 61.6358 194.939 61.6312 194.889 61.6452L189.296 63.1546C189.195 63.1546 189.185 63.1546 189.296 63.1546L194.212 60.299C194.303 60.299 194.353 60.1563 194.333 60.0951L194.272 59.9931V59.9319C194.272 59.9319 194.161 59.9319 194.07 59.9319L189.154 62.7976C189.063 62.7976 189.043 62.7976 189.154 62.7976L193.251 58.6571C193.282 58.6161 193.299 58.5659 193.299 58.5143C193.299 58.4627 193.282 58.4125 193.251 58.3715C193.236 58.3524 193.217 58.337 193.195 58.3264C193.173 58.3157 193.149 58.3102 193.124 58.3102C193.1 58.3102 193.076 58.3157 193.054 58.3264C193.032 58.337 193.013 58.3524 192.998 58.3715L188.871 62.5325C188.79 62.6141 188.78 62.5937 188.871 62.5325L191.906 57.1376C191.938 57.095 191.955 57.0431 191.955 56.9897C191.955 56.9363 191.938 56.8843 191.906 56.8418C191.893 56.8229 191.875 56.8074 191.855 56.7967C191.835 56.786 191.812 56.7804 191.789 56.7804C191.766 56.7804 191.744 56.786 191.724 56.7967C191.703 56.8074 191.686 56.8229 191.673 56.8418L188.537 62.3081C188.487 62.3999 188.467 62.3999 188.537 62.3081L190.287 55.6996C190.3 55.6457 190.297 55.5894 190.279 55.5371C190.261 55.4848 190.229 55.4387 190.186 55.4038C190.168 55.3893 190.147 55.3797 190.124 55.376C190.101 55.3724 190.078 55.3748 190.057 55.383C190.035 55.3913 190.016 55.4051 190.002 55.4231C189.987 55.441 189.977 55.4625 189.974 55.4854L188.183 62.2367C188.183 62.3387 188.133 62.3285 188.133 62.2367V54.6696C188.132 54.617 188.113 54.5663 188.08 54.5256C188.047 54.4849 188.002 54.4566 187.951 54.4452C187.928 54.4403 187.904 54.441 187.881 54.4472C187.858 54.4533 187.837 54.4648 187.819 54.4806C187.801 54.4965 187.788 54.5163 187.779 54.5385C187.77 54.5606 187.767 54.5846 187.769 54.6084V62.2367C187.769 62.3387 187.769 62.3489 187.718 62.2367L185.604 54.5064C185.591 54.4431 185.563 54.3837 185.523 54.333L185.392 54.4248C185.352 54.4592 185.322 54.5041 185.306 54.5545C185.29 54.605 185.288 54.6589 185.301 54.7103L187.223 61.9308C187.223 62.0328 187.223 62.043 187.223 61.9308L184.188 56.6072C184.138 56.5154 184.077 56.5256 184.047 56.6072C184.016 56.6888 184.047 56.7296 184.047 56.7908C184.031 56.9132 184.052 57.0375 184.107 57.1477L186.949 62.1041C187 62.1959 186.949 62.2061 186.949 62.1041L184.158 59.2894C184.087 59.218 184.036 59.2894 184.036 59.3506C184.036 59.4118 184.036 59.4832 184.036 59.5546C184.048 59.6776 184.102 59.7928 184.188 59.8809L186.666 62.3795C186.737 62.4509 186.727 62.4713 186.666 62.3795L184.552 61.1557C184.461 61.0945 184.411 61.1557 184.441 61.2373L184.492 61.4107C184.533 61.5251 184.611 61.6221 184.714 61.686L186.474 62.7058C186.565 62.767 186.555 62.7874 186.474 62.7058L185.018 62.3081C184.916 62.3081 184.866 62.3081 184.896 62.4407V62.5223C184.919 62.5773 184.954 62.6267 184.997 62.6672C185.041 62.7077 185.093 62.7382 185.149 62.7568L186.343 63.073C186.444 63.073 186.444 63.073 186.343 63.073H185.331C185.22 63.073 185.169 63.1546 185.22 63.2464C185.249 63.2964 185.291 63.3383 185.34 63.3685C185.389 63.3987 185.445 63.4163 185.503 63.4197H186.302C186.413 63.4197 186.413 63.4197 186.302 63.4197L185.624 63.6033C185.601 63.6082 185.579 63.6186 185.561 63.6336C185.542 63.6487 185.527 63.6679 185.518 63.6897C185.508 63.7115 185.503 63.7354 185.504 63.7594C185.505 63.7833 185.512 63.8067 185.523 63.8277C185.547 63.8772 185.588 63.9165 185.638 63.9389C185.688 63.9613 185.744 63.9652 185.796 63.95L186.393 63.7869C186.494 63.7869 186.504 63.7869 186.393 63.7869L185.867 64.0928C185.776 64.1438 185.715 64.2152 185.736 64.256V64.3172L185.796 64.4192C185.796 64.4702 185.928 64.4702 186.019 64.4192L186.535 64.1234C186.626 64.0622 186.646 64.1234 186.535 64.1234L186.1 64.5518C186.07 64.597 186.054 64.6503 186.054 64.7047C186.054 64.7592 186.07 64.8124 186.1 64.8577C186.114 64.8767 186.132 64.8921 186.153 64.9027C186.174 64.9134 186.198 64.9189 186.221 64.9189C186.245 64.9189 186.268 64.9134 186.289 64.9027C186.31 64.8921 186.328 64.8767 186.343 64.8577L186.828 64.358C186.909 64.2866 186.919 64.2968 186.828 64.358L186.434 65.0617C186.406 65.1116 186.392 65.1677 186.392 65.2248C186.392 65.2819 186.406 65.3381 186.434 65.388C186.434 65.4696 186.575 65.4696 186.636 65.388L187.132 64.5212C187.132 64.4294 187.202 64.4396 187.132 64.5212L186.818 65.7042C186.803 65.762 186.802 65.8224 186.814 65.8808C186.827 65.9392 186.852 65.9939 186.889 66.0407L186.949 66.1121C187.01 66.1937 187.091 66.1733 187.121 66.1121L187.506 64.6639C187.506 64.562 187.556 64.562 187.556 64.6639V66.7036C187.56 66.8229 187.603 66.9377 187.678 67.0299L187.799 67.1523C187.87 67.2237 187.931 67.2033 187.931 67.1523V64.7251C187.931 64.6231 187.931 64.6231 187.981 64.7251L188.871 68.0804C188.911 68.1956 188.981 68.2979 189.074 68.3761L189.256 68.4883C189.337 68.5495 189.387 68.4883 189.357 68.4169L188.345 64.6231C188.345 64.5212 188.345 64.511 188.345 64.6231L191.147 69.5183C191.217 69.6203 191.316 69.6985 191.43 69.7427L191.602 69.8039C191.703 69.8039 191.744 69.8039 191.683 69.6815L188.649 64.4294C188.73 64.7557 188.74 64.7047 188.821 64.8169Z" fill="#37474F"/>
<path d="M191.875 61.1359C191.828 61.0591 191.766 60.9926 191.693 60.94C191.62 60.8875 191.538 60.8501 191.451 60.8299C191.451 60.8299 188.052 60.0956 186.454 61.0237C186.253 61.1718 186.095 61.3702 185.993 61.5992C185.892 61.8282 185.852 62.0799 185.877 62.3293C185.917 63.0291 186.122 63.7094 186.473 64.3141C186.825 64.9188 187.314 65.4306 187.9 65.8074C188.102 65.9532 188.338 66.0432 188.584 66.0683C188.831 66.0933 189.08 66.0526 189.306 65.9502C190.904 65.0118 191.966 61.6765 191.966 61.6765C191.988 61.5849 191.992 61.4897 191.976 61.3968C191.96 61.3038 191.926 61.2151 191.875 61.1359Z" fill="#EBEBEB"/>
<path opacity="0.1" d="M189.094 63.9207C187.799 64.7571 186.808 63.7575 186.504 62.7172C186.42 62.5332 186.373 62.3342 186.365 62.1316C186.358 61.9291 186.39 61.727 186.461 61.5372C186.531 61.3474 186.638 61.1737 186.776 61.026C186.914 60.8784 187.079 60.7598 187.263 60.6772C186.976 60.7406 186.7 60.8472 186.444 60.9934C186.242 61.1385 186.083 61.3348 185.982 61.5624C185.88 61.79 185.841 62.0407 185.867 62.2888C185.907 62.9886 186.111 63.6689 186.463 64.2736C186.815 64.8783 187.304 65.3901 187.89 65.7669C188.092 65.9127 188.327 66.0027 188.574 66.0278C188.821 66.0528 189.07 66.0121 189.296 65.9097C190.894 64.9815 191.956 61.636 191.956 61.636C191.983 61.5486 191.992 61.4568 191.983 61.3657C191.975 61.2747 191.948 61.1863 191.906 61.1056C191.926 61.6462 190.388 63.0844 189.094 63.9207Z" fill="black"/>
<path d="M191.926 61.6463C191.953 61.5589 191.962 61.467 191.953 61.376C191.944 61.285 191.918 61.1966 191.875 61.1159C191.828 61.0391 191.766 60.9725 191.693 60.92C191.62 60.8675 191.538 60.8301 191.45 60.8099C191.45 60.8099 188.052 60.0755 186.454 61.0037C186.216 61.1653 186.043 61.4079 185.968 61.6871C186.191 61.2689 186.838 60.8915 188.487 60.8405C189.504 60.7761 190.525 60.8516 191.521 61.0649C191.459 61.1163 191.415 61.1873 191.396 61.2667C191.378 61.3462 191.386 61.4295 191.42 61.5035C191.521 61.7789 191.845 61.8707 191.976 61.6565L191.926 61.6463Z" fill="#FAFAFA"/>
<path d="M233.296 4.06545C233.296 4.06545 230.029 -0.564589 222.948 0.0575105C215.868 0.67961 209.192 3.55554 197.571 10.3272L123.966 53.1603C112.345 59.932 80.726 78.3298 69.7213 86.9882C58.7165 95.6466 42.5836 109.578 42.5836 109.578C41.7742 110.112 41.1007 110.83 40.6175 111.675C40.1343 112.52 39.855 113.468 39.8021 114.442C39.8021 115.717 40.4393 116.482 41.3597 116.431H41.5013C43.0185 116.349 56.4812 115.544 78.0558 111.474C100.986 107.15 110.028 101.878 123.946 93.7803L224.668 35.1296C233.963 29.7245 242.773 20.0871 244.038 12.5811C245.302 5.0751 239.395 4.00426 233.296 4.06545Z" fill="#F5F5F5"/>
<path d="M212.064 8.7673C207.209 13.9787 205.297 19.343 197.55 23.8609C190.146 28.1646 99.1742 78.524 82.8795 86.9988C66.5847 95.4736 62.6501 96.1773 64.7338 90.9864C54.4269 99.3796 42.5826 109.578 42.5826 109.578C41.7732 110.112 41.0997 110.831 40.6165 111.676C40.1334 112.521 39.854 113.469 39.8011 114.443C39.8011 115.717 40.4383 116.482 41.3588 116.431H41.5004C43.0176 116.35 56.4802 115.544 78.0548 111.475C100.985 107.151 110.027 101.878 123.945 93.7807L224.667 35.13C233.962 29.7249 242.772 20.0875 244.037 12.5815C245.301 5.07551 239.394 4.00467 233.295 4.06586C228.915 3.13781 216.879 3.51515 212.064 8.7673Z" fill="#BA68C8"/>
<path opacity="0.4" d="M212.064 8.7673C207.209 13.9787 205.297 19.343 197.55 23.8609C190.146 28.1646 99.1742 78.524 82.8795 86.9988C66.5847 95.4736 62.6501 96.1773 64.7338 90.9864C54.4269 99.3796 42.5826 109.578 42.5826 109.578C41.7732 110.112 41.0997 110.831 40.6165 111.676C40.1334 112.521 39.854 113.469 39.8011 114.443C39.8011 115.717 40.4383 116.482 41.3588 116.431H41.5004C43.0176 116.35 56.4802 115.544 78.0548 111.475C100.985 107.151 110.027 101.878 123.945 93.7807L224.667 35.13C233.962 29.7249 242.772 20.0875 244.037 12.5815C245.301 5.07551 239.394 4.00467 233.295 4.06586C228.915 3.13781 216.879 3.51515 212.064 8.7673Z" fill="#FF80B6"/>
<path opacity="0.5" d="M240.142 6.69725C243.763 8.42077 244.37 11.2967 243.642 14.1624C243.804 13.6451 243.929 13.1169 244.016 12.5817C245.291 5.07572 239.374 4.00489 233.274 4.06608C228.895 3.13803 216.899 3.55616 212.034 8.76752C223.544 4.67798 236.096 4.76976 240.142 6.69725Z" fill="#FAFAFA"/>
<path opacity="0.1" d="M220.793 20.9029C206.289 28.4599 175.277 46.1438 146.491 62.451L150.365 51.2328L116.308 70.2017L112.323 81.6851C104.484 86.0602 97.7885 89.7316 92.9436 92.2709C82.6747 97.5348 72.099 102.166 61.2745 106.141L64.7337 96.1667L47.5388 107.65L46.2542 111.362C44.2313 112.005 42.9265 112.382 42.5422 112.474C41.5307 112.688 41.3082 111.658 41.733 110.138C40.5609 111.246 39.855 112.764 39.7606 114.381C39.7606 115.656 40.3978 116.421 41.3183 116.37H41.4599C42.9771 116.288 56.4397 115.482 78.0143 111.413C100.944 107.089 109.987 101.817 123.905 93.7191L224.667 35.1296C229.85 32.0774 234.469 28.144 238.322 23.5035C242.61 15.865 243.177 9.25642 220.793 20.9029Z" fill="#FF80B6"/>
<path d="M135.415 50.5201C135.409 49.7606 135.497 49.0033 135.678 48.266C135.739 48.011 135.628 47.909 135.395 48.0416L134.485 48.572C134.226 48.7365 134.03 48.9846 133.928 49.2758C133.745 50.016 133.656 50.7771 133.665 51.5401C133.66 51.5919 133.67 51.6442 133.694 51.6903C133.718 51.7364 133.755 51.7743 133.801 51.7993C133.846 51.8243 133.898 51.8353 133.949 51.8309C134.001 51.8266 134.05 51.807 134.09 51.7747L135.011 51.2443C135.129 51.1636 135.228 51.0561 135.298 50.9304C135.368 50.8047 135.408 50.6642 135.415 50.5201Z" fill="#455A64"/>
<path d="M138.682 48.6229C138.678 47.8608 138.763 47.1007 138.935 46.3586C139.006 46.1036 138.885 46.0118 138.662 46.1444L137.742 46.6748C137.486 46.8405 137.293 47.0885 137.195 47.3786C137.007 48.1145 136.918 48.8728 136.932 49.6327C136.925 49.6854 136.933 49.7391 136.956 49.787C136.98 49.8348 137.016 49.8745 137.062 49.9009C137.108 49.9273 137.161 49.9392 137.213 49.935C137.266 49.9308 137.316 49.9108 137.357 49.8775L138.278 49.3471C138.396 49.2664 138.495 49.159 138.565 49.0333C138.635 48.9076 138.675 48.7671 138.682 48.6229Z" fill="#455A64"/>
<path d="M141.949 46.7256C141.939 45.9632 142.024 45.2025 142.202 44.4613C142.273 44.2063 142.151 44.1043 141.929 44.2369L141.009 44.7775C140.755 44.9412 140.563 45.1852 140.462 45.4711C140.269 46.2095 140.18 46.9719 140.199 47.7354C140.199 48.0006 140.402 48.1026 140.624 47.97L141.545 47.4396C141.662 47.3605 141.76 47.2548 141.831 47.1309C141.901 47.0069 141.941 46.8682 141.949 46.7256Z" fill="#455A64"/>
<path d="M109.188 66.0513C109.173 65.2886 109.258 64.5272 109.441 63.787C109.501 63.532 109.441 63.43 109.157 63.5626L108.247 64.1032C107.989 64.2611 107.795 64.5072 107.701 64.7967C107.507 65.5352 107.419 66.2976 107.438 67.0611C107.438 67.3263 107.63 67.4385 107.863 67.3059L108.773 66.7653C108.894 66.6886 108.995 66.5836 109.067 66.4594C109.139 66.3351 109.181 66.1951 109.188 66.0513Z" fill="#455A64"/>
<path d="M112.455 64.0831C112.44 63.3238 112.525 62.5658 112.708 61.829C112.769 61.5638 112.657 61.472 112.425 61.6046L111.514 62.135C111.255 62.2968 111.062 62.5462 110.968 62.8387C110.775 63.5772 110.686 64.3395 110.705 65.1031C110.705 65.3683 110.897 65.4703 111.13 65.3377L112.04 64.8073C112.161 64.7283 112.262 64.6215 112.334 64.4956C112.406 64.3697 112.448 64.2283 112.455 64.0831Z" fill="#455A64"/>
<path d="M115.732 62.1353C115.722 61.3728 115.807 60.6121 115.985 59.871C116.056 59.616 115.934 59.514 115.712 59.6466L114.791 60.1872C114.538 60.3508 114.346 60.5948 114.245 60.8807C114.052 61.6192 113.963 62.3816 113.982 63.1451C113.982 63.4103 114.185 63.5123 114.407 63.3797L115.328 62.8493C115.445 62.7702 115.543 62.6645 115.614 62.5405C115.684 62.4166 115.724 62.2778 115.732 62.1353Z" fill="#455A64"/>
<path d="M118.999 60.1773C118.984 59.418 119.069 58.66 119.252 57.9232C119.313 57.6682 119.201 57.5662 118.969 57.6988L118.058 58.2292C117.799 58.391 117.606 58.6405 117.512 58.933C117.319 59.6714 117.23 60.4338 117.249 61.1973C117.249 61.4625 117.441 61.5645 117.674 61.4319L118.584 60.9015C118.705 60.8226 118.806 60.7157 118.878 60.5898C118.95 60.4639 118.992 60.3225 118.999 60.1773Z" fill="#455A64"/>
<path d="M122.276 58.2397C122.261 57.4769 122.346 56.7156 122.529 55.9753C122.59 55.7203 122.479 55.6285 122.246 55.7611L121.336 56.2915C121.077 56.4495 120.883 56.6955 120.789 56.9851C120.597 57.7237 120.509 58.4859 120.526 59.2494C120.526 59.5146 120.719 59.6268 120.951 59.4942L121.862 58.9536C121.982 58.8769 122.083 58.772 122.155 58.6477C122.228 58.5234 122.269 58.3835 122.276 58.2397Z" fill="#455A64"/>
<path d="M125.553 56.3021C125.544 55.5397 125.629 54.779 125.806 54.0378C125.877 53.7828 125.806 53.691 125.533 53.8236L124.613 54.354C124.359 54.5177 124.167 54.7617 124.067 55.0476C123.879 55.787 123.79 56.5487 123.804 57.3119C123.796 57.3646 123.804 57.4183 123.828 57.4662C123.851 57.514 123.888 57.5537 123.933 57.5801C123.979 57.6065 124.032 57.6184 124.085 57.6142C124.137 57.61 124.187 57.59 124.228 57.5567L125.149 57.0161C125.267 56.937 125.365 56.8313 125.435 56.7074C125.505 56.5834 125.546 56.4447 125.553 56.3021Z" fill="#455A64"/>
<path d="M128.881 54.3653C128.866 53.606 128.951 52.848 129.134 52.1112C129.205 51.8562 129.134 51.7542 128.861 51.8868L127.87 52.4682C127.616 52.6362 127.424 52.8834 127.323 53.172C127.13 53.9104 127.041 54.6728 127.061 55.4363C127.061 55.7015 127.253 55.8035 127.485 55.6709L128.396 55.1405C128.537 55.0656 128.656 54.9545 128.741 54.8184C128.826 54.6824 128.875 54.5261 128.881 54.3653Z" fill="#455A64"/>
<path d="M132.158 52.4682C132.144 51.7055 132.229 50.9442 132.411 50.2038C132.472 49.9488 132.361 49.8571 132.128 49.9896L131.218 50.52C130.957 50.6798 130.762 50.93 130.671 51.2238C130.48 51.9593 130.388 52.7176 130.398 53.4779C130.388 53.5324 130.396 53.5887 130.419 53.6389C130.442 53.689 130.481 53.7305 130.529 53.7575C130.577 53.7845 130.632 53.7957 130.687 53.7895C130.741 53.7832 130.792 53.7599 130.833 53.7227L131.744 53.1923C131.864 53.1122 131.963 53.0051 132.035 52.8794C132.107 52.7538 132.149 52.613 132.158 52.4682Z" fill="#455A64"/>
<path d="M64.7338 96.2077L14.2312 95.0553C11.433 95.0186 8.6641 95.6328 6.13951 96.8502L2.86237 98.7675L46.3555 109.088C46.9737 109.234 47.6168 109.235 48.2355 109.092C48.8544 108.949 49.4325 108.665 49.9259 108.262L64.7338 96.2077Z" fill="#F0F0F0"/>
<path d="M49.9866 108.262L64.1472 96.7075C61.1128 99.1041 52.7783 104.224 48.166 105.04C43.1896 105.927 2.9433 98.7676 2.9433 98.7676L46.4364 109.088C47.0516 109.231 47.6908 109.23 48.3058 109.087C48.9208 108.944 49.4956 108.662 49.9866 108.262Z" fill="#E0E0E0"/>
<path d="M64.7338 96.2078L14.2312 95.0553C11.433 95.0186 8.6641 95.6329 6.13951 96.8504L2.86237 98.7679C6.10918 97.3706 10.2258 96.1466 22.0802 96.728C33.9346 97.3094 63.0345 97.5848 63.0345 97.5848L64.7338 96.2078Z" fill="#FAFAFA"/>
<path d="M150.122 50.3557C149.894 50.2428 149.647 50.1769 149.394 50.1619L10.9643 40.861C9.51152 40.8442 8.07264 41.1477 6.74832 41.7501C5.424 42.3526 4.24622 43.2395 3.29738 44.3488L0 48.6628L115.631 70.8238C117.785 71.2623 124.158 68.8657 130.52 65.1637L140.634 59.2894C147.452 55.2713 151.7 51.2837 150.122 50.3557Z" fill="#F0F0F0"/>
<path d="M130.52 65.1332L140.634 59.259C143.125 57.8503 145.493 56.2333 147.715 54.4249C141.929 59.1468 117.624 63.8686 104.626 62.5836C91.6288 61.2986 0.0202637 48.6221 0.0202637 48.6221L115.631 70.8239C117.755 71.2318 124.158 68.8352 130.52 65.1332Z" fill="#E0E0E0"/>
<path d="M150.122 50.3557C149.894 50.2428 149.647 50.1769 149.394 50.1619L10.9643 40.861C9.51149 40.8442 8.07261 41.1477 6.74829 41.7501C5.42397 42.3526 4.24619 43.2395 3.29735 44.3488L0.92041 47.4593C2.86243 44.9098 6.19016 42.7783 11.6217 43.0129C17.0533 43.2474 90.941 48.4792 104.606 49.1319C118.271 49.7846 143.77 51.5693 145.368 51.7426C147.391 51.9568 149.545 52.6197 148.048 54.0781C150.122 52.2832 150.972 50.8656 150.122 50.3557Z" fill="#FAFAFA"/>
<path d="M98.3449 58.392C93.7044 60.2427 89.2019 62.4274 84.8722 64.9292C84.8722 64.9292 84.6496 65.7246 85.7623 66.3773C86.5338 66.7731 87.3966 66.9527 88.2606 66.8974C92.0369 64.7352 95.6208 62.2477 98.972 59.4628C99.0826 59.3659 99.156 59.2329 99.1794 59.087C99.2029 58.9411 99.1749 58.7916 99.1004 58.6643C99.0259 58.5371 98.9095 58.4402 98.7715 58.3904C98.6335 58.3407 98.4825 58.3412 98.3449 58.392Z" fill="#BA68C8"/>
<path opacity="0.1" d="M98.3449 58.392C93.7044 60.2427 89.2019 62.4274 84.8722 64.9292C84.8722 64.9292 84.6496 65.7246 85.7623 66.3773C86.5338 66.7731 87.3966 66.9527 88.2606 66.8974C92.0369 64.7352 95.6208 62.2477 98.972 59.4628C99.0826 59.3659 99.156 59.2329 99.1794 59.087C99.2029 58.9411 99.1749 58.7916 99.1004 58.6643C99.0259 58.5371 98.9095 58.4402 98.7715 58.3904C98.6335 58.3407 98.4825 58.3412 98.3449 58.392Z" fill="black"/>
<path opacity="0.15" d="M85.7622 66.3772C86.5338 66.773 87.3966 66.9526 88.2606 66.8973C92.0369 64.7351 95.6208 62.2476 98.972 59.4627C99.095 59.3658 99.1763 59.2249 99.1989 59.0691C99.2215 58.9134 99.1837 58.7548 99.0934 58.6265C99.0934 59.2486 98.5169 59.5749 95.0475 61.8594C91.5782 64.1438 88.6045 66.0407 87.1378 66.0407C86.7015 66.0313 86.2724 65.9271 85.8796 65.7353C85.4869 65.5435 85.1398 65.2684 84.862 64.9291C84.862 64.9291 84.6496 65.7245 85.7622 66.3772Z" fill="black"/>
<path d="M69.7305 54.894C66.0951 56.3317 62.5691 58.0362 59.1809 59.9938C59.1809 59.9938 59.0089 60.6262 59.8889 61.1362C60.4939 61.45 61.1724 61.591 61.8511 61.5442C64.8005 59.8481 67.6022 57.9032 70.2261 55.7303C70.3071 55.6521 70.3594 55.5484 70.3744 55.4363C70.3895 55.3241 70.3663 55.2102 70.3087 55.113C70.2512 55.0159 70.1626 54.9414 70.0576 54.9016C69.9525 54.8618 69.8372 54.8591 69.7305 54.894Z" fill="#BA68C8"/>
<path opacity="0.1" d="M69.7305 54.894C66.0951 56.3317 62.5691 58.0362 59.1809 59.9938C59.1809 59.9938 59.0089 60.6262 59.8889 61.1362C60.4939 61.45 61.1724 61.591 61.8511 61.5442C64.8005 59.8481 67.6022 57.9032 70.2261 55.7303C70.3071 55.6521 70.3594 55.5484 70.3744 55.4363C70.3895 55.3241 70.3663 55.2102 70.3087 55.113C70.2512 55.0159 70.1626 54.9414 70.0576 54.9016C69.9525 54.8618 69.8372 54.8591 69.7305 54.894Z" fill="black"/>
<path opacity="0.15" d="M59.8889 61.1462C60.4939 61.46 61.1724 61.6011 61.8511 61.5542C64.8005 59.8581 67.6022 57.9133 70.2261 55.7404C70.303 55.6782 70.3598 55.5942 70.3891 55.4993C70.4185 55.4043 70.4191 55.3027 70.3909 55.2074C70.3626 55.1122 70.3068 55.0275 70.2306 54.9644C70.1544 54.9013 70.0613 54.8625 69.9631 54.853C70.3272 55.0978 70.0137 55.4344 67.6469 57.0358C65.28 58.6371 62.6704 60.6057 61.4769 60.7281C60.6524 60.7551 59.8431 60.4999 59.1809 60.0039C59.1809 60.0039 59.0089 60.626 59.8889 61.1462Z" fill="black"/>
<path d="M41.4803 52.0282C41.5489 51.9711 41.595 51.8912 41.6105 51.8028C41.6259 51.7145 41.6097 51.6235 41.5647 51.5461C41.5196 51.4688 41.4487 51.4101 41.3647 51.3807C41.2806 51.3513 41.1889 51.3531 41.1061 51.3856C38.4828 52.4307 35.9375 53.6647 33.4897 55.0779C33.4897 55.0779 33.3683 55.5369 34.0055 55.9143C34.4495 56.1406 34.9455 56.2428 35.4418 56.2101C37.5692 54.9923 39.5894 53.5933 41.4803 52.0282Z" fill="#BA68C8"/>
<path opacity="0.1" d="M41.4803 52.0282C41.5489 51.9711 41.595 51.8912 41.6105 51.8028C41.6259 51.7145 41.6097 51.6235 41.5647 51.5461C41.5196 51.4688 41.4487 51.4101 41.3647 51.3807C41.2806 51.3513 41.1889 51.3531 41.1061 51.3856C38.4828 52.4307 35.9375 53.6647 33.4897 55.0779C33.4897 55.0779 33.3683 55.5369 34.0055 55.9143C34.4495 56.1406 34.9455 56.2428 35.4418 56.2101C37.5692 54.9923 39.5894 53.5933 41.4803 52.0282Z" fill="black"/>
<path opacity="0.15" d="M34.0055 55.9143C34.4494 56.1406 34.9454 56.2428 35.4418 56.2101C37.5797 54.9938 39.61 53.5947 41.5106 52.0282C41.5657 51.9852 41.6079 51.9276 41.6323 51.8618C41.6567 51.7959 41.6624 51.7245 41.6487 51.6556C41.635 51.5867 41.6025 51.523 41.5549 51.4717C41.5073 51.4204 41.4464 51.3835 41.3791 51.3652C41.5612 51.5488 41.2071 52.0282 39.2449 53.2828C37.2827 54.5373 35.5126 55.9959 33.52 55.0779C33.4896 55.0779 33.3683 55.5267 34.0055 55.9143Z" fill="black"/>
<path d="M214.35 5.05509C213.737 5.48304 213.218 6.03342 212.825 6.67207C212.432 7.31073 212.173 8.02404 212.064 8.76777C218.762 5.7861 225.984 4.18731 233.305 4.06572C232.521 3.09321 231.564 2.27685 230.483 1.6586C224.505 0.740624 216.545 3.34154 214.35 5.05509Z" fill="#455A64"/>
<path d="M119.171 67.2749C123.048 67.2749 126.191 64.1062 126.191 60.1973C126.191 56.2884 123.048 53.1196 119.171 53.1196C115.294 53.1196 112.151 56.2884 112.151 60.1973C112.151 64.1062 115.294 67.2749 119.171 67.2749Z" fill="#E0E0E0"/>
<path opacity="0.1" d="M126.191 60.1973C126.195 58.9146 125.852 57.655 125.2 56.5539C124.547 55.4528 123.61 54.5518 122.488 53.9478C121.365 53.3437 120.101 53.0595 118.831 53.1256C117.56 53.1917 116.331 53.6057 115.277 54.323C114.854 56.2168 114.896 58.186 115.401 60.0594C115.905 61.9329 116.855 63.6537 118.17 65.0721C118.665 65.5718 115.297 65.5412 112.596 62.6347C113.162 64.1962 114.255 65.5069 115.683 66.3364C117.112 67.1659 118.785 67.461 120.408 67.17C122.032 66.879 123.501 66.0204 124.559 64.7451C125.616 63.4698 126.194 61.8596 126.191 60.1973Z" fill="black"/>
<path d="M135.304 39.0967C128.517 39.0967 116.936 50.6004 116.309 51.4163C115.585 52.4084 115.228 53.6238 115.297 54.8531C115.411 57.0984 116.05 59.2848 117.161 61.2342C118.272 63.1836 119.823 64.8409 121.69 66.0713C122.764 66.7809 124.061 67.0643 125.331 66.8668C126.342 66.724 141.939 62.2469 145.338 56.3217L135.304 39.0967Z" fill="#EBEBEB"/>
<path opacity="0.1" d="M145.318 56.2808L135.769 39.8921C133.959 40.0859 132.472 40.4836 132.017 41.2281C130.591 43.5941 130.429 48.1222 132.017 51.5386C133.605 54.955 133.514 56.1381 126.615 58.3817C119.717 60.6253 117.927 60.299 115.56 57.1987C116.379 60.8209 118.553 63.9847 121.629 66.0305C122.704 66.7401 124.001 67.0234 125.27 66.8259C126.322 66.6831 141.919 62.2061 145.318 56.2808Z" fill="black"/>
<path d="M135.304 39.0967C128.517 39.0967 116.936 50.6004 116.309 51.4163C115.699 52.2075 115.346 53.169 115.297 54.1698C115.732 52.4973 117.583 50.9166 120.011 48.8259C123.317 46.1158 126.79 43.619 130.408 41.3505C131.713 40.708 130.317 44.0633 131.824 47.7245L135.749 39.9023L135.304 39.0967Z" fill="#FAFAFA"/>
<path d="M146.076 52.9461C146.076 57.6679 142.789 59.5852 138.723 57.2192C136.585 55.8121 134.805 53.9177 133.528 51.689C132.251 49.4602 131.511 46.9598 131.369 44.3897C131.369 39.6576 134.667 37.7403 138.723 40.1064C140.867 41.509 142.651 43.4037 143.929 45.6355C145.207 47.8672 145.943 50.3725 146.076 52.9461Z" fill="#455A64"/>
<path opacity="0.5" d="M138.369 48.663L141.879 44.7979L137.732 48.9792L138.369 48.663ZM137.914 48.1837L140.311 43.5231L137.378 48.6222L137.914 48.1837ZM137.357 47.837L138.51 42.6868L136.973 48.3877L137.357 47.837ZM136.72 47.6432L136.528 42.3809V48.3163L136.72 47.6432ZM143.062 46.4296L138.005 49.3871L138.703 49.2545L143.062 46.4296ZM137.216 52.5486L140.038 57.0461L137.084 51.8449L137.216 52.5486ZM143.79 48.3265L138.126 49.8562H138.834L143.79 48.3265ZM137.802 52.2325L141.656 55.8121L137.489 51.59L137.802 52.2325ZM136.063 47.633L134.535 42.6052L136.012 48.3469L136.063 47.633ZM138.814 50.5803L144.013 50.3356H138.146L138.814 50.5803ZM138.278 51.7837L142.9 54.1905L137.843 51.233L138.278 51.7837ZM138.622 51.2126L143.679 52.3446L138.015 50.8047L138.622 51.2126ZM134.262 50.8965L134.08 51.182L134.97 50.6517L134.262 50.8965ZM135.274 52.3752V53.1299L135.81 51.386L135.274 52.3752ZM134.545 51.3554L134.404 51.7123L135.041 51.0596L134.545 51.3554ZM134.879 51.8245L134.798 52.3141L135.405 51.2942L134.879 51.8245ZM136.578 52.6608L137.59 55.5775L136.659 51.9469L136.578 52.6608ZM135.87 52.569L136.113 54.1191V51.4676L135.87 52.569ZM134.363 48.4897L132.543 47.6126L134.818 49.0302L134.363 48.4897ZM133.777 50.5293L134.95 50.2744H134.171L133.777 50.5293ZM135.425 47.5922L132.624 43.1763L135.547 48.4285L135.425 47.5922ZM134.839 48.0409L132.168 45.5729L135.142 48.6834L134.839 48.0409ZM134.323 49.1424L134.131 49.0302L133.028 48.9486L134.596 49.4687L134.323 49.1424ZM134.454 49.7747L134.181 49.7033L133.413 49.846L134.495 49.9378L134.454 49.7747Z" fill="white"/>
<path d="M137.448 51.5491L143.153 57.3009C143.196 57.3411 143.248 57.369 143.305 57.3815C143.362 57.3941 143.421 57.3909 143.477 57.3723C143.537 57.3479 143.595 57.3172 143.649 57.2805C143.649 57.2805 143.598 57.1989 143.517 57.1174L137.711 51.2533C137.63 51.1717 137.64 51.1513 137.711 51.2533L144.872 55.4244C144.895 55.4379 144.921 55.446 144.947 55.448C144.973 55.45 144.999 55.446 145.024 55.4361C145.048 55.4263 145.07 55.4109 145.088 55.3912C145.105 55.3715 145.118 55.348 145.125 55.3224C145.143 55.2662 145.142 55.2056 145.122 55.1502C145.102 55.0948 145.064 55.0477 145.014 55.0165L137.934 50.9372C137.833 50.876 137.843 50.8556 137.934 50.8862L145.257 52.8646C145.28 52.8738 145.305 52.8767 145.329 52.8731C145.354 52.8695 145.377 52.8594 145.397 52.8439C145.416 52.8284 145.431 52.808 145.44 52.7848C145.45 52.7616 145.453 52.7364 145.449 52.7117C145.438 52.6516 145.412 52.5955 145.373 52.549C145.334 52.5024 145.283 52.4671 145.226 52.4465L138.045 50.5088C137.934 50.5088 137.934 50.5088 138.045 50.5088H144.903C144.929 50.5096 144.955 50.5042 144.98 50.493C145.004 50.4819 145.025 50.4653 145.041 50.4446C145.058 50.4239 145.07 50.3996 145.075 50.3736C145.081 50.3476 145.081 50.3206 145.075 50.2947C145.06 50.2379 145.027 50.1875 144.982 50.1508C144.936 50.1141 144.88 50.093 144.822 50.0907H138.055C137.934 50.0907 137.934 50.0907 138.055 50.0907L144.245 48.4182C144.271 48.4113 144.296 48.399 144.317 48.3822C144.338 48.3653 144.355 48.3441 144.367 48.3201C144.38 48.2961 144.387 48.2697 144.389 48.2427C144.39 48.2157 144.386 48.1886 144.377 48.1632C144.356 48.11 144.317 48.0661 144.267 48.0398C144.217 48.0135 144.159 48.0066 144.104 48.0204L137.984 49.4074C137.873 49.4074 137.863 49.4074 137.984 49.3564L143.396 46.2051C143.497 46.1439 143.547 46.0521 143.517 45.991L143.456 45.8686C143.454 45.8448 143.454 45.821 143.456 45.7972C143.456 45.7972 143.325 45.7972 143.224 45.7972L137.812 48.9485C137.711 48.9485 137.701 48.9485 137.812 48.8975L142.324 44.349C142.36 44.3065 142.38 44.2522 142.38 44.196C142.38 44.1399 142.36 44.0856 142.324 44.0431C142.306 44.0233 142.284 44.0075 142.259 43.9967C142.235 43.9859 142.209 43.9803 142.182 43.9803C142.155 43.9803 142.129 43.9859 142.105 43.9967C142.08 44.0075 142.058 44.0233 142.04 44.0431L137.499 48.6221C137.418 48.7037 137.398 48.6935 137.448 48.6221L140.847 42.6867C140.881 42.6394 140.9 42.5822 140.9 42.5235C140.9 42.4648 140.881 42.4076 140.847 42.3603C140.831 42.341 140.811 42.3255 140.788 42.3149C140.765 42.3042 140.74 42.2987 140.715 42.2987C140.69 42.2987 140.666 42.3042 140.643 42.3149C140.62 42.3255 140.6 42.341 140.584 42.3603L137.135 48.3774C137.084 48.4794 137.054 48.4692 137.084 48.3774L139.026 41.106C139.039 41.0455 139.034 40.9828 139.012 40.9251C138.991 40.8673 138.954 40.8169 138.905 40.7796C138.885 40.7628 138.862 40.7517 138.836 40.7474C138.811 40.743 138.785 40.7458 138.761 40.7552C138.737 40.7646 138.716 40.7804 138.701 40.8009C138.685 40.8213 138.675 40.8457 138.672 40.8714L136.7 48.2856C136.7 48.3978 136.649 48.3978 136.649 48.2856V39.9637C136.649 39.9046 136.628 39.8473 136.592 39.8011C136.555 39.7549 136.504 39.7224 136.447 39.7088C136.422 39.7043 136.396 39.7054 136.372 39.712C136.347 39.7187 136.325 39.7308 136.305 39.7473C136.286 39.7639 136.27 39.7846 136.26 39.8079C136.249 39.8312 136.244 39.8566 136.245 39.8822V48.2856C136.245 48.3978 136.245 48.3978 136.194 48.2856L133.939 40.2289C133.939 40.1167 133.868 40.0249 133.847 40.0351L133.696 40.1371C133.653 40.1763 133.622 40.2265 133.606 40.2823C133.59 40.3381 133.59 40.3972 133.605 40.4533L135.719 48.3978C135.719 48.5099 135.719 48.5201 135.668 48.3978L132.32 42.5439C132.259 42.4419 132.189 42.4521 132.158 42.5439C132.154 42.6084 132.154 42.6732 132.158 42.7377C132.133 42.8734 132.154 43.0138 132.219 43.1354L135.344 48.5915C135.405 48.6935 135.344 48.7037 135.344 48.5915L132.31 45.532C132.229 45.4504 132.179 45.4708 132.179 45.5932C132.179 45.7156 132.179 45.7462 132.179 45.8176C132.189 45.9571 132.251 46.0877 132.35 46.1847L135.061 48.9281C135.152 49.0097 135.132 49.0301 135.061 48.9281L132.745 47.5819C132.644 47.5207 132.593 47.5819 132.624 47.6737C132.654 47.7655 132.624 47.7961 132.674 47.8573C132.726 47.9854 132.814 48.0954 132.927 48.1734L134.849 49.2952C134.95 49.3462 134.94 49.3768 134.849 49.3462L133.251 48.9077C133.139 48.9077 133.079 48.9077 133.119 49.0607V49.1423C133.146 49.2024 133.185 49.2563 133.234 49.3002C133.283 49.3441 133.34 49.3772 133.402 49.3972L134.717 49.7541C134.829 49.7541 134.818 49.7541 134.717 49.7541H133.615C133.591 49.7516 133.568 49.7559 133.547 49.7666C133.526 49.7773 133.508 49.794 133.497 49.8145C133.485 49.835 133.479 49.8586 133.48 49.8822C133.482 49.9059 133.49 49.9287 133.504 49.9479C133.535 50.0027 133.579 50.049 133.631 50.0827C133.684 50.1165 133.745 50.1367 133.807 50.1417H134.697C134.808 50.1417 134.818 50.1417 134.697 50.1417L133.949 50.3456C133.923 50.3502 133.898 50.361 133.877 50.3771C133.857 50.3933 133.84 50.4144 133.829 50.4385C133.818 50.4626 133.813 50.489 133.815 50.5155C133.816 50.542 133.824 50.5677 133.837 50.5904C133.865 50.6421 133.909 50.6832 133.962 50.7071C134.015 50.7311 134.074 50.7367 134.131 50.723L134.788 50.5394C134.899 50.5394 134.91 50.5394 134.788 50.5904L134.222 50.927C134.121 50.9882 134.06 51.0595 134.08 51.1105V51.1819C134.101 51.2176 134.125 51.2516 134.151 51.2839C134.151 51.3451 134.303 51.3451 134.404 51.2839L134.97 50.9473C135.071 50.8862 135.081 50.9473 134.97 50.9473L134.495 51.4369C134.459 51.4835 134.439 51.5409 134.439 51.6C134.439 51.6592 134.459 51.7166 134.495 51.7632C134.511 51.7825 134.531 51.7981 134.554 51.8087C134.577 51.8194 134.601 51.8249 134.626 51.8249C134.651 51.8249 134.676 51.8194 134.699 51.8087C134.722 51.7981 134.742 51.7825 134.758 51.7632L135.304 51.2227C135.385 51.1411 135.405 51.1513 135.304 51.2227L134.869 51.9876C134.839 52.044 134.823 52.1071 134.823 52.1712C134.823 52.2352 134.839 52.2983 134.869 52.3547C134.93 52.4567 135.031 52.4465 135.092 52.3547L135.638 51.4063C135.698 51.3043 135.719 51.3145 135.688 51.4063L135.344 52.7117C135.331 52.7745 135.33 52.8395 135.342 52.9027C135.354 52.9658 135.379 53.0258 135.415 53.0788L135.476 53.1502C135.557 53.242 135.638 53.2216 135.668 53.1502L136.093 51.5593C136.093 51.4471 136.144 51.4471 136.144 51.5593V53.7825C136.147 53.9178 136.197 54.0476 136.285 54.1496L136.406 54.2822C136.487 54.374 136.558 54.3434 136.558 54.221V51.5593C136.558 51.4471 136.558 51.4471 136.609 51.5593L137.62 55.2409C137.66 55.3726 137.738 55.4896 137.843 55.5774L138.035 55.6998C138.136 55.7712 138.187 55.6998 138.156 55.6182L137.044 51.4471C137.044 51.3349 137.044 51.3247 137.094 51.4471L140.179 56.8318C140.251 56.9452 140.357 57.0314 140.483 57.0766L140.675 57.1378C140.786 57.1378 140.827 57.1378 140.776 57.0154L137.458 51.2329C137.347 51.4471 137.367 51.4471 137.448 51.5491Z" fill="#37474F"/>
<path d="M140.806 47.5001C140.755 47.4152 140.688 47.3416 140.608 47.2838C140.528 47.2259 140.437 47.185 140.341 47.1635C140.341 47.1635 136.609 46.3577 134.849 47.3777C134.623 47.5345 134.444 47.7501 134.33 48.0016C134.216 48.253 134.171 48.5309 134.201 48.8057C134.243 49.5725 134.463 50.3186 134.844 50.9833C135.226 51.648 135.758 52.2124 136.396 52.6306C136.617 52.7945 136.877 52.8952 137.149 52.9222C137.422 52.9491 137.696 52.9012 137.944 52.7835C139.704 51.7636 140.877 48.0917 140.877 48.0917C140.905 47.9933 140.912 47.8903 140.9 47.7888C140.888 47.6872 140.856 47.5891 140.806 47.5001Z" fill="#EBEBEB"/>
<path opacity="0.1" d="M137.752 50.5603C136.325 51.4783 135.233 50.3767 134.909 49.2344C134.818 49.0357 134.767 48.8208 134.759 48.602C134.751 48.3832 134.786 48.165 134.862 47.96C134.938 47.755 135.054 47.5674 135.203 47.4079C135.352 47.2485 135.53 47.1205 135.729 47.0312C135.416 47.0956 135.116 47.2092 134.839 47.3678C134.613 47.5247 134.433 47.7403 134.319 47.9917C134.205 48.2431 134.161 48.521 134.191 48.7958C134.233 49.5626 134.453 50.3087 134.834 50.9734C135.216 51.6381 135.747 52.2025 136.386 52.6207C136.606 52.7846 136.867 52.8854 137.139 52.9123C137.411 52.9392 137.686 52.8913 137.934 52.7737C139.694 51.7537 140.867 48.0818 140.867 48.0818C140.923 47.8875 140.901 47.6788 140.806 47.5004C140.867 48.0818 139.178 49.6322 137.752 50.5603Z" fill="black"/>
<path d="M140.867 48.0815C140.923 47.8871 140.901 47.6785 140.806 47.5001C140.755 47.4152 140.688 47.3416 140.608 47.2838C140.528 47.2259 140.437 47.185 140.341 47.1635C140.341 47.1635 136.609 46.3577 134.849 47.3777C134.581 47.5462 134.389 47.8132 134.313 48.1223C134.555 47.6531 135.264 47.2451 137.084 47.1941C138.186 47.1221 139.292 47.2045 140.371 47.4389C140.302 47.4946 140.254 47.5722 140.233 47.6592C140.213 47.7461 140.223 47.8374 140.26 47.9183C140.371 48.2243 140.736 48.3161 140.877 48.0917L140.867 48.0815Z" fill="#FAFAFA"/>
</svg>
