<svg width="698" height="668" viewBox="0 0 698 668" fill="none" xmlns="http://www.w3.org/2000/svg">
<path d="M18.1418 313.898L203.665 206.598L414.369 328.521L228.804 435.863L18.1418 313.898Z" fill="#4280C3"/>
<g opacity="0.7">
<path opacity="0.7" d="M18.1418 313.898L203.665 206.598L414.369 328.521L228.804 435.863L18.1418 313.898Z" fill="white"/>
</g>
<path opacity="0.1" d="M392.666 315.951L212.589 420.151L23.6304 310.756L203.665 206.598L392.666 315.951Z" fill="black"/>
<path d="M228.804 575.172L18.1418 453.25V313.898L228.804 435.862V575.172Z" fill="#4280C3"/>
<g opacity="0.6">
<path opacity="0.6" d="M228.804 575.172L18.1418 453.25V313.898L228.804 435.862V575.172Z" fill="white"/>
</g>
<path d="M202.995 528.205C201.26 526.991 199.838 525.381 198.848 523.509C197.857 521.636 197.325 519.556 197.297 517.438V500.93L208.902 507.717H209.657V508.807V523.555C209.748 524.517 209.587 525.487 209.191 526.368C208.794 527.25 208.175 528.013 207.394 528.582C206.823 528.875 206.192 529.033 205.551 529.043C204.64 528.991 203.759 528.702 202.995 528.205ZM204.168 510.273L203.33 516.055H199.14V517.27C199.182 519.114 199.659 520.921 200.533 522.545C201.407 524.169 202.652 525.563 204.168 526.613C204.521 526.87 204.936 527.028 205.37 527.072C205.804 527.116 206.242 527.045 206.64 526.865C207.52 526.404 207.981 525.147 207.981 523.471V509.812L204.168 510.273ZM202.534 508.681L205.928 508.053L199.056 503.863V514.463H201.738L202.534 508.681Z" fill="#455A64"/>
<path d="M203.497 540.733C203.618 540.733 203.738 540.709 203.85 540.663C203.962 540.616 204.064 540.549 204.149 540.463C204.235 540.377 204.303 540.276 204.349 540.164C204.395 540.052 204.419 539.932 204.419 539.811V527.242C204.419 527.121 204.395 527.001 204.349 526.889C204.303 526.777 204.235 526.676 204.149 526.59C204.064 526.504 203.962 526.437 203.85 526.39C203.738 526.344 203.618 526.32 203.497 526.32C203.373 526.314 203.249 526.334 203.132 526.378C203.015 526.422 202.908 526.489 202.818 526.575C202.728 526.661 202.657 526.765 202.608 526.879C202.559 526.994 202.534 527.117 202.534 527.242V539.811C202.534 539.936 202.559 540.059 202.608 540.174C202.657 540.289 202.728 540.392 202.818 540.478C202.908 540.564 203.015 540.631 203.132 540.675C203.249 540.719 203.373 540.739 203.497 540.733Z" fill="#455A64"/>
<path d="M208.86 543.791C209.023 543.795 209.183 543.755 209.323 543.673C209.464 543.592 209.579 543.473 209.656 543.331C209.778 543.119 209.811 542.868 209.748 542.633C209.686 542.397 209.532 542.196 209.321 542.074L198.554 535.873C198.451 535.806 198.335 535.762 198.214 535.743C198.093 535.725 197.969 535.731 197.851 535.763C197.733 535.794 197.622 535.85 197.527 535.927C197.431 536.003 197.353 536.099 197.297 536.208C197.175 536.419 197.142 536.67 197.205 536.905C197.267 537.141 197.421 537.342 197.632 537.465L208.358 543.791C208.522 543.836 208.696 543.836 208.86 543.791Z" fill="#455A64"/>
<path d="M170.65 522.507C171.02 522.515 171.384 522.413 171.697 522.214C172.058 521.972 172.348 521.64 172.539 521.25C172.731 520.86 172.816 520.427 172.786 519.994V517.438C172.786 517.193 172.689 516.959 172.516 516.786C172.344 516.613 172.109 516.516 171.865 516.516C171.62 516.516 171.386 516.613 171.213 516.786C171.04 516.959 170.943 517.193 170.943 517.438V519.994C171.01 520.198 171.01 520.418 170.943 520.622C170.943 520.622 170.65 520.622 170.315 520.622C169.744 520.088 169.296 519.437 168.999 518.714C168.703 517.991 168.566 517.213 168.597 516.432V499.924C168.597 499.68 168.5 499.446 168.327 499.273C168.154 499.1 167.919 499.003 167.675 499.003C167.43 499.003 167.196 499.1 167.023 499.273C166.85 499.446 166.753 499.68 166.753 499.924V516.432C166.705 517.536 166.92 518.635 167.379 519.64C167.837 520.645 168.528 521.527 169.393 522.214C169.782 522.411 170.213 522.512 170.65 522.507Z" fill="#455A64"/>
<path d="M155.566 493.807V493.262C155.278 491.673 155.487 490.034 156.166 488.568C156.845 487.103 157.96 485.883 159.359 485.075C160.758 484.268 162.372 483.913 163.981 484.058C165.59 484.204 167.114 484.843 168.345 485.888C171.806 488.141 174.687 491.178 176.754 494.752C178.821 498.326 180.017 502.337 180.244 506.46V508.052L155.566 493.807ZM160.301 486.684C159.347 487.373 158.583 488.29 158.077 489.352C157.572 490.414 157.343 491.586 157.41 492.76L178.359 504.784C177.903 501.294 176.697 497.944 174.824 494.965C172.951 491.985 170.455 489.446 167.507 487.522C166.126 486.638 164.537 486.132 162.899 486.056C161.992 486.025 161.093 486.242 160.301 486.684Z" fill="#455A64"/>
<path d="M137.132 503.486C137.376 503.486 137.611 503.388 137.783 503.215C137.956 503.043 138.053 502.808 138.053 502.564V470.973C138.053 470.728 137.956 470.494 137.783 470.321C137.611 470.148 137.376 470.051 137.132 470.051C136.887 470.051 136.653 470.148 136.48 470.321C136.307 470.494 136.21 470.728 136.21 470.973V502.564C136.21 502.808 136.307 503.043 136.48 503.215C136.653 503.388 136.887 503.486 137.132 503.486Z" fill="#455A64"/>
<path d="M139.813 478.179H140.19C140.303 478.133 140.407 478.065 140.494 477.979C140.58 477.893 140.649 477.79 140.696 477.677C140.743 477.564 140.767 477.443 140.766 477.32C140.766 477.198 140.741 477.077 140.693 476.964L137.383 469.339L133.696 473.529C133.608 473.618 133.539 473.724 133.494 473.841C133.448 473.958 133.427 474.083 133.432 474.208C133.437 474.334 133.467 474.457 133.521 474.57C133.574 474.683 133.651 474.784 133.745 474.867C133.839 474.95 133.949 475.012 134.068 475.051C134.187 475.09 134.313 475.104 134.438 475.093C134.563 475.081 134.684 475.044 134.794 474.984C134.904 474.924 135.001 474.842 135.078 474.744L136.838 472.733L138.975 477.635C139.047 477.796 139.165 477.934 139.314 478.03C139.462 478.127 139.636 478.179 139.813 478.179Z" fill="#455A64"/>
<path d="M128.752 498.584C128.873 498.584 128.993 498.56 129.105 498.514C129.216 498.467 129.318 498.399 129.404 498.314C129.489 498.228 129.557 498.127 129.603 498.015C129.65 497.903 129.674 497.783 129.674 497.662V466.071C129.674 465.827 129.577 465.592 129.404 465.419C129.231 465.246 128.996 465.149 128.752 465.149C128.507 465.149 128.273 465.246 128.1 465.419C127.927 465.592 127.83 465.827 127.83 466.071V497.704C127.841 497.941 127.943 498.165 128.114 498.329C128.286 498.493 128.514 498.584 128.752 498.584Z" fill="#455A64"/>
<path d="M131.266 473.277H131.601C131.714 473.232 131.818 473.163 131.904 473.077C131.991 472.991 132.06 472.888 132.107 472.775C132.154 472.662 132.178 472.541 132.177 472.418C132.176 472.296 132.151 472.175 132.104 472.062L128.752 464.186L125.065 468.375C124.985 468.469 124.924 468.577 124.886 468.694C124.849 468.811 124.834 468.934 124.844 469.057C124.854 469.18 124.887 469.299 124.943 469.408C124.999 469.518 125.076 469.615 125.169 469.695C125.263 469.775 125.371 469.835 125.488 469.873C125.605 469.911 125.729 469.926 125.851 469.916C125.974 469.906 126.093 469.873 126.203 469.817C126.312 469.761 126.409 469.684 126.489 469.59L128.207 467.579L130.344 472.523C130.391 472.734 130.507 472.923 130.674 473.06C130.841 473.196 131.05 473.273 131.266 473.277Z" fill="#455A64"/>
<path d="M228.804 575.215L414.369 467.873V328.521L228.804 435.863V575.215Z" fill="#4280C3"/>
<g opacity="0.4">
<path opacity="0.4" d="M228.804 575.215L414.369 467.873V328.521L228.804 435.863V575.215Z" fill="#316FB4"/>
</g>
<path d="M330.657 398.029L317.04 405.905V384.705L330.657 376.828V398.029Z" fill="#37474F"/>
<path d="M317.04 384.705L106.337 262.783L119.995 254.906L330.657 376.829L317.04 384.705Z" fill="#455A64"/>
<path d="M309.038 364.343L295.421 372.22L287.67 367.821L301.371 359.902L309.038 364.343Z" fill="#37474F"/>
<path d="M387.806 416.213L339.581 444.075C338.943 444.483 338.412 445.038 338.033 445.695C337.654 446.351 337.438 447.088 337.403 447.845V481.364C337.403 484.129 339.372 485.26 341.592 483.878L389.817 456.015C390.444 455.595 390.966 455.037 391.344 454.383C391.721 453.729 391.944 452.998 391.996 452.245V418.726C392.163 415.961 390.194 414.83 387.806 416.213Z" fill="#FAFAFA"/>
<path d="M389.021 421.408L387.387 422.371V451.951L389.021 451.029V421.408Z" fill="#455A64"/>
<path d="M382.317 425.262L379.51 426.938V456.518L382.317 454.884V425.262Z" fill="#455A64"/>
<path d="M375.656 429.117L374.022 430.081V459.66L375.656 458.739V429.117Z" fill="#455A64"/>
<path d="M370.628 432.008L367.318 433.935V463.515L370.628 461.588V432.008Z" fill="#455A64"/>
<path d="M362.29 436.826L360.656 437.79V467.37L362.29 466.448V436.826Z" fill="#455A64"/>
<path d="M357.472 439.549L353.953 441.644V471.224L357.472 469.171V439.549Z" fill="#455A64"/>
<path d="M348.925 444.535L347.291 445.499V475.079L348.925 474.157V444.535Z" fill="#455A64"/>
<path d="M345.112 446.714L344.274 447.175V476.797L345.112 476.294V446.714Z" fill="#455A64"/>
<path d="M351.983 442.944L351.145 443.404V473.026L351.983 472.523V442.944Z" fill="#455A64"/>
<path d="M365.432 435.067L364.595 435.528V465.15L365.432 464.647V435.067Z" fill="#455A64"/>
<path d="M372.806 430.835L371.968 431.296V460.875L372.806 460.415V430.835Z" fill="#455A64"/>
<path d="M378.086 427.902L377.248 428.405V457.984L378.086 457.482V427.902Z" fill="#455A64"/>
<path d="M385.25 423.545L384.454 424.006V453.628L385.25 453.125V423.545Z" fill="#455A64"/>
<path d="M342.263 448.39L340.587 449.353V478.933L342.263 478.012V448.39Z" fill="#455A64"/>
<path d="M0 151.083L185.523 43.7832L396.185 165.706L210.662 273.006L0 151.083Z" fill="#4280C3"/>
<g opacity="0.8">
<path opacity="0.8" d="M0 151.083L185.523 43.7832L396.185 165.706L210.662 273.006L0 151.083Z" fill="white"/>
</g>
<path d="M210.662 412.358L0 290.435V151.083L210.662 273.006V412.358Z" fill="#4280C3"/>
<g opacity="0.7">
<path opacity="0.7" d="M210.662 412.358L0 290.435V151.083L210.662 273.006V412.358Z" fill="white"/>
</g>
<path d="M184.853 365.39C183.112 364.171 181.687 362.555 180.696 360.675C179.705 358.795 179.177 356.706 179.155 354.581V338.115L190.719 344.902H191.473V345.992V360.74C191.569 361.697 191.411 362.662 191.014 363.538C190.616 364.413 189.994 365.168 189.21 365.726C188.668 366.057 188.044 366.231 187.409 366.228C186.497 366.182 185.615 365.893 184.853 365.39ZM186.152 347.584L185.272 353.408H181.082V354.581C181.115 356.375 181.563 358.138 182.392 359.73C183.22 361.322 184.407 362.7 185.859 363.756C186.212 364.027 186.633 364.198 187.075 364.249C187.518 364.301 187.966 364.232 188.372 364.05C188.862 363.641 189.241 363.116 189.475 362.524C189.709 361.931 189.791 361.289 189.713 360.656V346.872L186.152 347.584ZM184.476 345.992L187.912 345.405L180.998 341.215V351.397H183.68L184.476 345.992Z" fill="#455A64"/>
<path d="M185.314 377.918C185.558 377.918 185.793 377.821 185.966 377.648C186.139 377.475 186.236 377.241 186.236 376.996V364.427C186.236 364.183 186.139 363.948 185.966 363.775C185.793 363.602 185.558 363.505 185.314 363.505C185.07 363.505 184.835 363.602 184.662 363.775C184.489 363.948 184.392 364.183 184.392 364.427V376.996C184.392 377.241 184.489 377.475 184.662 377.648C184.835 377.821 185.07 377.918 185.314 377.918Z" fill="#455A64"/>
<path d="M190.719 381.018C190.911 381.014 191.098 380.951 191.255 380.839C191.412 380.727 191.531 380.571 191.598 380.39C191.72 380.179 191.753 379.928 191.69 379.692C191.628 379.457 191.474 379.256 191.263 379.133L180.454 372.89C180.242 372.768 179.992 372.735 179.756 372.798C179.52 372.861 179.319 373.015 179.197 373.225C179.075 373.437 179.042 373.688 179.105 373.923C179.168 374.159 179.321 374.36 179.532 374.482L190.342 380.725C190.436 380.857 190.567 380.959 190.719 381.018Z" fill="#455A64"/>
<path d="M152.298 359.651C152.649 359.652 152.995 359.566 153.304 359.399C153.672 359.162 153.971 358.832 154.17 358.442C154.369 358.052 154.46 357.616 154.435 357.179V354.623C154.435 354.498 154.41 354.375 154.361 354.26C154.312 354.145 154.241 354.042 154.151 353.956C154.061 353.87 153.954 353.803 153.837 353.759C153.721 353.715 153.596 353.695 153.472 353.701C153.227 353.701 152.993 353.798 152.82 353.971C152.647 354.144 152.55 354.378 152.55 354.623V357.179C152.55 357.556 152.55 357.765 152.55 357.807C152.358 357.861 152.155 357.861 151.963 357.807C151.386 357.277 150.929 356.628 150.626 355.904C150.322 355.181 150.178 354.401 150.204 353.617V337.11C150.204 336.865 150.106 336.631 149.934 336.458C149.761 336.285 149.526 336.188 149.282 336.188C149.037 336.188 148.803 336.285 148.63 336.458C148.457 336.631 148.36 336.865 148.36 337.11V353.617C148.319 354.72 148.536 355.817 148.995 356.821C149.453 357.825 150.139 358.708 151 359.399C151.407 359.582 151.852 359.668 152.298 359.651Z" fill="#455A64"/>
<path d="M137.383 330.992V330.448C137.182 328.835 137.433 327.199 138.106 325.719C138.779 324.24 139.848 322.977 141.195 322.068C142.632 321.386 144.224 321.101 145.808 321.241C147.392 321.381 148.909 321.941 150.203 322.864C153.656 325.121 156.529 328.16 158.589 331.734C160.649 335.308 161.838 339.317 162.061 343.436V345.028L137.383 330.992ZM142.117 323.87C141.16 324.542 140.394 325.452 139.894 326.51C139.395 327.567 139.179 328.737 139.268 329.903L160.217 341.97C159.746 338.479 158.534 335.129 156.662 332.145C154.791 329.16 152.303 326.61 149.366 324.666C147.967 323.791 146.363 323.299 144.715 323.241C143.808 323.215 142.911 323.432 142.117 323.87Z" fill="#455A64"/>
<path d="M118.948 340.671C119.072 340.671 119.196 340.646 119.31 340.597C119.425 340.548 119.529 340.476 119.615 340.386C119.701 340.296 119.768 340.19 119.812 340.073C119.856 339.956 119.875 339.832 119.87 339.707V308.116C119.87 307.872 119.772 307.637 119.6 307.465C119.427 307.292 119.192 307.195 118.948 307.195C118.703 307.195 118.469 307.292 118.296 307.465C118.123 307.637 118.026 307.872 118.026 308.116V339.707C118.02 339.832 118.04 339.956 118.084 340.073C118.128 340.19 118.195 340.296 118.281 340.386C118.367 340.476 118.47 340.548 118.585 340.597C118.7 340.646 118.823 340.671 118.948 340.671Z" fill="#455A64"/>
<path d="M121.671 315.323H122.048C122.273 315.214 122.446 315.022 122.532 314.787C122.618 314.553 122.61 314.294 122.509 314.066L119.199 306.44L115.512 310.63C115.422 310.713 115.35 310.813 115.301 310.925C115.251 311.037 115.226 311.157 115.226 311.28C115.226 311.402 115.251 311.523 115.301 311.634C115.35 311.746 115.422 311.847 115.512 311.929C115.685 312.1 115.918 312.197 116.161 312.197C116.405 312.197 116.638 312.1 116.811 311.929L118.571 309.918L120.707 314.82C120.788 315 120.928 315.147 121.102 315.238C121.277 315.329 121.477 315.359 121.671 315.323Z" fill="#455A64"/>
<path d="M110.359 335.769C110.603 335.769 110.838 335.672 111.01 335.499C111.183 335.326 111.28 335.092 111.28 334.847V303.256C111.28 303.012 111.183 302.777 111.01 302.604C110.838 302.432 110.603 302.334 110.359 302.334C110.114 302.334 109.88 302.432 109.707 302.604C109.534 302.777 109.437 303.012 109.437 303.256V334.847C109.437 335.092 109.534 335.326 109.707 335.499C109.88 335.672 110.114 335.769 110.359 335.769Z" fill="#455A64"/>
<path d="M113.082 310.463H113.459C113.681 310.362 113.854 310.178 113.94 309.95C114.026 309.723 114.019 309.47 113.92 309.248L110.652 301.581L106.965 305.77C106.82 305.956 106.751 306.19 106.772 306.424C106.794 306.659 106.905 306.876 107.082 307.032C107.259 307.187 107.488 307.269 107.724 307.26C107.959 307.252 108.182 307.153 108.348 306.985L110.107 304.974L112.244 309.876C112.315 310.043 112.431 310.186 112.579 310.29C112.727 310.394 112.901 310.454 113.082 310.463Z" fill="#455A64"/>
<path d="M210.662 412.358L396.185 305.058V165.706L210.662 273.006V412.358Z" fill="#4280C3"/>
<g opacity="0.6">
<path opacity="0.6" d="M210.662 412.358L396.185 305.058V165.706L210.662 273.006V412.358Z" fill="white"/>
</g>
<path d="M312.516 235.172L298.857 243.049V221.891L312.516 214.014V235.172Z" fill="#37474F"/>
<path d="M298.857 221.891L88.1948 99.9682L101.812 92.0914L312.515 214.014L298.857 221.891Z" fill="white"/>
<path d="M369.622 253.356L321.482 281.218C320.855 281.638 320.332 282.197 319.955 282.851C319.577 283.504 319.354 284.236 319.303 284.989V318.507C319.303 321.23 321.272 322.362 323.493 320.979L371.759 293.201C372.393 292.787 372.92 292.231 373.299 291.576C373.677 290.92 373.896 290.185 373.938 289.43V255.912C373.98 253.104 372.052 252.015 369.622 253.356Z" fill="#FAFAFA"/>
<path d="M370.837 258.593L369.203 259.557V289.137L370.837 288.173V258.593Z" fill="#455A64"/>
<path d="M364.175 262.448L361.326 264.124V293.703L364.175 292.028V262.448Z" fill="#455A64"/>
<path d="M357.472 266.302L355.838 267.266V296.846L357.472 295.882V266.302Z" fill="#455A64"/>
<path d="M352.444 269.151L349.176 271.121V300.7L352.444 298.731V269.151Z" fill="#455A64"/>
<path d="M344.106 274.011L342.473 274.975V304.555L344.106 303.591V274.011Z" fill="#455A64"/>
<path d="M339.33 276.735L335.811 278.83V308.41L339.33 306.315V276.735Z" fill="#455A64"/>
<path d="M330.741 281.72L329.107 282.684V312.264L330.741 311.3V281.72Z" fill="#455A64"/>
<path d="M326.97 283.899L326.132 284.36V313.94L326.97 313.479V283.899Z" fill="#455A64"/>
<path d="M333.799 280.086L333.003 280.589V310.169L333.799 309.708V280.086Z" fill="#455A64"/>
<path d="M347.249 272.252L346.453 272.713V302.293L347.249 301.832V272.252Z" fill="#455A64"/>
<path d="M354.623 268.02L353.827 268.481V298.061L354.623 297.6V268.02Z" fill="#455A64"/>
<path d="M359.944 265.087L359.106 265.548V295.128L359.944 294.667V265.087Z" fill="#455A64"/>
<path d="M367.108 260.73L366.27 261.191V290.771L367.108 290.31V260.73Z" fill="#455A64"/>
<path d="M324.079 285.575L322.445 286.539V316.118L324.079 315.155V285.575Z" fill="#455A64"/>
<path d="M276.232 406.702L461.756 299.402L672.418 421.324L486.894 528.624L276.232 406.702Z" fill="#4280C3"/>
<g opacity="0.8">
<path opacity="0.8" d="M276.232 406.702L461.756 299.402L672.418 421.324L486.894 528.624L276.232 406.702Z" fill="white"/>
</g>
<path opacity="0.1" d="M650.714 408.755L471.518 512.661L282.559 403.308L461.756 299.402L650.714 408.755Z" fill="black"/>
<path d="M486.894 667.976L276.232 546.054V406.702L486.894 528.624V667.976Z" fill="#4280C3"/>
<g opacity="0.7">
<path opacity="0.7" d="M486.894 667.976L276.232 546.054V406.702L486.894 528.624V667.976Z" fill="white"/>
</g>
<path d="M461.085 621.009C459.35 619.794 457.929 618.184 456.938 616.312C455.947 614.44 455.416 612.359 455.387 610.241V593.733L466.993 600.521H467.747V601.61V616.358C467.838 617.32 467.678 618.29 467.281 619.171C466.884 620.053 466.265 620.816 465.484 621.386C464.913 621.679 464.283 621.836 463.641 621.847C462.731 621.795 461.85 621.506 461.085 621.009ZM462.384 603.244L461.546 609.026H457.356V610.241C457.395 612.034 457.846 613.795 458.674 615.386C459.503 616.977 460.686 618.356 462.133 619.417C462.486 619.673 462.901 619.831 463.335 619.876C463.769 619.92 464.207 619.848 464.605 619.668C465.485 619.207 465.945 617.95 465.945 616.274V602.448L462.384 603.244ZM460.75 601.652L464.144 601.024L457.273 596.834V607.057H459.954L460.75 601.652Z" fill="#455A64"/>
<path d="M461.546 633.536C461.67 633.542 461.795 633.522 461.912 633.479C462.028 633.435 462.135 633.368 462.225 633.282C462.315 633.195 462.387 633.092 462.436 632.977C462.485 632.863 462.51 632.739 462.51 632.615V620.045C462.51 619.921 462.485 619.797 462.436 619.683C462.387 619.568 462.315 619.464 462.225 619.378C462.135 619.292 462.028 619.225 461.912 619.181C461.795 619.137 461.67 619.118 461.546 619.124C461.301 619.124 461.067 619.221 460.894 619.393C460.721 619.566 460.624 619.801 460.624 620.045V632.615C460.624 632.859 460.721 633.093 460.894 633.266C461.067 633.439 461.301 633.536 461.546 633.536Z" fill="#455A64"/>
<path d="M466.951 636.637C467.153 636.636 467.35 636.569 467.51 636.445C467.67 636.322 467.785 636.149 467.838 635.954C467.89 635.759 467.877 635.552 467.8 635.365C467.723 635.178 467.586 635.021 467.412 634.919L456.644 628.676C456.433 628.555 456.182 628.522 455.946 628.584C455.711 628.647 455.51 628.801 455.387 629.012C455.32 629.118 455.276 629.237 455.256 629.361C455.237 629.485 455.243 629.612 455.275 629.733C455.306 629.855 455.362 629.969 455.439 630.068C455.516 630.167 455.612 630.25 455.722 630.31L466.49 636.511C466.631 636.591 466.789 636.634 466.951 636.637Z" fill="#455A64"/>
<path d="M428.531 615.269C428.895 615.271 429.254 615.184 429.578 615.018C429.936 614.773 430.224 614.44 430.415 614.051C430.606 613.661 430.693 613.23 430.667 612.797V610.241C430.667 609.997 430.57 609.762 430.397 609.589C430.225 609.417 429.99 609.32 429.746 609.32C429.501 609.32 429.267 609.417 429.094 609.589C428.921 609.762 428.824 609.997 428.824 610.241V612.797C428.824 613.174 428.824 613.384 428.614 613.425C428.405 613.467 428.363 613.425 428.028 613.425C427.466 612.885 427.024 612.233 426.728 611.511C426.432 610.79 426.29 610.015 426.31 609.236V592.728C426.31 592.483 426.213 592.249 426.04 592.076C425.867 591.903 425.633 591.806 425.388 591.806C425.144 591.806 424.909 591.903 424.736 592.076C424.564 592.249 424.466 592.483 424.466 592.728V609.236C424.427 610.334 424.641 611.427 425.091 612.43C425.542 613.432 426.217 614.318 427.064 615.018C427.523 615.228 428.028 615.315 428.531 615.269Z" fill="#455A64"/>
<path d="M413.657 586.611V586.066C413.368 584.477 413.578 582.837 414.256 581.372C414.935 579.906 416.051 578.686 417.45 577.879C418.849 577.072 420.463 576.717 422.071 576.862C423.68 577.008 425.204 577.647 426.436 578.692C429.901 580.94 432.785 583.975 434.853 587.55C436.921 591.126 438.114 595.139 438.335 599.264V600.856L413.657 586.611ZM418.391 579.488C417.432 580.171 416.663 581.087 416.157 582.15C415.651 583.213 415.425 584.388 415.5 585.563L436.449 597.588C435.994 594.092 434.788 590.736 432.915 587.75C431.043 584.763 428.546 582.216 425.598 580.284C424.206 579.43 422.621 578.94 420.989 578.86C420.082 578.829 419.184 579.046 418.391 579.488Z" fill="#455A64"/>
<path d="M395.222 596.289C395.466 596.289 395.701 596.192 395.874 596.019C396.046 595.846 396.144 595.612 396.144 595.368V563.777C396.149 563.652 396.13 563.528 396.086 563.411C396.042 563.294 395.975 563.188 395.889 563.098C395.803 563.008 395.699 562.936 395.585 562.887C395.47 562.838 395.347 562.813 395.222 562.813C395.097 562.813 394.974 562.838 394.859 562.887C394.745 562.936 394.641 563.008 394.555 563.098C394.469 563.188 394.402 563.294 394.358 563.411C394.314 563.528 394.294 563.652 394.3 563.777V595.368C394.3 595.612 394.397 595.846 394.57 596.019C394.743 596.192 394.977 596.289 395.222 596.289Z" fill="#455A64"/>
<path d="M397.903 570.983H398.28C398.394 570.937 398.497 570.869 398.584 570.783C398.671 570.697 398.74 570.594 398.786 570.481C398.833 570.368 398.857 570.246 398.856 570.124C398.856 570.002 398.831 569.881 398.783 569.768L395.473 562.101L391.786 566.29C391.698 566.38 391.63 566.486 391.584 566.603C391.539 566.72 391.518 566.845 391.522 566.97C391.527 567.095 391.557 567.218 391.611 567.332C391.665 567.445 391.741 567.546 391.835 567.629C391.929 567.712 392.039 567.774 392.159 567.813C392.278 567.852 392.404 567.866 392.528 567.854C392.653 567.843 392.774 567.806 392.885 567.746C392.995 567.686 393.091 567.604 393.169 567.505L394.928 565.494L397.065 570.396C397.131 570.566 397.246 570.712 397.395 570.817C397.545 570.921 397.721 570.979 397.903 570.983Z" fill="#455A64"/>
<path d="M386.633 591.387C386.877 591.387 387.112 591.29 387.285 591.117C387.458 590.944 387.555 590.71 387.555 590.466V558.875C387.555 558.63 387.458 558.396 387.285 558.223C387.112 558.05 386.877 557.953 386.633 557.953C386.512 557.953 386.392 557.977 386.28 558.023C386.168 558.069 386.067 558.137 385.981 558.223C385.896 558.308 385.828 558.41 385.781 558.522C385.735 558.634 385.711 558.754 385.711 558.875V590.466C385.711 590.71 385.808 590.944 385.981 591.117C386.154 591.29 386.388 591.387 386.633 591.387Z" fill="#455A64"/>
<path d="M389.356 566.081H389.691C389.805 566.035 389.908 565.967 389.995 565.881C390.082 565.795 390.151 565.692 390.198 565.579C390.244 565.466 390.268 565.345 390.268 565.222C390.267 565.1 390.242 564.979 390.194 564.866L386.884 557.241L383.197 561.431C383.026 561.603 382.93 561.837 382.93 562.08C382.93 562.323 383.026 562.557 383.197 562.729C383.377 562.903 383.618 563.001 383.868 563.001C384.118 563.001 384.358 562.903 384.538 562.729L386.256 560.718L388.393 565.62C388.49 565.784 388.633 565.914 388.805 565.996C388.976 566.078 389.168 566.108 389.356 566.081Z" fill="#455A64"/>
<path d="M486.894 667.976L672.417 560.676V421.324L486.894 528.624V667.976Z" fill="#4280C3"/>
<g opacity="0.6">
<path opacity="0.6" d="M486.894 667.976L672.417 560.676V421.324L486.894 528.624V667.976Z" fill="white"/>
</g>
<path d="M588.748 490.832L575.089 498.709V477.509L588.748 469.632V490.832Z" fill="#37474F"/>
<path d="M575.089 477.509L364.427 355.587L378.086 347.71L588.748 469.632L575.089 477.509Z" fill="#455A64"/>
<path d="M567.129 457.105L553.512 465.023L545.761 460.582L559.461 452.664L567.129 457.105Z" fill="#37474F"/>
<path d="M645.896 509.016L597.672 536.878C597.033 537.286 596.502 537.842 596.123 538.498C595.744 539.154 595.528 539.892 595.493 540.649V574.167C595.493 576.932 597.42 578.064 599.683 576.681L648.284 548.819C648.911 548.399 649.434 547.84 649.811 547.186C650.189 546.533 650.412 545.801 650.463 545.048V511.53C650.253 508.765 648.284 507.634 645.896 509.016Z" fill="#FAFAFA"/>
<path d="M647.111 514.211L645.435 515.175V544.755L647.111 543.791V514.211Z" fill="#455A64"/>
<path d="M640.408 518.066L637.601 519.742V549.322L640.408 547.688V518.066Z" fill="#455A64"/>
<path d="M633.746 521.92L632.07 522.884L632.112 552.464L633.746 551.542V521.92Z" fill="#455A64"/>
<path d="M628.676 524.77L625.408 526.739V556.319L628.676 554.391V524.77Z" fill="#455A64"/>
<path d="M620.381 529.63L618.747 530.594V560.173L620.381 559.252V529.63Z" fill="#455A64"/>
<path d="M615.562 532.353L612.043 534.448V564.028L615.562 561.933V532.353Z" fill="#455A64"/>
<path d="M607.015 537.339L605.381 538.303V567.882L607.015 566.919V537.339Z" fill="#455A64"/>
<path d="M603.202 539.518L602.365 539.979V569.6L603.202 569.098V539.518Z" fill="#455A64"/>
<path d="M610.074 535.747L609.236 536.208V565.787L610.074 565.327V535.747Z" fill="#455A64"/>
<path d="M623.523 527.87L622.685 528.331V557.911L623.523 557.45V527.87Z" fill="#455A64"/>
<path d="M630.897 523.638L630.059 524.099V553.679L630.897 553.218V523.638Z" fill="#455A64"/>
<path d="M636.176 520.706L635.338 521.167L635.38 550.788L636.176 550.285V520.706Z" fill="#455A64"/>
<path d="M643.341 516.348L642.544 516.809V546.43L643.341 545.928V516.348Z" fill="#455A64"/>
<path d="M600.353 541.193L598.677 542.157V571.737L600.353 570.815V541.193Z" fill="#455A64"/>
<path d="M258.09 243.887L443.614 136.545L654.276 258.509L468.752 365.81L258.09 243.887Z" fill="#4280C3"/>
<g opacity="0.7">
<path opacity="0.7" d="M258.09 243.887L443.614 136.545L654.276 258.509L468.752 365.81L258.09 243.887Z" fill="white"/>
</g>
<path opacity="0.1" d="M654.276 258.509L482.202 358.017L290.478 247.071L462.594 147.522L654.276 258.509Z" fill="black"/>
<path d="M468.752 505.161L258.09 383.239V243.887L468.752 365.81V505.161Z" fill="#4280C3"/>
<g opacity="0.6">
<path opacity="0.6" d="M468.752 505.161L258.09 383.239V243.887L468.752 365.81V505.161Z" fill="white"/>
</g>
<path d="M442.985 458.194C441.252 456.968 439.832 455.35 438.842 453.471C437.852 451.593 437.319 449.508 437.287 447.385V430.919L448.851 437.706H449.605V438.796V453.585C449.693 454.541 449.531 455.504 449.134 456.378C448.737 457.252 448.12 458.008 447.343 458.571C446.8 458.902 446.176 459.076 445.541 459.074C444.626 459.015 443.743 458.711 442.985 458.194ZM444.284 440.388L443.404 446.169H439.214V447.426C439.253 449.22 439.704 450.98 440.532 452.571C441.361 454.162 442.544 455.542 443.991 456.602C444.353 456.854 444.772 457.013 445.211 457.064C445.65 457.115 446.094 457.057 446.505 456.895C446.994 456.487 447.373 455.962 447.607 455.369C447.842 454.776 447.923 454.134 447.845 453.502V439.801L444.284 440.388ZM442.608 438.796L446.044 438.209L439.131 434.019V444.2H441.812L442.608 438.796Z" fill="#455A64"/>
<path d="M443.404 470.721C443.529 470.722 443.652 470.696 443.767 470.647C443.882 470.599 443.985 470.527 444.071 470.437C444.158 470.347 444.225 470.24 444.268 470.123C444.312 470.007 444.332 469.882 444.326 469.758V457.188C444.326 456.944 444.229 456.71 444.056 456.537C443.883 456.364 443.649 456.267 443.404 456.267C443.16 456.267 442.925 456.364 442.752 456.537C442.58 456.71 442.483 456.944 442.483 457.188V469.758C442.477 469.882 442.497 470.007 442.54 470.123C442.584 470.24 442.651 470.347 442.737 470.437C442.823 470.527 442.927 470.599 443.042 470.647C443.156 470.696 443.28 470.722 443.404 470.721Z" fill="#455A64"/>
<path d="M448.809 473.822C448.97 473.818 449.126 473.773 449.266 473.693C449.405 473.612 449.521 473.498 449.605 473.361C449.719 473.141 449.747 472.887 449.686 472.648C449.624 472.408 449.476 472.2 449.27 472.062L438.46 465.861C438.249 465.74 437.998 465.707 437.763 465.769C437.527 465.832 437.326 465.986 437.203 466.197C437.082 466.408 437.049 466.659 437.111 466.894C437.174 467.13 437.328 467.331 437.539 467.453L448.306 473.696C448.462 473.776 448.634 473.819 448.809 473.822Z" fill="#455A64"/>
<path d="M410.389 452.454C410.74 452.456 411.086 452.369 411.394 452.203C411.769 451.962 412.072 451.625 412.271 451.227C412.471 450.829 412.558 450.384 412.526 449.94V447.426C412.526 447.302 412.501 447.178 412.452 447.064C412.403 446.949 412.331 446.845 412.241 446.759C412.151 446.673 412.044 446.606 411.928 446.562C411.811 446.518 411.687 446.499 411.562 446.504C411.441 446.504 411.321 446.528 411.209 446.575C411.097 446.621 410.996 446.689 410.91 446.774C410.825 446.86 410.757 446.962 410.711 447.073C410.664 447.185 410.64 447.305 410.64 447.426V449.94C410.64 450.359 410.64 450.527 410.64 450.569C410.548 450.61 410.448 450.632 410.347 450.632C410.246 450.632 410.146 450.61 410.054 450.569C409.478 450.036 409.024 449.387 408.72 448.664C408.416 447.942 408.271 447.162 408.294 446.379V429.913C408.294 429.669 408.197 429.434 408.024 429.261C407.851 429.088 407.617 428.991 407.372 428.991C407.128 428.991 406.893 429.088 406.72 429.261C406.548 429.434 406.451 429.669 406.451 429.913V446.379C406.403 447.488 406.617 448.594 407.076 449.606C407.534 450.617 408.224 451.507 409.09 452.203C409.498 452.386 409.942 452.472 410.389 452.454Z" fill="#455A64"/>
<path d="M395.473 423.796V423.251C395.287 421.64 395.544 420.008 396.216 418.532C396.887 417.055 397.949 415.79 399.286 414.872C400.724 414.199 402.315 413.918 403.897 414.057C405.479 414.197 406.996 414.753 408.294 415.668C411.74 417.932 414.607 420.973 416.666 424.545C418.725 428.118 419.919 432.123 420.151 436.24V437.874L395.473 423.796ZM400.208 416.673C399.25 417.346 398.484 418.255 397.985 419.313C397.485 420.371 397.269 421.54 397.358 422.707L418.307 434.773C417.841 431.281 416.631 427.929 414.759 424.944C412.887 421.959 410.397 419.41 407.456 417.469C406.058 416.594 404.454 416.103 402.805 416.045C401.899 416.018 401.002 416.235 400.208 416.673Z" fill="#455A64"/>
<path d="M377.038 433.433C377.283 433.433 377.517 433.335 377.69 433.163C377.863 432.99 377.96 432.755 377.96 432.511V400.92C377.96 400.675 377.863 400.441 377.69 400.268C377.517 400.095 377.283 399.998 377.038 399.998C376.794 399.998 376.559 400.095 376.386 400.268C376.214 400.441 376.117 400.675 376.117 400.92V432.511C376.117 432.755 376.214 432.99 376.386 433.163C376.559 433.335 376.794 433.433 377.038 433.433Z" fill="#455A64"/>
<path d="M379.762 408.126C379.884 408.165 380.016 408.165 380.139 408.126C380.36 408.025 380.533 407.841 380.62 407.614C380.706 407.386 380.699 407.133 380.599 406.911L377.29 399.286L373.603 403.475C373.512 403.558 373.44 403.658 373.391 403.77C373.342 403.882 373.316 404.003 373.316 404.125C373.316 404.247 373.342 404.368 373.391 404.48C373.44 404.592 373.512 404.692 373.603 404.774C373.775 404.946 374.009 405.042 374.252 405.042C374.495 405.042 374.729 404.946 374.901 404.774L376.661 402.721L378.798 407.665C378.886 407.837 379.028 407.975 379.202 408.059C379.376 408.142 379.573 408.166 379.762 408.126Z" fill="#455A64"/>
<path d="M368.449 428.572C368.574 428.572 368.697 428.547 368.812 428.498C368.927 428.449 369.03 428.378 369.116 428.288C369.202 428.198 369.269 428.091 369.313 427.974C369.357 427.858 369.377 427.733 369.371 427.609V396.018C369.371 395.773 369.274 395.539 369.101 395.366C368.928 395.193 368.694 395.096 368.449 395.096C368.205 395.096 367.97 395.193 367.797 395.366C367.625 395.539 367.527 395.773 367.527 396.018V427.609C367.522 427.733 367.541 427.858 367.585 427.974C367.629 428.091 367.696 428.198 367.782 428.288C367.868 428.378 367.972 428.449 368.087 428.498C368.201 428.547 368.324 428.572 368.449 428.572Z" fill="#455A64"/>
<path d="M371.173 403.224C371.295 403.263 371.427 403.263 371.55 403.224C371.663 403.179 371.766 403.111 371.852 403.024C371.938 402.936 372.005 402.832 372.048 402.718C372.092 402.604 372.111 402.482 372.104 402.36C372.098 402.237 372.066 402.118 372.011 402.009L368.743 394.384L365.056 398.573C364.965 398.656 364.893 398.756 364.844 398.868C364.795 398.98 364.769 399.101 364.769 399.223C364.769 399.345 364.795 399.466 364.844 399.578C364.893 399.689 364.965 399.79 365.056 399.872C365.228 400.044 365.462 400.14 365.705 400.14C365.948 400.14 366.182 400.044 366.354 399.872L368.114 397.861L370.251 402.763C370.337 402.927 370.472 403.06 370.637 403.143C370.803 403.225 370.99 403.254 371.173 403.224Z" fill="#455A64"/>
<path d="M468.752 505.161L654.276 397.819V258.509L468.752 365.809V505.161Z" fill="#4280C3"/>
<g opacity="0.4">
<path opacity="0.4" d="M468.752 505.161L654.276 397.819V258.509L468.752 365.809V505.161Z" fill="white"/>
</g>
<path d="M570.564 327.976L556.947 335.853V314.694L570.564 306.818V327.976Z" fill="#37474F"/>
<path d="M556.947 314.694L346.285 192.772L359.902 184.895L570.564 306.817L556.947 314.694Z" fill="#455A64"/>
<path d="M627.713 346.16L579.488 374.022C578.861 374.442 578.339 375.001 577.961 375.654C577.584 376.308 577.361 377.039 577.31 377.793V411.311C577.31 414.076 579.279 415.207 581.499 413.825L629.724 385.963C630.362 385.554 630.893 384.999 631.272 384.343C631.652 383.686 631.868 382.949 631.902 382.192V348.674C632.07 345.908 630.101 344.777 627.713 346.16Z" fill="#FAFAFA"/>
<path d="M628.928 351.396L627.294 352.318V381.94L628.928 380.976V351.396Z" fill="#455A64"/>
<path d="M622.266 355.251L619.417 356.927V386.507L622.266 384.831V355.251Z" fill="#455A64"/>
<path d="M615.562 359.106L613.928 360.07V389.649L615.562 388.686V359.106Z" fill="#455A64"/>
<path d="M610.535 361.955L607.266 363.882V393.504L610.535 391.535V361.955Z" fill="#455A64"/>
<path d="M602.197 366.815L600.563 367.779V397.358L602.197 396.395V366.815Z" fill="#455A64"/>
<path d="M597.421 369.539L593.901 371.633V401.213L597.421 399.118V369.539Z" fill="#455A64"/>
<path d="M588.831 374.524L587.197 375.446V405.068L588.831 404.104V374.524Z" fill="#455A64"/>
<path d="M585.019 376.703L584.223 377.164V406.744L585.019 406.283V376.703Z" fill="#455A64"/>
<path d="M591.89 372.89L591.094 373.393V402.973L591.89 402.512V372.89Z" fill="#455A64"/>
<path d="M605.339 365.013L604.543 365.516V395.096L605.339 394.635V365.013Z" fill="#455A64"/>
<path d="M612.713 360.782L611.917 361.284V390.864L612.713 390.403V360.782Z" fill="#455A64"/>
<path d="M617.992 357.891L617.196 358.352V387.931L617.992 387.47V357.891Z" fill="#455A64"/>
<path d="M625.199 353.534L624.361 353.995V383.574L625.199 383.114V353.534Z" fill="#455A64"/>
<path d="M582.17 378.379L580.536 379.342V408.922L582.17 407.958V378.379Z" fill="#455A64"/>
<path d="M301.79 107.3L487.313 0L697.975 121.923L512.452 229.223L301.79 107.3Z" fill="#4280C3"/>
<g opacity="0.8">
<path opacity="0.8" d="M301.79 107.3L487.313 0L697.975 121.923L512.452 229.223L301.79 107.3Z" fill="white"/>
</g>
<path d="M512.452 368.575L301.79 246.652V107.3L512.452 229.223V368.575Z" fill="#4280C3"/>
<g opacity="0.7">
<path opacity="0.7" d="M512.452 368.575L301.79 246.652V107.3L512.452 229.223V368.575Z" fill="white"/>
</g>
<path d="M486.643 321.733C484.908 320.518 483.486 318.908 482.496 317.036C481.505 315.164 480.973 313.083 480.945 310.965V294.458L492.509 301.245H493.263V302.335V317.083C493.368 318.04 493.214 319.009 492.816 319.886C492.418 320.763 491.79 321.517 491 322.068C490.459 322.404 489.835 322.578 489.199 322.571C488.288 322.519 487.407 322.23 486.643 321.733ZM487.942 303.969L487.104 309.75H482.914V310.965C482.956 312.752 483.409 314.506 484.237 316.089C485.065 317.673 486.247 319.045 487.69 320.099C488.044 320.37 488.464 320.54 488.907 320.592C489.349 320.644 489.798 320.575 490.204 320.392C490.693 319.984 491.073 319.459 491.307 318.866C491.541 318.274 491.623 317.631 491.545 316.999V303.34L487.942 303.969ZM486.308 302.335L489.701 301.748L482.788 297.558V307.739H485.47L486.308 302.335Z" fill="#455A64"/>
<path d="M487.104 334.302C487.348 334.302 487.583 334.205 487.756 334.032C487.928 333.859 488.025 333.625 488.025 333.38V320.811C488.031 320.687 488.011 320.562 487.968 320.445C487.924 320.329 487.857 320.222 487.771 320.132C487.685 320.042 487.581 319.97 487.466 319.921C487.352 319.872 487.228 319.847 487.104 319.847C486.979 319.847 486.856 319.872 486.741 319.921C486.626 319.97 486.523 320.042 486.437 320.132C486.351 320.222 486.284 320.329 486.24 320.445C486.196 320.562 486.176 320.687 486.182 320.811V333.38C486.182 333.625 486.279 333.859 486.452 334.032C486.625 334.205 486.859 334.302 487.104 334.302Z" fill="#455A64"/>
<path d="M492.509 337.235C492.711 337.234 492.907 337.167 493.067 337.044C493.228 336.92 493.343 336.747 493.395 336.552C493.447 336.357 493.434 336.15 493.357 335.963C493.28 335.776 493.144 335.619 492.969 335.517L482.202 329.275C481.984 329.151 481.727 329.116 481.484 329.179C481.242 329.242 481.033 329.396 480.903 329.61C480.844 329.717 480.808 329.834 480.795 329.956C480.782 330.077 480.794 330.2 480.829 330.317C480.864 330.434 480.922 330.543 480.999 330.637C481.077 330.731 481.172 330.809 481.28 330.867L492.048 337.109C492.186 337.195 492.346 337.239 492.509 337.235Z" fill="#455A64"/>
<path d="M454.088 315.867C454.44 315.873 454.787 315.786 455.094 315.616C455.462 315.379 455.761 315.049 455.96 314.659C456.159 314.269 456.25 313.833 456.225 313.395V310.84C456.225 310.595 456.128 310.361 455.955 310.188C455.782 310.015 455.548 309.918 455.303 309.918C455.059 309.918 454.824 310.015 454.652 310.188C454.479 310.361 454.382 310.595 454.382 310.84V313.354C454.382 313.731 454.382 313.94 454.172 313.982C453.98 314.03 453.778 314.03 453.586 313.982C453.015 313.448 452.567 312.797 452.271 312.074C451.974 311.351 451.837 310.573 451.868 309.792V293.285C451.868 293.04 451.771 292.806 451.598 292.633C451.425 292.46 451.19 292.363 450.946 292.363C450.821 292.357 450.697 292.377 450.58 292.42C450.464 292.464 450.357 292.531 450.267 292.617C450.177 292.704 450.105 292.807 450.056 292.922C450.007 293.036 449.982 293.16 449.982 293.285V309.792C449.941 310.895 450.159 311.992 450.617 312.996C451.075 314 451.762 314.883 452.622 315.574C453.077 315.799 453.582 315.9 454.088 315.867Z" fill="#455A64"/>
<path d="M439.214 287.209V286.665C438.973 285.112 439.204 283.522 439.878 282.103C440.552 280.683 441.637 279.499 442.992 278.704C444.347 277.909 445.91 277.539 447.478 277.644C449.046 277.749 450.546 278.322 451.784 279.291C455.242 281.546 458.121 284.583 460.188 288.157C462.255 291.73 463.452 295.74 463.683 299.862V301.454L439.214 287.209ZM443.949 280.087C442.993 280.763 442.225 281.672 441.72 282.728C441.214 283.784 440.986 284.951 441.058 286.12L462.007 298.186C461.551 294.691 460.346 291.335 458.473 288.348C456.6 285.362 454.104 282.815 451.155 280.883C449.759 280.004 448.154 279.512 446.505 279.458C445.611 279.426 444.726 279.644 443.949 280.087Z" fill="#455A64"/>
<path d="M420.78 296.888C420.904 296.888 421.028 296.863 421.142 296.814C421.257 296.765 421.361 296.693 421.447 296.603C421.533 296.513 421.6 296.406 421.644 296.29C421.687 296.173 421.707 296.049 421.701 295.924V264.333C421.701 264.089 421.604 263.854 421.431 263.681C421.258 263.508 421.024 263.411 420.78 263.411C420.655 263.406 420.531 263.425 420.414 263.469C420.297 263.513 420.191 263.58 420.101 263.666C420.01 263.752 419.939 263.856 419.89 263.97C419.841 264.085 419.816 264.208 419.816 264.333V295.924C419.816 296.051 419.841 296.176 419.889 296.293C419.938 296.41 420.009 296.516 420.098 296.605C420.188 296.695 420.294 296.766 420.411 296.814C420.528 296.863 420.653 296.888 420.78 296.888Z" fill="#455A64"/>
<path d="M423.461 271.456H423.838C424.063 271.346 424.24 271.157 424.333 270.925C424.426 270.692 424.429 270.433 424.341 270.199L421.031 262.573L417.344 266.763C417.199 266.949 417.13 267.183 417.151 267.417C417.173 267.652 417.284 267.869 417.461 268.025C417.638 268.18 417.867 268.262 418.103 268.253C418.338 268.245 418.561 268.146 418.727 267.978L420.486 265.967L422.623 270.869C422.694 271.036 422.81 271.179 422.958 271.283C423.106 271.387 423.28 271.447 423.461 271.456Z" fill="#455A64"/>
<path d="M412.191 291.985C412.435 291.985 412.669 291.888 412.842 291.715C413.015 291.543 413.112 291.308 413.112 291.064V259.473C413.142 259.332 413.14 259.187 413.107 259.048C413.073 258.908 413.009 258.778 412.918 258.666C412.828 258.555 412.714 258.465 412.584 258.403C412.455 258.341 412.313 258.309 412.17 258.309C412.026 258.309 411.884 258.341 411.755 258.403C411.625 258.465 411.511 258.555 411.421 258.666C411.331 258.778 411.266 258.908 411.233 259.048C411.199 259.187 411.197 259.332 411.227 259.473V291.064C411.227 291.188 411.252 291.312 411.301 291.426C411.35 291.541 411.421 291.645 411.512 291.731C411.602 291.817 411.708 291.884 411.825 291.928C411.942 291.972 412.066 291.991 412.191 291.985Z" fill="#455A64"/>
<path d="M414.872 266.679H415.249C415.362 266.633 415.466 266.565 415.552 266.479C415.639 266.393 415.708 266.29 415.755 266.177C415.802 266.064 415.826 265.943 415.825 265.82C415.825 265.698 415.8 265.577 415.752 265.464L412.442 257.797L408.755 261.987C408.609 262.172 408.54 262.406 408.562 262.641C408.584 262.875 408.694 263.092 408.871 263.248C409.048 263.404 409.278 263.485 409.514 263.477C409.749 263.468 409.972 263.37 410.137 263.202L411.897 261.191L414.034 266.093C414.1 266.262 414.215 266.408 414.364 266.513C414.513 266.617 414.69 266.675 414.872 266.679Z" fill="#455A64"/>
<path d="M512.452 368.575L697.975 261.275V121.922L512.452 229.223V368.575Z" fill="#4280C3"/>
<g opacity="0.6">
<path opacity="0.6" d="M512.452 368.575L697.975 261.275V121.922L512.452 229.223V368.575Z" fill="white"/>
</g>
<path d="M614.306 191.389L600.647 199.266V178.108L614.306 170.231V191.389Z" fill="#37474F"/>
<path d="M600.647 178.108L389.985 56.185L403.643 48.3082L614.305 170.231L600.647 178.108Z" fill="white"/>
<path d="M671.454 209.615L623.146 237.435C622.512 237.848 621.985 238.405 621.606 239.06C621.228 239.715 621.009 240.45 620.967 241.206V274.724C620.967 277.447 622.894 278.578 625.157 277.238L673.423 249.376C674.05 248.955 674.572 248.397 674.95 247.743C675.328 247.089 675.551 246.358 675.602 245.605V212.087C675.811 209.363 673.842 208.232 671.454 209.615Z" fill="#FAFAFA"/>
<path d="M672.627 214.81L670.993 215.774V245.353L672.627 244.39V214.81Z" fill="#455A64"/>
<path d="M665.965 218.664L663.158 220.34V249.92L665.965 248.244V218.664Z" fill="#455A64"/>
<path d="M659.304 222.519L657.628 223.483V253.063L659.304 252.099V222.519Z" fill="#455A64"/>
<path d="M654.234 225.368L650.966 227.337V256.917L654.234 254.948V225.368Z" fill="#455A64"/>
<path d="M645.938 230.228L644.304 231.192V260.772L645.938 259.808V230.228Z" fill="#455A64"/>
<path d="M641.12 232.952L637.601 235.047V264.626L641.12 262.531V232.952Z" fill="#455A64"/>
<path d="M632.573 237.938L630.939 238.901V268.481L632.573 267.517V237.938Z" fill="#455A64"/>
<path d="M628.76 240.116L627.922 240.577V270.157L628.76 269.696V240.116Z" fill="#455A64"/>
<path d="M635.631 236.345L634.793 236.806V266.386L635.631 265.925V236.345Z" fill="#455A64"/>
<path d="M649.08 228.469L648.242 228.93V258.509L649.08 258.048V228.469Z" fill="#455A64"/>
<path d="M656.413 224.237L655.617 224.698V254.278L656.413 253.817V224.237Z" fill="#455A64"/>
<path d="M661.734 221.304L660.896 221.765V251.345L661.734 250.884V221.304Z" fill="#455A64"/>
<path d="M668.898 216.947L668.102 217.408V246.987L668.898 246.527V216.947Z" fill="#455A64"/>
<path d="M625.869 241.792L624.235 242.756V272.336L625.869 271.372V241.792Z" fill="#455A64"/>
</svg>
