<svg width="161" height="136" fill="none" xmlns="http://www.w3.org/2000/svg"><path d="M10.043 0h140.821c5.523 0 10 4.47715 10 10v115.806c0 5.523-4.477 10-10 10H10.043c-2.66357 0-5.21806-1.058-7.10148-2.941C1.05809 130.981 0 128.427 0 125.763V10.0179c.00664806-2.65923 1.06766-5.20727 2.95037-7.08527C4.83307 1.05463 7.38377-.00000831 10.043 0z" fill="#FE8FBE"/><path opacity=".3" d="M129.538 73.3889c5.022-3.2138 7.131-9.2647 9.014-14.8637 1.205-3.6656 2.385-7.8335.552-11.1979-1.672-2.4136-4.075-4.2266-6.854-5.1721-9.84-4.4204-20.069-7.9171-30.556-10.4448L25.1913 58.9521c-.5839 2.2285-.4879 4.5807.2754 6.7542.7634 2.1736 2.1594 4.0692 4.0085 5.4432 1.8491 1.374 4.0669 2.1636 6.3683 2.2674 2.3013.1038 4.5812-.4831 6.5464-1.6851 3.0061 15.0343 1.7895 30.6072-3.515 44.9922-.5061.926-.8123 1.947-.8988 2.998-.0866 1.051.0486 2.108.3966 3.104 1.2052 2.134 4.1177 2.385 6.5531 2.385l76.7032.226c3.741 0 8.009-.201 10.344-3.114 2.335-2.912 1.582-7.532.603-11.248l-7.532-28.6223c-.65-1.6802-.704-3.5328-.151-5.2475.854-1.8579 2.938-2.812 4.645-3.8163z" fill="#000"/><path d="M119.696 110.875c-.527-1.13-7.331-25.5595-7.331-25.5595l1.28-26.0114 1.23-36.0794-17.5748-3.1134c-12.7044 7.3565-32.6398 10.4448-45.6454 4.4692 0 0-6.9799.3264-10.3945 3.4648-1.3307 1.2052.8034 11.7001 2.7367 22.0695 2.0086 10.8966 7.6828 37.9876 7.6828 37.9876s-9.6161 23.2246-11.6749 29.9026c0 0 58.8771-10.67 78.5861 0 .025 0 4.193-.577 1.105-7.13z" fill="#fff"/><path d="M19.718 41.2771l21.969-13.533 5.9003 30.129-11.3235 9.5911S19.0903 58.6766 19.718 41.2771zM114.875 23.2251l22.296 9.6413s-7.332 27.9948-11.6 31.2086l-11.323-4.7705-2.787 8.7626-.151-35.1505 3.565-9.6915z" fill="#fff"/><path d="M38.3227 64.7274c-.4017-.1159-.7829-.2938-1.1298-.5273-.9732-.5541-1.9123-1.1661-2.812-1.8329-2.975-2.2316-5.5261-4.9782-7.5323-8.1097-1.0892-1.7442-1.9978-3.595-2.7116-5.5236-.5655-1.5718-.9775-3.1946-1.2302-4.8458-.1814-1.1118-.257-2.2383-.226-3.3644-.0588-.4079-.0588-.8223 0-1.2302.1506 0 .1255 1.7575.6779 4.4942.3107 1.5997.7559 3.1703 1.3307 4.6951.7319 1.8647 1.6399 3.6554 2.7116 5.3479 2.0395 3.0291 4.5286 5.7299 7.3816 8.0093 2.109 1.8579 3.6155 2.7618 3.5401 2.8874zM44.5743 53.6801s-.3264 0-.8537-.4268c-.6845-.513-1.3306-1.0752-1.9333-1.6822-1.9076-2.046-3.6536-4.2369-5.2223-6.5531-1.5978-2.2958-3.0567-4.6853-4.3687-7.1556-.6081-.9962-1.0333-2.0931-1.2554-3.2389 0 0 .6277 1.155 1.7324 2.9627 1.1048 1.8077 2.6865 4.3185 4.5194 6.9799 1.8328 2.6614 3.6155 5.0215 5.0215 6.6284.703.8034 1.3056 1.406 1.7324 1.8328.4268.4268.6528.6026.6277.6528zM112.289 25.2587c-.872.3152-1.771.5505-2.686.703-1.733.4268-4.243 1.1047-7.281 2.0337l-10.7464 3.3644c-4.3937 1.4081-8.8943 2.4577-13.4576 3.1384-8.3597 1.1077-16.8626.248-24.8313-2.5107-2.406-.8306-4.7473-1.8376-7.005-3.0129-.8035-.4018-1.3809-.8035-1.7827-1.0294l-.6025-.4018c.8597.3334 1.6982.7191 2.5107 1.155 2.2709 1.0755 4.6111 1.9981 7.005 2.7618 7.923 2.5758 16.325 3.331 24.5803 2.2095 4.5212-.6816 8.9858-1.6971 13.3571-3.038 4.0423-1.1801 7.6829-2.335 10.7714-3.2138 3.088-.8788 5.624-1.4562 7.381-1.7826.879-.2009 1.582-.2762 2.059-.3515.24-.0438.486-.0522.728-.0251zM114.649 45.6201s-.226 0-.703.1758l-2.059.3515c-1.782.2762-4.368.6026-7.532.929-8.3434.8229-16.7232 1.2251-25.1073 1.2051-9.8672 0-18.7804-.3515-25.1075-.6779l-7.5322-.4519-2.084-.1507c-.2414.0354-.4867.0354-.7281 0h2.8121l7.5322.2009c6.4526.2008 15.3658.477 25.1075.477 9.7417 0 18.7302-.4519 25.1073-1.0043 3.214-.251 5.8-.5021 7.532-.6779l2.059-.2008c.229-.0798.464-.1386.703-.1758zM113.645 59.3291c-.819.3195-1.658.5878-2.511.8034-.828.2511-1.833.4771-3.038.7282-1.205.251-2.511.5523-4.042.8034-7.8675 1.2436-15.8128 1.9316-23.7769 2.0588-9.3399.2762-17.776 0-23.8772-.477-3.038-.226-5.4985-.4771-7.2058-.703-.8475-.0971-1.6867-.2566-2.5108-.4771.8817.0012 1.7623.0599 2.6363.1758 1.7073 0 4.1679.3013 7.2059.4519 6.1011.2762 14.5121.5273 23.827.2511 7.9303-.1296 15.8454-.7417 23.7015-1.8329 1.54-.2008 2.896-.4268 4.067-.6779 1.18-.2008 2.21-.3766 3.038-.6026.811-.2451 1.644-.4132 2.486-.5021zM111.712 77.8587c-.826.1867-1.666.3043-2.511.3515-1.557.1758-3.816.4017-6.628.6277-5.6244.4268-13.4077.8788-22.0196.9792-8.6119.1004-16.3952-.2009-22.0193-.703-2.7869-.2762-5.0215-.5273-6.6283-.8035-.8469-.0886-1.6861-.2397-2.5108-.4519.8399-.0377 1.6814.0128 2.5108.1507 1.5566.1757 3.8163.3515 6.6283.5523 5.6241.3515 13.3823.6026 21.9691.477 8.5868-.1255 16.345-.4519 21.9688-.7532l6.654-.3766c.858-.1019 1.724-.1188 2.586-.0502zM115.352 96.1365c-.877.0723-1.759.0723-2.636 0l-7.231-.5021c-6.0758-.4017-14.4869-.8286-23.8017-.8286-9.3149 0-17.7259.4269-23.8019.8286l-7.2059.5021c-.8856.0724-1.7757.0724-2.6613 0 .8284-.1826 1.6667-.3167 2.5107-.4017 1.6822-.226 4.1427-.4771 7.1808-.7532 6.1011-.5273 14.5372-1.0295 23.8521-1.0295 9.3148 0 17.7761.4771 23.8522 1.0295 3.038.2761 5.498.5272 7.206.7532.92.076 1.834.2101 2.736.4017zM122.408 30.9578c-.603 2.2642-1.597 4.4055-2.938 6.3271-1.115 2.0651-2.605 3.9042-4.394 5.4232-.176 0 1.733-2.5108 3.741-5.825 2.009-3.3141 3.39-6.0257 3.591-5.9253z" fill="#E0E0E0"/><path d="M42.0887 39.2432c.2308.6073.3909 1.2391.4771 1.883.3013 1.3809.6527 3.1385 1.1047 5.2224.9541 4.5696 2.2094 10.5702 3.6155 17.2237 1.406 6.6535 2.5107 12.8299 3.3895 17.2489.3766 2.2094.6779 4.0172.8536 5.2726.1323.644.1913 1.301.1758 1.9583-.2233-.6182-.3832-1.2576-.477-1.9082-.2762-1.3809-.6528-3.1384-1.1048-5.2223-.9541-4.5445-2.2094-10.5703-3.6155-17.1986-1.406-6.6284-2.5107-12.83-3.3895-17.274-.3766-2.2094-.6779-4.0172-.8536-5.2475-.1319-.6441-.1908-1.301-.1758-1.9583zM115.126 47.2773c.069.4998.069 1.0067 0 1.5065 0 .9792 0 2.3601-.175 4.0925-.176 3.4397-.452 8.2102-.829 13.4576-.376 5.2475-.753 10.043-1.08 13.4325-.15 1.7074-.301 3.1134-.401 4.0674-.012.5054-.106 1.0056-.276 1.4814-.06-.5003-.06-1.0061 0-1.5065 0-.954 0-2.3601.15-4.0674.176-3.4648.477-8.2101.854-13.4576.377-5.2475.753-10.043 1.08-13.4576.15-1.7073.301-3.1133.401-4.0674.038-.5024.13-.9992.276-1.4814z" fill="#263238"/><path d="M131.17 30.6567c-.497 1.5139-1.101 2.9906-1.808 4.4189-1.154 2.7368-2.661 6.528-4.042 10.8214-1.381 4.2934-2.335 8.2603-2.963 11.1477-.271 1.5758-.631 3.135-1.079 4.67v-1.2805c0-.8285.226-2.0337.477-3.4899.672-3.8167 1.603-7.5832 2.787-11.2733 1.179-3.6984 2.605-7.3137 4.268-10.8213.653-1.3307 1.205-2.5108 1.607-3.1133.208-.388.461-.7504.753-1.0797zM119.621 111.779c-.273-.017-.543-.067-.804-.151l-2.31-.552c-.979-.251-2.209-.552-3.64-.829-1.431-.276-3.013-.677-4.846-.954-1.833-.276-3.766-.652-5.9-.878-2.1344-.226-4.4192-.452-6.8295-.653-10.4742-.698-20.9948.002-31.2839 2.084-2.3601.527-4.6198.979-6.6786 1.556-2.0588.578-3.9921 1.105-5.7496 1.657-1.7576.553-3.2891 1.105-4.67 1.582-1.3809.477-2.5108.929-3.49 1.331l-2.2094.828c-.2456.122-.5079.207-.7784.252 0 0 .226-.151.7281-.377l2.1342-1.004c.9541-.427 2.0839-.929 3.4648-1.431 1.381-.503 2.8874-1.155 4.6449-1.708 1.7575-.552 3.6657-1.205 5.7496-1.757 2.084-.553 4.3436-1.08 6.7037-1.632 10.3446-2.173 20.9429-2.883 31.4848-2.109 2.5108.226 4.7203.401 6.8543.753 2.134.351 4.143.628 5.925.979 1.783.352 3.44.728 4.846 1.055 1.406.326 2.636.678 3.616.979l2.259.678c.271.069.532.17.779.301z" fill="#E0E0E0"/></svg>