<svg width="254" height="243" fill="none" xmlns="http://www.w3.org/2000/svg"><path d="M124.993 93.5205L2.896 164.01v5.42l126.785 73.199 122.085-70.489v-5.42L124.993 93.5205z" fill="#FF80B6"/><path d="M181.341 191.124l14 8.182 23.518-13.577-14.039-8.156-23.479 13.551z" fill="#F0F0F0"/><path opacity=".15" d="M2.896 164.01l126.785 73.199v5.42L2.896 169.43v-5.42z" fill="#000"/><path opacity=".1" d="M129.681 237.209l122.085-70.489v5.42l-122.085 70.489v-5.42z" fill="#000"/><path d="M238.047 142.717l-5.441 10.72.882.448 5.441-10.721-.882-.447zM227.937 141.806l-.83.514 5.308 8.573.83-.514-5.308-8.573z" fill="#263238"/><path d="M233.809 140.813v25.829c-.007.073-.034.142-.076.2-.043.059-.101.105-.168.134-.181.093-.381.141-.584.141-.203 0-.403-.048-.584-.141-.065-.029-.121-.076-.162-.135-.04-.059-.065-.127-.07-.199v-25.829h1.644z" fill="#263238"/><path d="M241.375 144.769c6.625 0 11.996-5.371 11.996-11.997 0-6.625-5.371-11.996-11.996-11.996-6.626 0-11.997 5.371-11.997 11.996 0 6.626 5.371 11.997 11.997 11.997z" fill="#455A64"/><path d="M245.138 129.715c1.541-4.88 3.198-6.781 2.145-7.372-1.987-1.126-4.254-1.661-6.535-1.543-2.28.118-4.48.884-6.34 2.21-1.86 1.325-3.303 3.153-4.16 5.27-.856 2.117-1.091 4.434-.676 6.68.415 2.246 1.462 4.326 3.019 5.997 1.557 1.671 3.558 2.863 5.769 3.436 2.21.573 4.539.503 6.711-.202 2.172-.705 4.098-2.015 5.552-3.776-3.545 1.027-7.489-4.38-5.485-10.7z" fill="#37474F"/><path d="M222.481 144.602c4.653 0 8.426-3.773 8.426-8.426 0-4.653-3.773-8.426-8.426-8.426-4.654 0-8.426 3.773-8.426 8.426 0 4.653 3.772 8.426 8.426 8.426z" fill="#455A64"/><path d="M222.481 127.738c-1.771-.003-3.497.555-4.932 1.592-.219 5.138 4.148 10.173 2.928 11.868-1.22 1.696-4.238.643-5.279-.783.745 1.275 1.813 2.332 3.095 3.064 1.282.733 2.734 1.116 4.211 1.11 1.477-.005 2.926-.399 4.203-1.141 1.277-.742 2.336-1.807 3.072-3.088.736-1.28 1.122-2.732 1.12-4.208-.002-1.477-.393-2.927-1.132-4.206-.739-1.278-1.801-2.34-3.08-3.079-1.279-.738-2.729-1.128-4.206-1.129z" fill="#37474F"/><path d="M248.061 130.608c1.962-8.312-3.186-16.641-11.498-18.603-8.313-1.962-16.642 3.186-18.603 11.499-1.962 8.312 3.186 16.641 11.498 18.603 8.313 1.962 16.642-3.186 18.603-11.499z" fill="#455A64"/><path d="M248.079 130.615c-.601 2.479-1.809 4.769-3.514 6.666-1.705 1.897-3.855 3.342-6.255 4.204-2.401.862-4.978 1.114-7.501.735-2.522-.379-4.911-1.379-6.952-2.909-2.041-1.53-3.671-3.542-4.742-5.857-1.072-2.315-1.552-4.859-1.399-7.405.154-2.547.938-5.015 2.28-7.184 1.343-2.168 3.203-3.97 5.413-5.243-1.339.764-2.56 1.72-3.622 2.838-.268 1.159-.406 2.344-.411 3.533-.026 3.107.888 6.15 2.622 8.729 1.733 2.579 4.206 4.574 7.094 5.722 2.887 1.149 6.055 1.398 9.086.714 3.032-.683 5.786-2.267 7.901-4.543z" fill="#37474F"/><path d="M26.8735 139.653l-5.4411 10.721.8819.447 5.4411-10.72-.8819-.448zM16.7897 138.801l-.83.514 5.3072 8.573.83-.514-5.3072-8.573z" fill="#263238"/><path d="M22.689 137.794v25.83c-.005.071-.0292.14-.0698.199-.0407.059-.0965.105-.1614.135-.181.093-.3813.141-.5844.141-.2032 0-.4035-.048-.5845-.141-.0665-.029-.1242-.075-.167-.134-.0429-.059-.0694-.128-.077-.2v-25.83h1.6441z" fill="#263238"/><path d="M30.2284 141.763c6.6255 0 11.9965-5.371 11.9965-11.996 0-6.626-5.371-11.997-11.9965-11.997-6.6255 0-11.9965 5.371-11.9965 11.997 0 6.625 5.371 11.996 11.9965 11.996z" fill="#455A64"/><path d="M33.9918 126.697c1.5413-4.881 3.1854-6.782 2.145-7.372-1.9869-1.126-4.2539-1.662-6.5346-1.544-2.2807.119-4.4802.885-6.3402 2.21-1.86 1.325-3.3032 3.154-4.1598 5.271-.8567 2.117-1.0914 4.434-.6764 6.68.415 2.246 1.4623 4.326 3.019 5.997 1.5567 1.671 3.5579 2.863 5.7687 3.436 2.2107.573 4.539.503 6.7112-.202 2.1723-.705 4.0982-2.015 5.5516-3.777-3.545 1.041-7.501-4.38-5.4845-10.699z" fill="#37474F"/><path d="M11.3347 141.584c4.6535 0 8.4259-3.773 8.4259-8.426 0-4.653-3.7724-8.426-8.4259-8.426-4.6534 0-8.42576 3.773-8.42576 8.426 0 4.653 3.77236 8.426 8.42576 8.426z" fill="#455A64"/><path d="M11.3346 124.732c-1.76891-.002-3.49398.55-4.93221 1.58-.23119 5.138 4.14871 10.173 2.92849 11.868-1.22021 1.696-4.23859.642-5.29182-.783.74311 1.276 1.80881 2.335 3.09023 3.07 1.28143.735 2.73354 1.12 4.21071 1.117 1.4772-.004 2.9276-.395 4.2057-1.136 1.2781-.74 2.3391-1.804 3.0765-3.084.7373-1.28 1.1252-2.732 1.1247-4.209-.0004-1.477-.3893-2.928-1.1275-4.208-.7382-1.279-1.7998-2.342-3.0784-3.082-1.2786-.74-2.7292-1.13-4.2064-1.133z" fill="#37474F"/><path d="M32.805 135.002c6.0393-6.039 6.0393-15.831 0-21.87-6.0392-6.039-15.8307-6.039-21.87 0-6.03922 6.039-6.03925 15.831 0 21.87 6.0392 6.039 15.8308 6.039 21.87 0z" fill="#455A64"/><path d="M36.9205 127.596c-.6007 2.48-1.8078 4.773-3.513 6.671-1.7051 1.899-3.855 3.344-6.2567 4.207-2.4017.863-4.98 1.115-7.5035.736-2.5235-.38-4.9132-1.38-6.9547-2.911-2.0415-1.531-3.67094-3.546-4.74199-5.862-1.07105-2.316-1.55025-4.862-1.39455-7.409.1557-2.547.94139-5.016 2.28658-7.184 1.34516-2.169 3.20776-3.97 5.42056-5.241-1.3439.758-2.5651 1.715-3.622 2.839-.2686 1.158-.4064 2.343-.4111 3.532-.0234 3.105.8915 6.144 2.6247 8.72 1.7332 2.576 4.2039 4.569 7.0887 5.717 2.8847 1.148 6.0489 1.398 9.0782.717 3.0293-.68 5.7824-2.26 7.8988-4.532z" fill="#37474F"/><path d="M59.2437 147.749l98.6183 56.926v-86.75L59.2437 60.999v86.75z" fill="#F0F0F0"/><path d="M129.681 172.14v48.808L31.0762 164.01v-48.795l98.6048 56.925z" fill="#F0F0F0"/><path d="M31.0762 131.475l98.6048 56.939V172.14l-98.6048-56.925v16.26zM59.2437 77.2597l98.6183 56.9253v-16.26L59.2437 60.9861v16.2736z" fill="#E0E0E0"/><path d="M157.862 117.924l65.736-37.9543V166.72l-65.736 37.954v-86.75zM129.681 172.14l28.18-27.101v59.636l-28.18 16.273V172.14z" fill="#FAFAFA"/><path d="M190.73 60.9861l-32.868 56.9379 65.736-37.9542-32.868-18.9837z" fill="#FAFAFA"/><path d="M153.161 126.055l37.569-65.069v-4.0588l-37.569 65.0688v4.059z" fill="#FF80B6"/><path opacity=".1" d="M153.161 126.055l37.569-65.069v-4.0588l-37.569 65.0688v4.059z" fill="#000"/><path d="M92.116-.0001129L54.5531 65.0608l98.6089 56.9322 37.563-65.0611L92.116-.0001129z" fill="#FF80B6"/><path d="M54.5555 65.0576l98.6055 56.9384v4.059L54.5555 69.1293v-4.0717z" fill="#FF80B6"/><path opacity=".15" d="M54.5555 65.0576l98.6055 56.9384v4.059L54.5555 69.1293v-4.0717z" fill="#000"/><path d="M190.73 56.9272l41.089 23.7233-3.533 2.0294L190.73 60.986v-4.0588z" fill="#FF80B6"/><path opacity=".15" d="M190.73 56.9272l41.089 23.7233-3.533 2.0294L190.73 60.986v-4.0588z" fill="#000"/><path d="M228.286 82.6798h-4.688v-2.7101l4.688 2.7101z" fill="#FF80B6"/><path opacity=".3" d="M228.286 82.6798h-4.688v-2.7101l4.688 2.7101z" fill="#000"/><path d="M74.374 64.2872V44.7639l11.2387-6.4863 11.2002 19.3947v19.5875L74.374 64.2872z" fill="#F0F0F0"/><path opacity=".2" d="M85.6128 38.2777l-13.8718 8.002-1.7725-1.0275 15.6443-9.0295v2.055z" fill="#000"/><path d="M96.813 77.2596l11.213-19.4461 5.729-9.9414-16.942 9.8001v19.5874z" fill="#FAFAFA"/><path opacity=".4" d="M71.741 46.2795h2.633v-1.5156l-2.633 1.5156z" fill="#000"/><path d="M99.4846 62.2964L85.6128 38.2777v-2.055l15.6062 27.0756-1.7344-1.0019z" fill="#FF80B6"/><path opacity=".1" d="M99.4846 62.2964L85.6128 38.2777v-2.055l15.6062 27.0756-1.7344-1.0019z" fill="#000"/><path d="M101.219 63.298L85.6128 36.2224l16.1452-9.3249 15.606 27.0756-16.145 9.3249z" fill="#FF80B6"/><path opacity=".3" d="M101.219 63.298L85.6128 36.2224l16.1452-9.3249 15.606 27.0756-16.145 9.3249z" fill="#fff"/><path d="M91.2129 54.5383L79.9871 48.052v12.947l11.2258 6.4863v-12.947z" fill="#455A64"/><path d="M81.1302 60.331V48.707l10.0828 5.8313v11.6112L81.1302 60.331z" fill="#E0E0E0"/><path d="M79.9871 60.9989l1.1431-.6678 10.0827 5.8184v1.3358l-11.2258-6.4864z" fill="#37474F"/><path d="M121.32 91.4011V71.8779l11.251-6.4863 11.201 19.3948v19.5876L121.32 91.4011z" fill="#F0F0F0"/><path opacity=".2" d="M132.571 65.3918L118.7 73.3937l-1.786-1.0275 15.657-9.0295v2.0551z" fill="#000"/><path d="M143.771 104.374l11.201-19.4463 5.728-9.9414-16.929 9.8002v19.5875z" fill="#FAFAFA"/><path opacity=".4" d="M118.699 73.3936h2.621v-1.5157l-2.621 1.5157z" fill="#000"/><path d="M146.443 89.4105l-13.872-24.0187v-2.0551l15.593 27.0756-1.721-1.0018z" fill="#FF80B6"/><path opacity=".1" d="M146.443 89.4105l-13.872-24.0187v-2.0551l15.593 27.0756-1.721-1.0018z" fill="#000"/><path d="M148.164 90.4124l-15.593-27.0756 16.133-9.3378 15.606 27.0756-16.146 9.3378z" fill="#FF80B6"/><path opacity=".3" d="M148.164 90.4124l-15.593-27.0756 16.133-9.3378 15.606 27.0756-16.146 9.3378z" fill="#fff"/><path d="M138.158 81.6395l-11.225-6.4735v12.947l11.225 6.4863V81.6395z" fill="#455A64"/><path d="M128.089 87.4453v-11.624l10.069 5.8184v11.6241l-10.069-5.8185z" fill="#E0E0E0"/><path d="M126.933 88.1132l1.156-.6679 10.069 5.8184v1.3358l-11.225-6.4863z" fill="#37474F"/><path d="M59.2436 84.4397l98.6184 56.9253v3.674l-32.869 35.244-98.6178-56.938v-3.661l32.8684-35.2443z" fill="#FF80B6"/><path d="M59.2436 84.4397l98.6184 56.9253-32.869 35.245-98.6178-56.926 32.8684-35.2443z" fill="#FF80B6"/><path opacity=".1" d="M124.993 176.61v3.673l32.869-35.244v-3.674l-32.869 35.245z" fill="#000"/><path opacity=".15" d="M124.993 180.283l-98.6178-56.938v-3.661l98.6178 56.926v3.673z" fill="#000"/><path d="M68.6456 147.736l-23.4792-13.551v24.944l23.4792 13.55v-24.943z" fill="#263238"/><path d="M46.605 158.294V135.02l22.0407 12.729v23.261L46.605 158.294z" fill="#FAFAFA"/><path d="M46.605 135.02v5.433l22.0407 12.716v-5.433L46.605 135.02z" fill="#F0F0F0"/><path d="M45.1664 159.129l1.4385-.835 22.0407 12.716v1.669l-23.4792-13.55zM45.1664 146.657l1.4385-.835 22.0407 12.716v1.67l-23.4792-13.551z" fill="#37474F"/><path d="M56.4178 165.628l1.4386.835v-24.944l-1.4386-.834v24.943z" fill="#37474F"/><path d="M110.903 172.14l-23.4792-13.551v24.944l23.4792 13.55V172.14z" fill="#263238"/><path d="M88.8624 182.698v-23.274l22.0406 12.716v23.274l-22.0406-12.716z" fill="#FAFAFA"/><path d="M88.8624 159.424v5.421l22.0406 12.728v-5.433l-22.0406-12.716z" fill="#F0F0F0"/><path d="M87.4238 183.533l1.4386-.835 22.0406 12.716v1.67l-23.4792-13.551zM87.4238 171.061l1.4386-.835 22.0406 12.716v1.67l-23.4792-13.551z" fill="#37474F"/><path d="M98.6753 190.032l1.4387.835v-24.944l-1.4387-.834v24.943z" fill="#37474F"/><path d="M143.771 174.863l23.48-13.563v24.943l-23.48 13.551v-24.931z" fill="#263238"/><path d="M165.812 185.408v-23.274l-22.041 12.729v23.261l22.041-12.716z" fill="#E6E6E6"/><path d="M165.812 162.134v2.389l-22.041 12.716v-2.376l22.041-12.729z" fill="#E0E0E0"/><path d="M167.251 186.243l-1.439-.835-22.041 12.716v1.67l23.48-13.551zM167.251 173.771l-1.439-.834-22.041 12.715v1.67l23.48-13.551z" fill="#37474F"/><path d="M155.999 192.742l-1.438.835v-24.943l1.438-.835v24.943z" fill="#37474F"/><path d="M180.904 94.1371l23.479-13.5507V105.53l-23.479 13.551V94.1371z" fill="#263238"/><path d="M202.945 104.695V81.4214l-22.041 12.7158v23.2738l22.041-12.716z" fill="#E6E6E6"/><path d="M202.945 81.4214v2.389l-22.041 12.7158v-2.389l22.041-12.7158z" fill="#E0E0E0"/><path d="M204.383 105.53l-1.438-.835-22.041 12.716v1.67l23.479-13.551zM204.383 93.058l-1.438-.8349-22.041 12.7289v1.67l23.479-13.564z" fill="#37474F"/><path d="M193.132 112.029l-1.439.835V87.9206l1.439-.8349v24.9433zM181.341 191.124v-43.375l23.479-13.564v43.388l-23.479 13.551z" fill="#37474F"/><path d="M203.96 176.918v-42.232l-22.619 13.063v42.232l22.619-13.063z" fill="#455A64"/><path d="M204.82 134.185l-.86.501v42.232l.86.655v-43.388z" fill="#263238"/></svg>