<svg width="130" height="184" viewBox="0 0 130 184" fill="none" xmlns="http://www.w3.org/2000/svg">
<circle cx="65" cy="92" r="65" fill="#F8EBFA"/>
<path opacity="0.1" d="M91.2415 99.0955L59.4477 80.7233L42.7938 91.8662C30.9165 98.3915 31.8249 102.676 37.4494 106.529C43.0739 110.382 63.9897 119.981 63.9897 119.981V128.951L91.2415 113.236C93.5882 111.881 95.4882 108.694 95.4882 106.181C95.4882 103.668 93.5655 100.451 91.2415 99.0955Z" fill="black"/>
<path d="M88.6374 131.843C88.6374 131.843 84.6935 141.502 84.4891 145.318C84.2847 149.284 83.3233 150.617 83.997 154.916C84.1409 155.863 84.6329 157.748 84.754 158.512C84.7956 158.673 84.8012 158.841 84.7702 159.005C84.7392 159.168 84.6725 159.322 84.5748 159.457C84.4772 159.591 84.351 159.703 84.2053 159.783C84.0596 159.863 83.898 159.91 83.7321 159.92C82.0061 160.276 79.1447 157.036 77.7821 153.516C76.3872 149.451 75.2495 145.302 74.3756 141.094C74.3065 140.136 74.4947 139.176 74.9207 138.315C75.1261 137.813 75.3796 137.331 75.6777 136.877C76.253 135.151 76.5255 131.866 77.0024 129.587L88.6374 131.843Z" fill="#FFC7A7"/>
<path d="M71.007 144.72C70.7812 145.125 70.6252 145.565 70.5452 146.022C70.5074 146.779 72.2939 149.421 72.9979 150.374C73.9972 151.666 74.4607 153.292 74.2924 154.916C74.3116 157.512 75.2504 160.017 76.9418 161.987C79.192 164.707 82.2141 166.681 85.6094 167.649C89.7881 168.936 91.2642 166.839 91.2642 166.839C91.2642 166.839 92.5587 164.825 91.7789 164C90.9992 163.175 71.007 144.72 71.007 144.72Z" fill="#263238"/>
<path d="M75.7155 136.877C75.5868 136.877 75.3673 136.839 75.0342 137.233C74.9131 137.384 74.1485 139.262 73.5202 140.261C72.8919 141.26 71.2492 143.122 71.007 144.727C71.976 147.823 74.8904 149.981 75.3219 152.91C75.7534 155.84 75.8139 159.239 80.3105 162.819C84.807 166.4 89.4323 166.771 91.0977 165.847C92.7631 164.924 92.6117 163.115 90.2877 159.723C87.835 156.128 86.1772 148.323 86.1696 148.315C85.9538 147.221 85.8097 146.113 85.7382 145C85.7593 143.898 85.863 142.8 86.0485 141.714C86.1437 141.2 86.0693 140.669 85.8365 140.2C85.5234 139.795 85.0924 139.496 84.6027 139.345C83.8635 139.008 83.0891 138.754 82.2938 138.588C81.4891 138.415 80.6497 138.516 79.9093 138.876C79.387 139.156 78.963 139.633 78.3953 139.829C78.0263 139.974 77.6247 140.014 77.2346 139.944C76.8445 139.875 76.4812 139.699 76.1848 139.436C75.887 139.2 75.6696 138.877 75.5626 138.513C75.4555 138.148 75.464 137.759 75.5868 137.399C75.6197 137.223 75.6627 137.049 75.7155 136.877Z" fill="#455A64"/>
<path d="M77.6837 159.943C78.3444 158.816 79.3012 157.891 80.4502 157.269C81.5992 156.647 82.8965 156.352 84.2015 156.415C88.9781 156.415 90.6283 158.86 91.3551 160.291C92.2256 161.994 93.1264 165.083 91.1507 165.969C89.0235 166.922 86.5557 166.627 82.6799 164.682C78.8041 162.736 77.6837 159.943 77.6837 159.943Z" fill="#FAFAFA"/>
<path d="M78.5467 145.552C78.615 145.586 78.6901 145.603 78.7662 145.603C78.8423 145.603 78.9174 145.586 78.9857 145.552C79.7427 145.181 83.6261 144.364 85.9047 146.476C86.1999 146.234 86.1393 145.802 85.7608 145.197C83.0962 143.508 79.4021 144.258 78.5088 144.712C78.4546 144.741 78.4067 144.781 78.3681 144.829C78.3295 144.877 78.3008 144.932 78.2839 144.992C78.267 145.051 78.2621 145.113 78.2695 145.174C78.2769 145.235 78.2965 145.294 78.3271 145.348C78.3773 145.437 78.454 145.509 78.5467 145.552Z" fill="#FAFAFA"/>
<path d="M86.3967 149.247C86.4536 149.021 86.4579 148.786 86.4094 148.559C86.3608 148.332 86.2607 148.119 86.1167 147.937C85.0408 147.434 83.8756 147.151 82.6891 147.103C81.5026 147.055 80.3183 147.243 79.2053 147.657C79.1495 147.684 79.1 147.723 79.0601 147.771C79.0202 147.819 78.9908 147.875 78.9737 147.935C78.9566 147.994 78.9522 148.057 78.9608 148.119C78.9694 148.181 78.9908 148.24 79.0236 148.293C79.0706 148.386 79.148 148.461 79.2431 148.505C79.3115 148.538 79.3866 148.555 79.4627 148.555C79.5388 148.555 79.6138 148.538 79.6822 148.505C80.3938 148.134 84.103 147.362 86.3967 149.247Z" fill="#FAFAFA"/>
<path d="M88.3422 155.704C88.3463 155.074 88.1292 154.463 87.729 153.978C85.0796 152.38 81.4687 153.115 80.5906 153.561C80.5347 153.589 80.4853 153.628 80.4454 153.676C80.4055 153.724 80.3761 153.779 80.359 153.839C80.3419 153.899 80.3375 153.962 80.3461 154.023C80.3547 154.085 80.3761 154.144 80.4089 154.197C80.4384 154.254 80.4789 154.305 80.5281 154.346C80.5773 154.387 80.6342 154.418 80.6955 154.437C80.7568 154.456 80.8212 154.463 80.885 154.457C80.9489 154.451 81.0109 154.432 81.0675 154.402C81.8472 154.046 86.1469 153.122 88.3422 155.704Z" fill="#FAFAFA"/>
<path d="M79.9396 151.457C80.0066 151.49 80.0804 151.508 80.1553 151.508C80.2302 151.508 80.304 151.49 80.3711 151.457C81.128 151.086 84.913 150.291 87.184 152.312C87.2283 152.061 87.2152 151.804 87.1457 151.559C87.0762 151.313 86.9522 151.087 86.7828 150.897C85.7069 150.394 84.5418 150.111 83.3552 150.062C82.1687 150.014 80.9845 150.203 79.8714 150.617C79.8165 150.645 79.7679 150.685 79.7285 150.732C79.6892 150.78 79.6598 150.835 79.6421 150.894C79.6244 150.954 79.6189 151.016 79.6258 151.078C79.6327 151.139 79.6519 151.199 79.6822 151.253C79.741 151.349 79.8323 151.421 79.9396 151.457Z" fill="#FAFAFA"/>
<path d="M92.8766 143.705C92.8766 143.705 94.8296 155.492 97.0022 160.064C99.1748 164.636 100.295 166.839 103.285 170.299C103.936 171.056 105.42 172.456 105.957 173.062C106.084 173.182 106.182 173.328 106.244 173.49C106.307 173.652 106.333 173.827 106.321 174C106.309 174.174 106.258 174.343 106.173 174.494C106.088 174.646 105.97 174.777 105.829 174.878C104.496 176.15 98.8569 176.453 95.6926 174.121C92.5284 171.79 89.6367 166.703 87.7669 164.795C87.0629 164.076 86.3967 163.342 85.7609 162.57C85.125 161.797 85.3142 161.101 85.2612 160.299C85.2612 159.897 85.2612 158.785 85.2612 158.785C84.8298 156.801 83.6564 153.69 83.0357 151.76L92.8766 143.705Z" fill="#FFC7A7"/>
<path d="M84.1787 167.619C84.1438 168.1 84.1924 168.584 84.3226 169.05C84.6405 169.807 87.4944 171.495 88.5844 172.077C90.0967 172.85 91.2559 174.172 91.8244 175.772C92.8615 178.217 95.0113 180.026 97.4943 181.275C100.833 182.856 104.575 183.384 108.221 182.789C112.763 182.146 113.217 179.496 113.217 179.496C113.217 179.496 113.543 177.013 112.46 176.574C111.378 176.135 84.1787 167.619 84.1787 167.619Z" fill="#263238"/>
<path d="M85.1325 158.096C85.0114 158.149 84.7843 158.217 84.6481 158.732C84.5951 158.928 84.7162 161.048 84.5572 162.267C84.3983 163.486 83.664 166.006 84.1787 167.619C86.4497 170.117 90.1968 170.859 91.9152 173.432C93.6336 176.006 95.2081 179.201 101.06 180.586C106.911 181.971 111.461 180.253 112.611 178.61C113.762 176.968 112.823 175.348 109.114 173.175C105.178 170.904 100.129 164.227 100.121 164.22C99.4291 163.279 98.797 162.295 98.2286 161.275C97.7589 160.223 97.3667 159.137 97.0552 158.028C96.9132 157.511 96.6111 157.052 96.1922 156.718C95.7143 156.473 95.1719 156.383 94.6404 156.461C93.787 156.461 92.9363 156.557 92.1045 156.748C91.266 156.946 90.5174 157.417 89.9773 158.088C89.677 158.625 89.3486 159.146 88.9932 159.648C88.7102 159.952 88.3473 160.172 87.9457 160.28C87.5441 160.388 87.1202 160.382 86.7222 160.261C86.3286 160.179 85.9706 159.976 85.6989 159.68C85.4272 159.384 85.2555 159.01 85.2082 158.611C85.1732 158.441 85.1479 158.269 85.1325 158.096Z" fill="#455A64"/>
<path d="M97.2975 179.027C97.4215 177.665 97.915 176.363 98.7247 175.261C99.5345 174.159 100.63 173.299 101.892 172.774C106.434 170.662 109.076 172.221 110.401 173.251C111.983 174.477 114.186 176.99 112.74 178.709C111.15 180.571 108.69 181.389 104.148 181.283C99.6063 181.177 97.2975 179.027 97.2975 179.027Z" fill="#FAFAFA"/>
<path d="M91.6881 165.037C91.7667 165.037 91.8442 165.02 91.915 164.986C91.9858 164.952 92.048 164.902 92.0969 164.841C92.6268 164.152 95.9576 161.638 99.0537 162.615C99.2278 162.259 98.978 161.858 98.3497 161.472C95.0719 161.063 91.9152 163.425 91.2718 164.258C91.233 164.309 91.205 164.368 91.1897 164.431C91.1744 164.494 91.172 164.559 91.1826 164.623C91.1932 164.686 91.2166 164.747 91.2515 164.802C91.2863 164.856 91.3319 164.903 91.3853 164.939C91.4728 165.004 91.5792 165.038 91.6881 165.037Z" fill="#FAFAFA"/>
<path d="M100.765 165.03C100.72 164.79 100.62 164.564 100.472 164.37C100.325 164.175 100.135 164.018 99.9167 163.909C98.6726 163.914 97.4421 164.167 96.297 164.653C95.1518 165.139 94.1151 165.849 93.2475 166.741C93.2084 166.792 93.18 166.85 93.164 166.913C93.1481 166.975 93.145 167.04 93.1549 167.104C93.1648 167.168 93.1875 167.229 93.2217 167.283C93.2558 167.338 93.3007 167.385 93.3535 167.422C93.4443 167.486 93.5528 167.52 93.6639 167.52C93.7425 167.52 93.82 167.503 93.8908 167.469C93.9615 167.435 94.0237 167.385 94.0727 167.323C94.5874 166.657 97.7517 164.273 100.765 165.03Z" fill="#FAFAFA"/>
<path d="M105.488 170.268C105.209 169.673 104.733 169.191 104.141 168.906C100.916 168.58 97.8274 170.889 97.1991 171.707C97.1588 171.757 97.1295 171.816 97.113 171.878C97.0964 171.941 97.093 172.006 97.103 172.07C97.1129 172.134 97.136 172.196 97.1708 172.25C97.2056 172.305 97.2513 172.352 97.305 172.388C97.3925 172.453 97.4989 172.487 97.6078 172.486C97.6875 172.486 97.7662 172.469 97.8382 172.435C97.9102 172.401 97.9737 172.351 98.0242 172.289C98.5844 171.57 102.263 168.807 105.488 170.268Z" fill="#FAFAFA"/>
<path d="M95.6321 170.003C95.7119 170.005 95.7909 169.987 95.8631 169.953C95.9353 169.919 95.9987 169.869 96.0484 169.807C96.5708 169.125 99.8334 166.665 102.861 167.536C102.794 167.278 102.668 167.04 102.493 166.839C102.319 166.638 102.1 166.48 101.855 166.377C100.611 166.379 99.3797 166.629 98.2342 167.114C97.0888 167.599 96.0521 168.309 95.1855 169.201C95.1452 169.252 95.1159 169.31 95.0994 169.373C95.0828 169.435 95.0794 169.501 95.0894 169.565C95.0993 169.629 95.1224 169.69 95.1572 169.745C95.192 169.799 95.2377 169.846 95.2914 169.882C95.3859 169.964 95.5074 170.007 95.6321 170.003Z" fill="#FAFAFA"/>
<path d="M66.8814 76.6052C71.711 80.1404 88.539 89.8526 95.3671 96.1811C97.3429 98.0055 97.9939 100.413 97.5094 105.651C96.8508 112.767 91.2566 137.013 91.2566 137.013C90.4996 138.376 89.1295 135.78 89.1295 135.78L62.4757 101.934L66.8814 76.6052Z" fill="#FF80B6"/>
<path opacity="0.3" d="M66.8814 76.6052C71.711 80.1404 88.539 89.8526 95.3671 96.1811C97.3429 98.0055 97.9939 100.413 97.5094 105.651C96.8508 112.767 91.2566 137.013 91.2566 137.013C90.4996 138.376 89.1295 135.78 89.1295 135.78L62.4757 101.934L66.8814 76.6052Z" fill="black"/>
<path opacity="0.3" d="M90.0984 129.459C83.9289 124.303 64.0048 92.8654 64.0048 92.8654C66.7224 90.5945 68.1228 82.6233 68.1228 82.6233C69.1978 85.6891 68.0623 90.3144 67.222 92.0025C68.7966 93.3651 77.661 100.655 83.8154 105.53C85.704 106.822 87.0154 108.799 87.4716 111.041C88.751 117.71 90.2423 128.111 90.0984 129.459Z" fill="black"/>
<path d="M66.8814 76.6052L32.5592 84.1752C34.2322 90.4734 34.7091 93.7285 36.4653 97.0441C38.2215 100.36 40.1594 103.925 49.0844 108.323C57.6839 112.555 68.1834 116.908 70.2803 117.907C71.8624 118.664 72.6194 121.828 73.3083 125.931C74.0653 130.231 74.1258 133.599 78.3877 142.638C82.5512 151.48 83.4066 153.387 83.4066 153.387C83.4066 153.387 89.8562 154.061 94.1408 150.291C94.1408 150.291 88.2968 119.973 87.0477 114.516C86.3589 111.488 86.3437 109.852 82.5588 106.507C79.3112 103.63 64.8148 92.6611 64.8148 92.6611C64.8148 92.6611 70.5907 84.9549 66.8814 76.6052Z" fill="#FF80B6"/>
<path opacity="0.3" d="M66.8814 76.6052L32.5592 84.1752C34.2322 90.4734 34.7091 93.7285 36.4653 97.0441C38.2215 100.36 40.1594 103.925 49.0844 108.323C57.6839 112.555 68.1834 116.908 70.2803 117.907C71.8624 118.664 72.6194 121.828 73.3083 125.931C74.0653 130.231 74.1258 133.599 78.3877 142.638C82.5512 151.48 83.4066 153.387 83.4066 153.387C83.4066 153.387 89.8562 154.061 94.1408 150.291C94.1408 150.291 88.2968 119.973 87.0477 114.516C86.3589 111.488 86.3437 109.852 82.5588 106.507C79.3112 103.63 64.8148 92.6611 64.8148 92.6611C64.8148 92.6611 70.5907 84.9549 66.8814 76.6052Z" fill="black"/>
<path d="M74.7466 79.6408C68.2213 77.7861 61.2569 75.5303 56.5787 73.6983C52.3546 72.0405 51.9459 70.0875 52.9224 65.3714C54.4364 57.9755 56.6468 37.3626 56.6468 37.3626C56.6468 37.3626 67.926 36.1816 66.8738 47.8242C64.9283 54.395 63.5658 65.6439 63.5658 65.6439C63.5658 65.6439 64.9283 66.2647 67.0101 67.2866C69.8564 68.687 77.1992 72.1011 79.7427 73.0246" fill="#FFC7A7"/>
<path d="M59.1752 36.8705C60.6862 36.9356 62.1711 37.2875 63.5506 37.9076C65.7383 38.9144 66.9722 41.193 67.3356 43.4337C67.6989 45.6744 67.4188 48.8765 66.3061 53.5547C65.1933 58.2329 64.0729 62.5251 64.0729 62.5251L59.1676 59.535L59.1752 36.8705Z" fill="#37474F"/>
<path d="M31.5978 40.0045C31.0377 43.0325 28.0021 71.1245 34.4668 92.328C46.1019 93.6982 64.2773 84.6369 67.3432 76.9307C65.8486 74.8482 64.7197 72.5263 64.0048 70.0648C64.194 64.198 64.0048 53.0021 63.8837 49.5426C63.649 42.6767 62.5741 37.3701 59.1752 36.8705L48.176 36.1892L41.9384 36.9462L31.5978 40.0045Z" fill="#FF80B6"/>
<path opacity="0.7" d="M31.5978 40.0045C31.0377 43.0325 28.0021 71.1245 34.4668 92.328C46.1019 93.6982 64.2773 84.6369 67.3432 76.9307C65.8486 74.8482 64.7197 72.5263 64.0048 70.0648C64.194 64.198 64.0048 53.0021 63.8837 49.5426C63.649 42.6767 62.5741 37.3701 59.1752 36.8705L48.176 36.1892L41.9384 36.9462L31.5978 40.0045Z" fill="white"/>
<path d="M42.4607 7.18872C41.5683 7.25772 40.7064 7.54425 39.9502 8.02327C39.1941 8.50228 38.5668 9.15921 38.1231 9.93662C37.1618 11.6399 37.563 15.1902 38.3048 19.8987C38.6944 22.9317 39.4101 25.9139 40.4396 28.7934C40.818 29.6174 41.4981 30.2649 42.3396 30.6026L42.6727 25.1219L42.7938 21.337C42.7938 21.337 46.1473 22.6617 47.4569 17.1735C48.282 13.7216 47.9035 12.5558 47.9035 12.5558L42.4607 7.18872Z" fill="#263238"/>
<path d="M39.3192 4.38025L42.12 7.166C41.734 7.53568 41.2201 7.74205 40.6856 7.74205C40.151 7.74205 39.6371 7.53568 39.2511 7.166C39.0676 6.98129 38.9234 6.7614 38.8272 6.51953C38.7309 6.27767 38.6846 6.01883 38.691 5.7586C38.6973 5.49836 38.7563 5.2421 38.8642 5.00523C38.9722 4.76836 39.1269 4.55577 39.3192 4.38025Z" fill="#263238"/>
<path d="M46.1624 13.4794C45.9964 15.4996 46.4337 17.5237 47.4187 19.2954C48.4038 21.067 49.8925 22.5065 51.6961 23.4315C53.4998 24.3566 55.5375 24.7257 57.551 24.492C59.5646 24.2582 61.4635 23.4323 63.0074 22.1187C64.5513 20.8051 65.6706 19.0629 66.2237 17.1127C66.7768 15.1626 66.7388 13.0921 66.1145 11.1636C65.4901 9.23506 64.3076 7.53515 62.7165 6.27911C61.1255 5.02307 59.1975 4.26738 57.1767 4.10776C54.4743 3.89429 51.7976 4.76085 49.733 6.51751C47.6684 8.27418 46.3844 10.7777 46.1624 13.4794Z" fill="#263238"/>
<path d="M44.1034 20.9585C43.0436 21.1856 42.703 19.3385 41.9914 18.468C41.6572 18.1294 41.2533 17.8679 40.8077 17.7015C40.362 17.5352 39.8855 17.468 39.4113 17.5048C38.937 17.5415 38.4765 17.6813 38.0618 17.9143C37.6472 18.1474 37.2883 18.4681 37.0103 18.854C35.0724 21.125 36.7454 25.2355 38.5243 26.2726C41.1738 27.7866 42.65 25.1068 42.65 25.1068L41.893 37.4837C41.893 37.4837 42.4229 39.8607 47.0027 41.9197C50.5757 43.5321 56.1623 41.8213 53.0587 38.0211L53.3615 34.274C55.0847 34.7515 56.876 34.9357 58.6604 34.8191C60.5151 34.6222 62.0593 33.3051 63.1418 30.5042C65.2463 25.0387 65.4658 17.6353 63.8988 10.7769C61.2721 8.36965 54.126 9.2629 47.9111 12.5028C47.0935 20.1182 45.2995 20.7087 44.1034 20.9585Z" fill="#FFC7A7"/>
<path d="M66.5634 4.20616C66.5402 4.12835 66.4963 4.05834 66.4362 4.00365C66.3762 3.94896 66.3024 3.91167 66.2228 3.89579C66.0942 3.89633 65.9693 3.93886 65.867 4.01691C65.1179 4.519 64.3278 4.95708 63.5052 5.32651C63.7963 4.34534 63.8991 3.31792 63.808 2.29853C63.7474 1.67022 63.6944 0.224361 62.945 0.0275422C62.4908 -0.101147 62.0669 0.247081 61.696 0.534739C58.3879 3.14637 54.4969 1.47341 50.7952 1.29173C47.6991 1.13277 43.8612 2.04873 42.2109 4.95559C41.4539 6.28033 41.2268 7.71862 42.4077 8.74057C44.0975 10.1971 45.9402 11.4662 47.9035 12.5255C51.1964 13.8049 60.5756 16.0456 64.951 10.406C65.7688 9.32568 66.3749 8.10054 66.7376 6.79508C66.9293 5.95458 66.8741 5.07659 66.5786 4.26672C66.5786 4.26672 66.571 4.2213 66.5634 4.20616Z" fill="#263238"/>
<path d="M53.3917 34.274C53.3917 34.274 48.8498 32.7146 47.0784 31.352C45.9214 30.4701 45.0007 29.3154 44.3986 27.991C44.735 29.4207 45.333 30.7758 46.1624 31.9879C48.2517 34.592 53.2479 35.9773 53.2479 35.9773L53.3917 34.274Z" fill="#F29B8F"/>
<path d="M54.2774 20.8676C54.25 21.0869 54.1589 21.2932 54.0152 21.4611C53.8716 21.629 53.6818 21.7509 53.4694 21.8119C53.2571 21.8729 53.0315 21.8701 52.8207 21.804C52.6099 21.7379 52.4231 21.6113 52.2836 21.44C52.1441 21.2687 52.0579 21.0602 52.0359 20.8404C52.0138 20.6205 52.0568 20.3991 52.1596 20.2034C52.2623 20.0078 52.4202 19.8467 52.6136 19.74C52.8071 19.6334 53.0277 19.5859 53.2479 19.6034C53.5515 19.6359 53.83 19.7869 54.0228 20.0237C54.2156 20.2604 54.3071 20.5637 54.2774 20.8676Z" fill="#263238"/>
<path d="M55.6022 28.7025C55.5748 28.9217 55.4836 29.1281 55.34 29.296C55.1963 29.4639 55.0065 29.5858 54.7942 29.6468C54.5818 29.7078 54.3562 29.705 54.1454 29.6389C53.9346 29.5728 53.7478 29.4462 53.6083 29.2749C53.4688 29.1036 53.3827 28.8951 53.3606 28.6753C53.3386 28.4554 53.3816 28.234 53.4843 28.0383C53.587 27.8427 53.7449 27.6816 53.9384 27.5749C54.1319 27.4682 54.3524 27.4208 54.5726 27.4383C54.7234 27.4535 54.8696 27.4982 55.003 27.57C55.1364 27.6418 55.2543 27.7392 55.3499 27.8566C55.4456 27.9741 55.5171 28.1093 55.5604 28.2544C55.6037 28.3996 55.6179 28.5519 55.6022 28.7025Z" fill="#F29B8F"/>
<path d="M53.4371 16.9237L50.8861 17.9532C50.7529 17.608 50.7572 17.2248 50.898 16.8826C51.0388 16.5404 51.3055 16.2652 51.6431 16.1137C51.8134 16.0427 51.9966 16.0075 52.1811 16.0102C52.3657 16.0128 52.5477 16.0534 52.7159 16.1294C52.8841 16.2053 53.0349 16.315 53.159 16.4516C53.2831 16.5883 53.3777 16.7489 53.4371 16.9237Z" fill="#263238"/>
<path d="M63.808 17.9154L61.2191 16.9162C61.2765 16.7449 61.368 16.5871 61.4881 16.4521C61.6081 16.3172 61.7542 16.2079 61.9175 16.1308C62.0808 16.0537 62.2581 16.0105 62.4385 16.0036C62.619 15.9968 62.799 16.0265 62.9677 16.091C63.3145 16.23 63.5948 16.4966 63.7511 16.8359C63.9073 17.1752 63.9277 17.5615 63.808 17.9154Z" fill="#263238"/>
<path d="M62.8239 20.8146C62.7979 21.0344 62.7079 21.2417 62.565 21.4107C62.4221 21.5796 62.2326 21.7028 62.0202 21.7649C61.8078 21.827 61.5818 21.8252 61.3704 21.7598C61.159 21.6944 60.9715 21.5683 60.8313 21.3971C60.691 21.2259 60.6042 21.0173 60.5817 20.7971C60.5592 20.577 60.6019 20.3551 60.7046 20.159C60.8072 19.963 60.9653 19.8015 61.1591 19.6946C61.3528 19.5878 61.5738 19.5402 61.7944 19.558C62.0973 19.5886 62.3758 19.7381 62.5688 19.9736C62.7617 20.2092 62.8535 20.5116 62.8239 20.8146Z" fill="#263238"/>
<path d="M57.0783 25.7881L60.886 24.8873L57.4947 18.3998L57.0783 25.7881Z" fill="#F29B8F"/>
<path opacity="0.15" d="M96.4421 97.4377C96.1366 96.9764 95.7756 96.5543 95.3671 96.1811C91.2642 92.3961 83.558 87.3621 77.01 83.191L47.2071 100.398C47.1663 100.422 47.1325 100.456 47.109 100.497C47.0855 100.538 47.0731 100.585 47.0731 100.632C47.0731 100.68 47.0855 100.726 47.109 100.767C47.1325 100.808 47.1663 100.843 47.2071 100.867L68.8496 113.365L96.4421 97.4377Z" fill="black"/>
<path d="M105.473 88.6868V89.1713C105.472 89.5183 105.38 89.8589 105.206 90.1591C105.032 90.4593 104.782 90.7086 104.481 90.8821L69.8413 110.897C69.5383 111.067 69.1968 111.155 68.8496 111.154C68.5013 111.156 68.1589 111.065 67.8579 110.889L48.9709 100.027C48.6703 99.8513 48.4207 99.6006 48.2468 99.2992C48.0728 98.9978 47.9806 98.6562 47.9792 98.3082V97.6421C47.979 97.6868 47.9909 97.7308 48.0135 97.7695C48.0361 97.8081 48.0687 97.8399 48.1079 97.8616L68.842 109.837L105.473 88.6868Z" fill="#37474F"/>
<path d="M68.8496 109.83V111.147C69.1968 111.148 69.5383 111.059 69.8413 110.889L104.481 90.8821C104.784 90.711 105.035 90.4622 105.21 90.1615C105.384 89.8607 105.475 89.5189 105.473 89.1713V88.6868L68.8496 109.83Z" fill="#263238"/>
<path d="M105.473 88.6869L84.9357 76.8323C84.7565 76.7279 84.5527 76.6729 84.3453 76.6729C84.1378 76.6729 83.9341 76.7279 83.7548 76.8323L48.0928 97.4074C48.0536 97.431 48.0211 97.4643 47.9986 97.5041C47.9761 97.5439 47.9643 97.5888 47.9643 97.6346C47.9643 97.6803 47.9761 97.7252 47.9986 97.765C48.0211 97.8048 48.0536 97.8381 48.0928 97.8616L68.8269 109.83L105.473 88.6869Z" fill="#455A64"/>
<path d="M79.7503 73.0473L82.0591 73.8876C83.9668 74.584 87.9789 76.5143 88.5996 77.3546C89.2203 78.1949 92.9675 83.4106 93.4519 84.6823C93.9364 85.9541 94.2089 88.6944 91.6427 88.9972C89.3263 89.2773 87.1537 87.4832 85.5868 85.9314C84.8682 85.1766 84.2006 84.3749 83.5883 83.5317C81.7794 83.389 80.0573 82.697 78.6527 81.5484C77.4422 80.7297 76.1186 80.0921 74.7239 79.6559" fill="#FFC7A7"/>
<path d="M68.6603 108.089L57.5779 101.7L89.9773 82.9943L101.12 89.353L68.6603 108.089Z" fill="#37474F"/>
<path d="M101.113 89.353L100.696 89.5952L89.9773 83.4787L58.0018 101.942L57.5855 101.7L89.9773 82.9943L101.113 89.353Z" fill="#263238"/>
<path d="M63.2175 90.3144L63.4219 90.4279L68.8496 93.5619L78.5088 87.9904L78.7057 87.8768L73.0736 84.6218L63.2175 90.3144Z" fill="#263238"/>
<path d="M63.4219 90.4279L68.8496 93.5619L78.5088 87.9904L73.0736 84.8564L63.4219 90.4279Z" fill="#37474F"/>
<path d="M69.4098 110.14C69.7371 110.266 70.0886 110.318 70.4384 110.29C70.7882 110.263 71.1273 110.157 71.4309 109.981L105.927 90.0646C106.226 89.8936 106.483 89.6581 106.68 89.3753C106.876 89.0924 107.007 88.7693 107.063 88.4295L110.848 65.9089C110.859 65.7805 110.859 65.6513 110.848 65.5228C110.848 65.2136 110.787 64.9074 110.669 64.6216C110.551 64.3359 110.377 64.0762 110.159 63.8574L74.3075 84.5537C74.0867 84.681 73.8969 84.8557 73.7516 85.0651C73.6063 85.2745 73.5092 85.5135 73.4672 85.7649L69.4098 110.14Z" fill="#37474F"/>
<path d="M68.8496 109.83L69.0843 109.966C69.1889 110.026 69.2977 110.08 69.4098 110.125L73.49 85.7497C73.5319 85.4983 73.629 85.2593 73.7743 85.0499C73.9196 84.8405 74.1094 84.6658 74.3302 84.5385L110.166 63.8422C110.023 63.6982 109.86 63.5757 109.682 63.4789L73.7625 84.213C73.5427 84.3415 73.3536 84.5165 73.2085 84.7257C73.0634 84.9349 72.9656 85.1733 72.9222 85.4242L68.8496 109.83Z" fill="#455A64"/>
<path d="M73.8306 85.0003L73.278 84.6747C73.107 84.8962 72.9927 85.1561 72.9449 85.4317L68.8571 109.837L69.0918 109.974C69.1965 110.034 69.3053 110.087 69.4173 110.133L73.4975 85.7573C73.5453 85.4816 73.6596 85.2217 73.8306 85.0003Z" fill="#263238"/>
<path d="M88.8343 89.3379C89.0916 87.8239 90.6435 85.8254 92.3089 84.864C93.9743 83.9026 95.1249 84.3417 94.8751 85.8481C94.6253 87.3546 93.0659 89.3606 91.3929 90.322C89.7199 91.2834 88.5844 90.8443 88.8343 89.3379Z" fill="#FF80B6"/>
<path d="M20.9318 85.2576C16.3368 83.8951 16.7304 80.6702 17.4117 75.9239C18.6911 67.0973 21.2648 54.4555 22.5669 49.0203C23.9749 43.1611 27.3738 41.4503 32.9453 39.9893C36.2988 43.8878 32.9453 56.9839 32.9453 56.9839L29.5842 76.204C29.5842 76.204 47.472 83.3122 50.3108 84.3568C52.2184 85.0533 56.2305 86.9836 56.8588 87.8238C57.4871 88.6641 61.2191 93.8798 61.7111 95.1516C62.2031 96.4233 62.4681 99.1636 59.9019 99.4664C57.5855 99.7465 55.4129 97.9524 53.8459 96.4385C53.1236 95.685 52.4534 94.8833 51.8399 94.0388C49.8232 93.3709 47.9324 92.3705 46.2457 91.0789C46.2457 91.0789 25.7538 86.6732 20.9318 85.2576Z" fill="#FFC7A7"/>
<path d="M33.2632 39.52C33.2632 39.52 28.3655 39.8758 26.0491 42.389C23.0892 45.5911 22.3928 47.9378 21.2497 53.7894C20.4397 57.9453 18.3958 67.8544 18.3958 67.8544C20.1389 69.1985 22.1533 70.1479 24.2995 70.6367C26.4457 71.1255 28.6724 71.1422 30.8257 70.6855L33.7099 58.0891C34.6088 56.1325 35.3504 54.1075 35.9278 52.0332C37.2829 46.3557 35.5872 41.4958 33.2632 39.52Z" fill="#37474F"/>
<path d="M96.495 52.4344L94.2695 48.233L96.0711 43.04V39.8607L90.5602 43.04V46.2118L92.9296 50.3148C92.9669 50.3776 93.0223 50.4277 93.0886 50.4586L96.495 52.4344Z" fill="#FF80B6"/>
<path opacity="0.2" d="M96.495 52.4344L94.2695 48.233L96.0711 43.04V39.8607L90.5602 43.04V46.2118L92.9296 50.3148C92.9669 50.3776 93.0223 50.4277 93.0886 50.4586L96.495 52.4344Z" fill="black"/>
<path d="M109.644 14.5847C109.615 14.0123 109.45 13.4551 109.163 12.9589C108.876 12.4628 108.475 12.0419 107.994 11.7309L107.343 11.3675C106.832 11.1064 106.266 10.9702 105.693 10.9702C105.119 10.9702 104.553 11.1064 104.042 11.3675L83.4293 23.2826C82.9525 23.5932 82.555 24.0109 82.2684 24.5025C81.9819 24.9941 81.8143 25.5459 81.779 26.1138V48.8236C81.8097 49.3968 81.9751 49.9546 82.2618 50.4518C82.5486 50.949 82.9485 51.3715 83.4293 51.6851L84.0803 52.0484C84.5923 52.306 85.1574 52.4402 85.7306 52.4402C86.3037 52.4402 86.8688 52.306 87.3808 52.0484L94.0121 48.218L96.3739 52.3058C96.4067 52.3652 96.4562 52.4137 96.5162 52.4454C96.5762 52.477 96.6442 52.4905 96.7117 52.484C96.7793 52.4776 96.8434 52.4516 96.8964 52.4092C96.9494 52.3667 96.9888 52.3098 97.0098 52.2453L99.5079 45.0387L107.994 40.1258C108.475 39.8131 108.876 39.3908 109.163 38.8934C109.45 38.396 109.615 37.8377 109.644 37.2643V14.5847Z" fill="#FF80B6"/>
<path opacity="0.2" d="M81.7791 48.8235C81.8097 49.3966 81.9751 49.9544 82.2618 50.4516C82.5486 50.9488 82.9486 51.3714 83.4293 51.6849L84.0803 52.0483C84.5469 52.2836 85.0583 52.4167 85.5804 52.4389C86.1025 52.4611 86.6234 52.3718 87.1083 52.177C86.3513 52.4722 85.7381 52.0331 85.7381 51.0945V28.3846C85.7613 27.8102 85.9278 27.2506 86.2226 26.7571L82.2711 24.4861C81.973 24.9782 81.8062 25.5386 81.7866 26.1136L81.7791 48.8235Z" fill="black"/>
<path opacity="0.3" d="M109.591 14.1152C109.402 13.4188 108.758 13.1917 108.001 13.6308L87.3808 25.561C86.8916 25.8583 86.4915 26.282 86.2226 26.7873L82.2635 24.5164C82.5415 24.0131 82.9426 23.5885 83.4293 23.2824L104.035 11.3598C104.548 11.1021 105.114 10.9679 105.689 10.9679C106.263 10.9679 106.829 11.1021 107.343 11.3598L108.001 11.7231C108.415 11.9932 108.769 12.3446 109.042 12.7558C109.315 13.167 109.502 13.6296 109.591 14.1152Z" fill="white"/>
</svg>
