<svg width="440" height="440" viewBox="0 0 440 440" fill="none" xmlns="http://www.w3.org/2000/svg">
<path d="M82.8968 432.215C37.4596 432.215 0.625427 426.749 0.625427 420.006C0.625427 413.263 37.4596 407.797 82.8968 407.797C128.334 407.797 165.168 413.263 165.168 420.006C165.168 426.749 128.334 432.215 82.8968 432.215Z" fill="#3F7DC2"/>
<path d="M217.111 408.148C157.126 408.148 108.499 404.569 108.499 400.153C108.499 395.738 157.126 392.159 217.111 392.159C277.096 392.159 325.724 395.738 325.724 400.153C325.724 404.569 277.096 408.148 217.111 408.148Z" fill="#3F7DC2"/>
<path d="M295.659 130.07L357.405 122V371.656L295.659 379.725V130.07Z" fill="#37474F"/>
<path d="M172.158 130.07L233.904 122V371.656L172.158 379.725V130.07Z" fill="#263238"/>
<path d="M295.659 130.07L233.904 122V371.656L295.659 379.725V130.07Z" fill="#263238"/>
<path d="M172.158 130.07L110.411 122V371.656L172.158 379.725V130.07Z" fill="#37474F"/>
<path d="M295.659 135.383L351.514 128.147V365.897L295.659 373.133V135.383Z" fill="#DBDBDB"/>
<path d="M172.158 135.829L233.904 128.147V365.897L172.158 373.578V135.829Z" fill="#DBDBDB"/>
<path d="M295.659 135.611L233.904 128.365V366.124L295.659 373.361V135.611Z" fill="#EBEBEB"/>
<path d="M172.158 135.829L116.303 128.147V365.897L172.158 373.578V135.829Z" fill="#EBEBEB"/>
<path d="M165.632 134.939L160.649 151.997L159.475 156.023L147.152 198.068L146.432 199.735L142.824 198.371L116.303 188.368V183.888L144.263 194.449L161.824 134.408L165.632 134.939Z" fill="white"/>
<path d="M223.352 129.464L221.089 130.837L217.149 133.205L192.513 148.076L189.169 150.102L172.376 160.237L172.158 160.171L159.475 156.022L157.723 155.454L158.774 151.381L160.65 151.997L171.94 155.691L172.158 155.558L213.312 130.714V130.704H213.322L217.461 130.202L219.63 129.928H219.649L223.352 129.464Z" fill="white"/>
<path d="M283.839 134.228L280.628 147.621L279.548 152.149L261.76 226.075L260.785 230.177L260.775 230.224L247.581 225.1L243.016 223.215L233.847 219.426L232.71 218.953L230.854 216.026L189.169 150.103L188.203 148.578L191.281 146.125L192.512 148.076L210.925 177.192L213.407 181.123L235.107 215.429L258.199 224.655L270.124 175.146L271.185 170.723L280.05 133.773L283.839 134.228Z" fill="white"/>
<path d="M272.975 172.266L270.682 175.629L270.124 175.146L233.904 143.974L232.862 143.074L230.598 141.644L227.302 139.579L217.148 133.205L216.248 132.637L217.461 130.202L219.63 129.928H219.649L221.089 130.837L233.904 138.907L235.04 139.617L271.184 170.722L272.975 172.266Z" fill="white"/>
<path d="M351.504 188.7V193.284L341.692 188.69L338.178 187.033L294.655 166.621L279.548 152.148L277.076 149.781L279.51 146.551L280.628 147.621L296.654 162.965L351.504 188.7Z" fill="white"/>
<path d="M315.256 305.818L311.6 304.776L338.576 185.262L342.232 186.304L315.256 305.818Z" fill="white"/>
<path d="M351.505 290.123V294.556L305.52 310.667L301.864 311.955H301.854L296.569 313.802L239.881 366.816L234.643 366.2L254.202 347.92L258.133 344.235L275.371 328.124L278.478 325.225L294.741 310.014L311.771 304.047L315.995 302.559L351.505 290.123Z" fill="white"/>
<path d="M295.432 243.674L258.852 229.495L260.064 225.488L295.877 239.374L328.431 235.945L328.782 240.16L295.432 243.674Z" fill="white"/>
<path d="M212.914 182.259L209.533 180.393L228.088 137.78L231.469 139.646L212.914 182.259Z" fill="white"/>
<path d="M258.956 344.368L258.454 348.554L254.202 347.919L233.156 344.765L171.968 323.416L116.303 329.592V325.329L153.972 321.152L158.916 320.612L172.357 319.116L172.716 319.249L207.667 331.439L211.617 332.812L233.97 340.607L258.132 344.235L258.956 344.368Z" fill="white"/>
<path d="M129.696 238.246L116.303 269.067V259.406L142.824 198.37L143.771 196.201L147.152 198.067L146.432 199.734L131.505 234.088L129.696 238.246Z" fill="white"/>
<path d="M159.541 321.275L156.955 324.344L153.972 321.152L116.303 280.935V275.091L145.599 306.386L148.611 309.587L158.916 320.612L159.541 321.275Z" fill="white"/>
<path d="M172.395 240.444L128.465 238.171L128.635 233.937L171.921 236.182L233.355 215.164L234.453 219.218L172.395 240.444Z" fill="white"/>
<path d="M148.223 310.876L144.652 309.512L166.626 237.101L170.197 238.474L148.223 310.876Z" fill="white"/>
<path d="M351.505 258.497V262.769L325.704 259.548L324.065 259.34L324.482 255.135L326.632 255.4L351.505 258.497Z" fill="white"/>
<path d="M275.797 329.506L242.713 222.268L246.274 220.875L279.359 328.114L275.797 329.506Z" fill="white"/>
<path d="M209.675 335.275L206.862 332.452L232.72 299.86L262.622 281.4L264.431 285.113L235.097 303.222L209.675 335.275Z" fill="white"/>
<path d="M283.839 134.228L280.628 147.621L279.548 152.149L261.76 226.075L260.785 230.177L260.775 230.224L247.581 225.1L243.016 223.215L233.847 219.426L232.71 218.953L230.854 216.026L189.169 150.103L188.203 148.578L191.281 146.125L192.512 148.076L210.925 177.192L213.407 181.123L235.107 215.429L258.199 224.655L270.124 175.146L271.185 170.723L280.05 133.773L283.839 134.228Z" fill="white"/>
<path d="M295.432 243.674L258.852 229.495L260.064 225.488L295.877 239.374L328.431 235.945L328.782 240.16L295.432 243.674Z" fill="white"/>
<path d="M258.956 344.368L258.454 348.564L254.192 347.919L233.156 344.765L208.936 336.317H208.917L184.244 327.697L171.968 323.416L116.303 329.592V325.329L153.972 321.152L158.926 320.612L172.347 319.116L172.726 319.249L184.244 323.274L207.667 331.439L211.617 332.812H211.626L211.683 332.84L233.97 340.607L258.132 344.235L258.956 344.368Z" fill="white"/>
<path d="M279.359 328.114L275.797 329.497L262.471 286.325V286.315L261.22 282.262L243.006 223.215L242.713 222.268L243.158 222.088L246.274 220.875L247.581 225.1L265.824 284.251L279.359 328.114Z" fill="white"/>
<path d="M264.431 285.103V285.113L262.47 286.325L235.097 303.222L211.626 332.812L209.675 335.275L206.862 332.462L207.667 331.439L232.72 299.86L261.22 282.262L262.622 281.4L264.431 285.103Z" fill="white"/>
<path d="M331.984 368.426L327.977 368.947L301.864 311.955H301.854L301.134 310.364L304.487 308.422L305.52 310.667L331.984 368.426Z" fill="white"/>
<path d="M187.976 223.916L220.066 212.938L199.095 179.777L181.459 185.697L187.976 223.916Z" fill="#EBEBEB"/>
<path d="M304.61 229.201L322.938 227.269L331.311 190.793L311.562 181.53L304.61 229.201Z" fill="#EBEBEB"/>
<path d="M351.505 178.129L310.265 159.764V133.489L351.514 128.147L351.505 178.129Z" fill="#EBEBEB"/>
<path d="M177.007 163.761L187.274 157.566L196.462 172.153L180.085 177.75L177.007 163.761Z" fill="#EBEBEB"/>
<path d="M244.039 306.509L260.775 296.175L269.735 325.235L257.754 336.44L244.039 334.384V306.509Z" fill="#DBDBDB"/>
<path d="M242.987 137.193V129.397L276.223 133.328L269.773 160.237L242.987 137.193Z" fill="#DBDBDB"/>
<path d="M122.545 270.479L143.894 293.277L157.685 247.642L132.944 246.364L122.545 270.479Z" fill="#DBDBDB"/>
<path d="M122.185 178.849V141.73L152.343 146.068L140.702 185.849L122.185 178.849Z" fill="#DBDBDB"/>
<path d="M122.185 137.183L152.343 141.521L154.739 133.432L122.185 128.952V137.183Z" fill="#DBDBDB"/>
<path d="M178.456 367.299V332.518L200.573 340.276V364.542L178.456 367.299Z" fill="#EBEBEB"/>
<path d="M121.01 335.227L138.202 333.314V363.804L121.01 361.436V335.227Z" fill="#DBDBDB"/>
<path d="M337.363 360.706L318.183 318.86L351.504 307.182L351.514 358.869L337.363 360.706Z" fill="#EBEBEB"/>
<path d="M290.63 229.068V207.946L271.506 201.259L266.988 220.08L290.63 229.068Z" fill="#DBDBDB"/>
<path d="M247.581 225.109L265.833 284.26L264.431 285.113L262.48 286.316V286.325L235.097 303.223L211.692 332.841L208.936 336.317H208.917L184.243 327.697V323.274L207.667 331.448L232.72 299.86L261.22 282.262L242.996 223.215H243.006L243.157 222.097L243.593 218.82V218.792L258.208 224.607L264.507 198.446L268.078 199.839L260.775 230.224L247.581 225.109Z" fill="#70ABED"/>
<path d="M280.211 174C279.501 166.811 274.528 159.641 265.824 159.641C257.119 159.641 252.156 166.811 251.436 174C250.338 185.11 257.83 195.179 265.824 204.357C273.827 195.179 281.32 185.11 280.211 174ZM265.824 181.994C264.266 181.992 262.743 181.528 261.448 180.661C260.154 179.794 259.145 178.563 258.55 177.123C257.955 175.682 257.8 174.098 258.105 172.57C258.411 171.042 259.162 169.639 260.264 168.538C261.367 167.437 262.771 166.687 264.299 166.384C265.828 166.08 267.412 166.237 268.851 166.834C270.291 167.43 271.521 168.441 272.386 169.736C273.252 171.032 273.714 172.555 273.714 174.113C273.715 175.149 273.512 176.176 273.116 177.133C272.719 178.09 272.138 178.96 271.405 179.692C270.672 180.424 269.802 181.004 268.844 181.399C267.886 181.794 266.86 181.996 265.824 181.994V181.994Z" fill="#263238"/>
<path d="M198.641 297.416C197.921 290.218 192.958 283.048 184.244 283.048C175.53 283.048 170.576 290.218 169.856 297.416C168.757 308.526 176.249 318.585 184.244 327.726C192.247 318.585 199.739 308.526 198.641 297.416ZM184.244 305.401C182.685 305.399 181.163 304.935 179.868 304.068C178.573 303.201 177.565 301.97 176.97 300.53C176.375 299.089 176.22 297.505 176.525 295.977C176.83 294.449 177.582 293.046 178.684 291.945C179.787 290.843 181.191 290.094 182.719 289.791C184.247 289.487 185.832 289.644 187.271 290.241C188.71 290.837 189.941 291.847 190.806 293.143C191.672 294.439 192.133 295.962 192.133 297.52C192.135 298.556 191.931 299.582 191.535 300.54C191.139 301.497 190.558 302.367 189.825 303.099C189.092 303.831 188.221 304.411 187.264 304.806C186.306 305.201 185.28 305.403 184.244 305.401V305.401Z" fill="#263238"/>
<path d="M115.13 199.717C114.907 200.205 114.663 200.733 114.389 201.169C113.691 202.366 112.83 203.46 111.83 204.419C109.25 206.996 106.179 209.028 102.798 210.395C99.418 211.763 95.7975 212.438 92.1514 212.379C89.9825 212.345 87.8252 212.055 85.7239 211.516C80.933 210.311 76.5466 207.859 73.0109 204.409C71.3462 202.789 69.9267 200.935 68.797 198.905C63.1232 188.562 60.8194 176.706 62.207 164.99C62.207 164.767 62.2578 164.554 62.2882 164.33C62.2832 164.256 62.2832 164.181 62.2882 164.107C62.2882 164.107 62.2882 164.036 62.2882 163.995C62.2882 163.711 62.3694 163.427 62.4101 163.142C63.0333 158.831 64.1508 154.606 65.7406 150.551C65.7406 150.551 65.7406 150.551 65.7406 150.5C66.3295 149.038 66.9591 147.637 67.6496 146.286C68.4387 144.731 69.3167 143.222 70.2795 141.768C74.1177 135.99 84.0891 133.188 90.4557 137.96C94.7509 141.169 96.4263 145.698 97.4316 150.47C97.6753 151.597 97.8682 152.734 98.0611 153.882C98.2947 155.273 98.5079 156.664 98.7414 158.025C98.8836 158.837 99.0359 159.649 99.2187 160.441C99.2187 160.441 99.2187 160.533 99.2187 160.573C100.285 165.396 101.25 169.519 104.712 172.982C107.758 176.028 111.109 178.78 113.333 182.476C116.176 186.974 117.699 193.828 115.13 199.717Z" fill="#263238"/>
<path d="M117.963 189.401C117.222 184.903 114.673 181.217 111.414 178.15C109.281 176.343 107.301 174.363 105.494 172.23C103.884 170.041 102.602 167.63 101.686 165.072C99.4116 159.04 98.5485 152.592 96.2232 146.581C96.2232 146.5 96.0912 146.581 96.1115 146.581C99.3507 155.72 99.5944 166.524 106.347 174.119C109.545 177.724 113.597 180.404 115.78 184.831C117.963 189.259 118.349 194.254 115.861 198.489C113.374 202.723 108.753 205.231 104.093 206.612C103.94 206.663 104.011 206.927 104.164 206.886C112.318 205.028 119.436 198.326 117.963 189.401Z" fill="#263238"/>
<path d="M97.0455 211.709C95.5382 212.023 94.0117 212.237 92.4762 212.349C87.5025 212.823 82.4912 211.994 77.9355 209.942C76.5278 209.262 75.1998 208.427 73.9754 207.455C70.4814 204.611 67.7289 200.963 65.9537 196.823C63.6798 191.545 62.2673 185.937 61.7701 180.211C61.2064 174.559 61.3908 168.858 62.3185 163.254C62.6637 161.223 63.1105 159.121 63.6588 157.1C64.7401 153.071 66.2374 149.164 68.1266 145.444C68.1876 145.332 68.3703 145.444 68.3196 145.525L67.9845 146.236C67.6697 146.916 67.3752 147.596 67.0808 148.266C65.0471 153.006 63.5913 157.973 62.745 163.061C62.745 163.345 62.6434 163.63 62.6028 163.924C62.6028 163.924 62.6028 163.995 62.6028 164.036C62.5979 164.11 62.5979 164.185 62.6028 164.259C62.5419 164.635 62.4911 165.021 62.4505 165.407C61.0797 176.403 62.3083 188.629 67.5275 198.458C67.69 198.753 67.8525 199.047 68.0251 199.331C70.6652 204.193 74.9056 207.992 80.0272 210.085C81.9545 210.806 83.9692 211.267 86.0182 211.455C89.666 211.729 93.3299 211.709 96.9744 211.394C96.9951 211.39 97.0165 211.389 97.0374 211.393C97.0583 211.396 97.0782 211.404 97.0961 211.415C97.114 211.427 97.1296 211.441 97.1418 211.459C97.154 211.476 97.1627 211.496 97.1674 211.516C97.172 211.537 97.1726 211.558 97.169 211.579C97.1654 211.6 97.1577 211.62 97.1464 211.638C97.1351 211.656 97.1203 211.671 97.103 211.684C97.0857 211.696 97.0662 211.705 97.0455 211.709V211.709Z" fill="#263238"/>
<path d="M110.5 175.885C108.567 174.503 106.706 173.022 104.926 171.448C103.081 169.441 101.723 167.037 100.956 164.421C99.1278 159.202 97.5539 153.851 96.0816 148.52H96.0308C97.4016 153.526 98.6607 158.552 100.255 163.497C100.87 165.732 101.796 167.868 103.007 169.844C104.242 171.519 105.741 172.983 107.444 174.18C111.13 177.013 114.613 179.998 116.918 184.1C119.395 188.497 120.147 193.777 118.014 198.458H118.075C122.228 190.101 117.111 181.206 110.5 175.885Z" fill="#263238"/>
<path d="M70.6652 169.539C64.6641 173.083 42.386 195.371 41.0051 208.785C39.4515 223.782 47.8591 246.213 49.6563 248.63C51.9715 251.747 71.0713 244.761 70.655 239.938C70.127 233.906 62.481 213.821 63.1207 210.217C64.1361 204.754 72.0055 186.273 77.1537 174.677C80.139 168.006 75.2853 166.808 70.6652 169.539Z" fill="#F7A9A0"/>
<path d="M49.6564 248.63C50.1743 250.508 53.5251 262.602 55.1193 265.607C56.7135 268.613 61.9429 276.96 64.3697 275.964C66.7965 274.969 65.4663 272.421 65.4663 272.421C65.4663 272.421 68.2384 275.589 70.5434 274.37C72.8483 273.152 70.6855 269.232 70.6855 269.232C70.6855 269.232 73.7317 272.279 76.0266 270.898C78.3214 269.517 75.4072 265.942 75.4072 265.942C75.4072 265.942 78.098 268.867 79.4688 266.958C81.1341 264.643 75.5798 259.85 74.0668 256.367C73.7216 255.575 68.2282 239.958 68.2282 239.958L49.6564 248.63Z" fill="#F7A9A0"/>
<path d="M75.2241 266.358C71.1624 262.805 69.9744 260.54 68.4512 255.443C68.4512 255.421 68.4427 255.401 68.4274 255.385C68.4122 255.37 68.3915 255.362 68.37 255.362C68.3484 255.362 68.3278 255.37 68.3126 255.385C68.2973 255.401 68.2888 255.421 68.2888 255.443C69.3042 260.52 70.3806 263.566 75.0617 266.531C75.2851 266.734 75.417 266.531 75.2241 266.358Z" fill="#263238"/>
<path d="M70.5839 269.608C66.6746 265.546 65.385 263.109 63.3948 257.88C63.3948 257.809 63.2424 257.88 63.2628 257.88C64.7859 263.17 65.913 266.186 70.3707 269.74C70.5534 269.933 70.7667 269.78 70.5839 269.608Z" fill="#263238"/>
<path d="M64.8977 272.248C61.3946 268.044 59.8207 265.424 58.5819 260.063C58.5752 260.043 58.5623 260.025 58.545 260.012C58.5277 260 58.5068 259.993 58.4855 259.993C58.4641 259.993 58.4432 260 58.4259 260.012C58.4086 260.025 58.3957 260.043 58.389 260.063C58.8265 264.804 61.1138 269.181 64.7556 272.248C65.0094 272.573 65.111 272.512 64.8977 272.248Z" fill="#263238"/>
<path d="M69.812 235.846C71.9794 238.286 73.9648 240.882 75.7522 243.613C77.2246 246.284 79.0421 258.246 76.4732 258.784C73.1731 259.484 70.7564 252.783 70.005 249.34C70.005 249.34 62.3589 250.965 59.5868 246.528C56.8148 242.09 69.812 235.846 69.812 235.846Z" fill="#F7A9A0"/>
<path d="M75.5188 258.682C72.0359 257.138 71.3454 252.589 70.3706 249.279C70.3565 249.231 70.3313 249.186 70.2969 249.149C70.2626 249.112 70.2201 249.083 70.1728 249.066C70.1254 249.048 70.0746 249.041 70.0244 249.047C69.9741 249.052 69.9258 249.069 69.8833 249.096C66.634 249.564 61.9123 249.269 59.5464 246.73C59.5318 246.719 59.5137 246.713 59.4952 246.714C59.4768 246.714 59.459 246.721 59.4448 246.732C59.4306 246.744 59.4208 246.761 59.4171 246.779C59.4134 246.797 59.4161 246.816 59.4246 246.832C61.5874 249.878 66.2075 250.569 69.731 249.878C70.6854 253.26 71.579 257.819 75.4985 258.763C75.5289 258.722 75.5391 258.692 75.5188 258.682Z" fill="#263238"/>
<path d="M40.2129 217.639C40.9106 225.42 42.2694 233.128 44.2745 240.679L70.6752 231.388C70.6752 231.388 63.943 214.309 63.7805 211.496C63.547 207.434 69.152 194.417 74.95 181.927C79.7021 171.773 79.8138 165.965 73.63 168.006C71.7338 168.7 69.9298 169.624 68.2585 170.758C56.9062 178.028 43.6145 196.021 40.7815 206.855C40.0539 210.401 39.8622 214.036 40.2129 217.639V217.639Z" fill="#FF006D"/>
<path d="M71.386 176.891C71.384 176.986 71.4103 177.079 71.4615 177.159C71.5127 177.238 71.5865 177.301 71.6735 177.339C71.7605 177.376 71.8567 177.387 71.95 177.37C72.0432 177.353 72.1292 177.308 72.197 177.242C72.2647 177.176 72.3112 177.091 72.3305 176.998C72.3497 176.905 72.3409 176.808 72.3051 176.721C72.2693 176.633 72.2081 176.558 72.1294 176.505C72.0507 176.452 71.9581 176.424 71.8632 176.424C71.7384 176.424 71.6185 176.472 71.5293 176.56C71.4401 176.647 71.3887 176.766 71.386 176.891V176.891ZM63.6385 176.424C63.7333 176.424 63.8259 176.452 63.9046 176.505C63.9833 176.558 64.0444 176.633 64.0802 176.721C64.1161 176.808 64.1249 176.905 64.1056 176.998C64.0864 177.091 64.0399 177.176 63.9721 177.242C63.9044 177.308 63.8184 177.353 63.7252 177.37C63.6319 177.387 63.5357 177.376 63.4487 177.339C63.3616 177.301 63.2878 177.238 63.2366 177.159C63.1854 177.079 63.1592 176.986 63.1612 176.891C63.1639 176.766 63.2153 176.647 63.3045 176.56C63.3937 176.472 63.5136 176.424 63.6385 176.424V176.424ZM75.9757 170.331C76.0701 170.331 76.1623 170.359 76.2408 170.412C76.3193 170.464 76.3804 170.539 76.4166 170.626C76.4527 170.713 76.4622 170.809 76.4437 170.902C76.4253 170.994 76.3799 171.079 76.3131 171.146C76.2464 171.213 76.1613 171.258 76.0688 171.276C75.9762 171.295 75.8802 171.285 75.793 171.249C75.7058 171.213 75.6313 171.152 75.5788 171.074C75.5264 170.995 75.4984 170.903 75.4984 170.808C75.4897 170.741 75.4956 170.672 75.5157 170.607C75.5357 170.542 75.5695 170.482 75.6147 170.431C75.6599 170.38 75.7155 170.339 75.7778 170.311C75.8401 170.284 75.9075 170.27 75.9757 170.27V170.331ZM63.6385 188.781C63.7328 188.781 63.8251 188.809 63.9036 188.862C63.9821 188.914 64.0432 188.989 64.0793 189.076C64.1155 189.163 64.1249 189.259 64.1065 189.351C64.0881 189.444 64.0427 189.529 63.9759 189.596C63.9092 189.663 63.8241 189.708 63.7315 189.726C63.639 189.745 63.543 189.735 63.4558 189.699C63.3686 189.663 63.2941 189.602 63.2416 189.524C63.1892 189.445 63.1612 189.353 63.1612 189.258C63.1585 189.194 63.1688 189.13 63.1915 189.07C63.2143 189.009 63.249 188.954 63.2936 188.908C63.3382 188.861 63.3917 188.824 63.451 188.799C63.5102 188.774 63.574 188.761 63.6385 188.761V188.781ZM55.4136 188.781C55.508 188.781 55.6003 188.809 55.6788 188.862C55.7572 188.914 55.8184 188.989 55.8545 189.076C55.8906 189.163 55.9001 189.259 55.8817 189.351C55.8633 189.444 55.8178 189.529 55.7511 189.596C55.6843 189.663 55.5993 189.708 55.5067 189.726C55.4141 189.745 55.3182 189.735 55.231 189.699C55.1438 189.663 55.0692 189.602 55.0168 189.524C54.9644 189.445 54.9364 189.353 54.9364 189.258C54.9336 189.194 54.944 189.13 54.9667 189.07C54.9895 189.009 55.0242 188.954 55.0688 188.908C55.1134 188.861 55.1669 188.824 55.2262 188.799C55.2855 188.774 55.3492 188.761 55.4136 188.761V188.781ZM67.7509 182.689C67.8457 182.689 67.9383 182.717 68.017 182.77C68.0957 182.823 68.1568 182.898 68.1926 182.986C68.2284 183.074 68.2373 183.17 68.2181 183.263C68.1988 183.356 68.1523 183.441 68.0846 183.507C68.0168 183.573 67.9308 183.618 67.8376 183.635C67.7444 183.652 67.6481 183.642 67.5611 183.604C67.4741 183.566 67.4003 183.503 67.3491 183.424C67.2979 183.344 67.2716 183.251 67.2736 183.156C67.2706 183.089 67.2818 183.022 67.3064 182.959C67.331 182.897 67.3684 182.841 67.4163 182.794C67.4642 182.747 67.5215 182.71 67.5844 182.687C67.6473 182.664 67.7144 182.654 67.7813 182.658L67.7509 182.689ZM59.526 182.689C59.6208 182.689 59.7135 182.717 59.7922 182.77C59.8709 182.823 59.932 182.898 59.9678 182.986C60.0036 183.074 60.0125 183.17 59.9932 183.263C59.974 183.356 59.9275 183.441 59.8597 183.507C59.792 183.573 59.706 183.618 59.6128 183.635C59.5195 183.652 59.4233 183.642 59.3363 183.604C59.2493 183.566 59.1754 183.503 59.1242 183.424C59.073 183.344 59.0468 183.251 59.0488 183.156C59.046 183.091 59.0564 183.027 59.0791 182.967C59.1019 182.907 59.1366 182.852 59.1812 182.805C59.2258 182.759 59.2793 182.722 59.3386 182.696C59.3978 182.671 59.4616 182.658 59.526 182.658V182.689ZM63.6385 201.129C63.7328 201.129 63.8251 201.157 63.9036 201.209C63.9821 201.261 64.0432 201.336 64.0793 201.423C64.1155 201.51 64.1249 201.606 64.1065 201.699C64.0881 201.791 64.0427 201.876 63.9759 201.943C63.9092 202.01 63.8241 202.055 63.7315 202.074C63.639 202.092 63.543 202.083 63.4558 202.047C63.3686 202.011 63.2941 201.949 63.2416 201.871C63.1892 201.792 63.1612 201.7 63.1612 201.606C63.157 201.541 63.1663 201.475 63.1884 201.414C63.2105 201.352 63.245 201.296 63.2897 201.248C63.3345 201.201 63.3885 201.163 63.4485 201.137C63.5085 201.111 63.5731 201.098 63.6385 201.098V201.129ZM55.4136 201.129C55.508 201.129 55.6003 201.157 55.6788 201.209C55.7572 201.261 55.8184 201.336 55.8545 201.423C55.8906 201.51 55.9001 201.606 55.8817 201.699C55.8633 201.791 55.8178 201.876 55.7511 201.943C55.6843 202.01 55.5993 202.055 55.5067 202.074C55.4141 202.092 55.3182 202.083 55.231 202.047C55.1438 202.011 55.0692 201.949 55.0168 201.871C54.9644 201.792 54.9364 201.7 54.9364 201.606C54.9322 201.541 54.9415 201.475 54.9636 201.414C54.9857 201.352 55.0202 201.296 55.0649 201.248C55.1097 201.201 55.1637 201.163 55.2237 201.137C55.2837 201.111 55.3483 201.098 55.4136 201.098V201.129ZM47.1888 201.129C47.2832 201.129 47.3755 201.157 47.4539 201.209C47.5324 201.261 47.5936 201.336 47.6297 201.423C47.6659 201.51 47.6753 201.606 47.6569 201.699C47.6385 201.791 47.593 201.876 47.5263 201.943C47.4595 202.01 47.3745 202.055 47.2819 202.074C47.1893 202.092 47.0934 202.083 47.0062 202.047C46.919 202.011 46.8444 201.949 46.792 201.871C46.7396 201.792 46.7116 201.7 46.7116 201.606C46.7074 201.541 46.7167 201.475 46.7388 201.414C46.7609 201.352 46.7954 201.296 46.8401 201.248C46.8848 201.201 46.9389 201.163 46.9989 201.137C47.0588 201.111 47.1235 201.098 47.1888 201.098V201.129ZM67.7509 195.036C67.8452 195.036 67.9375 195.064 68.016 195.117C68.0945 195.169 68.1557 195.243 68.1918 195.331C68.2279 195.418 68.2373 195.514 68.2189 195.606C68.2005 195.699 68.1551 195.784 68.0883 195.851C68.0216 195.918 67.9365 195.963 67.844 195.981C67.7514 196 67.6554 195.99 67.5682 195.954C67.481 195.918 67.4065 195.857 67.3541 195.778C67.3016 195.7 67.2736 195.608 67.2736 195.513C67.2676 195.445 67.2765 195.376 67.2997 195.311C67.323 195.246 67.36 195.187 67.4082 195.137C67.4565 195.088 67.5148 195.05 67.5792 195.026C67.6436 195.001 67.7126 194.991 67.7813 194.995L67.7509 195.036ZM59.526 195.036C59.6204 195.036 59.7127 195.064 59.7912 195.117C59.8696 195.169 59.9308 195.243 59.967 195.331C60.0031 195.418 60.0125 195.514 59.9941 195.606C59.9757 195.699 59.9302 195.784 59.8635 195.851C59.7967 195.918 59.7117 195.963 59.6191 195.981C59.5266 196 59.4306 195.99 59.3434 195.954C59.2562 195.918 59.1817 195.857 59.1292 195.778C59.0768 195.7 59.0488 195.608 59.0488 195.513C59.0431 195.447 59.0513 195.381 59.0728 195.318C59.0942 195.256 59.1285 195.198 59.1734 195.149C59.2182 195.101 59.2728 195.062 59.3335 195.035C59.3942 195.009 59.4598 194.995 59.526 194.995V195.036ZM51.3012 195.036C51.4278 195.036 51.5492 195.086 51.6387 195.176C51.7282 195.265 51.7784 195.387 51.7784 195.513C51.7784 195.64 51.7282 195.761 51.6387 195.851C51.5492 195.94 51.4278 195.991 51.3012 195.991C51.1746 195.991 51.0532 195.94 50.9637 195.851C50.8742 195.761 50.824 195.64 50.824 195.513C50.824 195.387 50.8742 195.265 50.9637 195.176C51.0532 195.086 51.1746 195.036 51.3012 195.036V195.036ZM63.6385 213.476C63.7328 213.476 63.8251 213.504 63.9036 213.556C63.9821 213.609 64.0432 213.683 64.0793 213.771C64.1155 213.858 64.1249 213.954 64.1065 214.046C64.0881 214.139 64.0427 214.224 63.9759 214.291C63.9092 214.357 63.8241 214.403 63.7315 214.421C63.639 214.44 63.543 214.43 63.4558 214.394C63.3686 214.358 63.2941 214.297 63.2416 214.218C63.1892 214.14 63.1612 214.048 63.1612 213.953C63.1556 213.887 63.1637 213.821 63.1852 213.758C63.2066 213.695 63.2409 213.638 63.2858 213.589C63.3306 213.54 63.3852 213.502 63.4459 213.475C63.5066 213.449 63.5722 213.435 63.6385 213.435V213.476ZM55.4136 213.476C55.508 213.476 55.6003 213.504 55.6788 213.556C55.7572 213.609 55.8184 213.683 55.8545 213.771C55.8906 213.858 55.9001 213.954 55.8817 214.046C55.8633 214.139 55.8178 214.224 55.7511 214.291C55.6843 214.357 55.5993 214.403 55.5067 214.421C55.4141 214.44 55.3182 214.43 55.231 214.394C55.1438 214.358 55.0692 214.297 55.0168 214.218C54.9644 214.14 54.9364 214.048 54.9364 213.953C54.9307 213.887 54.9389 213.821 54.9603 213.758C54.9818 213.695 55.0161 213.638 55.061 213.589C55.1058 213.54 55.1604 213.502 55.2211 213.475C55.2818 213.449 55.3474 213.435 55.4136 213.435V213.476ZM47.1888 213.476C47.2832 213.476 47.3755 213.504 47.4539 213.556C47.5324 213.609 47.5936 213.683 47.6297 213.771C47.6659 213.858 47.6753 213.954 47.6569 214.046C47.6385 214.139 47.593 214.224 47.5263 214.291C47.4595 214.357 47.3745 214.403 47.2819 214.421C47.1893 214.44 47.0934 214.43 47.0062 214.394C46.919 214.358 46.8444 214.297 46.792 214.218C46.7396 214.14 46.7116 214.048 46.7116 213.953C46.7059 213.887 46.7141 213.821 46.7355 213.758C46.757 213.695 46.7912 213.638 46.8361 213.589C46.881 213.54 46.9356 213.502 46.9963 213.475C47.057 213.449 47.1226 213.435 47.1888 213.435V213.476ZM59.526 207.383C59.6204 207.383 59.7127 207.411 59.7912 207.464C59.8696 207.516 59.9308 207.591 59.967 207.678C60.0031 207.765 60.0125 207.861 59.9941 207.954C59.9757 208.046 59.9302 208.131 59.8635 208.198C59.7967 208.265 59.7117 208.31 59.6191 208.329C59.5266 208.347 59.4306 208.338 59.3434 208.302C59.2562 208.265 59.1817 208.204 59.1292 208.126C59.0768 208.047 59.0488 207.955 59.0488 207.861C59.0416 207.794 59.0487 207.726 59.0695 207.662C59.0902 207.599 59.1242 207.54 59.1693 207.49C59.2143 207.44 59.2694 207.4 59.3309 207.373C59.3923 207.346 59.4588 207.332 59.526 207.333V207.383ZM51.3012 207.383C51.4278 207.383 51.5492 207.434 51.6387 207.523C51.7282 207.613 51.7784 207.734 51.7784 207.861C51.7784 207.987 51.7282 208.109 51.6387 208.198C51.5492 208.288 51.4278 208.338 51.3012 208.338C51.1746 208.338 51.0532 208.288 50.9637 208.198C50.8742 208.109 50.824 207.987 50.824 207.861C50.824 207.734 50.8742 207.613 50.9637 207.523C51.0532 207.434 51.1746 207.383 51.3012 207.383V207.383ZM43.0662 207.383C43.161 207.381 43.2543 207.408 43.3341 207.459C43.4139 207.51 43.4766 207.584 43.5143 207.671C43.552 207.758 43.5629 207.854 43.5457 207.947C43.5284 208.041 43.4838 208.127 43.4175 208.194C43.3511 208.262 43.2662 208.309 43.1733 208.328C43.0805 208.347 42.984 208.338 42.8962 208.302C42.8084 208.267 42.7333 208.206 42.6804 208.127C42.6275 208.048 42.5992 207.956 42.5992 207.861C42.5921 207.795 42.5988 207.728 42.619 207.665C42.6392 207.602 42.6723 207.543 42.7162 207.494C42.7602 207.444 42.814 207.404 42.8743 207.376C42.9345 207.349 42.9999 207.334 43.0662 207.333V207.383ZM63.6385 225.823C63.7328 225.823 63.8251 225.851 63.9036 225.904C63.9821 225.956 64.0432 226.031 64.0793 226.118C64.1155 226.205 64.1249 226.301 64.1065 226.394C64.0881 226.486 64.0427 226.571 63.9759 226.638C63.9092 226.705 63.8241 226.75 63.7315 226.769C63.639 226.787 63.543 226.778 63.4558 226.741C63.3686 226.705 63.2941 226.644 63.2416 226.566C63.1892 226.487 63.1612 226.395 63.1612 226.301C63.1541 226.234 63.1611 226.166 63.1818 226.102C63.2026 226.038 63.2366 225.98 63.2817 225.93C63.3267 225.88 63.3818 225.84 63.4433 225.813C63.5047 225.786 63.5713 225.772 63.6385 225.773V225.823ZM55.4136 225.823C55.508 225.823 55.6003 225.851 55.6788 225.904C55.7572 225.956 55.8184 226.031 55.8545 226.118C55.8906 226.205 55.9001 226.301 55.8817 226.394C55.8633 226.486 55.8178 226.571 55.7511 226.638C55.6843 226.705 55.5993 226.75 55.5067 226.769C55.4141 226.787 55.3182 226.778 55.231 226.741C55.1438 226.705 55.0692 226.644 55.0168 226.566C54.9644 226.487 54.9364 226.395 54.9364 226.301C54.9292 226.234 54.9363 226.166 54.957 226.102C54.9778 226.038 55.0118 225.98 55.0569 225.93C55.1019 225.88 55.157 225.84 55.2185 225.813C55.2799 225.786 55.3464 225.772 55.4136 225.773V225.823ZM47.1888 225.823C47.2832 225.823 47.3755 225.851 47.4539 225.904C47.5324 225.956 47.5936 226.031 47.6297 226.118C47.6659 226.205 47.6753 226.301 47.6569 226.394C47.6385 226.486 47.593 226.571 47.5263 226.638C47.4595 226.705 47.3745 226.75 47.2819 226.769C47.1893 226.787 47.0934 226.778 47.0062 226.741C46.919 226.705 46.8444 226.644 46.792 226.566C46.7396 226.487 46.7116 226.395 46.7116 226.301C46.7044 226.234 46.7114 226.166 46.7322 226.102C46.753 226.038 46.787 225.98 46.832 225.93C46.8771 225.88 46.9322 225.84 46.9936 225.813C47.0551 225.786 47.1216 225.772 47.1888 225.773V225.823ZM59.526 219.731C59.6204 219.731 59.7127 219.759 59.7912 219.811C59.8696 219.864 59.9308 219.938 59.967 220.025C60.0031 220.113 60.0125 220.209 59.9941 220.301C59.9757 220.394 59.9302 220.479 59.8635 220.546C59.7967 220.612 59.7117 220.658 59.6191 220.676C59.5266 220.695 59.4306 220.685 59.3434 220.649C59.2562 220.613 59.1817 220.552 59.1292 220.473C59.0768 220.395 59.0488 220.302 59.0488 220.208C59.0401 220.14 59.046 220.072 59.066 220.007C59.0861 219.942 59.1198 219.881 59.1651 219.83C59.2103 219.78 59.2659 219.739 59.3281 219.711C59.3904 219.683 59.4579 219.669 59.526 219.67V219.731ZM51.3012 219.731C51.4278 219.731 51.5492 219.781 51.6387 219.871C51.7282 219.96 51.7784 220.081 51.7784 220.208C51.7784 220.335 51.7282 220.456 51.6387 220.546C51.5492 220.635 51.4278 220.685 51.3012 220.685C51.1746 220.685 51.0532 220.635 50.9637 220.546C50.8742 220.456 50.824 220.335 50.824 220.208C50.824 220.081 50.8742 219.96 50.9637 219.871C51.0532 219.781 51.1746 219.731 51.3012 219.731V219.731ZM43.0662 219.731C43.161 219.729 43.2543 219.755 43.3341 219.806C43.4139 219.857 43.4766 219.931 43.5143 220.018C43.552 220.105 43.5629 220.202 43.5457 220.295C43.5284 220.388 43.4838 220.474 43.4175 220.542C43.3511 220.61 43.2662 220.656 43.1733 220.675C43.0805 220.695 42.984 220.686 42.8962 220.65C42.8084 220.614 42.7333 220.553 42.6804 220.474C42.6275 220.396 42.5992 220.303 42.5992 220.208C42.5906 220.141 42.5962 220.074 42.6156 220.009C42.6351 219.945 42.6679 219.885 42.7121 219.834C42.7562 219.783 42.8105 219.743 42.8716 219.714C42.9326 219.686 42.999 219.671 43.0662 219.67V219.731ZM47.1888 238.181C47.2832 238.181 47.3755 238.209 47.4539 238.261C47.5324 238.314 47.5936 238.388 47.6297 238.475C47.6659 238.563 47.6753 238.659 47.6569 238.751C47.6385 238.844 47.593 238.929 47.5263 238.996C47.4595 239.062 47.3745 239.108 47.2819 239.126C47.1893 239.145 47.0934 239.135 47.0062 239.099C46.919 239.063 46.8444 239.002 46.792 238.923C46.7396 238.845 46.7116 238.752 46.7116 238.658C46.7029 238.59 46.7087 238.522 46.7288 238.457C46.7488 238.392 46.7826 238.331 46.8278 238.28C46.873 238.229 46.9287 238.189 46.9909 238.161C47.0532 238.133 47.1207 238.119 47.1888 238.12V238.181ZM59.526 232.088C59.6204 232.088 59.7127 232.116 59.7912 232.169C59.8696 232.221 59.9308 232.296 59.967 232.383C60.0031 232.47 60.0125 232.566 59.9941 232.659C59.9757 232.751 59.9302 232.836 59.8635 232.903C59.7967 232.97 59.7117 233.015 59.6191 233.034C59.5266 233.052 59.4306 233.043 59.3434 233.007C59.2562 232.97 59.1817 232.909 59.1292 232.831C59.0768 232.752 59.0488 232.66 59.0488 232.566C59.0368 232.496 59.0403 232.426 59.0589 232.358C59.0774 232.29 59.1107 232.228 59.1562 232.174C59.2018 232.121 59.2586 232.078 59.3225 232.049C59.3864 232.021 59.4559 232.006 59.526 232.007V232.088ZM51.3012 232.088C51.4278 232.088 51.5492 232.139 51.6387 232.228C51.7282 232.318 51.7784 232.439 51.7784 232.566C51.7784 232.692 51.7282 232.814 51.6387 232.903C51.5492 232.993 51.4278 233.043 51.3012 233.043C51.1746 233.043 51.0532 232.993 50.9637 232.903C50.8742 232.814 50.824 232.692 50.824 232.566C50.824 232.439 50.8742 232.318 50.9637 232.228C51.0532 232.139 51.1746 232.088 51.3012 232.088V232.088ZM43.0662 232.088C43.161 232.086 43.2543 232.113 43.3341 232.164C43.4139 232.215 43.4766 232.289 43.5143 232.376C43.552 232.463 43.5629 232.559 43.5457 232.652C43.5284 232.746 43.4838 232.832 43.4175 232.899C43.3511 232.967 43.2662 233.014 43.1733 233.033C43.0805 233.052 42.984 233.043 42.8962 233.007C42.8084 232.972 42.7333 232.91 42.6804 232.832C42.6275 232.753 42.5992 232.66 42.5992 232.566C42.5874 232.497 42.5906 232.427 42.6086 232.36C42.6265 232.294 42.6589 232.231 42.7033 232.178C42.7478 232.125 42.8033 232.082 42.8659 232.053C42.9286 232.023 42.997 232.008 43.0662 232.007V232.088Z" fill="white"/>
<path d="M40.2129 217.639C40.9105 225.42 42.2693 233.128 44.2745 240.679L70.6751 231.388C70.6751 231.388 63.943 214.309 63.7805 211.496C63.547 207.434 69.152 194.417 74.95 181.927C79.7021 171.773 79.8138 165.965 73.63 168.006L40.2129 217.639Z" fill="#263238"/>
<path d="M76.4328 169.031C76.5749 169.874 80.1999 175.5 83.9976 175.55C85.2364 175.55 85.6324 168.818 85.6324 168.818L85.7745 168.321L87.8054 161.436L79.9258 155.669L78.7784 154.897C78.7784 154.897 78.362 156.816 77.8645 159.212C77.8349 159.326 77.8112 159.441 77.7934 159.558C77.7546 159.684 77.7241 159.813 77.702 159.943C77.6208 160.299 77.5396 160.664 77.4685 161.03C77.3974 161.395 77.3568 161.578 77.3162 161.873C77.2756 162.167 77.2147 162.452 77.1537 162.746C76.7649 164.821 76.524 166.922 76.4328 169.031Z" fill="#F7A9A0"/>
<path d="M77.824 159.212C78.4026 161.223 79.4141 163.083 80.7876 164.662C82.161 166.241 83.8631 167.5 85.7746 168.351L87.8054 161.467L79.9258 155.699L78.7784 154.927C78.7784 154.927 78.3215 156.816 77.824 159.212Z" fill="#263238"/>
<path d="M96.8524 149.414C99.7768 161.599 92.7908 164.899 90.1304 165.407C87.7138 165.874 79.4991 167.61 75.3258 155.74C71.1525 143.87 75.9249 138.641 81.337 137.046C86.7491 135.452 93.928 137.168 96.8524 149.414Z" fill="#F7A9A0"/>
<path d="M95.8271 147.363C95.5383 147.354 95.2502 147.33 94.9639 147.292C94.6569 147.311 94.3524 147.225 94.1008 147.048C94.03 146.979 93.9844 146.889 93.9715 146.791C93.9586 146.693 93.9791 146.594 94.0298 146.51C94.1505 146.362 94.3074 146.247 94.4853 146.178C94.6633 146.109 94.8562 146.086 95.0452 146.114C95.4506 146.121 95.8385 146.28 96.1317 146.56C96.193 146.626 96.2347 146.707 96.2521 146.794C96.2695 146.882 96.2619 146.973 96.2301 147.057C96.1984 147.14 96.1437 147.213 96.0725 147.268C96.0012 147.322 95.9162 147.355 95.8271 147.363V147.363Z" fill="#263238"/>
<path d="M87.8157 148.551C88.1 148.48 88.3538 148.368 88.6381 148.277C88.9431 148.223 89.2216 148.069 89.4301 147.84C89.4802 147.756 89.5014 147.658 89.4904 147.561C89.4794 147.463 89.4368 147.373 89.3692 147.302C89.2127 147.18 89.0266 147.103 88.8301 147.078C88.6337 147.053 88.4341 147.081 88.2523 147.16C87.861 147.261 87.5209 147.503 87.2978 147.84C87.2494 147.92 87.2258 148.013 87.2299 148.107C87.234 148.201 87.2657 148.291 87.321 148.367C87.3762 148.443 87.4526 148.501 87.5406 148.534C87.6286 148.566 87.7243 148.572 87.8157 148.551V148.551Z" fill="#263238"/>
<path d="M90.1205 151.536C90.1205 151.536 90.0596 151.536 90.1205 151.628C90.2728 152.47 90.3033 153.455 89.5723 153.851C89.5723 153.851 89.5723 153.912 89.5723 153.851C90.4759 153.628 90.4251 152.318 90.1205 151.536Z" fill="#263238"/>
<path d="M89.2575 150.765C87.8765 150.866 88.171 153.608 89.4504 153.526C90.7298 153.445 90.415 150.683 89.2575 150.765Z" fill="#263238"/>
<path d="M88.7295 150.978C88.5061 151.16 88.303 151.455 88.0187 151.516C87.7344 151.577 87.3994 151.323 87.1455 151.069C87.1963 151.597 87.4603 152.084 88.0289 152.084C88.5975 152.084 88.8717 151.597 88.9427 151.069C88.9224 151.028 88.8209 150.896 88.7295 150.978Z" fill="#263238"/>
<path d="M94.568 150.683C94.568 150.683 94.6391 150.683 94.6391 150.754C94.7 151.607 94.9132 152.572 95.7051 152.785C95.7051 152.785 95.7051 152.836 95.7051 152.785C94.7507 152.795 94.4868 151.506 94.568 150.683Z" fill="#263238"/>
<path d="M95.1969 149.719C96.5575 149.475 96.9433 152.216 95.6843 152.44C94.4252 152.663 94.1003 149.962 95.1969 149.719Z" fill="#263238"/>
<path d="M95.8371 149.82C96.0706 149.932 96.3245 150.165 96.5885 150.145C96.8525 150.124 97.0657 149.8 97.218 149.485C97.218 149.485 97.218 149.485 97.2688 149.485C97.35 150.013 97.2688 150.581 96.7712 150.754C96.2737 150.927 95.9183 150.5 95.7558 150.003C95.6847 149.962 95.7457 149.769 95.8371 149.82Z" fill="#263238"/>
<path d="M90.4858 158.086C90.6584 158.309 90.8107 158.614 91.1153 158.695C91.4322 158.739 91.7549 158.711 92.0596 158.614C92.0596 158.614 92.0596 158.614 92.0596 158.614C91.9132 158.762 91.729 158.869 91.5268 158.92C91.3247 158.972 91.1122 158.968 90.9122 158.908C90.746 158.837 90.6049 158.718 90.5072 158.566C90.4095 158.414 90.3595 158.236 90.3639 158.055C90.3842 158.025 90.4553 158.025 90.4858 158.086Z" fill="#263238"/>
<path d="M93.9284 154.724C93.9284 154.724 94.2533 155.973 94.3244 156.572C94.3244 156.633 94.1924 156.674 93.9893 156.714C93.4863 156.869 92.9504 156.883 92.44 156.754C91.9297 156.625 91.4646 156.359 91.0955 155.983C91.0834 155.973 91.076 155.957 91.0751 155.941C91.0741 155.925 91.0796 155.909 91.0904 155.897C91.1012 155.885 91.1163 155.878 91.1325 155.877C91.1487 155.876 91.1646 155.881 91.1767 155.892C92.0048 156.319 92.948 156.468 93.8675 156.318C93.8675 156.156 93.238 154.206 93.3293 154.186C93.8008 154.167 94.2726 154.215 94.7306 154.328C94.1213 151.709 93.0958 149.2 92.5373 146.581C92.5293 146.561 92.5295 146.538 92.5381 146.518C92.5467 146.498 92.5628 146.482 92.583 146.474C92.6032 146.466 92.6258 146.466 92.6458 146.475C92.6658 146.483 92.6816 146.5 92.6896 146.52C93.8687 149.17 94.777 151.932 95.4007 154.765C95.4616 155.1 94.1823 154.795 93.9284 154.724Z" fill="#263238"/>
<path d="M93.9077 156.369C93.6444 156.914 93.2459 157.383 92.7502 157.73C92.4721 157.908 92.1461 157.997 91.816 157.984C91.0951 157.984 90.9428 157.324 90.9631 156.755C90.9737 156.457 91.018 156.16 91.0951 155.872C91.9554 156.334 92.9411 156.508 93.9077 156.369Z" fill="#263238"/>
<path d="M92.7503 157.73C92.4722 157.908 92.1462 157.997 91.8162 157.984C91.0953 157.984 90.9429 157.324 90.9633 156.755C91.3272 156.695 91.7006 156.759 92.0244 156.935C92.3481 157.112 92.6036 157.392 92.7503 157.73V157.73Z" fill="#FF98B9"/>
<path d="M75.5393 155.334C76.8898 155.059 79.9056 150.805 79.0831 144.215C79.0831 144.215 79.4182 150.185 79.0831 151.12C78.748 152.054 80.7686 148.723 80.1797 143.403C82.0187 144.355 83.9849 145.039 86.0183 145.433C88.6177 145.779 90.151 145.545 90.3033 145.332C90.4556 145.119 86.6072 144.489 85.4497 143.484C85.4497 143.484 92.5575 145.636 95.6037 145.433C95.9591 145.433 95.3499 138.051 90.1713 135.625C84.9927 133.198 77.9357 137.605 76.1892 139.838C76.1892 139.838 73.8639 140.509 71.7823 144.388C69.7007 148.266 74.0873 155.628 75.5393 155.334Z" fill="#263238"/>
<path d="M31.1355 377.261L50.875 381.201L63.791 383.78C63.791 383.78 77.0725 329.547 79.3267 306.132C81.4489 283.925 84.5967 248.853 80.403 216.908H55.4037C53.2815 220.614 42.9142 233.825 48.3771 254.834C49.1488 257.809 47.3617 284.829 44.6099 303.167C42.0206 320.206 31.1355 377.261 31.1355 377.261Z" fill="#37474F"/>
<path d="M50.875 381.201L63.791 383.78C63.791 383.78 77.0725 329.547 79.3267 306.132C81.4489 283.925 84.5967 248.853 80.403 216.908H71.569C67.3957 247.177 55.424 348.302 50.875 381.201Z" fill="#263238"/>
<path d="M30.496 381.943C30.1711 383.974 29.8664 385.981 29.5821 387.964C29.4095 389.183 29.247 390.371 29.0846 391.518C28.0692 398.91 27.5005 404.617 28.0692 405.125C29.8055 406.688 80.8706 415.654 82.7897 415.38C84.7089 415.106 83.9981 409.684 82.2922 407.755C81.2768 406.587 74.1689 401.662 68.7974 397.915C65.3348 395.539 62.5729 393.671 62.5729 393.671L63.7203 387.68L69.2238 360.497L35.0349 354.608C35.0349 354.608 32.5573 368.651 30.496 381.943Z" fill="#EBEBEB"/>
<path d="M67.0813 392.117C64.2382 390.086 60.2273 388.807 56.8257 389.913C56.6937 389.913 56.7648 390.147 56.8765 390.157C60.2851 390.577 63.6384 391.363 66.8782 392.503C66.9272 392.516 66.9793 392.512 67.0259 392.492C67.0724 392.472 67.1107 392.436 67.1344 392.391C67.158 392.346 67.1656 392.295 67.156 392.245C67.1464 392.195 67.12 392.15 67.0813 392.117V392.117Z" fill="#263238"/>
<path d="M67.5576 389.314C64.7246 387.283 60.7036 386.014 57.3121 387.121C57.1801 387.121 57.241 387.344 57.3121 387.365C60.7228 387.786 64.079 388.569 67.324 389.7C67.3752 389.731 67.4366 389.741 67.4947 389.726C67.5528 389.712 67.6028 389.675 67.6338 389.624C67.6647 389.573 67.6741 389.511 67.6598 389.453C67.6455 389.395 67.6088 389.345 67.5576 389.314V389.314Z" fill="#263238"/>
<path d="M68.0356 386.553C65.2026 384.522 61.1917 383.242 57.79 384.349C57.658 384.349 57.719 384.583 57.79 384.593C61.1984 385.014 64.5517 385.8 67.7919 386.938C67.843 386.971 67.9049 386.981 67.964 386.968C68.023 386.955 68.0743 386.918 68.1066 386.867C68.139 386.816 68.1496 386.754 68.1363 386.695C68.123 386.636 68.0867 386.585 68.0356 386.553V386.553Z" fill="#263238"/>
<path d="M68.5227 383.73C65.6897 381.699 61.6687 380.42 58.2772 381.526C58.1452 381.526 58.2062 381.75 58.2772 381.77C61.6891 382.19 65.0458 382.976 68.2891 384.116C68.3145 384.131 68.3426 384.141 68.3718 384.146C68.4011 384.15 68.431 384.149 68.4598 384.142C68.4885 384.135 68.5156 384.122 68.5395 384.104C68.5633 384.087 68.5835 384.065 68.5988 384.04C68.6142 384.014 68.6244 383.986 68.6288 383.957C68.6333 383.928 68.632 383.898 68.6249 383.869C68.6178 383.84 68.6051 383.813 68.5876 383.789C68.5701 383.765 68.548 383.745 68.5227 383.73V383.73Z" fill="#263238"/>
<path d="M68.9998 380.927C66.1668 378.896 62.1559 377.617 58.7543 378.724C58.6223 378.724 58.6832 378.957 58.8051 378.978C62.2123 379.4 65.565 380.183 68.8069 381.313C68.8322 381.326 68.8598 381.333 68.8881 381.335C68.9163 381.337 68.9447 381.334 68.9716 381.325C68.9985 381.316 69.0233 381.302 69.0447 381.283C69.0661 381.265 69.0836 381.242 69.0963 381.217C69.109 381.191 69.1165 381.164 69.1185 381.135C69.1205 381.107 69.1169 381.079 69.108 381.052C69.099 381.025 69.0849 381 69.0663 380.979C69.0477 380.957 69.0252 380.94 68.9998 380.927V380.927Z" fill="#263238"/>
<path d="M27.5914 405.348C28.8099 407.074 54.5607 411.623 70.9799 414.141C78.5143 415.289 84.0685 416.02 84.3935 415.847C85.4089 415.279 85.348 409.897 82.1088 405.906C80.3115 403.693 71.0916 397.418 66.8776 394.564L64.7047 393.132L68.3703 375.871L69.1623 372.134L69.9848 368.245C68.9186 368.245 32.7091 361.807 32.7091 361.807C32.7091 361.807 32.4552 363.33 32.0592 365.808C31.8764 366.894 31.6733 368.174 31.45 369.585C29.541 381.577 26.312 403.53 27.5914 405.348Z" fill="#FF006D"/>
<path d="M27.0197 405.209L85.3778 415.268L84.8155 418.531L26.4575 408.471L27.0197 405.209Z" fill="#263238"/>
<path opacity="0.1" d="M31.4202 369.545L68.3405 375.83L69.1326 372.093L32.0295 365.767C31.8467 366.854 31.6436 368.133 31.4202 369.545Z" fill="black"/>
<path d="M66.8472 394.564L70.9799 414.141C78.5143 415.289 84.0686 416.02 84.3935 415.847C85.4089 415.278 85.348 409.897 82.1088 405.906C80.3115 403.693 71.0916 397.417 66.8472 394.564Z" fill="#263238"/>
<path d="M67.5173 253.696C67.5173 253.696 72.0461 287.042 73.691 303.827C74.0972 308.011 74.5846 355.207 74.5846 365.574V373.048C74.5846 382.623 74.5846 389.426 74.5846 389.426H108.499C108.499 389.426 108.499 389.111 108.499 388.522C108.499 388.197 108.499 387.812 108.499 387.345C108.499 386.877 108.499 386.329 108.499 385.689C108.499 385.324 108.499 384.928 108.499 384.522C108.499 381.658 108.601 377.708 108.672 373.098C108.672 370.743 108.743 368.214 108.773 365.574C109.027 345.043 101.808 234.292 94.8115 216.918H58.3888C58.3888 216.918 52.469 237.338 67.5173 253.696Z" fill="#37474F"/>
<path d="M55.7591 245.959C58.4601 247.472 61.151 249.005 63.8824 250.538C65.2126 251.29 66.5733 251.99 67.9441 252.711C69.3149 253.432 70.7466 254.072 72.0869 254.854C72.0999 254.865 72.109 254.88 72.1128 254.897C72.1166 254.914 72.115 254.931 72.1083 254.947C72.1015 254.963 72.0899 254.976 72.0751 254.985C72.0603 254.994 72.0431 254.998 72.026 254.996C70.4723 254.61 68.9539 254.094 67.4871 253.453C66.0663 252.868 64.6767 252.211 63.3239 251.483C60.5641 250.02 58.0044 248.208 55.7083 246.091C55.5966 246.02 55.6779 245.908 55.7591 245.959Z" fill="#263238"/>
<path d="M88.699 217.741C91.3185 228.323 93.3088 239.051 94.6594 249.868C96.0099 260.784 96.9035 271.781 97.8885 282.737C99.9193 304.792 101.615 326.887 102.113 349.033C102.397 361.431 102.163 373.85 101.381 386.218C101.381 386.319 101.219 386.319 101.219 386.218C101.879 364.214 101.219 342.159 99.767 320.216C99.0663 309.158 98.1728 298.121 97.198 287.083C96.2232 276.046 95.3093 265.232 94.1517 254.326C92.9564 242.059 91.0031 229.878 88.303 217.853C88.2956 217.827 88.2935 217.799 88.2967 217.773C88.2998 217.746 88.3083 217.72 88.3215 217.696C88.3347 217.673 88.3524 217.652 88.3736 217.635C88.3948 217.618 88.4191 217.606 88.4451 217.599C88.4711 217.591 88.4983 217.589 88.5251 217.592C88.552 217.596 88.5779 217.604 88.6015 217.617C88.6251 217.63 88.6458 217.648 88.6625 217.669C88.6793 217.691 88.6916 217.715 88.699 217.741V217.741Z" fill="#263238"/>
<path d="M74.6454 393.295C74.6454 395.326 74.7165 397.407 74.7775 399.387C74.7775 400.616 74.8485 401.814 74.8891 402.972C75.143 410.435 75.539 416.172 76.1889 416.548C78.1588 417.807 130.006 417.959 131.843 417.36C133.681 416.761 132.067 411.542 130.066 409.927C128.838 408.912 121.029 405.266 115.099 402.525C111.281 400.768 108.245 399.397 108.245 399.397L108.408 393.305L109.22 365.584H74.5236C74.5236 365.584 74.4119 379.851 74.6454 393.295Z" fill="#EBEBEB"/>
<path d="M112.46 397.103C109.322 395.59 105.139 395.011 101.981 396.676C101.859 396.737 101.981 396.91 102.072 396.91C105.503 396.747 108.941 396.951 112.328 397.519C112.379 397.524 112.43 397.511 112.472 397.483C112.515 397.455 112.547 397.413 112.562 397.364C112.578 397.316 112.576 397.263 112.557 397.216C112.539 397.168 112.504 397.128 112.46 397.103V397.103Z" fill="#263238"/>
<path d="M112.459 394.269C109.321 392.756 105.138 392.168 101.98 393.843C101.858 393.904 101.98 394.077 102.071 394.077C105.502 393.905 108.94 394.106 112.327 394.676C112.381 394.693 112.44 394.689 112.49 394.663C112.54 394.637 112.579 394.592 112.596 394.539C112.614 394.485 112.609 394.426 112.583 394.376C112.558 394.325 112.513 394.287 112.459 394.269V394.269Z" fill="#263238"/>
<path d="M112.46 391.426C109.322 389.914 105.139 389.335 101.981 391C101.859 391.061 101.981 391.244 102.072 391.234C105.503 391.071 108.941 391.275 112.328 391.843C112.379 391.848 112.43 391.835 112.472 391.807C112.515 391.779 112.547 391.737 112.562 391.688C112.578 391.639 112.576 391.587 112.557 391.539C112.539 391.492 112.504 391.452 112.46 391.426Z" fill="#263238"/>
<path d="M112.459 388.584C109.321 387.071 105.138 386.482 101.98 388.157C101.858 388.218 101.98 388.391 102.071 388.391C105.501 388.225 108.94 388.426 112.327 388.99C112.354 388.999 112.382 389.002 112.41 389C112.438 388.997 112.465 388.99 112.49 388.977C112.515 388.964 112.537 388.947 112.555 388.925C112.574 388.904 112.587 388.879 112.596 388.853C112.605 388.826 112.608 388.798 112.606 388.77C112.604 388.742 112.596 388.715 112.583 388.69C112.571 388.665 112.553 388.643 112.532 388.624C112.51 388.606 112.486 388.592 112.459 388.584Z" fill="#263238"/>
<path d="M112.46 385.75C109.322 384.247 105.139 383.658 101.981 385.324C101.859 385.395 101.981 385.567 102.072 385.557C105.503 385.395 108.941 385.599 112.328 386.167C112.379 386.171 112.43 386.159 112.472 386.131C112.515 386.102 112.547 386.06 112.562 386.012C112.578 385.963 112.576 385.911 112.557 385.863C112.539 385.815 112.504 385.776 112.46 385.75Z" fill="#263238"/>
<path d="M73.3768 373.047C73.3768 373.047 73.3768 374.5 73.3768 376.865C73.3768 377.962 73.3768 379.252 73.3768 380.694C73.5596 392.818 74.0978 415.217 75.6818 416.852C77.8548 419.035 132.545 418.274 133.438 417.543C134.332 416.812 133.367 411.532 129.509 408.14C126.686 405.683 110.155 398.514 110.155 398.514L110.825 380.694L110.977 376.865L111.12 373.047C110.145 373.22 73.3768 373.047 73.3768 373.047Z" fill="#FF006D"/>
<path d="M75.1533 416.791H134.372V420.102H75.1533V416.791Z" fill="#263238"/>
<path opacity="0.1" d="M73.4072 376.866C73.4072 377.962 73.4072 379.252 73.4072 380.694H110.906L111.058 376.866H73.4072Z" fill="black"/>
<path d="M96.9137 203.779L100.275 225.62L48.1639 225.275C48.1639 225.275 58.4399 183.643 69.3555 170.565C73.3562 165.772 81.4795 166.879 85.663 171.428C90.0394 176.19 98.4673 186.903 99.5334 192.863C100.447 198.113 96.9137 203.779 96.9137 203.779Z" fill="#FF006D"/>
<path d="M87.8356 176.891C87.8336 176.986 87.8599 177.079 87.9111 177.159C87.9623 177.238 88.0361 177.301 88.1231 177.339C88.2101 177.376 88.3064 177.387 88.3996 177.37C88.4929 177.353 88.5788 177.308 88.6466 177.242C88.7144 177.176 88.7608 177.091 88.7801 176.998C88.7993 176.905 88.7905 176.808 88.7547 176.721C88.7189 176.633 88.6577 176.558 88.579 176.505C88.5003 176.452 88.4077 176.424 88.3129 176.424C88.188 176.424 88.0682 176.472 87.979 176.56C87.8897 176.647 87.8383 176.766 87.8356 176.891V176.891ZM80.0881 176.424C80.1829 176.424 80.2756 176.452 80.3542 176.505C80.4329 176.558 80.494 176.633 80.5298 176.721C80.5657 176.808 80.5745 176.905 80.5553 176.998C80.536 177.091 80.4895 177.176 80.4218 177.242C80.354 177.308 80.268 177.353 80.1748 177.37C80.0816 177.387 79.9853 177.376 79.8983 177.339C79.8113 177.301 79.7375 177.238 79.6863 177.159C79.6351 177.079 79.6088 176.986 79.6108 176.891C79.6135 176.766 79.6649 176.647 79.7541 176.56C79.8433 176.472 79.9632 176.424 80.0881 176.424V176.424ZM71.8632 176.424C71.958 176.424 72.0507 176.452 72.1294 176.505C72.2081 176.558 72.2692 176.633 72.3051 176.721C72.3409 176.808 72.3497 176.905 72.3304 176.998C72.3112 177.091 72.2647 177.176 72.1969 177.242C72.1292 177.308 72.0432 177.353 71.95 177.37C71.8567 177.387 71.7605 177.376 71.6735 177.339C71.5864 177.301 71.5126 177.238 71.4614 177.159C71.4102 177.079 71.384 176.986 71.386 176.891C71.3885 176.769 71.4371 176.653 71.522 176.567C71.6069 176.48 71.7216 176.429 71.8429 176.424H71.8632ZM84.2005 170.331C84.2949 170.331 84.3871 170.359 84.4656 170.412C84.5441 170.464 84.6053 170.539 84.6414 170.626C84.6775 170.713 84.687 170.809 84.6686 170.902C84.6501 170.994 84.6047 171.079 84.5379 171.146C84.4712 171.213 84.3861 171.258 84.2936 171.276C84.201 171.295 84.105 171.285 84.0178 171.249C83.9306 171.213 83.8561 171.152 83.8037 171.074C83.7512 170.995 83.7232 170.903 83.7232 170.808C83.7145 170.741 83.7204 170.672 83.7405 170.607C83.7605 170.542 83.7943 170.482 83.8395 170.431C83.8847 170.38 83.9403 170.339 84.0026 170.311C84.0649 170.284 84.1323 170.27 84.2005 170.27V170.331ZM75.9757 170.331C76.07 170.331 76.1623 170.359 76.2408 170.412C76.3193 170.464 76.3804 170.539 76.4166 170.626C76.4527 170.713 76.4621 170.809 76.4437 170.902C76.4253 170.994 76.3799 171.079 76.3131 171.146C76.2464 171.213 76.1613 171.258 76.0687 171.276C75.9762 171.295 75.8802 171.285 75.793 171.249C75.7058 171.213 75.6313 171.152 75.5788 171.074C75.5264 170.995 75.4984 170.903 75.4984 170.808C75.4897 170.741 75.4956 170.672 75.5156 170.607C75.5357 170.542 75.5695 170.482 75.6147 170.431C75.6599 170.38 75.7155 170.339 75.7778 170.311C75.84 170.284 75.9075 170.27 75.9757 170.27V170.331ZM96.5478 188.781C96.6422 188.781 96.7345 188.809 96.813 188.862C96.8915 188.914 96.9526 188.989 96.9888 189.076C97.0249 189.163 97.0343 189.259 97.0159 189.352C96.9975 189.444 96.9521 189.529 96.8853 189.596C96.8186 189.663 96.7335 189.708 96.641 189.726C96.5484 189.745 96.4524 189.735 96.3652 189.699C96.278 189.663 96.2035 189.602 96.151 189.524C96.0986 189.445 96.0706 189.353 96.0706 189.258C96.0679 189.194 96.0782 189.13 96.1009 189.07C96.1237 189.009 96.1584 188.954 96.203 188.908C96.2476 188.861 96.3011 188.824 96.3604 188.799C96.4197 188.774 96.4834 188.761 96.5478 188.761V188.781ZM88.3129 188.781C88.4073 188.781 88.4995 188.809 88.578 188.862C88.6565 188.914 88.7177 188.989 88.7538 189.076C88.7899 189.163 88.7994 189.259 88.781 189.352C88.7625 189.444 88.7171 189.529 88.6503 189.596C88.5836 189.663 88.4986 189.708 88.406 189.726C88.3134 189.745 88.2174 189.735 88.1302 189.699C88.043 189.663 87.9685 189.602 87.9161 189.524C87.8636 189.445 87.8356 189.353 87.8356 189.258C87.8329 189.194 87.8432 189.13 87.866 189.07C87.8887 189.009 87.9234 188.954 87.968 188.908C88.0126 188.861 88.0662 188.824 88.1254 188.799C88.1847 188.774 88.2485 188.761 88.3129 188.761V188.781ZM80.0881 188.781C80.1824 188.781 80.2747 188.809 80.3532 188.862C80.4317 188.914 80.4929 188.989 80.529 189.076C80.5651 189.163 80.5745 189.259 80.5561 189.352C80.5377 189.444 80.4923 189.529 80.4255 189.596C80.3588 189.663 80.2737 189.708 80.1812 189.726C80.0886 189.745 79.9926 189.735 79.9054 189.699C79.8182 189.663 79.7437 189.602 79.6913 189.524C79.6388 189.445 79.6108 189.353 79.6108 189.258C79.6081 189.194 79.6184 189.13 79.6411 189.07C79.6639 189.009 79.6986 188.954 79.7432 188.908C79.7878 188.861 79.8413 188.824 79.9006 188.799C79.9599 188.774 80.0236 188.761 80.0881 188.761V188.781ZM71.8632 188.781C71.9576 188.781 72.0499 188.809 72.1284 188.862C72.2069 188.914 72.268 188.989 72.3042 189.076C72.3403 189.163 72.3497 189.259 72.3313 189.352C72.3129 189.444 72.2674 189.529 72.2007 189.596C72.1339 189.663 72.0489 189.708 71.9563 189.726C71.8638 189.745 71.7678 189.735 71.6806 189.699C71.5934 189.663 71.5189 189.602 71.4664 189.524C71.414 189.445 71.386 189.353 71.386 189.258C71.3833 189.196 71.3929 189.133 71.4144 189.074C71.4359 189.015 71.4689 188.961 71.5113 188.915C71.5537 188.869 71.6049 188.831 71.6618 188.805C71.7187 188.778 71.7802 188.763 71.8429 188.761L71.8632 188.781ZM63.6384 188.781C63.7328 188.781 63.8251 188.809 63.9036 188.862C63.982 188.914 64.0432 188.989 64.0793 189.076C64.1154 189.163 64.1249 189.259 64.1065 189.352C64.0881 189.444 64.0426 189.529 63.9759 189.596C63.9091 189.663 63.8241 189.708 63.7315 189.726C63.6389 189.745 63.543 189.735 63.4558 189.699C63.3686 189.663 63.294 189.602 63.2416 189.524C63.1892 189.445 63.1612 189.353 63.1612 189.258C63.1584 189.194 63.1687 189.13 63.1915 189.07C63.2142 189.009 63.249 188.954 63.2936 188.908C63.3382 188.861 63.3917 188.824 63.451 188.799C63.5102 188.774 63.574 188.761 63.6384 188.761V188.781ZM92.4253 182.689C92.5205 182.687 92.6142 182.713 92.6942 182.765C92.7742 182.817 92.8369 182.891 92.8743 182.979C92.9117 183.066 92.922 183.163 92.9039 183.256C92.8858 183.35 92.8402 183.436 92.7728 183.503C92.7055 183.571 92.6195 183.616 92.526 183.634C92.4325 183.652 92.3357 183.642 92.2481 183.605C92.1605 183.567 92.0861 183.505 92.0344 183.425C91.9827 183.345 91.9562 183.251 91.9582 183.156C91.9555 183.092 91.9655 183.029 91.9876 182.969C92.0097 182.91 92.0436 182.855 92.0871 182.809C92.1306 182.762 92.1829 182.725 92.241 182.699C92.2991 182.674 92.3617 182.66 92.4253 182.658V182.689ZM84.2005 182.689C84.2953 182.689 84.388 182.717 84.4666 182.77C84.5453 182.823 84.6065 182.898 84.6423 182.986C84.6781 183.074 84.6869 183.17 84.6677 183.263C84.6484 183.356 84.6019 183.441 84.5342 183.507C84.4664 183.573 84.3804 183.618 84.2872 183.635C84.194 183.652 84.0977 183.642 84.0107 183.604C83.9237 183.566 83.8499 183.503 83.7987 183.424C83.7475 183.344 83.7212 183.251 83.7232 183.156C83.7205 183.091 83.7308 183.027 83.7535 182.967C83.7763 182.907 83.811 182.852 83.8556 182.805C83.9002 182.759 83.9537 182.722 84.013 182.696C84.0723 182.671 84.1361 182.658 84.2005 182.658V182.689ZM75.9757 182.689C76.0705 182.689 76.1631 182.717 76.2418 182.77C76.3205 182.823 76.3816 182.898 76.4174 182.986C76.4533 183.074 76.4621 183.17 76.4428 183.263C76.4236 183.356 76.3771 183.441 76.3094 183.507C76.2416 183.573 76.1556 183.618 76.0624 183.635C75.9691 183.652 75.8729 183.642 75.7859 183.604C75.6988 183.566 75.6251 183.503 75.5739 183.424C75.5227 183.344 75.4964 183.251 75.4984 183.156C75.4957 183.091 75.506 183.027 75.5287 182.967C75.5515 182.907 75.5862 182.852 75.6308 182.805C75.6754 182.759 75.7289 182.722 75.7882 182.696C75.8475 182.671 75.9112 182.658 75.9757 182.658V182.689ZM67.7508 182.689C67.8456 182.689 67.9383 182.717 68.017 182.77C68.0957 182.823 68.1568 182.898 68.1926 182.986C68.2284 183.074 68.2373 183.17 68.218 183.263C68.1988 183.356 68.1523 183.441 68.0845 183.507C68.0168 183.573 67.9308 183.618 67.8376 183.635C67.7443 183.652 67.6481 183.642 67.5611 183.604C67.4741 183.566 67.4002 183.503 67.349 183.424C67.2978 183.344 67.2716 183.251 67.2736 183.156C67.2706 183.089 67.2817 183.022 67.3063 182.96C67.3309 182.897 67.3684 182.841 67.4163 182.794C67.4642 182.747 67.5215 182.71 67.5844 182.687C67.6472 182.664 67.7144 182.654 67.7813 182.658L67.7508 182.689ZM96.5478 201.129C96.6422 201.129 96.7345 201.157 96.813 201.209C96.8915 201.261 96.9526 201.336 96.9888 201.423C97.0249 201.51 97.0343 201.606 97.0159 201.699C96.9975 201.791 96.9521 201.877 96.8853 201.943C96.8186 202.01 96.7335 202.055 96.641 202.074C96.5484 202.092 96.4524 202.083 96.3652 202.047C96.278 202.011 96.2035 201.949 96.151 201.871C96.0986 201.792 96.0706 201.7 96.0706 201.606C96.0664 201.541 96.0757 201.475 96.0978 201.414C96.1199 201.352 96.1544 201.296 96.1991 201.248C96.2439 201.201 96.2979 201.163 96.3579 201.137C96.4179 201.111 96.4825 201.098 96.5478 201.098V201.129ZM88.3129 201.129C88.4073 201.129 88.4995 201.157 88.578 201.209C88.6565 201.261 88.7177 201.336 88.7538 201.423C88.7899 201.51 88.7994 201.606 88.781 201.699C88.7625 201.791 88.7171 201.877 88.6503 201.943C88.5836 202.01 88.4986 202.055 88.406 202.074C88.3134 202.092 88.2174 202.083 88.1302 202.047C88.043 202.011 87.9685 201.949 87.9161 201.871C87.8636 201.792 87.8356 201.7 87.8356 201.606C87.8315 201.541 87.8407 201.475 87.8628 201.414C87.885 201.352 87.9194 201.296 87.9642 201.248C88.0089 201.201 88.0629 201.163 88.1229 201.137C88.1829 201.111 88.2476 201.098 88.3129 201.098V201.129ZM80.0881 201.129C80.1824 201.129 80.2747 201.157 80.3532 201.209C80.4317 201.261 80.4929 201.336 80.529 201.423C80.5651 201.51 80.5745 201.606 80.5561 201.699C80.5377 201.791 80.4923 201.877 80.4255 201.943C80.3588 202.01 80.2737 202.055 80.1812 202.074C80.0886 202.092 79.9926 202.083 79.9054 202.047C79.8182 202.011 79.7437 201.949 79.6913 201.871C79.6388 201.792 79.6108 201.7 79.6108 201.606C79.6066 201.541 79.6159 201.475 79.638 201.414C79.6601 201.352 79.6946 201.296 79.7393 201.248C79.7841 201.201 79.8381 201.163 79.8981 201.137C79.9581 201.111 80.0227 201.098 80.0881 201.098V201.129ZM71.8632 201.129C71.9576 201.129 72.0499 201.157 72.1284 201.209C72.2069 201.261 72.268 201.336 72.3042 201.423C72.3403 201.51 72.3497 201.606 72.3313 201.699C72.3129 201.791 72.2674 201.877 72.2007 201.943C72.1339 202.01 72.0489 202.055 71.9563 202.074C71.8638 202.092 71.7678 202.083 71.6806 202.047C71.5934 202.011 71.5189 201.949 71.4664 201.871C71.414 201.792 71.386 201.7 71.386 201.606C71.3819 201.542 71.3905 201.479 71.4114 201.418C71.4323 201.358 71.4649 201.303 71.5075 201.256C71.5501 201.208 71.6017 201.17 71.6593 201.143C71.7169 201.116 71.7793 201.101 71.8429 201.098L71.8632 201.129ZM63.6384 201.129C63.7328 201.129 63.8251 201.157 63.9036 201.209C63.982 201.261 64.0432 201.336 64.0793 201.423C64.1154 201.51 64.1249 201.606 64.1065 201.699C64.0881 201.791 64.0426 201.877 63.9759 201.943C63.9091 202.01 63.8241 202.055 63.7315 202.074C63.6389 202.092 63.543 202.083 63.4558 202.047C63.3686 202.011 63.294 201.949 63.2416 201.871C63.1892 201.792 63.1612 201.7 63.1612 201.606C63.157 201.541 63.1663 201.475 63.1884 201.414C63.2105 201.352 63.245 201.296 63.2897 201.248C63.3345 201.201 63.3885 201.163 63.4485 201.137C63.5085 201.111 63.5731 201.098 63.6384 201.098V201.129ZM55.4136 201.129C55.508 201.129 55.6003 201.157 55.6787 201.209C55.7572 201.261 55.8184 201.336 55.8545 201.423C55.8906 201.51 55.9001 201.606 55.8817 201.699C55.8633 201.791 55.8178 201.877 55.7511 201.943C55.6843 202.01 55.5993 202.055 55.5067 202.074C55.4141 202.092 55.3182 202.083 55.231 202.047C55.1438 202.011 55.0692 201.949 55.0168 201.871C54.9643 201.792 54.9364 201.7 54.9364 201.606C54.9322 201.541 54.9414 201.475 54.9635 201.414C54.9856 201.352 55.0202 201.296 55.0649 201.248C55.1096 201.201 55.1637 201.163 55.2237 201.137C55.2836 201.111 55.3483 201.098 55.4136 201.098V201.129ZM92.4253 195.036C92.5201 195.034 92.6133 195.06 92.6931 195.112C92.7729 195.163 92.8357 195.237 92.8734 195.324C92.911 195.411 92.922 195.507 92.9047 195.6C92.8875 195.693 92.8428 195.779 92.7765 195.847C92.7102 195.915 92.6252 195.961 92.5323 195.981C92.4395 196 92.343 195.991 92.2552 195.955C92.1675 195.919 92.0923 195.858 92.0394 195.78C91.9865 195.701 91.9582 195.608 91.9582 195.513C91.9526 195.448 91.9605 195.383 91.9813 195.321C92.0022 195.259 92.0355 195.202 92.0793 195.153C92.1231 195.104 92.1764 195.065 92.2359 195.038C92.2955 195.011 92.3599 194.997 92.4253 194.995V195.036ZM84.2005 195.036C84.2949 195.036 84.3871 195.064 84.4656 195.117C84.5441 195.169 84.6053 195.244 84.6414 195.331C84.6775 195.418 84.687 195.514 84.6686 195.606C84.6501 195.699 84.6047 195.784 84.5379 195.851C84.4712 195.918 84.3861 195.963 84.2936 195.981C84.201 196 84.105 195.99 84.0178 195.954C83.9306 195.918 83.8561 195.857 83.8037 195.778C83.7512 195.7 83.7232 195.608 83.7232 195.513C83.7176 195.447 83.7257 195.381 83.7472 195.318C83.7686 195.256 83.8029 195.198 83.8478 195.149C83.8927 195.101 83.9472 195.062 84.008 195.035C84.0687 195.009 84.1342 194.995 84.2005 194.995V195.036ZM75.9757 195.036C76.07 195.036 76.1623 195.064 76.2408 195.117C76.3193 195.169 76.3804 195.244 76.4166 195.331C76.4527 195.418 76.4621 195.514 76.4437 195.606C76.4253 195.699 76.3799 195.784 76.3131 195.851C76.2464 195.918 76.1613 195.963 76.0687 195.981C75.9762 196 75.8802 195.99 75.793 195.954C75.7058 195.918 75.6313 195.857 75.5788 195.778C75.5264 195.7 75.4984 195.608 75.4984 195.513C75.4928 195.447 75.5009 195.381 75.5224 195.318C75.5438 195.256 75.5781 195.198 75.623 195.149C75.6679 195.101 75.7224 195.062 75.7831 195.035C75.8438 195.009 75.9094 194.995 75.9757 194.995V195.036ZM67.7508 195.036C67.8452 195.036 67.9375 195.064 68.016 195.117C68.0944 195.169 68.1556 195.244 68.1918 195.331C68.2279 195.418 68.2373 195.514 68.2189 195.606C68.2005 195.699 68.155 195.784 68.0883 195.851C68.0215 195.918 67.9365 195.963 67.8439 195.981C67.7514 196 67.6554 195.99 67.5682 195.954C67.481 195.918 67.4065 195.857 67.354 195.778C67.3016 195.7 67.2736 195.608 67.2736 195.513C67.2676 195.445 67.2765 195.376 67.2997 195.311C67.3229 195.246 67.36 195.187 67.4082 195.138C67.4565 195.088 67.5148 195.05 67.5792 195.026C67.6436 195.001 67.7125 194.991 67.7813 194.995L67.7508 195.036ZM59.526 195.036C59.6204 195.036 59.7127 195.064 59.7911 195.117C59.8696 195.169 59.9308 195.244 59.9669 195.331C60.0031 195.418 60.0125 195.514 59.9941 195.606C59.9757 195.699 59.9302 195.784 59.8635 195.851C59.7967 195.918 59.7117 195.963 59.6191 195.981C59.5265 196 59.4306 195.99 59.3434 195.954C59.2562 195.918 59.1816 195.857 59.1292 195.778C59.0768 195.7 59.0488 195.608 59.0488 195.513C59.0431 195.447 59.0513 195.381 59.0727 195.318C59.0942 195.256 59.1284 195.198 59.1733 195.149C59.2182 195.101 59.2728 195.062 59.3335 195.035C59.3942 195.009 59.4598 194.995 59.526 194.995V195.036ZM96.5478 213.476C96.6422 213.476 96.7345 213.504 96.813 213.556C96.8915 213.609 96.9526 213.683 96.9888 213.771C97.0249 213.858 97.0343 213.954 97.0159 214.046C96.9975 214.139 96.9521 214.224 96.8853 214.291C96.8186 214.357 96.7335 214.403 96.641 214.421C96.5484 214.44 96.4524 214.43 96.3652 214.394C96.278 214.358 96.2035 214.297 96.151 214.218C96.0986 214.14 96.0706 214.048 96.0706 213.953C96.065 213.887 96.0731 213.821 96.0946 213.758C96.116 213.695 96.1503 213.638 96.1952 213.589C96.2401 213.54 96.2946 213.502 96.3553 213.475C96.416 213.449 96.4816 213.435 96.5478 213.435V213.476ZM88.3129 213.476C88.4073 213.476 88.4995 213.504 88.578 213.556C88.6565 213.609 88.7177 213.683 88.7538 213.771C88.7899 213.858 88.7994 213.954 88.781 214.046C88.7625 214.139 88.7171 214.224 88.6503 214.291C88.5836 214.357 88.4986 214.403 88.406 214.421C88.3134 214.44 88.2174 214.43 88.1302 214.394C88.043 214.358 87.9685 214.297 87.9161 214.218C87.8636 214.14 87.8356 214.048 87.8356 213.953C87.83 213.887 87.8382 213.821 87.8596 213.758C87.8811 213.695 87.9153 213.638 87.9602 213.589C88.0051 213.54 88.0596 213.502 88.1204 213.475C88.1811 213.449 88.2466 213.435 88.3129 213.435V213.476ZM80.0881 213.476C80.1824 213.476 80.2747 213.504 80.3532 213.556C80.4317 213.609 80.4929 213.683 80.529 213.771C80.5651 213.858 80.5745 213.954 80.5561 214.046C80.5377 214.139 80.4923 214.224 80.4255 214.291C80.3588 214.357 80.2737 214.403 80.1812 214.421C80.0886 214.44 79.9926 214.43 79.9054 214.394C79.8182 214.358 79.7437 214.297 79.6913 214.218C79.6388 214.14 79.6108 214.048 79.6108 213.953C79.6052 213.887 79.6133 213.821 79.6348 213.758C79.6562 213.695 79.6905 213.638 79.7354 213.589C79.7803 213.54 79.8348 213.502 79.8955 213.475C79.9562 213.449 80.0218 213.435 80.0881 213.435V213.476ZM71.8632 213.476C71.9576 213.476 72.0499 213.504 72.1284 213.556C72.2069 213.609 72.268 213.683 72.3042 213.771C72.3403 213.858 72.3497 213.954 72.3313 214.046C72.3129 214.139 72.2674 214.224 72.2007 214.291C72.1339 214.357 72.0489 214.403 71.9563 214.421C71.8638 214.44 71.7678 214.43 71.6806 214.394C71.5934 214.358 71.5189 214.297 71.4664 214.218C71.414 214.14 71.386 214.048 71.386 213.953C71.3804 213.889 71.388 213.824 71.4082 213.763C71.4284 213.701 71.4609 213.645 71.5036 213.596C71.5463 213.548 71.5984 213.509 71.6568 213.481C71.7151 213.453 71.7784 213.438 71.8429 213.435L71.8632 213.476ZM63.6384 213.476C63.7328 213.476 63.8251 213.504 63.9036 213.556C63.982 213.609 64.0432 213.683 64.0793 213.771C64.1154 213.858 64.1249 213.954 64.1065 214.046C64.0881 214.139 64.0426 214.224 63.9759 214.291C63.9091 214.357 63.8241 214.403 63.7315 214.421C63.6389 214.44 63.543 214.43 63.4558 214.394C63.3686 214.358 63.294 214.297 63.2416 214.218C63.1892 214.14 63.1612 214.048 63.1612 213.953C63.1556 213.887 63.1637 213.821 63.1851 213.758C63.2066 213.695 63.2408 213.638 63.2857 213.589C63.3306 213.54 63.3852 213.502 63.4459 213.475C63.5066 213.449 63.5722 213.435 63.6384 213.435V213.476ZM55.4136 213.476C55.508 213.476 55.6003 213.504 55.6787 213.556C55.7572 213.609 55.8184 213.683 55.8545 213.771C55.8906 213.858 55.9001 213.954 55.8817 214.046C55.8633 214.139 55.8178 214.224 55.7511 214.291C55.6843 214.357 55.5993 214.403 55.5067 214.421C55.4141 214.44 55.3182 214.43 55.231 214.394C55.1438 214.358 55.0692 214.297 55.0168 214.218C54.9643 214.14 54.9364 214.048 54.9364 213.953C54.9307 213.887 54.9389 213.821 54.9603 213.758C54.9818 213.695 55.016 213.638 55.0609 213.589C55.1058 213.54 55.1604 213.502 55.2211 213.475C55.2818 213.449 55.3474 213.435 55.4136 213.435V213.476ZM92.4253 207.383C92.5201 207.381 92.6133 207.408 92.6931 207.459C92.7729 207.51 92.8357 207.584 92.8734 207.671C92.911 207.758 92.922 207.854 92.9047 207.947C92.8875 208.041 92.8428 208.127 92.7765 208.194C92.7102 208.262 92.6252 208.309 92.5323 208.328C92.4395 208.347 92.343 208.338 92.2552 208.303C92.1675 208.267 92.0923 208.206 92.0394 208.127C91.9865 208.048 91.9582 207.956 91.9582 207.861C91.9511 207.795 91.9579 207.728 91.9781 207.665C91.9982 207.602 92.0313 207.543 92.0753 207.494C92.1192 207.444 92.173 207.404 92.2333 207.376C92.2936 207.349 92.359 207.334 92.4253 207.333V207.383ZM84.2005 207.383C84.2949 207.383 84.3871 207.411 84.4656 207.464C84.5441 207.516 84.6053 207.591 84.6414 207.678C84.6775 207.765 84.687 207.861 84.6686 207.954C84.6501 208.046 84.6047 208.131 84.5379 208.198C84.4712 208.265 84.3861 208.31 84.2936 208.329C84.201 208.347 84.105 208.338 84.0178 208.302C83.9306 208.266 83.8561 208.204 83.8037 208.126C83.7512 208.047 83.7232 207.955 83.7232 207.861C83.7161 207.794 83.7231 207.726 83.7439 207.662C83.7646 207.599 83.7987 207.54 83.8437 207.49C83.8888 207.44 83.9438 207.4 84.0053 207.373C84.0668 207.346 84.1333 207.332 84.2005 207.333V207.383ZM75.9757 207.383C76.07 207.383 76.1623 207.411 76.2408 207.464C76.3193 207.516 76.3804 207.591 76.4166 207.678C76.4527 207.765 76.4621 207.861 76.4437 207.954C76.4253 208.046 76.3799 208.131 76.3131 208.198C76.2464 208.265 76.1613 208.31 76.0687 208.329C75.9762 208.347 75.8802 208.338 75.793 208.302C75.7058 208.266 75.6313 208.204 75.5788 208.126C75.5264 208.047 75.4984 207.955 75.4984 207.861C75.4913 207.794 75.4983 207.726 75.519 207.662C75.5398 207.599 75.5738 207.54 75.6189 207.49C75.6639 207.44 75.719 207.4 75.7805 207.373C75.842 207.346 75.9085 207.332 75.9757 207.333V207.383ZM67.7508 207.383C67.8452 207.383 67.9375 207.411 68.016 207.464C68.0944 207.516 68.1556 207.591 68.1918 207.678C68.2279 207.765 68.2373 207.861 68.2189 207.954C68.2005 208.046 68.155 208.131 68.0883 208.198C68.0215 208.265 67.9365 208.31 67.8439 208.329C67.7514 208.347 67.6554 208.338 67.5682 208.302C67.481 208.266 67.4065 208.204 67.354 208.126C67.3016 208.047 67.2736 207.955 67.2736 207.861C67.266 207.791 67.2737 207.721 67.2962 207.655C67.3188 207.589 67.3556 207.528 67.404 207.478C67.4524 207.428 67.5113 207.389 67.5765 207.363C67.6417 207.338 67.7116 207.328 67.7813 207.333L67.7508 207.383ZM59.526 207.383C59.6204 207.383 59.7127 207.411 59.7911 207.464C59.8696 207.516 59.9308 207.591 59.9669 207.678C60.0031 207.765 60.0125 207.861 59.9941 207.954C59.9757 208.046 59.9302 208.131 59.8635 208.198C59.7967 208.265 59.7117 208.31 59.6191 208.329C59.5265 208.347 59.4306 208.338 59.3434 208.302C59.2562 208.266 59.1816 208.204 59.1292 208.126C59.0768 208.047 59.0488 207.955 59.0488 207.861C59.0416 207.794 59.0487 207.726 59.0694 207.662C59.0902 207.599 59.1242 207.54 59.1692 207.49C59.2143 207.44 59.2694 207.4 59.3308 207.373C59.3923 207.346 59.4588 207.332 59.526 207.333V207.383ZM92.4253 219.721C92.5201 219.719 92.6133 219.745 92.6931 219.796C92.7729 219.847 92.8357 219.921 92.8734 220.008C92.911 220.095 92.922 220.191 92.9047 220.285C92.8875 220.378 92.8428 220.464 92.7765 220.532C92.7102 220.599 92.6252 220.646 92.5323 220.665C92.4395 220.684 92.343 220.676 92.2552 220.64C92.1675 220.604 92.0923 220.543 92.0394 220.464C91.9865 220.385 91.9582 220.293 91.9582 220.198C91.9511 220.132 91.9579 220.065 91.9781 220.002C91.9982 219.939 92.0313 219.881 92.0753 219.831C92.1192 219.781 92.173 219.741 92.2333 219.714C92.2936 219.686 92.359 219.671 92.4253 219.67V219.721ZM84.2005 219.721C84.2949 219.721 84.3871 219.749 84.4656 219.801C84.5441 219.854 84.6053 219.928 84.6414 220.015C84.6775 220.103 84.687 220.199 84.6686 220.291C84.6501 220.384 84.6047 220.469 84.5379 220.535C84.4712 220.602 84.3861 220.648 84.2936 220.666C84.201 220.684 84.105 220.675 84.0178 220.639C83.9306 220.603 83.8561 220.542 83.8037 220.463C83.7512 220.385 83.7232 220.292 83.7232 220.198C83.7161 220.131 83.7231 220.064 83.7439 220C83.7646 219.936 83.7987 219.877 83.8437 219.827C83.8888 219.777 83.9438 219.738 84.0053 219.71C84.0668 219.683 84.1333 219.67 84.2005 219.67V219.721ZM75.9757 219.721C76.07 219.721 76.1623 219.749 76.2408 219.801C76.3193 219.854 76.3804 219.928 76.4166 220.015C76.4527 220.103 76.4621 220.199 76.4437 220.291C76.4253 220.384 76.3799 220.469 76.3131 220.535C76.2464 220.602 76.1613 220.648 76.0687 220.666C75.9762 220.684 75.8802 220.675 75.793 220.639C75.7058 220.603 75.6313 220.542 75.5788 220.463C75.5264 220.385 75.4984 220.292 75.4984 220.198C75.4913 220.131 75.4983 220.064 75.519 220C75.5398 219.936 75.5738 219.877 75.6189 219.827C75.6639 219.777 75.719 219.738 75.7805 219.71C75.842 219.683 75.9085 219.67 75.9757 219.67V219.721ZM67.7508 219.721C67.8452 219.721 67.9375 219.749 68.016 219.801C68.0944 219.854 68.1556 219.928 68.1918 220.015C68.2279 220.103 68.2373 220.199 68.2189 220.291C68.2005 220.384 68.155 220.469 68.0883 220.535C68.0215 220.602 67.9365 220.648 67.8439 220.666C67.7514 220.684 67.6554 220.675 67.5682 220.639C67.481 220.603 67.4065 220.542 67.354 220.463C67.3016 220.385 67.2736 220.292 67.2736 220.198C67.266 220.129 67.2737 220.058 67.2962 219.992C67.3188 219.926 67.3556 219.866 67.404 219.815C67.4524 219.765 67.5113 219.726 67.5765 219.701C67.6417 219.676 67.7116 219.665 67.7813 219.67L67.7508 219.721ZM59.526 219.721C59.6204 219.721 59.7127 219.749 59.7911 219.801C59.8696 219.854 59.9308 219.928 59.9669 220.015C60.0031 220.103 60.0125 220.199 59.9941 220.291C59.9757 220.384 59.9302 220.469 59.8635 220.535C59.7967 220.602 59.7117 220.648 59.6191 220.666C59.5265 220.684 59.4306 220.675 59.3434 220.639C59.2562 220.603 59.1816 220.542 59.1292 220.463C59.0768 220.385 59.0488 220.292 59.0488 220.198C59.0416 220.131 59.0487 220.064 59.0694 220C59.0902 219.936 59.1242 219.877 59.1692 219.827C59.2143 219.777 59.2694 219.738 59.3308 219.71C59.3923 219.683 59.4588 219.67 59.526 219.67V219.721ZM51.3012 219.721C51.4277 219.721 51.5491 219.771 51.6386 219.861C51.7281 219.95 51.7784 220.071 51.7784 220.198C51.7784 220.325 51.7281 220.446 51.6386 220.535C51.5491 220.625 51.4277 220.675 51.3012 220.675C51.1746 220.675 51.0532 220.625 50.9637 220.535C50.8742 220.446 50.8239 220.325 50.8239 220.198C50.8239 220.071 50.8742 219.95 50.9637 219.861C51.0532 219.771 51.1746 219.721 51.3012 219.721V219.721Z" fill="white"/>
<path d="M50.2153 222.28C51.7282 222.127 53.2615 222.148 54.7846 222.107L59.4555 222.016C62.5728 221.955 65.6799 221.914 68.7973 221.884C75.0623 221.823 81.3376 221.67 87.6027 221.884C89.3695 221.944 91.1363 221.995 92.893 222.066C94.6496 222.137 96.4266 222.29 98.1934 222.33C98.2027 222.33 98.212 222.332 98.2206 222.336C98.2292 222.339 98.2371 222.345 98.2437 222.351C98.2503 222.358 98.2555 222.366 98.2591 222.374C98.2626 222.383 98.2645 222.392 98.2645 222.401C98.2645 222.411 98.2626 222.42 98.2591 222.429C98.2555 222.437 98.2503 222.445 98.2437 222.452C98.2371 222.458 98.2292 222.464 98.2206 222.467C98.212 222.471 98.2027 222.472 98.1934 222.472C96.5992 222.472 94.9949 222.544 93.3905 222.564L88.8415 222.615C85.7343 222.615 82.6204 222.615 79.4997 222.615C73.2752 222.615 67.0609 222.483 60.8364 222.452H55.536C53.7793 222.452 51.9922 222.523 50.2457 222.401C50.1442 222.412 50.1239 222.29 50.2153 222.28Z" fill="#263238"/>
<path d="M78.7274 178.191C82.2508 183.928 95.9893 198.011 106.214 200.743C115.181 203.119 136.88 194.041 143.683 190.304C146.232 188.913 138.809 167.397 135.885 168.443C131.955 169.844 111.078 181.846 108.865 181.125C106.651 180.404 89.9984 172.931 86.0992 171.103C77.2246 166.94 73.4371 169.57 78.7274 178.191Z" fill="#F7A9A0"/>
<path d="M135.103 168.92C135.103 168.92 146.425 162.898 148.781 161.538C153.513 158.806 173.059 153.729 175.486 153.932C177.913 154.135 180.319 158.857 164.215 164.736C164.215 164.736 167.677 171.844 165.565 175.063C164.205 177.175 158.793 184.913 156.274 185.887C153.421 186.994 143.683 190.304 143.683 190.304L135.103 168.92Z" fill="#F7A9A0"/>
<path d="M151.289 166.29C151.492 166.29 161.382 163.244 164.966 163.548C168.551 163.853 171.181 168.838 171.059 170.189C170.937 171.539 168.977 179.917 165.393 179.653C161.808 179.389 164.448 173.042 164.377 172.291C164.306 171.539 164.225 170.575 163.545 170.595C162.864 170.615 150.598 175.367 150.598 175.367L151.289 166.29Z" fill="#F7A9A0"/>
<path d="M152.274 169.549C152.477 169.549 162.428 166.503 165.962 166.808C169.495 167.112 172.176 172.098 172.054 173.459C171.932 174.819 170.023 183.176 166.388 182.912C162.753 182.648 165.444 176.302 165.373 175.55C165.302 174.799 165.231 173.834 164.55 173.855C163.87 173.875 151.604 178.627 151.604 178.627L152.274 169.549Z" fill="#F7A9A0"/>
<path d="M152.244 171.479C152.447 171.53 162.682 169.925 166.175 170.778C169.668 171.631 171.557 176.871 171.252 178.241C170.947 179.612 167.779 187.553 164.266 186.771C160.753 185.989 164.266 180.1 164.327 179.338C164.388 178.576 164.439 177.612 163.758 177.541C163.078 177.47 150.253 180.364 150.253 180.364L152.244 171.479Z" fill="#F7A9A0"/>
<path d="M150.294 174.728C153.665 174.078 157.483 173.063 161.037 173.713C164.591 174.363 166.835 179.46 166.632 180.821C166.429 182.181 163.829 190.366 160.265 189.827C156.701 189.289 159.829 183.166 159.798 182.405C159.768 181.643 159.798 180.689 159.108 180.658C158.417 180.628 145.836 184.436 145.836 184.436L150.294 174.728Z" fill="#F7A9A0"/>
<path d="M153.898 163.518C155.664 162.951 157.518 162.707 159.371 162.797C160.531 162.82 161.688 162.926 162.834 163.112C164.528 163.347 166.173 163.851 167.708 164.605C167.809 164.665 167.83 164.787 167.708 164.737C166.13 164.216 164.498 163.876 162.844 163.721C161.676 163.599 160.509 163.508 159.331 163.447C157.512 163.374 155.69 163.429 153.878 163.609C153.878 163.609 153.868 163.528 153.898 163.518Z" fill="#263238"/>
<path d="M154.041 166.757C157.17 166.446 160.323 166.446 163.453 166.757C165.027 166.85 166.561 167.283 167.952 168.026C168.591 168.382 170.693 169.783 171.14 170.707C171.14 170.819 171.079 170.89 171.008 170.798C169.89 169.852 168.646 169.066 167.312 168.463C165.801 167.86 164.21 167.481 162.59 167.336C159.772 167.028 156.937 166.892 154.101 166.93C154.091 166.899 153.716 166.777 154.041 166.757Z" fill="#263238"/>
<path d="M154.639 170.047C157.825 170.095 161.002 170.387 164.144 170.92C165.849 171.13 167.456 171.836 168.764 172.951C169.973 174.124 170.852 175.595 171.312 177.216C171.312 177.307 171.221 177.378 171.17 177.287C170.483 175.846 169.509 174.561 168.307 173.51C166.906 172.427 165.247 171.727 163.494 171.479C160.56 170.894 157.587 170.531 154.599 170.392C154.091 170.271 154.162 170.047 154.639 170.047Z" fill="#263238"/>
<path d="M155.564 173.53C156.772 173.763 159.971 174.403 161.149 174.708C162.241 174.881 163.281 175.294 164.195 175.916C164.914 176.602 165.52 177.397 165.992 178.272C166.562 179.122 166.943 180.085 167.109 181.095C167.383 183.379 165.444 185.065 164.368 186.862C164.317 186.943 164.185 186.862 164.236 186.771C164.794 185.837 165.251 184.842 165.728 183.857C166.253 182.933 166.443 181.857 166.266 180.81C165.999 179.884 165.573 179.012 165.007 178.231C164.552 177.359 163.881 176.618 163.058 176.079C162.077 175.663 161.056 175.35 160.011 175.144C158.996 174.88 157.036 174.373 156.001 174.129C153.858 173.611 153.249 173.083 155.564 173.53Z" fill="#263238"/>
<path d="M149.644 183.268C151.543 183.293 153.437 183.071 155.279 182.608C156.073 182.375 156.844 182.072 157.584 181.704C158.346 181.373 159.035 180.897 159.615 180.303C159.631 180.293 159.649 180.289 159.667 180.291C159.685 180.294 159.702 180.302 159.715 180.315C159.728 180.328 159.736 180.344 159.738 180.362C159.74 180.381 159.736 180.399 159.727 180.414C159.236 180.999 158.688 181.533 158.092 182.009C159.077 182.61 160.144 183.065 161.26 183.359C161.362 183.359 161.321 183.511 161.26 183.511C160.924 183.563 160.581 183.563 160.245 183.511C159.892 183.434 159.55 183.311 159.229 183.146C158.734 182.901 158.271 182.598 157.848 182.242C157.141 182.705 156.362 183.048 155.543 183.258C153.59 183.692 151.574 183.768 149.593 183.481C149.579 183.478 149.566 183.472 149.554 183.463C149.542 183.455 149.533 183.444 149.525 183.432C149.517 183.42 149.512 183.406 149.51 183.392C149.508 183.378 149.508 183.363 149.512 183.349C149.515 183.335 149.521 183.322 149.53 183.31C149.538 183.298 149.549 183.289 149.561 183.281C149.573 183.274 149.587 183.268 149.601 183.266C149.615 183.264 149.63 183.264 149.644 183.268V183.268Z" fill="#263238"/>
<path d="M137.845 165.772L143.775 195.828C143.775 195.828 116.968 203.383 107.748 201.687C98.5281 199.991 85.2771 188.537 79.144 179.348C73.0109 170.158 75.194 165.234 87.4602 170.585C99.7263 175.936 107.768 178.81 109.027 179.023C110.287 179.236 137.845 165.772 137.845 165.772Z" fill="#FF006D"/>
<path d="M137.195 176.891C137.193 176.986 137.219 177.079 137.27 177.159C137.321 177.238 137.395 177.301 137.482 177.339C137.569 177.376 137.665 177.387 137.759 177.37C137.852 177.353 137.938 177.308 138.006 177.242C138.073 177.176 138.12 177.091 138.139 176.998C138.158 176.905 138.15 176.808 138.114 176.721C138.078 176.633 138.017 176.558 137.938 176.505C137.859 176.452 137.767 176.424 137.672 176.424C137.547 176.424 137.427 176.472 137.338 176.56C137.249 176.647 137.197 176.766 137.195 176.891V176.891ZM129.447 176.424C129.542 176.424 129.635 176.452 129.713 176.505C129.792 176.558 129.853 176.633 129.889 176.721C129.925 176.808 129.934 176.905 129.914 176.998C129.895 177.091 129.849 177.176 129.781 177.242C129.713 177.308 129.627 177.353 129.534 177.37C129.441 177.387 129.344 177.376 129.257 177.339C129.17 177.301 129.097 177.238 129.045 177.159C128.994 177.079 128.968 176.986 128.97 176.891C128.973 176.766 129.024 176.647 129.113 176.56C129.202 176.472 129.322 176.424 129.447 176.424V176.424ZM121.222 176.424C121.317 176.424 121.41 176.452 121.489 176.505C121.567 176.558 121.628 176.633 121.664 176.721C121.7 176.808 121.709 176.905 121.69 176.998C121.67 177.091 121.624 177.176 121.556 177.242C121.488 177.308 121.402 177.353 121.309 177.37C121.216 177.387 121.12 177.376 121.033 177.339C120.946 177.301 120.872 177.238 120.821 177.159C120.769 177.079 120.743 176.986 120.745 176.891C120.748 176.766 120.799 176.647 120.888 176.56C120.978 176.472 121.098 176.424 121.222 176.424V176.424ZM96.5479 176.424C96.6427 176.424 96.7354 176.452 96.8141 176.505C96.8928 176.558 96.9539 176.633 96.9897 176.721C97.0255 176.808 97.0344 176.905 97.0151 176.998C96.9959 177.091 96.9494 177.176 96.8816 177.242C96.8139 177.308 96.7279 177.353 96.6346 177.37C96.5414 177.387 96.4451 177.376 96.3581 177.339C96.2711 177.301 96.1973 177.238 96.1461 177.159C96.0949 177.079 96.0686 176.986 96.0707 176.891C96.0733 176.766 96.1248 176.647 96.214 176.56C96.3032 176.472 96.4231 176.424 96.5479 176.424V176.424ZM88.313 176.424C88.4078 176.424 88.5004 176.452 88.5791 176.505C88.6578 176.558 88.7189 176.633 88.7547 176.721C88.7905 176.808 88.7994 176.905 88.7802 176.998C88.7609 177.091 88.7144 177.176 88.6467 177.242C88.5789 177.308 88.4929 177.353 88.3997 177.37C88.3065 177.387 88.2102 177.376 88.1232 177.339C88.0362 177.301 87.9624 177.238 87.9112 177.159C87.86 177.079 87.8337 176.986 87.8357 176.891C87.8384 176.766 87.8898 176.647 87.979 176.56C88.0682 176.472 88.1881 176.424 88.313 176.424V176.424ZM80.0881 176.424C80.1829 176.424 80.2756 176.452 80.3543 176.505C80.433 176.558 80.4941 176.633 80.5299 176.721C80.5657 176.808 80.5746 176.905 80.5553 176.998C80.5361 177.091 80.4896 177.176 80.4218 177.242C80.3541 177.308 80.2681 177.353 80.1749 177.37C80.0816 177.387 79.9854 177.376 79.8984 177.339C79.8114 177.301 79.7375 177.238 79.6863 177.159C79.6351 177.079 79.6089 176.986 79.6109 176.891C79.6135 176.766 79.665 176.647 79.7542 176.56C79.8434 176.472 79.9633 176.424 80.0881 176.424V176.424ZM133.56 170.331C133.654 170.331 133.746 170.359 133.825 170.412C133.903 170.464 133.964 170.539 134.001 170.626C134.037 170.713 134.046 170.809 134.028 170.902C134.009 170.994 133.964 171.079 133.897 171.146C133.83 171.213 133.745 171.258 133.653 171.276C133.56 171.295 133.464 171.285 133.377 171.249C133.29 171.213 133.215 171.152 133.163 171.074C133.11 170.995 133.082 170.903 133.082 170.808C133.074 170.741 133.08 170.672 133.1 170.607C133.12 170.542 133.153 170.482 133.199 170.431C133.244 170.38 133.299 170.339 133.362 170.311C133.424 170.284 133.491 170.27 133.56 170.27V170.331ZM84.2006 170.331C84.2949 170.331 84.3872 170.359 84.4657 170.412C84.5442 170.464 84.6053 170.539 84.6415 170.626C84.6776 170.713 84.687 170.809 84.6686 170.902C84.6502 170.994 84.6048 171.079 84.538 171.146C84.4713 171.213 84.3862 171.258 84.2936 171.276C84.2011 171.295 84.1051 171.285 84.0179 171.249C83.9307 171.213 83.8562 171.152 83.8037 171.074C83.7513 170.995 83.7233 170.903 83.7233 170.808C83.7146 170.741 83.7205 170.672 83.7405 170.607C83.7606 170.542 83.7944 170.482 83.8396 170.431C83.8848 170.38 83.9404 170.339 84.0027 170.311C84.0649 170.284 84.1324 170.27 84.2006 170.27V170.331ZM75.9757 170.331C76.0701 170.331 76.1624 170.359 76.2409 170.412C76.3193 170.464 76.3805 170.539 76.4166 170.626C76.4527 170.713 76.4622 170.809 76.4438 170.902C76.4254 170.994 76.3799 171.079 76.3132 171.146C76.2464 171.213 76.1614 171.258 76.0688 171.276C75.9762 171.295 75.8803 171.285 75.7931 171.249C75.7059 171.213 75.6313 171.152 75.5789 171.074C75.5265 170.995 75.4985 170.903 75.4985 170.808C75.4898 170.741 75.4957 170.672 75.5157 170.607C75.5358 170.542 75.5695 170.482 75.6147 170.431C75.66 170.38 75.7156 170.339 75.7778 170.311C75.8401 170.284 75.9076 170.27 75.9757 170.27V170.331ZM137.672 188.781C137.766 188.781 137.859 188.809 137.937 188.862C138.016 188.914 138.077 188.989 138.113 189.076C138.149 189.163 138.158 189.259 138.14 189.352C138.122 189.444 138.076 189.529 138.009 189.596C137.943 189.663 137.858 189.708 137.765 189.726C137.673 189.745 137.577 189.735 137.489 189.699C137.402 189.663 137.328 189.602 137.275 189.524C137.223 189.445 137.195 189.353 137.195 189.258C137.192 189.194 137.202 189.13 137.225 189.07C137.248 189.009 137.283 188.954 137.327 188.908C137.372 188.861 137.425 188.824 137.485 188.799C137.544 188.774 137.608 188.761 137.672 188.761V188.781ZM129.447 188.781C129.542 188.781 129.634 188.809 129.712 188.862C129.791 188.914 129.852 188.989 129.888 189.076C129.924 189.163 129.934 189.259 129.915 189.352C129.897 189.444 129.851 189.529 129.785 189.596C129.718 189.663 129.633 189.708 129.54 189.726C129.448 189.745 129.352 189.735 129.265 189.699C129.177 189.663 129.103 189.602 129.05 189.524C128.998 189.445 128.97 189.353 128.97 189.258C128.967 189.194 128.978 189.13 129 189.07C129.023 189.009 129.058 188.954 129.102 188.908C129.147 188.861 129.2 188.824 129.26 188.799C129.319 188.774 129.383 188.761 129.447 188.761V188.781ZM121.222 188.781C121.317 188.781 121.409 188.809 121.488 188.862C121.566 188.914 121.627 188.989 121.663 189.076C121.699 189.163 121.709 189.259 121.69 189.352C121.672 189.444 121.627 189.529 121.56 189.596C121.493 189.663 121.408 189.708 121.315 189.726C121.223 189.745 121.127 189.735 121.04 189.699C120.953 189.663 120.878 189.602 120.826 189.524C120.773 189.445 120.745 189.353 120.745 189.258C120.742 189.194 120.753 189.13 120.775 189.07C120.798 189.009 120.833 188.954 120.878 188.908C120.922 188.861 120.976 188.824 121.035 188.799C121.094 188.774 121.158 188.761 121.222 188.761V188.781ZM112.998 188.781C113.092 188.781 113.184 188.809 113.263 188.862C113.341 188.914 113.402 188.989 113.438 189.076C113.475 189.163 113.484 189.259 113.466 189.352C113.447 189.444 113.402 189.529 113.335 189.596C113.268 189.663 113.183 189.708 113.091 189.726C112.998 189.745 112.902 189.735 112.815 189.699C112.728 189.663 112.653 189.602 112.601 189.524C112.548 189.445 112.52 189.353 112.52 189.258C112.518 189.194 112.528 189.13 112.551 189.07C112.573 189.009 112.608 188.954 112.653 188.908C112.697 188.861 112.751 188.824 112.81 188.799C112.869 188.774 112.933 188.761 112.998 188.761V188.781ZM104.773 188.781C104.867 188.781 104.959 188.809 105.038 188.862C105.116 188.914 105.178 188.989 105.214 189.076C105.25 189.163 105.259 189.259 105.241 189.352C105.222 189.444 105.177 189.529 105.11 189.596C105.043 189.663 104.958 189.708 104.866 189.726C104.773 189.745 104.677 189.735 104.59 189.699C104.503 189.663 104.428 189.602 104.376 189.524C104.323 189.445 104.295 189.353 104.295 189.258C104.293 189.194 104.303 189.13 104.326 189.07C104.349 189.009 104.383 188.954 104.428 188.908C104.472 188.861 104.526 188.824 104.585 188.799C104.645 188.774 104.708 188.761 104.773 188.761V188.781ZM96.5479 188.781C96.6423 188.781 96.7346 188.809 96.8131 188.862C96.8916 188.914 96.9527 188.989 96.9888 189.076C97.025 189.163 97.0344 189.259 97.016 189.352C96.9976 189.444 96.9521 189.529 96.8854 189.596C96.8187 189.663 96.7336 189.708 96.641 189.726C96.5485 189.745 96.4525 189.735 96.3653 189.699C96.2781 189.663 96.2035 189.602 96.1511 189.524C96.0987 189.445 96.0707 189.353 96.0707 189.258C96.0679 189.194 96.0782 189.13 96.101 189.07C96.1238 189.009 96.1585 188.954 96.2031 188.908C96.2477 188.861 96.3012 188.824 96.3605 188.799C96.4197 188.774 96.4835 188.761 96.5479 188.761V188.781ZM88.313 188.781C88.4073 188.781 88.4996 188.809 88.5781 188.862C88.6566 188.914 88.7178 188.989 88.7539 189.076C88.79 189.163 88.7994 189.259 88.781 189.352C88.7626 189.444 88.7172 189.529 88.6504 189.596C88.5837 189.663 88.4986 189.708 88.4061 189.726C88.3135 189.745 88.2175 189.735 88.1303 189.699C88.0431 189.663 87.9686 189.602 87.9162 189.524C87.8637 189.445 87.8357 189.353 87.8357 189.258C87.833 189.194 87.8433 189.13 87.866 189.07C87.8888 189.009 87.9235 188.954 87.9681 188.908C88.0127 188.861 88.0662 188.824 88.1255 188.799C88.1848 188.774 88.2485 188.761 88.313 188.761V188.781ZM133.56 182.689C133.654 182.689 133.747 182.717 133.826 182.77C133.904 182.823 133.966 182.898 134.001 182.986C134.037 183.074 134.046 183.17 134.027 183.263C134.008 183.356 133.961 183.441 133.893 183.507C133.826 183.573 133.74 183.618 133.646 183.635C133.553 183.652 133.457 183.642 133.37 183.604C133.283 183.566 133.209 183.503 133.158 183.424C133.107 183.344 133.08 183.251 133.082 183.156C133.08 183.091 133.09 183.027 133.113 182.967C133.135 182.907 133.17 182.852 133.215 182.805C133.259 182.759 133.313 182.722 133.372 182.696C133.431 182.671 133.495 182.658 133.56 182.658V182.689ZM125.335 182.689C125.43 182.689 125.522 182.717 125.601 182.77C125.68 182.823 125.741 182.898 125.777 182.986C125.812 183.074 125.821 183.17 125.802 183.263C125.783 183.356 125.736 183.441 125.668 183.507C125.601 183.573 125.515 183.618 125.422 183.635C125.328 183.652 125.232 183.642 125.145 183.604C125.058 183.566 124.984 183.503 124.933 183.424C124.882 183.344 124.856 183.251 124.858 183.156C124.855 183.091 124.865 183.027 124.888 182.967C124.911 182.907 124.945 182.852 124.99 182.805C125.035 182.759 125.088 182.722 125.147 182.696C125.207 182.671 125.27 182.658 125.335 182.658V182.689ZM117.11 182.689C117.205 182.689 117.297 182.717 117.376 182.77C117.455 182.823 117.516 182.898 117.552 182.986C117.588 183.074 117.596 183.17 117.577 183.263C117.558 183.356 117.511 183.441 117.444 183.507C117.376 183.573 117.29 183.618 117.197 183.635C117.103 183.652 117.007 183.642 116.92 183.604C116.833 183.566 116.759 183.503 116.708 183.424C116.657 183.344 116.631 183.251 116.633 183.156C116.63 183.091 116.64 183.027 116.663 182.967C116.686 182.907 116.721 182.852 116.765 182.805C116.81 182.759 116.863 182.722 116.923 182.696C116.982 182.671 117.046 182.658 117.11 182.658V182.689ZM108.885 182.689C108.98 182.689 109.073 182.717 109.151 182.77C109.23 182.823 109.291 182.898 109.327 182.986C109.363 183.074 109.372 183.17 109.352 183.263C109.333 183.356 109.287 183.441 109.219 183.507C109.151 183.573 109.065 183.618 108.972 183.635C108.879 183.652 108.782 183.642 108.695 183.604C108.608 183.566 108.535 183.503 108.483 183.424C108.432 183.344 108.406 183.251 108.408 183.156C108.405 183.091 108.415 183.027 108.438 182.967C108.461 182.907 108.496 182.852 108.54 182.805C108.585 182.759 108.638 182.722 108.698 182.696C108.757 182.671 108.821 182.658 108.885 182.658V182.689ZM100.66 182.689C100.755 182.689 100.848 182.717 100.926 182.77C101.005 182.823 101.066 182.898 101.102 182.986C101.138 183.074 101.147 183.17 101.128 183.263C101.108 183.356 101.062 183.441 100.994 183.507C100.926 183.573 100.84 183.618 100.747 183.635C100.654 183.652 100.558 183.642 100.471 183.604C100.384 183.566 100.31 183.503 100.259 183.424C100.207 183.344 100.181 183.251 100.183 183.156C100.18 183.091 100.191 183.027 100.213 182.967C100.236 182.907 100.271 182.852 100.315 182.805C100.36 182.759 100.414 182.722 100.473 182.696C100.532 182.671 100.596 182.658 100.66 182.658V182.689ZM92.4253 182.689C92.5206 182.687 92.6142 182.713 92.6943 182.765C92.7743 182.817 92.837 182.891 92.8744 182.979C92.9117 183.066 92.922 183.163 92.904 183.256C92.8859 183.35 92.8402 183.436 92.7729 183.503C92.7055 183.571 92.6196 183.616 92.5261 183.634C92.4325 183.653 92.3357 183.642 92.2481 183.605C92.1605 183.567 92.0861 183.505 92.0345 183.425C91.9828 183.345 91.9563 183.251 91.9583 183.156C91.9555 183.092 91.9655 183.029 91.9877 182.969C92.0098 182.91 92.0436 182.855 92.0871 182.809C92.1307 182.762 92.183 182.725 92.2411 182.699C92.2991 182.674 92.3618 182.66 92.4253 182.658V182.689ZM84.2006 182.689C84.2954 182.689 84.388 182.717 84.4667 182.77C84.5454 182.823 84.6065 182.898 84.6423 182.986C84.6782 183.074 84.687 183.17 84.6677 183.263C84.6485 183.356 84.602 183.441 84.5342 183.507C84.4665 183.573 84.3805 183.618 84.2873 183.635C84.194 183.652 84.0978 183.642 84.0108 183.604C83.9237 183.566 83.8499 183.503 83.7987 183.424C83.7475 183.344 83.7213 183.251 83.7233 183.156C83.7206 183.091 83.7309 183.027 83.7536 182.967C83.7764 182.907 83.8111 182.852 83.8557 182.805C83.9003 182.759 83.9538 182.722 84.0131 182.696C84.0723 182.671 84.1361 182.658 84.2006 182.658V182.689ZM112.998 201.129C113.092 201.129 113.184 201.157 113.263 201.209C113.341 201.261 113.402 201.336 113.438 201.423C113.475 201.51 113.484 201.606 113.466 201.699C113.447 201.792 113.402 201.877 113.335 201.943C113.268 202.01 113.183 202.055 113.091 202.074C112.998 202.092 112.902 202.083 112.815 202.047C112.728 202.011 112.653 201.949 112.601 201.871C112.548 201.792 112.52 201.7 112.52 201.606C112.516 201.541 112.525 201.475 112.548 201.414C112.57 201.352 112.604 201.296 112.649 201.248C112.694 201.201 112.748 201.163 112.808 201.137C112.868 201.111 112.932 201.098 112.998 201.098V201.129ZM141.784 195.036C141.879 195.034 141.972 195.06 142.052 195.112C142.132 195.163 142.195 195.237 142.233 195.324C142.27 195.411 142.281 195.507 142.264 195.6C142.247 195.693 142.202 195.779 142.136 195.847C142.069 195.915 141.984 195.961 141.891 195.981C141.799 196 141.702 195.991 141.614 195.955C141.527 195.919 141.451 195.858 141.399 195.78C141.346 195.701 141.317 195.608 141.317 195.513C141.312 195.448 141.32 195.383 141.34 195.321C141.361 195.259 141.395 195.202 141.438 195.153C141.482 195.104 141.536 195.065 141.595 195.038C141.655 195.011 141.719 194.997 141.784 194.996V195.036ZM133.56 195.036C133.654 195.036 133.746 195.064 133.825 195.117C133.903 195.169 133.964 195.244 134.001 195.331C134.037 195.418 134.046 195.514 134.028 195.606C134.009 195.699 133.964 195.784 133.897 195.851C133.83 195.918 133.745 195.963 133.653 195.981C133.56 196 133.464 195.99 133.377 195.954C133.29 195.918 133.215 195.857 133.163 195.779C133.11 195.7 133.082 195.608 133.082 195.513C133.077 195.447 133.085 195.381 133.106 195.318C133.128 195.256 133.162 195.198 133.207 195.149C133.252 195.101 133.306 195.062 133.367 195.035C133.428 195.009 133.493 194.995 133.56 194.996V195.036ZM125.335 195.036C125.429 195.036 125.521 195.064 125.6 195.117C125.678 195.169 125.74 195.244 125.776 195.331C125.812 195.418 125.821 195.514 125.803 195.606C125.784 195.699 125.739 195.784 125.672 195.851C125.605 195.918 125.52 195.963 125.428 195.981C125.335 196 125.239 195.99 125.152 195.954C125.065 195.918 124.99 195.857 124.938 195.779C124.886 195.7 124.858 195.608 124.858 195.513C124.852 195.447 124.86 195.381 124.882 195.318C124.903 195.256 124.937 195.198 124.982 195.149C125.027 195.101 125.082 195.062 125.142 195.035C125.203 195.009 125.269 194.995 125.335 194.996V195.036ZM117.11 195.036C117.204 195.036 117.297 195.064 117.375 195.117C117.454 195.169 117.515 195.244 117.551 195.331C117.587 195.418 117.596 195.514 117.578 195.606C117.56 195.699 117.514 195.784 117.447 195.851C117.381 195.918 117.296 195.963 117.203 195.981C117.11 196 117.015 195.99 116.927 195.954C116.84 195.918 116.766 195.857 116.713 195.779C116.661 195.7 116.633 195.608 116.633 195.513C116.627 195.447 116.635 195.381 116.657 195.318C116.678 195.256 116.712 195.198 116.757 195.149C116.802 195.101 116.857 195.062 116.917 195.035C116.978 195.009 117.044 194.995 117.11 194.996V195.036ZM108.885 195.036C108.98 195.036 109.072 195.064 109.15 195.117C109.229 195.169 109.29 195.244 109.326 195.331C109.362 195.418 109.372 195.514 109.353 195.606C109.335 195.699 109.289 195.784 109.223 195.851C109.156 195.918 109.071 195.963 108.978 195.981C108.886 196 108.79 195.99 108.703 195.954C108.615 195.918 108.541 195.857 108.488 195.779C108.436 195.7 108.408 195.608 108.408 195.513C108.402 195.447 108.41 195.381 108.432 195.318C108.453 195.256 108.488 195.198 108.532 195.149C108.577 195.101 108.632 195.062 108.693 195.035C108.753 195.009 108.819 194.995 108.885 194.996V195.036ZM100.66 195.036C100.755 195.036 100.847 195.064 100.925 195.117C101.004 195.169 101.065 195.244 101.101 195.331C101.137 195.418 101.147 195.514 101.128 195.606C101.11 195.699 101.065 195.784 100.998 195.851C100.931 195.918 100.846 195.963 100.753 195.981C100.661 196 100.565 195.99 100.478 195.954C100.39 195.918 100.316 195.857 100.264 195.779C100.211 195.7 100.183 195.608 100.183 195.513C100.177 195.447 100.186 195.381 100.207 195.318C100.228 195.256 100.263 195.198 100.308 195.149C100.353 195.101 100.407 195.062 100.468 195.035C100.529 195.009 100.594 194.995 100.66 194.996V195.036Z" fill="white"/>
<path d="M132.991 171.286C133.58 175.489 134.321 179.653 135.306 183.785C135.784 185.816 136.322 187.847 136.911 189.878C137.464 191.835 138.115 193.763 138.86 195.655H138.921C138.566 193.564 138.017 191.472 137.54 189.4C137.063 187.329 136.586 185.4 136.108 183.41C135.093 179.348 134.078 175.286 133.133 171.225C133.123 171.093 132.971 171.133 132.991 171.286ZM85.2667 189.725C87.6732 191.035 90.0899 192.437 92.3746 193.909C94.6593 195.381 96.8424 197.138 99.0459 198.844C99.0572 198.857 99.0641 198.873 99.0655 198.89C99.0669 198.908 99.0627 198.925 99.0537 198.94C99.0446 198.954 99.0311 198.966 99.0151 198.972C98.9991 198.979 98.9814 198.98 98.9646 198.976C96.6393 197.493 94.2531 196.133 91.9684 194.559L91.1764 194.01C90.5875 193.848 89.9985 193.645 89.4096 193.452C88.9576 193.31 88.5135 193.144 88.0794 192.954C87.6387 192.736 87.1842 192.546 86.7188 192.386C86.7015 192.377 86.688 192.362 86.6807 192.344C86.6734 192.326 86.6727 192.306 86.6789 192.288C86.685 192.269 86.6975 192.254 86.7141 192.244C86.7308 192.234 86.7504 192.23 86.7695 192.233C87.2366 192.376 87.724 192.457 88.2012 192.558C88.6644 192.655 89.1194 192.787 89.5619 192.954L89.7955 193.036L85.1855 189.807L85.2261 189.675L85.2667 189.725Z" fill="#263238"/>
<path d="M79.916 153.496C79.916 153.496 76.6261 150.013 75.0117 151.241C73.3972 152.47 76.2708 157.801 78.4539 158.268C78.7299 158.346 79.0189 158.367 79.3033 158.33C79.5878 158.294 79.8619 158.2 80.1093 158.055C80.3567 157.91 80.5723 157.716 80.7433 157.486C80.9142 157.256 81.0369 156.993 81.104 156.714L79.916 153.496Z" fill="#F7A9A0"/>
<path d="M75.9046 152.755V152.805C76.6209 153.038 77.2804 153.418 77.8402 153.922C78.4 154.426 78.8476 155.042 79.154 155.73C79.0478 155.597 78.9143 155.489 78.7624 155.413C78.6106 155.337 78.4441 155.294 78.2744 155.289C78.1046 155.283 77.9356 155.314 77.779 155.379C77.6223 155.445 77.4817 155.544 77.3668 155.669C77.3668 155.669 77.3668 155.76 77.4175 155.74C77.661 155.621 77.9353 155.581 78.2026 155.625C78.4699 155.668 78.7172 155.794 78.9102 155.984C79.2284 156.292 79.5142 156.632 79.7632 156.999C79.8546 157.121 80.078 156.999 80.0069 156.877C79.7124 155.039 77.8847 152.643 75.9046 152.755Z" fill="#263238"/>
</svg>
