<svg width="1196" height="376" viewBox="0 0 1196 376" fill="none" xmlns="http://www.w3.org/2000/svg">
<path d="M259 79.095L268.84 86.1216H324.08V72.0611H268.84L259 79.095Z" fill="#EBEBEB"/>
<path d="M259.08 99.2746L269.4 105.938L324.57 103.942L323.6 89.9034L268.43 91.8924L259.08 99.2746Z" fill="#EBEBEB"/>
<path d="M391.88 89.8599L381.29 96.2986L326.23 93.1047L327.79 79.0878L382.85 82.2817L391.88 89.8599Z" fill="#EBEBEB"/>
<path d="M317.86 246.978H332.79L329.31 66H321.34L317.86 246.978Z" fill="#DBDBDB"/>
<path d="M827.867 36.0881C828.391 41.8489 827.363 47.6283 824.84 53.106C823.662 55.6448 822.18 58.1048 820.412 60.4583C818.198 63.4842 815.915 66.4226 816.019 69.8737C816.451 70.1113 814.895 69.9987 814.877 69.6611C802.769 63.7468 786.666 61.8962 777.844 52.8309C773.882 48.4467 771.629 43.371 771.324 38.1388C770.49 32.3584 771.272 26.5159 773.624 20.9584C775.786 16.4195 780.007 12.2057 786.285 10.2175C792.564 8.22942 800.884 8.87965 807.284 10.7052C821.07 14.669 826.916 26.085 827.867 36.0881Z" fill="#EBEBEB"/>
<path d="M827.578 104.691C826.289 100.416 824.999 96.129 823.657 91.8668C821.025 83.4935 818.272 75.1578 815.099 66.885C813.217 61.9314 811.184 57.0197 808.999 52.1499C809.618 49.188 810.444 46.2507 811.474 43.3491C812.921 39.8413 814.838 36.4844 816.703 33.0773C816.825 32.8635 816.354 32.7252 816.198 32.9264C812.834 37.5783 808.442 43.5125 807.745 49.1954C805.2 43.6802 802.423 38.232 799.414 32.851C799.48 28.4359 800.14 24.0358 801.383 19.7126C801.383 19.677 801.368 19.6424 801.338 19.614C801.309 19.5855 801.267 19.5647 801.22 19.5548C801.173 19.5448 801.122 19.5462 801.076 19.5588C801.03 19.5714 800.991 19.5945 800.965 19.6245C799.461 23.3889 798.624 27.2754 798.473 31.1914C796.149 27.1262 793.662 23.1113 791.013 19.1468C790.769 18.7947 790.072 19.1468 790.281 19.4611C794.359 26.376 798.072 33.4167 801.505 40.5328C796.011 36.5229 789.504 33.3092 782.334 31.0656C782.02 30.9651 781.758 31.2919 782.072 31.4051C789.816 34.3158 796.771 38.2084 802.603 42.8965C805.066 48.1015 807.39 53.3401 809.575 58.6123C802.202 52.5397 791.693 48.2147 781.358 45.6373C780.992 45.5493 780.852 45.9391 781.201 46.0396C793.122 49.3714 802.115 54.8405 810.725 61.416C811.579 63.5407 812.468 65.6781 813.235 67.8154C816.337 75.9122 819.213 84.0467 821.949 92.2063C823.256 96.129 824.528 100.039 825.766 103.962C827.108 108.186 828.049 112.624 829.931 116.723C830.123 117.125 831.082 117.088 830.994 116.622C830.143 112.605 829.003 108.623 827.578 104.691V104.691Z" fill="#DBDBDB"/>
<path d="M814.411 27.098C811.906 29.4323 810.067 32.0963 809 34.9383C809 34.9547 809.009 34.9704 809.025 34.9819C809.041 34.9935 809.063 35 809.086 35C809.109 35 809.131 34.9935 809.147 34.9819C809.163 34.9704 809.172 34.9547 809.172 34.9383C810.877 32.301 812.805 29.7404 814.945 27.2706C815.169 27.0734 814.652 26.8761 814.411 27.098Z" fill="#DBDBDB"/>
<path d="M789.912 44.6839C786.615 43.4181 782.953 42.5089 779.103 42C779.002 42 778.934 42.069 779.103 42.0986C780.795 42.6117 782.655 42.9966 784.415 43.4899C786.174 43.9833 787.883 44.5457 789.659 44.9996C789.723 45.002 789.787 44.993 789.843 44.9738C789.898 44.9546 789.942 44.9262 789.97 44.8921C789.997 44.8581 790.006 44.82 789.996 44.7829C789.986 44.7457 789.957 44.7113 789.912 44.6839V44.6839Z" fill="#DBDBDB"/>
<path d="M785.892 21.7185C784.774 21.0787 783.568 20.5062 782.289 20.0082C782.246 19.9983 782.2 19.9973 782.156 20.0056C782.112 20.0138 782.073 20.0307 782.046 20.0539C782.018 20.0771 782.002 20.1055 782 20.1349C781.999 20.1643 782.011 20.1932 782.037 20.2176C783.149 20.8753 784.356 21.4636 785.64 21.9745C785.82 22.0792 786.18 21.8349 785.892 21.7185Z" fill="#DBDBDB"/>
<path d="M870.138 50.9917C861.168 53.3947 852.146 55.6333 843.194 57.9984C842.414 58.2134 825.15 37.3072 829.791 25.9371C832.017 20.7731 835.793 16.037 840.844 12.0745C845.894 8.11196 852.093 5.02288 858.986 3.03262C865.376 1.12286 873.272 -0.597177 880.25 0.199611C886.449 0.907866 891.09 4.37325 893.428 8.48366C896.631 14.0738 896.302 20.9414 895.315 26.8351C894.615 32.3704 891.96 37.6782 887.61 42.2396C883.125 46.6662 877.116 49.1325 870.138 50.9917Z" fill="#EBEBEB"/>
<path d="M881.722 29.6012C876.042 31.9052 870.114 33.8828 863.995 35.5152C859.904 36.4982 855.939 37.729 852.142 39.1942C855.501 32.7905 859.282 26.4998 863.309 20.2468C869.405 18.8536 874.971 16.4778 879.576 13.3031C879.623 13.2698 879.649 13.2247 879.649 13.1776C879.649 13.1305 879.623 13.0853 879.576 13.052C879.53 13.0187 879.466 13 879.4 13C879.334 13 879.271 13.0187 879.225 13.052C874.427 15.5521 869.275 17.6858 863.854 19.418C864.944 17.7355 866.052 16.053 867.178 14.3955C867.494 13.9309 866.58 13.5166 866.193 13.9812C861.762 19.2315 857.82 24.6844 854.393 30.3043C852.982 25.5603 852.246 20.7268 852.194 15.8772C852.194 15.8505 852.18 15.825 852.153 15.8061C852.127 15.7873 852.091 15.7767 852.054 15.7767C852.016 15.7767 851.98 15.7873 851.954 15.8061C851.928 15.825 851.913 15.8505 851.913 15.8772C851.218 21.2033 851.764 26.575 853.531 31.7734C850.682 36.5574 848.132 41.4292 845.881 46.3512C844.579 43.5135 842.944 40.726 841.783 37.8632C840.016 33.7576 839.191 29.4751 839.339 25.1814C839.339 25.0558 839.092 25.0558 839.075 25.1814C838.104 33.165 840.138 41.1889 844.966 48.423C843.665 51.3738 842.434 54.3496 841.326 57.3129C835.632 72.4604 832.834 88.0881 833.008 103.771C833.027 103.836 833.077 103.894 833.149 103.936C833.221 103.977 833.311 104 833.403 104C833.496 104 833.586 103.977 833.658 103.936C833.73 103.894 833.78 103.836 833.799 103.771C834.884 88.2391 838.196 72.8274 843.682 57.7774C845.863 51.8886 848.466 46.1378 851.385 40.5C856.767 39.0937 862.078 37.2856 867.354 35.7161C872.635 34.3313 877.556 32.3284 881.915 29.7895C882.126 29.7142 881.898 29.5258 881.722 29.6012Z" fill="#DBDBDB"/>
<path d="M889.685 23.0139C884.045 24.6975 878.745 26.959 873.105 28.6677C872.855 28.7431 873.105 29.0446 873.302 28.9944C879.427 28.0395 885.134 26.0612 889.936 23.2275C890.115 23.1144 889.882 22.9511 889.685 23.0139Z" fill="#DBDBDB"/>
<path d="M843 16.22C843 16.0027 842.528 15.9004 842.445 16.1305C841.008 19.9666 840.145 24.0712 842.302 27.8945C842.302 28.0352 842.774 28.0352 842.774 27.8945C842.692 23.9306 841.973 20.1328 843 16.22Z" fill="#DBDBDB"/>
<path d="M865.224 7.10571C863.412 8.83487 862.674 10.8712 863.133 12.877C863.133 13.0117 863.501 13.0679 863.559 12.877C864.101 10.9458 865.205 9.16048 865.999 7.26292C866.005 7.2091 865.981 7.15562 865.929 7.11065C865.878 7.06567 865.803 7.0317 865.715 7.01388C865.627 6.99606 865.531 6.99537 865.443 7.01196C865.354 7.02855 865.278 7.06147 865.224 7.10571V7.10571Z" fill="#DBDBDB"/>
<path d="M896.662 63.2017C895.504 69.6069 891.241 78.7948 881.206 80.1486C874.696 81.026 867.977 81.3143 861.433 82.0914C854.415 82.9062 847.397 83.8087 840.484 84.9995C839.905 85.0998 837.554 69.9579 852.555 60.4566C856.766 57.8118 862.363 56.4204 867.503 54.9162C873.373 53.1001 879.547 51.836 885.872 51.1558C889.75 50.7673 893.118 50.9428 895.206 53.6001C897.294 56.2575 897.224 60.1557 896.662 63.2017Z" fill="#EBEBEB"/>
<path d="M887.445 56.4206C883.526 57.6705 879.608 59.0829 875.742 60.5328C876.601 59.5681 877.534 58.6376 878.536 57.7455C880.047 56.4956 881.769 55.3957 883.439 54.2332C883.579 54.1457 883.439 53.9332 883.245 54.0207C879.555 55.7043 876.603 58.0904 874.723 60.9078C869.891 62.7327 865.147 64.6576 860.666 66.7325C857.523 68.1419 854.58 69.7662 851.88 71.5822C852.485 69.9436 853.29 68.3459 854.288 66.8075C856.045 64.4576 858.751 62.9202 861.316 61.0953C861.37 61.0622 861.403 61.0152 861.408 60.9648C861.413 60.9144 861.389 60.8647 861.343 60.8266C861.296 60.7885 861.23 60.7651 861.159 60.7615C861.088 60.758 861.018 60.7747 860.965 60.8078C858.149 62.1464 855.756 63.8884 853.941 65.9223C852.126 67.9563 850.927 70.2373 850.422 72.6197C847.365 74.8572 844.676 77.3356 842.409 80.0067C833.624 90.4436 827.772 103.543 830.812 115.78C830.812 116.08 831.568 116.067 831.568 115.78C831.415 103.424 835.936 91.2668 844.658 80.5817C845.291 79.8192 845.941 79.0818 846.626 78.3693C849.586 77.6771 852.602 77.1136 855.658 76.6819C859.172 76.2694 862.898 76.1444 866.517 75.8945C872.492 75.4945 879.011 74.707 883.79 71.9322C884.001 71.8072 883.79 71.5322 883.526 71.6447C872.456 76.207 859.067 73.9071 847.663 77.2319C851.874 73.1551 857.126 69.6781 863.144 66.9825L864.145 66.545C871.912 66.22 880.276 66.6075 887.234 63.9077C887.265 63.8878 887.285 63.8615 887.293 63.8327C887.301 63.8039 887.296 63.774 887.278 63.7474C887.261 63.7208 887.231 63.699 887.195 63.6851C887.159 63.6712 887.117 63.666 887.076 63.6702C880.241 65.8575 873.019 65.1326 865.885 65.77C873.019 62.6702 880.416 59.9829 887.585 56.8956C888.2 56.6831 888.113 56.2081 887.445 56.4206Z" fill="#DBDBDB"/>
<path d="M891.782 61.0084C888.24 61.7664 884.641 62.3958 881 62.8938V62.9999C884.805 63.0091 888.555 62.386 891.921 61.1851C892.043 61.1262 892.043 60.9612 891.782 61.0084Z" fill="#DBDBDB"/>
<path d="M865.568 59.0186C863.787 60.0029 862.25 61.2548 861.041 62.7077C860.891 62.8705 861.19 63.1011 861.356 62.9519C862.118 62.3008 862.914 61.6769 863.727 61.0666C864.507 60.5463 865.249 59.9892 865.949 59.3983C865.986 59.3524 866.003 59.2982 866 59.2435C865.996 59.1888 865.971 59.1365 865.928 59.0941C865.886 59.0518 865.828 59.0216 865.763 59.008C865.698 58.9945 865.63 58.9982 865.568 59.0186V59.0186Z" fill="#DBDBDB"/>
<path d="M807.977 81.8373C808.099 82.0404 807.7 82.2308 807.544 82.015C807.479 82.0779 807.387 82.1227 807.283 82.142C800.476 83.3325 793.574 84.2101 786.617 84.7696C781.03 85.1378 774.592 85.3662 769.699 82.9924C763.071 79.7809 758.698 71.1744 762.29 65.716C766.524 59.2166 779.312 62.7455 785.715 65.0559C795.589 68.5736 803.467 74.5114 807.977 81.8373V81.8373Z" fill="#EBEBEB"/>
<path d="M813.306 84.1629C809.575 81.5175 805.432 79.2039 800.963 77.2698C797.75 73.5279 793.482 70.3346 788.446 67.905C788.203 67.7776 787.995 68.0706 788.221 68.1853C792.223 70.5186 795.773 73.2404 798.776 76.276C793.797 74.2837 788.627 72.5591 783.308 71.1158C781.403 68.5285 778.513 66.4036 774.992 65C774.992 65 774.836 65 774.905 65.0764C777.808 66.6997 780.34 68.6524 782.405 70.861C779.263 70.0073 776.086 69.2046 772.909 68.4274C772.631 68.3637 772.51 68.6822 772.787 68.7587C778.447 70.3768 784.228 72.0842 789.818 74.0591C782.987 74.8616 776.025 74.8616 769.194 74.0591C769.003 74.0591 768.916 74.2374 769.107 74.2756C776.237 75.82 783.808 75.9037 790.998 74.5177C794.58 75.791 798.058 77.2162 801.415 78.7861C798.6 78.614 795.767 78.7863 793.03 79.2957C788.195 80.1394 783.243 80.567 778.273 80.5698C778.1 80.5698 778.048 80.7864 778.273 80.8119C786.832 81.8949 794.904 79.0409 803.394 79.7799C806.531 81.3566 809.482 83.1255 812.213 85.0675C817.498 88.9512 821.853 93.4611 825.094 98.4076C828.653 103.733 830.597 109.391 833.479 114.895C833.509 114.935 833.556 114.966 833.613 114.984C833.67 115.002 833.734 115.005 833.794 114.993C833.854 114.981 833.907 114.955 833.944 114.919C833.981 114.883 834.001 114.838 834 114.793C831.448 103.874 824.087 91.8968 813.306 84.1629Z" fill="#DBDBDB"/>
<path d="M786.999 69.8672C786.409 69.0103 785.638 68.2457 784.721 67.6089C783.969 66.9451 783.075 66.3998 782.082 66C781.992 66 781.955 66.0738 782.082 66.1181C782.805 66.797 783.89 67.2989 784.613 67.9484C785.336 68.5978 786.059 69.3505 786.854 70C786.875 70.0001 786.895 69.9967 786.914 69.9898C786.933 69.983 786.95 69.9729 786.963 69.9604C786.977 69.9478 786.987 69.933 786.994 69.9169C787 69.9008 787.001 69.8839 786.999 69.8672Z" fill="#DBDBDB"/>
<path d="M772.918 72.8166C771.641 72.6585 770.293 72.6751 768.999 72.542C767.707 72.3958 766.433 72.2152 765.184 72.0011C765.149 71.9983 765.114 72.0011 765.083 72.009C765.052 72.0169 765.027 72.0296 765.013 72.0449C764.999 72.0602 764.996 72.0773 765.005 72.0935C765.014 72.1097 765.033 72.124 765.061 72.1342C767.418 72.8127 770.178 73.105 772.918 72.9664C772.943 72.9579 772.964 72.9467 772.978 72.9337C772.993 72.9206 773 72.9062 773 72.8915C773 72.8768 772.993 72.8623 772.978 72.8493C772.964 72.8362 772.943 72.825 772.918 72.8166V72.8166Z" fill="#DBDBDB"/>
<path d="M854 96L852.603 107.43L847.836 146H805.701L799.746 107.43L798 96H854Z" fill="#C7C7C7"/>
<path d="M854 96L852.603 107H799.746L798 96H854Z" fill="#A6A6A6"/>
<path d="M858 93H794V102H858V93Z" fill="#C7C7C7"/>
<path d="M275.542 110.5C437.542 171.5 585.542 348 725.042 159.5C828.525 19.6687 955.945 3.65121 1014.84 4.70147C1033.48 5.03375 1046.01 21.6993 1044.01 40.2291L1014.01 318.149C1012.04 336.429 996.606 350.285 978.219 350.285H233.159C217.376 350.285 203.48 340.085 199.567 324.794C181.33 253.51 142.776 60.5078 275.542 110.5Z" fill="url(#paint0_linear)"/>
<path d="M276.276 129.48C412.776 184.48 547.542 352 745.542 156C897.834 5.24663 1082.07 35.8164 1159.02 57.9642C1179.13 63.7528 1187.2 86.2581 1177.4 104.752L1043.92 356.827C1037.68 368.611 1025.44 375.98 1012.1 375.98H56.3703C30.0713 375.98 13.1248 349.028 26.0023 326.098C72.7115 242.925 175.388 88.8296 276.276 129.48Z" fill="url(#paint1_linear)"/>
<defs>
<linearGradient id="paint0_linear" x1="459.042" y1="-63.3801" x2="555.34" y2="357.64" gradientUnits="userSpaceOnUse">
<stop stop-color="#FF62A5"/>
<stop offset="0.905865" stop-color="#FF8EBF"/>
</linearGradient>
<linearGradient id="paint1_linear" x1="324.598" y1="-38.6846" x2="401.344" y2="391.747" gradientUnits="userSpaceOnUse">
<stop offset="0.520833" stop-color="#5498E2"/>
<stop offset="0.905865" stop-color="#3A78BC"/>
</linearGradient>
</defs>
</svg>
