<svg width="442" height="461" viewBox="0 0 442 461" fill="none" xmlns="http://www.w3.org/2000/svg">
<path d="M150.683 448.005C147.898 448.522 71.869 437.559 69.2368 435.302C68.2262 434.456 69.178 423.281 70.7174 409.815C70.7174 409.674 70.7174 409.533 70.7174 409.392C71.0346 406.618 80.7527 360.649 80.7527 360.649L131.634 367.828L119.883 415.925L119.754 416.748C119.754 416.748 146.981 433.963 149.601 436.724C152.222 439.486 153.467 447.512 150.683 448.005Z" fill="#F7A9A0"/>
<path d="M69.2368 435.302C71.869 437.57 147.898 448.534 150.683 448.017C153.468 447.5 152.234 439.533 149.613 436.759C146.993 433.986 119.754 416.783 119.754 416.783L119.907 415.96L121.246 410.402L71.9865 402.952C71.5987 404.914 70.8114 408.968 70.8114 409.38C70.8114 409.521 70.8114 409.662 70.7526 409.791C69.178 423.328 68.2262 434.468 69.2368 435.302Z" fill="#FF006D"/>
<path d="M150.694 448.005C149.26 448.264 128.579 445.502 108.391 442.447C104.337 441.836 100.306 441.272 96.4634 440.602C82.092 438.322 70.2471 436.16 69.2365 435.291C68.2259 434.421 69.1425 423.599 70.6466 410.379C70.6466 410.191 70.6466 410.003 70.6466 409.815C70.6588 409.674 70.6588 409.532 70.6466 409.392H70.7054L119.777 415.913L119.648 416.748C119.648 416.748 146.887 433.963 149.507 436.724C152.128 439.486 153.479 447.512 150.694 448.005Z" fill="#A6A6A6"/>
<path d="M150.248 444.938C137.474 442.776 85.7586 435.267 72.9736 434.092C72.8678 434.092 72.8561 434.163 72.9736 434.174C85.5824 436.595 137.357 443.693 150.236 445.15C150.495 445.185 150.518 444.985 150.248 444.938Z" fill="#263238"/>
<path d="M125.336 416.865C120.436 415.197 114.149 415.079 109.777 418.111C109.613 418.228 109.777 418.475 109.954 418.44C114.997 417.58 120.119 417.265 125.23 417.5C125.305 417.496 125.377 417.467 125.433 417.417C125.489 417.367 125.527 417.299 125.539 417.225C125.551 417.151 125.538 417.075 125.501 417.009C125.464 416.944 125.406 416.893 125.336 416.865Z" fill="#263238"/>
<path d="M128.661 419.58C123.761 417.911 117.474 417.793 113.103 420.837C112.939 420.954 113.103 421.189 113.279 421.166C118.323 420.302 123.444 419.983 128.556 420.214C128.631 420.211 128.702 420.181 128.759 420.131C128.815 420.081 128.852 420.014 128.865 419.94C128.877 419.865 128.864 419.789 128.827 419.724C128.79 419.658 128.731 419.607 128.661 419.58V419.58Z" fill="#263238"/>
<path d="M131.987 422.294C127.086 420.625 120.8 420.52 116.428 423.551C116.264 423.669 116.428 423.904 116.605 423.88C121.649 423.023 126.769 422.704 131.881 422.929C131.956 422.925 132.028 422.896 132.084 422.846C132.14 422.796 132.178 422.728 132.19 422.654C132.202 422.58 132.189 422.504 132.152 422.438C132.115 422.373 132.057 422.322 131.987 422.294V422.294Z" fill="#263238"/>
<path d="M127.227 407.417L70.0473 399.533C70.0473 399.533 84.2894 302 83.8546 299.732C83.3023 296.841 49.7769 160.025 49.7769 160.025H96.6632C96.6632 160.025 135.23 286.935 136.71 299.18C139.143 318.968 127.227 407.417 127.227 407.417Z" fill="#37474F"/>
<path d="M124.537 395.761C114.76 393.763 79.1898 389.474 75.2767 389.627C75.2587 389.633 75.2432 389.645 75.2322 389.661C75.2213 389.677 75.2154 389.695 75.2154 389.715C75.2154 389.734 75.2213 389.753 75.2322 389.768C75.2432 389.784 75.2587 389.796 75.2767 389.803C79.0252 390.919 109.648 395.032 124.537 396.007C124.563 395.999 124.586 395.983 124.602 395.96C124.619 395.938 124.627 395.911 124.627 395.884C124.627 395.856 124.619 395.83 124.602 395.807C124.586 395.785 124.563 395.769 124.537 395.761V395.761Z" fill="#263238"/>
<path d="M60.4588 170.53C61.6338 173.891 62.5739 177.299 63.608 180.683C64.6421 184.067 65.5586 187.487 66.5692 190.883C68.5669 197.604 70.4705 204.361 72.3859 211.106C76.252 224.726 79.93 238.404 83.5376 252.094C85.3237 258.878 87.0903 265.666 88.8373 272.458C90.5764 279.262 92.4213 286.065 93.9842 292.916C94.7868 296.13 95.1309 299.442 95.0065 302.752C94.7266 306.143 94.2637 309.516 93.6199 312.858C92.4918 319.845 91.3598 326.833 90.2239 333.821C87.9442 347.922 85.594 362.024 83.1733 376.125C82.8795 377.852 82.527 379.568 82.198 381.283C82.198 381.377 82.0099 381.354 82.0217 381.283C83.9018 367.264 86.2521 353.304 88.473 339.344C89.5619 332.443 90.6704 325.549 91.7985 318.663C92.386 315.055 92.9736 311.459 93.5494 307.84C94.1617 304.42 94.2883 300.931 93.9254 297.476C93.3779 294.095 92.6364 290.748 91.7045 287.452C90.8584 284.091 90.0123 280.719 89.1545 277.358C87.4311 270.566 85.6762 263.778 83.8901 256.994C80.3178 243.363 76.6672 229.751 72.9382 216.159C69.2093 202.567 65.449 189.061 61.6573 175.642C61.1873 173.962 60.729 172.293 60.306 170.613C60.2825 170.472 60.4353 170.436 60.4588 170.53Z" fill="#263238"/>
<path d="M101.622 460.743C98.9193 461.601 22.1151 460.191 19.2244 458.275C18.1198 457.57 17.6733 446.36 17.5205 432.811V432.388C17.5205 429.591 19.0481 382.764 19.0481 382.764L69.2599 383.539L67.0742 432.729V433.575C67.0742 433.575 96.2283 447.265 99.1895 449.697C102.151 452.13 104.325 459.897 101.622 460.743Z" fill="#F7A9A0"/>
<path d="M17.4621 427.018C17.4621 428.839 17.4621 430.626 17.4621 432.388V432.811C17.6148 446.36 18.0614 457.57 19.1777 458.275C22.0567 460.191 98.8726 461.601 101.575 460.743C104.278 459.885 102.045 452.142 99.1076 449.709C96.1699 447.277 66.9923 433.587 66.9923 433.587V432.741L67.2156 427.512L17.4621 427.018Z" fill="#FF006D"/>
<path d="M101.622 460.743C98.9193 461.601 22.1151 460.191 19.2244 458.275C18.1198 457.57 17.6733 446.36 17.5205 432.811V432.388L67.0742 432.741V433.587C67.0742 433.587 96.2283 447.277 99.1895 449.709C102.151 452.142 104.325 459.897 101.622 460.743Z" fill="#A6A6A6"/>
<path d="M100.8 457.747C87.8736 457.194 35.6054 456.172 22.7616 456.572C22.6676 456.572 22.6559 456.642 22.7616 456.654C35.5819 457.488 87.8383 458.087 100.788 457.923C101.082 457.958 101.082 457.758 100.8 457.747Z" fill="#263238"/>
<path d="M72.5974 432.987C67.521 431.942 61.2695 432.611 57.3212 436.172C57.1684 436.301 57.3212 436.524 57.5327 436.477C62.4293 434.99 67.4723 434.037 72.5739 433.634C72.6498 433.622 72.7193 433.585 72.7704 433.527C72.8215 433.47 72.851 433.397 72.8538 433.32C72.8565 433.244 72.8324 433.168 72.7856 433.108C72.7388 433.047 72.6723 433.004 72.5974 432.987V432.987Z" fill="#263238"/>
<path d="M76.2287 435.267C71.1523 434.221 64.9126 434.891 60.9525 438.452C60.788 438.593 60.9525 438.804 61.1523 438.757C66.0508 437.278 71.093 436.324 76.1935 435.913C76.2698 435.904 76.3404 435.868 76.3928 435.811C76.4452 435.755 76.4762 435.682 76.4804 435.605C76.4846 435.528 76.4617 435.452 76.4157 435.391C76.3697 435.329 76.3036 435.285 76.2287 435.267V435.267Z" fill="#263238"/>
<path d="M79.8712 437.559C74.7948 436.513 68.5433 437.171 64.595 440.731C64.4422 440.872 64.595 441.084 64.8065 441.037C69.7044 439.555 74.7469 438.601 79.8477 438.193C79.9319 438.196 80.0138 438.166 80.0755 438.109C80.1372 438.051 80.1736 437.972 80.1768 437.888C80.1799 437.803 80.1494 437.722 80.0921 437.66C80.0348 437.598 79.9554 437.562 79.8712 437.559V437.559Z" fill="#263238"/>
<path d="M95.1824 160.025C95.1824 160.025 94.1013 182.457 88.9661 200.225C88.5549 201.694 88.1083 203.139 87.6266 204.526C87.6266 204.526 85.5936 204.526 77.4267 209.508L70.6347 424.409L15.3113 423.822C15.3113 423.822 24.1362 309.932 24.0657 302.634C23.96 290.883 30.3995 211.494 29.7297 209.485C22.8554 188.979 34.2303 160.025 34.2303 160.025H95.1824Z" fill="#37474F"/>
<path d="M68.7315 414.174C53.1497 413.234 22.9615 412.999 19.0837 413.598C19.0619 413.598 19.041 413.607 19.0256 413.622C19.0101 413.638 19.0015 413.659 19.0015 413.681C19.0015 413.702 19.0101 413.723 19.0256 413.739C19.041 413.754 19.0619 413.763 19.0837 413.763C22.938 414.456 59.6127 415.161 68.7197 414.421C68.7465 414.414 68.7703 414.399 68.7878 414.377C68.8052 414.356 68.8153 414.329 68.8167 414.302C68.818 414.274 68.8104 414.247 68.7951 414.224C68.7797 414.201 68.7574 414.184 68.7315 414.174V414.174Z" fill="#263238"/>
<path d="M72.1743 324.338C72.848 299.708 73.6862 275.082 74.689 250.46C75.253 236.559 75.8641 222.669 76.6514 208.791C76.6514 208.692 76.691 208.596 76.7615 208.525C76.832 208.455 76.9277 208.415 77.0274 208.415C77.1271 208.415 77.2228 208.455 77.2933 208.525C77.3638 208.596 77.4034 208.692 77.4034 208.791C76.8041 233.562 75.8288 258.31 75.0533 283.069C74.2777 307.828 73.3846 332.329 72.5386 356.959C72.0685 370.849 71.6455 384.75 71.0697 398.64C71.0697 398.68 71.0536 398.719 71.025 398.748C70.9963 398.776 70.9575 398.792 70.9169 398.792C70.8764 398.792 70.8376 398.776 70.8089 398.748C70.7803 398.719 70.7642 398.68 70.7642 398.64C70.8699 373.869 71.5045 349.098 72.1743 324.338Z" fill="#263238"/>
<path d="M28.9311 358.698C30.1062 342.541 31.2813 326.395 32.5151 310.249C33.749 294.103 34.924 277.934 36.1226 261.788C36.7219 253.703 37.2977 245.631 37.9323 237.558L38.8841 225.442C39.3457 221.46 39.585 217.454 39.6009 213.445C39.4482 209.062 37.6033 205.219 36.5809 200.989C35.6556 197.003 35.2371 192.917 35.3354 188.826C35.4411 180.389 37.333 172.081 39.0839 163.867C39.1779 163.421 39.883 163.621 39.7772 164.079C37.7944 171.626 36.5431 179.347 36.0404 187.134C35.8575 191.007 36.1296 194.888 36.8512 198.697C37.568 202.352 39.0956 205.748 39.9535 209.355C40.8113 212.963 40.353 216.935 40.0592 220.707C39.7419 224.749 39.4717 228.791 39.1897 232.822C38.6256 240.742 38.0146 248.651 37.427 256.571C35.0768 288.709 32.7266 320.86 30.1767 352.999C28.7666 371.084 27.568 389.203 25.8171 407.265C25.8171 407.394 25.5938 407.394 25.6056 407.265C26.4399 391.048 27.7795 374.891 28.9311 358.698Z" fill="#263238"/>
<path d="M40.2585 184.432C41.1986 184.067 42.2327 183.973 43.1963 183.691C44.209 183.408 45.2021 183.059 46.1692 182.645C48.0082 181.843 49.7345 180.804 51.3044 179.555C52.7962 178.241 53.9388 176.578 54.6299 174.714C55.0529 173.715 55.4407 172.704 55.805 171.705L56.4161 170.225C56.4983 170.025 57.0271 168.979 57.1211 168.65C57.1017 168.667 57.0766 168.677 57.0506 168.677C57.0246 168.677 56.9995 168.667 56.9801 168.65V168.591C56.9667 168.575 56.9595 168.554 56.9595 168.533C56.9595 168.511 56.9667 168.49 56.9801 168.474C57.0388 168.356 57.0506 168.345 57.1799 168.309C57.2077 168.306 57.236 168.31 57.2611 168.323C57.2863 168.336 57.3071 168.355 57.3209 168.38C57.5089 168.709 57.3209 169.026 57.2386 169.379C57.0623 170.037 56.8978 170.695 56.7333 171.353C56.4278 172.528 56.1223 173.644 55.7697 174.784C55.2093 176.924 54.0519 178.859 52.4325 180.366C50.749 181.783 48.8218 182.882 46.745 183.609C45.6764 184.005 44.5756 184.308 43.4548 184.514C42.4246 184.763 41.3581 184.827 40.3055 184.702C40.0705 184.714 40.1293 184.479 40.2585 184.432Z" fill="#263238"/>
<path d="M84.7479 196.794C84.8771 194.855 85.0299 192.928 85.1944 190.989C85.5822 186.582 86.0405 182.164 86.816 177.804C86.816 177.463 87.3566 177.593 87.3213 177.922C87.0276 181.341 86.6398 184.761 86.3225 188.18C86.0052 191.6 85.5822 195.007 85.5234 198.415C85.5234 199.438 85.5822 201.177 86.8395 201.459C88.5317 201.847 89.3307 199.626 89.742 198.403C90.7099 195.363 91.4176 192.246 91.8572 189.085C92.4213 185.489 92.715 181.846 93.0323 178.239C93.0323 178.098 93.2673 178.121 93.2673 178.239C93.2673 185.419 93.185 192.928 90.5058 199.708C90.3129 200.405 89.9345 201.036 89.411 201.535C88.8874 202.034 88.2383 202.381 87.5328 202.54H87.4623C87.4749 202.578 87.4749 202.619 87.4623 202.657C87.4623 202.857 87.3801 203.057 87.3448 203.257C87.3096 203.456 87.2861 203.597 87.2508 203.762C87.1803 204.114 87.1216 204.467 87.0393 204.808C87.0355 204.842 87.0249 204.875 87.0084 204.904C86.9918 204.934 86.9696 204.961 86.9428 204.982C86.9161 205.003 86.8854 205.019 86.8526 205.028C86.8198 205.038 86.7854 205.041 86.7514 205.037C86.7175 205.033 86.6846 205.023 86.6547 205.006C86.6248 204.989 86.5985 204.967 86.5772 204.94C86.5559 204.914 86.5401 204.883 86.5307 204.85C86.5213 204.817 86.5184 204.783 86.5223 204.749C86.4778 204.734 86.4392 204.706 86.4118 204.668C86.3844 204.63 86.3696 204.584 86.3695 204.537C86.397 203.836 86.5565 203.147 86.8395 202.505C86.4225 202.424 86.033 202.238 85.7081 201.965C85.3831 201.691 85.1335 201.339 84.9829 200.942C84.5796 199.597 84.499 198.176 84.7479 196.794Z" fill="#263238"/>
<path d="M89.9298 203.186C84.4295 205.488 79.1377 208.26 74.113 211.471C73.9132 211.6 74.113 211.905 74.2775 211.8C79.6124 209.203 85.0649 206.711 90.247 203.832C90.3183 203.783 90.3694 203.709 90.3911 203.625C90.4128 203.541 90.4037 203.451 90.3654 203.373C90.3271 203.295 90.2621 203.233 90.1822 203.199C90.1023 203.165 90.0128 203.16 89.9298 203.186V203.186Z" fill="#263238"/>
<path d="M90.5295 130.988C87.566 133.332 84.3451 135.331 80.929 136.946C86.1347 128.156 85.3474 108.309 84.7128 111.094C81.6693 124.631 73.1617 139.449 69.9184 140.189H69.8597C61.8043 141.12 53.6651 139.399 46.675 135.289C53.3848 125.348 53.1146 105.16 52.668 106.394C47.7326 119.555 37.5446 127.252 35.7819 127.228C29.2484 120.977 25.7936 114.737 26.7219 114.102C33.5022 109.496 39.272 97.6509 44.4776 85.0657C49.6245 72.6919 52.2332 60.9175 59.4718 49.8716C66.0993 39.7541 79.3309 37.8387 86.828 43.0091C106.499 56.5814 94.7246 127.698 90.5295 130.988Z" fill="#263238"/>
<path d="M70.0828 43.5613C64.6304 44.8422 60.1533 49.8363 57.2978 54.4545C53.5023 60.5885 50.9993 67.545 47.8971 74.0315C41.8471 86.8345 33.8343 98.6139 24.1484 108.944C24.1163 108.99 24.1011 109.046 24.1052 109.102C24.1093 109.158 24.1325 109.211 24.171 109.252C24.2094 109.294 24.2607 109.32 24.3165 109.328C24.3722 109.336 24.429 109.325 24.4774 109.296C35.0533 101.329 42.3036 89.8953 48.2378 78.1326C51.2813 72.1279 53.6668 65.8411 56.534 59.7541C58.0379 56.3921 59.9907 53.2495 62.3389 50.4121C64.6261 47.9259 67.392 45.9274 70.4706 44.5367C70.5999 44.4853 70.7036 44.3846 70.7586 44.2567C70.8137 44.1289 70.8158 43.9845 70.7644 43.8551C70.713 43.7258 70.6123 43.6222 70.4845 43.5671C70.3566 43.512 70.2121 43.5099 70.0828 43.5613V43.5613Z" fill="#263238"/>
<path d="M0.0117617 299.379L77.2272 313.175L80.0121 232.516L25.3233 222.74L0.0117617 299.379Z" fill="#EBEBEB"/>
<path d="M25.3232 222.74L19.8473 302.928L-1.67811e-05 299.379L25.3232 222.74Z" fill="#DBDBDB"/>
<path d="M64.7241 235.689H67.5678C67.5678 235.619 67.5678 227.828 67.5678 219.943C67.5678 211.424 60.3293 205.959 53.4667 205.583C48.2846 205.301 41.9038 208.004 40.9284 216.523C39.8944 225.63 39.6593 229.978 39.6476 230.155L42.4913 230.307C42.4913 230.307 42.7263 225.854 43.7604 216.841C44.5007 210.295 49.1776 208.204 53.3139 208.427C58.8956 208.721 64.7241 213.127 64.7711 219.966C64.7711 227.84 64.7241 235.619 64.7241 235.689Z" fill="#263238"/>
<path d="M18.9072 302.141C17.5206 300.719 16.0635 299.391 14.6063 298.063C13.1492 296.735 11.6451 295.466 10.1292 294.197L9.91773 294.033L9.6827 294.15C8.20208 294.89 6.72146 295.642 5.2761 296.442C3.83073 297.241 2.36186 298.04 0.939999 298.921C2.50287 298.322 4.0305 297.664 5.53462 296.982C7.03874 296.301 8.55461 295.607 10.047 294.89L9.60047 294.832C11.1046 296.112 12.6204 297.358 14.1716 298.592C15.7227 299.826 17.2856 301.013 18.9072 302.141Z" fill="white"/>
<path d="M9.87088 294.514C11.1047 289.567 12.2211 284.585 13.3962 279.614C14.5713 274.644 15.5936 269.649 16.6982 264.655C17.8028 259.661 18.8016 254.679 19.8004 249.673L21.2928 242.164C21.7628 239.649 22.2564 237.146 22.6912 234.632C22.0684 237.099 21.5161 239.59 20.8933 242.07L19.1776 249.532C18.0025 254.514 16.9802 259.497 15.8756 264.491C14.771 269.485 13.7722 274.467 12.7734 279.473C11.7745 284.479 10.764 289.485 9.87088 294.514Z" fill="white"/>
<path d="M62.4564 234.902C62.2985 235.634 62.3613 236.396 62.6368 237.092C62.9124 237.788 63.3882 238.387 64.0042 238.813C64.6201 239.238 65.3485 239.472 66.0971 239.483C66.8458 239.495 67.581 239.284 68.2097 238.877C68.8384 238.471 69.3324 237.887 69.6291 237.199C69.9258 236.512 70.012 235.752 69.8766 235.016C69.7412 234.279 69.3904 233.6 68.8686 233.063C68.3468 232.526 67.6775 232.156 66.9453 231.999C65.9652 231.79 64.9422 231.978 64.1006 232.522C63.2591 233.066 62.6678 233.922 62.4564 234.902Z" fill="#263238"/>
<path d="M37.6031 229.508C37.4435 230.239 37.5049 231.001 37.7794 231.697C38.0539 232.393 38.5291 232.991 39.1447 233.417C39.7603 233.842 40.4884 234.074 41.2365 234.085C41.9846 234.095 42.7188 233.882 43.3458 233.474C43.9728 233.066 44.4644 232.481 44.7579 231.793C45.0514 231.105 45.1337 230.345 44.9943 229.61C44.8548 228.875 44.5 228.198 43.9748 227.665C43.4496 227.132 42.7779 226.768 42.0449 226.617C41.0729 226.415 40.0603 226.606 39.2282 227.147C38.3961 227.689 37.8119 228.538 37.6031 229.508V229.508Z" fill="#263238"/>
<path d="M9.00138 322.517H99.6129L86.4048 230.213H22.2094L9.00138 322.517Z" fill="#FF006D"/>
<path opacity="0.1" d="M22.2212 230.213L32.28 322.517H9.00139L22.2212 230.213Z" fill="black"/>
<path d="M68.3202 236.582L71.1522 235.983C71.1522 235.901 69.4953 228.145 67.7444 220.319C65.8408 211.858 57.5211 207.969 50.5763 209.085C45.3707 209.931 39.6009 213.985 40.4705 222.669C41.3988 231.952 42.1039 236.324 42.1274 236.512L44.9829 236.042C44.9829 236.042 44.266 231.565 43.3495 222.375C42.6797 215.713 46.8748 212.622 51.0346 211.941C56.6515 211.036 63.3966 214.161 64.9242 220.954C66.7221 228.756 68.3085 236.488 68.3202 236.582Z" fill="#263238"/>
<path d="M31.0576 321.812C29.201 320.484 27.2621 319.274 25.3349 318.052C23.4078 316.83 21.4454 315.701 19.4594 314.526L19.1774 314.362L18.9306 314.55C17.403 315.725 15.8754 316.9 14.383 318.075C12.8907 319.25 11.3983 320.484 9.96471 321.765C11.6098 320.766 13.2197 319.708 14.7943 318.627C16.3689 317.546 17.9436 316.453 19.4947 315.325H18.9777C20.9361 316.469 22.9221 317.582 24.9354 318.663C26.9683 319.791 28.9777 320.86 31.0576 321.812Z" fill="white"/>
<path d="M19.2244 314.984C19.6239 309.109 19.9177 303.234 20.1998 297.358C20.4818 291.483 20.6698 285.607 20.9165 279.732C21.1633 273.856 21.2808 267.981 21.3983 262.105L21.5629 253.257C21.5629 250.307 21.6451 247.381 21.6334 244.408C21.4219 247.358 21.2809 250.284 21.0928 253.245L20.658 262.082C20.3878 267.957 20.188 273.833 19.953 279.708C19.718 285.584 19.577 291.459 19.4594 297.335C19.3419 303.21 19.2244 309.085 19.2244 314.984Z" fill="white"/>
<path d="M69.7421 240.119C67.6199 240.119 65.8995 238.399 65.8995 236.277C65.8995 234.155 67.6199 232.434 69.7421 232.434C71.8643 232.434 73.5847 234.155 73.5847 236.277C73.5847 238.399 71.8643 240.119 69.7421 240.119Z" fill="#263238"/>
<path d="M43.8545 240.119C41.7323 240.119 40.0119 238.399 40.0119 236.277C40.0119 234.155 41.7323 232.434 43.8545 232.434C45.9767 232.434 47.697 234.155 47.697 236.277C47.697 238.399 45.9767 240.119 43.8545 240.119Z" fill="#263238"/>
<path d="M140.118 62.5744L129.213 96.5111C128.79 97.5099 129.213 98.356 130.236 98.4265L148.038 99.6016C148.584 99.5926 149.115 99.4303 149.573 99.1331C150.03 98.8359 150.394 98.4159 150.624 97.9212L161.517 63.9728C161.952 62.9857 161.517 62.1279 160.506 62.0691L142.704 60.894C142.158 60.9002 141.625 61.0614 141.167 61.359C140.709 61.6565 140.346 62.078 140.118 62.5744V62.5744Z" fill="#A6A6A6"/>
<path d="M142.233 62.6919L131.352 96.6521C131.233 96.8384 131.166 97.053 131.157 97.2738C131.149 97.4946 131.199 97.7138 131.303 97.9087C131.407 98.1037 131.561 98.2675 131.749 98.3832C131.938 98.499 132.153 98.5626 132.374 98.5675L150.177 99.7426C150.722 99.7375 151.254 99.578 151.711 99.2826C152.169 98.9873 152.533 98.5682 152.762 98.074L163.655 64.1255C164.09 63.1384 163.655 62.2806 162.645 62.2219L144.842 61.0468C144.296 61.0453 143.761 61.1993 143.299 61.4906C142.837 61.7818 142.467 62.1985 142.233 62.6919Z" fill="#DBDBDB"/>
<path d="M160.55 66.0181C160.526 66.3174 160.413 66.6028 160.226 66.8379C160.039 67.0729 159.786 67.2472 159.5 67.3386C159.214 67.4299 158.907 67.4342 158.619 67.3509C158.33 67.2676 158.073 67.1004 157.879 66.8707C157.686 66.6409 157.565 66.3588 157.532 66.0603C157.5 65.7618 157.556 65.4602 157.695 65.1939C157.834 64.9275 158.049 64.7084 158.312 64.5644C158.576 64.4203 158.876 64.3578 159.175 64.3847C159.374 64.3994 159.567 64.4537 159.744 64.5442C159.921 64.6348 160.078 64.7598 160.206 64.912C160.335 65.0641 160.431 65.2404 160.49 65.4304C160.549 65.6203 160.569 65.8201 160.55 66.0181V66.0181Z" fill="#455A64"/>
<path d="M79.3891 111.141C87.8968 133.315 108.484 162.845 117.826 163.609C122.268 163.997 130.141 165.63 136.346 160.941C149.907 150.718 162.104 130.154 165.171 118.098C166.252 113.808 145.805 102.821 142.421 106.17C134.513 113.914 124.795 129.555 123.549 129.367C118.79 128.65 101.222 111.74 88.9309 99.7778C74.0425 85.3007 76.0049 102.304 79.3891 111.141Z" fill="#F7A9A0"/>
<path d="M167.322 95.6768C165.735 86.699 163.937 84.6309 166.617 76.3347C168.379 70.894 165.653 67.4275 161.411 71.6343C154.454 78.4381 154.078 90.4358 155.148 94.6662L167.322 95.6768Z" fill="#F7A9A0"/>
<path d="M163.855 121.799C163.855 121.799 168.697 109.801 167.945 100.06C167.416 93.3149 164.654 78.7907 146.546 69.907C142.245 67.8036 134.631 67.8506 140.4 73.8318C144.501 78.0857 148.379 79.5428 150.306 82.457C150.306 82.457 140.635 83.6321 138.696 88.0504C136.996 91.8846 135.57 95.8351 134.431 99.8719C135.123 100.245 135.837 100.574 136.57 100.859C136.57 100.859 135.148 105.136 137.862 111.435L163.855 121.799Z" fill="#F7A9A0"/>
<path d="M166.417 93.7026C163.89 91.2231 158.45 86.0527 152.516 83.3735C145.935 80.4005 132.457 76.4522 130.318 81.3288C128.743 84.8541 133.749 86.8635 133.749 86.8635C133.749 86.8635 127.874 86.4053 127.122 89.954C126.475 93.1855 130.447 94.4664 130.447 94.4664C130.447 94.4664 126.804 94.8072 126.781 97.9917C126.781 101.869 134.372 100.53 137.745 104.502C138.497 105.43 166.417 93.7026 166.417 93.7026Z" fill="#F7A9A0"/>
<path d="M150.542 90.8589C145.532 87.8353 139.719 86.4127 133.879 86.7813C133.726 86.7813 133.655 86.9105 133.796 86.9341C139.507 87.5792 145.119 88.9169 150.506 90.9176L150.542 90.8589Z" fill="#263238"/>
<path d="M147.345 97.4159C144.784 95.9823 137.028 93.4323 130.471 94.3371C130.318 94.3371 130.259 94.4782 130.4 94.4899C136.135 94.846 141.811 95.8472 147.322 97.4746C147.322 97.4746 147.369 97.4276 147.345 97.4159Z" fill="#263238"/>
<path d="M135.289 113.573L159.825 142.022C159.825 142.022 138.814 162.575 131.975 164.196C126.414 165.506 120.6 165.258 115.171 163.48C110.388 162.105 86.8747 134.854 79.1426 112.575C71.4105 90.2948 79.7067 89.2255 92.903 102.716C106.099 116.206 122.433 129.484 123.22 128.568C124.008 127.651 135.289 113.573 135.289 113.573Z" fill="#FF006D"/>
<path opacity="0.1" d="M135.289 113.573L159.825 142.022C159.825 142.022 138.814 162.575 131.975 164.196C126.414 165.506 120.6 165.258 115.171 163.48C110.388 162.105 86.8747 134.854 79.1426 112.575C71.4105 90.2948 79.7067 89.2255 92.903 102.716C106.099 116.206 122.433 129.484 123.22 128.568C124.008 127.651 135.289 113.573 135.289 113.573Z" fill="black"/>
<path d="M130.835 121.329C131.834 122.234 140.024 131.494 141.846 133.574C143.667 135.653 150.624 144.149 152.422 146.276C152.492 146.37 152.422 146.5 152.281 146.406C151.329 145.372 150.295 144.408 149.343 143.374C148.391 142.34 142.927 136.135 141.117 134.067C139.308 131.999 131.411 122.586 130.659 121.447C130.6 121.329 130.753 121.329 130.835 121.329Z" fill="#263238"/>
<path d="M101.786 150.236L106.334 189.708C106.334 189.708 42.2562 188.744 26.4277 187.146C26.4277 187.146 41.5982 114.055 59.2481 96.0058C68.0731 86.9811 78.0496 87.9681 84.3011 94.6544C85.8757 96.3466 104.43 122.457 106.17 132.257C107.638 140.93 101.786 150.236 101.786 150.236Z" fill="#FF006D"/>
<path d="M104.325 143.82C105.055 141.584 105.451 139.252 105.5 136.899C105.341 132.103 104.138 127.399 101.975 123.115C100.799 120.659 99.3893 118.333 98.2495 115.877C98.2495 115.806 98.32 115.759 98.3553 115.818C99.4654 117.461 100.478 119.168 101.387 120.93C101.373 120.869 101.353 120.81 101.328 120.753C101.034 119.801 100.741 118.873 100.4 117.945C100.4 117.851 100.529 117.78 100.576 117.874C100.952 118.779 101.316 119.684 101.646 120.612C101.852 121.197 102.024 121.794 102.163 122.398C103.3 124.558 104.263 126.806 105.042 129.12C106.645 133.7 106.752 138.671 105.347 143.315C104.951 144.525 104.464 145.704 103.89 146.84C103.267 148.109 102.48 149.285 101.81 150.518C101.81 150.624 101.599 150.518 101.657 150.424C102.765 148.318 103.658 146.105 104.325 143.82V143.82Z" fill="#263238"/>
<path d="M69.6596 94.9012C70.1884 96.0763 77.615 102.998 83.2202 101.67C85.0416 101.223 83.1027 91.0939 83.1027 91.0939V90.3183L83.4552 79.4605L69.7301 73.914L67.7677 73.209C67.7677 73.209 67.8617 76.1937 68.0145 79.8953C68.0145 80.0715 68.0145 80.2478 68.0145 80.4241C68.0145 80.6003 68.0145 80.8353 68.0145 81.0351C68.0145 81.5874 68.0145 82.1514 68.0145 82.7155C68.0145 83.2795 68.0145 83.5616 68.0968 84.0081C68.179 84.4546 68.1672 84.9012 68.1907 85.3477C68.4643 88.5617 68.955 91.7535 69.6596 94.9012Z" fill="#F7A9A0"/>
<path d="M68.0383 79.954C69.6519 82.687 71.8419 85.0354 74.4559 86.8355C77.0698 88.6356 80.0447 89.8442 83.1735 90.3771L83.526 79.5192L69.8009 73.9728L67.8385 73.2677C67.8385 73.2677 67.8973 76.2524 68.0383 79.954Z" fill="#263238"/>
<path d="M96.3109 62.7977C98.9196 81.7049 87.8972 85.3947 83.8196 85.9588C80.1181 86.4641 67.4506 87.7214 62.903 69.1902C58.3553 50.6589 66.3225 43.4674 74.7126 41.8692C83.1028 40.2711 93.7492 43.9022 96.3109 62.7977Z" fill="#F7A9A0"/>
<path d="M91.1991 58.8846C90.759 58.8771 90.3197 58.8457 89.883 58.7906C89.4134 58.825 88.9459 58.7009 88.5552 58.4381C88.4477 58.3328 88.3789 58.1943 88.3597 58.0451C88.3405 57.8959 88.3721 57.7446 88.4494 57.6155C88.6364 57.3827 88.8817 57.2036 89.1603 57.0963C89.4389 56.989 89.741 56.9573 90.0358 57.0045C90.6492 57.0065 91.2399 57.2369 91.6927 57.6508C91.7902 57.7518 91.8564 57.8788 91.8834 58.0165C91.9104 58.1543 91.897 58.2969 91.8449 58.4273C91.7928 58.5576 91.7041 58.6701 91.5895 58.7512C91.4749 58.8324 91.3394 58.8787 91.1991 58.8846V58.8846Z" fill="#263238"/>
<path d="M78.7548 60.7412C79.1896 60.6237 79.5773 60.4475 80.0004 60.2947C80.4569 60.1973 80.8694 59.9539 81.1755 59.6014C81.2493 59.4705 81.2778 59.3189 81.2566 59.1701C81.2353 59.0214 81.1655 58.8838 81.058 58.7788C80.816 58.6034 80.5317 58.4957 80.2343 58.4668C79.9368 58.4379 79.637 58.4888 79.3658 58.6143C78.7725 58.7824 78.2645 59.1686 77.944 59.6954C77.8797 59.8189 77.8523 59.9583 77.8648 60.097C77.8773 60.2356 77.9293 60.3678 78.0146 60.4779C78.0999 60.5879 78.215 60.6712 78.3461 60.7179C78.4773 60.7645 78.6191 60.7727 78.7548 60.7412Z" fill="#263238"/>
<path d="M81.9391 65.1596C81.9391 65.1596 81.8451 65.2301 81.8569 65.2888C82.1036 66.5579 82.1741 68.062 81.0813 68.6848C81.0813 68.6848 81.0813 68.7671 81.0813 68.7554C82.4914 68.3206 82.3739 66.3229 81.9391 65.1596Z" fill="#263238"/>
<path d="M80.5763 64.008C78.4846 64.1842 78.9899 68.3441 80.9288 68.1796C82.8677 68.015 82.3272 63.8552 80.5763 64.008Z" fill="#263238"/>
<path d="M79.7771 64.3252C79.4481 64.6073 79.1426 65.0656 78.7078 65.1596C78.273 65.2536 77.7677 64.8893 77.3917 64.5133H77.3212C77.4034 65.3123 77.8147 66.0996 78.6843 66.1114C79.5538 66.1231 79.9534 65.3476 80.0591 64.525C80.0709 64.4193 79.9181 64.2077 79.7771 64.3252Z" fill="#263238"/>
<path d="M89.3541 63.9375C89.3541 63.9375 89.4598 63.9375 89.4715 64.0433C89.5773 65.3359 89.9181 66.8047 91.1402 67.0985V67.169C89.6831 67.1338 89.2483 65.1831 89.3541 63.9375Z" fill="#263238"/>
<path d="M90.353 62.4569C92.4094 62.0574 93.0557 66.2054 91.1521 66.5697C89.2484 66.934 88.6256 62.7859 90.353 62.4569Z" fill="#263238"/>
<path d="M91.2577 62.5744C91.622 62.7389 92.0098 63.0914 92.4328 63.0561C92.8558 63.0209 93.1614 62.5156 93.3846 62.0456C93.3846 62.0456 93.3846 62.0456 93.4551 62.0456C93.5961 62.8329 93.4551 63.6907 92.7266 63.961C91.998 64.2312 91.4457 63.6084 91.1284 62.8564C91.0344 62.7741 91.1167 62.5744 91.2577 62.5744Z" fill="#263238"/>
<path d="M83.6313 75.5004C83.972 75.7824 84.3128 76.1702 84.8064 76.182C85.2857 76.1317 85.7496 75.9838 86.1694 75.7472C86.1694 75.7472 86.2634 75.7472 86.2399 75.7472C86.0715 76.0155 85.8347 76.2342 85.5539 76.3808C85.2731 76.5274 84.9583 76.5967 84.6418 76.5815C84.374 76.5293 84.1271 76.4004 83.931 76.2106C83.7349 76.0208 83.5981 75.7782 83.5372 75.5122C83.5487 75.4989 83.5646 75.4903 83.582 75.4882C83.5994 75.486 83.6169 75.4904 83.6313 75.5004V75.5004Z" fill="#263238"/>
<path d="M88.3906 70.0597C88.3906 70.0597 88.9194 71.9516 89.0369 72.8565C89.0369 72.9387 88.8371 73.0092 88.5316 73.068C87.7716 73.3127 86.9592 73.3446 86.1823 73.1602C85.4055 72.9759 84.694 72.5823 84.125 72.0221C84.115 72.0144 84.1066 72.0048 84.1003 71.9938C84.094 71.9829 84.0899 71.9708 84.0882 71.9582C84.0866 71.9457 84.0874 71.9329 84.0907 71.9207C84.094 71.9085 84.0997 71.897 84.1074 71.887C84.1151 71.877 84.1247 71.8686 84.1357 71.8622C84.1467 71.8559 84.1588 71.8518 84.1713 71.8502C84.1839 71.8486 84.1966 71.8494 84.2088 71.8527C84.221 71.856 84.2325 71.8617 84.2425 71.8694C85.5041 72.5089 86.9399 72.7193 88.3319 72.4687C88.3319 72.2101 87.3213 69.2724 87.4623 69.2372C88.1764 69.2054 88.8917 69.2686 89.5892 69.4252C88.6139 65.4651 87.004 61.6931 86.0639 57.6742C86.0587 57.645 86.0638 57.6148 86.0782 57.5888C86.0927 57.5629 86.1156 57.5427 86.1432 57.5316C86.1708 57.5206 86.2013 57.5194 86.2297 57.5282C86.2581 57.5371 86.2825 57.5555 86.2989 57.5802C88.1414 61.5755 89.5821 65.7441 90.5998 70.0245C90.729 70.6003 88.7784 70.1655 88.3906 70.0597Z" fill="#263238"/>
<path d="M64.5601 69.2607C69.2605 68.9199 70.0361 54.5015 70.1183 52.7388C70.1183 53.9139 70.1888 59.7894 70.6471 59.9892C71.1468 59.9548 71.6382 59.8438 72.1042 59.6601V59.6601C72.0781 58.9498 72.1096 58.2385 72.1982 57.5332C72.1982 57.2042 72.351 58.2383 72.5743 59.5074L73.4321 59.2371C73.3216 57.7277 73.4125 56.2102 73.7023 54.7248C73.8199 54.1607 74.0666 56.6637 74.6777 58.8493C78.6189 57.5284 82.6936 56.6456 86.8281 56.2171C88.0032 56.1349 89.0021 56.1114 89.8951 56.1114C89.8364 54.3722 89.5661 52.5156 89.7071 52.9151C90.0949 53.9577 90.3784 55.0363 90.5532 56.1349C91.0467 56.1349 91.4933 56.1349 91.8928 56.1349C91.8928 53.6554 90.5885 49.7659 91.0115 50.3534C92.2534 52.1632 93.1388 54.1932 93.6202 56.3346C95.3241 56.6049 95.7941 56.9104 95.8293 56.4756C95.1184 51.6475 92.7154 47.2288 89.0491 44.0079C82.9973 38.7317 71.2934 37.8034 65.0536 46.5226C65.0536 46.5226 59.7775 50.2594 59.1782 55.9233C58.5789 61.5873 61.8691 69.4604 64.5601 69.2607Z" fill="#263238"/>
<path d="M66.1107 70.2242C66.1107 70.2242 61.6454 64.4898 59.0602 66.1114C56.475 67.733 60.0002 76.1937 63.2318 77.2043C63.6369 77.3627 64.0698 77.4378 64.5046 77.4249C64.9394 77.412 65.3671 77.3115 65.7621 77.1294C66.1571 76.9472 66.5113 76.6872 66.8034 76.3649C67.0955 76.0426 67.3196 75.6646 67.4621 75.2536L66.1107 70.2242Z" fill="#F7A9A0"/>
<path d="M60.106 68.5086V68.5909C62.374 69.3782 63.6313 71.3876 64.5714 73.4792C64.4318 73.2635 64.247 73.0807 64.0297 72.9434C63.8125 72.8061 63.568 72.7176 63.3132 72.6841C63.0584 72.6506 62.7994 72.6728 62.554 72.7492C62.3087 72.8256 62.0829 72.9544 61.8922 73.1267C61.8334 73.1267 61.8922 73.256 61.9509 73.2442C62.3352 73.0986 62.7552 73.0758 63.153 73.1789C63.5507 73.2821 63.9067 73.5061 64.1718 73.82C64.6258 74.3467 65.0199 74.9221 65.3469 75.5357C65.4644 75.7237 65.817 75.6062 65.7347 75.3829V75.3241C65.5467 72.4922 63.1965 68.6379 60.106 68.5086Z" fill="#263238"/>
<path d="M55.8053 95.9588C33.8193 113.926 16.0402 141.4 15.1001 148.356C14.066 156.018 16.7452 183.832 23.9956 197.957C25.911 201.682 54.3365 184.725 52.4563 180.66C48.837 172.833 43.4668 151.388 44.2307 147.122C44.9475 143.174 56.1461 119.402 63.8077 106.922C70.9053 95.477 66.0404 87.6039 55.8053 95.9588Z" fill="#F7A9A0"/>
<path d="M74.3362 214.455C73.7485 215.288 72.9197 215.92 71.9615 216.266C71.0034 216.613 69.9621 216.658 68.9778 216.394C68.9395 218.124 68.2996 219.786 67.1681 221.095C65.0647 223.304 60.6816 220.965 60.6816 220.965C60.2712 222.767 59.3298 224.405 57.9789 225.666C55.7462 227.569 50.9871 225.842 50.9871 225.842C49.7043 227.275 47.9478 228.197 46.04 228.439C40.9165 228.874 36.1927 222.563 33.1139 218.639C30.0352 214.714 25.1585 200.601 23.9482 198.016L49.201 178.286C49.201 178.286 67.885 192.164 70.7992 197.322C73.2904 201.635 76.4631 211.189 74.3362 214.455Z" fill="#F7A9A0"/>
<path d="M69.2483 215.901C67.7442 210.66 64.7829 206.136 62.0685 201.447C62.0097 201.341 61.8452 201.447 61.9157 201.541C64.6537 206.171 66.4516 211.283 68.9663 216.006C69.072 216.136 69.2835 216.042 69.2483 215.901Z" fill="#263238"/>
<path d="M60.9405 220.624C60.4888 219.464 59.8841 218.37 59.1426 217.369C58.4258 216.265 57.6855 215.16 56.9334 214.079C55.4293 211.917 53.8782 209.778 52.2331 207.687C52.1626 207.593 51.998 207.687 52.0685 207.781C53.5727 209.955 55.0298 212.14 56.4399 214.361C57.145 215.536 57.8382 216.594 58.5198 217.722C59.1071 218.822 59.8082 219.858 60.6115 220.812C60.6364 220.856 60.6777 220.888 60.7261 220.901C60.7746 220.915 60.8264 220.908 60.87 220.883C60.9136 220.858 60.9456 220.817 60.9588 220.768C60.972 220.72 60.9654 220.668 60.9405 220.624V220.624Z" fill="#263238"/>
<path d="M50.9285 225.701C50.4858 224.654 49.8657 223.692 49.0953 222.857C48.3785 221.882 47.6852 220.906 46.9802 219.919C45.5935 217.957 44.1952 215.995 42.8791 213.985C42.8085 213.891 42.6558 213.985 42.7146 214.079C44.0542 216.136 45.3585 218.204 46.7099 220.237C47.3679 221.239 48.0377 222.238 48.7193 223.233C49.2514 224.193 49.9473 225.052 50.7757 225.771C50.785 225.792 50.802 225.807 50.823 225.815C50.8439 225.823 50.8671 225.822 50.8873 225.813C50.9076 225.803 50.9233 225.786 50.931 225.765C50.9387 225.744 50.9378 225.721 50.9285 225.701Z" fill="#263238"/>
<path d="M66.3811 104.596C62.1391 116.558 45.0179 145.007 45.1237 147.745C45.2295 150.483 53.5844 179.014 53.5844 179.014L19.6359 199.626C19.6359 199.626 12.0683 160.777 14.9355 147.263C17.1095 136.876 41.0344 106.723 52.6678 97.4394C64.3013 88.1562 71.8101 89.2725 66.3811 104.596Z" fill="#FF006D"/>
<path opacity="0.1" d="M66.3811 104.596C62.1391 116.558 45.0179 145.007 45.1237 147.745C45.2295 150.483 53.5844 179.014 53.5844 179.014L19.6359 199.626C19.6359 199.626 12.0683 160.777 14.9355 147.263C17.1095 136.876 41.0344 106.723 52.6678 97.4394C64.3013 88.1562 71.8101 89.2725 66.3811 104.596Z" fill="black"/>
<path d="M45.0882 146.088C45.6376 144.085 46.4853 142.175 47.6029 140.424C49.7534 136.464 51.892 132.492 54.1482 128.591C55.4055 126.429 60.4584 118.145 61.9508 115.489C62.0918 115.242 62.4444 115.489 62.3151 115.712C61.5043 117.334 59.1071 121.646 57.4267 124.643C57.6852 124.326 57.9437 123.997 58.2258 123.691C58.731 123.127 59.2481 122.516 59.8121 122.034C60.4426 121.511 61.0211 120.929 61.5395 120.295C61.5983 120.201 61.7628 120.295 61.6923 120.389C60.747 121.615 59.739 122.792 58.6723 123.914C58.1553 124.514 57.6382 125.089 57.1447 125.724C56.8039 126.123 56.4866 126.547 56.1341 126.899C56.0518 127.052 55.9696 127.181 55.9108 127.299C53.7016 131.118 51.6217 135.019 49.5418 138.908C48.4434 140.768 47.4546 142.691 46.5806 144.666C46.1955 145.58 46.015 146.567 46.0518 147.557C46.1682 148.737 46.4165 149.9 46.7921 151.024C47.9672 155.266 49.0718 159.52 50.1764 163.773C50.8109 166.229 51.4455 168.697 52.033 171.165C52.6206 173.633 53.3021 176.1 53.6547 178.615C53.6547 178.779 53.4314 178.92 53.3609 178.732C52.5644 176.611 51.878 174.45 51.3045 172.258C50.6542 170.048 50.0315 167.835 49.4361 165.618C48.261 161.141 47.0859 156.652 45.9108 152.152C45.3702 150.189 44.7004 148.145 45.0882 146.088Z" fill="#263238"/>
<path d="M19.9771 190.718C29.1854 184.225 38.7413 178.238 48.6023 172.786C48.6217 172.781 48.6422 172.783 48.6607 172.79C48.6793 172.798 48.6949 172.811 48.7054 172.828C48.7159 172.845 48.7207 172.865 48.719 172.885C48.7174 172.905 48.7095 172.924 48.6963 172.939C39.5024 179.455 29.9623 185.469 20.1181 190.953C20.0879 190.963 20.0554 190.962 20.0259 190.951C19.9963 190.939 19.9714 190.918 19.9551 190.891C19.9389 190.864 19.9322 190.832 19.9362 190.801C19.9401 190.77 19.9545 190.741 19.9771 190.718V190.718Z" fill="#263238"/>
<path d="M220 39H188C182.477 39 178 43.4772 178 49V81C178 86.5228 182.477 91 188 91H220C225.523 91 230 86.5228 230 81V49C230 43.4772 225.523 39 220 39Z" fill="#EBEBEB"/>
<path d="M204.229 68.7088C204.229 69.963 203.77 71.0412 202.853 71.9436C201.935 72.8306 200.612 73.3812 198.884 73.5953V76.1647H196.59V73.6641C195.458 73.603 194.38 73.4041 193.355 73.0677C192.33 72.7312 191.505 72.3183 190.877 71.8288L192.139 69.03C192.72 69.4583 193.401 69.8177 194.181 70.1083C194.961 70.3988 195.764 70.5824 196.59 70.6588V66.8277C195.504 66.5677 194.586 66.2771 193.837 65.9559C193.087 65.6347 192.46 65.1683 191.956 64.5565C191.451 63.9294 191.199 63.1036 191.199 62.0788C191.199 60.8094 191.657 59.7236 192.575 58.8212C193.508 57.9036 194.846 57.3453 196.59 57.1465V54.6H198.884V57.1006C200.765 57.2536 202.317 57.72 203.541 58.5L202.394 61.3218C201.247 60.6641 200.077 60.2665 198.884 60.1288V64.0288C199.955 64.2736 200.857 64.5565 201.591 64.8777C202.34 65.1836 202.967 65.65 203.472 66.2771C203.977 66.8888 204.229 67.6994 204.229 68.7088ZM194.892 61.8953C194.892 62.2777 195.037 62.5912 195.328 62.8359C195.619 63.0806 196.039 63.2871 196.59 63.4553V60.1977C196.009 60.3353 195.58 60.5571 195.305 60.863C195.03 61.1536 194.892 61.4977 194.892 61.8953ZM198.884 70.5671C199.435 70.4447 199.847 70.2459 200.123 69.9706C200.398 69.6953 200.536 69.3665 200.536 68.9841C200.536 68.6018 200.39 68.2883 200.1 68.0436C199.825 67.7988 199.419 67.5847 198.884 67.4012V70.5671Z" fill="#FF006D"/>
<path d="M213.171 63.8912C214.579 64.1206 215.657 64.6483 216.406 65.4741C217.156 66.2847 217.53 67.2941 217.53 68.5024C217.53 69.4353 217.286 70.2994 216.796 71.0947C216.307 71.8747 215.557 72.5018 214.548 72.9759C213.554 73.45 212.33 73.6871 210.877 73.6871C209.746 73.6871 208.629 73.5418 207.528 73.2512C206.442 72.9453 205.517 72.5171 204.752 71.9665L206.197 69.1218C206.809 69.5806 207.513 69.94 208.308 70.2C209.119 70.4447 209.944 70.5671 210.786 70.5671C211.719 70.5671 212.453 70.3912 212.988 70.0394C213.523 69.6724 213.791 69.16 213.791 68.5024C213.791 67.1871 212.789 66.5294 210.786 66.5294H209.088V64.0747L212.391 60.3353H205.555V57.353H216.796V59.7618L213.171 63.8912Z" fill="#FF006D"/>
<path d="M271.395 290.301H192V346.674H271.395V290.301Z" fill="#FF006D"/>
<path opacity="0.1" d="M192.007 346.667H219.038V290.294H192.007V346.667Z" fill="#263238"/>
<path d="M193.863 342.79C195.864 338.783 197.839 334.76 199.788 330.722L205.654 318.596L211.441 306.423C213.363 302.355 215.265 298.273 217.148 294.178C215.143 298.185 213.168 302.208 211.223 306.245L205.358 318.392L199.564 330.571C197.651 334.622 195.75 338.695 193.863 342.79Z" fill="#FF006D"/>
<path d="M193.863 294.178C195.746 298.273 197.646 302.355 199.564 306.423L205.358 318.596L211.223 330.722C213.185 334.756 215.16 338.778 217.148 342.79C215.265 338.695 213.363 334.615 211.441 330.551L205.68 318.392L199.814 306.265C197.853 302.219 195.869 298.19 193.863 294.178Z" fill="#FF006D"/>
<path d="M209.564 290.301H201.355V304.731H209.564V290.301Z" fill="#EBEBEB"/>
<path d="M256.392 334.876H255.819V342.987H256.392V334.876Z" fill="#263238"/>
<path d="M257.774 334.876H257.201V342.987H257.774V334.876Z" fill="#263238"/>
<path d="M259.15 334.876H258.577V342.987H259.15V334.876Z" fill="#263238"/>
<path d="M260.533 334.876H259.96V342.987H260.533V334.876Z" fill="#263238"/>
<path d="M261.915 334.876H261.342V342.987H261.915V334.876Z" fill="#263238"/>
<path d="M263.291 334.876H262.718V342.987H263.291V334.876Z" fill="#263238"/>
<path d="M264.673 334.876H264.101V342.987H264.673V334.876Z" fill="#263238"/>
<path d="M266.049 334.876H265.477V342.987H266.049V334.876Z" fill="#263238"/>
<path d="M267.432 334.876H266.859V342.987H267.432V334.876Z" fill="#263238"/>
<path d="M250.177 342.368L252.389 342.987H247.195L249.407 342.362V339.386C247.827 339.175 247.195 337.615 247.195 334.883H252.389C252.389 337.608 251.731 339.175 250.177 339.386V342.368Z" fill="#263238"/>
<path d="M245.983 339.017H244.627V342.987H241.158V339.017H239.795L242.896 334.883L245.983 339.017Z" fill="#263238"/>
<path d="M269.407 244H204.179V290.314H269.407V244Z" fill="#FF006D"/>
<path opacity="0.1" d="M204.179 290.314H226.391V244H204.179V290.314Z" fill="#263238"/>
<path d="M205.713 287.121C207.359 283.829 208.989 280.527 210.604 277.213L215.423 267.252L220.177 257.246C221.757 253.906 223.319 250.555 224.864 247.193C223.218 250.485 221.588 253.776 219.973 257.068L215.154 267.042L210.4 277.048C208.82 280.401 207.258 283.759 205.713 287.121Z" fill="#FF006D"/>
<path d="M205.713 247.193C207.262 250.55 208.825 253.901 210.4 257.246L215.154 267.252L219.953 277.213C221.568 280.527 223.198 283.829 224.844 287.121C223.299 283.763 221.737 280.412 220.157 277.068L215.423 267.042L210.604 257.101C208.994 253.792 207.363 250.489 205.713 247.193Z" fill="#FF006D"/>
<path d="M218.616 244H211.868V255.857H218.616V244Z" fill="#EBEBEB"/>
<path d="M257.089 280.63H256.615V287.292H257.089V280.63Z" fill="#263238"/>
<path d="M258.222 280.63H257.748V287.292H258.222V280.63Z" fill="#263238"/>
<path d="M259.354 280.63H258.88V287.292H259.354V280.63Z" fill="#263238"/>
<path d="M260.486 280.63H260.012V287.292H260.486V280.63Z" fill="#263238"/>
<path d="M261.619 280.63H261.145V287.292H261.619V280.63Z" fill="#263238"/>
<path d="M262.758 280.63H262.284V287.292H262.758V280.63Z" fill="#263238"/>
<path d="M263.89 280.63H263.416V287.292H263.89V280.63Z" fill="#263238"/>
<path d="M265.022 280.63H264.548V287.292H265.022V280.63Z" fill="#263238"/>
<path d="M266.155 280.63H265.681V287.292H266.155V280.63Z" fill="#263238"/>
<path d="M251.974 286.792L253.798 287.299H249.525L251.349 286.792V284.343C250.032 284.172 249.525 282.888 249.525 280.643H253.798C253.798 282.881 253.278 284.172 251.974 284.343V286.792Z" fill="#263238"/>
<path d="M248.531 284.027H247.419V287.285H244.568V284.027H243.449L245.997 280.63L248.531 284.027Z" fill="#263238"/>
<path opacity="0.1" d="M269.407 290.314V287.121L226.391 281.216V290.314H269.407Z" fill="#263238"/>
<path d="M371.579 365.937C371.579 365.937 371.579 416.699 371.579 416.735C371.579 426.449 371.496 434.96 371.025 439.358C371.03 439.381 371.03 439.405 371.025 439.428C371.026 440.471 370.788 441.499 370.329 442.435C370.329 442.435 370.329 442.435 370.27 442.494C367.394 444.462 289.811 447.127 287.076 446.301C284.341 445.476 286.463 437.625 289.434 435.114C292.404 432.603 321.617 418.315 321.617 418.315L322.112 367.563L371.579 365.937Z" fill="#AD6359"/>
<path d="M371.567 406.314V416.735C371.567 426.449 371.484 434.961 371.013 439.358C371.018 439.381 371.018 439.405 371.013 439.429C370.898 440.454 370.665 441.463 370.317 442.435C370.317 442.435 370.317 442.435 370.258 442.494C367.382 444.463 289.799 447.127 287.064 446.302C284.329 445.476 286.451 437.625 289.422 435.114C292.393 432.603 321.605 418.315 321.605 418.315L321.464 407.705L371.567 406.314Z" fill="#C7C7C7"/>
<path d="M287.053 446.301C289.799 447.127 367.358 444.474 370.247 442.494C371.355 441.763 371.626 430.434 371.567 416.735C371.567 416.593 371.567 416.452 371.567 416.31L321.511 417.489V418.338C321.511 418.338 292.275 432.638 289.328 435.149C286.381 437.66 284.318 445.5 287.053 446.301Z" fill="#455A64"/>
<path d="M287.831 443.272C300.893 442.494 353.66 440.631 366.628 440.914C366.734 440.914 366.746 440.985 366.628 440.996C353.66 442.034 300.917 443.472 287.819 443.531C287.56 443.484 287.548 443.284 287.831 443.272Z" fill="#263238"/>
<path d="M317.35 418.609C322.455 417.431 328.774 418.044 332.841 421.58C332.994 421.71 332.841 421.934 332.629 421.887C327.656 420.469 322.546 419.587 317.386 419.258C317.309 419.248 317.238 419.212 317.186 419.155C317.133 419.099 317.102 419.026 317.098 418.948C317.094 418.871 317.117 418.795 317.163 418.733C317.209 418.671 317.275 418.628 317.35 418.609Z" fill="#263238"/>
<path d="M313.707 420.979C318.823 419.8 325.142 420.413 329.198 423.938C329.351 424.079 329.198 424.303 328.985 424.256C324.017 422.839 318.911 421.958 313.754 421.627C313.677 421.619 313.605 421.585 313.551 421.529C313.497 421.473 313.464 421.4 313.459 421.323C313.453 421.246 313.475 421.169 313.52 421.106C313.566 421.043 313.632 420.998 313.707 420.979V420.979Z" fill="#263238"/>
<path d="M310.076 423.337C315.181 422.158 321.5 422.783 325.567 426.308C325.72 426.449 325.567 426.661 325.355 426.626C320.382 425.204 315.272 424.318 310.112 423.985C310.035 423.975 309.964 423.939 309.912 423.882C309.859 423.826 309.828 423.753 309.824 423.676C309.82 423.599 309.842 423.522 309.889 423.46C309.935 423.399 310.001 423.355 310.076 423.337Z" fill="#263238"/>
<path d="M376.023 177.704L375.976 181.063L374.078 329.438L374.066 330.004L372.946 418.881L318.646 417.796L329.127 177.88L329.268 174.674L329.799 146.84H375.657L376.023 177.704Z" fill="#263238"/>
<path d="M320.922 408.742C329.399 408.66 326.97 408.565 335.446 408.589C339.596 408.589 366.852 408.695 370.719 409.379C370.813 409.379 370.801 409.532 370.719 409.556C366.84 410.145 339.584 409.555 335.434 409.485C326.958 409.308 329.387 409.261 320.922 408.99C320.903 408.996 320.882 408.997 320.862 408.994C320.842 408.99 320.823 408.982 320.807 408.97C320.791 408.958 320.777 408.943 320.768 408.924C320.759 408.906 320.754 408.886 320.754 408.866C320.754 408.846 320.759 408.825 320.768 408.807C320.777 408.789 320.791 408.773 320.807 408.761C320.823 408.749 320.842 408.741 320.862 408.738C320.882 408.735 320.903 408.736 320.922 408.742V408.742Z" fill="#455A64"/>
<path d="M369.598 164.064C367.606 195.245 366.179 226.474 364.883 257.703C363.586 288.932 362.678 319.795 362.136 350.906C361.829 368.44 361.704 385.966 361.759 403.484C361.759 403.509 361.769 403.533 361.786 403.551C361.804 403.569 361.828 403.579 361.853 403.579C361.878 403.579 361.902 403.569 361.92 403.551C361.937 403.533 361.947 403.509 361.947 403.484C362.419 387.864 362.902 372.244 363.315 356.623C363.727 341.003 364.105 325.383 364.494 309.774C365.342 278.707 366.396 247.663 367.653 216.642C368.36 199.124 369.174 181.617 369.893 164.111C369.952 163.828 369.61 163.84 369.598 164.064Z" fill="#455A64"/>
<path d="M432.48 363.19C432.48 363.19 439.318 413.493 439.33 413.528C440.685 423.148 441.687 431.589 441.829 436.022V436.092C441.972 437.123 441.871 438.173 441.534 439.158C441.534 439.158 441.534 439.157 441.534 439.228C438.952 441.586 362.442 454.672 359.613 454.224C356.784 453.776 357.833 445.7 360.391 442.824C362.949 439.947 390.017 421.84 390.017 421.84L383.662 371.489L432.48 363.19Z" fill="#AD6359"/>
<path d="M437.915 403.201C437.915 403.201 439.318 413.493 439.33 413.528C440.685 423.148 441.687 431.589 441.829 436.022V436.092C441.85 437.122 441.751 438.151 441.534 439.157C441.534 439.157 441.534 439.157 441.534 439.228C438.952 441.586 362.442 454.672 359.613 454.224C356.784 453.776 357.833 445.7 360.391 442.824C362.949 439.947 390.017 421.84 390.017 421.84L388.449 411.371L437.915 403.201Z" fill="#C7C7C7"/>
<path d="M359.566 454.188C362.396 454.636 438.894 441.539 441.487 439.193C442.489 438.309 441.228 427.05 439.318 413.493C439.318 413.352 439.318 413.21 439.318 413.069L389.805 420.967L389.97 421.804C389.97 421.804 362.926 439.947 360.321 442.836C357.716 445.724 356.784 453.799 359.566 454.188Z" fill="#455A64"/>
<path d="M359.931 451.111C372.769 448.589 424.77 439.617 437.738 438.144C437.844 438.144 437.856 438.144 437.738 438.226C425.065 441.008 372.958 449.555 360.002 451.371C359.695 451.359 359.66 451.17 359.931 451.111Z" fill="#263238"/>
<path d="M385.855 422.7C390.759 420.885 397.102 420.602 401.593 423.549C401.77 423.667 401.593 423.914 401.44 423.891C396.324 423.147 391.141 422.961 385.985 423.337C385.907 423.338 385.832 423.313 385.772 423.265C385.711 423.216 385.669 423.148 385.654 423.073C385.639 422.997 385.65 422.918 385.687 422.85C385.724 422.782 385.783 422.729 385.855 422.7Z" fill="#263238"/>
<path d="M382.566 425.529C387.482 423.714 393.813 423.431 398.316 426.378C398.493 426.496 398.316 426.744 398.151 426.72C393.034 425.988 387.853 425.802 382.696 426.166C382.619 426.168 382.543 426.142 382.483 426.094C382.422 426.046 382.381 425.978 382.365 425.902C382.35 425.826 382.361 425.747 382.398 425.679C382.435 425.611 382.494 425.558 382.566 425.529V425.529Z" fill="#263238"/>
<path d="M379.277 428.371C384.193 426.555 390.535 426.26 395.027 429.219C395.204 429.337 395.027 429.573 394.862 429.549C389.745 428.815 384.563 428.633 379.407 429.007C379.329 429.009 379.254 428.983 379.193 428.935C379.133 428.887 379.091 428.819 379.076 428.743C379.06 428.667 379.072 428.588 379.109 428.52C379.146 428.452 379.205 428.399 379.277 428.371V428.371Z" fill="#263238"/>
<path d="M334.467 146.793C334.668 147.736 337.874 162.614 341.199 175.393C343.557 184.73 346.103 192.935 347.529 193.784C349.145 194.738 356.961 198.228 359.66 199.324L371.708 314.561L388.024 421.344L441.322 413.092L403.397 179.507L397.22 146.817L334.467 146.793Z" fill="#263238"/>
<path d="M388.342 410.723C396.713 409.379 394.296 409.638 402.678 408.365C406.78 407.752 433.753 403.755 437.679 403.85C437.761 403.85 437.785 404.003 437.679 404.027C433.93 405.205 406.898 408.742 402.784 409.261C394.378 410.345 396.771 409.945 388.354 410.935C388.334 410.926 388.316 410.912 388.303 410.894C388.29 410.876 388.283 410.855 388.282 410.832C388.28 410.81 388.285 410.788 388.296 410.769C388.307 410.749 388.323 410.733 388.342 410.723V410.723Z" fill="#455A64"/>
<path d="M404.529 192.392C403.114 192.027 401.593 191.909 400.143 191.673C398.964 191.497 397.785 191.284 396.607 191.037C394.39 190.632 392.29 189.747 390.453 188.443C388.449 186.887 387.435 184.517 386.468 182.242C385.89 180.887 385.289 179.554 384.688 178.21C384.405 177.558 384.11 176.91 383.804 176.265C383.391 175.504 383.029 174.716 382.719 173.907C382.719 173.79 382.495 173.849 382.542 173.907C382.732 174.457 382.893 175.016 383.026 175.581C383.226 176.242 383.415 176.89 383.615 177.538C383.969 178.717 384.322 179.896 384.711 181.016C385.283 183.14 386.11 185.187 387.175 187.111C389.309 190.518 393.141 191.897 396.96 192.381C398.057 192.51 399.165 192.593 400.261 192.652C401.649 192.776 403.046 192.776 404.434 192.652C404.694 192.746 404.753 192.475 404.529 192.392Z" fill="#455A64"/>
<path d="M343.356 191.744C348.975 193.789 354.407 196.318 359.589 199.301C359.79 199.419 359.648 199.737 359.436 199.643C353.966 197.285 348.39 195.045 343.061 192.404C342.987 192.357 342.933 192.285 342.908 192.201C342.883 192.117 342.888 192.027 342.924 191.947C342.96 191.867 343.023 191.802 343.102 191.765C343.182 191.728 343.272 191.72 343.356 191.744V191.744Z" fill="#455A64"/>
<path d="M341.706 154.291C341.706 154.102 342.048 154.055 342.048 154.291C342.049 160.389 342.356 166.484 342.967 172.552C343.226 175.369 345.49 190.942 350.37 189.811C351.184 189.622 351.608 188.809 351.738 187.583C351.72 185.97 351.503 184.367 351.09 182.808C350.547 179.543 350.111 176.277 349.828 172.988C349.264 166.859 349.331 160.689 350.029 154.574C350.038 154.539 350.059 154.508 350.088 154.486C350.116 154.464 350.152 154.452 350.188 154.452C350.224 154.452 350.259 154.464 350.288 154.486C350.317 154.508 350.337 154.539 350.347 154.574C350.199 163.075 350.695 171.576 351.832 180.002C352.445 184.046 354.485 190.141 350.241 190.766C345.997 191.39 343.167 181.193 342.613 178.399C341.273 170.436 340.968 162.332 341.706 154.291V154.291Z" fill="#455A64"/>
<path d="M350.241 190.2C350.682 191.249 351.048 192.329 351.337 193.43C351.653 194.278 351.808 195.177 351.797 196.082C351.79 196.119 351.773 196.153 351.746 196.18C351.72 196.207 351.687 196.225 351.65 196.232C351.613 196.24 351.575 196.237 351.541 196.222C351.506 196.208 351.476 196.184 351.455 196.153C350.936 195.356 350.539 194.486 350.276 193.571C349.911 192.569 349.51 191.579 349.168 190.577C349.143 190.507 349.133 190.432 349.137 190.357C349.141 190.283 349.16 190.21 349.192 190.142C349.224 190.075 349.27 190.015 349.325 189.965C349.381 189.915 349.446 189.877 349.516 189.852C349.586 189.827 349.661 189.817 349.736 189.821C349.81 189.825 349.883 189.843 349.951 189.876C350.018 189.908 350.078 189.953 350.128 190.009C350.178 190.064 350.216 190.129 350.241 190.2V190.2Z" fill="#455A64"/>
<path d="M423.191 358.015C420.99 344.842 418.797 331.666 416.612 318.486C412.274 292.221 407.818 265.955 403.892 239.619C401.684 224.82 399.542 210.013 397.467 195.198C397.467 194.939 397.031 194.939 397.055 195.198C400.061 221.7 403.786 248.118 407.841 274.467C411.897 300.815 416.412 327.022 421.163 353.216C423.827 367.905 426.338 382.689 429.415 397.248C429.415 397.389 429.686 397.354 429.663 397.248C427.753 384.115 425.372 371.077 423.191 358.015Z" fill="#455A64"/>
<path d="M360.026 199.218C360.026 198.994 359.66 198.994 359.672 199.218C360.603 216.442 369.94 309.68 374.007 330.853C374.007 330.959 374.196 330.959 374.196 330.853C373.689 313.606 360.816 208.885 360.026 199.218Z" fill="#455A64"/>
<path d="M357.362 80.3391C355.735 89.4637 348.131 110.601 334.043 128.673C328.597 135.629 308.65 143.539 292.558 148.349C286.595 150.235 280.498 151.673 274.321 152.652V152.652C273.695 152.736 273.066 152.787 272.435 152.805C264.949 152.959 260.964 141.276 260.976 132.823C260.976 132.599 260.976 132.363 260.976 132.139C260.976 131.915 260.976 131.892 260.976 131.762C261.117 128.332 261.978 125.597 263.569 124.689C264.135 124.372 264.718 124.085 265.314 123.828C268.344 122.52 273.649 120.81 279.732 118.995C281.158 118.559 282.644 118.122 284.141 117.686C298.288 113.548 314.509 109.222 316.171 107.949C318.706 105.992 335.034 90.4775 344.983 76.6963C352.222 66.5696 360.05 65.155 357.362 80.3391Z" fill="#DD6A57"/>
<path d="M292.558 148.302C286.594 150.188 280.498 151.626 274.32 152.605V152.605C266.657 153.74 258.891 154.009 251.167 153.407C246.452 152.947 232.965 150.188 233.048 146.522C233.13 142.856 237.127 143.315 237.127 143.315C237.127 143.315 231.609 141.299 232.022 137.621C232.364 134.603 236.584 134.674 238.105 134.792C238.14 134.774 238.178 134.765 238.217 134.765C238.256 134.765 238.294 134.774 238.329 134.792H238.6C238.6 134.792 233.083 132.305 233.755 128.674C234.356 125.42 239.284 126.646 240.321 126.941C239.473 126.575 235.535 124.677 237.162 122.225C239.343 118.901 248.409 123.734 253.666 123.97C253.926 123.97 255.246 123.97 257.203 123.97C261.376 121.4 266.469 119.148 268.662 118.853C272.344 118.593 276.042 118.621 279.72 118.936C281.146 118.5 282.632 118.064 284.129 117.627C286.793 121.199 294.468 133.153 292.558 148.302Z" fill="#455A64"/>
<path d="M278.046 123.404L277.586 139.425V139.838L277.244 151.992C276.287 152.255 275.315 152.46 274.332 152.605V152.605C266.669 153.74 258.902 154.008 251.179 153.407C246.464 152.947 232.977 150.188 233.06 146.522C233.142 142.856 237.138 143.315 237.138 143.315C237.138 143.315 231.621 141.299 232.034 137.621C232.376 134.603 236.596 134.674 238.117 134.792H238.365H238.636C238.636 134.792 233.118 132.304 233.79 128.673C234.392 125.42 239.319 126.646 240.357 126.941H240.487H240.392C239.543 126.575 235.606 124.677 237.233 122.225C239.414 118.901 248.479 123.734 253.737 123.97C253.997 123.97 255.317 123.97 257.274 123.97L265.373 123.769L278.046 123.404Z" fill="#455A64"/>
<path d="M258.311 130.607C256.067 131.031 253.792 131.271 251.509 131.326C247.473 131.344 243.563 129.928 240.475 127.33C240.298 127.2 240.286 127.07 240.357 127C240.399 126.978 240.445 126.966 240.492 126.966C240.539 126.966 240.586 126.978 240.628 127C243.787 128.869 247.307 130.046 250.955 130.454C253.382 130.631 255.819 130.599 258.24 130.359C258.417 130.371 258.464 130.583 258.311 130.607Z" fill="#263238"/>
<path d="M257.215 138.505C249.552 139.166 245.06 139.213 238.223 135.193C238.011 135.075 237.975 134.863 238.093 134.792C238.128 134.774 238.166 134.765 238.205 134.765C238.244 134.765 238.282 134.774 238.317 134.792C245.532 137.845 249.363 138.329 257.179 138.329C257.309 138.305 257.321 138.494 257.215 138.505Z" fill="#263238"/>
<path d="M237.716 143.539C244.943 146.003 249.116 146.687 256.696 145.697C256.725 145.705 256.751 145.723 256.769 145.748C256.787 145.772 256.797 145.802 256.797 145.832C256.797 145.863 256.787 145.892 256.769 145.917C256.751 145.941 256.725 145.959 256.696 145.968C249.069 147.736 243.858 146.923 237.61 143.763C237.244 143.551 237.268 143.386 237.716 143.539Z" fill="#263238"/>
<path d="M274.498 138.859C274.096 138.781 273.702 138.671 273.319 138.529L273.001 138.399C267.106 135.841 265.809 126.551 265.809 126.551C263.704 126.831 261.577 126.926 259.455 126.834C256.402 126.705 253.349 126.151 251.651 124.771C251.201 124.416 250.841 123.96 250.602 123.439C250.473 123.163 250.386 122.869 250.342 122.567C250.336 122.54 250.336 122.511 250.342 122.484C250.213 120.775 253.879 119.136 258.17 117.969C262.886 116.672 268.415 115.953 270.596 116.283C274.211 117.069 277.758 118.137 281.206 119.478C282.667 120.009 283.634 120.386 283.634 120.386C283.634 120.386 281.63 140.392 274.498 138.859Z" fill="#455A64"/>
<path d="M250.955 123.769C254.633 127.589 260.975 126.328 265.75 126.045C265.82 126.036 265.891 126.045 265.957 126.07C266.023 126.096 266.081 126.137 266.127 126.191C266.172 126.245 266.204 126.309 266.218 126.379C266.233 126.448 266.23 126.519 266.21 126.587C267.153 131.078 269.746 137.138 274.25 139.024C274.379 139.083 274.32 139.284 274.179 139.236C269.122 137.857 266.045 132.163 265.326 127.129C260.445 127.495 254.032 128.485 250.92 123.805C250.908 123.769 250.931 123.746 250.955 123.769Z" fill="#263238"/>
<path d="M349.345 107.866L320.238 101.7C320.238 101.7 341.104 76.5548 349.333 70.8843C358.587 64.5066 359.825 70.6368 357.974 81.1643C356.123 91.6917 349.345 107.866 349.345 107.866Z" fill="#FF006D"/>
<path opacity="0.1" d="M349.345 107.866L320.238 101.7C320.238 101.7 341.104 76.5548 349.333 70.8843C358.587 64.5066 359.825 70.6368 357.974 81.1643C356.123 91.6917 349.345 107.866 349.345 107.866Z" fill="black"/>
<path d="M405.119 171.255C404.93 171.467 328.09 171.715 327.312 170.878C326.275 169.699 342.331 81.3412 350.701 70.4247C352.493 68.0669 365.166 65.9095 370.259 70.2832C386.704 84.3945 405.838 170.536 405.119 171.255Z" fill="#FF006D"/>
<path opacity="0.1" d="M354.662 100.71H369.256V98.3525H354.662V100.71Z" fill="black"/>
<path d="M318.792 114.337L273.697 129.364L293.256 188.059L338.351 173.032L318.792 114.337Z" fill="#A6A6A6"/>
<path d="M306.127 115.169L284.746 122.269L286.897 128.747L308.278 121.647L306.127 115.169Z" fill="#EBEBEB"/>
<path d="M301.27 116.814L298.641 117.698L297.639 114.704L291.249 116.826L292.24 119.82L289.599 120.692L287.795 115.246L299.502 111.367L301.27 116.814Z" fill="#EBEBEB"/>
<path d="M376.978 75.765C389.557 91.9865 416.765 133.884 409.185 142.702C396.748 157.108 366.215 169.97 356.642 172.87C352.528 174.12 337.78 144.129 341.658 141.653C346.315 138.682 378.675 127.389 378.499 124.583C378.404 122.991 372.604 108.373 369.28 91.2674C365.437 71.4385 372.675 70.1653 376.978 75.765Z" fill="#DD6A57"/>
<path d="M356.43 139.614C356.43 139.614 343.816 135.959 335.564 133.967C330.907 132.788 322.773 131.609 318.977 132.399C313.307 133.507 290.306 141.83 292.193 147.406C293.902 152.499 312.752 142.879 312.752 142.879C312.752 142.879 292.865 150.896 296.048 156.649C299.231 162.401 319.06 148.691 319.06 148.691C319.06 148.691 298.806 157.391 303.027 162.838C306.221 166.928 324.907 155.529 324.907 155.529C324.907 155.529 307.554 163.132 310.654 167.483C314.073 172.281 331.992 162.838 331.992 162.838C341.73 172.564 350.335 173.2 356.513 172.929C357.963 172.835 356.43 139.614 356.43 139.614Z" fill="#DD6A57"/>
<path d="M356.536 135.228C354.851 136.027 353.084 136.64 351.266 137.055C346.857 137.48 340.326 135.122 335.516 133.967C330.707 132.811 322.725 131.609 318.929 132.399C313.259 133.507 290.259 141.83 292.145 147.406C293.854 152.499 312.705 142.879 312.705 142.879C312.705 142.879 292.817 150.896 296 156.649C299.183 162.401 319.059 148.691 319.059 148.691C319.059 148.691 298.806 157.391 303.026 162.838C306.221 166.928 324.906 155.529 324.906 155.529C324.906 155.529 307.553 163.132 310.654 167.483C314.072 172.281 331.992 162.838 331.992 162.838C341.729 172.564 350.335 173.2 356.512 172.929C356.819 172.929 367.488 170.088 367.476 168.862C367.394 159.112 356.536 135.228 356.536 135.228Z" fill="#455A64"/>
<path d="M319.413 139.661C317.056 140.521 314.639 141.37 312.34 142.431C310.041 143.492 307.801 144.647 305.62 145.968C302.744 147.577 300.062 149.511 297.628 151.733C302.237 148.113 310.371 144.164 312.658 143.103C314.945 142.042 317.162 140.863 319.449 139.79C319.519 139.72 319.472 139.637 319.413 139.661Z" fill="#263238"/>
<path d="M323.409 147.842C320.427 149.021 317.432 150.2 314.497 151.532C311.561 152.864 308.944 154.432 306.138 155.977C305.915 156.094 306.056 156.177 306.28 156.059C309.145 154.621 311.915 153.524 314.803 152.122C317.692 150.719 320.521 149.198 323.445 147.913C323.492 147.889 323.456 147.83 323.409 147.842Z" fill="#263238"/>
<path d="M328.102 154.255C323.491 156.026 319.075 158.266 314.922 160.94C314.71 161.069 314.922 161.152 315.111 161.034C319.461 158.676 322.844 156.884 328.161 154.409C328.243 154.373 328.208 154.22 328.102 154.255Z" fill="#263238"/>
<path d="M372.227 111.367L401.865 109.234C401.865 109.234 384.665 81.4472 377.297 74.704C369.044 67.112 366.934 73.0182 367.323 83.6871C367.712 94.3561 372.227 111.367 372.227 111.367Z" fill="#FF006D"/>
<path opacity="0.1" d="M372.227 111.367L401.865 109.234C401.865 109.234 384.665 81.4472 377.297 74.704C369.044 67.112 366.934 73.0182 367.323 83.6871C367.712 94.3561 372.227 111.367 372.227 111.367Z" fill="black"/>
<path d="M355.605 81.294C358.293 81.6948 366.215 76.7789 369.162 71.4739C369.374 71.1084 367.983 56.4312 368.054 53.4958C368.054 52.8946 349.593 57.7516 349.593 57.7516C350.597 61.4356 351.151 65.2279 351.243 69.0453C351.232 69.4418 351.185 69.8364 351.102 70.2242V70.4246C350.606 72.7353 351.597 80.7046 355.605 81.294Z" fill="#DD6A57"/>
<path d="M366.804 53.5782C366.061 58.0227 363.079 70.4599 352.893 70.5778C352.262 70.5852 351.631 70.5418 351.007 70.4482V70.2477C351.081 69.8587 351.124 69.4646 351.137 69.0689C351.053 65.2516 350.502 61.4588 349.498 57.7751C349.498 57.7751 362.678 54.2856 366.804 53.5782Z" fill="#263238"/>
<path d="M368.572 28.6095C371.272 34.8811 369.904 54.0027 365.743 58.6947C359.719 65.4851 348.826 67.2652 342.802 59.7911C336.907 52.5409 339.171 27.6546 343.91 23.2455C350.889 16.8206 364.635 19.3552 368.572 28.6095Z" fill="#DD6A57"/>
<path d="M351.904 41.9544C351.904 41.9544 351.998 42.0252 351.998 42.0841C351.868 43.3691 351.939 44.8545 353.082 45.3614C353.082 45.3614 353.082 45.4439 353.082 45.4321C351.656 45.1138 351.573 43.1569 351.904 41.9544Z" fill="#263238"/>
<path d="M353.141 40.6931C355.228 40.6931 355.11 44.8428 353.141 44.8546C351.172 44.8664 351.396 40.7049 353.141 40.6931Z" fill="#263238"/>
<path d="M344.429 41.9662C344.429 41.9662 344.323 41.9662 344.323 42.0723C344.323 43.3691 344.123 44.8427 342.944 45.2436C342.944 45.2436 342.944 45.3261 342.944 45.3143C344.382 45.1139 344.641 43.1923 344.429 41.9662Z" fill="#263238"/>
<path d="M343.309 40.587C341.246 40.3748 340.951 44.5244 342.884 44.7248C344.818 44.9253 345.054 40.7638 343.309 40.587Z" fill="#263238"/>
<path d="M354.838 38.8304C354.297 38.6558 353.765 38.4511 353.247 38.2174C352.653 38.0857 352.122 37.7576 351.738 37.2861C351.643 37.1162 351.608 36.9194 351.638 36.7272C351.668 36.535 351.761 36.3582 351.903 36.2251C352.221 36.0001 352.594 35.8659 352.982 35.8368C353.371 35.8077 353.76 35.8849 354.107 36.0601C354.871 36.2965 355.518 36.8094 355.923 37.4983C356.004 37.6605 356.036 37.8426 356.016 38.0227C355.996 38.2028 355.924 38.3734 355.81 38.5139C355.695 38.6544 355.543 38.759 355.371 38.8151C355.198 38.8713 355.014 38.8766 354.838 38.8304Z" fill="#263238"/>
<path d="M341.753 38.4414C342.342 38.3589 342.861 38.1938 343.427 38.0641C344.033 38.0064 344.603 37.7541 345.054 37.345C345.171 37.1909 345.235 37.0025 345.235 36.8086C345.235 36.6148 345.171 36.4263 345.054 36.2722C344.769 36.0077 344.419 35.8243 344.04 35.7414C343.66 35.6584 343.265 35.6789 342.896 35.8007C342.105 35.9302 341.39 36.3506 340.892 36.9796C340.794 37.127 340.74 37.2989 340.735 37.4758C340.73 37.6526 340.776 37.8273 340.865 37.9797C340.955 38.1322 341.086 38.2563 341.243 38.338C341.4 38.4196 341.577 38.4554 341.753 38.4414V38.4414Z" fill="#263238"/>
<path d="M351.514 50.0652C351.175 50.5691 350.734 50.9969 350.221 51.3216C349.707 51.6463 349.132 51.8608 348.531 51.9515C348.007 52.0223 347.476 52.0223 346.952 51.9515C346.85 51.9637 346.747 51.9637 346.645 51.9515H346.362C346.295 51.9344 346.235 51.8968 346.191 51.8439C346.147 51.7911 346.12 51.7256 346.115 51.6567C346.109 51.6137 346.109 51.5701 346.115 51.5271V51.5271V51.4092C346.115 50.4189 346.256 48.9099 346.256 48.9099C345.879 49.0868 344.004 49.8648 344.052 49.3461C344.299 44.8368 345.01 40.3649 346.174 36.0011C346.174 35.9698 346.186 35.9398 346.208 35.9177C346.23 35.8956 346.26 35.8832 346.291 35.8832C346.323 35.8832 346.353 35.8956 346.375 35.9177C346.397 35.9398 346.409 35.9698 346.409 36.0011C346.209 40.139 345.289 44.2533 345.018 48.3676C345.689 48.0856 346.395 47.8953 347.117 47.8018C347.258 47.8018 346.798 50.7136 346.834 51.1498C347.646 51.2542 348.471 51.1931 349.259 50.9702C350.047 50.7473 350.782 50.3673 351.42 49.853C351.502 49.8295 351.596 49.9709 351.514 50.0652Z" fill="#263238"/>
<path d="M347.553 51.4917C348.078 52.2154 348.781 52.7919 349.593 53.1657C350.045 53.3514 350.542 53.3965 351.019 53.2954C352.057 53.0478 352.104 52.1165 351.939 51.2913C351.844 50.8604 351.701 50.4414 351.515 50.0416C350.383 50.9354 348.995 51.4435 347.553 51.4917V51.4917Z" fill="#263238"/>
<path d="M349.593 53.1657C350.044 53.3514 350.541 53.3966 351.019 53.2954C352.056 53.0478 352.104 52.1165 351.939 51.2913C351.393 51.2933 350.865 51.4797 350.439 51.8199C350.013 52.1602 349.715 52.6345 349.593 53.1657V53.1657Z" fill="#F7A9A0"/>
<path d="M369.127 46.2928C365.673 45.4793 363.374 34.1384 363.374 34.1384C363.374 34.1384 363.645 38.9837 362.726 38.854C361.806 38.7243 357.763 32.3819 357.114 27.6781C354.518 29.5833 351.685 31.1408 348.685 32.3111C344.429 33.8083 340.091 33.6787 340.185 32.9477C340.48 30.7079 341.364 25.1199 343.026 23.5166C345.196 21.5507 347.854 20.2047 350.723 19.6198C353.591 19.0349 356.565 19.2326 359.33 20.1922C366.522 22.55 368.585 26.9826 369.811 30.4485C371.037 33.9144 370.4 46.5403 369.127 46.2928Z" fill="#263238"/>
<path d="M366.286 44.3358C366.286 44.3358 369.988 37.8873 372.876 39.1487C375.764 40.4101 373.371 49.5111 370.235 51.0083C369.847 51.2269 369.419 51.3647 368.977 51.4134C368.534 51.4622 368.086 51.4209 367.66 51.2921C367.234 51.1632 366.838 50.9494 366.496 50.6636C366.155 50.3778 365.875 50.0259 365.673 49.629L366.286 44.3358Z" fill="#DD6A57"/>
<path d="M372.109 41.7422C372.109 41.7422 372.18 41.7422 372.109 41.8247C369.928 43.0036 368.926 45.161 368.278 47.4127C368.391 47.1745 368.554 46.9636 368.756 46.7943C368.958 46.625 369.194 46.5015 369.448 46.432C369.702 46.3626 369.968 46.349 370.228 46.3921C370.488 46.4352 370.736 46.534 370.954 46.6818C371.013 46.6818 370.954 46.8114 370.954 46.7997C370.543 46.7103 370.114 46.7495 369.726 46.9119C369.338 47.0742 369.01 47.3519 368.785 47.7074C368.417 48.3065 368.112 48.9427 367.877 49.6054C367.795 49.8176 367.417 49.7469 367.476 49.4993C367.158 46.5639 369.044 42.3081 372.109 41.7422Z" fill="#263238"/>
<path d="M340.657 27.9493C342.46 27.4306 352.622 27.2891 357.255 29.0574C361.888 30.8258 370.223 37.0267 370.695 37.3096C371.166 37.5926 372.498 20.8052 358.811 18.3767C343.898 15.7242 340.657 27.9493 340.657 27.9493Z" fill="#FF006D"/>
<path d="M369.893 36.6966C369.893 36.6966 360.462 25.2614 355.322 22.7857C350.182 20.3101 339.006 19.2491 332.251 22.5853C326.97 25.1907 340.397 31.5331 340.397 31.5331C340.497 30.9625 340.728 30.4229 341.072 29.9565C341.415 29.4902 341.862 29.1098 342.378 28.8452C345.678 27.3716 352.103 28.1261 355.782 29.1871C360.426 30.531 369.893 36.6966 369.893 36.6966Z" fill="#FF006D"/>
<path opacity="0.2" d="M369.893 36.6966C369.893 36.6966 360.462 25.2614 355.322 22.7857C350.182 20.3101 339.006 19.2491 332.251 22.5853C326.97 25.1907 340.397 31.5331 340.397 31.5331C340.497 30.9625 340.728 30.4229 341.072 29.9565C341.415 29.4902 341.862 29.1098 342.378 28.8452C345.678 27.3716 352.103 28.1261 355.782 29.1871C360.426 30.531 369.893 36.6966 369.893 36.6966Z" fill="black"/>
<path d="M266.598 21.727C266.599 25.7135 265.492 29.6217 263.4 33.0154C261.308 36.409 258.315 39.1547 254.753 40.9459C251.192 42.7371 247.203 43.5034 243.231 43.1592C239.26 42.815 235.462 41.3739 232.262 38.9967L221.724 41.6914L226.109 31.8783C224.564 28.9937 223.697 25.7948 223.575 22.5248C223.452 19.2548 224.076 15.9999 225.401 13.0076C226.725 10.0153 228.715 7.36452 231.218 5.25677C233.721 3.14901 236.672 1.63985 239.846 0.844063C243.02 0.0482792 246.333 -0.0131631 249.535 0.664405C252.736 1.34197 255.741 2.74071 258.32 4.75422C260.9 6.76773 262.986 9.34299 264.421 12.2841C265.855 15.2252 266.6 18.4548 266.598 21.727V21.727Z" fill="white"/>
<path d="M266.598 21.7271C266.565 25.7066 265.436 29.6001 263.334 32.9794C262.816 33.8198 262.245 34.6264 261.624 35.394C260.977 36.1391 260.287 36.8454 259.557 37.5093C258.12 38.8487 256.493 39.9683 254.728 40.8318C252.06 42.1554 249.138 42.8869 246.161 42.9761C245.195 43.032 244.226 43.0126 243.263 42.9181C239.349 42.5485 235.616 41.0934 232.484 38.7166L232.358 38.6104H232.194L221.637 41.2182L222.13 41.8074L226.554 32.0039L226.65 31.801L226.534 31.5982C225.044 28.7697 224.199 25.6457 224.062 22.4515C223.94 19.252 224.541 16.0663 225.82 13.1309C227.133 10.2056 229.064 7.59924 231.48 5.4909C233.935 3.39626 236.833 1.88492 239.956 1.07027C243.079 0.255623 246.346 0.158829 249.512 0.787147C254.339 1.77008 258.677 4.39211 261.791 8.20863C264.905 12.0252 266.604 16.8013 266.598 21.7271V21.7271ZM266.598 21.7271C266.597 18.4531 265.855 15.2219 264.426 12.276C262.998 9.33014 260.92 6.74621 258.35 4.71821C255.778 2.65626 252.765 1.21431 249.546 0.504128C246.327 -0.206055 242.987 -0.165395 239.786 0.622952C236.56 1.38923 233.553 2.88615 230.997 4.99831C227.125 8.21079 224.483 12.663 223.518 17.6006C222.554 22.5381 223.326 27.6573 225.704 32.0908V31.6851L221.357 41.5176L221 42.3193L221.84 42.0971L232.368 39.3348L232.078 39.2768C235.34 41.6561 239.199 43.0808 243.224 43.3914C244.221 43.4735 245.222 43.4735 246.219 43.3914C247.217 43.337 248.211 43.2143 249.194 43.0244C251.144 42.6407 253.032 41.9907 254.805 41.0926C256.565 40.1814 258.19 39.0307 259.634 37.6735C260.362 36.9963 261.049 36.2771 261.692 35.5196C262.309 34.7451 262.877 33.9322 263.392 33.0856C265.488 29.668 266.598 25.7366 266.598 21.7271V21.7271Z" fill="#263238"/>
<path d="M239.187 36.0509L228.968 25.6968L232.397 22.3066L238.376 28.3529L250.778 8.89078L254.854 11.489L239.187 36.0509Z" fill="#FF006D"/>
</svg>
