<svg width="529" height="404" viewBox="0 0 529 404" fill="none" xmlns="http://www.w3.org/2000/svg">
<path d="M296 378.233C206.715 378.233 134.335 368.285 134.335 356.013C134.335 343.741 206.715 333.793 296 333.793C385.285 333.793 457.665 343.741 457.665 356.013C457.665 368.285 385.285 378.233 296 378.233Z" fill="#3F7DC2"/>
<path d="M465.163 371.087L269.039 371.938C221.365 334.497 216.448 279.038 250.447 245.429C271.036 225.095 297.168 229.193 322.06 225.966H322.132C330.798 224.839 339.3 222.821 347.372 218.56C372.981 205.038 387.445 173.15 409.008 146.322C411.692 142.962 414.505 139.701 417.448 136.539C435.17 117.609 470.459 116.995 488.918 143.607C535.813 211.205 514.333 311.859 465.163 371.087Z" fill="#C7C7C7"/>
<path d="M469.517 216.368C464.395 296.831 371.455 326.866 313.415 302.762C262.944 281.804 279.467 233.966 322.06 225.935H322.132C330.798 224.809 339.3 222.791 347.372 218.529C372.981 205.008 387.445 173.119 409.008 146.291C441.101 129.625 473.287 157.447 469.517 216.368Z" fill="#A6A6A6"/>
<path d="M160.501 367.855C163.461 367.927 240.079 344.24 242.425 341.497C242.677 341.191 241.396 337.888 239.42 328.865C239.33 328.431 240.476 326.212 242.352 322.999C249.409 310.926 266.716 284.614 266.716 284.614L217.349 265.439L193.734 314.364L187.598 327.087C187.598 327.087 162.035 352.786 159.77 356.079C157.505 359.373 157.514 367.792 160.501 367.855Z" fill="#F7A9A0"/>
<path d="M160.502 367.864C163.452 367.927 240.079 344.249 242.425 341.497C242.678 341.2 241.396 337.888 239.411 328.865C226.643 334.116 173.062 355.935 169.317 353.228C167.089 351.631 168.956 347.39 171.248 343.708C165.735 349.402 160.718 354.681 159.78 356.061C157.506 359.373 157.515 367.792 160.502 367.864Z" fill="#263238"/>
<path d="M201.007 292.861L209.183 297.373L235.585 312.036L250.022 320.049C250.022 320.049 274.9 270.42 286.874 257.02C287.543 256.25 288.274 255.535 289.058 254.882C290.294 254.324 291.62 253.991 292.974 253.898C309.027 251.949 363.068 257.201 400.407 254.801L382.964 231.493L375.258 221.17C333.191 216.37 281.568 199.171 258.27 210.857C233.013 223.516 201.007 292.861 201.007 292.861Z" fill="#37474F"/>
<path d="M209.228 287.176C217.484 291.481 215.165 290.136 223.376 294.531C227.392 296.678 247.604 307.425 251.015 310.051C251.031 310.064 251.042 310.084 251.046 310.105C251.05 310.126 251.046 310.147 251.035 310.166C251.024 310.184 251.007 310.198 250.987 310.205C250.967 310.212 250.945 310.212 250.925 310.204C246.873 308.751 226.904 297.571 222.952 295.352C214.831 290.84 217.204 292.031 209.128 287.402C209.105 287.385 209.089 287.361 209.081 287.333C209.074 287.305 209.076 287.276 209.088 287.25C209.099 287.223 209.119 287.202 209.145 287.189C209.17 287.175 209.199 287.171 209.228 287.176V287.176Z" fill="#263238"/>
<path d="M235.585 312.063L250.022 320.076C250.022 320.076 274.9 270.447 286.874 257.047L235.585 312.063Z" fill="#263238"/>
<path d="M244.979 313.272C251.123 303.004 279.096 252.283 284.682 250.289C289.753 248.484 391.158 250.578 392.674 250.596C392.782 250.596 392.791 250.758 392.674 250.758C380.664 250.605 288.002 250.271 285.295 251.317C279.8 253.492 246.341 312.325 245.52 313.579C245.321 313.877 244.762 313.624 244.979 313.272Z" fill="#263238"/>
<path d="M428.839 233.568C428.839 233.568 432.043 264.158 416.522 279.362C397.952 297.571 275.405 292.969 256.411 286.834C237.417 280.698 236.821 250.045 257.584 242.944C277.336 236.194 364.9 232.305 366.975 231.484C369.05 230.663 375.096 220.963 375.096 220.963L428.839 233.568Z" fill="#37474F"/>
<path d="M402.897 232.711C402.897 232.567 403.15 232.612 403.15 232.711C403.155 236.673 404.554 240.506 407.102 243.539C410.008 246.896 414.321 248.782 418.183 250.758C418.562 250.947 418.273 251.525 417.885 251.417C415.499 250.68 413.2 249.688 411.027 248.457C409.034 247.389 407.278 245.928 405.866 244.162C404.607 242.562 403.694 240.718 403.183 238.747C402.672 236.777 402.575 234.721 402.897 232.711Z" fill="#263238"/>
<path d="M367.814 229.571C368.716 228.47 369.619 227.414 370.521 226.341C372.659 223.787 374.807 221.233 377.054 218.779C377.261 218.544 377.676 218.869 377.487 219.131C375.971 221.107 374.374 223.011 372.804 224.942L370.377 227.893C369.524 228.774 368.763 229.738 368.103 230.771C367.516 231.863 368.292 232.801 369.42 232.919C370.417 232.94 371.384 232.582 372.127 231.917C373.824 230.41 375.376 228.749 376.765 226.954C377.667 225.944 378.57 224.936 379.472 223.931C380.447 222.867 381.484 221.856 382.45 220.791C382.464 220.774 382.485 220.764 382.507 220.762C382.529 220.761 382.55 220.768 382.567 220.782C382.584 220.797 382.594 220.817 382.596 220.839C382.598 220.861 382.591 220.883 382.576 220.899C381.728 222.054 380.952 223.273 380.095 224.437C379.238 225.601 378.389 226.756 377.514 227.902C376.639 229.048 375.827 230.04 374.942 231.078C374.207 231.994 373.326 232.784 372.335 233.415C370.71 234.371 367.886 234.579 367.02 232.513C366.874 231.996 366.871 231.45 367.011 230.932C367.151 230.414 367.428 229.944 367.814 229.571V229.571Z" fill="#263238"/>
<path d="M259.01 286.951C265.552 287.068 272.085 287.447 278.627 287.591C285.169 287.736 291.593 287.763 298.081 287.7C311.111 287.585 324.132 287.08 337.143 286.184C350.281 285.281 364.448 283.964 377.496 282.159C383.74 281.257 390.066 280.571 396.238 279.245C401.787 278.196 406.92 275.578 411.027 271.701C419.473 263.508 422.757 251.453 424.111 239.939C424.291 238.396 424.445 236.844 424.571 235.301C424.571 235.193 424.734 235.193 424.725 235.301C423.967 247.113 422.126 259.42 414.7 268.913C411.565 273.051 407.394 276.288 402.608 278.297C396.761 280.643 390.273 281.194 384.11 282.024C371.008 283.829 356.778 285.173 343.604 286.202C330.43 287.231 317.048 287.871 303.748 288.07C290.447 288.268 277.147 288.07 263.864 287.42C262.24 287.339 260.625 287.249 259.001 287.104C258.91 287.086 258.91 286.942 259.01 286.951Z" fill="#263238"/>
<path d="M241.55 258.365C242.797 253.239 245.924 248.769 250.312 245.84C255.013 242.628 260.643 241.166 266.22 240.354C272.536 239.452 278.907 238.973 285.25 238.351C298.256 237.087 311.274 235.92 324.304 234.85C337.324 233.785 365.36 231.601 366.939 231.538C367.074 231.538 367.102 231.773 366.939 231.782C354.37 233.18 342.937 234.38 330.349 235.526C317.762 236.672 305.039 237.882 292.397 239.136C286.098 239.737 279.8 240.372 273.502 241.04C267.664 241.644 261.663 242.24 256.186 244.496C251.494 246.427 247.271 249.54 244.871 254.106C242.644 258.607 241.984 263.723 242.994 268.642C243.868 273.218 245.97 277.469 249.075 280.941C252.058 284.362 256.037 286.763 260.454 287.808C261.609 288.061 262.999 288.241 264.063 288.449C264.145 288.449 264.226 288.638 264.145 288.638C254.733 288.873 246.026 281.997 242.633 273.407C240.744 268.621 240.366 263.372 241.55 258.365V258.365Z" fill="#263238"/>
<path d="M398.413 174.826C377.325 187.802 334.265 200.786 328.932 191.736C322.354 180.601 334.807 154.054 335.98 150.472C337.243 146.637 367.995 159.802 365.243 163.105C363.618 165.072 362.319 167.364 362.996 167.364C365.107 167.364 370.621 165.306 392.186 162.338C404.133 160.713 412.372 166.236 398.413 174.826Z" fill="#F7A9A0"/>
<path d="M369.637 164.747L374.103 174.727L379.725 187.278C379.725 187.278 394.081 181.278 401.85 174.727C407.553 169.908 409.683 164.801 406.849 162.374C405.821 161.471 404.142 160.966 401.796 160.921C388.27 160.713 369.637 164.747 369.637 164.747Z" fill="#FF006D"/>
<path d="M374.6 164.539C376.468 168.338 383.145 182.333 383.307 184.391C383.307 184.436 383.172 184.499 383.145 184.463C381.755 182.965 375.926 168.609 374.365 164.612C374.356 164.566 374.564 164.467 374.6 164.539Z" fill="#263238"/>
<path d="M374.103 174.727L379.725 187.278C379.725 187.278 394.081 181.278 401.85 174.727C407.553 169.908 409.683 164.801 406.849 162.374L374.103 174.727Z" fill="#263238"/>
<path d="M342.485 133.797C338.38 139.075 334.211 153.152 334.509 156.933C334.806 160.713 358.511 168.6 361.741 166.425C364.972 164.251 377.415 145.419 377.316 138.597C377.216 131.775 346.735 128.328 342.485 133.797Z" fill="#F7A9A0"/>
<path d="M377.361 123.185C379.427 120.875 387.341 115.064 389.335 116.869C391.329 118.673 386.835 123.997 384.94 126.091C381.042 130.404 378.155 137.911 376.819 141.566C375.484 145.22 368.428 138.326 368.428 138.326C368.428 138.326 372.001 129.177 377.361 123.185Z" fill="#F7A9A0"/>
<path d="M372.452 145.762C372.452 145.762 370.268 152.277 366.352 152.267C362.58 152.267 363.257 146.682 363.302 146.276C363.185 146.619 361.028 152.592 357.094 152.141C353.007 151.708 354.649 146.231 354.757 145.879C354.541 146.168 351.653 149.948 348.739 148.956C343.731 147.241 350.85 137.37 349.984 133.174C349.984 133.174 342.702 133.824 342.485 133.797C342.485 133.797 349.063 124.268 354.793 123.42C355.624 123.282 356.477 123.432 357.211 123.845C357.945 124.259 358.515 124.911 358.827 125.694C358.827 125.694 360.631 122.391 363.717 122.617C365.306 122.743 366.533 125.405 366.533 125.405C366.533 125.405 368.067 122.815 370.819 123.194C373.021 123.483 374.194 126.181 374.356 127.228C375.565 135.303 372.452 145.762 372.452 145.762Z" fill="#F7A9A0"/>
<path d="M374.103 126.506C374.103 126.443 374.194 126.424 374.203 126.506C375.614 133.041 375.004 139.852 372.452 146.032C372.371 146.222 372.019 146.168 372.073 145.942C373.687 139.596 374.371 133.049 374.103 126.506V126.506Z" fill="#263238"/>
<path d="M366.578 125.306C366.578 125.233 366.695 125.224 366.704 125.306C368.049 131.793 367.3 140.032 363.474 146.493C363.348 146.709 363.005 146.781 363.131 146.493C365.333 142.026 366.912 131.441 366.578 125.306Z" fill="#263238"/>
<path d="M354.333 146.276C357.762 139.96 358.845 133.138 358.899 126C358.899 125.91 359.034 125.919 359.052 126C359.955 129.51 359.44 134.049 358.728 137.55C358.137 140.815 356.699 143.867 354.559 146.402C354.505 146.456 354.261 146.375 354.333 146.276Z" fill="#263238"/>
<path d="M372.452 145.762C371.919 146.973 371.276 148.133 370.53 149.227C369.848 150.314 368.893 151.204 367.76 151.807C367.223 152.049 366.617 152.087 366.055 151.916C365.487 151.729 364.978 151.4 364.575 150.959C364.209 150.492 363.946 149.954 363.803 149.378C363.66 148.803 363.64 148.204 363.745 147.62L364.133 144.742L362.761 147.305C362.164 148.45 361.387 149.491 360.46 150.391C360.05 150.827 359.554 151.174 359.002 151.407C358.45 151.64 357.856 151.755 357.257 151.744C356.7 151.726 356.167 151.517 355.747 151.152C355.326 150.787 355.044 150.289 354.947 149.741C354.746 148.51 354.867 147.248 355.299 146.077L356.363 142.811L354.288 145.518C353.716 146.28 353.049 146.965 352.303 147.557C351.613 148.145 350.766 148.518 349.867 148.631C349.461 148.66 349.055 148.577 348.694 148.391C348.333 148.205 348.03 147.923 347.818 147.575C347.469 146.718 347.369 145.78 347.53 144.868C347.848 142.903 348.321 140.966 348.946 139.075C349.226 138.11 349.506 137.135 349.74 136.152C350.032 135.178 350.115 134.154 349.984 133.147C350.006 134.149 349.831 135.145 349.47 136.079C349.163 137.036 348.811 137.974 348.459 138.913C347.693 140.802 347.107 142.76 346.708 144.76C346.472 145.84 346.557 146.966 346.952 147.999C347.231 148.537 347.66 148.982 348.187 149.28C348.714 149.578 349.316 149.716 349.921 149.678C351.038 149.574 352.1 149.14 352.971 148.432C353.809 147.782 354.564 147.03 355.217 146.195L354.216 145.653C353.691 147.03 353.533 148.519 353.756 149.975C353.908 150.781 354.335 151.508 354.965 152.033C355.594 152.528 356.359 152.82 357.157 152.872C357.915 152.89 358.668 152.748 359.366 152.454C360.064 152.16 360.693 151.721 361.209 151.167C362.22 150.166 363.061 149.008 363.699 147.738L362.716 147.422C362.615 148.153 362.674 148.897 362.889 149.603C363.104 150.308 363.47 150.959 363.961 151.509C364.492 152.024 365.143 152.396 365.856 152.592C366.582 152.78 367.352 152.697 368.022 152.358C369.214 151.647 370.185 150.619 370.828 149.389C371.499 148.242 372.044 147.026 372.452 145.762V145.762Z" fill="#263238"/>
<path d="M364.43 163.592C364.43 163.592 389.245 149.885 379.12 142.784C376.116 140.69 361.254 135.646 360.171 138.615C358.791 142.441 364.593 145.698 368.563 147.169C368.563 147.169 359.467 150.652 360.009 157.709C360.129 159.002 360.606 160.237 361.387 161.276C362.167 162.315 363.221 163.116 364.43 163.592V163.592Z" fill="#F7A9A0"/>
<path d="M379.924 143.425C378.842 142.462 377.627 141.663 376.314 141.051C375.018 140.406 373.679 139.848 372.308 139.382C369.571 138.408 366.754 137.674 363.889 137.189C363.126 137.062 362.348 137.044 361.579 137.135C361.139 137.186 360.716 137.337 360.343 137.577C360.137 137.706 359.954 137.867 359.802 138.056C359.652 138.247 359.533 138.46 359.45 138.687C359.166 139.513 359.192 140.414 359.522 141.223C359.825 141.958 360.256 142.633 360.794 143.217C361.838 144.302 363.058 145.202 364.404 145.879C365.696 146.565 367.038 147.153 368.419 147.638V146.736C367.395 147.172 366.414 147.701 365.486 148.315C364.568 148.927 363.713 149.628 362.933 150.409C362.159 151.211 361.508 152.123 361.002 153.116C360.502 154.085 360.196 155.142 360.099 156.229C360.345 155.186 360.763 154.192 361.336 153.287C361.913 152.401 362.612 151.599 363.411 150.905C364.196 150.199 365.051 149.576 365.965 149.046C366.864 148.518 367.809 148.071 368.789 147.711L370.007 147.287L368.798 146.772C367.487 146.255 366.212 145.652 364.981 144.968C363.77 144.322 362.671 143.487 361.724 142.495C360.821 141.53 360.226 140.23 360.614 139.193C361.002 138.155 362.418 138.245 363.79 138.399C365.161 138.552 366.569 138.859 367.959 139.156C369.348 139.454 370.747 139.788 372.109 140.185C374.789 140.943 377.56 141.764 379.924 143.425Z" fill="#263238"/>
<path d="M362.968 167.4L361.028 169.647L359.124 171.911L355.308 176.423C354.035 177.921 352.754 179.41 351.446 180.872C350.787 181.612 350.137 182.343 349.451 183.046C348.766 183.75 348.08 184.454 347.394 185.176C349 184.029 350.509 182.752 351.906 181.359C353.34 179.987 354.658 178.508 355.957 177.01C357.257 175.512 358.466 173.951 359.621 172.345C360.776 170.738 361.958 169.105 362.968 167.4Z" fill="#263238"/>
<path d="M365.278 227.072C366.127 230.058 411.478 246.427 433.856 241.87C433.856 241.87 437.06 200.028 417.948 167.589C413.373 159.829 402.491 159.622 396.581 163.078C394.476 164.425 392.479 165.933 390.607 167.589C384.886 172.516 374.654 185.05 373.192 188.704C370.792 194.741 374.997 202.627 374.997 202.627L365.278 227.072Z" fill="#FF006D"/>
<path d="M423.579 173.545C437.538 192.494 451.145 227.685 442.059 234.119C429.823 242.772 392.078 247.735 362.292 247.094C358.168 247.004 362.671 215.837 367.074 215.711C372.633 215.54 414.898 214.195 415.981 213.049C416.883 212.066 414.014 196.293 412.597 179.798C410.937 160.515 419.59 168.122 423.579 173.545Z" fill="#F7A9A0"/>
<path d="M367.941 215.675C367.941 215.675 355.416 214.773 347.187 214.529C342.603 214.403 334.725 214.89 331.315 216.334C326.216 218.499 306.275 230.825 309.153 235.725C311.77 240.164 327.552 227.396 327.552 227.396C327.552 227.396 310.489 238.865 314.612 243.638C318.736 248.412 334.653 231.61 334.653 231.61C334.653 231.61 317.382 243.792 322.417 248.024C326.216 251.227 341.493 236.835 341.493 236.835C341.493 236.835 326.713 247.401 330.484 250.866C334.653 254.692 349.587 242.285 349.587 242.285C360.65 249.504 368.852 248.367 374.6 246.896C376.007 246.535 367.941 215.675 367.941 215.675Z" fill="#F7A9A0"/>
<path d="M333.227 223.056C331.17 224.337 329.086 225.61 327.146 227.063C325.206 228.515 323.329 230.04 321.542 231.664C319.158 233.741 317.023 236.088 315.181 238.658C318.79 234.344 325.63 229.039 327.561 227.577C329.492 226.115 331.351 224.581 333.282 223.128C333.327 223.092 333.273 223.029 333.227 223.056Z" fill="#263238"/>
<path d="M338.597 229.95C336.043 231.691 333.444 233.325 330.972 235.174C328.499 237.024 326.334 238.991 323.997 241.004C323.825 241.157 323.997 241.202 324.15 241.058C326.559 239.136 328.932 237.557 331.369 235.644C333.805 233.731 336.151 231.773 338.642 229.986C338.687 229.977 338.633 229.923 338.597 229.95Z" fill="#263238"/>
<path d="M344.272 235.03C340.296 237.607 336.595 240.586 333.227 243.918C333.056 244.081 333.227 244.117 333.426 243.963C337.035 240.941 339.859 238.549 344.362 235.166C344.425 235.111 344.362 234.976 344.272 235.03Z" fill="#263238"/>
<path d="M439.505 197.709L412.083 196.942C412.083 196.942 410.278 183.777 410.558 174.628C410.748 168.627 411.46 163.069 412.218 162.78C413.211 162.401 417.163 164.63 420.782 168.663C428.509 177.302 434.828 187.104 439.505 197.709V197.709Z" fill="#FF006D"/>
<path d="M413.157 192.683C417.38 192.449 428.875 192.151 436.365 192.936C436.365 192.936 436.365 193.108 436.365 193.117C430.048 193.405 417.416 193.117 413.157 192.936C413.084 192.936 413.084 192.683 413.157 192.683Z" fill="#263238"/>
<path d="M409.981 183.768C410.224 184.418 410.441 185.068 410.639 185.726C410.639 185.816 410.694 185.916 410.73 186.006C410.612 184.337 410.531 182.667 410.549 180.998C410.549 180.998 410.621 180.935 410.63 180.998C410.982 183.597 412.498 196.69 412.498 196.69C412.733 196.69 414.375 197.006 414.483 196.996C414.592 196.987 414.574 197.159 414.483 197.132C414.393 197.105 412.39 197.132 411.849 197.078C411.592 195.831 411.426 194.567 411.352 193.297C411.208 191.916 411.091 190.59 410.982 189.164C410.928 188.542 410.883 187.919 410.838 187.305C410.793 186.692 410.594 186.259 410.45 185.744C410.306 185.23 410.071 184.454 409.863 183.813C409.818 183.714 409.954 183.687 409.981 183.768Z" fill="#263238"/>
<path d="M419.158 167.03C419.158 167.03 403.682 175.764 397.195 172.002C393.829 170.053 394.37 161.174 394.37 161.174C399.255 159.76 404.435 159.722 409.34 161.065C413.056 162.209 416.43 164.259 419.158 167.03Z" fill="#F7A9A0"/>
<path d="M415.06 155.101C399.627 155.101 387.115 142.104 387.115 126.073C387.115 110.041 399.627 97.0443 415.06 97.0443C430.494 97.0443 443.006 110.041 443.006 126.073C443.006 142.104 430.494 155.101 415.06 155.101Z" fill="#263238"/>
<path d="M428.442 146.962C428.441 147.725 428.665 148.471 429.088 149.106C429.511 149.741 430.112 150.236 430.817 150.529C431.521 150.821 432.296 150.899 433.045 150.75C433.793 150.602 434.48 150.235 435.02 149.695C435.559 149.156 435.926 148.468 436.075 147.72C436.223 146.972 436.146 146.197 435.853 145.492C435.561 144.788 435.065 144.186 434.43 143.763C433.795 143.341 433.049 143.116 432.286 143.118C431.268 143.12 430.291 143.526 429.571 144.246C428.85 144.967 428.445 145.943 428.442 146.962Z" fill="#263238"/>
<path d="M387.611 141.196C387.611 141.956 387.836 142.7 388.258 143.333C388.68 143.965 389.28 144.459 389.982 144.752C390.684 145.045 391.456 145.123 392.203 144.977C392.949 144.831 393.636 144.468 394.176 143.933C394.716 143.397 395.086 142.714 395.239 141.969C395.392 141.224 395.32 140.451 395.034 139.746C394.748 139.041 394.26 138.437 393.631 138.01C393.002 137.582 392.261 137.35 391.5 137.343C390.991 137.338 390.487 137.434 390.015 137.626C389.543 137.817 389.114 138.1 388.753 138.458C388.391 138.817 388.104 139.243 387.908 139.713C387.712 140.183 387.611 140.687 387.611 141.196Z" fill="#263238"/>
<path d="M383.758 123.23C383.758 123.992 383.984 124.737 384.408 125.371C384.831 126.004 385.433 126.498 386.137 126.79C386.841 127.081 387.616 127.158 388.363 127.009C389.11 126.86 389.797 126.493 390.336 125.955C390.875 125.416 391.242 124.729 391.39 123.982C391.539 123.234 391.463 122.46 391.171 121.756C390.879 121.052 390.386 120.45 389.752 120.026C389.118 119.603 388.373 119.377 387.611 119.377C386.589 119.377 385.609 119.783 384.887 120.506C384.164 121.228 383.758 122.208 383.758 123.23V123.23Z" fill="#263238"/>
<path d="M437.24 119.729C437.238 120.492 437.463 121.237 437.885 121.872C438.307 122.507 438.908 123.002 439.612 123.295C440.316 123.588 441.091 123.666 441.839 123.518C442.587 123.371 443.275 123.004 443.814 122.466C444.354 121.927 444.722 121.241 444.871 120.493C445.021 119.746 444.945 118.97 444.654 118.266C444.362 117.561 443.868 116.959 443.235 116.535C442.601 116.111 441.855 115.885 441.093 115.885C440.073 115.885 439.094 116.29 438.372 117.011C437.649 117.731 437.242 118.709 437.24 119.729Z" fill="#263238"/>
<path d="M432.287 109.37C432.287 110.132 432.513 110.877 432.936 111.511C433.359 112.145 433.961 112.638 434.665 112.93C435.369 113.222 436.144 113.298 436.891 113.149C437.639 113.001 438.325 112.634 438.864 112.095C439.403 111.556 439.77 110.869 439.919 110.122C440.067 109.375 439.991 108.6 439.699 107.896C439.408 107.192 438.914 106.59 438.28 106.167C437.647 105.743 436.902 105.517 436.14 105.517C435.118 105.517 434.138 105.923 433.415 106.646C432.693 107.368 432.287 108.348 432.287 109.37V109.37Z" fill="#263238"/>
<path d="M427.594 105.012C427.593 105.774 427.817 106.52 428.239 107.155C428.662 107.79 429.263 108.285 429.967 108.578C430.67 108.871 431.445 108.949 432.193 108.801C432.941 108.653 433.629 108.287 434.169 107.749C434.708 107.21 435.076 106.524 435.226 105.776C435.375 105.028 435.299 104.253 435.008 103.549C434.717 102.844 434.223 102.242 433.589 101.818C432.955 101.394 432.21 101.168 431.447 101.168C430.427 101.168 429.448 101.573 428.726 102.293C428.004 103.014 427.597 103.992 427.594 105.012V105.012Z" fill="#263238"/>
<path d="M422.974 100.257C422.972 101.019 423.197 101.766 423.62 102.401C424.042 103.036 424.644 103.531 425.348 103.824C426.053 104.116 426.828 104.193 427.577 104.045C428.325 103.897 429.012 103.529 429.552 102.99C430.091 102.451 430.458 101.763 430.606 101.015C430.755 100.267 430.678 99.4913 430.385 98.7869C430.092 98.0825 429.597 97.4808 428.962 97.0581C428.327 96.6354 427.581 96.4108 426.818 96.4125C425.799 96.4149 424.823 96.8207 424.103 97.5411C423.382 98.2614 422.976 99.2378 422.974 100.257V100.257Z" fill="#263238"/>
<path d="M416.883 99.5347C416.881 100.297 417.106 101.043 417.528 101.678C417.95 102.313 418.552 102.808 419.255 103.101C419.959 103.394 420.734 103.471 421.482 103.324C422.23 103.176 422.918 102.81 423.457 102.271C423.997 101.733 424.365 101.046 424.514 100.299C424.664 99.5511 424.588 98.7759 424.297 98.0713C424.005 97.3667 423.512 96.7645 422.878 96.3407C422.244 95.9169 421.499 95.6907 420.736 95.6907C419.716 95.6907 418.737 96.0954 418.015 96.816C417.293 97.5367 416.886 98.5144 416.883 99.5347Z" fill="#263238"/>
<path d="M399.044 99.5347C399.042 100.297 399.267 101.043 399.689 101.678C400.111 102.313 400.712 102.808 401.416 103.101C402.12 103.394 402.895 103.471 403.643 103.324C404.391 103.176 405.078 102.81 405.618 102.271C406.158 101.733 406.526 101.046 406.675 100.299C406.825 99.5511 406.749 98.7759 406.458 98.0713C406.166 97.3667 405.672 96.7645 405.039 96.3407C404.405 95.9169 403.659 95.6907 402.897 95.6907C401.877 95.6907 400.898 96.0954 400.176 96.816C399.453 97.5367 399.046 98.5144 399.044 99.5347Z" fill="#263238"/>
<path d="M390.517 107.096C390.517 107.858 390.743 108.603 391.167 109.237C391.59 109.871 392.192 110.364 392.896 110.656C393.6 110.948 394.374 111.024 395.122 110.875C395.869 110.727 396.556 110.36 397.095 109.821C397.634 109.282 398 108.595 398.149 107.848C398.298 107.101 398.222 106.326 397.93 105.622C397.638 104.918 397.144 104.316 396.511 103.893C395.877 103.469 395.132 103.243 394.37 103.243C393.348 103.243 392.368 103.649 391.646 104.372C390.923 105.094 390.517 106.074 390.517 107.096V107.096Z" fill="#263238"/>
<path d="M439.153 140.501C437.025 140.501 435.3 138.776 435.3 136.648C435.3 134.52 437.025 132.795 439.153 132.795C441.281 132.795 443.006 134.52 443.006 136.648C443.006 138.776 441.281 140.501 439.153 140.501Z" fill="#263238"/>
<path d="M418.291 152.114C418.289 152.876 418.514 153.622 418.936 154.257C419.358 154.892 419.96 155.387 420.663 155.68C421.367 155.973 422.142 156.051 422.89 155.903C423.638 155.755 424.326 155.389 424.865 154.851C425.405 154.312 425.773 153.626 425.922 152.878C426.072 152.13 425.996 151.355 425.705 150.651C425.413 149.946 424.919 149.344 424.286 148.92C423.652 148.496 422.907 148.27 422.144 148.27C421.124 148.27 420.145 148.675 419.423 149.395C418.701 150.116 418.294 151.094 418.291 152.114V152.114Z" fill="#263238"/>
<path d="M412.832 152.168C412.832 152.931 413.058 153.676 413.482 154.31C413.905 154.944 414.508 155.437 415.212 155.729C415.917 156.02 416.692 156.096 417.44 155.947C418.187 155.797 418.874 155.429 419.412 154.889C419.951 154.35 420.317 153.662 420.465 152.914C420.612 152.166 420.535 151.391 420.242 150.687C419.949 149.984 419.454 149.382 418.819 148.96C418.184 148.538 417.438 148.313 416.676 148.315C416.17 148.315 415.669 148.415 415.203 148.609C414.736 148.802 414.311 149.086 413.954 149.444C413.597 149.802 413.314 150.227 413.122 150.694C412.929 151.162 412.83 151.663 412.832 152.168V152.168Z" fill="#263238"/>
<path d="M437.24 131.008C437.24 131.77 437.466 132.515 437.889 133.149C438.313 133.783 438.914 134.276 439.619 134.568C440.323 134.86 441.097 134.936 441.845 134.787C442.592 134.639 443.279 134.272 443.817 133.733C444.356 133.194 444.723 132.507 444.872 131.76C445.021 131.013 444.944 130.238 444.653 129.534C444.361 128.83 443.867 128.228 443.234 127.805C442.6 127.381 441.855 127.155 441.093 127.155C440.071 127.155 439.091 127.561 438.369 128.284C437.646 129.006 437.24 129.986 437.24 131.008Z" fill="#263238"/>
<path d="M436.537 145.789C434.608 145.789 433.044 144.225 433.044 142.297C433.044 140.368 434.608 138.805 436.537 138.805C438.465 138.805 440.029 140.368 440.029 142.297C440.029 144.225 438.465 145.789 436.537 145.789Z" fill="#263238"/>
<path d="M411.217 97.6669C411.215 98.3601 411.419 99.0382 411.803 99.6154C412.187 100.192 412.734 100.643 413.374 100.909C414.014 101.175 414.719 101.245 415.399 101.11C416.079 100.975 416.703 100.642 417.194 100.152C417.684 99.6613 418.017 99.0367 418.152 98.3567C418.287 97.6767 418.217 96.972 417.951 96.3319C417.685 95.6918 417.235 95.1451 416.657 94.7611C416.08 94.3771 415.402 94.173 414.709 94.1748C413.784 94.1772 412.897 94.5459 412.242 95.2002C411.588 95.8546 411.219 96.7415 411.217 97.6669V97.6669Z" fill="#263238"/>
<path d="M437.592 125.387C437.587 126.079 437.787 126.757 438.167 127.335C438.547 127.914 439.089 128.367 439.726 128.637C440.364 128.907 441.067 128.982 441.746 128.853C442.426 128.724 443.053 128.396 443.546 127.912C444.04 127.427 444.379 126.806 444.52 126.129C444.662 125.451 444.599 124.747 444.341 124.105C444.082 123.463 443.639 122.912 443.067 122.522C442.496 122.132 441.821 121.92 441.129 121.913C440.669 121.908 440.212 121.994 439.785 122.166C439.358 122.338 438.969 122.593 438.64 122.916C438.311 123.239 438.05 123.623 437.87 124.047C437.69 124.471 437.596 124.926 437.592 125.387V125.387Z" fill="#263238"/>
<path d="M439.153 117.933C437.225 117.933 435.661 116.37 435.661 114.441C435.661 112.513 437.225 110.949 439.153 110.949C441.082 110.949 442.645 112.513 442.645 114.441C442.645 116.37 441.082 117.933 439.153 117.933Z" fill="#263238"/>
<path d="M409.042 101.574C407.113 101.574 405.55 100.011 405.55 98.082C405.55 96.1533 407.113 94.5899 409.042 94.5899C410.97 94.5899 412.534 96.1533 412.534 98.082C412.534 100.011 410.97 101.574 409.042 101.574Z" fill="#263238"/>
<path d="M423.678 149.976C423.678 150.668 423.883 151.346 424.269 151.922C424.654 152.498 425.201 152.946 425.841 153.211C426.482 153.476 427.186 153.544 427.865 153.409C428.545 153.273 429.169 152.939 429.658 152.448C430.147 151.957 430.48 151.333 430.614 150.653C430.748 149.973 430.677 149.269 430.411 148.629C430.145 147.99 429.694 147.444 429.118 147.06C428.541 146.676 427.863 146.473 427.17 146.474C426.711 146.474 426.256 146.565 425.832 146.741C425.407 146.917 425.022 147.175 424.698 147.5C424.373 147.826 424.116 148.212 423.941 148.636C423.766 149.061 423.677 149.516 423.678 149.976V149.976Z" fill="#263238"/>
<path d="M407.743 153.495C407.741 154.187 407.945 154.865 408.328 155.442C408.712 156.019 409.258 156.469 409.898 156.736C410.537 157.002 411.242 157.073 411.921 156.939C412.601 156.805 413.226 156.472 413.716 155.983C414.207 155.493 414.541 154.869 414.677 154.19C414.813 153.511 414.744 152.806 414.479 152.166C414.215 151.526 413.766 150.978 413.19 150.593C412.614 150.208 411.937 150.003 411.244 150.003C410.317 150.003 409.428 150.37 408.771 151.025C408.115 151.68 407.745 152.568 407.743 153.495V153.495Z" fill="#263238"/>
<path d="M404.964 155.66C403.035 155.66 401.472 154.097 401.472 152.168C401.472 150.24 403.035 148.676 404.964 148.676C406.892 148.676 408.456 150.24 408.456 152.168C408.456 154.097 406.892 155.66 404.964 155.66Z" fill="#263238"/>
<path d="M400.037 152.159C398.108 152.159 396.545 150.596 396.545 148.667C396.545 146.739 398.108 145.175 400.037 145.175C401.965 145.175 403.529 146.739 403.529 148.667C403.529 150.596 401.965 152.159 400.037 152.159Z" fill="#263238"/>
<path d="M390.869 146.276C390.867 146.969 391.071 147.647 391.454 148.223C391.838 148.8 392.384 149.251 393.024 149.517C393.663 149.783 394.368 149.854 395.047 149.72C395.727 149.586 396.352 149.253 396.842 148.764C397.333 148.275 397.667 147.651 397.803 146.971C397.939 146.292 397.87 145.588 397.605 144.947C397.341 144.307 396.892 143.76 396.316 143.375C395.74 142.989 395.063 142.784 394.37 142.784C393.443 142.784 392.554 143.152 391.897 143.806C391.241 144.461 390.871 145.349 390.869 146.276V146.276Z" fill="#263238"/>
<path d="M384.67 136.26C384.674 136.952 384.882 137.628 385.269 138.201C385.657 138.775 386.205 139.221 386.846 139.483C387.486 139.744 388.19 139.811 388.868 139.673C389.547 139.535 390.169 139.199 390.656 138.708C391.144 138.217 391.475 137.592 391.607 136.913C391.74 136.234 391.668 135.53 391.401 134.892C391.134 134.253 390.684 133.708 390.108 133.325C389.531 132.942 388.854 132.739 388.162 132.741C387.701 132.742 387.246 132.834 386.821 133.012C386.396 133.189 386.01 133.449 385.686 133.776C385.361 134.103 385.105 134.49 384.93 134.917C384.756 135.343 384.668 135.799 384.67 136.26Z" fill="#263238"/>
<path d="M384.67 129.808C384.668 130.502 384.872 131.18 385.256 131.757C385.64 132.334 386.187 132.784 386.827 133.05C387.467 133.316 388.172 133.386 388.852 133.252C389.532 133.117 390.156 132.783 390.647 132.293C391.137 131.803 391.47 131.178 391.605 130.498C391.74 129.818 391.67 129.113 391.404 128.473C391.138 127.833 390.688 127.287 390.11 126.903C389.533 126.518 388.855 126.314 388.162 126.316C387.237 126.319 386.35 126.687 385.695 127.342C385.041 127.996 384.672 128.883 384.67 129.808V129.808Z" fill="#263238"/>
<path d="M394.37 102.061C394.368 102.754 394.572 103.433 394.956 104.01C395.34 104.587 395.887 105.037 396.527 105.303C397.167 105.569 397.872 105.639 398.552 105.505C399.232 105.37 399.857 105.036 400.347 104.546C400.837 104.056 401.171 103.431 401.305 102.751C401.44 102.071 401.37 101.366 401.104 100.726C400.838 100.086 400.388 99.5395 399.811 99.1555C399.234 98.7714 398.555 98.5674 397.862 98.5692C396.937 98.5716 396.05 98.9403 395.396 99.5946C394.741 100.249 394.372 101.136 394.37 102.061V102.061Z" fill="#263238"/>
<path d="M389.759 115.055C387.831 115.055 386.267 113.492 386.267 111.563C386.267 109.634 387.831 108.071 389.759 108.071C391.688 108.071 393.251 109.634 393.251 111.563C393.251 113.492 391.688 115.055 389.759 115.055Z" fill="#263238"/>
<path d="M388.992 120.595C387.063 120.595 385.5 119.032 385.5 117.103C385.5 115.175 387.063 113.611 388.992 113.611C390.921 113.611 392.484 115.175 392.484 117.103C392.484 119.032 390.921 120.595 388.992 120.595Z" fill="#263238"/>
<path d="M411.352 163.42C410.793 164.557 403.231 171.045 397.817 169.529C396.012 169.024 398.34 159.243 398.34 159.243V158.485L398.404 147.828L412.056 142.928L414.005 142.315C414.005 142.315 413.798 145.229 413.5 148.848C413.5 149.019 413.5 149.182 413.5 149.362C413.5 149.542 413.5 149.768 413.5 149.958C413.5 150.499 413.419 151.049 413.373 151.6C413.328 152.15 413.301 152.43 413.247 152.863C413.193 153.296 413.148 153.765 413.103 154.18C412.728 157.296 412.143 160.383 411.352 163.42V163.42Z" fill="#F7A9A0"/>
<path d="M413.472 148.83C411.796 151.439 409.571 153.653 406.954 155.317C404.336 156.981 401.388 158.056 398.313 158.467L398.376 147.81L412.029 142.91L413.978 142.297C413.978 142.297 413.77 145.211 413.472 148.83Z" fill="#263238"/>
<path d="M386.727 127.327C380.14 144.823 389.876 150.743 393.648 152.159C397.077 153.441 408.898 157.384 417.262 140.663C425.627 123.943 419.563 115.353 411.848 111.996C404.133 108.639 393.305 109.803 386.727 127.327Z" fill="#F7A9A0"/>
<path d="M390.914 126.027C391.347 126.109 391.762 126.118 392.195 126.163C392.641 126.27 393.11 126.229 393.531 126.045C393.651 125.961 393.74 125.839 393.784 125.699C393.828 125.559 393.825 125.408 393.774 125.269C393.64 125.005 393.436 124.781 393.186 124.622C392.935 124.464 392.646 124.375 392.349 124.367C391.752 124.27 391.141 124.399 390.634 124.728C390.51 124.804 390.412 124.917 390.354 125.051C390.296 125.185 390.282 125.334 390.313 125.477C390.343 125.62 390.418 125.75 390.526 125.848C390.633 125.947 390.769 126.009 390.914 126.027V126.027Z" fill="#263238"/>
<path d="M403.231 128.229C402.845 128.039 402.472 127.825 402.112 127.589C401.677 127.413 401.314 127.095 401.083 126.686C401.035 126.547 401.034 126.396 401.08 126.256C401.125 126.116 401.215 125.994 401.336 125.91C401.601 125.783 401.896 125.728 402.189 125.752C402.482 125.776 402.764 125.877 403.005 126.046C403.544 126.307 403.966 126.761 404.187 127.318C404.245 127.45 404.26 127.597 404.231 127.738C404.203 127.879 404.131 128.008 404.027 128.107C403.923 128.207 403.791 128.272 403.648 128.293C403.506 128.315 403.36 128.293 403.231 128.229V128.229Z" fill="#263238"/>
<path d="M399.387 131.983C399.387 131.983 399.459 132.073 399.441 132.118C398.99 133.309 398.674 134.753 399.621 135.529C399.621 135.529 399.621 135.61 399.621 135.592C398.322 134.943 398.719 133.039 399.387 131.983Z" fill="#263238"/>
<path d="M400.894 131.099C402.879 131.622 401.697 135.556 399.856 135.069C398.015 134.582 399.233 130.665 400.894 131.099Z" fill="#263238"/>
<path d="M401.607 131.541C401.878 131.866 402.103 132.362 402.509 132.524C402.915 132.687 403.466 132.416 403.899 132.118C403.899 132.118 403.962 132.118 403.944 132.181C403.727 132.939 403.204 133.625 402.365 133.49C401.526 133.354 401.273 132.542 401.309 131.685C401.309 131.577 401.499 131.405 401.607 131.541Z" fill="#263238"/>
<path d="M392.52 129.339C392.52 129.339 392.412 129.339 392.394 129.42C392.078 130.647 391.491 132.01 390.273 132.127C390.273 132.127 390.273 132.19 390.273 132.199C391.672 132.371 392.403 130.557 392.52 129.339Z" fill="#263238"/>
<path d="M391.807 127.742C389.886 127.02 388.577 130.909 390.355 131.586C392.132 132.263 393.414 128.356 391.807 127.742Z" fill="#263238"/>
<path d="M390.905 127.724C390.526 127.832 390.102 128.103 389.723 128.004C389.344 127.904 389.118 127.363 388.974 126.867C388.974 126.812 388.92 126.867 388.902 126.867C388.631 127.607 388.622 128.464 389.281 128.843C389.939 129.222 390.589 128.716 391.013 128.04C391.094 127.931 391.058 127.688 390.905 127.724Z" fill="#263238"/>
<path d="M396.562 141.367C396.221 141.656 395.791 141.818 395.344 141.827C394.885 141.701 394.458 141.48 394.09 141.178C394.09 141.178 394.009 141.178 394.027 141.232C394.141 141.518 394.331 141.768 394.575 141.955C394.82 142.142 395.11 142.26 395.416 142.297C395.686 142.295 395.949 142.214 396.172 142.063C396.395 141.912 396.569 141.698 396.671 141.448C396.707 141.385 396.617 141.331 396.562 141.367Z" fill="#263238"/>
<path d="M392.872 135.376C392.872 135.376 391.97 137.397 391.69 138.254C393.463 138.541 395.205 138.988 396.897 139.59C396.996 139.59 397.149 139.472 396.897 139.292C395.57 138.254 392.539 137.731 392.539 137.731C393.054 136.766 393.512 135.772 393.91 134.753C393.228 134.609 392.531 134.551 391.835 134.582C393.441 130.972 395.615 127.552 397.168 123.88C397.168 123.744 397.032 123.645 396.96 123.753C394.424 127.128 392.448 131.297 390.725 135.042C390.517 135.502 392.484 135.448 392.872 135.376Z" fill="#263238"/>
<path d="M415.864 140.537C412.408 141.169 414.961 136.025 414.961 136.025C414.961 136.025 412.561 133.806 414.808 130.25C414.808 130.25 410.757 130.557 411.506 125.08C411.506 125.08 408.293 124.114 409.34 120.442C409.34 120.442 404.332 121.967 403.403 117.383C403.403 117.383 399.378 120.289 397.573 116.174C397.573 116.174 395.769 118.376 393.323 116.977C393.323 116.977 392.322 119.485 390.246 119.91C390.246 119.91 399.694 102.305 415.232 112.537C429.643 122.012 419.924 139.797 415.864 140.537Z" fill="#263238"/>
<path d="M413.978 140.934C413.978 140.934 419.482 136.422 421.639 138.534C423.795 140.645 418.553 147.963 415.25 148.243C414.83 148.306 414.4 148.284 413.989 148.177C413.577 148.071 413.191 147.882 412.854 147.622C412.516 147.363 412.235 147.038 412.027 146.667C411.818 146.296 411.687 145.887 411.641 145.464L413.978 140.934Z" fill="#F7A9A0"/>
<path d="M420.078 140.591C420.09 140.591 420.101 140.596 420.109 140.604C420.118 140.613 420.123 140.624 420.123 140.636C420.123 140.648 420.118 140.66 420.109 140.668C420.101 140.677 420.09 140.681 420.078 140.681C417.74 140.943 416.089 142.576 414.745 144.381C414.925 144.204 415.142 144.069 415.38 143.984C415.618 143.9 415.872 143.868 416.123 143.891C416.375 143.914 416.618 143.992 416.837 144.119C417.055 144.245 417.243 144.418 417.389 144.625C417.434 144.679 417.389 144.751 417.298 144.715C416.963 144.496 416.567 144.386 416.167 144.4C415.766 144.415 415.379 144.553 415.061 144.796C414.527 145.205 414.04 145.671 413.608 146.186C413.454 146.348 413.139 146.186 413.274 145.951C414.005 143.217 417.136 140.059 420.078 140.591Z" fill="#263238"/>
<path d="M426.592 128.094L427.423 130.277L420.068 134.645L418.309 129.736L426.592 128.094ZM420.754 132.533L425.798 129.916L425.618 129.402L420.096 130.819L420.754 132.533Z" fill="#FF006D"/>
<path d="M426.069 124.863L426.015 127.191L417.56 128.473L417.777 123.266L426.069 124.863ZM418.986 126.776L424.652 126.253V125.712L419.004 124.936L418.986 126.776Z" fill="#FF006D"/>
<path d="M353.029 97.644C352.917 98.94 353.192 100.24 353.819 101.38C354.446 102.52 355.397 103.448 356.552 104.047C357.706 104.646 359.012 104.89 360.305 104.747C361.598 104.604 362.82 104.08 363.815 103.243C364.811 102.406 365.536 101.292 365.898 100.043C366.261 98.7933 366.245 97.4646 365.852 96.2244C365.459 94.9843 364.708 93.8884 363.693 93.0753C362.677 92.2623 361.443 91.7686 360.147 91.6567C359.287 91.5814 358.419 91.6765 357.596 91.9368C356.772 92.1971 356.007 92.6173 355.346 93.1735C354.685 93.7296 354.14 94.4108 353.742 95.1779C353.345 95.945 353.102 96.7831 353.029 97.644V97.644Z" fill="white"/>
<path d="M353.029 97.644C352.923 98.5457 352.999 99.4595 353.253 100.331C353.507 101.203 353.934 102.015 354.507 102.718C355.081 103.422 355.79 104.004 356.593 104.428C357.395 104.852 358.275 105.111 359.18 105.189C360.084 105.267 360.995 105.163 361.859 104.882C362.722 104.601 363.52 104.149 364.206 103.554C364.892 102.959 365.451 102.232 365.85 101.417C366.249 100.601 366.481 99.7141 366.531 98.8075C366.612 97.9033 366.511 96.9918 366.232 96.1277C365.954 95.2636 365.504 94.4645 364.91 93.7781C364.315 93.0918 363.589 92.5323 362.773 92.1331C361.958 91.7339 361.07 91.5031 360.164 91.4547C358.405 91.3619 356.678 91.9552 355.347 93.1095C354.017 94.2639 353.186 95.8893 353.029 97.644V97.644ZM353.029 97.644C353.101 96.7921 353.344 95.9635 353.743 95.2076C354.142 94.4516 354.689 93.7838 355.352 93.2439C356.015 92.704 356.78 92.3031 357.601 92.0651C358.422 91.8271 359.283 91.7569 360.131 91.8587C361.816 92.0087 363.371 92.8217 364.456 94.1188C365.541 95.4158 366.067 97.0908 365.917 98.7752C365.767 100.46 364.954 102.015 363.657 103.1C362.359 104.185 360.684 104.71 359 104.56C358.147 104.515 357.311 104.298 356.543 103.923C355.775 103.548 355.091 103.021 354.531 102.376C353.971 101.731 353.546 100.979 353.283 100.166C353.019 99.353 352.922 98.4953 352.997 97.644H353.029Z" fill="#263238"/>
<path d="M367.266 109.756C367.203 110.477 367.356 111.201 367.704 111.836C368.053 112.471 368.582 112.988 369.224 113.322C369.867 113.656 370.594 113.791 371.314 113.712C372.034 113.633 372.714 113.341 373.268 112.875C373.822 112.409 374.226 111.789 374.428 111.094C374.629 110.398 374.62 109.659 374.402 108.968C374.183 108.278 373.764 107.668 373.199 107.216C372.634 106.763 371.947 106.489 371.225 106.427C370.746 106.385 370.264 106.438 369.806 106.582C369.348 106.727 368.922 106.96 368.555 107.27C368.187 107.579 367.884 107.958 367.663 108.384C367.441 108.811 367.307 109.277 367.266 109.756V109.756Z" fill="white"/>
<path d="M367.266 109.756C367.18 110.742 367.475 111.723 368.092 112.498C368.708 113.272 369.599 113.78 370.579 113.917C371.093 113.978 371.613 113.935 372.11 113.79C372.607 113.645 373.07 113.402 373.471 113.076C373.872 112.749 374.204 112.345 374.445 111.887C374.687 111.43 374.835 110.928 374.879 110.413C374.924 109.897 374.864 109.378 374.704 108.886C374.544 108.394 374.286 107.939 373.947 107.549C373.608 107.158 373.193 106.84 372.729 106.612C372.264 106.385 371.758 106.253 371.241 106.225C370.253 106.192 369.289 106.54 368.549 107.197C367.81 107.854 367.35 108.77 367.266 109.756V109.756ZM367.266 109.756C367.336 108.967 367.676 108.227 368.228 107.659C368.779 107.091 369.51 106.731 370.296 106.637C371.082 106.544 371.876 106.724 372.546 107.147C373.215 107.57 373.718 108.21 373.971 108.96C374.225 109.71 374.212 110.525 373.936 111.267C373.66 112.009 373.137 112.633 372.455 113.035C371.773 113.437 370.973 113.593 370.19 113.475C369.407 113.358 368.689 112.975 368.155 112.39C367.834 112.036 367.589 111.619 367.436 111.165C367.283 110.712 367.225 110.232 367.266 109.756V109.756Z" fill="#263238"/>
<path d="M303.862 67.0693C303.456 70.409 303.935 73.7968 305.25 76.8932C306.566 79.9896 308.672 82.686 311.358 84.7122C314.044 86.7384 317.215 88.0232 320.553 88.4379C323.892 88.8527 327.281 88.3828 330.381 87.0753C331.889 89.0434 333.83 90.6369 336.055 91.7318C338.279 92.8268 340.726 93.3935 343.206 93.3881C345.685 93.3826 348.129 92.805 350.349 91.7003C352.569 90.5955 354.503 88.9935 356.002 87.0188C356.704 87.2322 357.423 87.3836 358.152 87.4713C360.655 87.7724 363.192 87.3426 365.457 86.2339C367.722 85.1252 369.617 83.3848 370.915 81.2228C372.212 79.0607 372.856 76.5694 372.77 74.0494C372.683 71.5294 371.869 69.0884 370.425 67.0208C373.262 63.4217 374.718 58.9266 374.529 54.3478C374.341 49.7691 372.521 45.4087 369.398 42.0547C366.276 38.7007 362.056 36.5744 357.503 36.06C352.949 35.5456 348.361 36.677 344.569 39.2498C342.795 37.0314 340.465 35.3216 337.817 34.2938C335.169 33.266 332.296 32.9567 329.489 33.3972C326.683 33.8377 324.043 35.0124 321.837 36.8023C319.631 38.5921 317.937 40.9334 316.928 43.5888C316.256 43.3615 315.563 43.2045 314.859 43.1201C312.718 42.8416 310.542 43.2298 308.63 44.232C306.717 45.2341 305.159 46.8015 304.169 48.7207C303.179 50.6398 302.805 52.8175 303.097 54.9571C303.389 57.0968 304.333 59.0944 305.801 60.678C304.779 62.6757 304.122 64.8402 303.862 67.0693V67.0693Z" fill="white"/>
<path d="M303.862 67.0693C303.466 70.4087 303.942 73.7938 305.244 76.8945L305.761 78.0419C305.955 78.4136 306.173 78.7691 306.375 79.1327C306.802 79.8559 307.268 80.5545 307.773 81.2254L308.581 82.1789L308.993 82.6475L309.446 83.0838L310.359 83.9888L311.344 84.7968C314.037 86.8313 317.216 88.1256 320.564 88.5509C323.912 88.9761 327.313 88.5176 330.429 87.2208H330.292C332.579 90.2293 335.84 92.3491 339.518 93.2174C343.196 94.0856 347.061 93.6481 350.452 91.9799C352.704 90.8586 354.675 89.246 356.221 87.2612L355.922 87.3581C357.231 87.7543 358.594 87.9424 359.962 87.9157C361.337 87.9092 362.702 87.6772 364.002 87.2289C366.643 86.3376 368.94 84.6425 370.571 82.3809C371.371 81.253 372.002 80.0145 372.445 78.7045C372.656 78.0473 372.816 77.3746 372.922 76.6925C373.051 76.0133 373.116 75.3235 373.116 74.6321C373.139 71.8416 372.292 69.1133 370.692 66.8269V67.2793C373.598 63.6147 375.081 59.0234 374.869 54.3513C374.676 49.6854 372.818 45.2428 369.633 41.8273C366.436 38.435 362.144 36.2803 357.513 35.7431C352.912 35.2482 348.284 36.4052 344.456 39.0074L344.82 39.064C343.009 36.8162 340.633 35.0905 337.935 34.0639C335.237 33.0374 332.315 32.7468 329.468 33.2221C328.054 33.4454 326.678 33.8642 325.379 34.4665C324.076 35.0449 322.86 35.8038 321.768 36.7208C319.557 38.539 317.865 40.908 316.863 43.5888L316.968 43.5403C315.861 43.1753 314.7 43.0005 313.534 43.0232C312.369 43.0234 311.212 43.2257 310.116 43.6211C309.021 44.0107 307.996 44.5726 307.078 45.2856C305.935 46.1835 304.99 47.3077 304.301 48.5879C303.613 49.868 303.196 51.2765 303.077 52.7252C302.958 54.1739 303.139 55.6316 303.609 57.007C304.079 58.3824 304.828 59.6459 305.81 60.7184V60.7184C304.788 62.7026 304.128 64.8533 303.862 67.0693V67.0693ZM303.862 67.0693C304.13 64.8537 304.789 62.7033 305.81 60.7184V60.7184C304.248 58.9964 303.301 56.805 303.119 54.4874C302.936 52.1698 303.527 49.8571 304.8 47.9116C305.437 46.9514 306.219 46.0956 307.119 45.3745C308.034 44.6787 309.054 44.1332 310.14 43.7585C312.329 43.0031 314.707 43.0031 316.895 43.7585H316.976V43.6858C317.992 41.0504 319.683 38.729 321.881 36.9551C322.967 36.0657 324.172 35.3315 325.46 34.7735C326.747 34.201 328.106 33.8068 329.5 33.6019C332.275 33.1871 335.109 33.5018 337.726 34.515C340.329 35.5424 342.617 37.2366 344.359 39.4276L344.513 39.6215L344.723 39.4841C348.464 36.9715 352.982 35.8849 357.457 36.4218C361.919 36.9523 366.049 39.0446 369.116 42.3283C372.153 45.6294 373.92 49.9012 374.102 54.3832C374.284 58.8651 372.87 63.2662 370.11 66.8026L369.941 67.0208L370.102 67.2551C371.621 69.4076 372.429 71.9814 372.413 74.616C372.421 75.2691 372.365 75.9214 372.243 76.5633C372.144 77.2119 371.995 77.8521 371.799 78.4782C371.379 79.7189 370.786 80.8941 370.037 81.9688C368.489 84.1068 366.324 85.7196 363.832 86.5905C362.592 87.035 361.287 87.2698 359.97 87.2854C358.654 87.3285 357.339 87.1621 356.075 86.7925L355.889 86.736L355.776 86.8895C354.3 88.8292 352.405 90.4116 350.233 91.5193C348.047 92.6224 345.636 93.2058 343.188 93.2241C340.739 93.2423 338.32 92.6948 336.118 91.6244C333.904 90.5508 331.968 88.9801 330.462 87.0349L330.405 86.9703H330.324C327.245 88.288 323.873 88.7729 320.548 88.3762C317.221 87.9557 314.061 86.6777 311.377 84.6675L310.399 83.8595L309.486 83.003L309.034 82.5667L308.621 82.0981L307.813 81.1527C307.306 80.4893 306.839 79.7958 306.416 79.0761C306.206 78.7125 305.987 78.357 305.793 77.9853L305.276 76.8461C303.969 73.7638 303.482 70.3956 303.862 67.0693V67.0693Z" fill="#263238"/>
<path d="M348.838 66.5441L348.232 69.4529C348.18 69.7448 348.068 70.023 347.905 70.2704C347.741 70.5178 347.529 70.7292 347.281 70.8918C347.033 71.0544 346.754 71.1647 346.462 71.216C346.17 71.2673 345.871 71.2585 345.582 71.1901C345.001 71.0677 344.492 70.7201 344.166 70.2235C343.841 69.7269 343.725 69.1215 343.845 68.5398L344.814 63.8858C344.814 63.8454 344.871 63.8858 344.879 63.805C344.887 63.7242 344.839 63.7484 344.879 63.708C345.014 63.1342 345.365 62.6342 345.858 62.3111C346.351 61.9879 346.949 61.8661 347.529 61.9708C348.195 62.1282 348.886 62.1505 349.561 62.0365C350.236 61.9224 350.881 61.6743 351.458 61.3068C352.036 60.9393 352.533 60.4598 352.922 59.8967C353.311 59.3335 353.584 58.6982 353.723 58.0281C353.862 57.358 353.866 56.6668 353.733 55.9953C353.601 55.3238 353.336 54.6856 352.953 54.1185C352.57 53.5513 352.077 53.0666 351.503 52.693C350.93 52.3195 350.287 52.0646 349.614 51.9435C348.745 51.7575 347.843 51.8045 346.999 52.0798C346.155 52.3551 345.398 52.8489 344.806 53.511C344.607 53.7375 344.365 53.9218 344.093 54.0532C343.822 54.1846 343.527 54.2605 343.226 54.2763C342.925 54.2921 342.624 54.2475 342.34 54.1453C342.056 54.043 341.796 53.885 341.574 53.6807C341.138 53.2797 340.878 52.7218 340.852 52.1295C340.826 51.5372 341.037 50.9588 341.437 50.5214C342.499 49.3337 343.84 48.4287 345.339 47.8877C346.838 47.3467 348.448 47.1868 350.024 47.4223C351.6 47.6578 353.093 48.2813 354.368 49.2368C355.644 50.1923 356.662 51.4498 357.331 52.8962C357.999 54.3426 358.298 55.9326 358.2 57.5231C358.102 59.1137 357.611 60.655 356.769 62.0083C355.928 63.3617 354.763 64.4848 353.38 65.2765C351.997 66.0682 350.439 66.5038 348.846 66.5441H348.838ZM346.81 76.3532L346.64 77.1612C346.589 77.4537 346.478 77.7325 346.315 77.9805C346.152 78.2285 345.939 78.4405 345.691 78.6032C345.443 78.766 345.164 78.8762 344.871 78.9269C344.579 78.9777 344.279 78.968 343.99 78.8984C343.409 78.776 342.9 78.4285 342.575 77.9318C342.249 77.4352 342.133 76.8298 342.253 76.2482L342.423 75.4402C342.551 74.8623 342.9 74.3573 343.395 74.0328C343.89 73.7083 344.492 73.5899 345.073 73.703C345.363 73.7596 345.638 73.8736 345.883 74.0383C346.128 74.2031 346.338 74.4151 346.5 74.6621C346.662 74.909 346.773 75.1859 346.826 75.4763C346.879 75.7667 346.874 76.0649 346.81 76.3532V76.3532Z" fill="#FF006D"/>
<path d="M325.552 60.6376L325.188 57.6884C325.144 57.3954 325.16 57.0965 325.235 56.81C325.31 56.5234 325.443 56.2551 325.625 56.0215C325.807 55.7878 326.035 55.5938 326.295 55.4511C326.554 55.3085 326.84 55.2202 327.135 55.1917C327.427 55.1555 327.723 55.1772 328.007 55.2555C328.29 55.3338 328.555 55.4671 328.787 55.648C329.019 55.8288 329.213 56.0536 329.358 56.3094C329.503 56.5652 329.596 56.8471 329.632 57.139L330.214 61.8577C330.214 61.8577 330.214 61.9062 330.214 61.9546C330.214 62.0031 330.27 61.9546 330.27 62.0354C330.327 62.6226 330.157 63.2091 329.795 63.6748C329.433 64.1405 328.906 64.4501 328.323 64.5402C327.643 64.608 326.984 64.8111 326.384 65.1374C325.784 65.4637 325.255 65.9068 324.829 66.4405C324.403 66.9742 324.087 67.5877 323.902 68.2451C323.716 68.9024 323.664 69.5902 323.748 70.2681C323.832 70.946 324.051 71.6002 324.391 72.1922C324.732 72.7843 325.187 73.3023 325.731 73.7157C326.275 74.1291 326.896 74.4296 327.557 74.5994C328.219 74.7693 328.908 74.8052 329.584 74.7049C330.464 74.5965 331.301 74.2589 332.01 73.7257C332.719 73.1925 333.275 72.4826 333.624 71.6668C333.739 71.391 333.908 71.141 334.121 70.9311C334.334 70.7213 334.587 70.556 334.864 70.4447C335.141 70.3334 335.438 70.2784 335.737 70.2829C336.036 70.2874 336.331 70.3513 336.605 70.471C336.874 70.5876 337.118 70.7565 337.322 70.9679C337.525 71.1792 337.685 71.4289 337.792 71.7023C337.899 71.9758 337.95 72.2677 337.943 72.5611C337.937 72.8546 337.872 73.1438 337.752 73.4121C337.128 74.8735 336.15 76.157 334.907 77.1477C333.664 78.1384 332.195 78.8053 330.631 79.0886C329.067 79.3719 327.458 79.2627 325.946 78.771C324.435 78.2792 323.069 77.4201 321.971 76.2708C320.874 75.1214 320.078 73.7177 319.656 72.1853C319.234 70.653 319.199 69.0399 319.554 67.4906C319.909 65.9414 320.643 64.5043 321.689 63.3083C322.736 62.1123 324.063 61.1946 325.552 60.6376ZM324.324 50.6992L324.218 49.8912C324.175 49.598 324.192 49.299 324.268 49.0124C324.343 48.7258 324.476 48.4575 324.658 48.2235C324.84 47.9895 325.067 47.7947 325.326 47.6508C325.585 47.507 325.871 47.417 326.166 47.3864C326.757 47.3155 327.352 47.4814 327.821 47.8477C328.291 48.214 328.596 48.7511 328.671 49.3418L328.768 50.1498C328.832 50.7375 328.665 51.3273 328.301 51.7936C327.937 52.2598 327.406 52.5658 326.82 52.6465C326.528 52.686 326.231 52.6667 325.946 52.5897C325.661 52.5128 325.395 52.3797 325.162 52.1983C324.93 52.0168 324.736 51.7908 324.592 51.5334C324.448 51.2759 324.356 50.9923 324.324 50.6992Z" fill="#FF006D"/>
<path d="M0 310.409H134.904V319.524H0V310.409Z" fill="#455A64"/>
<path d="M107.189 319.524L110.567 327.757L127.058 368.052H131.284L120.19 327.757L117.928 319.524H107.189Z" fill="#455A64"/>
<path d="M117.928 319.524H107.189L110.567 327.757H120.19L117.928 319.524Z" fill="#263238"/>
<path d="M3.6279 368.052H7.84566L24.3369 327.757L27.7063 319.524H16.9761L14.7137 327.757L3.6279 368.052Z" fill="#455A64"/>
<path d="M14.7137 327.757H24.3369L27.7063 319.524H16.9761L14.7137 327.757Z" fill="#263238"/>
<path d="M95.4653 308.395H108.918V310.496H95.4653V308.395Z" fill="#FF006D"/>
<path opacity="0.1" d="M95.4653 308.395H108.918V309.777H95.4653V308.395Z" fill="black"/>
<path d="M124.893 302.747C124.072 303.956 122.921 304.903 121.578 305.476C120.234 306.049 118.754 306.224 117.314 305.979C116.847 305.891 116.39 305.759 115.948 305.584C115.278 305.323 114.638 304.99 114.041 304.59L115.754 302.053C116.072 302.275 116.41 302.467 116.764 302.626C117.743 303.087 118.855 303.177 119.896 302.88C120.936 302.583 121.833 301.919 122.42 301.01C124.262 298.417 124.925 292.494 123.058 290.215C122.929 290.046 122.396 289.779 120.222 290.215C119.826 290.304 119.414 290.409 118.857 290.547C118.46 290.685 118.047 290.774 117.629 290.813L117.572 289.294L117.427 287.775C117.564 287.775 117.782 287.686 118.065 287.606C119.067 287.314 120.091 287.103 121.127 286.975C122.743 286.806 124.359 286.975 125.418 288.26C128.432 291.977 127.203 299.499 124.893 302.747Z" fill="#FF006D"/>
<path opacity="0.1" d="M115.754 302.061C116.072 302.283 116.41 302.475 116.764 302.634L115.956 305.592C115.286 305.331 114.647 304.998 114.049 304.598L115.754 302.061Z" fill="black"/>
<path opacity="0.1" d="M121.103 286.975L120.198 290.207C119.802 290.296 119.39 290.401 118.833 290.539C118.435 290.677 118.023 290.766 117.604 290.805L117.548 289.286L117.402 287.767C117.54 287.767 117.758 287.678 118.041 287.597C119.043 287.309 120.067 287.101 121.103 286.975V286.975Z" fill="black"/>
<path d="M84.2906 283C84.2906 283 85.9066 296.736 88.6942 302.497C91.4818 308.258 95.3763 308.904 97.7922 308.904H106.591C109.015 308.904 112.894 308.258 115.681 302.497C118.469 296.736 120.085 283 120.085 283H84.2906Z" fill="#FF006D"/>
<path opacity="0.1" d="M86.0197 293.552L86.4076 295.298H117.976C118.097 294.708 118.227 294.134 118.356 293.552H86.0197Z" fill="black"/>
<path opacity="0.1" d="M86.8359 297.043C87.1752 298.336 87.5388 299.58 87.9428 300.679H116.441C116.837 299.58 117.209 298.336 117.54 297.043H86.8359Z" fill="black"/>
</svg>
