<svg width="536" height="320" viewBox="0 0 536 320" fill="none" xmlns="http://www.w3.org/2000/svg">
<path d="M359.763 0.971931L358.46 1.74232C358.409 1.77407 358.353 1.79431 358.294 1.80158C358.237 1.80144 358.182 1.78591 358.134 1.75666C358.086 1.72741 358.047 1.68556 358.021 1.63565C357.998 1.59957 357.983 1.55912 357.977 1.51689C357.97 1.47465 357.973 1.43155 357.984 1.39031C357.995 1.34907 358.015 1.31061 358.041 1.27735C358.068 1.24409 358.102 1.21676 358.139 1.19711L359.929 0.106705C360.004 0.069736 360.09 0.0613772 360.171 0.0831945C360.252 0.105012 360.322 0.155516 360.368 0.225235C360.39 0.302663 360.39 0.384847 360.368 0.462276V8.99588C360.369 9.03835 360.362 9.0807 360.347 9.12028C360.331 9.15986 360.308 9.19581 360.278 9.22586C360.248 9.25592 360.212 9.27944 360.172 9.29493C360.133 9.31042 360.09 9.31756 360.048 9.31589C359.965 9.31595 359.885 9.28386 359.826 9.22639C359.766 9.16891 359.731 9.09054 359.728 9.00774L359.763 0.971931Z" fill="#F8F8F8"/>
<path d="M362.738 8.74724L367.076 4.81228C367.325 4.58799 367.523 4.3136 367.658 4.00717C367.793 3.70074 367.861 3.36922 367.858 3.03444C367.858 2.40576 367.609 1.80283 367.164 1.35828C366.72 0.913735 366.117 0.663994 365.488 0.663994C364.892 0.659608 364.317 0.879646 363.876 1.28032L363.426 1.69515C363.397 1.72602 363.362 1.75061 363.323 1.76744C363.285 1.78426 363.243 1.79294 363.201 1.79294C363.158 1.79294 363.117 1.78426 363.078 1.76744C363.039 1.75061 363.004 1.72602 362.975 1.69515C362.943 1.66734 362.917 1.63279 362.899 1.59391C362.881 1.55504 362.872 1.51276 362.872 1.46996C362.872 1.42716 362.881 1.38486 362.899 1.34598C362.917 1.30711 362.943 1.27258 362.975 1.24476L363.426 0.818079C363.989 0.311202 364.718 0.0286396 365.476 0.0239803C365.897 0.0214231 366.314 0.108928 366.698 0.280644C367.082 0.45236 367.425 0.704309 367.704 1.01957C368.227 1.56406 368.516 2.29143 368.51 3.04631C368.512 3.47118 368.425 3.89176 368.256 4.28143C368.087 4.6711 367.838 5.02136 367.527 5.31007L363.817 8.67613H368.214C368.256 8.67766 368.297 8.68744 368.336 8.70495C368.374 8.72247 368.408 8.74734 368.437 8.77816C368.465 8.80899 368.488 8.84516 368.502 8.88459C368.517 8.92403 368.524 8.96596 368.522 9.00799C368.522 9.09085 368.49 9.1705 368.433 9.23018C368.375 9.28987 368.297 9.32492 368.214 9.32799H362.975C362.931 9.33004 362.887 9.32264 362.847 9.30628C362.806 9.28993 362.769 9.26501 362.738 9.23318C362.674 9.16873 362.638 9.08133 362.638 8.99021C362.638 8.89909 362.674 8.81169 362.738 8.74724Z" fill="#F8F8F8"/>
<path d="M376.143 0.569114L373.772 3.04624C374.378 3.16116 374.935 3.45417 375.372 3.88774C375.964 4.48092 376.296 5.28434 376.296 6.1219C376.296 6.95946 375.964 7.76286 375.372 8.35604C374.778 8.94425 373.98 9.27978 373.144 9.29236C372.732 9.29246 372.324 9.21082 371.943 9.05213C371.563 8.89345 371.218 8.66087 370.928 8.36788C370.895 8.33789 370.868 8.3013 370.85 8.26048C370.832 8.21965 370.823 8.1755 370.823 8.13084C370.823 8.08619 370.832 8.04203 370.85 8.00121C370.868 7.96039 370.895 7.9238 370.928 7.8938C370.958 7.86261 370.994 7.83779 371.033 7.82083C371.073 7.80387 371.116 7.79513 371.159 7.79513C371.202 7.79513 371.245 7.80387 371.285 7.82083C371.324 7.83779 371.36 7.86261 371.39 7.8938C371.62 8.12313 371.894 8.30415 372.195 8.42626C372.497 8.54838 372.819 8.60912 373.144 8.60493C373.472 8.60972 373.798 8.54862 374.102 8.42523C374.406 8.30185 374.683 8.11869 374.915 7.88661C375.147 7.65452 375.33 7.37824 375.453 7.0741C375.577 6.76996 375.638 6.44415 375.633 6.11597C375.633 5.79129 375.567 5.46997 375.441 5.17081C375.315 4.87164 375.131 4.60065 374.898 4.37369C374.671 4.13888 374.399 3.95345 374.097 3.82904C373.795 3.70463 373.471 3.64392 373.144 3.6507C373.091 3.64809 373.039 3.63402 372.992 3.60947C372.945 3.58491 372.904 3.55047 372.872 3.50848V3.50848C372.84 3.47758 372.815 3.44069 372.798 3.39999C372.781 3.35928 372.772 3.31557 372.772 3.27142C372.772 3.22727 372.781 3.18358 372.798 3.14287C372.815 3.10217 372.84 3.06528 372.872 3.03438L375.183 0.663934H371.627C371.539 0.663934 371.455 0.628981 371.392 0.566745C371.33 0.504508 371.295 0.420088 371.295 0.332073C371.295 0.244057 371.33 0.159655 371.392 0.097419C371.455 0.0351827 371.539 0.00021178 371.627 0.00021178H375.965C376.01 -0.00138096 376.054 0.00602314 376.096 0.0219862C376.137 0.0379493 376.175 0.0621384 376.207 0.0931148C376.239 0.124091 376.265 0.16122 376.282 0.202276C376.3 0.243332 376.309 0.287477 376.309 0.332073C376.32 0.378779 376.32 0.427606 376.309 0.474312C376.29 0.501317 376.265 0.52381 376.236 0.540196C376.208 0.556582 376.176 0.566444 376.143 0.569114V0.569114Z" fill="#F8F8F8"/>
<path d="M383.954 7.34862H378.881C378.846 7.35151 378.811 7.34662 378.778 7.33433C378.745 7.32203 378.716 7.30263 378.691 7.2775C378.659 7.24969 378.633 7.21516 378.615 7.17628C378.597 7.13741 378.587 7.09511 378.587 7.05231C378.587 7.00951 378.597 6.96723 378.615 6.92835C378.633 6.88948 378.659 6.85493 378.691 6.82711L384.048 0.130592C384.076 0.0980633 384.111 0.0719441 384.15 0.0540374C384.188 0.0361307 384.231 0.0268555 384.274 0.0268555C384.316 0.0268555 384.359 0.0361307 384.398 0.0540374C384.436 0.0719441 384.471 0.0980633 384.499 0.130592C384.551 0.17272 384.589 0.231018 384.605 0.296523C384.605 0.296523 384.605 0.296523 384.605 0.296523V6.7086H385.257C385.343 6.70855 385.426 6.74188 385.488 6.80158C385.55 6.86127 385.586 6.94267 385.589 7.02862C385.586 7.11456 385.55 7.19594 385.488 7.25564C385.426 7.31534 385.343 7.34867 385.257 7.34862H384.629V8.93683C384.629 9.0217 384.595 9.1031 384.535 9.16311C384.475 9.22313 384.394 9.25683 384.309 9.25683C384.224 9.25683 384.143 9.22313 384.083 9.16311C384.023 9.1031 383.989 9.0217 383.989 8.93683L383.954 7.34862ZM383.954 6.7086V1.28026L379.568 6.73231L383.954 6.7086Z" fill="#F8F8F8"/>
<path d="M89.6622 229.72H141.966C145.269 229.717 148.435 228.404 150.771 226.068C153.106 223.733 154.42 220.566 154.423 217.264V119.388C154.427 117.671 154.78 115.972 155.461 114.396C156.141 112.819 157.135 111.397 158.383 110.217C159.63 109.036 161.104 108.122 162.715 107.528C164.327 106.935 166.042 106.675 167.757 106.765H102.119C100.479 106.767 98.8565 107.092 97.3428 107.721C95.8291 108.351 94.4544 109.272 93.2973 110.434C92.1403 111.595 91.2237 112.974 90.5999 114.49C89.9761 116.006 89.6575 117.63 89.6622 119.269V229.72Z" fill="#DBDBDB"/>
<path d="M146.044 119.269H99.1323V121.426H146.044V119.269Z" fill="#C7C7C7"/>
<path d="M146.044 125.338H99.1323V127.495H146.044V125.338Z" fill="#C7C7C7"/>
<path d="M146.044 131.394H99.1323V133.551H146.044V131.394Z" fill="#C7C7C7"/>
<path d="M146.044 137.451H99.1323V139.608H146.044V137.451Z" fill="#C7C7C7"/>
<path d="M146.044 143.507H99.1323V145.664H146.044V143.507Z" fill="#C7C7C7"/>
<path d="M146.044 149.564H99.1323V151.721H146.044V149.564Z" fill="#C7C7C7"/>
<path d="M146.044 155.632H99.1323V157.789H146.044V155.632Z" fill="#C7C7C7"/>
<path d="M146.044 161.688H99.1323V163.846H146.044V161.688Z" fill="#C7C7C7"/>
<path d="M146.044 167.745H99.1323V169.902H146.044V167.745Z" fill="#C7C7C7"/>
<path d="M146.044 173.802H99.1323V175.959H146.044V173.802Z" fill="#C7C7C7"/>
<path d="M146.044 179.858H99.1323V182.015H146.044V179.858Z" fill="#C7C7C7"/>
<path d="M146.044 185.926H99.1323V188.083H146.044V185.926Z" fill="#C7C7C7"/>
<path d="M146.044 191.983H99.1323V194.14H146.044V191.983Z" fill="#C7C7C7"/>
<path d="M146.044 198.039H99.1323V200.196H146.044V198.039Z" fill="#C7C7C7"/>
<path d="M146.044 204.096H99.1323V206.253H146.044V204.096Z" fill="#C7C7C7"/>
<path d="M146.044 210.152H99.1323V212.309H146.044V210.152Z" fill="#C7C7C7"/>
<path d="M39.1719 188.273V306.476H78.7584V306.642C78.7544 309.925 80.0359 313.079 82.3286 315.43C84.6213 317.78 87.743 319.139 91.0254 319.217H91.464C91.8877 319.217 92.3111 319.193 92.7322 319.146L95.1026 318.672C95.6819 318.479 96.248 318.25 96.7975 317.984C97.0705 317.862 97.3357 317.724 97.5916 317.569L97.9946 317.32C98.3567 317.105 98.705 316.868 99.0376 316.609L99.2035 316.479C99.4498 316.293 99.6834 316.091 99.9028 315.874C100.023 315.77 100.138 315.659 100.246 315.543C101.699 314.122 102.768 312.356 103.352 310.411C103.348 310.375 103.348 310.339 103.352 310.304C103.435 309.996 103.518 309.688 103.589 309.368C103.685 308.978 103.753 308.582 103.79 308.182C103.79 308.005 103.79 307.815 103.79 307.637C103.796 307.574 103.796 307.511 103.79 307.448C103.79 307.222 103.79 306.997 103.79 306.772V188.404C103.798 186.69 104.153 184.996 104.834 183.423C105.516 181.851 106.509 180.433 107.755 179.256C109.001 178.079 110.472 177.168 112.081 176.576C113.689 175.985 115.401 175.727 117.112 175.816H51.6049C48.3053 175.823 45.1429 177.138 42.812 179.473C40.481 181.809 39.1719 184.974 39.1719 188.273V188.273Z" fill="#EBEBEB"/>
<path d="M94.7232 183.71H47.812V185.867H94.7232V183.71Z" fill="#C7C7C7"/>
<path d="M99.1319 178.175H52.2207V180.332H99.1319V178.175Z" fill="#C7C7C7"/>
<path d="M94.7232 189.767H47.812V191.924H94.7232V189.767Z" fill="#C7C7C7"/>
<path d="M94.7232 195.823H47.812V197.98H94.7232V195.823Z" fill="#C7C7C7"/>
<path d="M94.7232 201.88H47.812V204.037H94.7232V201.88Z" fill="#C7C7C7"/>
<path d="M94.7232 207.936H47.812V210.093H94.7232V207.936Z" fill="#C7C7C7"/>
<path d="M94.7232 214.004H47.812V216.161H94.7232V214.004Z" fill="#C7C7C7"/>
<path d="M94.7232 220.061H47.812V222.218H94.7232V220.061Z" fill="#C7C7C7"/>
<path d="M94.7232 226.117H47.812V228.275H94.7232V226.117Z" fill="#C7C7C7"/>
<path d="M94.7232 232.174H47.812V234.331H94.7232V232.174Z" fill="#C7C7C7"/>
<path d="M94.7232 238.23H47.812V240.388H94.7232V238.23Z" fill="#C7C7C7"/>
<path d="M94.7232 244.299H47.812V246.456H94.7232V244.299Z" fill="#C7C7C7"/>
<path d="M94.7232 250.355H47.812V252.512H94.7232V250.355Z" fill="#C7C7C7"/>
<path d="M94.7232 256.412H47.812V258.569H94.7232V256.412Z" fill="#C7C7C7"/>
<path d="M94.7232 262.468H47.812V264.625H94.7232V262.468Z" fill="#C7C7C7"/>
<path d="M94.7232 268.525H47.812V270.682H94.7232V268.525Z" fill="#C7C7C7"/>
<path d="M94.7232 274.593H47.812V276.75H94.7232V274.593Z" fill="#C7C7C7"/>
<path d="M94.7232 280.649H47.812V282.807H94.7232V280.649Z" fill="#C7C7C7"/>
<path d="M94.7232 286.706H47.812V288.863H94.7232V286.706Z" fill="#C7C7C7"/>
<path d="M94.7232 295.441H71.2676V300.419H94.7232V295.441Z" fill="#C7C7C7"/>
<path d="M141.528 229.72C141.634 229.732 141.742 229.732 141.848 229.72C142.315 229.717 142.782 229.689 143.246 229.637C142.821 229.681 142.394 229.701 141.966 229.697L141.528 229.72Z" fill="#FF006D"/>
<path d="M166.998 106.765C163.663 106.765 160.464 108.09 158.106 110.449C155.748 112.807 154.423 116.005 154.423 119.341V143.045H179.585V119.341C179.582 116.004 178.255 112.806 175.894 110.448C173.534 108.09 170.334 106.765 166.998 106.765V106.765Z" fill="#A6A6A6"/>
<path d="M103.873 188.403V229.744H129.035H141.303C138.021 229.67 134.899 228.313 132.606 225.965C130.313 223.616 129.032 220.463 129.035 217.181V188.403C129.087 186.719 128.8 185.041 128.191 183.469C127.582 181.898 126.664 180.464 125.49 179.254C124.317 178.045 122.912 177.083 121.36 176.426C119.808 175.769 118.14 175.43 116.454 175.43C114.769 175.43 113.101 175.769 111.548 176.426C109.996 177.083 108.592 178.045 107.418 179.254C106.245 180.464 105.327 181.898 104.718 183.469C104.109 185.041 103.821 186.719 103.873 188.403V188.403Z" fill="#A6A6A6"/>
<path d="M20.8125 306.476V306.642C20.8085 309.925 22.09 313.079 24.3827 315.43C26.6754 317.78 29.7971 319.139 33.0796 319.217H91.0134C87.7309 319.139 84.6092 317.78 82.3165 315.43C80.0238 313.079 78.7423 309.925 78.7463 306.642V306.476H20.8125Z" fill="#A6A6A6"/>
<path d="M486.95 102.771H518.334V89.5084H486.95V102.771Z" fill="#EBEBEB"/>
<path d="M504.456 86.0476H535.84V72.785H504.456V86.0476Z" fill="#EBEBEB"/>
<path d="M469.432 86.0476H500.817V72.785H469.432V86.0476Z" fill="#EBEBEB"/>
<path d="M17.5059 273.823H48.8906V260.56H17.5059V273.823Z" fill="#EBEBEB"/>
<path d="M1.33514e-05 257.099H31.3848V243.836H1.33514e-05V257.099Z" fill="#EBEBEB"/>
<path d="M504.456 273.811H535.84V260.548H504.456V273.811Z" fill="#EBEBEB"/>
</svg>
