<svg width="15" height="15" viewBox="0 0 15 15" fill="none" xmlns="http://www.w3.org/2000/svg">
<path fill-rule="evenodd" clip-rule="evenodd" d="M14.2071 14.2071C13.8166 14.5976 13.1834 14.5976 12.7929 14.2071L0.292894 1.70714C-0.097631 1.31661 -0.0976314 0.683447 0.292893 0.292922C0.683417 -0.0976018 1.31658 -0.0976032 1.70711 0.29292L14.2071 12.7929C14.5976 13.1834 14.5976 13.8166 14.2071 14.2071Z" fill="white"/>
<path fill-rule="evenodd" clip-rule="evenodd" d="M0.292916 14.2071C-0.097609 13.8166 -0.0976101 13.1834 0.292914 12.7929L12.7929 0.292894C13.1834 -0.097631 13.8166 -0.0976314 14.2071 0.292893C14.5976 0.683417 14.5976 1.31658 14.2071 1.70711L1.70713 14.2071C1.31661 14.5976 0.683441 14.5976 0.292916 14.2071Z" fill="white"/>
</svg>
