<svg width="47" height="53" fill="none" xmlns="http://www.w3.org/2000/svg"><path d="M.536743 39.1025L23.272 25.9756l22.7419 13.1269L23.272 52.2361.536743 39.1025z" fill="#000"/><path d="M23.272 25.9756V0L0 13.4384 22.4636 26.446l.8084-.4704z" fill="#37474F"/><path d="M23.272 0v25.9756l.815.4704 22.457-13.0076L23.272 0zM0 13.4384v25.3593L23.272 52.236V26.9165L0 13.4384z" fill="#263238"/><path d="M23.272 26.9165V52.236l23.272-13.4383V13.4384L23.272 26.9165z" fill="#37474F"/><path d="M23.272 26.9165l.5301 24.3521L43.297 40.6729 23.272 52.236V26.9165z" fill="#455A64"/><path d="M26.4858 44.0856c-.0978.0025-.1943-.0228-.2783-.0729-.1188-.0845-.2133-.1988-.2738-.3315-.0605-.1326-.0849-.2789-.0708-.424v-2.4186h.1127l1.7626-1.0337v2.5048c0 .3203-.0756.6361-.2207.9216-.1451.2856-.3555.5329-.6142.7217-.1229.0848-.2683.131-.4175.1326zm-.338-2.9091v2.1139c-.0117.0958.0003.1931.035.2832.0347.0901.0909.1703.1638.2336.0627.0257.131.0349.1982.0268.0673-.0081.1314-.0333.1862-.0732.2192-.1608.3984-.37.5237-.6114.1252-.2413.1932-.5083.1985-.7801v-.1855h-.6626l-.1259-.8747-.5169-.1326zm.9012.6958h.4042v-1.5506l-1.0469.6163.5168.0928.1259.8415z" fill="#E0E0E0"/><path d="M26.7972 45.8747c-.0369 0-.0723-.0147-.0984-.0408-.026-.0261-.0407-.0615-.0407-.0984v-1.8819c-.0046-.0213-.0044-.0433.0006-.0645.005-.0211.0147-.0409.0284-.0579.0136-.0169.0309-.0306.0506-.04.0196-.0094.0411-.0143.0629-.0143.0217 0 .0432.0049.0629.0143.0196.0094.0369.0231.0506.04.0136.017.0233.0368.0283.0579.005.0212.0052.0432.0006.0645v1.8819c.0001.0189-.0037.0375-.0112.0548-.0074.0174-.0182.033-.0318.046-.0137.013-.0298.0232-.0475.0298-.0176.0065-.0364.0095-.0553.0086z" fill="#E0E0E0"/><path d="M25.9822 46.3518c-.0254-.0007-.0502-.0077-.0722-.0204-.022-.0128-.0404-.0308-.0537-.0525-.0172-.0328-.0213-.0709-.0115-.1066.0099-.0356.0329-.0662.0645-.0856l1.6368-.9475c.0316-.0108.066-.0104.0973.0012.0314.0116.0578.0335.0749.0623.0171.0287.0238.0624.019.0955-.0049.0331-.0209.0635-.0455.0861l-1.6433.9476c-.0198.0127-.0428.0196-.0663.0199zM31.82 43.1048c-.0555.0009-.1104-.0128-.159-.0397-.0552-.0365-.0997-.087-.1289-.1464-.0291-.0595-.0418-.1256-.0368-.1916v-.3909c0-.0369.0147-.0723.0408-.0984.0261-.0261.0615-.0408.0984-.0408s.0723.0147.0984.0408c.0261.0261.0408.0615.0408.0984v.3909c-.0101.0301-.0101.0627 0 .0928h.0927c.0912-.0834.1624-.1863.2082-.301.0459-.1148.0654-.2384.0569-.3616v-2.5048c0-.0369.0146-.0723.0407-.0984.0261-.0261.0615-.0408.0984-.0408s.0723.0147.0984.0408c.0261.0261.0408.0615.0408.0984v2.5048c.0073.1677-.0249.3348-.094.4879-.069.1531-.173.2878-.3036.3934-.0576.0375-.1236.0603-.1922.0662z" fill="#E0E0E0"/><path d="M30.3291 40.9115v-.2717c.0341-.626.2158-1.2351.5301-1.7775.3144-.5424.7526-1.0028 1.2789-1.3435.1874-.1573.4187-.2532.6625-.2746.2438-.0214.4882.0327.7002.155.212.1223.3812.3068.4848.5285.1035.2217.1363.4699.094.7109v.0861l-3.7505 2.1868zm2.6506-3.3132c-.2492.0104-.4914.0858-.7025.2186-.4507.2958-.8318.686-1.1167 1.1437-.2849.4577-.4669.9719-.5332 1.5069l3.1674-1.8289c.0118-.1774-.0216-.3549-.0969-.5159-.0753-.1611-.1901-.3004-.3338-.4052-.1137-.0803-.2459-.1305-.3843-.1457v.0265zM36.8827 40.2157c-.0369 0-.0723-.0146-.0984-.0407-.0261-.0261-.0408-.0615-.0408-.0984V35.279c0-.0369.0147-.0723.0408-.0984.0261-.0261.0615-.0407.0984-.0407s.0723.0146.0984.0407c.0261.0261.0407.0615.0407.0984v4.7976c0 .0182-.0036.0363-.0105.0532-.007.0169-.0173.0322-.0302.0452-.0129.0129-.0283.0231-.0452.0301-.0169.007-.0349.0106-.0532.0106z" fill="#E0E0E0"/><path d="M36.4718 36.3724h-.0597c-.0171-.0072-.0326-.0178-.0456-.0311-.013-.0132-.0232-.029-.03-.0463-.0068-.0173-.01-.0358-.0096-.0544.0005-.0185.0047-.0368.0123-.0538l.5036-1.1596.5567.6627c.0132.0129.0237.0284.0309.0454.0071.0171.0108.0354.0108.054 0 .0185-.0037.0368-.0108.0539-.0072.017-.0177.0325-.0309.0454-.027.0252-.0625.0392-.0994.0392s-.0724-.014-.0994-.0392l-.2651-.3048-.3247.7488c-.0173.0188-.0395.0324-.064.0394-.0245.007-.0505.0072-.0751.0004zM38.1681 39.4736c-.0375 0-.0736-.0144-.1008-.0404-.0271-.0259-.0433-.0613-.045-.0988v-4.8041c.0071-.0326.0251-.0617.051-.0826.0259-.0209.0582-.0323.0915-.0323.0333 0 .0656.0114.0915.0323.0259.0209.0439.05.051.0826v4.7842c.0018.0197-.0004.0396-.0065.0584-.0061.0188-.016.0361-.029.051-.013.0149-.0289.0269-.0467.0355-.0179.0085-.0372.0133-.057.0142z" fill="#E0E0E0"/><path d="M37.7705 35.6303h-.053c-.0171-.0072-.0326-.0178-.0456-.0311-.013-.0133-.0232-.029-.0299-.0463-.0068-.0173-.0101-.0358-.0096-.0544.0004-.0186.0046-.0368.0122-.0538l.5037-1.1596.5566.6626c.0246.0282.037.0649.0345.1022-.0025.0373-.0197.072-.0478.0966-.0139.0122-.0301.0215-.0476.0275-.0175.0059-.0361.0083-.0545.0071-.0373-.0025-.0721-.0197-.0967-.0478l-.265-.3048-.3247.7487c-.0157.0195-.0361.0346-.0593.0439-.0233.0093-.0485.0124-.0733.0092z" fill="#E0E0E0"/><path d="M5.75171 31.4423L13.0805 35.67c.0959.0641.1757.1495.2332.2495.0575.1.0911.2119.0982.327v5.0891c0 .4241-.2982.5964-.6627.3843l-7.32881-4.2343c-.09488-.063-.17366-.1473-.23005-.2463-.05638-.099-.0888-.2098-.09464-.3235v-5.0957c0-.4175.29819-.5898.65601-.3778z" fill="#FAFAFA"/><path d="M5.57288 32.2309l.24517.1458v4.4927l-.24517-.1392v-4.4993zM6.58667 32.8206l.43071.2518v4.4927l-.43071-.2517v-4.4928zM7.60046 33.4037l.25181.1458v4.4927l-.25181-.1457v-4.4928zM8.36914 33.8345l.49698.2981v4.4928l-.49698-.2916v-4.4993zM9.62817 34.5766l.25181.1392v4.4993l-.25181-.1458v-4.4927zM10.3638 34.9875l.5301.3181v4.4927l-.5301-.3181v-4.4927zM11.6625 35.7495l.2451.1392v4.4993l-.2451-.1458v-4.4927zM12.239 36.0742l.1259.0729v4.4927l-.1259-.0663v-4.4993zM11.1986 35.5043l.1259.0663v4.4993l-.1259-.0729v-4.4927zM9.15112 34.305l.12591.0728v4.4928l-.12591-.0729V34.305zM8.03125 33.6622l.1259.0729v4.4927l-.1259-.0729v-4.4927zM7.22937 33.2182l.1259.0729v4.4927l-.1259-.0729v-4.4927zM6.1427 32.5556l.11927.0729v4.4927l-.11927-.0729v-4.4927zM12.6764 36.3326l.2452.1458v4.4927l-.2452-.1457v-4.4928zM23.272 0L0 13.4384l23.272 13.4781 23.272-13.4781L23.272 0z" fill="#455A64"/><path opacity=".1" d="M0 13.4384l23.272 12.5173 23.272-12.5173-23.272 13.4781L0 13.4384z" fill="#fff"/><path d="M10.3439 7.46797L33.6357 20.913l4.1349-2.3922L14.4854 5.07584l-4.1415 2.39213z" fill="#BA68C8"/><path d="M37.7706 18.5208v5.2548l-.497-.2849-.5235.8945-.5168-.3048-.5169.9078-.5234-.3048-.5169.8946-.5235-.2982-.5169.9012v-5.268l4.1349-2.3922z" fill="#BA68C8"/><path opacity=".25" d="M37.7706 18.5208v5.2548l-.497-.2849-.5235.8945-.5168-.3048-.5169.9078-.5234-.3048-.5169.8946-.5235-.2982-.5169.9012v-5.268l4.1349-2.3922z" fill="#000"/></svg>