<svg width="45" height="53" fill="none" xmlns="http://www.w3.org/2000/svg"><path d="M45 25.6524l-18.9803-10.978L4.47046 27.1471l18.98024 10.978L45 25.6524z" fill="#BA68C8"/><path opacity=".3" d="M45 25.6524l-18.9803-10.978L4.47046 27.1471l18.98024 10.978L45 25.6524z" fill="#fff"/><path opacity=".2" d="M4.47046 27.1471L22.0742 37.329l19.6094-11.3499-17.6037-10.1819L4.47046 27.1471z" fill="#000"/><path d="M23.4507 52.3812l21.5492-12.4728V25.6523L23.4507 38.1251v14.2561z" fill="#BA68C8"/><path d="M25.8286 47.6535c-.0663.0008-.1314-.0172-.1877-.0522-.0795-.0577-.1426-.1353-.1828-.2249-.0403-.0897-.0563-.1883-.0467-.2861v-1.6199h.0765l1.1854-.6953v1.686c-.0026.2169-.057.4301-.1585.6217-.1016.1917-.2475.3564-.4255.4803-.0773.0528-.1673.084-.2607.0904zm-.226-1.9606v1.3905c-.0086.0647-.0007.1305.023.1913.0237.0608.0624.1145.1126.1563.0417.0175.0872.0241.1322.0192.045-.0048.088-.021.125-.047.1475-.1089.268-.2501.3524-.4128.0843-.1627.1303-.3426.1343-.5258v-.1321h-.438l-.0869-.591-.3546-.0486zm.6049.4658h.2746v-1.0429l-.6952.4137.3476.0626.073.5666z" fill="#455A64"/><path d="M26.0404 48.8562c-.0249 0-.0488-.0099-.0664-.0275-.0176-.0176-.0275-.0414-.0275-.0663v-1.2689c0-.0252.0098-.0494.0273-.0676.0175-.0181.0414-.0288.0666-.0297.0255.0009.0498.0114.0679.0295.018.018.0286.0423.0294.0678v1.2724c-.0017.0245-.0128.0475-.0308.0643-.0181.0168-.0419.0261-.0665.026z" fill="#455A64"/><path d="M25.4914 49.1726c-.0167.0009-.0334-.0028-.0481-.0108-.0148-.008-.027-.0199-.0353-.0344-.0119-.0224-.0149-.0484-.0084-.0728.0064-.0245.0218-.0457.0431-.0593l1.102-.6362c.011-.0083.0236-.0143.037-.0174.0135-.0031.0274-.0034.041-.0007.0135.0027.0263.0082.0375.0162.0113.008.0207.0183.0276.0303.007.0119.0113.0251.0128.0389.0014.0137-.0001.0276-.0044.0407-.0044.0131-.0114.0251-.0208.0353-.0093.0101-.0207.0182-.0334.0236l-1.1054.6362c-.0141.0067-.0296.0102-.0452.0104zM29.4194 46.9895c-.0366-.0001-.0725-.0097-.1043-.0278-.038-.0244-.0688-.0585-.089-.0989-.0202-.0404-.0291-.0855-.0257-.1306v-.2572c.0009-.0255.0114-.0498.0295-.0679.018-.018.0423-.0286.0678-.0294.0252.0009.0491.0115.0666.0297.0175.0181.0273.0424.0273.0676v.2572c0 .0417 0 .0626.0174.0661.0098.0044.0205.0067.0313.0067.0107 0 .0214-.0023.0312-.0067.0587-.0542.105-.1205.1356-.1944.0306-.0738.0449-.1534.0417-.2332v-1.7068c0-.0249.0099-.0488.0275-.0664.0176-.0176.0415-.0275.0664-.0275.0252 0 .0495.0098.0676.0273.0182.0175.0288.0414.0297.0666v1.6894c.0041.1129-.0183.2251-.0654.3277s-.1175.1928-.2057.2633c-.0447.0287-.0964.0443-.1495.0452z" fill="#455A64"/><path d="M28.4185 45.5156v-.1669c.0233-.4215.1456-.8315.357-1.1969.2114-.3654.5059-.6759.8596-.9062.1263-.1059.282-.1705.4462-.1849.1641-.0143.3287.0221.4714.1045.1428.0824.2567.2066.3264.356.0696.1493.0917.3165.0631.4787v.0557l-2.5237 1.46zm1.7833-2.2526c-.1676.0071-.3304.0574-.4728.146-.301.198-.5559.4586-.7472.7639-.1914.3053-.3147.6482-.3617 1.0055l2.1309-1.2306c.0088-.1196-.0134-.2394-.0646-.3478s-.1295-.2018-.2274-.271c-.0782-.0449-.1671-.0677-.2572-.066zM32.8299 45.0463c-.0252-.0009-.049-.0116-.0666-.0297-.0175-.0182-.0272-.0424-.0272-.0677v-3.2294c0-.0249.0099-.0488.0275-.0664.0176-.0176.0414-.0275.0663-.0275s.0488.0099.0664.0275c.0176.0176.0275.0415.0275.0664v3.2225c.0009.013-.0008.0262-.005.0386-.0043.0124-.011.0238-.0197.0335-.0088.0097-.0194.0176-.0313.0231-.0119.0056-.0248.0086-.0379.0091z" fill="#455A64"/><path d="M32.5514 42.4565c-.0126.0031-.0257.0031-.0383 0-.0115-.0049-.0219-.0121-.0306-.0211-.0087-.009-.0155-.0196-.0201-.0313-.0045-.0116-.0067-.0241-.0063-.0366.0003-.0125.0032-.0248.0084-.0362l.3476-.7787.3789.4346c.0176.0181.0275.0425.0275.0678 0 .0253-.0099.0496-.0275.0678-.0186.0168-.0427.0261-.0678.0261-.0251 0-.0492-.0093-.0678-.0261l-.1773-.2086-.219.504c-.0112.0174-.0279.0305-.0474.0375-.0195.0069-.0407.0072-.0603.0008zM33.7092 44.5457c-.0256-.0009-.0498-.0114-.0679-.0295-.0181-.018-.0286-.0423-.0295-.0678v-3.2295c.0009-.0255.0114-.0498.0295-.0678.0181-.0181.0423-.0286.0679-.0295.0252.0009.049.0116.0665.0297.0175.0182.0273.0424.0273.0676v3.2295c0 .0252-.0098.0494-.0273.0676-.0175.0182-.0413.0288-.0665.0297z" fill="#455A64"/><path d="M33.431 41.9559c-.0125.0036-.0258.0036-.0382 0-.0116-.0049-.022-.012-.0307-.021-.0087-.009-.0155-.0197-.02-.0313-.0046-.0117-.0067-.0241-.0064-.0366.0004-.0125.0032-.0248.0084-.0362l.3476-.7787.3754.4345c.0177.0182.0275.0425.0275.0678 0 .0253-.0098.0496-.0275.0678-.0185.0169-.0427.0262-.0677.0262-.0251 0-.0493-.0093-.0678-.0262l-.1773-.2086-.219.5041c-.012.0155-.0282.0274-.0466.0341-.0185.0068-.0385.0082-.0577.0041z" fill="#455A64"/><path d="M23.4507 52.3811L4.47046 41.4032V27.1471l18.98024 10.978v14.256z" fill="#BA68C8"/><path opacity=".1" d="M23.4507 52.3811L4.47046 41.4032V27.1471l18.98024 10.978v14.256z" fill="#000"/><path opacity=".2" d="M4.47046 31.913L22.0742 42.0949V37.329L4.47046 27.1471v4.7659z" fill="#000"/><path d="M13.0325 34.256l1.3939.8065v-2.1657l-1.3939-.8065v2.1657z" fill="#37474F"/><path d="M14.4264 32.8968l21.5493-12.4727-1.394-.8065-21.5492 12.4727 1.3939.8065z" fill="#455A64"/><path d="M7.18544 36.1158l4.93276 2.8506c.0649.0421.119.0991.1576.1662.0387.067.0609.1423.0649.2196v3.4311c0 .2815-.1981.3963-.4415.2537L6.96296 40.19c-.06417-.043-.1176-.1001-.15617-.167-.03858-.0669-.06127-.1418-.06631-.2189v-3.431c0-.2816.20162-.3963.44496-.2573z" fill="#FAFAFA"/><path d="M7.06372 36.6512l.16686.0973v3.0243l-.16686-.0938v-3.0278zM7.74512 37.0439l.292.1704v3.0278l-.292-.1704v-3.0278zM8.43018 37.4402l.16685.0974v3.0243l-.16685-.0938v-3.0279zM8.94458 37.7323l.3372.1981v3.0279l-.3372-.2017v-3.0243zM9.79614 38.2293l.16687.0939v3.0278l-.16687-.0973v-3.0244zM10.2898 38.5074l.358.2121v3.0278l-.358-.2155v-3.0244zM11.1624 39.015l.1668.0973v3.0279l-.1668-.0974V39.015zM11.5518 39.2375l.0834.0487v3.0278l-.0834-.0487v-3.0278zM10.8528 38.8516l.0834.0487v3.0278l-.0834-.0487v-3.0278zM9.47632 38.0451l.08343.0487v3.0278l-.08343-.0487v-3.0278zM8.72192 37.6141l.08344.0487v3.0243l-.08344-.0452v-3.0278zM8.17969 37.3151l.08343.0487v3.0243l-.08343-.0486v-3.0244zM7.44604 36.8667l.08344.0486v3.0278l-.08344-.0486v-3.0278zM11.8472 39.4113l.1668.0973v3.0278l-.1668-.0973v-3.0278z" fill="#455A64"/><path d="M40.526 11.6813L21.5492.703339 0 13.1761l18.9768 10.978L40.526 11.6813z" fill="#BA68C8"/><path opacity=".7" d="M40.526 11.6813L21.5492.703339 0 13.1761l18.9768 10.978L40.526 11.6813z" fill="#fff"/><path d="M18.9766 38.4102l21.5492-12.4728V11.6813L18.9766 24.1541v14.2561z" fill="#BA68C8"/><path opacity=".6" d="M18.9766 38.4102l21.5492-12.4728V11.6813L18.9766 24.1541v14.2561z" fill="#fff"/><path d="M21.3545 33.6824c-.0651.0002-.1289-.0178-.1843-.0521-.0783-.0579-.1403-.135-.1799-.224-.0396-.0889-.0554-.1866-.046-.2835V31.5028h.0799l1.182-.6952v1.686c-.002.2166-.0557.4297-.1566.6214-.101.1916-.2464.3564-.424.4805-.0809.0528-.1746.0828-.2711.0869zm-.226-1.9606v1.3905c-.0086.0647-.0007.1305.023.1913.0237.0608.0625.1146.1126.1564.0417.0174.0872.0241.1322.0192.045-.0049.088-.021.1251-.047.148-.1085.2692-.2496.3542-.4123.085-.1627.1315-.3428.1359-.5263v-.1252h-.438l-.0869-.5909-.3581-.0557zm.6084.4659h.2746v-1.0429l-.6952.4137.3476.0625.073.5667z" fill="#455A64"/><path d="M21.5702 34.8852c-.0249 0-.0488-.0099-.0664-.0275-.0176-.0176-.0275-.0415-.0275-.0664v-1.2688c0-.0249.0099-.0488.0275-.0664.0176-.0176.0415-.0275.0664-.0275s.0487.0099.0663.0275c.0176.0176.0275.0415.0275.0664v1.2688c0 .0249-.0099.0488-.0275.0664-.0176.0176-.0414.0275-.0663.0275z" fill="#455A64"/><path d="M21.0175 35.2085c-.0161.0003-.0321-.0037-.0461-.0117-.0141-.0079-.0258-.0195-.0338-.0335-.0068-.0108-.0113-.023-.0132-.0356-.0019-.0127-.0012-.0256.002-.0379.0033-.0124.009-.024.0169-.034.0079-.0101.0178-.0185.029-.0246l1.102-.6361c.0107-.0062.0225-.0103.0348-.0119.0123-.0016.0248-.0008.0367.0025.012.0032.0232.0088.033.0163.0098.0076.018.0171.0241.0278.0127.0222.0162.0485.0097.0732-.0065.0247-.0225.0459-.0445.0589l-1.1019.6466c-.016.0036-.0327.0036-.0487 0zM24.9492 33.0185c-.0366-.0001-.0725-.0097-.1043-.0278-.038-.0244-.0688-.0585-.089-.0989-.0202-.0404-.0291-.0855-.0257-.1306v-.2572c0-.0252.0097-.0495.0272-.0676.0176-.0182.0414-.0288.0666-.0297.0256.0008.0498.0114.0679.0294.0181.0181.0286.0424.0295.0679v.2712c0 .0417 0 .0625.0174.066.0173.0035.0278 0 .0625 0 .0581-.0545.1037-.121.1337-.1948.03-.0738.0437-.1532.0401-.2328v-1.7242c.0009-.0252.0116-.0491.0297-.0666.0182-.0175.0425-.0273.0677-.0272.0249 0 .0487.0098.0663.0274.0176.0176.0275.0415.0275.0664v1.6895c.0048.1125-.0169.2247-.0634.3273-.0465.1027-.1165.193-.2042.2636-.0446.0294-.0962.0463-.1495.0487z" fill="#455A64"/><path d="M23.9478 31.5446v-.1599c.0235-.4211.1455-.8307.3562-1.196.2107-.3653.5042-.676.857-.9071.126-.1073.2822-.173.4471-.1881.1648-.0151.3303.0212.4738.1037.1434.0826.2579.2075.3276.3576.0698.1502.0914.3182.062.4811v.0556l-2.5237 1.4531zm1.7833-2.2526c-.1677.0066-.3306.057-.4728.146-.3015.1978-.5569.4583-.7488.7636-.192.3053-.316.6483-.3636 1.0058l2.1344-1.2306c.0088-.1196-.0134-.2394-.0646-.3478s-.1295-.2018-.2274-.271c-.0788-.0425-.1677-.0629-.2572-.0591v-.0069zM28.3593 31.0753c-.0258 0-.0505-.0103-.0688-.0285-.0182-.0183-.0285-.043-.0285-.0689v-3.2294c-.0027-.0141-.0023-.0286.0013-.0424.0036-.0139.0101-.0269.0193-.0379.0091-.0111.0206-.02.0335-.0261.013-.0061.0272-.0092.0415-.0092.0143 0 .0285.0031.0415.0092.0129.0061.0244.015.0335.0261.0091.011.0157.024.0193.0379.0035.0138.004.0283.0013.0424v3.2294c0 .0253-.0098.0495-.0273.0677-.0175.0181-.0414.0288-.0666.0297z" fill="#455A64"/><path d="M28.0811 28.4855c-.0125.0035-.0257.0035-.0382 0-.0115-.0049-.0219-.0121-.0306-.0211-.0087-.009-.0155-.0196-.0201-.0313-.0045-.0116-.0067-.0241-.0063-.0366.0003-.0125.0032-.0248.0083-.0362l.3477-.7787.3754.4346c.0176.0181.0275.0424.0275.0678 0 .0253-.0099.0496-.0275.0677-.0186.0169-.0427.0262-.0678.0262-.0251 0-.0492-.0093-.0678-.0262l-.1773-.2085-.219.504c-.012.0156-.0281.0274-.0466.0342-.0185.0067-.0384.0082-.0577.0041zM29.235 30.5747c-.0252-.0009-.049-.0116-.0665-.0297-.0176-.0182-.0273-.0424-.0273-.0676v-3.2295c-.0005-.0126.0016-.0252.0061-.037.0045-.0117.0114-.0225.0201-.0316.0088-.0091.0193-.0163.0309-.0212.0116-.005.0241-.0075.0367-.0075.0259 0 .0506.0103.0689.0285.0182.0183.0285.043.0285.0688v3.2295c-.0009.0255-.0114.0498-.0295.0678-.0181.0181-.0423.0286-.0679.0295z" fill="#455A64"/><path d="M28.957 27.9848h-.0382c-.0226-.0106-.0403-.0295-.0494-.0528-.009-.0233-.0088-.0492.0007-.0723l.3476-.7787.379.4346c.0091.0087.0164.0192.0214.0309.0049.0116.0075.0242.0075.0368 0 .0127-.0026.0252-.0075.0369-.005.0116-.0123.0222-.0214.0309-.018.0166-.0416.0259-.0661.0259-.0245 0-.0481-.0093-.066-.0259l-.1808-.2085-.219.504c-.0113.0174-.0279.0305-.0474.0374-.0195.0069-.0407.0072-.0604.0008z" fill="#455A64"/><path d="M18.9768 38.4101L0 27.4322V13.1761l18.9768 10.978v14.256z" fill="#BA68C8"/><path opacity=".4" d="M18.9768 38.4101L0 27.4322V13.1761l18.9768 10.978v14.256z" fill="#fff"/><path d="M8.55859 20.285l1.39745.8065v-2.1657l-1.39745-.8065v2.1657z" fill="#37474F"/><path d="M9.95604 18.9258L31.5053 6.45306l-1.394-.80648L8.55859 18.1193l1.39745.8065z" fill="#455A64"/><path d="M2.71473 22.1448l4.93279 2.8505c.06473.0424.11859.0994.15724.1664.03865.067.06099.1422.06524.2194v3.4311c0 .2816-.20162.3963-.44496.2537l-4.93279-2.847c-.06416-.043-.11759-.1001-.15617-.167-.03857-.0669-.06126-.1418-.0663-.2189v-3.431c0-.2816.19814-.4032.44495-.2572z" fill="#FAFAFA"/><path d="M2.5896 22.6801l.17034.0974v3.0243l-.17034-.0938v-3.0279zM3.27466 23.0729l.28853.1704v3.0278l-.28853-.1704v-3.0278zM3.95581 23.4693l.17033.0973v3.0243l-.17033-.0938v-3.0278zM4.47388 23.7612l.33372.1982v3.0278l-.33372-.2016v-3.0244zM5.32544 24.2584l.16686.0938V27.38l-.16686-.0973v-3.0243zM5.81592 24.5364l.35805.2121v3.0278l-.35805-.2155v-3.0244zM6.69189 25.044l.16686.0973v3.0278l-.16686-.0973V25.044zM7.08105 25.2664l.08344.0487v3.0278l-.08344-.0486v-3.0279zM6.37891 24.8806l.08342.0486v3.0279l-.08342-.0487v-3.0278zM5.00244 24.0741l.08343.0487v3.0278l-.08343-.0487v-3.0278zM4.2478 23.6431l.08691.0487v3.0243l-.08691-.0487v-3.0243zM3.70898 23.3441l.08344.0487v3.0243l-.08344-.0487v-3.0243zM2.97217 22.8957l.0869.0486-.00348 3.0278-.08342-.0486v-3.0278zM7.37305 25.4403l.17033.0973v3.0278l-.17033-.0973v-3.0278z" fill="#455A64"/></svg>