<svg width="47" height="53" fill="none" xmlns="http://www.w3.org/2000/svg"><path d="M46.8603 14.9204l-8.6782-5.00781-12.1477 7.01171 8.6782 5.0121 12.1477-7.016z" fill="#F5F5F5"/><path d="M34.7126 41.9761l12.1478-7.0118V14.9204l-12.1478 7.016v20.0397z" fill="#EBEBEB"/><path d="M36.7167 37.9895c-.0544.0011-.1078-.0137-.1538-.0427-.0671-.048-.1205-.1127-.155-.1876s-.0488-.1576-.0416-.2397V36.1436h.0641l.9999-.5854v1.4229c-.0021.1831-.0478.3631-.1332.5251-.0855.162-.2083.3013-.3582.4064-.066.0447-.1427.0713-.2222.0769zm-.188-1.6536v1.1793c-.008.0549-.0015.111.0187.1627.0202.0516.0535.0972.0967.1321.0349.0138.0727.0187.11.0142.0373-.0045.0729-.0181.1036-.0398.128-.0893.2333-.2073.3074-.3445.0742-.1373.1153-.29.1199-.446v-.1025h-.3718l-.0726-.5-.3119-.0555zm.5127.3931h.2308v-.8802l-.5982.3504.2948.0512.0726.4786z" fill="#fff"/><path d="M36.9003 39.0064c-.0216 0-.0422-.0086-.0574-.0238-.0153-.0152-.0238-.0359-.0238-.0574v-1.0725c0-.0104.0021-.0208.0062-.0304.0042-.0097.0102-.0183.0178-.0255.0076-.0072.0166-.0128.0264-.0164.0099-.0036.0203-.0052.0308-.0046.0204 0 .0399.0081.0544.0225.0144.0145.0225.034.0225.0544v1.0725c0 .0208-.0079.0408-.0223.056-.0143.0151-.0338.0241-.0546.0252z" fill="#fff"/><path d="M36.4347 39.2714c-.0139.0008-.0277-.0024-.0398-.0092-.0121-.0069-.0221-.017-.0286-.0293-.0061-.0088-.0103-.0188-.0124-.0294-.002-.0105-.0018-.0214.0006-.0318.0024-.0105.007-.0203.0135-.0289.0064-.0086.0146-.0157.024-.021l.9314-.5341c.0093-.0053.0195-.0088.0301-.0102.0106-.0014.0214-.0007.0317.0021s.02.0076.0285.0141c.0084.0065.0155.0146.0208.0239.0053.0089.0087.0188.01.0291.0014.0103.0006.0207-.0022.0307-.0028.01-.0075.0193-.014.0274-.0065.008-.0145.0147-.0237.0196l-.9315.5384c-.0116.0068-.025.0098-.0384.0086zM39.7504 37.4297c-.0312.0001-.0619-.0072-.0897-.0213-.0312-.021-.0563-.0498-.0728-.0836-.0165-.0337-.0238-.0712-.0212-.1087v-.2222c0-.0204.0081-.04.0225-.0544.0144-.0144.034-.0225.0544-.0225.0104-.0006.0209.001.0307.0046.0099.0036.0189.0091.0265.0163.0076.0072.0136.0159.0177.0255.0042.0097.0063.02.0063.0305v.2735c0 .0042.0256 0 .0512 0 .049-.0467.0877-.1032.1134-.1657.0258-.0626.0381-.1299.0362-.1975v-1.4229c-.0028-.0119-.0028-.0243-.0002-.0362.0027-.012.008-.0232.0156-.0327.0076-.0096.0173-.0174.0283-.0227.011-.0053.0231-.0081.0353-.0081.0123 0 .0244.0028.0354.0081.011.0053.0207.0131.0283.0227.0076.0095.0129.0207.0156.0327.0026.0119.0026.0243-.0002.0362v1.4229c.0035.0951-.0151.1898-.0544.2766-.0393.0867-.0982.1632-.1721.2233-.0332.0166-.0697.0253-.1068.0256z" fill="#fff"/><path d="M38.9043 36.1906v-.141c.0202-.3552.1236-.7007.3017-1.0087.1781-.3079.426-.5698.7238-.7645.1061-.0907.2377-.1463.3768-.1591.139-.0128.2786.0178.3995.0876.1209.0699.2172.1754.2756.3023.0584.1268.076.2686.0505.4058v.047l-2.1279 1.2306zm1.504-1.9014c-.1409.0065-.2777.0491-.3973.1239-.2543.1679-.4697.3881-.6318.6461-.1622.2579-.2673.5475-.3083.8494l1.8032-1.0426c.006-.1007-.0136-.2013-.0569-.2925-.0433-.0911-.109-.1698-.1909-.2288-.0653-.0371-.1386-.0577-.2137-.0598l-.0043.0043zM42.6259 35.789c-.0216 0-.0422-.0086-.0574-.0238-.0153-.0152-.0238-.0359-.0238-.0574v-2.7261c0-.0215.0085-.0422.0238-.0574.0152-.0152.0358-.0238.0574-.0238.0215 0 .0421.0086.0574.0238.0152.0152.0237.0359.0237.0574v2.7261c0 .0215-.0085.0422-.0237.0574-.0153.0152-.0359.0238-.0574.0238z" fill="#fff"/><path d="M42.3911 33.6269h-.0299c-.0097-.0037-.0185-.0094-.026-.0166-.0074-.0073-.0133-.016-.0173-.0255-.004-.0096-.006-.0199-.0059-.0303.0001-.0104.0023-.0206.0065-.0301l.2862-.6581.3162.3675c.0136.0159.0204.0365.0188.0573-.0016.0209-.0115.0402-.0273.0538-.0079.0067-.017.0119-.0268.0151-.0098.0032-.0202.0044-.0305.0036-.0209-.0016-.0402-.0114-.0538-.0272l-.1538-.1752-.1838.4273c-.0072.0126-.0179.0229-.0307.0297-.0129.0068-.0274.0098-.0419.0087zM43.3651 35.366c-.0208 0-.0408-.008-.0559-.0223-.0151-.0143-.0242-.0339-.0253-.0547v-2.726c0-.0216.0086-.0422.0238-.0574.0152-.0153.0359-.0238.0574-.0238.0108-.0006.0217.001.0318.0049.0101.0039.0193.0098.027.0175.0077.0076.0136.0168.0175.027.0039.0101.0055.0209.0049.0318v2.726c0 .0105-.0021.0209-.0062.0305-.0042.0096-.0102.0183-.0178.0255-.0076.0072-.0166.0128-.0264.0164-.0099.0036-.0203.0051-.0308.0046z" fill="#fff"/><path d="M43.1301 33.1996c-.0096.0036-.0203.0036-.0299 0-.0097-.0038-.0185-.0094-.0259-.0167-.0075-.0072-.0134-.0159-.0174-.0255-.004-.0095-.006-.0198-.0059-.0302.0001-.0104.0023-.0206.0065-.0302l.2863-.658.3161.3675c.0142.015.022.0349.022.0555 0 .0207-.0078.0405-.022.0556-.0075.0076-.0165.0137-.0264.0178-.0099.0041-.0205.0062-.0312.0062-.0108 0-.0214-.0021-.0313-.0062-.0099-.0041-.0189-.0102-.0264-.0178l-.1496-.1752-.1837.4273c-.0093.0121-.0219.0214-.0363.0267-.0143.0052-.0299.0064-.0449.0032z" fill="#fff"/><path d="M34.7126 41.976l-8.6782-5.0077v-20.044l8.6782 5.0121V41.976z" fill="#E0E0E0"/><path d="M30.0637 22.0988l1.1751.6793v-2.8457l-1.1751-.6794v2.8458z" fill="#F5F5F5"/><path d="M31.2388 19.9324l12.1519-7.016-1.1793-.6794-12.1477 7.016 1.1751.6794z" fill="#fff"/><path d="M31.2388 31.9562l-15.6173-9.0157L0 31.9562l15.6215 9.02 15.6173-9.02z" fill="#F5F5F5"/><path d="M15.6216 53l15.6173-9.0157V31.9562l-15.6173 9.02V53z" fill="#EBEBEB"/><path d="M17.6254 49.0092c-.054-.0011-.1069-.0158-.1538-.0428-.0668-.0482-.1199-.1129-.1544-.1878-.0344-.0748-.0489-.1573-.0421-.2395V47.1633h.0641l.9998-.5897v1.4272c-.0028.1824-.0487.3615-.1342.5227-.0854.1612-.2078.2998-.3572.4045-.0657.0459-.1423.0739-.2222.0812zm-.1922-1.6536v1.1793c-.0076.0543-.001.1096.0192.1605.0203.051.0534.0958.0961.13.035.016.0736.0225.1119.0187.0382-.0037.0748-.0176.106-.04.1275-.0898.2325-.2079.3066-.345.0741-.1372.1155-.2897.1207-.4455v-.1068h-.3845l-.0727-.5-.3033-.0512zm.5127.3931h.2478v-.876l-.5939.3504.2948.0513.0513.4743z" fill="#fff"/><path d="M17.8049 50.0261c-.0101 0-.0201-.002-.0295-.0059-.0093-.0038-.0178-.0095-.0249-.0166-.0071-.0072-.0128-.0157-.0167-.025-.0038-.0093-.0058-.0193-.0058-.0294v-1.0725c-.0028-.0119-.0029-.0243-.0002-.0362.0027-.012.008-.0232.0156-.0327.0076-.0096.0173-.0174.0283-.0227.011-.0053.0231-.0081.0353-.0081.0122 0 .0243.0028.0353.0081.0111.0053.0207.0131.0283.0227.0076.0095.013.0207.0156.0327.0027.0119.0026.0243-.0001.0362v1.0725c0 .0105-.0021.0208-.0063.0304-.0041.0097-.0102.0183-.0178.0255-.0076.0072-.0165.0128-.0264.0164-.0098.0036-.0203.0052-.0307.0046z" fill="#fff"/><path d="M17.3393 50.291c-.0171-.0011-.0335-.0075-.0467-.0184-.0132-.011-.0226-.0258-.0269-.0424-.0042-.0166-.0031-.0341.0032-.0501.0063-.0159.0175-.0294.0319-.0386l.9315-.5341c.0085-.0061.0182-.0103.0284-.0123s.0208-.0018.0309.0007c.0101.0024.0196.007.0278.0134.0082.0064.0149.0145.0197.0238.0062.0088.0104.0188.0124.0294.0021.0105.0019.0214-.0005.0318-.0025.0105-.007.0203-.0135.0289-.0064.0086-.0146.0158-.024.021l-.9315.5469h-.0427zM20.6551 48.4537c-.0282.0062-.0574.0062-.0855 0-.0326-.0208-.059-.0501-.0763-.0847-.0174-.0346-.0249-.0733-.022-.1119v-.2179c0-.0215.0086-.0422.0238-.0574.0152-.0152.0359-.0238.0574-.0238s.0422.0086.0574.0238c.0152.0152.0238.0359.0238.0574v.2179c-.0059.0181-.0059.0375 0 .0556h.0555c.0483-.0471.0861-.1037.1111-.1663.025-.0625.0367-.1296.0342-.1969v-1.4229c.0011-.0212.0099-.0412.0249-.0563.0151-.015.0351-.0238.0563-.0249.0215 0 .0422.0086.0574.0238.0152.0152.0238.0359.0238.0574v1.4229c.0035.0951-.0151.1898-.0544.2766-.0393.0867-.0982.1632-.1721.2233-.0376.0105-.0771.0119-.1153.0043z" fill="#fff"/><path d="M19.8132 47.2103v-.141c.0186-.3556.1212-.7018.2995-1.01.1782-.3082.4271-.5698.726-.7633.1061-.0907.2378-.1463.3768-.1591.139-.0128.2786.0179.3995.0877.1209.0698.2172.1754.2756.3022.0584.1268.076.2686.0505.4059v.047l-2.1279 1.2306zm1.5041-1.9014c-.1421.0072-.2802.0498-.4017.1239-.2534.1682-.468.3887-.6294.6466-.1614.2579-.2658.5473-.3063.8489l1.7988-1.0426c.0069-.1004-.0118-.2009-.0544-.2921-.0426-.0912-.1077-.1701-.1891-.2292-.0664-.0376-.1416-.0568-.2179-.0555zM23.535 46.8129c-.0108.0006-.0217-.001-.0318-.0049-.0101-.0039-.0193-.0098-.027-.0175-.0077-.0076-.0136-.0168-.0175-.027-.0038-.0101-.0055-.0209-.0049-.0318v-2.726c-.0028-.012-.0029-.0243-.0002-.0363.0027-.0119.008-.0231.0156-.0327.0076-.0096.0173-.0173.0283-.0226.011-.0054.0231-.0081.0353-.0081.0123 0 .0244.0027.0354.0081.011.0053.0207.013.0283.0226.0076.0096.0129.0208.0156.0327.0026.012.0026.0243-.0002.0363v2.726c.0006.0105-.001.021-.0046.0308s-.0092.0188-.0164.0264c-.0072.0076-.0158.0137-.0255.0178-.0096.0041-.0199.0062-.0304.0062z" fill="#fff"/><path d="M23.3212 44.6294h-.0341c-.0099-.0041-.0188-.0102-.0262-.0179-.0073-.0078-.013-.0169-.0166-.027-.0036-.01-.0051-.0207-.0044-.0314.0008-.0106.0037-.021.0087-.0305l.282-.658.3205.3675c.0141.0164.0212.0378.0196.0594-.0016.0217-.0117.0418-.0282.0559-.0164.0142-.0378.0213-.0594.0197-.0217-.0016-.0418-.0118-.0559-.0282l-.1496-.1752-.1837.4273c-.0076.0123-.0183.0223-.0311.0291-.0128.0068-.0271.01-.0416.0093zM24.2741 46.3899c-.0216 0-.0422-.0086-.0575-.0238-.0152-.0152-.0237-.0359-.0237-.0574v-2.7261c0-.0215.0085-.0422.0237-.0574.0153-.0152.0359-.0238.0575-.0238.0215 0 .0421.0086.0574.0238.0152.0152.0237.0359.0237.0574v2.7261c0 .0215-.0085.0422-.0237.0574-.0153.0152-.0359.0238-.0574.0238z" fill="#fff"/><path d="M24.039 44.2065h-.0299c-.0096-.0038-.0185-.0094-.0259-.0167-.0074-.0072-.0133-.0159-.0173-.0255-.004-.0096-.006-.0199-.0059-.0302.0001-.0104.0022-.0207.0064-.0302l.2863-.6623.3162.3675c.0076.0075.0136.0165.0178.0264.0041.0099.0062.0205.0062.0313 0 .0107-.0021.0213-.0062.0312-.0042.0099-.0102.0189-.0178.0265-.0072.0075-.0158.0134-.0254.0175-.0095.0041-.0198.0062-.0302.0062-.0103 0-.0206-.0021-.0302-.0062-.0095-.0041-.0181-.01-.0253-.0175l-.1538-.1752-.1838.4273c-.0089.0125-.0215.0221-.036.0274-.0144.0053-.0302.0062-.0452.0025z" fill="#fff"/><path d="M15.6215 53L0 43.9843V31.9562l15.6215 9.02V53z" fill="#E0E0E0"/><path d="M7.22119 38.9722l1.17504.6794v-2.8457l-1.17504-.6794v2.8457z" fill="#F5F5F5"/><path d="M8.39623 36.8059l15.62157-9.0158-1.1751-.6836-15.62151 9.02 1.17504.6794z" fill="#fff"/><path d="M2.47407 39.3995l3.72592 2.1364c.21556.1406.39513.3299.52425.5525.12913.2226.20422.4724.21923.7294v2.303c0 .4701-.33328.6623-.74348.4273l-3.72592-2.1364c-.21548-.1403-.39475-.3296-.52321-.5523-.12846-.2228-.20247-.4728-.216-.7296v-2.2987c0-.4786.33329-.6495.73921-.4316z" fill="#F5F5F5"/><path d="M2.18774 39.972l.14101.0812v2.5552l-.14101-.0812V39.972zM2.76025 40.3053l.24783.1453v2.5509l-.24783-.141v-2.5552zM3.33716 40.6386l.14528.0812-.00428 2.5552-.141-.0812v-2.5552zM3.77295 40.8864l.28628.1667-.00427 2.5551-.28201-.1709v-2.5509zM4.49072 41.3052l.14101.0812v2.5551l-.14101-.0854v-2.5509zM4.90527 41.5402l.30338.1795v2.5509l-.30338-.1795v-2.5509zM5.64453 41.9717l.14101.0812v2.5509l-.14101-.0812v-2.5509zM5.97339 42.1555l.07264.0427v2.5509l-.07264-.0384v-2.5552zM5.38379 41.8307l.06837.0385v2.5552l-.06837-.0385v-2.5552zM4.22168 41.1514l.06836.0385v2.5551l-.06836-.0427v-2.5509zM3.58496 40.7839l.07264.0428v2.5509l-.07264-.0385v-2.5552zM3.12769 40.5318l.07263.0427v2.5552l-.07263-.0428v-2.5551zM2.5083 40.1558l.07264.0427v2.5509l-.07264-.0384v-2.5552zM6.22119 42.3008l.141.0854v2.5509l-.141-.0812v-2.5551z" fill="#E0E0E0"/><path d="M27.7692 7.9086L15.6215.892578 3.46948 7.9086l12.15202 7.0118 12.1477-7.0118z" fill="#F5F5F5"/><path d="M15.6216 38.9722l12.1477-7.016V7.90857L15.6216 14.9203v24.0519z" fill="#EBEBEB"/><path d="M17.6254 34.9814c-.0537.0004-.1066-.0128-.1538-.0385-.0668-.0483-.1199-.113-.1544-.1878-.0344-.0749-.0489-.1574-.0421-.2395V33.1398h.0641l.9998-.5854v1.4228c-.0024.1831-.0482.363-.1337.5249-.0854.1619-.208.3013-.3577.4066-.0664.0433-.143.0683-.2222.0727zm-.1922-1.6536v1.1835c-.0068.0543.0002.1093.0204.1601.0201.0508.0528.0957.0949.1305.035.016.0736.0224.1119.0187.0382-.0038.0748-.0176.106-.0401.1276-.0906.2325-.2095.3067-.3474.0741-.1378.1154-.2909.1206-.4473v-.1026h-.3845l-.0727-.4999-.3033-.0555zm.5127.3931h.2478v-.876l-.5939.3504.2948.0513.0513.4743z" fill="#fff"/><path d="M17.8051 35.9983c-.0105 0-.0209-.0021-.0305-.0062-.0096-.0042-.0183-.0102-.0255-.0178-.0072-.0076-.0128-.0166-.0164-.0264-.0036-.0098-.0051-.0203-.0046-.0308v-1.0682c-.0005-.0104.001-.0209.0046-.0307.0036-.0099.0092-.0188.0164-.0264.0072-.0076.0159-.0137.0255-.0178.0096-.0042.02-.0063.0305-.0063.0108-.0006.0216.0011.0317.005.0102.0038.0194.0098.027.0174.0077.0077.0137.0169.0175.027.0039.0102.0056.021.0049.0318v1.0682c.0007.0109-.001.0217-.0049.0318-.0038.0101-.0098.0193-.0175.027-.0076.0077-.0168.0136-.027.0175-.0101.0039-.0209.0055-.0317.0049z" fill="#fff"/><path d="M17.3393 36.2675c-.0171-.0011-.0335-.0075-.0467-.0184-.0132-.011-.0226-.0258-.0269-.0424-.0042-.0166-.0031-.0341.0032-.0501.0063-.0159.0175-.0295.0319-.0386l.9315-.5384c.0187-.0108.0409-.0137.0618-.0081.0208.0056.0385.0193.0493.038.0108.0187.0137.0409.0081.0617-.0056.0209-.0193.0386-.038.0494l-.9315.5341c-.0125.0086-.0275.0131-.0427.0128zM20.6549 34.4259c-.0304.0001-.0602-.0088-.0855-.0256-.0326-.0198-.0591-.0482-.0765-.0822-.0173-.0339-.0249-.0721-.0218-.1101v-.2179c0-.0215.0086-.0422.0238-.0574.0152-.0152.0359-.0238.0574-.0238.0216 0 .0422.0086.0574.0238.0153.0152.0238.0359.0238.0574v.2179c-.0059.0181-.0059.0375 0 .0556.0182.0051.0374.0051.0556 0 .0487-.0458.087-.1016.1121-.1635.025-.062.0364-.1287.0331-.1955v-1.4228c0-.0216.0086-.0422.0238-.0574.0152-.0153.0359-.0238.0574-.0238.0108-.0006.0217.001.0318.0049.0101.0039.0193.0098.027.0175.0077.0077.0136.0169.0175.027.0039.0101.0055.021.0049.0318v1.4228c.0035.0952-.0151.1899-.0544.2766-.0393.0868-.0982.1632-.1721.2234-.0361.0162-.0757.0235-.1153.0213z" fill="#fff"/><path d="M19.8132 33.1996v-.1367c.0193-.3561.1222-.7025.3003-1.0113.1782-.3089.4266-.5714.7252-.7662.1071-.0887.2388-.1424.3773-.1538.1386-.0115.2773.0199.3975.0897.1201.0699.216.175.2746.301.0586.1261.0771.2671.053.404v.0427l-2.1279 1.2306zm1.5041-1.8971c-.1421.0072-.2802.0498-.4017.1239-.2529.1678-.4672.3876-.6286.6447-.1613.2571-.2661.5457-.3071.8465l1.7988-1.0383c.0078-.1005-.0106-.2013-.0533-.2926-.0426-.0914-.1082-.1701-.1902-.2287-.0642-.0452-.1396-.0718-.2179-.0769v.0214zM23.535 32.7724c-.0216 0-.0422-.0086-.0574-.0238-.0153-.0153-.0238-.0359-.0238-.0574v-2.7261c-.0028-.0119-.0029-.0243-.0002-.0363.0027-.0119.008-.0231.0156-.0327.0076-.0095.0173-.0173.0283-.0226.011-.0053.0231-.0081.0353-.0081.0123 0 .0244.0028.0354.0081.011.0053.0207.0131.0283.0226.0076.0096.0129.0208.0156.0327.0026.012.0026.0244-.0002.0363v2.7261c0 .0208-.0079.0408-.0223.0559-.0143.0151-.0338.0242-.0546.0253z" fill="#fff"/><path d="M23.3212 30.5975h-.0341c-.0099-.0041-.0188-.0103-.0262-.018-.0073-.0077-.013-.0169-.0166-.027-.0036-.01-.0051-.0207-.0044-.0314.0008-.0106.0037-.021.0087-.0305l.282-.658.3205.3675c.0141.015.022.0349.022.0555 0 .0207-.0079.0405-.022.0556-.0158.0144-.0364.0224-.0577.0224-.0214 0-.0419-.008-.0577-.0224l-.1495-.1752-.1838.4273c-.0084.0133-.0207.0237-.0352.0298-.0145.0062-.0306.0077-.046.0044zM24.2741 32.345c-.0212-.001-.0413-.0099-.0563-.0249-.015-.015-.0239-.0351-.0249-.0563v-2.726c0-.0216.0085-.0422.0237-.0574.0153-.0153.0359-.0238.0575-.0238.0215 0 .0421.0085.0574.0238.0152.0152.0237.0358.0237.0574v2.726c-.001.0212-.0099.0413-.0249.0563-.015.015-.035.0239-.0562.0249z" fill="#fff"/><path d="M24.039 30.1787h-.0299c-.0099-.0042-.0188-.0103-.0262-.018-.0075-.0076-.0134-.0166-.0174-.0266-.0039-.0099-.0059-.0205-.0058-.0312.0002-.0107.0024-.0212.0066-.031l.2863-.6581.3162.3675c.0076.0075.0137.0165.0178.0264.0042.0099.0063.0206.0063.0313 0 .0107-.0021.0213-.0063.0312-.0041.0099-.0102.0189-.0178.0265-.0155.0132-.0352.0205-.0555.0205-.0204 0-.0401-.0073-.0556-.0205l-.1538-.1752-.1837.4273c-.0094.0121-.0219.0213-.0363.0266-.0144.0053-.0299.0064-.0449.0033z" fill="#fff"/><path d="M15.6215 38.9722l-12.15202-7.016V7.90857L15.6215 14.9203v24.0519z" fill="#E0E0E0"/><path d="M9.23364 14.0786l1.17936.6794v-2.8415l-1.17936-.6836v2.8457z" fill="#F5F5F5"/><path d="M10.413 11.9166l12.1477-7.01607-1.1751-.67938L9.23364 11.2329l1.17936.6837z" fill="#fff"/><path d="M5.94343 27.3714l3.72593 2.1365c.21571.14.39514.3292.52364.552.1285.2229.2024.4729.2156.7298v2.2988c0 .47-.329.6623-.73924.4273l-3.72593-2.1364c-.21627-.1399-.39637-.3289-.52559-.5517-.12922-.2228-.20388-.473-.21789-.7302v-2.2988c.00427-.47.33329-.6623.74348-.4273z" fill="#F5F5F5"/><path d="M5.65308 27.9483l.141.0812v2.5551l-.141-.0854v-2.5509zM6.22974 28.2815l.24355.141v2.5552l-.24355-.1453v-2.5509zM6.80664 28.6105l.14101.0855v2.5509l-.14101-.0812v-2.5552zM7.24243 28.8584l.28201.1709v2.5509l-.28201-.1667v-2.5551zM7.96045 29.2772l.141.0811v2.5552l-.141-.0812v-2.5551zM8.37476 29.5121l.30337.1795v2.5552l-.30337-.1795v-2.5552zM9.11401 29.9437l.14101.0811V32.58l-.14101-.0854v-2.5509zM9.44312 30.1317l.06836.0384v2.5552l-.06836-.0427v-2.5509zM8.84912 29.8027l.07264.0427v2.5552l-.07264-.0428v-2.5551zM7.68677 29.1233l.07264.0427v2.5509l-.07264-.0384v-2.5552zM7.05029 28.7601l.07264.0385v2.5551l-.07264-.0427v-2.5509zM6.59717 28.508l.06836.0385v2.5551l-.06836-.0427V28.508zM5.97778 28.132l.06837.0384v2.5552l-.06837-.0427V28.132zM9.68652 30.2769l.14528.0812v2.5509l-.14528-.0812v-2.5509z" fill="#E0E0E0"/></svg>