<svg width="161" height="273" fill="none" xmlns="http://www.w3.org/2000/svg"><path d="M61.316 41.7411v-9.8884c.0264-.5403.1792-1.0669.4462-1.5374.267-.4705.6407-.8717 1.091-1.1715L107.018 3.67513c.831-.49026 1.554-.0914 1.554.89743v9.89664c0 .9888.698 1.3877 1.554.8974L135.636.617229c.831-.498571 1.554-.099714 1.554.897431V181.773c-.029.54-.185 1.066-.455 1.535-.27.469-.646.869-1.099 1.166L1.55388 261.885c-.830949.499-1.55388.1-1.55388-.897V80.7293c.0263179-.5349.185126-1.0548.462155-1.5132.277029-.4583.663605-.8406 1.124965-1.1126L59.7538 47.807c.8476-.4986 1.5622-5.0771 1.5622-6.0659z" fill="#455A64"/><path d="M11.8243 268.375V104.104c.0529-1.996.6257-3.944 1.6619-5.6507l-7.24594-4.1547c-1.05586 1.7172-1.65115 3.6776-1.72838 5.692V264.187c-.0067.727.1957 1.441.58312 2.057.38743.616.94357 1.107 1.60228 1.416-.68138-.382.12465.083.19944.125.07478.041 5.61728 3.249 6.78058 3.914-.5746-.342-1.0486-.829-1.374-1.413-.3255-.584-.4907-1.243-.479-1.911z" fill="#E0E0E0"/><path d="M154.598 15.5328L17.4913 94.2406c-1.6682 1.0521-3.0454 2.5065-4.0052 4.2295l-7.22926-4.1548c.94127-1.7005 2.30314-3.131 3.95536-4.1547L147.319 11.4445c1.662-.9473 3.075-.9639 4.155-.3324s5.75 3.3238 6.947 3.9553c-1.014-.5152-2.377-.3739-3.823.4654z" fill="#F0F0F0"/><path d="M39.8688 81.5437l-5.1934-6.1324c-.1609-.348-.4249-.6381-.7562-.831-.9972-.59-7.0548-4.055-7.3789-4.2379-.2513-.1467-.5328-.2344-.823-.2564-.2902-.0219-.5817.0224-.8523.1297-.2705.1073-.5132.2747-.7095.4895-.1964.2149-.3413.4716-.4238.7507L17.915 85.7815l7.3623 4.2296 14.5915-8.4674z" fill="#E0E0E0"/><path d="M15.7212 271.873c-.9293 0-1.8208-.368-2.4795-1.023-.6587-.656-1.031-1.546-1.0354-2.475V104.104c.1063-1.908.6604-3.765 1.6175-5.4192.9571-1.6544 2.2903-3.0602 3.8917-4.1035l7.7943-4.4789c.0693-.0443.1242-.1078.1579-.1828l5.8167-14.1262c.0882-.3262.2819-.6141.551-.8186.2692-.2044.5984-.314.9364-.3114.2934-.0012.5809.083.8273.2424.2464.1593.4411.3869.5604.655.0144.0334.034.0642.0582.0914l5.1436 6.0244c.0352.0427.0797.0769.1301.1.0503.023.1053.0343.1607.0329.067.0005.1329-.0167.1911-.0498L154.806 15.8485c.7-.4379 1.502-.687 2.327-.7229.384-.0067.766.0758 1.113.241.159.0655.309.1491.449.2493 1.138.7478 1.23 2.0358 1.23 3.1825V183.053c-.11 1.911-.669 3.77-1.632 5.425-.963 1.654-2.303 3.058-3.911 4.097L26.6233 266.007l-9.2983 5.476c-.4954.257-1.0455.391-1.6038.39z" fill="#FAFAFA"/><path d="M157.133 15.5243c.333-.0042.662.0668.964.2077.128.0565.251.1261.365.2078.831.5733 1.039 1.5123 1.039 2.8501V183.053c-.102 1.842-.637 3.634-1.561 5.23-.924 1.597-2.211 2.954-3.757 3.96L26.4158 265.674l-9.2485 5.451c-.4432.234-.9365.357-1.4376.358-.8273-.003-1.6203-.331-2.2069-.915-.5865-.583-.9192-1.374-.9258-2.202V104.104c.116-1.838.6557-3.624 1.5768-5.2183.9212-1.5943 2.1989-2.9539 3.733-3.9722l7.7944-4.4789c.1434-.0888.2565-.2192.324-.3739l5.8167-14.1262c.0071-.0244.0071-.0504 0-.0748.0653-.2434.2106-.4578.4126-.6086.202-.1507.4489-.2291.7009-.2223.2203-.0032.4365.0591.6214.1789.1849.1198.3301.2918.4173.4941.0278.0648.0673.1239.1163.1745l5.1436 6.0244c.0716.0848.1606.1532.2609.2005.1004.0474.2098.0725.3208.0738.1351.0017.2679-.0358.3822-.1081L154.989 16.1974c.645-.4039 1.383-.6357 2.144-.6731zm0-.7728c-.884.0422-1.743.3112-2.493.7811L39.819 81.4354l-5.1436-6.0244c-.163-.3539-.4298-.6498-.765-.8485-.3353-.1986-.723-.2905-1.1117-.2634-.3887.027-.76.1718-1.0645.4149-.3045.2432-.5278.5732-.6402.9463l-5.8166 14.1262-7.7861 4.4705c-1.6572 1.0817-3.0368 2.5381-4.027 4.2515-.9903 1.7135-1.5635 3.6355-1.6733 5.6115v164.255c.0033.667.178 1.323.5074 1.904.3295.58.8026 1.067 1.3739 1.412.5714.345 1.2219.538 1.8892.56.6673.021 1.3289-.129 1.9215-.436l9.2984-5.476 127.8006-73.423c1.656-1.083 3.034-2.539 4.022-4.253.989-1.713 1.561-3.635 1.67-5.61V18.8149c0-1.2049-.1-2.6425-1.379-3.49-.163-.1129-.335-.2103-.516-.2909-.4-.1881-.837-.2846-1.279-.2825h.033z" fill="#E0E0E0"/><path d="M66.3016 173.248c3.2407-1.87 5.8748-.349 5.8748 3.398-.1113 2.039-.7012 4.023-1.7218 5.791-1.0207 1.769-2.4434 3.272-4.153 4.388-3.249 1.87-5.8831.349-5.8831-3.398.1116-2.04.7025-4.025 1.7246-5.793 1.0222-1.769 2.4469-3.271 4.1585-4.386z" fill="#BA68C8"/><path opacity=".2" d="M145.508 107.046l-59.1305 34.069c-1.7096 1.116-3.1323 2.619-4.1529 4.388-1.0207 1.768-1.6105 3.752-1.7219 5.791 0 3.747 2.6341 5.268 5.8748 3.39L145.5 120.615c1.712-1.114 3.138-2.616 4.16-4.385 1.022-1.769 1.613-3.754 1.723-5.794.008-3.748-2.626-5.268-5.875-3.39zM66.3017 173.248L26.416 196.273c-1.7011 1.121-3.1142 2.626-4.1248 4.395-1.0106 1.768-1.5902 3.75-1.6918 5.784 0 3.748 2.6258 5.26 5.8748 3.391l39.8275-23.018c1.6989-1.122 3.1102-2.629 4.1205-4.397 1.0104-1.768 1.5913-3.748 1.6962-5.782 0-3.747-2.6009-5.268-5.8167-3.398z" fill="#BA68C8"/><path d="M86.3775 141.131c3.249-1.869 5.8832-.357 5.8832 3.391-.1104 2.04-.7007 4.025-1.723 5.794-1.0223 1.768-2.4476 3.271-4.1602 4.385-3.2407 1.878-5.8748.357-5.8748-3.39.1114-2.039.7012-4.023 1.7219-5.792 1.0206-1.768 2.4433-3.271 4.1529-4.388z" fill="#BA68C8"/><path d="M27.2885 164.24c.0003.073-.0168.144-.0499.208-.0251.057-.0654.106-.1163.141l-.2493.142c-.0155.015-.0364.023-.0582.023-.0217 0-.0426-.008-.0581-.023-.019-.02-.0333-.044-.0419-.07-.0086-.025-.0114-.053-.008-.08v-5.144l-.9805 1.712c-.0098.03-.0261.057-.0476.08-.0216.023-.0478.041-.0771.053-.0164.01-.035.015-.054.015-.0189 0-.0376-.005-.054-.015l-.1412-.208c-.012-.026-.0182-.054-.0182-.083 0-.028.0062-.057.0182-.083.0014-.07.0215-.139.0581-.199l1.3046-2.285c.0194-.049.0508-.092.0914-.125l.0997-.067.2493-.141c.0164-.013.037-.021.0582-.021.0212 0 .0418.008.0582.021.018.02.0317.044.0403.07.0086.026.0118.053.0095.08l-.0332 5.999zM46.7328 149.823c.1167-.213.2087-.439.2742-.673.0678-.238.0986-.484.0914-.731.0241-.252-.0405-.505-.1828-.715-.1246-.149-.3241-.149-.5983 0-.135.079-.2558.18-.3573.299-.1004.125-.1842.262-.2493.408-.0699.145-.1228.299-.1578.457-.0416.166-.0748.332-.0998.49-.0093.069-.0289.136-.0581.199-.0243.044-.0585.081-.0997.108l-.2743.158c-.0137.012-.0314.019-.0498.019s-.0362-.007-.0499-.019c-.0153-.04-.0153-.084 0-.124.0031-.256.0365-.509.0997-.757.0637-.286.1585-.565.2826-.831.1156-.263.2635-.512.4404-.739.1689-.212.3743-.392.6066-.532.1744-.117.3796-.181.5899-.183.1595.005.3112.07.4238.183.1264.139.2151.308.2576.49.0632.236.094.479.0914.723v.557c-.0171.177-.0505.352-.0997.523-.051.181-.112.359-.1828.532-.0778.196-.1665.388-.2659.574l-1.3545 2.725 1.8614-1.072c.0155-.015.0364-.024.0581-.024.0218 0 .0427.009.0582.024.0183.019.0322.041.0409.065.0086.025.0117.051.009.076v.341c-.0006.072-.0177.143-.0499.208-.0252.057-.0654.106-.1163.141l-2.6175 1.504c-.0164.014-.037.021-.0582.021-.0212 0-.0418-.007-.0582-.021-.018-.02-.0317-.044-.0403-.069-.0086-.026-.0118-.053-.0095-.08v-.291c-.0087-.064-.0087-.128 0-.191.0282-.084.0643-.165.108-.241l1.7367-3.532zM65.1548 141.048c.0204.087.0511.17.0915.249.0131.039.0339.074.061.104.0272.03.0601.054.0968.071.0952.027.1958.027.2909 0 .1649-.037.3222-.101.4653-.191.1283-.079.2481-.171.3573-.274.1128-.123.213-.257.2992-.399.1826-.322.2772-.686.2742-1.056.0073-.158-.0182-.317-.0748-.465-.0136-.049-.0377-.094-.0707-.133-.033-.039-.0741-.07-.1204-.091-.0969-.034-.2023-.034-.2992 0-.1297.032-.2532.085-.3656.158l-.5069.29c-.0169.013-.0373.019-.0581.019-.0209 0-.0413-.006-.0582-.019-.018-.02-.0318-.043-.0403-.069-.0086-.026-.0119-.053-.0096-.08v-.332c-.0078-.058-.0078-.117 0-.175 0-.058.0499-.108.0665-.158l1.0969-2.443-1.7533 1.006c-.0164.013-.037.02-.0582.02-.0212 0-.0418-.007-.0582-.02-.018-.021-.0317-.044-.0403-.07-.0086-.026-.0118-.053-.0095-.08v-.332c-.0004-.073.0167-.144.0498-.208.0252-.057.0654-.106.1164-.141l2.3931-1.38c.0164-.013.0369-.021.0582-.021.0212 0 .0418.008.0581.021.019.02.0333.044.0419.069.0086.026.0114.054.008.081v.332c.0072.061.0072.122 0 .183-.0213.068-.0462.134-.0748.199l-1.0802 2.402c.171-.097.3608-.157.5567-.175.1549-.005.3071.042.4321.133.1313.118.2264.271.2742.441.0798.235.1164.483.108.731.0006.312-.0414.622-.1246.922-.077.288-.1857.567-.3241.831-.132.244-.2939.47-.4819.673-.1649.193-.3617.356-.5817.482-.214.136-.455.224-.7063.258-.162.026-.3279-.007-.468-.092-.1401-.085-.2452-.218-.2965-.373-.0687-.175-.1026-.361-.0997-.549-.0117-.055-.0117-.111 0-.166.0192-.049.0543-.09.0997-.116l.2742-.158h.1081c.037.02.0662.052.083.091zM86.5437 130.279c-.0164.014-.0369.021-.0582.021-.0212 0-.0417-.007-.0581-.021-.0181-.02-.0318-.044-.0404-.07-.0085-.025-.0118-.052-.0095-.079v-1.272l-1.9029 1.097c-.0163.014-.0369.021-.0581.021-.0213 0-.0418-.007-.0582-.021-.0185-.02-.0325-.044-.0411-.069-.0086-.026-.0116-.053-.0088-.081v-.332c-.0063-.055-.0063-.111 0-.166.0147-.069.037-.136.0665-.2l1.9112-4.985c.0311-.077.0672-.152.108-.225.031-.056.0771-.102.133-.133l.241-.141c.0163-.013.0369-.021.0581-.021.0213 0 .0418.008.0582.021.0189.02.0333.043.0419.069.0086.026.0113.054.008.081v3.905l.5235-.307c.015-.013.0342-.02.054-.02.0198 0 .0389.007.054.02.018.02.0318.044.0403.069.0086.026.0118.053.0095.08v.341c-.0016.072-.0186.143-.0498.208-.0225.056-.0599.105-.108.141l-.5235.299v1.288c-.0006.072-.0177.143-.0499.208-.0252.057-.0654.106-.1163.141l-.2244.133zm-.1662-2.285v-2.634l-1.3129 3.39 1.3129-.756zM104.858 118.056c.009.105.046.207.107.293.062.086.145.154.242.197.103.035.213.044.32.027.107-.018.208-.061.295-.127.139-.079.265-.18.374-.299.123-.125.227-.267.307-.424.093-.173.163-.357.208-.548.051-.209.076-.424.075-.64.006-.185-.02-.371-.075-.548-.036-.122-.109-.229-.208-.308-.086-.077-.199-.119-.316-.116-.131.021-.258.066-.374.133-.134.08-.257.178-.365.291-.082.094-.157.194-.225.299l-.157.258c-.037.07-.092.13-.158.174l-.316.183c-.013.01-.029.015-.046.015-.016 0-.032-.005-.045-.015-.016-.04-.016-.085 0-.125l.182-3.224c.002-.072.019-.143.05-.208.025-.056.066-.105.117-.141l2.143-1.23c.017-.013.037-.021.059-.021.021 0 .041.008.058.021.016.021.029.045.036.071.007.026.009.052.005.079v.341c.002.071-.012.142-.041.207-.025.057-.066.106-.117.142l-1.77 1.013-.091 1.662c.081-.111.173-.214.274-.307.139-.125.289-.237.449-.333.18-.113.386-.179.598-.191.177-.011.351.042.491.15.155.131.271.304.332.498.088.268.13.549.125.831.001.334-.041.666-.125.989-.077.308-.188.607-.332.889-.133.258-.297.499-.491.715-.174.194-.376.362-.598.499-.177.109-.375.177-.582.199-.17.028-.346-.003-.496-.088-.151-.084-.269-.217-.335-.377-.097-.202-.145-.424-.141-.649-.01-.054-.01-.111 0-.166.019-.049.054-.09.1-.116l.274-.158c.014-.008.03-.012.046-.012s.032.004.045.012c.019.005.037.013.053.025.015.012.027.028.036.045.009.017.014.037.014.056 0 .02-.003.039-.011.057zM125.482 103.439l.108-.091c.034-.034.073-.062.116-.083.187-.119.402-.185.624-.191.183.002.36.07.498.191.153.142.265.323.324.523.089.268.131.549.125.831-.001.323-.043.644-.125.956-.072.313-.181.617-.324.906-.136.272-.304.529-.498.764-.177.21-.388.39-.624.532-.19.118-.407.184-.631.191-.184-.003-.36-.07-.499-.191-.152-.143-.264-.323-.324-.524-.088-.268-.13-.549-.124-.831-.013-.174-.013-.349 0-.523.026-.168.062-.335.108-.499.037-.16.084-.319.141-.473.05-.158.1-.308.158-.449l1.105-3.141.066-.158c.022-.059.063-.109.117-.141l.349-.2c.013-.01.029-.015.046-.015.016 0 .032.005.045.015.011.044.011.09 0 .133.005.025.005.05 0 .075.005.019.005.039 0 .058l-.781 2.335zm-.773 2.651c-.001.166.021.331.067.49.04.127.109.243.199.341.088.078.199.125.316.133.147-.004.29-.047.415-.125.158-.095.298-.216.416-.357.12-.152.223-.316.307-.49.083-.183.15-.372.2-.565.046-.188.068-.381.066-.574.006-.166-.016-.332-.066-.49-.041-.127-.109-.243-.2-.341-.084-.077-.193-.124-.307-.133-.147.006-.29.049-.416.125-.16.091-.301.212-.415.357-.127.152-.233.319-.316.499-.083.179-.15.365-.199.557-.042.188-.064.38-.067.573zM146.754 88.9725c.007-.0073.016-.0131.025-.017.009-.004.019-.006.029-.006.01 0 .02.002.03.006.009.0039.017.0097.024.017.018.0203.032.044.041.0697.008.0257.011.0529.009.0799v.3324c.004.0636.004.1274 0 .1911-.009.0762-.026.1513-.05.2244l-1.346 6.1324c-.014.0662-.036.1303-.066.1911-.02.0557-.058.1028-.108.133l-.283.1661c-.014.0108-.032.0167-.05.0167-.018 0-.035-.0059-.05-.0167-.03-.0375-.045-.0849-.041-.1329v-.0499c-.002-.0248-.002-.0499 0-.0748l1.354-6.1407-1.994 1.1467c-.016.0135-.037.0209-.058.0209-.021 0-.042-.0074-.058-.0209-.03-.0441-.044-.0965-.042-.1495v-.3407c.002-.0685.016-.136.042-.1995.022-.0583.063-.1079.116-.1412l2.476-1.4376zM24.9368 184.748c.0021-.33.0524-.657.1495-.972.1051-.327.2502-.64.4321-.931-.1581-.093-.2808-.236-.349-.407-.0895-.222-.132-.459-.1246-.698.0044-.261.0407-.521.108-.773.0736-.261.1739-.515.2992-.756.1245-.23.272-.448.4404-.648.1616-.185.3525-.342.565-.465.1668-.108.3585-.171.5567-.183.1601-.006.3175.041.4488.133.1409.103.2456.249.2991.415.0775.207.1142.427.108.648-.0018.282-.0466.563-.1329.831-.0781.292-.1955.571-.349.831.1937.084.3482.239.4321.432.1146.247.1687.518.1579.79.0011.28-.0352.56-.1081.831-.0737.288-.1797.566-.3157.831-.1345.249-.2961.483-.482.698-.1765.2-.3841.372-.6149.506-.1837.12-.3959.189-.6149.2-.1722.01-.3427-.039-.482-.141-.1458-.113-.2556-.266-.3157-.441-.0833-.234-.12-.483-.108-.731zm.5733-.332c-.0025.133.0201.265.0665.39.0408.099.1103.183.1994.241.0877.052.1894.075.2909.067.1386-.014.2723-.06.3905-.133.1403-.086.2688-.189.3822-.308.1144-.127.2147-.266.2992-.415.0841-.146.1484-.303.1911-.466.0492-.153.0744-.312.0748-.473.0032-.134-.0223-.267-.0748-.391-.0351-.099-.1024-.184-.1911-.241-.0903-.053-.1949-.076-.2992-.066-.1354.016-.2657.062-.3822.133-.1446.086-.2761.192-.3905.315-.1108.126-.2083.262-.2909.408-.0833.147-.1502.303-.1994.465-.0424.154-.0648.314-.0665.474zm.1164-3.008c-.0053.12.0175.239.0664.349.0321.087.0939.161.1745.207.0763.05.1676.07.2576.058.1183-.006.2329-.043.3324-.108.1221-.073.2338-.163.3324-.265.0986-.115.1875-.237.2659-.366.0736-.132.1321-.271.1745-.416.0411-.137.0635-.28.0665-.423.0019-.123-.0207-.244-.0665-.358-.0349-.086-.0959-.158-.1745-.207-.0823-.042-.1738-.062-.2659-.059-.1178.015-.2312.055-.3324.117-.122.073-.2338.163-.3324.266-.0997.111-.1862.234-.2576.365-.0767.13-.1354.27-.1745.416-.0463.136-.0688.28-.0664.424zM46.4503 171.943l-.0831.058-.0831.05c-.1699.108-.3643.171-.5651.183-.1721.01-.3424-.04-.4819-.141-.1587-.131-.2769-.304-.3407-.499-.095-.266-.1401-.548-.133-.831.0018-.319.0409-.637.1164-.947.0781-.308.1895-.606.3323-.889.1321-.266.2968-.515.4903-.74.16-.204.3574-.376.5817-.507.1883-.123.4067-.192.6315-.199.1779-.002.3501.063.4819.183.1447.146.2504.326.3075.523.0731.271.1067.551.0997.831-.0021.167-.016.334-.0415.499 0 .182-.0748.357-.1247.531-.0498.175-.0997.358-.1579.524l-.1578.465-1.1052 3.141-.0665.158c-.0247.06-.0686.109-.1246.141l-.3407.2h-.0914c-.0106-.044-.0106-.089 0-.133v-.133l.8559-2.468zm.7811-2.642c.0016-.169-.0207-.337-.0665-.499-.0384-.123-.107-.234-.1995-.324-.0823-.073-.1893-.111-.2991-.108-.1356.003-.2677.043-.3822.116-.1441.087-.2732.196-.3823.324-.1186.139-.2191.293-.2991.457-.0871.174-.1514.358-.1911.549-.0494.19-.0745.385-.0748.581-.0041.172.0212.344.0748.507.0342.121.1002.23.1911.316.0831.072.1889.114.2991.116.1363-.006.2683-.049.3823-.124.1477-.082.2777-.192.3822-.324.1186-.139.2191-.293.2991-.457.1788-.35.2701-.738.266-1.13zM65.0468 163.193c-.0006.072-.0176.143-.0499.208-.0225.058-.0633.108-.1163.141l-.241.141h-.1163c-.018-.02-.0318-.044-.0403-.069-.0086-.026-.0118-.053-.0095-.08v-5.144l-.9889 1.712c0 .075-.0748.116-.1163.125-.0151.012-.0342.02-.054.02-.0198 0-.039-.008-.054-.02l-.1496-.208c-.019-.054-.019-.113 0-.166.0057-.074.0285-.145.0665-.208l1.2963-2.277c.0246-.048.0585-.09.0997-.125l.0664-.133.241-.141h.1163c.0181.02.0318.044.0404.07.0086.026.0118.053.0095.08v6.074zM68.9688 157.111v1.578c-.0077.36-.041.718-.0997 1.072-.0604.336-.155.665-.2825.981-.1163.299-.2759.579-.4736.831-.1934.238-.4268.44-.6897.598-.2036.137-.4447.206-.6897.2-.0944-.009-.1861-.037-.269-.083-.083-.045-.1555-.108-.213-.183-.1412-.195-.2351-.42-.2742-.657-.0694-.314-.1056-.634-.108-.955v-1.579c.0063-.36.0424-.718.108-1.072.0549-.336.1469-.665.2742-.981.1238-.296.2858-.576.482-.831.1911-.24.4249-.443.6897-.598.2036-.136.4453-.202.6897-.191.0932.008.1836.037.2652.082.0816.046.1526.109.2084.184.1391.197.2353.42.2825.656.0613.313.0947.63.0997.948zm-2.4928 3.041c-.0403.403.05.808.2576 1.155.1662.183.4071.191.7229 0 .3213-.193.5718-.484.7146-.831.1817-.463.2693-.957.2576-1.454v-.831-.781c.0409-.406-.0494-.813-.2576-1.164-.1662-.191-.3988-.191-.7146 0-.3255.191-.5795.483-.7229.831-.1817.466-.2693.963-.2576 1.463v.789c0 .25-.0333.557-.0333.84l.0333-.017z" fill="#455A64"/><path d="M85.5384 151.36c-.0006.073-.0176.144-.0498.208-.0226.059-.0634.108-.1164.141l-.2493.142c-.0163.013-.0369.021-.0581.021-.0212 0-.0418-.008-.0582-.021-.0189-.02-.0332-.044-.0419-.069-.0086-.026-.0113-.054-.008-.081v-5.143l-.9805 1.711c-.0198.058-.0616.106-.1163.133-.0177.011-.0378.016-.0582.016s-.0404-.005-.0581-.016l-.1413-.207c-.0114-.027-.0173-.055-.0173-.084 0-.028.0059-.056.0173-.083.0057-.073.0285-.144.0665-.207l1.2963-2.277c.0247-.048.0585-.09.0997-.125l.0914-.066.2493-.142h.1163c.018.021.0318.044.0403.07.0086.026.0119.053.0096.08l-.0333 5.999zM88.0893 149.89c-.0018.068-.0159.136-.0415.199-.0226.059-.0634.108-.1164.141l-.2492.15c-.017.012-.0373.019-.0582.019-.0209 0-.0412-.007-.0582-.019-.018-.02-.0317-.044-.0403-.07-.0086-.025-.0118-.053-.0095-.08v-5.152l-.9805 1.721c-.0277.053-.0713.097-.1247.124-.0157.012-.0346.018-.054.018s-.0383-.006-.054-.018l-.1496-.199c-.0151-.057-.0151-.118 0-.175.0107-.069.0332-.137.0665-.199l1.2963-2.285c.0244-.046.0584-.085.0997-.117l.0997-.066.2493-.15c.0169-.012.0373-.018.0582-.018.0208 0 .0412.006.0581.018.0294.045.044.097.0416.15l-.0333 6.008z" fill="#FAFAFA"/><path d="M104.891 140.192c0 .073-.017.144-.05.208-.022.058-.063.108-.116.141l-.249.142c-.007.007-.016.013-.025.017-.009.004-.019.006-.029.006-.011 0-.021-.002-.03-.006-.009-.004-.017-.01-.024-.017-.019-.02-.034-.044-.042-.07-.009-.025-.012-.053-.008-.08v-5.144l-.989 1.712c-.02.058-.062.106-.116.133-.017.01-.035.016-.054.016-.02 0-.038-.006-.055-.016l-.149-.208c-.019-.053-.019-.112 0-.166.006-.073.028-.144.066-.208l1.297-2.276c.024-.048.058-.09.099-.125l.092-.067.249-.141h.116c.018.02.032.044.041.07.008.026.012.053.009.08l-.033 5.999zM107.542 135.506c.114-.215.205-.44.274-.673.064-.242.094-.49.091-.74.02-.253-.048-.505-.191-.714-.125-.15-.324-.142-.59 0-.14.079-.263.183-.365.307-.1.122-.183.256-.25.399-.066.15-.119.306-.158.465 0 .158-.066.324-.091.49-.007.069-.03.134-.067.192-.016.045-.049.083-.091.108l-.274.166c-.015.011-.032.016-.05.016-.018 0-.035-.005-.05-.016-.014-.038-.014-.079 0-.117.01-.257.046-.514.108-.764.066-.285.158-.563.274-.831.122-.26.273-.505.449-.731.164-.219.371-.402.607-.54.176-.114.38-.178.59-.183.16.007.312.076.423.191.125.137.214.302.258.482.06.236.088.479.083.723v.565c-.024.173-.058.345-.1.515-.051.181-.112.358-.182.532-.075.174-.158.374-.266.573l-1.355 2.726 1.862-1.072c.016-.014.037-.021.058-.021.021 0 .042.007.058.021.029.044.044.096.041.149v.333c-.001.071-.015.141-.041.208-.025.056-.065.105-.116.141l-2.618 1.512c-.016.014-.037.021-.058.021-.021 0-.042-.007-.058-.021-.018-.02-.032-.044-.041-.07-.008-.025-.011-.052-.009-.079v-.341c-.013-.063-.013-.128 0-.191.025-.084.058-.165.1-.241l1.745-3.49zM124.693 128.759c-.003.071-.017.141-.042.207-.025.057-.065.106-.116.142l-.25.141h-.116c-.018-.02-.032-.044-.04-.07-.009-.026-.012-.053-.01-.08v-5.143l-.98 1.711c-.045.078-.086.12-.125.125-.016.012-.034.018-.054.018-.019 0-.038-.006-.054-.018l-.149-.208c-.015-.054-.015-.111 0-.166.009-.073.031-.143.066-.208l1.296-2.285c.027-.044.061-.083.1-.116l.1-.067.249-.141c.016-.013.037-.021.058-.021.021 0 .042.008.058.021.032.043.047.097.042.15l-.033 6.008zM125.964 126.698c.018.086.046.17.083.249.032.077.092.139.166.175.095.027.196.027.291 0 .163-.036.318-.101.457-.191.135-.077.258-.172.366-.283.114-.116.212-.248.291-.391.091-.15.16-.312.207-.482.052-.186.077-.379.075-.573.007-.158-.018-.317-.075-.465-.016-.049-.043-.094-.077-.132-.034-.039-.076-.07-.122-.093-.095-.03-.196-.03-.291 0-.13.04-.255.093-.374.158l-.498.291c-.016.015-.037.024-.059.024-.021 0-.042-.009-.058-.024-.018-.018-.032-.04-.041-.065-.008-.024-.011-.05-.009-.076v-.341c-.011-.057-.011-.117 0-.174 0-.058 0-.117.067-.166l1.088-2.435-1.745 1.005c-.016.014-.037.021-.058.021-.021 0-.042-.007-.058-.021-.018-.02-.032-.044-.04-.069-.009-.026-.012-.053-.01-.08v-.349c.001-.07.018-.138.05-.2.023-.058.063-.108.116-.141l2.394-1.379c.016-.014.037-.021.058-.021.021 0 .042.007.058.021.018.048.018.101 0 .149v.333c.007.06.007.122 0 .182-.024.068-.052.135-.083.2l-1.072 2.401c.17-.098.36-.158.557-.174.155-.008.308.039.432.133.13.118.225.271.274.44.073.237.106.484.1.731-.001.311-.04.621-.117.923-.077.288-.185.567-.324.831-.134.242-.296.467-.482.673-.172.188-.371.35-.59.482-.21.137-.449.225-.698.257-.167.024-.337-.011-.482-.099-.13-.092-.23-.219-.29-.366-.061-.177-.094-.362-.1-.548-.012-.055-.012-.112 0-.167.016-.048.048-.089.091-.116l.283-.158h.108c.029.006.056.018.081.035.024.017.045.039.06.065zM144.494 117.324c0 .073-.017.144-.05.208-.025.057-.065.106-.116.141l-.249.142c-.017.013-.037.021-.058.021-.022 0-.042-.008-.059-.021-.019-.048-.019-.102 0-.15v-5.143l-.988 1.711c0 .075-.075.117-.117.125-.017.012-.037.019-.058.019-.021 0-.041-.007-.058-.019l-.141-.208c-.019-.054-.019-.112 0-.166.005-.073.028-.145.066-.208l1.296-2.276c.025-.048.059-.091.1-.125l.092-.067.249-.141c.016-.013.037-.021.058-.021.021 0 .042.008.058.021.018.02.032.044.041.07.008.025.011.053.009.08l-.075 6.007zM147.353 115.929h-.117c-.018-.021-.031-.044-.04-.07-.008-.026-.012-.053-.009-.08v-1.296l-1.903 1.08h-.117c-.018-.02-.031-.044-.04-.07-.008-.025-.012-.053-.009-.08v-.332c-.007-.055-.007-.111 0-.166.033-.066.075-.128.124-.183l1.92-4.986c.026-.079.062-.154.108-.224.031-.058.076-.107.133-.141l.241-.133c.016-.014.037-.021.058-.021.021 0 .042.007.058.021.036.041.054.095.05.149v3.897l.515-.299c.017-.012.037-.018.058-.018.021 0 .041.006.058.018.018.021.032.044.041.07.008.026.012.053.009.08v.341c0 .069-.017.137-.05.199-.02.06-.061.11-.116.141l-.515.308v1.288c-.006.071-.023.141-.05.207-.025.057-.065.106-.116.142l-.291.158zm-.166-2.286v-2.634l-1.313 3.391 1.313-.757zM25.4853 206.793c-.0006.07-.0177.138-.0498.2-.0226.058-.0634.108-.1164.141l-.2493.15c-.0163.013-.0369.02-.0581.02-.0213 0-.0418-.007-.0582-.02-.018-.021-.0318-.044-.0403-.07-.0086-.026-.0118-.053-.0096-.08v-5.152l-.9805 1.712c-.0113.028-.0281.053-.0495.075-.0215.021-.047.038-.0751.049-.0157.012-.0346.018-.054.018s-.0384-.006-.054-.018l-.1413-.199c-.0226-.056-.0226-.118 0-.174.0038-.071.0237-.139.0582-.2l1.3046-2.285c.0218-.045.0529-.085.0914-.116l.0997-.067.2493-.149c.0169-.013.0373-.019.0581-.019.0209 0 .0413.006.0582.019.018.02.0318.044.0403.069.0086.026.0118.053.0096.08l-.0333 6.016zM26.7648 204.599c.0074.106.0429.208.1028.296.0599.087.142.158.2379.203.1047.031.215.038.3229.021.1078-.017.2104-.059.3003-.121.1393-.08.2655-.18.3739-.299.1228-.128.2263-.274.3074-.432.0905-.171.1603-.352.2078-.54.0508-.21.076-.424.0748-.64.0059-.186-.0194-.371-.0748-.548-.0391-.12-.1111-.227-.2078-.308-.0908-.059-.1994-.086-.3074-.075-.1328.017-.2604.062-.3739.133-.138.075-.2618.174-.3656.291-.0814.095-.1564.195-.2244.299l-.1579.258c-.0373.073-.0951.134-.1662.174l-.3074.175c-.0124.012-.0287.018-.0457.018-.017 0-.0334-.006-.0457-.018-.0296-.035-.0445-.079-.0416-.125l.1828-3.224c.0006-.072.0177-.143.0499-.208.0225-.058.0633-.107.1163-.141l2.1356-1.238h.1163c.018.02.0318.044.0403.07.0086.025.0118.053.0096.08v.34c-.0007.07-.0178.138-.0499.2-.0202.059-.0616.11-.1163.141l-1.7616 1.022-.0998 1.662c.0889-.107.1831-.21.2826-.307.135-.127.2858-.236.4487-.325.1813-.111.3861-.18.5983-.199.1761-.011.3502.042.4902.15.1543.136.2691.311.3324.506.0817.27.1209.55.1163.831-.0003.333-.0393.665-.1163.989-.0771.306-.1886.601-.3324.881-.1331.26-.2977.503-.4902.723-.1727.194-.3746.359-.5983.49-.1792.105-.3765.176-.5817.208-.1663.023-.3357-.009-.4819-.091-.1497-.087-.2688-.217-.3407-.374-.0873-.205-.1326-.426-.133-.648.0019-.058.0161-.115.0416-.167.0192-.046.0508-.086.0914-.116l.2825-.158c.0131-.01.0292-.015.0457-.015.0165 0 .0326.005.0457.015 0 0 .0498.083.0665.141zM45.3117 195.335c-.0006.069-.0177.137-.0498.199-.0204.057-.0582.107-.108.141l-.2493.15h-.1164c-.018-.02-.0317-.044-.0403-.07-.0086-.026-.0118-.053-.0095-.08v-5.152l-.9805 1.72c-.0277.054-.0712.097-.1247.125-.0157.011-.0346.018-.054.018s-.0383-.007-.054-.018l-.1496-.199c-.0151-.058-.0151-.118 0-.175.0107-.07.0332-.137.0665-.199l1.2547-2.277c.0245-.046.0585-.085.0997-.116l.0998-.067.2492-.15c.0151-.012.0342-.019.0541-.019.0198 0 .0389.007.054.019.018.021.0317.044.0403.07.0086.026.0118.053.0095.08l.0083 6zM47.3891 190.033c.0324-.035.0687-.065.108-.091.0312-.034.0677-.062.1081-.084.1895-.119.4076-.185.6315-.191.1836.003.3604.071.4986.191.1498.145.2612.325.324.524.0855.268.1248.549.1164.831.0018.322-.0373.643-.1164.955-.0766.313-.1852.616-.324.906-.1368.273-.3041.53-.4986.765-.1795.211-.3929.391-.6315.532-.1866.119-.402.185-.6233.191-.1836-.003-.3603-.071-.4985-.191-.1526-.145-.2668-.325-.3324-.524-.082-.269-.1212-.55-.1163-.831-.0131-.174-.0131-.349 0-.523.0236-.168.0569-.335.0997-.499.0415-.166.0914-.324.1412-.474l.1579-.448 1.1052-3.141c.0251-.052.0473-.104.0665-.158.0247-.06.0685-.11.1246-.142l.349-.199c.0118-.009.0264-.015.0415-.015.0152 0 .0298.006.0416.015.0146.043.0146.09 0 .133.004.025.004.05 0 .075.0011.019.0011.039 0 .058l-.7728 2.335zm-.7728 2.651c-.0058.166.0167.331.0665.49.034.13.103.248.1994.341.0841.078.1927.125.3075.133.1468-.006.2897-.049.4155-.125.1587-.093.2995-.214.4154-.357.1272-.152.2334-.319.3158-.499.0837-.179.1505-.365.1994-.557.0417-.188.064-.38.0665-.573.0018-.166-.0206-.331-.0665-.49-.0406-.127-.1087-.243-.1994-.341-.085-.082-.1976-.13-.3158-.133-.1466.007-.2892.05-.4154.125-.1573.095-.2977.216-.4155.357-.1226.15-.2259.315-.3075.49-.0897.18-.1567.369-.1994.565-.0457.188-.068.381-.0665.574z" fill="#455A64"/><path d="M65.4126 183.743c-.0007.069-.0178.137-.0499.199-.0226.058-.0634.108-.1163.141l-.2493.15c-.017.012-.0373.019-.0582.019-.0208 0-.0412-.007-.0581-.019-.0181-.02-.0318-.044-.0404-.07-.0086-.026-.0118-.053-.0095-.08v-5.152l-.9805 1.72c-.0113.028-.0282.054-.0496.075-.0214.022-.047.039-.0751.05-.0164.009-.035.014-.054.014-.0189 0-.0376-.005-.054-.014l-.1412-.199c-.0227-.056-.0227-.119 0-.175.0025-.07.0225-.139.0581-.199l1.2714-2.319c.0214-.047.0526-.09.0914-.124l.0997-.059.2493-.149c.0169-.012.0373-.019.0581-.019.0209 0 .0413.007.0582.019.018.02.0318.044.0403.07.0086.025.0119.052.0096.079v6.042zM68.6531 175.574c.0169-.012.0373-.018.0582-.018.0208 0 .0412.006.0581.018.0181.021.0318.044.0404.07.0085.026.0118.053.0095.08v.341c.0037.061.0037.122 0 .182l-.0499.225-1.3461 6.132c-.0171.066-.0394.13-.0665.191-.0198.056-.0579.103-.108.133l-.2825.167c-.0137.012-.0315.019-.0499.019s-.0361-.007-.0499-.019V182.92c-.0016-.028-.0016-.055 0-.083l1.3545-6.141-1.9943 1.147c-.0164.013-.0369.021-.0582.021-.0212 0-.0417-.008-.0581-.021-.0181-.02-.0318-.044-.0404-.07-.0085-.025-.0118-.053-.0095-.08v-.332c-.0003-.072.0168-.144.0499-.208.0252-.057.0654-.105.1163-.141l2.4264-1.438z" fill="#FAFAFA"/><path d="M84.9648 172.45c-.0006.069-.0177.138-.0499.199-.0225.059-.0633.108-.1163.142l-.2493.149c-.0169.012-.0373.019-.0581.019-.0209 0-.0412-.007-.0582-.019-.018-.02-.0318-.044-.0403-.069-.0086-.026-.0119-.053-.0096-.08v-5.152l-.9805 1.72c-.0223.054-.0636.099-.1163.125-.017.012-.0373.018-.0582.018-.0209 0-.0412-.006-.0581-.018l-.1413-.208c-.0197-.054-.0197-.113 0-.166.0057-.071.0285-.14.0665-.2l1.2963-2.285c.0244-.046.0584-.085.0997-.116.0245-.03.0559-.052.0914-.067l.2493-.149c.0169-.013.0373-.019.0581-.019.0209 0 .0412.006.0582.019.018.02.0318.044.0403.069.0086.026.0118.053.0095.08l-.0332 6.008zM85.7376 170.406c.0009-.331.0542-.659.1579-.972.1013-.326.2466-.637.4321-.923-.1582-.093-.2809-.236-.349-.407-.0896-.224-.132-.465-.1247-.706.0003-.262.0367-.522.108-.773.1357-.519.3887-.999.7396-1.404.162-.185.3528-.342.565-.466.168-.105.3591-.168.5568-.183.16-.005.3175.042.4487.133.1386.106.2428.251.2991.416.0737.208.1102.427.1081.648-.0012.282-.0461.563-.133.831-.0804.291-.1977.57-.349.831.1922.082.3465.233.4321.424.1196.26.1739.545.1579.831-.0011.281-.0402.56-.1164.831-.0698.289-.1759.568-.3157.831-.1285.253-.2906.488-.482.698-.1713.202-.3766.374-.6066.506-.1837.12-.3959.189-.6149.2-.1723.012-.3433-.038-.4819-.141-.1464-.109-.2565-.26-.3158-.432-.0907-.248-.1302-.51-.1163-.773zm.5816-.333c-.0065.137.0162.273.0665.399.0378.096.1046.177.1911.233.0889.056.1948.08.2992.066.1387-.013.2723-.059.3905-.133.142-.083.2708-.186.3823-.307.1162-.126.2166-.265.2991-.416.0841-.143.1484-.296.1911-.457.0477-.153.0729-.313.0748-.473.0042-.137-.0213-.273-.0748-.399-.0364-.098-.1046-.18-.1934-.234-.0889-.055-.1934-.077-.2968-.065-.1364.012-.2678.058-.3823.133-.1443.083-.2759.186-.3905.307-.1142.125-.2145.261-.2992.407-.0792.149-.1432.305-.1911.466-.0448.148-.0672.302-.0665.457v.016zm.1164-3.008c-.0044.119.0154.238.0582.349.0343.089.0953.164.1744.216.0824.042.1738.062.266.059.1183-.013.2321-.053.3323-.117.1228-.069.2324-.159.3241-.266.1057-.11.1978-.233.2742-.365.075-.131.1336-.271.1745-.416.0397-.138.0593-.28.0582-.424.0044-.119-.0154-.237-.0582-.349-.0343-.088-.0953-.163-.1745-.216-.0845-.043-.1799-.06-.2742-.05-.1154.008-.227.046-.3241.109-.125.069-.2374.159-.3323.265-.1005.113-.1896.236-.266.366-.075.131-.1336.27-.1744.416-.0408.143-.0604.291-.0582.44v-.017zM104.9 160.941c-.001.072-.018.143-.05.208-.023.058-.064.108-.117.141l-.241.142h-.116c-.018-.02-.032-.044-.041-.07-.009-.026-.012-.053-.009-.08v-5.144l-.98 1.712c-.025.057-.069.104-.125.133-.016.01-.035.016-.054.016-.019 0-.038-.006-.054-.016l-.15-.208c-.019-.053-.019-.112 0-.166.01-.073.032-.143.067-.208l1.296-2.276c.025-.048.059-.09.1-.125l.1-.067.241-.141h.116c.018.02.032.044.04.07.009.026.012.053.01.08l-.033 5.999zM107.259 157.593l-.091.066-.075.05c-.171.104-.365.164-.565.174-.176.018-.351-.033-.49-.141-.156-.13-.274-.299-.341-.49-.09-.268-.135-.549-.133-.831.001-.32.042-.638.125-.947.079-.307.191-.605.332-.889.132-.264.294-.512.482-.74.167-.201.366-.372.59-.507.19-.12.407-.189.632-.199.178.001.35.069.481.191.147.14.251.318.3.515.079.27.116.55.108.831-.002.167-.019.334-.05.499 0 .174-.075.349-.117.531-.041.183-.108.349-.157.524-.05.174-.108.324-.158.457l-1.114 3.091c0 .05 0 .1-.066.158-.025.059-.069.109-.125.141l-.341.2c-.012.011-.028.018-.045.018-.017 0-.034-.007-.046-.018-.015-.041-.015-.085 0-.125-.004-.028-.004-.056 0-.083v-.058l.864-2.418zm.781-2.635c.004-.172-.021-.343-.074-.506-.033-.124-.099-.236-.192-.324-.084-.07-.19-.108-.299-.109-.135.008-.266.048-.382.117-.147.086-.279.196-.391.324-.111.143-.208.296-.29.457-.084.176-.151.36-.2.548-.042.191-.064.386-.066.582-.003.171.019.342.066.507.039.12.107.229.2.316.079.073.182.115.29.116.138-.006.272-.046.391-.116.143-.089.271-.198.382-.324.119-.142.219-.299.299-.466.086-.171.15-.353.192-.54.049-.19.075-.385.074-.582zM124.186 146.616c.115-.211.207-.434.274-.665.064-.241.094-.49.091-.74.02-.253-.048-.505-.191-.714-.124-.15-.324-.142-.59 0-.139.079-.263.183-.365.307-.102.121-.186.255-.25.399-.066.15-.119.306-.158.465 0 .158-.066.324-.091.491-.008.067-.031.133-.066.191-.017.045-.05.084-.092.108l-.282.166c-.014.01-.03.016-.046.016-.017 0-.033-.006-.046-.016-.015-.04-.015-.085 0-.125.01-.255.047-.508.108-.756.062-.286.154-.564.274-.831.122-.26.273-.505.449-.731.162-.22.369-.404.607-.54.175-.115.38-.178.59-.183.158.008.309.073.423.183.124.141.212.309.258.49.06.236.088.479.083.723v.565c0 .175-.058.341-.1.515-.051.181-.112.358-.182.532-.075.175-.158.366-.266.573l-1.355 2.726 1.853-1.072h.117c.018.02.031.044.04.07.009.025.012.053.01.08v.332c-.001.072-.018.143-.05.208-.023.058-.064.108-.117.141l-2.609 1.512h-.116c-.018-.02-.032-.044-.041-.069-.008-.026-.011-.053-.009-.08v-.341c-.013-.063-.013-.128 0-.191.025-.084.058-.164.1-.241l1.745-3.498zM128.989 143.234v1.579c-.008.359-.041.717-.1 1.072-.062.335-.156.663-.283.98-.124.297-.286.576-.481.831-.188.242-.422.442-.69.59-.2.138-.438.211-.682.208-.094-.009-.185-.037-.268-.083-.083-.046-.156-.108-.213-.183-.14-.197-.236-.42-.283-.657-.062-.315-.095-.634-.1-.955v-.79-.831c.008-.359.041-.717.1-1.072.06-.335.155-.664.283-.98.118-.299.28-.58.481-.831.189-.239.42-.442.682-.598.204-.136.445-.205.69-.2.19.026.362.124.481.275.141.195.238.419.283.656.064.326.098.657.1.989zm-2.493 3.033c-.04.405.05.812.257 1.163.167.183.399.183.715 0 .325-.191.579-.483.723-.831.182-.466.269-.963.258-1.462v-.831-.79c.038-.405-.052-.812-.258-1.163-.166-.183-.407-.191-.723 0-.321.193-.572.484-.715.831-.18.466-.268.963-.257 1.462v.831c0 .283-.042.516-.033.831l.033-.041zM144.677 134.791c.107-.218.199-.442.274-.673.064-.241.095-.49.092-.739.019-.253-.048-.506-.191-.715-.125-.15-.324-.141-.599 0-.137.079-.258.184-.357.307-.102.121-.186.255-.249.399-.067.15-.119.306-.158.466-.039.161-.07.325-.092.49-.01.067-.033.132-.066.191-.019.044-.051.082-.091.108l-.283.166c-.013.01-.029.016-.046.016-.016 0-.032-.006-.045-.016-.03-.034-.045-.079-.042-.124.01-.256.047-.509.108-.757.058-.286.15-.565.274-.831.122-.259.273-.505.449-.731.161-.218.365-.402.598-.54.177-.113.381-.176.59-.183.08.002.159.02.231.053.073.033.139.08.193.138.126.136.215.302.258.482.063.236.094.479.091.723.013.188.013.377 0 .565-.016.175-.05.347-.1.515-.044.182-.102.36-.174.532-.075.175-.166.374-.266.574l-1.388 2.792 1.853-1.072h.117c.018.02.031.044.04.069.009.026.012.053.009.08v.333c.001.072-.016.143-.049.207-.023.059-.064.108-.117.142l-2.609 1.512h-.116c-.018-.02-.032-.044-.041-.07-.008-.025-.011-.053-.009-.08v-.34c-.009-.064-.009-.128 0-.191.032-.083.068-.163.108-.241l1.803-3.557zM148.109 135.988c0 .072-.017.143-.05.208-.023.058-.063.108-.116.141l-.25.141c-.007.007-.015.013-.024.017-.01.004-.02.006-.03.006-.01 0-.02-.002-.029-.006-.009-.004-.018-.01-.025-.017-.019-.019-.033-.043-.042-.069-.008-.026-.011-.053-.007-.08v-5.144l-.989 1.712c-.02.058-.062.105-.117.133-.016.01-.035.016-.054.016-.019 0-.038-.006-.054-.016l-.149-.208c-.02-.054-.02-.113 0-.166.008-.071.031-.138.066-.2l1.297-2.285c.024-.047.058-.09.099-.124l.092-.067.249-.141h.116c.018.02.032.044.041.07.008.025.011.052.009.079l-.033 6zM25.1279 224.567c.1139-.214.2058-.44.2742-.673.0637-.241.0944-.49.0914-.739.0196-.253-.0478-.505-.1911-.715-.1247-.15-.3241-.141-.59 0-.1397.079-.2636.184-.3656.308-.1016.12-.1855.254-.2493.398-.0662.151-.1191.306-.1579.466 0 .158-.0665.324-.0914.49-.012.067-.0344.131-.0665.191-.0169.046-.0492.084-.0914.108l-.2825.166c-.0131.01-.0292.016-.0457.016-.0165 0-.0326-.006-.0457-.016-.0296-.034-.0445-.079-.0415-.124.0102-.255.0464-.509.108-.757.0619-.285.1538-.564.2742-.83.1217-.26.2722-.506.4487-.732.1623-.22.3689-.404.6066-.54.1731-.114.3745-.177.5817-.183.1614.007.315.072.4321.183.1201.143.208.31.2576.49.0601.237.0881.48.0831.723v.565c0 .175-.0582.341-.0998.516-.051.18-.112.358-.1828.531-.0748.175-.1662.366-.2659.574l-1.3794 2.759 1.8531-1.072h.1163c.018.02.0318.044.0403.069.0086.026.0118.053.0096.08v.333c-.0006.072-.0177.143-.0499.207-.0226.059-.0634.108-.1163.142l-2.6092 1.512h-.1164c-.018-.02-.0317-.044-.0403-.07-.0086-.025-.0118-.053-.0095-.08v-.34c-.0126-.063-.0126-.128 0-.191.0247-.084.0581-.165.0997-.241l1.8115-3.524zM28.6597 222.523c.1167-.213.2087-.439.2742-.673.0637-.238.0945-.484.0914-.731.0208-.256-.0466-.511-.1911-.723-.1247-.141-.3241-.141-.59 0-.1391.077-.263.178-.3656.299-.0985.123-.1822.257-.2493.399-.065.151-.1178.306-.1579.465 0 .166-.0665.333-.0914.49-.0121.07-.0345.137-.0665.2-.0189.044-.0508.082-.0914.108l-.2825.158c-.0123.011-.0287.018-.0457.018-.017 0-.0334-.007-.0457-.018-.0296-.035-.0445-.079-.0415-.125.0107-.258.0469-.514.108-.764.0619-.286.1538-.565.2742-.831.1216-.263.2722-.511.4487-.74.1626-.218.3693-.399.6066-.532.1715-.117.3739-.181.5817-.182.1623.002.3173.067.4321.182.1201.143.208.311.2576.491.0601.236.0881.479.0831.723v.556c-.0241.177-.0602.352-.1081.524-.0431.179-.1014.354-.1745.523-.0748.183-.1662.374-.2659.582l-1.3544 2.717 1.853-1.072c.0169-.012.0373-.018.0582-.018.0208 0 .0412.006.0581.018.0181.02.0318.044.0404.07.0085.026.0118.053.0095.08v.341c-.0017.072-.0187.142-.0499.207-.0225.059-.0633.108-.1163.142l-2.6092 1.504h-.1163c-.019-.02-.0333-.044-.0419-.07-.0086-.025-.0114-.053-.008-.08v-.332c-.012-.066-.012-.134 0-.2.0265-.08.0599-.158.0997-.233l1.7866-3.473zM44.9296 213.125c.1151-.211.2071-.434.2742-.665.0632-.241.0939-.49.0914-.739.0254-.254-.0426-.508-.1911-.715-.1247-.149-.3241-.149-.59 0-.1375.079-.2611.18-.3656.299-.0978.125-.1788.262-.241.408-.0739.147-.1297.304-.1662.465 0 .158-.0665.324-.0914.482-.0069.07-.0297.139-.0665.199-.0169.046-.0492.084-.0914.108l-.2742.166c-.0144.011-.0319.017-.0499.017-.0179 0-.0354-.006-.0498-.017-.0154-.04-.0154-.084 0-.124.003-.255.0365-.509.0997-.756.0637-.287.1584-.565.2825-.831.1175-.263.2653-.511.4404-.74.1669-.214.3727-.394.6066-.532.1745-.117.3797-.181.59-.182.1587.007.3093.072.4238.182.1233.141.2115.309.2576.491.0602.236.0881.479.0831.723v.556c0 .166-.0582.349-.0997.524-.0511.18-.1121.358-.1828.532-.0748.174-.1579.365-.266.573l-1.3544 2.725 1.8613-1.071c.0164-.014.037-.021.0582-.021.0212 0 .0418.007.0582.021.0319.043.0467.096.0415.149v.332c-.0017.072-.0158.142-.0415.208-.0252.057-.0654.106-.1164.141l-2.6175 1.513c-.0169.012-.0373.019-.0581.019-.0209 0-.0413-.007-.0582-.019-.018-.02-.0318-.044-.0403-.07-.0086-.026-.0118-.053-.0096-.08v-.34c-.0125-.064-.0125-.128 0-.192.0248-.083.0582-.164.0998-.241l1.7533-3.498zM47.0817 213.748c.0201.086.048.169.0831.25.0346.075.093.136.1662.174.0922.027.1902.027.2825 0 .1656-.039.3231-.106.4653-.199.1334-.071.2542-.164.3573-.274.1197-.114.2206-.246.2992-.391.0876-.155.1573-.32.2077-.49.051-.184.0762-.374.0748-.565.0064-.162-.019-.323-.0748-.474-.0365-.095-.1078-.172-.1994-.216-.094-.034-.1968-.034-.2908 0-.1304.038-.256.091-.374.158l-.4985.291h-.1164c-.018-.021-.0317-.044-.0403-.07-.0086-.026-.0118-.053-.0095-.08v-.332c-.0119-.058-.0119-.117 0-.175 0-.058.0415-.116.0664-.166l1.0886-2.443-1.745 1.014c-.017.012-.0373.019-.0582.019-.0208 0-.0412-.007-.0581-.019-.0181-.02-.0318-.044-.0404-.07-.0085-.026-.0118-.053-.0095-.08v-.34c.0017-.072.0187-.143.0499-.208.0248-.057.0651-.106.1163-.141l2.3848-1.38c.017-.012.0373-.019.0582-.019.0209 0 .0412.007.0582.019.018.02.0317.044.0403.07.0086.026.0118.053.0095.08v.34c.0075.058.0075.117 0 .175 0 .066-.0498.133-.0831.208l-1.0719 2.401c.17-.099.3604-.159.5567-.174.1533-.014.3057.034.4238.133.1355.115.2337.269.2825.44.0733.237.107.484.0998.731-.0008.311-.0399.621-.1164.923-.076.289-.1877.568-.3324.831-.1288.243-.288.469-.4736.673-.1723.188-.371.35-.59.482-.2123.133-.45.22-.698.257-.1711.024-.345-.014-.4902-.108-.1269-.093-.2249-.219-.2826-.365-.0609-.174-.0945-.357-.0997-.541-.0114-.057-.0114-.117 0-.174.019-.044.0508-.082.0914-.108l.2825-.166c.0151-.013.0343-.02.0541-.02.0198 0 .0389.007.054.02.0447.019.0804.055.0997.099zM64.7312 201.7c.1069-.218.1985-.443.2742-.673.0637-.239.0945-.485.0914-.732.0208-.255-.0466-.511-.1911-.723-.1247-.149-.3241-.141-.5983 0-.135.079-.2558.18-.3573.3-.1003.121-.1842.255-.2493.398-.065.151-.1178.307-.1579.466-.0416.166-.0665.324-.0914.49-.0121.069-.0345.137-.0665.199-.0216.043-.0529.08-.0914.108l-.2825.158c-.0055.007-.0124.013-.0203.017-.0079.003-.0166.005-.0254.005-.0088 0-.0175-.002-.0254-.005-.0079-.004-.0149-.01-.0203-.017-.0148-.015-.0262-.033-.0334-.053-.0071-.02-.0099-.042-.0082-.063.0113-.257.0447-.513.0998-.765.0651-.286.1597-.564.2825-.83.1205-.261.2711-.506.4487-.732.1616-.215.3651-.396.5983-.531.1749-.117.3798-.181.59-.183.0792 0 .1576.017.2305.048.0728.031.1385.077.1932.135.128.137.2169.306.2576.49.0632.235.094.479.0914.723.0132.185.0132.371 0 .556-.0171.178-.0505.353-.0997.524-.0469.178-.1051.353-.1745.523-.0748.183-.1662.374-.2659.574l-1.3544 2.725 1.853-1.072h.1163c.0181.021.0318.044.0404.07.0085.026.0118.053.0095.08v.341c-.0007.069-.0178.137-.0499.199-.0202.06-.0615.11-.1163.141l-2.6507 1.546c-.007.007-.0154.013-.0247.017-.0093.004-.0193.006-.0294.006-.0101 0-.02-.002-.0293-.006s-.0177-.01-.0247-.017c-.018-.02-.0317-.044-.0403-.07-.0086-.025-.0118-.053-.0095-.08v-.332c-.008-.066-.008-.133 0-.199.032-.08.068-.158.108-.233l1.8032-3.523zM68.4704 202.979h-.1164c-.018-.02-.0317-.044-.0403-.069-.0086-.026-.0118-.053-.0095-.08v-1.288l-1.9029 1.097h-.1164c-.0189-.02-.0332-.044-.0418-.07-.0087-.026-.0114-.053-.008-.08v-.332c-.0029-.056-.0029-.111 0-.167.0184-.067.0406-.134.0665-.199l1.9195-4.986c.0293-.078.0654-.153.108-.224.0257-.057.0695-.104.1246-.133l.241-.141h.1163c.019.019.0333.043.0419.069.0087.026.0114.053.008.08v3.906l.5235-.308c.017-.012.0373-.018.0582-.018.0208 0 .0412.006.0581.018.0181.02.0318.044.0404.07.0085.026.0118.053.0095.08v.34c-.0017.072-.0187.143-.0499.208-.0251.057-.0654.106-.1163.142l-.5235.299v1.288c-.0006.072-.0176.143-.0499.207-.0225.059-.0633.108-.1163.142l-.2243.149zm-.1662-2.285v-2.634l-1.3212 3.39 1.3212-.756zM84.624 190.216c.108-.216.197-.442.2659-.673.0673-.241.0981-.49.0914-.74.022-.252-.0425-.504-.1829-.715-.1246-.149-.324-.141-.5982 0-.1373.08-.2584.184-.3573.308-.1016.12-.1856.255-.2493.399-.0699.149-.1229.305-.1579.465-.0432.161-.0738.325-.0914.49-.0107.068-.0332.132-.0665.192-.0219.042-.0531.079-.0914.108l-.2825.166c-.0131.01-.0292.015-.0457.015-.0166 0-.0326-.005-.0457-.015-.0165-.016-.0289-.036-.0362-.057-.0072-.022-.0091-.045-.0054-.068.0072-.255.0406-.508.0997-.756.0652-.286.1598-.565.2826-.831.1186-.261.2693-.507.4487-.731.1614-.218.3648-.402.5983-.54.1766-.113.3804-.177.5899-.183.1591.006.3102.071.4238.183.1264.138.2151.307.2576.49.0632.236.094.479.0914.723.0132.188.0132.377 0 .565-.0171.174-.0505.347-.0997.515-.0498.175-.108.349-.1745.532-.0665.183-.1662.365-.2742.573l-1.3461 2.726 1.853-1.072c.0164-.014.0369-.021.0581-.021.0213 0 .0418.007.0582.021.0181.02.0318.044.0404.069.0085.026.0118.053.0095.08v.333c-.0006.072-.0177.143-.0499.207-.0251.057-.0654.106-.1163.142l-2.6175 1.512c-.0164.014-.037.021-.0582.021-.0212 0-.0418-.007-.0582-.021-.0294-.044-.0439-.096-.0415-.149v-.341c-.0087-.064-.0087-.128 0-.191.0317-.082.0678-.163.108-.241l1.77-3.49zM86.7848 190.706c.0089.104.045.205.1048.291.0598.086.1411.155.2359.199.1042.035.2153.044.3238.027.1085-.017.2112-.061.2994-.126.1393-.08.2655-.181.3739-.3.1202-.13.2235-.275.3075-.432.0904-.171.1602-.352.2077-.54.0508-.209.076-.424.0748-.64.0059-.185-.0194-.371-.0748-.548-.0391-.12-.1111-.227-.2077-.308-.0914-.058-.1996-.084-.3075-.074-.1318.02-.2586.065-.3739.133-.1386.077-.2646.175-.374.29-.0831.108-.1578.208-.216.3-.0582.091-.1163.182-.1662.257-.0343.073-.0892.133-.1579.175l-.3074.183c-.0131.01-.0292.015-.0457.015-.0166 0-.0326-.005-.0457-.015-.0096-.02-.0145-.041-.0145-.063 0-.021.0049-.043.0145-.062l.1828-3.224c.0006-.072.0176-.143.0498-.208.0195-.06.0611-.111.1164-.141l2.1355-1.238c.017-.013.0373-.019.0582-.019.0208 0 .0412.006.0581.019.0181.02.0318.044.0404.069.0086.026.0118.053.0095.08v.341c-.0007.069-.0177.138-.0499.199-.0225.061-.0631.113-.1163.15l-1.7616 1.014-.0997 1.662c.0888-.108.1831-.21.2825-.308.1356-.126.2863-.235.4487-.324.1814-.112.3862-.18.5983-.199.1776-.012.3529.044.4903.158.1559.131.2712.304.3324.498.0817.269.1209.55.1163.831-.0003.333-.0394.665-.1163.989-.0765.308-.188.606-.3324.889-.1352.256-.2997.496-.4903.715-.1727.193-.3746.359-.5983.49-.1755.112-.3745.184-.5816.208-.169.02-.3401-.012-.4903-.092-.1466-.087-.2626-.218-.3324-.374-.0921-.203-.1376-.425-.1329-.648-.0115-.055-.0115-.111 0-.166.0192-.046.0508-.087.0914-.116l.2825-.158c.0139-.008.0296-.013.0457-.013.016 0 .0318.005.0457.013.02.018.0362.039.0476.064.0114.024.0179.05.0189.077zM104.451 178.774c.114-.215.206-.44.274-.673.064-.242.094-.491.091-.74.02-.253-.047-.505-.191-.715-.124-.149-.324-.141-.59 0-.139.08-.263.184-.365.308-.102.12-.186.255-.25.399-.066.15-.119.306-.157.465 0 .158-.067.324-.092.49-.007.068-.029.134-.066.191-.017.046-.05.084-.092.108l-.274.167c-.014.01-.032.016-.05.016-.018 0-.035-.006-.05-.016-.015-.041-.015-.085 0-.125.011-.255.047-.508.108-.756.067-.285.158-.563.275-.831.121-.26.272-.505.448-.731.163-.221.369-.405.607-.541.176-.114.38-.177.59-.182.159.007.309.072.424.182.123.141.211.309.257.491.06.236.088.479.083.723v.565c0 .174-.058.34-.099.515-.051.18-.112.358-.183.532-.075.174-.158.365-.266.573l-1.355 2.726 1.862-1.072c.016-.014.037-.021.058-.021.021 0 .042.007.058.021.03.044.044.096.042.149v.333c-.002.071-.016.141-.042.207-.025.057-.065.106-.116.142l-2.618 1.512h-.116c-.018-.02-.032-.044-.04-.07-.009-.025-.012-.053-.01-.08v-.34c-.012-.063-.012-.128 0-.191.025-.084.058-.165.1-.241l1.745-3.49zM107.409 176.139c.032-.034.069-.065.108-.091.031-.033.068-.061.108-.083.189-.12.407-.187.631-.191.182.001.356.069.491.191.152.144.267.324.332.523.082.27.121.55.116.831-.002.322-.041.643-.116.956-.079.312-.191.616-.332.906-.131.274-.296.531-.491.764-.181.209-.394.389-.631.532-.187.119-.402.185-.623.191-.184.001-.362-.067-.499-.191-.154-.143-.269-.323-.332-.523-.083-.27-.122-.55-.117-.831-.012-.175-.012-.35 0-.524.024-.168.057-.334.1-.499.042-.166.092-.324.141-.473l.158-.449 1.105-3.141c.027-.051.049-.103.067-.158.025-.059.069-.109.125-.141l.34-.199h.092c.014.043.014.089 0 .133.004.024.004.05 0 .074v.058l-.773 2.335zm-.781 2.651c-.003.169.022.338.075.499.037.124.102.238.191.332.086.081.198.128.315.133.148.002.293-.041.416-.125.159-.093.299-.214.415-.357.123-.152.229-.316.316-.49.084-.181.148-.371.191-.565.049-.188.074-.38.075-.574.004-.166-.022-.332-.075-.49-.035-.127-.101-.244-.191-.34-.088-.078-.199-.125-.316-.133-.146.007-.289.049-.415.124-.157.096-.298.216-.416.358-.124.153-.23.32-.315.498-.085.178-.149.365-.191.557-.049.187-.074.38-.075.573zM124.552 167.165c.108-.216.197-.441.265-.673.068-.238.099-.484.092-.731.022-.255-.042-.51-.183-.723-.125-.15-.324-.142-.598 0-.135.079-.256.18-.358.299-.1.121-.184.255-.249.399-.068.149-.121.305-.158.465 0 .166-.074.324-.099.49-.01.069-.029.137-.059.2-.024.043-.058.08-.099.108l-.275.158h-.091c-.009-.018-.013-.038-.013-.058 0-.021.004-.041.013-.059-.01-.265.013-.53.067-.789.065-.286.159-.565.282-.831.118-.26.266-.506.44-.731.169-.215.375-.398.607-.54.177-.111.381-.172.59-.175.16.005.311.07.424.183.126.135.215.302.257.482.063.239.094.484.092.731v.557c-.017.177-.051.352-.1.523-.113.38-.263.747-.449 1.097l-1.346 2.726 1.853-1.072c.017-.014.037-.021.058-.021.022 0 .042.007.059.021.018.02.031.044.04.069.009.026.012.053.009.08v.341c0 .07-.017.138-.049.2-.023.058-.064.107-.117.141l-2.65 1.579c-.017.013-.037.02-.059.02-.021 0-.041-.007-.058-.02-.018-.021-.032-.044-.04-.07-.009-.026-.012-.053-.01-.08v-.332c-.008-.067-.008-.134 0-.2l.1-.232 1.812-3.532zM128.673 161.681c.016-.014.037-.021.058-.021.021 0 .042.007.058.021.018.02.032.044.04.069.009.026.012.053.01.08v.333c.004.063.004.127 0 .191 0 .066-.017.141-.05.224l-1.363 6.166c-.018.065-.04.129-.066.191-.023.056-.064.103-.116.133l-.275.158c-.015.013-.034.02-.054.02-.019 0-.039-.007-.054-.02-.016-.043-.016-.09 0-.133-.004-.016-.004-.034 0-.05v-.075l1.355-6.14-1.986 1.146h-.117c-.018-.02-.031-.044-.04-.069-.008-.026-.012-.053-.009-.08v-.341c0-.07.017-.138.049-.199.021-.06.062-.11.117-.142l2.443-1.462zM144.104 155.872c.107-.217.198-.442.274-.673.064-.238.094-.484.091-.731.021-.256-.046-.511-.191-.723-.124-.149-.324-.141-.598 0-.135.079-.256.18-.357.299-.101.122-.185.256-.25.399-.065.151-.118.306-.158.466-.041.166-.066.324-.091.49-.012.069-.034.136-.066.199-.022.043-.053.08-.092.108l-.282.158c-.013.012-.029.018-.046.018-.017 0-.033-.006-.046-.018-.027-.036-.041-.08-.041-.124.01-.258.046-.514.108-.765.062-.286.153-.564.274-.831.123-.259.274-.504.449-.731.161-.216.365-.397.598-.532.175-.117.38-.18.59-.183.079.001.158.017.23.048.073.032.139.078.194.135.126.136.215.302.257.482.063.239.094.485.092.731.013.186.013.372 0 .557-.018.177-.051.352-.1.523-.043.18-.102.355-.175.524-.074.183-.166.374-.266.573l-1.354 2.726 1.853-1.072c.017-.012.037-.019.058-.019.021 0 .041.007.058.019.018.02.032.044.041.07.008.025.012.052.009.08v.34c-.001.072-.018.143-.05.208-.022.056-.063.103-.116.133l-2.609 1.512h-.116c-.019-.02-.033-.043-.042-.069-.008-.026-.011-.053-.008-.08v-.333c-.009-.066-.009-.133 0-.199.032-.08.068-.157.108-.233l1.77-3.482zM145.757 156.496c.001-.331.054-.659.158-.973.101-.328.247-.641.432-.93-.157-.092-.279-.232-.349-.399-.089-.225-.132-.465-.124-.706 0-.262.036-.522.108-.773.129-.521.383-1.003.739-1.405.159-.184.347-.342.557-.465.17-.108.364-.171.565-.183.16-.005.317.042.449.133.136.109.239.252.299.416.073.208.11.427.108.648-.006.282-.051.561-.133.831-.086.289-.203.567-.349.831.19.089.342.242.432.432.111.248.165.518.158.789-.002.281-.041.561-.117.831-.069.289-.175.569-.315.831-.129.253-.291.488-.482.698-.175.203-.383.374-.615.507-.18.121-.39.19-.607.199-.172.012-.343-.038-.482-.141-.148-.11-.259-.264-.315-.44-.087-.234-.126-.482-.117-.731zm.582-.333c-.007.134.016.267.066.391.036.099.103.184.192.241.09.053.194.076.299.066.136-.014.267-.059.382-.133.142-.083.271-.186.382-.307.12-.125.223-.265.308-.416.08-.147.144-.303.191-.465.046-.154.069-.313.066-.474.006-.133-.017-.266-.066-.39-.04-.097-.107-.18-.191-.241-.093-.054-.201-.077-.308-.067-.134.022-.263.067-.382.133-.142.087-.271.193-.382.316-.116.123-.217.26-.299.407-.085.146-.149.303-.192.466-.046.153-.069.313-.066.473zm.108-3.008c-.001.12.021.238.066.349.033.088.094.161.175.208.079.049.173.07.266.058.115-.008.227-.045.324-.108.125-.069.237-.159.332-.266.101-.112.191-.235.266-.366.073-.132.134-.271.183-.415.039-.138.058-.281.058-.424.006-.119-.014-.238-.058-.349-.038-.088-.102-.164-.183-.216-.082-.042-.174-.062-.266-.058-.117.016-.23.056-.332.116-.121.072-.23.162-.324.266-.103.111-.192.234-.266.366-.075.131-.134.27-.175.415-.042.138-.064.28-.066.424zM25.1361 245.283c.1152-.211.2072-.434.2743-.665.0631-.241.0939-.49.0914-.739.0195-.253-.0479-.505-.1912-.715-.1246-.149-.324-.149-.5899 0-.1397.079-.2636.184-.3657.308-.1015.12-.1855.254-.2492.398-.0675.15-.1204.306-.1579.466 0 .158-.0665.324-.0914.482-.0107.07-.0332.137-.0665.199-.0169.046-.0492.084-.0914.108l-.2825.166c-.0131.011-.0292.016-.0457.016-.0166 0-.0326-.005-.0457-.016-.0296-.034-.0445-.079-.0416-.124.0103-.255.0465-.509.108-.756.0609-.287.1528-.565.2743-.831.1234-.262.2738-.51.4487-.74.1648-.216.3711-.396.6066-.532.1731-.114.3745-.177.5816-.183.1615.007.3151.072.4321.183.1202.143.2081.31.2576.491.0602.236.0882.479.0831.722v.557c0 .166-.0581.349-.0997.524-.051.18-.112.358-.1828.532-.0748.174-.1662.365-.2659.573l-1.3545 2.725 1.8531-1.072h.1163c.0185.02.0325.044.0411.07.0086.026.0116.053.0087.08v.332c-.0005.073-.0176.144-.0498.208-.0226.059-.0634.108-.1163.141l-2.6092 1.513c-.017.012-.0373.019-.0582.019-.0209 0-.0412-.007-.0582-.019-.018-.02-.0317-.044-.0403-.07-.0086-.026-.0118-.053-.0095-.08v-.34c-.0126-.064-.0126-.129 0-.192.0247-.083.0581-.164.0997-.241l1.7865-3.498zM28.3687 244.618l-.0831.058-.0831.05c-.1674.106-.3588.169-.5567.183-.1747.01-.3476-.04-.4903-.141-.1586-.131-.2768-.304-.3407-.499-.095-.266-.14-.548-.1329-.831 0-.32.0419-.638.1246-.947.0781-.308.1896-.606.3324-.889.1292-.266.2911-.514.4819-.74.162-.202.359-.374.5817-.507.1895-.127.4118-.196.6399-.199.1753-.002.3447.064.4736.183.1461.145.252.325.3074.523.0806.269.1171.55.1081.831-.001.167-.0177.334-.0499.499 0 .182-.0748.357-.1246.531-.0499.175-.0997.358-.1579.524-.0582.166-.108.324-.1579.465l-1.1052 3.141-.0664.158c-.0215.059-.0626.109-.1164.141l-.349.2h-.0831c-.0153-.04-.0153-.085 0-.125-.0045-.025-.0045-.05 0-.075-.0049-.019-.0049-.039 0-.058l.8476-2.476zm.7811-2.642c.0058-.169-.0166-.338-.0665-.499-.0357-.122-.1014-.234-.1911-.324-.0845-.075-.1948-.114-.3074-.108-.1356.003-.2678.044-.3823.116-.1441.087-.2732.196-.3822.324-.1186.139-.2191.293-.2992.457-.0835.176-.1476.36-.1911.549-.0471.19-.0694.385-.0665.581-.0064.172.0161.343.0665.507.0376.119.1031.228.1911.316.0824.073.1894.111.2992.108.1362.001.2695-.04.3822-.116.1478-.082.2778-.192.3823-.324.1239-.137.2274-.291.3074-.457.0822-.173.1463-.354.1911-.54.0472-.193.0695-.392.0665-.59zM43.3922 236.608c.0202.085.048.169.0831.249.0346.075.0931.136.1662.175.0922.027.1903.027.2825 0 .1644-.043.3213-.11.4654-.2.2734-.16.4998-.389.6564-.665.0841-.156.1537-.32.2077-.49.0516-.187.0768-.38.0748-.573.0066-.159-.0188-.317-.0748-.466-.0365-.094-.1078-.172-.1994-.216-.094-.033-.1968-.033-.2908 0-.1317.035-.2577.088-.3739.158l-.4986.291h-.1163c-.0181-.02-.0318-.044-.0404-.069-.0086-.026-.0118-.053-.0095-.08v-.333c-.0119-.057-.0119-.117 0-.174.0193-.057.0414-.112.0665-.166l1.0885-2.443-1.745 1.013c-.0164.014-.0369.021-.0581.021-.0213 0-.0418-.007-.0582-.021-.0183-.018-.0322-.04-.0409-.065-.0086-.024-.0117-.05-.009-.076v-.341c.0017-.084.0246-.167.0665-.241.0226-.058.0634-.108.1163-.141l2.3849-1.379h.1163c.018.02.0318.044.0403.069.0086.026.0119.053.0096.08v.341c.0074.058.0074.117 0 .174l-.0831.208-1.072 2.402c.1684-.104.3596-.163.5568-.175.1533-.013.3056.034.4238.133.1391.113.2382.267.2825.441.0727.233.1064.478.0997.722-.0003.314-.0393.627-.1163.931-.0761.29-.1877.569-.3324.831-.1289.244-.288.47-.4737.673-.1702.188-.3693.348-.5899.474-.211.137-.449.228-.698.266-.1711.023-.345-.015-.4903-.108-.1268-.093-.2248-.22-.2825-.366-.0609-.174-.0945-.356-.0997-.54-.0115-.058-.0115-.117 0-.175.0213-.045.0526-.084.0914-.116l.2825-.158c.015-.013.0342-.02.054-.02.0198 0 .039.007.054.02.0216.014.04.033.0543.054.0143.021.0241.046.0288.071zM49.6827 230.517v1.612c0 .36-.0334.718-.0997 1.072-.0576.336-.1524.665-.2825.98-.1182.298-.2776.578-.4736.831-.1894.24-.4237.44-.6897.59-.2031.139-.4439.211-.6897.208-.0938-.01-.1844-.039-.266-.087-.0816-.047-.1523-.111-.2077-.187-.1395-.193-.2359-.414-.2825-.648-.0701-.314-.1035-.635-.0997-.956v-.789-.79c-.0005-.359.0328-.718.0997-1.072.0604-.335.1551-.664.2825-.98.117-.298.2766-.578.4737-.831.1868-.244.4215-.448.6897-.598.2018-.141.4441-.211.6897-.2.0933.012.1834.042.2648.089.0814.047.1524.11.2088.185.1439.194.2406.419.2825.657.067.3.1004.607.0997.914zm-2.4928 3.033c-.0397.405.0505.813.2576 1.163.1579.183.3988.183.7146 0 .3248-.191.5785-.483.7229-.831.1776-.466.2651-.963.2576-1.462v-1.579c.0342-.405-.0557-.811-.2576-1.163-.1662-.183-.4071-.191-.7229 0-.3232.19-.5745.482-.7146.831-.1809.466-.2684.962-.2576 1.462v.831c0 .283-.0665.474-.0582.756l.0582-.008zM63.9332 224.742c.0227.087.0505.173.0831.257.0351.073.0937.131.1662.167.0937.035.1972.035.2909 0 .1648-.037.3222-.102.4653-.192.1283-.078.2481-.17.3573-.274.1107-.119.2082-.25.2908-.39.0911-.154.1609-.319.2078-.491.0515-.186.0767-.379.0748-.573.0066-.159-.0189-.317-.0748-.465-.0362-.097-.1073-.177-.1995-.225-.0939-.034-.1969-.034-.2908 0-.129.035-.2522.088-.3656.158l-.5069.291c-.0164.014-.0369.021-.0582.021-.0212 0-.0417-.007-.0581-.021-.0181-.02-.0318-.044-.0404-.07-.0085-.025-.0118-.052-.0095-.079v-.341c-.0061-.058-.0061-.117 0-.175 0-.058 0-.108.0665-.158l1.0885-2.443-1.745 1.006c-.0163.013-.0369.021-.0581.021-.0212 0-.0418-.008-.0582-.021-.0185-.02-.0325-.044-.0411-.07-.0086-.025-.0116-.053-.0087-.08v-.332c.0005-.072.0176-.143.0498-.208.0252-.057.0654-.105.1163-.141l2.3932-1.379c.0164-.014.0369-.021.0581-.021.0213 0 .0418.007.0582.021.0181.02.0318.043.0404.069.0085.026.0118.053.0095.08v.333c.0072.06.0072.122 0 .182-.0242.068-.0519.135-.0831.2L65.08 221.8c.1704-.098.3605-.158.5567-.174.1562-.006.3095.044.4321.141.1303.115.2254.265.2742.432.0721.237.1057.484.0997.731.0034.312-.0358.622-.1163.923-.0762.288-.1849.567-.3241.831-.1346.242-.2963.467-.4819.673-.1689.186-.365.346-.5817.473-.214.136-.455.224-.7063.258-.1673.022-.3372-.013-.482-.1-.1331-.088-.2349-.216-.2908-.365-.0616-.177-.0952-.362-.0997-.549-.0114-.055-.0114-.111 0-.166.0191-.049.0543-.09.0997-.116l.2742-.158c.0151-.013.0342-.02.054-.02.0198 0 .039.007.054.02.0432.023.0759.061.0914.108zM68.7198 223.313c.0116.066.0116.133 0 .199-.0226.058-.0634.108-.1164.141l-.2493.15c-.0169.012-.0373.019-.0581.019-.0209 0-.0412-.007-.0582-.019-.018-.02-.0317-.044-.0403-.07-.0086-.026-.0118-.053-.0095-.08v-5.152l-1.0554 1.712c-.0276.054-.0711.097-.1246.125-.0161.01-.0348.016-.054.016-.0192 0-.0379-.006-.054-.016l-.1496-.208c-.0162-.054-.0162-.112 0-.166.0095-.07.032-.138.0665-.2l1.2963-2.285c.0247-.047.0586-.09.0997-.124l.0997-.059.2493-.149c.0164-.014.0369-.021.0581-.021.0213 0 .0418.007.0582.021.0153.049.0153.101 0 .149l.0416 6.017z" fill="#455A64"/><path d="M86.8177 212.859c-.0005.072-.0176.143-.0498.208-.0252.057-.0654.106-.1164.141l-.2492.141c-.0164.014-.037.021-.0582.021-.0212 0-.0418-.007-.0582-.021-.018-.02-.0317-.043-.0403-.069-.0086-.026-.0118-.053-.0095-.08v-5.152l-.9806 1.712c-.0332.072-.0747.113-.1246.124-.0157.012-.0346.018-.054.018s-.0384-.006-.054-.018l-.1413-.207c-.011-.027-.0166-.055-.0166-.083 0-.029.0056-.057.0166-.084.0025-.072.0225-.144.0582-.207l1.3046-2.335c.0193-.049.0508-.092.0914-.125l.0997-.066.2493-.142c.0164-.013.0369-.02.0582-.02.0212 0 .0417.007.0581.02.0185.02.0325.044.0411.07.0086.026.0116.053.0088.08l-.0333 6.074zM106.27 198.45c.108-.216.197-.441.266-.673.068-.237.099-.484.092-.731.022-.255-.042-.51-.183-.723-.125-.149-.324-.141-.598 0-.135.079-.256.18-.358.299-.1.122-.184.256-.249.399-.069.149-.122.305-.158.465 0 .167-.075.325-.1.491-.009.069-.028.136-.058.199-.024.044-.058.081-.099.108l-.275.158c-.012.012-.028.018-.045.018-.017 0-.034-.006-.046-.018-.016-.04-.016-.085 0-.125.003-.257.036-.514.1-.764.065-.286.159-.565.282-.831.118-.26.266-.506.441-.731.166-.214.372-.395.606-.532.175-.117.38-.18.59-.183.16.005.311.07.424.183.126.135.215.302.258.482.062.239.093.484.091.731.013.185.013.372 0 .557-.017.177-.051.352-.1.523-.113.38-.263.747-.448 1.097l-1.355 2.726 1.861-1.072c.017-.014.037-.021.059-.021.021 0 .041.007.058.021.018.02.032.044.04.069.009.026.012.053.01.08v.341c-.001.07-.018.138-.05.199-.023.059-.064.108-.117.142l-2.684 1.562c-.016.013-.037.021-.058.021-.021 0-.042-.008-.058-.021-.018-.02-.032-.044-.04-.07-.009-.025-.012-.053-.01-.08v-.332c-.008-.066-.008-.133 0-.199.051-.081.107-.159.166-.233l1.745-3.532zM124.684 189.676c.023.085.054.169.092.249.029.074.086.133.158.166.093.035.197.035.29 0 .165-.037.323-.101.466-.191.128-.079.248-.171.357-.274.111-.122.211-.252.299-.391.085-.155.152-.32.2-.49.051-.187.076-.38.074-.573.007-.159-.018-.317-.074-.466-.033-.096-.101-.176-.191-.224-.097-.034-.203-.034-.3 0-.128.036-.251.089-.365.158l-.507.291c-.016.013-.037.021-.058.021-.022 0-.042-.008-.058-.021-.018-.021-.032-.044-.041-.07-.008-.026-.012-.053-.009-.08v-.341c-.006-.058-.006-.116 0-.174 0-.058.05-.108.066-.158l1.097-2.443-1.712 1.014c-.016.013-.037.021-.058.021-.021 0-.042-.008-.058-.021v-.482c-.016-.069-.016-.14 0-.208.025-.057.065-.106.116-.141l2.393-1.38c.017-.013.037-.02.059-.02.021 0 .041.007.058.02.018.021.032.044.04.07.009.026.012.053.01.08v.332c.007.061.007.122 0 .183-.022.068-.047.135-.075.2l-1.08 2.409c.167-.104.359-.164.556-.174.156-.014.311.034.432.133.133.114.231.264.283.432.072.237.106.484.1.731.001.315-.041.628-.125.931-.077.288-.186.567-.324.831-.132.243-.294.469-.482.673-.167.188-.364.348-.582.473-.215.135-.455.225-.706.266-.168.014-.336-.024-.482-.108-.131-.088-.23-.216-.282-.365-.07-.175-.104-.361-.1-.549-.011-.055-.011-.111 0-.166.022-.047.056-.087.1-.116l.274-.158h.108c.023.028.037.063.041.1zM146.073 178.898c-.016.014-.037.021-.058.021-.022 0-.042-.007-.058-.021-.019-.02-.033-.043-.042-.069-.008-.026-.011-.053-.008-.08v-1.288l-1.903 1.105c-.017.012-.037.019-.058.019-.021 0-.042-.007-.059-.019-.018-.022-.032-.047-.041-.074-.008-.027-.011-.056-.008-.084v-.332c-.007-.056-.007-.111 0-.167.014-.068.037-.135.066-.199l1.911-4.986c0-.083.075-.158.108-.224.034-.054.079-.1.133-.133l.241-.141c.017-.014.037-.021.058-.021.022 0 .042.007.059.021.018.02.031.044.04.069.008.026.012.053.009.08v3.906l.524-.299c.007-.008.015-.013.025-.017.009-.004.019-.006.029-.006.01 0 .02.002.029.006.01.004.018.009.025.017.019.019.033.043.042.069.008.026.011.053.008.08v.333c-.001.072-.018.143-.05.207-.02.058-.058.107-.108.142l-.524.299v1.288c0 .072-.017.143-.049.207-.026.057-.066.106-.117.142l-.224.149zm-.166-2.285v-2.634l-1.313 3.39 1.313-.756z" fill="#E0E0E0"/><path d="M22.203 142.037l1.1467-3.747s.0499-.108.0831-.2c.0376-.087.1015-.159.1828-.208l.4072-.232c.0164-.014.0369-.021.0582-.021.0212 0 .0417.007.0581.021.0187.021.0328.046.0414.074.0085.027.0114.055.0085.084v6.007c-.0017.072-.0187.143-.0499.208-.0225.056-.0635.103-.1163.133l-.4903.291c-.0169.012-.0373.019-.0581.019-.0209 0-.0413-.007-.0582-.019-.0194-.048-.0194-.102 0-.15v-3.656l-.831 2.56c-.0267.068-.0572.134-.0914.199-.028.067-.0741.124-.1329.166l-.3158.183c-.0214.012-.0458.019-.0706.019-.0248 0-.0492-.007-.0706-.019-.0369-.028-.0656-.065-.0831-.108l-.831-1.662v3.648c.0004.072-.0167.143-.0498.208-.0252.056-.0654.105-.1164.141l-.4902.282h-.1164c-.0189-.019-.0332-.043-.0418-.069-.0087-.026-.0114-.053-.008-.08v-6.033c.0016-.072.0186-.143.0498-.208.0226-.058.0634-.107.1164-.141l.4071-.232c.0831-.05.1413-.05.1828 0l.0831.099 1.1966 2.443zM24.9868 139.528c.0151-.358.0596-.714.133-1.064.0705-.342.1821-.674.3323-.989.1495-.297.3336-.576.5485-.831.218-.259.4795-.478.7728-.648.233-.146.4985-.231.7728-.249.2052.007.4006.09.5484.233.1593.171.2735.379.3324.606.0827.298.1274.605.1329.914v1.67c-.0109.358-.0555.714-.1329 1.064-.0718.344-.1834.679-.3324.997-.1426.302-.3272.581-.5484.831-.2181.259-.4796.479-.7728.648-.2295.153-.4971.24-.7728.249-.1019.002-.2031-.016-.2974-.055s-.1797-.096-.2511-.169c-.164-.168-.2789-.378-.3323-.606-.0782-.299-.1228-.606-.133-.915v-1.271-.415zm2.7505-1.538c.0142-.158-.0035-.317-.0521-.469-.0485-.151-.1269-.291-.2305-.411-.1661-.15-.3988-.142-.6813 0-.2995.179-.5372.446-.6814.764-.181.376-.2775.788-.2825 1.205V140.658c-.0145.157.0031.315.0516.465.0486.15.1271.289.2309.407.1745.142.3988.133.6814 0 .3006-.174.5389-.439.6813-.756.1812-.373.2776-.782.2826-1.196v-.831c0-.325.0083-.524 0-.748v-.009zM32.1164 139.519h-.1579l-.0831-.083-1.6619-2.908v3.855c-.0007.07-.0178.138-.0499.2-.0202.06-.0615.11-.1163.141l-.4903.283c-.0163.013-.0369.021-.0581.021-.0212 0-.0418-.008-.0582-.021-.018-.021-.0318-.044-.0403-.07-.0086-.026-.0118-.053-.0095-.08v-6.041c.0016-.072.0186-.143.0498-.208.0253-.054.0657-.1.1163-.133l.4238-.249c.0665-.041.1247-.041.1579 0l.0831.083 1.6619 2.909v-3.848c.0006-.072.0176-.143.0499-.208.0225-.058.0633-.107.1163-.141l.4903-.282c.0163-.014.0369-.021.0581-.021.0213 0 .0418.007.0582.021.018.02.0318.044.0403.069.0086.026.0118.053.0096.08v6.033c-.0006.072-.0177.143-.0499.208-.0252.057-.0654.105-.1163.141l-.4238.249zM43.7497 126.257c.0164-.013.037-.021.0582-.021.0212 0 .0418.008.0582.021.018.02.0317.044.0403.07.0086.026.0118.053.0095.08v.665c-.0017.072-.0187.142-.0498.207-.0276.056-.0674.104-.1164.142l-1.0968.631v5.119c.0116.066.0116.133 0 .199-.0226.059-.0634.108-.1164.141l-.4902.283c-.0156.015-.0364.024-.0582.024-.0217 0-.0426-.009-.0582-.024-.018-.02-.0317-.044-.0403-.07-.0086-.025-.0118-.053-.0095-.08v-5.118l-1.0969.631c-.0164.014-.0369.021-.0581.021-.0213 0-.0418-.007-.0582-.021-.0165-.048-.0165-.101 0-.149v-.665c-.0117-.066-.0117-.134 0-.2.0226-.058.0634-.107.1163-.141l2.9665-1.745zM47.8046 123.914c.0169-.012.0373-.019.0581-.019.0209 0 .0412.007.0582.019.0294.044.044.097.0415.15v3.83c.0028.374-.0334.747-.108 1.114-.0715.34-.1802.672-.3241.989-.146.299-.3304.578-.5484.831-.219.242-.474.449-.7562.614-.2273.153-.4912.242-.7644.258-.0989.006-.1979-.009-.2908-.044-.0929-.034-.1778-.087-.2493-.155-.166-.173-.2785-.389-.3241-.624-.0795-.32-.1158-.65-.108-.98v-3.831c.0005-.072.0176-.143.0498-.208.0226-.058.0634-.108.1163-.141l.4903-.282c.0164-.014.037-.021.0582-.021.0212 0 .0418.007.0581.021.0181.02.0318.044.0404.069.0086.026.0118.053.0095.08v3.781c-.0063.209.0133.419.0582.623.0318.127.0979.242.1911.333.0823.064.1867.094.2908.083.1319-.021.2587-.066.3739-.133.1394-.08.2655-.181.374-.299.1192-.125.2174-.268.2908-.424.0861-.174.1502-.359.1911-.549.0492-.229.0716-.463.0665-.698v-3.78c.0006-.073.0176-.144.0499-.208.0251-.057.0654-.106.1163-.141l.4903-.258zM51.71 127.03c.017-.012.0373-.019.0582-.019.0209 0 .0412.007.0582.019.018.02.0317.044.0403.07.0086.025.0118.053.0095.08v.664c-.0006.073-.0176.144-.0498.208-.0252.057-.0654.106-.1164.141l-2.6673 1.538c-.0164.013-.037.021-.0582.021-.0212 0-.0418-.008-.0582-.021-.0294-.045-.0439-.097-.0415-.15v-6.033c.001-.071.0151-.141.0415-.207.0252-.057.0654-.106.1164-.142l2.6175-1.512h.1163c.018.02.0318.044.0403.07.0086.025.0119.053.0096.08v.664c-.0006.072-.0177.144-.0499.208-.0226.058-.0634.108-.1163.141l-1.9777 1.139v1.487l1.8281-1.055c.0164-.014.0369-.021.0582-.021.0212 0 .0418.007.0581.021.0181.02.0318.044.0404.069.0085.026.0118.053.0095.08v.665c-.0007.07-.0178.138-.0499.2-.0225.058-.0633.108-.1163.141l-1.8281 1.055v1.554l2.0275-1.155zM62.1469 119.07l-.5235 3.099c0 .1-.025.191-.0748.274-.0281.069-.0776.128-.1413.167l-.4902.282h-.1413c-.0405-.056-.0662-.122-.0748-.191l-.7728-5.443v-.075c.0007-.069.0178-.137.0499-.199.0225-.058.0633-.108.1163-.141l.4487-.266c.0183-.008.0381-.013.0582-.013s.0399.005.0582.013c0 0 .0581.066.0747.158l.5069 3.664.4487-2.75c.013-.071.0325-.141.0582-.208.0281-.08.0841-.148.1579-.191l.4903-.283h.1578c.0285.043.0483.091.0582.142l.4487 2.235.5069-4.263c.011-.081.0364-.16.0748-.233.0299-.049.0695-.091.1163-.124l.4487-.258c.0164-.013.037-.021.0582-.021.0212 0 .0418.008.0582.021.0189.02.0332.043.0418.069.0087.026.0114.054.008.081.0033.025.0033.05 0 .075l-.7728 6.348c-.015.091-.04.18-.0748.266-.0305.07-.0793.13-.1412.174l-.4903.283c-.0196.017-.0447.026-.0706.026s-.051-.009-.0706-.026c-.0321-.061-.0572-.125-.0748-.191l-.5318-2.501zM67.8721 117.707c.0069-.007.0153-.013.0246-.017.0093-.004.0193-.006.0294-.006.0101 0 .0201.002.0293.006.0093.004.0177.01.0247.017.0189.02.0332.043.0419.069.0086.026.0113.053.0079.081v.664c-.0006.07-.0177.138-.0498.2-.0174.058-.0559.109-.108.141l-2.6674 1.537c-.0164.014-.0369.021-.0582.021-.0212 0-.0418-.007-.0581-.021-.019-.019-.0333-.043-.0419-.069-.0086-.026-.0114-.053-.008-.08v-6.033c.0017-.072.0187-.143.0499-.208.0251-.057.0654-.105.1163-.141l2.6175-1.504c.0164-.014.0369-.021.0582-.021.0212 0 .0418.007.0581.021 0 0 .0416.075.0416.149v.657c.0033.072-.011.143-.0416.208-.0251.056-.0654.105-.1163.141l-1.961 1.13v1.487l1.8281-1.055c.0169-.012.0373-.019.0581-.019.0209 0 .0412.007.0582.019.0294.044.044.097.0415.15v.664c-.0017.072-.0157.142-.0415.208-.0252.057-.0654.106-.1163.141l-1.8281 1.056v1.587l2.0109-1.18zM70.4564 110.843c.2329-.155.5021-.246.7811-.266.1002-.006.2008.008.2952.042.0944.035.1807.088.2532.158.1684.169.2863.382.3407.615.0873.319.1348.649.1413.98v1.388c-.0123.386-.0595.769-.1413 1.147-.0717.346-.1833.684-.3324 1.005-.1454.3-.3298.579-.5484.831-.2147.249-.4704.46-.7562.623l-1.5289.881h-.1164c-.0249-.024-.0427-.055-.0515-.089-.0088-.033-.0082-.069.0017-.102v-6.033c.0006-.072.0176-.143.0498-.208.0226-.058.0634-.108.1164-.141l1.4957-.831zm.9971 2.003c-.0049-.172-.03-.342-.0748-.507-.0304-.129-.0966-.247-.1911-.341-.0415-.041-.0908-.073-.1451-.094-.0543-.022-.1123-.032-.1706-.03-.1595.018-.3128.072-.4487.157l-.831.466v4.204l.831-.482c.1617-.095.3075-.216.432-.357.1216-.143.2224-.302.2992-.474.0872-.176.1514-.363.1911-.556.0413-.197.0663-.397.0748-.599.0415-.473.0415-.93.0249-1.387h.0083zM83.0951 103.539h.1164c.0184.02.0324.044.041.069.0086.026.0116.054.0088.081v.664c-.0006.07-.0177.138-.0498.2-.0202.06-.0616.11-.1164.141l-1.0885.632v5.118c.0003.073-.0168.144-.0499.208-.0252.057-.0654.106-.1163.141l-.4903.283c-.0164.013-.0369.021-.0582.021-.0212 0-.0417-.008-.0581-.021-.019-.02-.0333-.043-.0419-.069-.0086-.026-.0114-.054-.008-.081v-5.118l-1.0885.631h-.1164c-.018-.02-.0317-.044-.0403-.07-.0086-.025-.0118-.052-.0095-.079v-.698c.0006-.07.0177-.138.0498-.2.0202-.06.0616-.11.1164-.141l2.9997-1.712zM87.175 101.187c.017-.012.0373-.018.0582-.018.0209 0 .0412.006.0582.018.018.021.0318.044.0403.07.0086.026.0118.053.0095.08v6.041c-.0016.072-.0186.143-.0498.208-.0252.057-.0654.105-.1164.141l-.4902.283c-.0164.013-.0369.02-.0582.02-.0212 0-.0418-.007-.0581-.02-.0181-.021-.0318-.044-.0404-.07-.0085-.026-.0118-.053-.0095-.08v-2.493l-1.8281 1.055v2.493c-.0006.072-.0176.143-.0498.208-.0252.057-.0655.106-.1164.141l-.4903.283h-.1163c-.0189-.02-.0332-.043-.0419-.069-.0086-.026-.0113-.054-.0079-.081v-6.049c-.0004-.072.0167-.144.0498-.208.0226-.058.0634-.108.1163-.141l.4903-.283c.0164-.013.037-.021.0582-.021.0212 0 .0418.008.0582.021.018.021.0317.044.0403.07.0086.026.0118.053.0095.08v2.401l1.8281-1.063v-2.402c.0007-.069.0177-.137.0499-.199.0225-.058.0633-.108.1163-.141l.4902-.275zM91.5709 98.6447c.0164-.0135.037-.0209.0582-.0209.0212 0 .0418.0074.0582.0209.0323.0431.0498.0956.0498.1496v3.8307c0 .374-.039.747-.1163 1.113-.0677.342-.1766.674-.3241.989-.146.3-.3304.579-.5484.831-.219.243-.4741.45-.7562.615-.2298.147-.4924.236-.7645.258-.0989.005-.1978-.01-.2907-.044-.0929-.034-.1778-.087-.2494-.156-.1659-.172-.2785-.388-.3241-.623-.0794-.321-.1157-.65-.108-.98v-3.831c.0006-.072.0176-.143.0499-.208.0225-.058.0633-.108.1163-.141l.4903-.283c.0163-.013.0369-.021.0581-.021.0213 0 .0418.008.0582.021.018.021.0318.044.0403.07.0086.026.0119.053.0096.08v3.781c-.0089.207.0135.414.0664.615.0293.128.0925.245.1829.34.0822.065.1867.095.2908.083.1318-.02.2586-.065.3739-.133.1443-.064.2809-.145.4072-.241.1192-.124.2174-.267.2908-.423.0897-.173.1541-.358.1911-.549.0522-.229.0773-.463.0748-.698v-3.8138c-.0032-.0716.011-.1429.0416-.2077.0251-.0569.0654-.1057.1163-.1413l.457-.2825zM104.334 91.2824c.015-.0129.035-.0199.054-.0199.02 0 .039.007.054.0199.018.0202.032.0439.041.0696.008.0258.012.053.009.08v.6647c0 .0722-.017.1432-.05.2078-.019.0575-.057.107-.108.1412l-1.936 1.1135v1.8198l1.812-1.0553c.016-.0135.037-.0209.058-.0209.021 0 .042.0074.058.0209.019.0196.033.0432.042.0691.009.0259.011.0534.008.0804v.6565c0 .0723-.017.1435-.05.2077-.025.0569-.065.1057-.116.1413l-1.812 1.047v2.1439c0 .0694-.017.1378-.05.1994-.022.0584-.063.1079-.116.1413l-.49.2825c-.016.0152-.037.0237-.058.0237-.022 0-.043-.0085-.058-.0237-.019-.0184-.033-.0406-.041-.065-.009-.0245-.012-.0505-.009-.0763v-6.0244c.001-.072.018-.1428.05-.2077.024-.0571.065-.106.116-.1413l2.592-1.4957zM106.927 89.8036c.507-.2909.889-.3324 1.155-.1247.155.1717.27.3753.337.5964.068.2211.086.4544.053.6833.003.4345-.064.8666-.199 1.2796-.128.388-.331.7467-.598 1.0553l.831 1.8281c.004.0304.004.0611 0 .0914.011.0549.011.1114 0 .1662-.02.0465-.051.0867-.092.1164l-.515.2991c-.083.0416-.141.0499-.183 0-.031-.0361-.059-.0751-.083-.1163l-.789-1.7201-.831.4653v2.1771c-.002.072-.019.1429-.05.2078-.025.0568-.065.1056-.116.1412l-.491.2826h-.116c-.018-.0203-.032-.044-.04-.0697-.009-.0257-.012-.0529-.01-.0799v-6.041c.001-.0695.018-.1378.05-.1995.023-.0583.063-.1079.116-.1412l1.571-.8974zm-.906 3.465l.831-.5069c.222-.1241.412-.2975.557-.5068.15-.2503.222-.5395.208-.831 0-.349-.075-.5484-.208-.5817-.197-.0279-.397.0228-.557.1413l-.831.5069v1.7782zM109.428 94.8806c-.016.0135-.037.0209-.058.0209-.021 0-.042-.0074-.058-.0209-.019-.0199-.033-.0436-.041-.0694-.009-.0258-.012-.0531-.009-.0802v-6.0327c0-.0721.017-.1432.05-.2077.025-.0568.065-.1057.116-.1413l.49-.2825c.017-.0135.037-.0209.058-.0209.022 0 .042.0074.059.0209.018.0202.031.0439.04.0696.008.0258.012.053.009.08v6.0327c.001.0722-.016.1435-.049.2077-.026.0568-.066.1057-.117.1413l-.49.2825zM122.025 80.9702c.217-.134.461-.2165.715-.241.181-.0158.362.028.515.1247.137.0942.246.2233.316.3739.068.1609.107.3325.116.5069.001.0722-.017.1435-.05.2077-.025.0568-.065.1057-.116.1413l-.424.241c-.024.0124-.051.0188-.079.0188-.027 0-.054-.0064-.079-.0188-.038-.0282-.07-.0653-.091-.1081-.025-.0586-.063-.1112-.11-.1542-.048-.043-.103-.0754-.164-.095-.097-.0146-.195-.0096-.289.0146-.094.0243-.183.0674-.26.1266-.11.0597-.211.1353-.299.2244-.096.0876-.18.1883-.249.2991-.139.2012-.22.4371-.233.6814-.008.1085.012.2174.058.3158.021.0351.05.0647.085.0864.035.0216.074.0347.115.0382.118.0189.239.0189.357 0l.557-.1246c.205-.0603.418-.0883.631-.0831.157.0023.308.0548.432.1495.118.1017.204.2341.25.3823.055.2058.08.4185.074.6315.001.2811-.038.5609-.116.8309-.081.2905-.198.5697-.349.831-.153.2622-.337.5049-.548.7229-.22.2231-.469.4159-.74.5734-.198.1232-.418.2078-.648.2493-.184.0356-.374.0183-.548-.0499-.164-.0689-.299-.1922-.383-.349-.109-.2013-.167-.4271-.166-.6564-.015-.0684-.015-.1394 0-.2078.028-.0553.071-.1014.125-.1329l.424-.2493c.024-.0124.051-.0189.079-.0189.027 0 .054.0065.078.0189.045.0256.077.0673.092.1163.027.0643.06.1256.1.1828.039.0575.098.0988.166.1164.084.0214.173.0214.257 0 .137-.0323.266-.0886.383-.1662.125-.0699.245-.1505.357-.241.109-.0929.207-.199.291-.3158.088-.1072.158-.2278.208-.3573.057-.128.085-.267.083-.4071.006-.1037-.023-.2065-.083-.2909-.075-.0539-.166-.0803-.258-.0748-.146.0135-.29.0385-.432.0748l-.59.1247c-.177.0231-.355.0231-.532 0-.139-.0136-.27-.0719-.374-.1662-.111-.1094-.188-.2475-.224-.3989-.048-.2238-.071-.4524-.067-.6814.004-.2807.043-.56.117-.8309.154-.5551.439-1.0651.831-1.4874.203-.1997.436-.3677.689-.4986zM126.438 78.519h.141c.043.0557.072.1214.083.1912l1.487 5.0438c.005.0192.005.0391 0 .0582 0 .0722-.017.1432-.049.2077-.023.0584-.064.108-.117.1413l-.432.2493c-.083.0499-.141.0499-.174 0-.029-.0349-.051-.0742-.067-.1163l-.257-.8892-1.92 1.1052-.257 1.1883c0 .0581-.042.1246-.067.1911-.037.0779-.098.1419-.174.1828l-.433.2493h-.116c-.018-.0202-.032-.0439-.04-.0697-.009-.0257-.012-.0529-.01-.0799-.004-.0219-.004-.0446 0-.0665l1.488-6.7639c.013-.1005.041-.1986.083-.2908.031-.0652.08-.12.141-.1579l.69-.374zm.332 3.9138l-.673-2.2768-.665 3.0413 1.338-.7645zM131.116 75.8268c.016-.0135.037-.0209.058-.0209.021 0 .042.0074.058.0209.019.0196.033.0433.042.0691.009.0259.011.0534.008.0805v.6564c0 .0723-.017.1435-.05.2078-.025.0568-.065.1056-.116.1412l-1.097.6316v5.1186c.002.0715-.012.1426-.042.2078-.025.0568-.065.1056-.116.1412l-.49.2825h-.116c-.019-.0202-.032-.0439-.041-.0696-.008-.0257-.012-.0529-.009-.0799v-5.1187l-1.097.6315c-.007.0073-.016.0131-.025.0171-.009.0039-.019.006-.029.006-.01 0-.02-.0021-.03-.006-.009-.004-.017-.0098-.024-.0171-.018-.0202-.032-.0439-.041-.0696-.008-.0257-.011-.0529-.009-.0799v-.6648c.002-.072.019-.1428.05-.2077.02-.0575.058-.1071.108-.1413l3.008-1.7367zM141.154 69.9272c.213-.1407.459-.2237.714-.241.18-.0138.359.0268.515.1164.141.0901.251.2204.316.3739.067.1612.107.3326.117.5069.004.0716-.011.1431-.042.2077-.026.059-.069.1084-.125.1413l-.423.2493c-.067 0-.117.0498-.15 0-.033-.0499-.066-.0582-.1-.1081-.056-.1147-.154-.2038-.274-.2493-.097-.0124-.195-.0056-.289.02-.094.0257-.182.0697-.259.1296-.111.0597-.211.1353-.299.2244-.099.0828-.183.181-.25.2908-.07.1028-.126.2146-.166.3324-.043.1143-.065.2352-.066.3573-.005.1083.015.2161.058.3158.022.0338.051.0625.086.084.034.0215.073.0354.113.0406.119.0181.239.0181.357 0 .15 0 .341-.0665.557-.1246.206-.0536.419-.0787.632-.0748.155-.0006.307.0489.432.1412.117.1017.203.2341.249.3823.058.2082.086.4237.083.6398-.003.2814-.045.561-.124.831-.083.2901-.2.5692-.349.8309-.155.2635-.339.5087-.549.7313-.217.2229-.463.4157-.731.5733-.204.1161-.426.1976-.657.241-.178.0551-.369.0551-.548 0-.163-.0749-.297-.2002-.382-.3573-.106-.1999-.163-.422-.166-.6482-.001-.0722.016-.1435.049-.2077.026-.0568.066-.1057.117-.1413l.424-.2409c.066 0 .124-.0582.157 0 .043.0273.075.0683.092.1163.028.0635.061.1247.1.1828.041.0571.099.1005.166.1246.084.0252.173.0252.257 0 .139-.0282.271-.0817.391-.1578.124-.0719.241-.1554.349-.2493.112-.0898.212-.1931.299-.3075.082-.1141.152-.2367.208-.3656.05-.1269.075-.2623.075-.3989.006-.0515.002-.1038-.013-.1537-.014-.05-.038-.0966-.071-.1371-.035-.0292-.076-.0509-.121-.0638-.044-.0129-.09-.0166-.136-.011-.146.0101-.29.0324-.432.0665l-.59.1246c-.174.0277-.35.0277-.524 0-.141-.0088-.276-.0643-.382-.1578-.11-.1084-.185-.2473-.216-.3989-.055-.2228-.08-.4519-.075-.6814.004-.2808.043-.56.117-.8309.08-.2896.194-.5685.34-.831.14-.2501.31-.4818.507-.6897.18-.2156.393-.4007.632-.5484zM146.904 66.6945c.017-.0122.037-.0187.058-.0187.021 0 .042.0065.059.0187.018.0202.031.0439.04.0697.008.0257.012.0529.009.0799v3.8473c-.001.3737-.037.7465-.108 1.1135-.07.3418-.182.6738-.332.9888-.138.3044-.323.5849-.548.8309-.215.2494-.471.4602-.757.6233-.229.1473-.492.2358-.764.2576-.1.0049-.199-.011-.292-.0468-.093-.0358-.178-.0906-.248-.161-.162-.1719-.274-.3844-.324-.6149-.08-.3206-.116-.6503-.108-.9805v-3.839c0-.0721.017-.1432.05-.2077.025-.0569.065-.1057.116-.1413l.49-.2825c.016-.0135.037-.0209.058-.0209.022 0 .042.0074.058.0209.018.0202.032.0439.041.0696.008.0257.012.0529.009.0799v3.7809c-.004.207.018.4137.067.6149.029.1279.092.2456.183.3407.085.0653.192.0951.299.0831.129-.0222.252-.0672.365-.133.136-.0852.261-.1856.374-.2991.122-.1224.221-.2661.291-.4238.09-.1727.154-.3574.191-.5484.052-.229.077-.4633.075-.698v-3.731c0-.0723.017-.1435.05-.2078.022-.0583.063-.1079.116-.1412l.482-.3241zM150.743 71.0238h-.158l-.075-.0914-1.662-2.9v3.8473c-.001.072-.018.1428-.049.2078-.026.0568-.066.1056-.117.1412l-.49.2826h-.116c-.018-.0203-.032-.044-.041-.0697-.008-.0257-.011-.0529-.009-.0799V66.329c0-.0723.017-.1436.05-.2078.022-.0584.063-.1079.116-.1412l.374-.2743h.158l.075.0915 1.703 2.9v-3.8224c.002-.072.019-.1428.05-.2077.022-.0563.059-.1052.108-.1413l.499-.2825c.007-.0073.015-.0131.024-.0171.009-.0039.019-.006.03-.006.01 0 .02.0021.029.006.009.004.018.0098.025.0171.018.0202.031.0439.04.0696.008.0257.012.0529.009.0799v6.0411c0 .0694-.017.1378-.049.1994-.018.0588-.056.1091-.108.1413l-.416.2492z" fill="#455A64"/><path d="M18.7462 127.13c-.0783 0-.1546-.026-.217-.073-.0624-.048-.1074-.114-.1282-.19-.0208-.075-.0162-.156.0132-.228.0294-.073.0818-.134.1492-.174L153.178 48.7295c.082-.0474.18-.06.272-.0351.092.0249.171.0854.218.168.047.0827.06.1807.035.2727-.025.0919-.085.1702-.168.2176L18.9374 127.088c-.0577.034-.1247.049-.1912.042z" fill="#BA68C8"/><path d="M69.3595 86.2138c-.0639-.0568-.1173-.1243-.1579-.1995l-1.0553-2.2518v5.7502c-.0015.1326-.0328.2632-.0914.3822-.0449.1075-.12.1999-.216.2659l-1.4791.8309c-.0301.0258-.0684.0399-.108.0399-.0397 0-.078-.0141-.1081-.0399-.0326-.0373-.0575-.0808-.0732-.1279-.0157-.047-.0219-.0968-.0182-.1463V79.4914c.0016-.1327.0328-.2633.0914-.3823.0423-.1091.1179-.2022.2161-.2659l1.3046-.7561c.1579-.0914.2659-.0914.3407 0 .0578.06.1081.127.1495.1994l1.8281 3.7559 1.8281-5.8748c0-.0665.0748-.1912.1496-.3574.069-.1631.1884-.3.3407-.3905l1.3129-.7562c.0279-.0269.0651-.0419.1039-.0419.0387 0 .0759.015.1038.0419.0344.0362.0605.0796.0763.127.0158.0474.0209.0976.0151.1472v11.2345c.0006.1329-.0308.264-.0914.3823-.0423.1067-.1144.199-.2077.2659l-1.4874.8309c-.0279.0269-.0651.042-.1039.042-.0387 0-.076-.0151-.1039-.042-.0344-.0362-.0604-.0795-.0762-.1269-.0158-.0474-.021-.0977-.0152-.1473v-5.7585l-1.0636 3.4817c-.0443.1163-.0941.241-.1495.3739-.0588.1228-.1509.2265-.266.2992l-.7229.4238c-.1163.0747-.2077.083-.2659.0166zM79.6718 71.1569c.1578-.0914.2659-.0914.349 0 .0756.0808.1323.1773.1662.2826l2.4928 9.5393c.0265.0747.0406.1534.0416.2327-.0014.1085-.0239.2158-.0665.3157-.0354.0881-.0999.1614-.1828.2078l-1.421.8309c-.1495.0914-.2576.0997-.324 0-.0578-.0601-.098-.1348-.1164-.216l-.3157-1.2631-2.9998 1.7367-.3157 1.6619c-.0241.1245-.0661.2449-.1247.3573-.069.1431-.1828.2597-.324.3324l-1.421.831c-.0242.021-.0552.0326-.0872.0326-.0321 0-.0631-.0116-.0873-.0326-.0273-.0319-.0479-.0689-.0608-.1089-.0128-.0399-.0176-.082-.0139-.1238.0064-.0957.0231-.1904.0498-.2825l2.4929-12.3812c.0381-.1634.0938-.3222.1662-.4737.069-.1631.1884-.3.3406-.3905l1.7617-1.0886zm-1.8281 8.6752l1.8281-1.0553-.9141-3.6479-.914 4.7032zM86.9756 66.9439c.4075-.2561.8579-.4362 1.3295-.5318.3406-.0682.6943-.0122.9972.1578.3094.2083.5335.521.6315.8808.1681.5374.2439 1.0993.2243 1.6619.0092.8029-.1086 1.6022-.349 2.3683-.221.6816-.5583 1.3197-.9971 1.8862l1.4043 3.3238c.0079.0579.0079.1166 0 .1745-.0001.107-.0258.2124-.0748.3075-.0328.0892-.0941.1652-.1745.216l-1.5372.8892c-.1496.0914-.2576.0997-.3241 0-.0625-.0687-.1131-.1473-.1496-.2327l-1.2547-2.9914-1.0387.5982v3.7227c-.0027.1325-.0338.2629-.0914.3823-.0446.1078-.1197.2002-.2161.2659l-1.4791.8309c-.0301.0258-.0684.0399-.108.0399-.0396 0-.0779-.0141-.108-.0399-.0331-.0371-.0582-.0805-.0739-.1277-.0158-.0471-.0217-.097-.0175-.1465V69.3536c.0026-.1325.0338-.2628.0914-.3822.0472-.1062.1218-.198.216-.2659l3.0995-1.7616zm-1.2797 6.0078l1.2797-.7396c.3133-.1802.5806-.4305.7811-.7312.2193-.3563.3265-.7703.3074-1.1883 0-.4903-.0997-.7645-.3074-.831-.1352-.0269-.2745-.0253-.409.0047-.1345.0301-.2613.0879-.3721.1699l-1.2797.7395v2.576zM93.2744 67.9243v2.9249c.014.2378.0473.474.0997.7063.0418.1839.1273.3549.2493.4986.0549.0607.1214.1096.1957.1439.0742.0343.1547.0532.2364.0555.2288-.0061.451-.0783.6398-.2077.2387-.1306.4524-.3022.6316-.5069.1611-.1717.2981-.3646.4071-.5733.104-.1843.1876-.3793.2493-.5817.0499-.1994.0997-.3739.1247-.5318.0285-.1556.0702-.3085.1246-.457.0586-.1115.148-.2038.2576-.2659l1.4874-.831c.0249-.0195.0556-.0302.0873-.0302.0316 0 .0623.0107.0872.0302.0486.0643.0723.144.0665.2244-.0109.622-.106 1.2398-.2825 1.8364-.1751.6226-.4234 1.2223-.7396 1.7865-.3127.5575-.6861 1.0786-1.1135 1.5539-.3997.4502-.868.8344-1.3877 1.1384-.4342.2762-.932.4365-1.4458.4653-.4008.0064-.7903-.1323-1.0969-.3905-.3273-.2978-.566-.6803-.6897-1.1052-.176-.5366-.2685-1.0971-.2742-1.6619v-1.5206-1.5788c.0119-.6646.1011-1.3255.2659-1.9694.1627-.6605.3967-1.3013.698-1.9112.2911-.5978.6568-1.1562 1.0886-1.6619.4142-.4821.9056-.892 1.4541-1.2132.4183-.2634.8948-.4203 1.3877-.457.39-.0323.7802.0609 1.1135.2659.3384.2246.5972.5503.7396.9307.1937.4774.2897.9888.2825 1.504-.0024.1058-.025.2101-.0665.3075-.0328.0892-.0941.1652-.1745.216l-1.4874.831c-.1246.0747-.2077.0831-.2576 0-.0602-.0999-.1024-.2096-.1246-.3241-.0303-.1281-.072-.2533-.1247-.3739-.0521-.1242-.1386-.2309-.2493-.3075-.1201-.0793-.264-.1145-.4071-.0997-.2258.0217-.4427.0988-.6316.2243-.2415.1402-.4578.32-.6398.5319-.1737.2129-.319.4475-.4321.698-.1091.2513-.1926.513-.2493.7811-.053.2994-.0863.6019-.0997.9057zM105.764 56.0919c.03-.0258.068-.0399.108-.0399.039 0 .078.0141.108.0399.034.0362.06.0795.076.1269.016.0474.021.0977.015.1473v11.2511c.001.1329-.031.264-.091.3822-.045.1078-.12.2003-.216.266l-1.479.8309c-.029.0251-.066.039-.104.039-.038 0-.075-.0139-.104-.039-.035-.0375-.062-.0822-.077-.1311-.016-.0488-.021-.1005-.014-.1514v-4.2545l-2.493 1.4542v4.2544c-.003.1352-.034.2683-.092.3906-.044.1058-.119.1956-.216.2576l-1.4789.8309c-.0308.0243-.0688.0375-.108.0375s-.0772-.0132-.108-.0375c-.0337-.0383-.0592-.0832-.075-.1318-.0157-.0485-.0213-.0998-.0164-.1507V60.2467c.0015-.1327.0328-.2633.0914-.3823.0449-.1075.12-.1998.216-.2659l1.4789-.8309c.03-.0258.069-.0399.108-.0399.04 0 .078.0141.108.0399.034.0386.059.0835.075.132.015.0485.021.0997.017.1505v4.1547l2.493-1.4458v-4.1548c-.001-.1329.03-.2639.091-.3822.039-.1064.112-.1969.208-.2576l1.479-.8725zM22.8761 111.608l2.2103 1.013c.0727.041.1398.092.1994.15.0402.045.0706.098.0892.155.0186.057.025.117.0189.177v1.28c.0006.089-.0193.177-.0582.258-.0286.071-.0778.131-.1413.174h-.108l-3.4235-1.579c-.0805-.028-.1522-.076-.2078-.141-.06-.097-.0863-.211-.0747-.324v-.632c-.0031-.142.0223-.283.0747-.415.0601-.132.1295-.26.2078-.382l3.4235-5.526.0582-.075h.0498c.0196-.017.0447-.026.0707-.026.0259 0 .051.009.0706.026.0223.026.039.057.0491.09.01.032.0131.067.0091.101v1.28c-.0002.156-.0372.31-.1081.449-.0595.133-.1261.264-.1994.39l-2.2103 3.557zM144.719 38.9491c-.076-.0407-.145-.0909-.208-.1496-.078-.0925-.117-.2117-.108-.3324v-1.2796c.003-.0887.023-.1761.058-.2576.032-.0716.084-.1323.15-.1745H144.719l3.415 1.5788c.084.0258.159.0747.216.1412.06.0968.086.2108.075.3241v.6315c.004.1395-.022.2783-.075.4072-.06.1366-.132.2674-.216.3905l-3.415 5.5342c-.019.0305-.041.0584-.067.0831h-.041c-.021.0176-.048.0272-.075.0272-.027 0-.054-.0096-.075-.0272-.041-.0549-.062-.1226-.058-.1911v-1.288c.005-.158.042-.3135.108-.457.075-.1496.141-.2742.208-.3906l2.185-3.5731-2.185-.9971z" fill="#455A64"/><path d="M57.211 37.8107c.0419-.3647-.0128-.734-.1587-1.0709-.1458-.3369-.3777-.6295-.6723-.8486l-4.6367-2.6673c-.3355-.1567-.707-.2201-1.0755-.1836-.3685.0366-.7203.1718-1.0185.3913L7.5034 57.7536c-.8615.5618-1.57837 1.3188-2.09236 2.2096-.514.8909-.81064 1.8904-.86582 2.9174v14.5333c-.04364.3649.01029.7348.15627 1.072.14598.3372.37878.6297.67468.8475l4.62843 2.6674c.3346.1542.7044.2163 1.0711.1798.3666-.0366.7169-.1703 1.0146-.3875l42.1293-24.322c.8615-.5618 1.5783-1.3188 2.0923-2.2097.514-.8908.8107-1.8903.8658-2.9173l.0333-14.5334z" fill="#BA68C8"/><path opacity=".2" d="M10.096 82.0256c-.0092.0039-.0191.0059-.0291.0059-.0099 0-.0198-.002-.029-.0059L5.40946 79.35c-.29521-.2166-.52768-.5076-.67366-.8434-.14599-.3357-.20026-.7042-.15729-1.0678V62.8805c.02156-.8445.23165-1.6735.6149-2.4264l4.60348 2.6674c-.37254.7589-.57663 1.5895-.59828 2.4346v14.5334c-.04617.3743.01343.7541.17205 1.0963.15861.3422.40989.6331.72534.8398z" fill="#000"/><path opacity=".2" d="M56.2138 35.7916c-.3249-.1087-.6708-.1398-1.0099-.0907-.3391.0491-.662.1769-.9428.3732L12.1318 60.4044c-1.0243.6613-1.8353 1.605-2.33496 2.7172l-4.60348-2.6674c.49812-1.1062 1.30631-2.0443 2.32667-2.7006L49.6493 33.4234c.3008-.2143.6527-.3455 1.0203-.3805.3676-.035.7379.0274 1.0737.181.4737.2825 3.6396 2.1023 4.4705 2.5677z" fill="#fff"/></svg>