<svg width="256" height="210" fill="none" xmlns="http://www.w3.org/2000/svg"><path d="M.0543213 118.015v16.401c.0012822 1.267.3352157 2.512.9683987 3.61.63318 1.097 1.54343 2.01 2.63976 2.645L121.42 208.617c1.001.735 2.178 1.191 3.413 1.323 1.235.132 2.482-.066 3.616-.573l124.833-72.14c.884-.611 1.588-1.45 2.037-2.426.449-.977.628-2.057.516-3.127-.238-3.193-1.224-6.285-2.876-9.028-1.652-2.743-3.925-5.059-6.636-6.763L124.958 45.8284.0543213 118.015z" fill="#455A64"/><path d="M121.42 188.023L.0543213 118.015v16.401c.0012822 1.267.3352157 2.512.9683987 3.61.63318 1.097 1.54343 2.01 2.63976 2.645L121.42 208.617c5.248 3.046 9.512.891 9.512-4.803-.233-3.194-1.216-6.289-2.869-9.032-1.653-2.744-3.929-5.06-6.643-6.759z" fill="#37474F"/><path d="M115.867 191.678c.906.567 1.664 1.34 2.214 2.256.55.916.875 1.949.949 3.015 0 1.898-1.406 2.601-3.163 1.594L.0543213 131.698v-6.888L115.867 191.678z" fill="#263238"/><path d="M255.859 95.6164v16.4006c-.002 1.267-.335 2.512-.969 3.61-.633 1.098-1.543 2.01-2.639 2.646l-117.758 67.946c-1.001.734-2.178 1.191-3.413 1.322-1.235.132-2.482-.066-3.616-.573L2.58465 114.899c-.8825-.613-1.58473-1.452-2.033808-2.428-.449077-.977-.628626-2.056-.5200123-3.125.2333763-3.194 1.2162603-6.289 2.8689603-9.032 1.6527-2.7441 3.9287-5.0597 6.64346-6.7594L130.909 23.4766l124.95 72.1398z" fill="#CCAFD2"/><path d="M255.859 95.6164v16.4006c-.002 1.267-.335 2.512-.969 3.61-.633 1.098-1.543 2.01-2.639 2.646l-117.758 67.946c-1.001.734-2.178 1.191-3.413 1.322-1.235.132-2.482-.066-3.616-.573L2.58465 114.899c-.8825-.613-1.58473-1.452-2.033808-2.428-.449077-.977-.628626-2.056-.5200123-3.125.2333763-3.194 1.2162603-6.289 2.8689603-9.032 1.6527-2.7441 3.9287-5.0597 6.64346-6.7594L130.909 23.4766l124.95 72.1398z" fill="#A26DAD" opacity=".5"/><path opacity=".2" d="M134.493 165.671l121.366-70.0548v16.4008c-.002 1.267-.335 2.512-.969 3.61-.633 1.098-1.543 2.01-2.639 2.646l-117.758 67.945c-5.248 3.023-9.512.867-9.512-4.826.249-3.181 1.24-6.259 2.891-8.989 1.652-2.73 3.92-5.035 6.621-6.732z" fill="#000"/><path opacity=".2" d="M140.046 169.349c-.904.563-1.662 1.332-2.211 2.244-.55.913-.876 1.942-.952 3.004 0 1.898 1.406 2.624 3.163 1.617l115.813-66.868v-6.865l-115.813 66.868z" fill="#000"/><path d="M.0543213 72.1164v16.4007c.0018891 1.2703.3358547 2.5181.9687787 3.6195.63291 1.1015 1.5428 2.0183 2.63938 2.6596L121.42 162.742c1.001.735 2.178 1.191 3.413 1.323 1.235.132 2.482-.066 3.616-.573l124.833-72.093c.882-.6135 1.584-1.4519 2.033-2.4284.45-.9764.629-2.0553.52-3.1245-.237-3.1936-1.221-6.2866-2.873-9.0297-1.653-2.743-3.927-5.0593-6.639-6.7619L124.958 0 .0543213 72.1164z" fill="#EED9F1"/><path opacity=".2" d="M121.42 142.194L.0543213 72.1165v16.4007c.0018891 1.2703.3358547 2.5181.9687787 3.6195.63291 1.1015 1.5428 2.0183 2.63938 2.6596L121.42 162.742c5.248 3.046 9.512.891 9.512-4.803-.24-3.186-1.227-6.271-2.879-9.006-1.652-2.735-3.925-5.043-6.633-6.739z" fill="#000"/><path opacity=".2" d="M115.867 145.849c.906.567 1.664 1.34 2.214 2.256.55.917.875 1.95.949 3.016 0 1.898-1.406 2.601-3.163 1.593L.0543213 85.8461v-6.8649L115.867 145.849z" fill="#000"/><path d="M144.662 35.3317c-2.343-8.505-13.941-24.5542-22.539-29.38074-8.599-4.8265-27.9051-3.51444-43.5795 3.06928C62.8691 15.604 46.2341 25.421 41.3608 32.075c-3.7488 5.0374-7.8724 22.4222-7.8724 22.4222 2.343 7.31 10.9885 30.763 47.773 31.6768 12.6431.406 25.2956-.4495 37.7686-2.5539l-1.195-23.6639 19.048 13.4252s10.005-29.5448 7.779-38.0497z" fill="#455A64"/><path d="M50.9199 47.4215c-1.8275-7.0289.7732-17.3379 9.3718-24.3199 8.5987-6.9821 31.1146-15.93216 42.4073-16.7522 11.293-.82004 23.43 6.2323 22.376 25.1634L50.9199 47.4215z" fill="#37474F"/><path d="M69.0545 31.3252C44.922 45.2424 47.2415 48.546 61.6507 55.3171c21.0867 9.8405 56.2313 4.1705 56.2313 4.1705s14.058-29.5916 3.257-38.0497c-10.802-8.4581-27.952-3.983-52.0845 9.8873z" fill="#BA68C8"/><path d="M69.0545 31.3252C44.922 45.2424 47.2415 48.546 61.6507 55.3171c21.0867 9.8405 56.2313 4.1705 56.2313 4.1705s14.058-29.5916 3.257-38.0497c-10.802-8.4581-27.952-3.983-52.0845 9.8873z" fill="#E3C3E9"/><path opacity=".2" d="M124.981 89.2903l43.813 25.3037c6.301 3.634 11.188 9.289 13.871 16.05l.187.492-2.718-3.96c-2.471-3.625-5.661-6.703-9.372-9.044l-45.781-28.8417z" fill="#000"/><path d="M143.725 92.2425c1.571.7856 3.304 1.1946 5.06 1.1946 1.757 0 3.49-.409 5.061-1.1946.612-.2077 1.144-.6018 1.52-1.1271.377-.5253.579-1.1554.579-1.8016 0-.6463-.202-1.2764-.579-1.8016-.376-.5253-.908-.9195-1.52-1.1271-1.571-.7857-3.304-1.1947-5.061-1.1947-1.756 0-3.489.409-5.06 1.1947-.612.2076-1.144.6018-1.52 1.1271-.377.5252-.579 1.1553-.579 1.8016 0 .6462.202 1.2763.579 1.8016.376.5253.908.9194 1.52 1.1271zM167.529 105.949c1.564.796 3.294 1.211 5.049 1.211 1.755 0 3.485-.415 5.049-1.211.615-.202 1.151-.592 1.531-1.116.379-.524.584-1.154.584-1.801s-.205-1.278-.584-1.802c-.38-.524-.916-.914-1.531-1.115-1.564-.7967-3.294-1.2117-5.049-1.2117-1.755 0-3.485.415-5.049 1.2117-.615.201-1.15.591-1.53 1.115-.38.524-.584 1.155-.584 1.802s.204 1.277.584 1.801.915.914 1.53 1.116z" fill="#455A64"/></svg>