<svg width="252" height="206" fill="none" xmlns="http://www.w3.org/2000/svg"><path d="M91.9323 60.0056L251.81 152.303l-91.932 53.082L0 113.077l91.9323-53.0714z" fill="#BA68C8"/><path opacity=".6" d="M91.9323 60.0056L251.81 152.303l-91.932 53.082L0 113.077l91.9323-53.0714z" fill="#fff"/><path opacity=".2" d="M91.9323 60.0056L251.81 152.303l-91.932 53.082L0 113.077l91.9323-53.0714z" fill="#000"/><path d="M91.9321 0L251.81 92.3083v59.9947L91.9321 60.0054V0z" fill="#BA68C8"/><path opacity=".6" d="M91.9321 0L251.81 92.3083v59.9947L91.9321 60.0054V0z" fill="#fff"/><path opacity=".1" d="M91.9321 0L251.81 92.3083v59.9947L91.9321 60.0054V0z" fill="#000"/><path d="M0 53.0825L91.9323 0v60.0054L0 113.077V53.0825z" fill="#BA68C8"/><path opacity=".6" d="M0 53.0825L91.9323 0v60.0054L0 113.077V53.0825z" fill="#fff"/><path d="M10.1297 81.6593l75.6758-43.6936c.6603-.3325 1.3894-.5057 2.1288-.5057.7394 0 1.4684.1732 2.1288.5057l35.7089 20.6137c.621.4044 1.139.9496 1.509 1.5914.371.6418.585 1.3621.626 2.1023v1.2828c-.041.7402-.255 1.4605-.626 2.1023-.37.6418-.888 1.187-1.509 1.5914L50.0964 110.943c-.6604.333-1.3894.506-2.1288.506-.7394 0-1.4685-.173-2.1288-.506L10.1297 90.3184c-.62103-.402-1.13814-.9452-1.50909-1.5852-.37095-.6401-.5852-1.3588-.62525-2.0975v-1.2828c.03833-.7406.25178-1.4615.6228-2.1036.37103-.6421.88905-1.187 1.51154-1.59z" fill="#E0E0E0"/><path opacity=".2" d="M90.0635 37.9652c-.6588-.3377-1.3885-.5138-2.1288-.5138-.7404 0-1.4701.1761-2.1289.5138L10.1301 81.6588c-.51941.3192-.96136.7498-1.29392 1.2607.33604.5051.77745.9313 1.29392 1.2496l35.709 20.6249c.6604.332 1.3895.506 2.1289.506.7393 0 1.4684-.174 2.1288-.506l75.6762-43.6936c.513-.3268.953-.756 1.293-1.2608-.335-.5081-.777-.9381-1.293-1.2607L90.0635 37.9652z" fill="#000"/><path opacity=".15" d="M44.6887 107.891c-.1701.003-.338-.039-.4866-.122L9.80912 88.0291c-.11714-.0618-.2206-.1467-.30418-.2494-.08358-.1027-.14558-.2213-.18226-.3485-.03668-.1273-.0473-.2607-.03122-.3921.01608-.1315.05852-.2583.12479-.373.06627-.1147.155-.2148.26088-.2944.10588-.0795.22673-.1369.35527-.1687.1286-.0317.2623-.0372.393-.0161.1308.0212.2559.0685.368.1391l34.3819 19.729c.1869.108.3329.275.4156.474.0828.2.0976.421.0423.63-.0553.208-.1778.393-.3484.525-.1707.133-.3801.205-.5961.207z" fill="#000"/><path d="M10.1297 73.5641l75.6758-43.6714c.6603-.3325 1.3894-.5057 2.1288-.5057.7394 0 1.4684.1732 2.1288.5057l35.7089 20.6137c.621.4044 1.139.9496 1.509 1.5914.371.6418.585 1.3621.626 2.1023v1.2828c-.039.7406-.252 1.4615-.623 2.1036-.371.6421-.889 1.1871-1.512 1.5901L50.0964 102.881c-.6604.333-1.3894.506-2.1288.506-.7394 0-1.4685-.173-2.1288-.506L10.1297 82.2674c-.62125-.4043-1.13834-.9495-1.50921-1.5914-.37086-.6418-.58504-1.362-.62513-2.1022V77.291c.03495-.7459.2467-1.4728.61779-2.1208.3711-.648.8909-1.1985 1.51655-1.6061z" fill="#E0E0E0"/><path opacity=".2" d="M90.0635 29.8927c-.6604-.3325-1.3895-.5057-2.1288-.5057-.7394 0-1.4685.1732-2.1289.5057L10.1301 73.5863c-.51676.3225-.95803.7525-1.29392 1.2607.33604.505.77745.9313 1.29392 1.2496l35.709 20.6248c.6604.3325 1.3895.5057 2.1289.5057.7393 0 1.4684-.1732 2.1288-.5057l75.6762-43.6936c.516-.3225.958-.7525 1.293-1.2607-.34-.5047-.78-.9339-1.293-1.2607L90.0635 29.8927z" fill="#000"/><path opacity=".15" d="M44.6885 99.8064c-.171-.0007-.3388-.0464-.4865-.1327L9.80893 79.9447c-.11256-.0646-.21128-.1508-.29053-.2535-.07925-.1028-.13749-.2202-.17138-.3455-.03389-.1252-.04276-.256-.02612-.3847.01663-.1287.05846-.2529.12308-.3654.06463-.1126.1508-.2113.25357-.2906.10278-.0792.22016-.1375.34545-.1714.1253-.0338.256-.0427.3847-.0261.1287.0167.2529.0585.3655.1231l34.3819 19.7401c.1869.1082.3329.275.4156.4744.0828.1995.0976.4206.0423.6293-.0553.2087-.1778.3934-.3484.5257-.1707.1323-.3801.2048-.5961.2063z" fill="#000"/><path d="M10.1297 65.6898l75.6758-43.6936c.6603-.3325 1.3894-.5057 2.1288-.5057.7394 0 1.4684.1732 2.1288.5057L125.772 42.621c.622.4006 1.141.9435 1.512 1.5838.371.6403.584 1.3597.623 2.0988v1.2828c-.039.7406-.252 1.4616-.623 2.1036-.371.6421-.889 1.1871-1.512 1.5901L50.0964 94.9736c-.6604.3326-1.3894.5058-2.1288.5058-.7394 0-1.4685-.1732-2.1288-.5058L10.1297 74.3599c-.62125-.4043-1.13834-.9496-1.50921-1.5914-.37086-.6418-.58504-1.3621-.62513-2.1022v-1.2829c.04009-.7401.25427-1.4604.62513-2.1022.37087-.6418.88796-1.1871 1.50921-1.5914z" fill="#E0E0E0"/><path opacity=".15" d="M46.8121 89.3336l79.7899-46.0491c-.242-.2611-.522-.4848-.83-.6635L90.0633 21.9962c-.6603-.3325-1.3894-.5057-2.1288-.5057-.7394 0-1.4685.1732-2.1288.5057L10.1299 65.6898c-.60133.3802-1.10207.9-1.45973 1.515L46.8121 89.3336z" fill="#000"/><path d="M46.7235 87.7301l79.8115-46.226-36.494-19.5079c-.6604-.3325-1.3895-.5057-2.1288-.5057-.7394 0-1.4685.1732-2.1289.5057L10.1076 65.6898c-.63096.3949-1.15208.9426-1.51507 1.5925L46.7235 87.7301z" fill="#FAFAFA"/><path opacity=".15" d="M44.6885 91.9325c-.171-.0008-.3388-.0465-.4866-.1327l-34.393-19.729c-.22374-.1339-.38682-.3493-.4549-.601-.06807-.2516-.03582-.5199.08996-.7482.06516-.112.15179-.2101.25494-.2886.10315-.0784.22079-.1357.3461-.1686.1254-.0329.256-.0407.3844-.023.1284.0178.252.0607.3637.1263l34.382 19.729c.1868.1083.3329.275.4156.4744.0827.1995.0976.4206.0423.6293-.0554.2087-.1778.3935-.3485.5257-.1706.1323-.3801.2048-.596.2064z" fill="#000"/><path d="M39.9665 67.4155c-.0853-.0002-.1689-.0228-.2427-.0655-.0737-.0427-.135-.104-.1776-.1778-.0648-.1132-.0825-.2473-.0494-.3735.033-.1262.1143-.2343.2264-.3011l27.9788-16.157c.1146-.0639.2497-.08.376-.0447.1263.0352.2336.1188.2986.2327.0643.1115.0818.2439.0486.3683-.0332.1244-.1142.2305-.2255.2952l-27.9789 16.157c-.0775.044-.1652.0669-.2543.0664zM43.9699 69.7044c-.0884.0019-.1756-.0209-.2518-.0659-.0762-.0449-.1384-.1102-.1795-.1885-.0642-.1115-.0817-.244-.0485-.3683.0331-.1244.1142-.2305.2255-.2952l27.9788-16.157c.1112-.0463.2354-.0506.3495-.0123.1142.0383.2106.1167.2714.2207.0607.1039.0817.2264.0591.3446-.0227.1183-.0874.2244-.1823.2985L44.2132 69.7044c-.0799.0196-.1634.0196-.2433 0zM47.9619 72.0383c-.0877-.0016-.1736-.0258-.2491-.0704-.0756-.0446-.1383-.1079-.1822-.1839-.0329-.0555-.0542-.1171-.0625-.1811-.0083-.064-.0036-.129.014-.1911.0176-.062.0477-.1199.0883-.17.0407-.05.0911-.0914.1482-.1213l27.9789-16.157c.0548-.0333.1158-.0553.1793-.0644.0635-.0091.1282-.0053.1902.0113.062.0165.12.0454.1706.0849.0505.0395.0925.0889.1234.1451.0336.0557.0557.1175.0649.1819.0093.0643.0055.1299-.0109.1927-.0165.0629-.0455.1219-.0851.1734-.0397.0515-.0892.0946-.1458.1266L48.2052 71.972c-.0743.0422-.1579.065-.2433.0663zM51.9545 74.3375c-.0852-.0002-.1689-.0228-.2426-.0654-.0738-.0427-.135-.1041-.1776-.1779-.0648-.1132-.0826-.2473-.0495-.3734.0331-.1262.1144-.2344.2264-.3012l27.9789-16.1459c.0557-.0335.1175-.0556.1819-.0649.0643-.0092.1299-.0055.1928.011.0628.0165.1218.0454.1733.0851.0515.0396.0946.0892.1266.1458.0639.1145.0799.2496.0447.3759-.0352.1263-.1188.2336-.2327.2986l-27.9789 16.146c-.0737.0436-.1577.0665-.2433.0663z" fill="#E0E0E0"/><path d="M97.3509 44.6668l-13.0716-4.1692c-3.6162-1.1058-5.4078-3.572-4.335-5.8833 3.9922-.6192 8.1946.4203 10.1962 2.5104l7.2104 7.5421zM96.8863 45.8393l-12.5961.8957c-3.4835.2544-6.8233-.8957-8.0729-2.7868 2.2118-1.5814 5.9939-2.0791 9.1788-1.2275l11.4902 3.1186zM97.9151 46.6572l-6.5469 3.5389c-1.0284.4935-2.1449.777-3.2842.834-1.1393.0569-2.2786-.1138-3.3511-.5023.1217-1.4266 1.9243-2.6209 4.3572-2.8974l8.825-.9732zM99.3747 44.401l1.5703-7.2767c.431-2.0127-1.5703-3.937-4.8437-4.6558-2.7315 1.2718-3.6052 3.4614-2.1122 5.2972l5.3856 6.6353zM100.801 45.0213l6.116-3.7822c1.692-1.0395 1.935-2.6209.586-3.8153-2.477.0664-4.545 1.1059-5.01 2.5104l-1.692 5.0871z" fill="#BA68C8"/><path d="M127.907 66.928l-79.9446 46.149v13.845l39.9667 23.08 79.9449-46.16V89.9968L127.907 66.928z" fill="#FAFAFA"/><path d="M167.873 89.9966v13.8454l-79.944 46.16v-13.846l79.944-46.1594z" fill="#E0E0E0"/><path d="M182.482 102.726c-.137-.299-.36-.549-.641-.719l-1.195-.686c-.334-.147-.702-.203-1.065-.163-.363.041-.709.178-1.003.396l-17.008 9.82v9.201l1.161.685 17.02-9.798c.864-.569 1.583-1.332 2.1-2.229.516-.897.816-1.902.875-2.935v-2.311c.014-.434-.069-.865-.244-1.261zm-3.87 6.702c-.774.442-1.416.221-1.604-.498-.018-.154-.018-.31 0-.465.032-.575.199-1.135.487-1.635.288-.499.69-.924 1.172-1.24.138-.081.287-.14.442-.177.708-.188 1.228.266 1.228 1.106-.03.585-.199 1.154-.493 1.66-.295.505-.706.934-1.199 1.249h-.033z" fill="#FAFAFA"/><path d="M182.482 102.726c-.109-.263-.294-.487-.529-.646-.236-.159-.513-.246-.798-.25-.497-.008-.985.13-1.404.398l-17.02 9.82v9.234l17.02-9.82c.864-.569 1.583-1.333 2.1-2.229.516-.897.816-1.902.875-2.935v-2.312c.014-.433-.069-.864-.244-1.26zm-3.87 6.701c-.774.443-1.416.222-1.604-.497-.018-.155-.018-.31 0-.465.032-.575.199-1.135.487-1.635.288-.499.69-.924 1.172-1.24.138-.081.287-.14.443-.177.707-.188 1.227.265 1.227 1.106-.03.584-.199 1.153-.493 1.659-.295.506-.706.935-1.199 1.249h-.033z" fill="#E0E0E0"/><path d="M180.282 106.552c-.033.577-.201 1.138-.491 1.637-.29.5-.694.924-1.179 1.238-.774.443-1.416.221-1.604-.497.151-.04.296-.1.431-.177.485-.314.889-.738 1.18-1.238.29-.5.458-1.061.49-1.638-.005-.156-.024-.311-.055-.464.697-.188 1.228.265 1.228 1.139z" fill="#E0E0E0"/><path opacity=".2" d="M180.282 106.552c-.033.577-.201 1.138-.491 1.637-.29.5-.694.924-1.179 1.238-.774.443-1.416.221-1.604-.497.151-.04.296-.1.431-.177.485-.314.889-.738 1.18-1.238.29-.5.458-1.061.49-1.638-.005-.156-.024-.311-.055-.464.697-.188 1.228.265 1.228 1.139z" fill="#000"/><path d="M197.323 111.374c-.136-.296-.355-.546-.63-.719l-1.194-.686c-.335-.147-.702-.204-1.066-.163-.363.041-.709.177-1.002.395l-16.909 9.765v9.19l1.105.675 16.932-9.776c.862-.563 1.579-1.321 2.094-2.212.515-.891.813-1.892.869-2.92v-2.333c.024-.415-.044-.83-.199-1.216zm-3.848 6.635c-.774.442-1.416.21-1.593-.498-.045-.15-.067-.307-.066-.464.034-.572.201-1.129.49-1.624.288-.496.688-.917 1.169-1.229.131-.085.278-.145.431-.177.708-.199 1.228.254 1.228 1.106-.026.583-.19 1.151-.479 1.659-.288.507-.693.939-1.18 1.26v-.033z" fill="#FAFAFA"/><path d="M197.323 111.374c-.108-.264-.292-.489-.528-.648-.236-.16-.514-.246-.799-.248-.493-.008-.978.131-1.393.398l-16.931 9.776v9.179l16.931-9.776c.862-.563 1.579-1.321 2.094-2.212.515-.891.813-1.892.87-2.919v-2.334c.009-.418-.074-.834-.244-1.216zm-3.848 6.635c-.774.442-1.416.21-1.593-.498-.045-.15-.067-.307-.066-.464.034-.572.202-1.129.49-1.624.288-.496.688-.917 1.169-1.229.132-.085.278-.145.431-.177.708-.199 1.228.254 1.228 1.106-.026.583-.19 1.151-.479 1.659-.288.507-.693.939-1.18 1.26v-.033z" fill="#E0E0E0"/><path d="M195.133 115.178c-.034.574-.202 1.131-.49 1.629-.288.497-.688.92-1.168 1.236-.775.442-1.416.21-1.593-.498.15-.044.294-.103.431-.177.48-.315.88-.738 1.166-1.236.286-.497.451-1.055.482-1.628.001-.153-.018-.305-.055-.454.708-.199 1.227.255 1.227 1.128z" fill="#E0E0E0"/><path opacity=".2" d="M195.133 115.178c-.034.574-.202 1.131-.49 1.629-.288.497-.688.92-1.168 1.236-.775.442-1.416.21-1.593-.498.15-.044.294-.103.431-.177.48-.315.88-.738 1.166-1.236.286-.497.451-1.055.482-1.628.001-.153-.018-.305-.055-.454.708-.199 1.227.255 1.227 1.128z" fill="#000"/><path d="M138.424 118.485l21.587-12.519c.66-.332 1.389-.505 2.128-.505.74 0 1.469.173 2.129.505l15.726 9.08c.619.406 1.135.952 1.506 1.593.37.642.586 1.361.628 2.1v13.536c-.041.74-.255 1.46-.626 2.102-.371.642-.887 1.187-1.508 1.592l-21.587 12.508c-.659.337-1.389.514-2.129.514s-1.47-.177-2.129-.514l-15.725-9.102c-.621-.402-1.137-.946-1.508-1.586-.371-.639-.586-1.358-.627-2.096v-13.525c.041-.739.256-1.457.627-2.097.371-.64.887-1.183 1.508-1.586z" fill="#455A64"/><path d="M182.117 118.739v13.536c-.04.739-.252 1.458-.621 2.1-.369.641-.884 1.187-1.502 1.594l-21.587 12.507c-.609.313-1.279.488-1.964.513-.684.025-1.365-.101-1.995-.369 1.039.442 1.836-.122 1.836-1.371v-13.548c-.029-.737-.242-1.455-.62-2.09l25.834-14.973c.383.636.596 1.359.619 2.101z" fill="#37474F"/><path d="M156.284 147.249v-13.536c-.041-.74-.256-1.46-.627-2.102-.37-.641-.887-1.187-1.508-1.592l-15.725-9.079c-1.173-.675-2.135-.133-2.135 1.228v13.547c.041.738.256 1.457.627 2.096.371.64.887 1.184 1.508 1.586l15.725 9.08c1.173.685 2.135.132 2.135-1.228z" fill="#263238"/><path d="M141.355 128.405l9.864 5.695c.318.195.584.464.776.783.193.32.306.681.33 1.053v4.423c0 .675-.476.951-1.106.62l-9.864-5.696c-.317-.199-.582-.47-.774-.791-.193-.321-.306-.682-.332-1.056v-4.423c.044-.697.519-.951 1.106-.608z" fill="#37474F"/><path d="M152.281 140.404v-4.424c-.025-.372-.138-.733-.33-1.052-.193-.319-.459-.588-.776-.783l-4.91-2.843-5.696 3.318c.175.321.431.592.741.785l9.865 5.696c.63.254 1.106-.023 1.106-.697z" fill="#455A64"/><path d="M152.281 140.404v-4.424c-.025-.372-.138-.733-.33-1.052-.193-.319-.459-.588-.776-.783l-4.91-2.843-5.696 3.318c.175.321.431.592.741.785l9.865 5.696c.63.254 1.106-.023 1.106-.697z" fill="#455A64"/><path d="M152.281 135.935c-.025-.372-.138-.733-.33-1.052-.193-.319-.459-.588-.776-.783l-8.77-5.065-1.017.586 9.709 7.675 1.106-.664.078-.697z" fill="#BA68C8"/><path opacity=".3" d="M152.281 135.935c-.025-.372-.138-.733-.33-1.052-.193-.319-.459-.588-.776-.783l-8.77-5.065-1.017.586 9.709 7.675 1.106-.664.078-.697z" fill="#000"/><path opacity=".3" d="M151.141 137.296l1.106-.663v-.697c-.012-.395-.134-.778-.354-1.106l-2.211 1.294 1.459 1.172z" fill="#000"/><path d="M142.084 129.676l8.405 4.855c.264.172.484.404.641.677.158.272.249.579.265.893v.598c0 .586-.409.818-.906.53l-8.405-4.854c-.264-.173-.483-.405-.64-.678-.158-.272-.249-.578-.267-.893v-.608c0-.575.409-.774.907-.52zM159.878 145.38l91.932-53.0717v59.9947l-91.932 53.082V145.38z" fill="#BA68C8"/><path opacity=".6" d="M159.878 145.38l91.932-53.0717v59.9947l-91.932 53.082V145.38z" fill="#fff"/><path d="M159.878 145.38L0 53.083v59.994l159.878 92.309V145.38z" fill="#BA68C8"/><path opacity=".75" d="M159.878 145.38L0 53.083v59.994l159.878 92.309V145.38z" fill="#fff"/><path d="M136.776 176.245c-.924-.643-1.681-1.497-2.208-2.492-.527-.994-.809-2.1-.822-3.226v-8.758l6.149 3.605.398-.067v8.427c.049.511-.037 1.026-.248 1.493-.212.468-.542.872-.958 1.172-.293.167-.625.254-.962.255-.478-.016-.943-.157-1.349-.409zm.675-9.434l-.443 3.075h-2.278v.641c.021.951.26 1.884.699 2.728.439.844 1.067 1.575 1.834 2.138.19.14.414.227.649.252.235.026.473-.012.689-.108.259-.218.46-.496.583-.811.124-.315.167-.656.124-.992v-7.254l-1.857.331zm-.83-.895l1.814-.321-3.661-2.157v5.419h1.427l.42-2.941z" fill="#455A64"/><path d="M137.019 182.903c.13-.003.254-.057.345-.15.091-.093.142-.218.142-.348v-6.635c.011-.071.006-.143-.014-.212s-.054-.133-.101-.187c-.047-.054-.105-.098-.17-.128-.065-.03-.136-.045-.207-.045-.072 0-.143.015-.208.045s-.123.074-.169.128c-.047.054-.082.118-.101.187-.02.069-.025.141-.014.212v6.635c0 .132.052.259.145.352.094.093.22.146.352.146z" fill="#455A64"/><path d="M139.939 184.551c.085 0 .169-.023.242-.066.074-.042.135-.104.178-.178.065-.113.082-.247.049-.373s-.114-.234-.226-.301l-5.773-3.34c-.056-.032-.117-.052-.181-.061-.064-.008-.129-.003-.191.014s-.12.046-.171.085c-.051.04-.094.089-.126.145-.032.056-.052.117-.061.181-.008.064-.003.129.014.191s.046.12.085.171c.04.051.089.094.145.126l5.717 3.317c.088.06.192.091.299.089zM119.48 173.215c.191.003.378-.046.542-.144.197-.125.357-.301.462-.509.105-.209.152-.442.135-.674v-1.35c0-.132-.052-.258-.146-.351-.093-.094-.219-.146-.351-.146-.132 0-.259.052-.352.146-.094.093-.146.219-.146.351v1.35c.014.117-.018.236-.089.331 0 0-.154 0-.32-.088-.303-.282-.541-.625-.699-1.006-.159-.382-.233-.793-.219-1.206v-8.758c.011-.071.006-.144-.014-.212-.02-.069-.054-.133-.101-.187-.047-.054-.105-.098-.17-.128-.065-.03-.136-.045-.207-.045-.072 0-.143.015-.208.045s-.123.074-.169.128c-.047.054-.082.118-.101.187-.02.068-.025.141-.014.212v8.758c-.024.586.09 1.169.332 1.702.242.534.605 1.004 1.061 1.372.234.141.501.217.774.222z" fill="#455A64"/><path d="M111.573 157.987v-.287c-.16-.848-.054-1.725.305-2.51.359-.784.952-1.438 1.699-1.871.746-.434 1.608-.625 2.467-.547.86.078 1.674.42 2.33.98 1.834 1.196 3.361 2.808 4.456 4.704 1.095 1.897 1.728 4.024 1.848 6.211v.851l-13.105-7.531zm2.511-3.782c-.506.363-.91.85-1.175 1.413-.265.563-.382 1.184-.341 1.805l11.059 6.392c-.242-1.855-.883-3.635-1.877-5.219-.994-1.584-2.319-2.935-3.884-3.96-.738-.464-1.584-.727-2.455-.763-.464-.004-.92.111-1.327.332zM101.786 163.119c.072.008.144 0 .213-.023.068-.022.131-.06.184-.109.052-.05.094-.11.121-.177.027-.067.039-.139.035-.211v-16.743c0-.132-.052-.259-.146-.352-.093-.093-.22-.146-.352-.146-.132 0-.258.053-.352.146-.093.093-.145.22-.145.352v16.743c-.007.127.035.251.118.348.082.096.198.158.324.172z" fill="#455A64"/><path d="M103.223 149.682c.066.015.134.015.199 0 .061-.025.115-.062.161-.109s.081-.102.105-.163c.024-.061.035-.126.033-.192-.002-.065-.017-.129-.044-.188l-1.759-4.125-1.9459 2.211c-.0465.046-.0835.1-.1087.16-.0252.059-.0382.124-.0382.189s.013.129.0382.189.0622.114.1087.159c.0929.091.2179.142.3479.142.131 0 .256-.051.349-.142l.929-1.106 1.106 2.61c.032.111.101.207.196.274.094.066.208.098.323.091zM97.2298 160.52c.129 0 .2528-.051.344-.142.0913-.092.1425-.215.1425-.345v-16.776c.0107-.071.0059-.143-.0139-.212-.0199-.069-.0543-.132-.101-.186-.0468-.055-.1046-.098-.1697-.128-.0651-.03-.1359-.045-.2075-.045s-.1424.015-.2074.045c-.0651.03-.123.073-.1697.128-.0467.054-.0812.117-.101.186-.0199.069-.0247.141-.014.212v16.776c.0029.131.0566.254.1496.345.093.091.218.142.3481.142z" fill="#455A64"/><path d="M98.6672 147.116c.0654.016.1336.016.1991 0 .0603-.025.1149-.062.1605-.109.0457-.047.0814-.102.1052-.163.0237-.061.035-.126.033-.191-.0019-.066-.0171-.13-.0444-.189l-1.7583-4.048-1.9464 2.212c-.0465.045-.0834.099-.1087.159-.0252.06-.0382.124-.0382.189s.013.129.0382.189c.0253.06.0622.114.1087.16.093.091.2181.142.3483.142.1303 0 .2554-.051.3484-.142l.929-1.106 1.1058 2.609c.0428.099.1169.181.211.233.094.052.2026.071.3088.055z" fill="#455A64"/><path d="M201.205 147.459l-29.339 16.953c-.384.252-.703.59-.932.987-.229.398-.36.844-.384 1.302v20.393c0 1.681 1.194 2.366 2.643 1.526l29.339-16.942c.385-.253.706-.593.937-.993.23-.399.364-.847.39-1.307v-20.393c-.011-1.67-1.205-2.367-2.654-1.526z" fill="#FAFAFA"/><path d="M201.935 150.633l-1.006.575v18.004l1.006-.575v-18.004zM197.865 152.978l-1.714 1.017v17.993l1.714-1.007v-18.003zM193.806 155.322l-.995.575v18.004l.995-.575v-18.004zM190.743 157.058l-2.001 1.184v18.003l2.001-1.183v-18.004zM185.678 160.011l-.995.575v18.004l.995-.575v-18.004zM182.758 161.67l-2.134 1.261v18.003l2.134-1.271V161.67zM177.55 164.7l-.996.575v18.004l.996-.575V164.7zM175.239 166.027l-.498.288v17.993l.498-.288v-17.993zM179.408 163.727l-.498.288v17.992l.498-.287v-17.993zM187.592 158.927l-.498.288v18.003l.498-.287v-18.004zM192.071 156.362l-.498.287v17.993l.498-.288v-17.992zM195.288 154.581l-.497.287v17.993l.497-.288v-17.992zM199.657 151.926l-.498.288v18.004l.498-.288v-18.004zM173.491 167.045l-.995.575v18.004l.995-.575v-18.004z" fill="#455A64"/><path d="M26.6077 106.961l-2.7869-16.754c-.7851-4.6337.376-8.4268 2.8311-9.1899 2.4636 3.6566 3.4732 8.1012 2.8311 12.4633l-2.8753 13.4806zM25.4023 107.414l-6.8454-12.1648c-1.9022-3.3176-2.5436-7.7412-1.5704-10.528 2.3887.9953 4.6447 4.4236 5.4631 8.4158l2.9527 14.277zM25.2364 109.184l-6.1266-3.848c-1.703-1.106-3.1407-3.749-3.4946-6.514 1.2607-1.0174 3.1407-.1327 4.5452 2.134l5.076 8.228zM27.8132 108.808l6.8455-4.258c1.9021-1.172 2.5435-4.7771 1.5703-8.714-2.3887-1.7695-4.6447-.8958-5.4631 2.1122l-2.9527 10.8598zM27.979 110.765l6.1266 3.229c1.692.885 3.1297-.133 3.4836-2.488-1.2608-2.477-3.1297-3.749-4.5342-3.097l-5.076 2.356z" fill="#BA68C8"/><path d="M17.0531 109.073L34.88 119.38c.3166.199.5818.47.7739.791.1922.321.3059.682.332 1.055v.531c0 .675-.4756.951-1.1059.608l-17.8601-10.306c-.319-.197-.5861-.467-.7786-.789-.1925-.321-.3047-.684-.3272-1.058v-.52c.0774-.686.5529-.962 1.139-.619z" fill="#455A64"/></svg>