<svg width="1189" height="348" viewBox="0 0 1189 348" fill="none" xmlns="http://www.w3.org/2000/svg">
<path d="M370.196 347.689L379.381 309.052H317.225L356.975 347.689H370.196ZM384.896 286.04L394.081 247.349H253.793L293.543 286.04H384.896ZM399.563 224.332L408.789 185.683H190.368L230.11 224.332H399.563ZM414.258 162.683L423.484 123.993H126.936L166.731 162.683H414.258ZM428.97 100.981L438.196 62.3269H63.5157L103.298 100.981H428.97ZM443.666 39.3268L452.892 0.636178H0.083252L39.8661 39.3268" fill="#EF7E20"/>
<path d="M1078.78 347.689L1131.16 297.683L1158.06 185.683V185.4L1115.8 131.851L1062.92 131.937L1072.52 91.6407L1079.15 86.4586H1092.98L1098.21 92.4235L1096.12 100.981H1178.24L1188.33 58.051L1153 0.636178H1059.83L1015.11 39.3268H1155.01L1168.82 62.3269H997.763L988.537 100.981H1048.63L1043.11 123.993H983.063L973.837 162.683H1118.69L1136.6 185.683H973.459L1003.2 224.332H1127.18L1121.7 247.349H1062.22L1058.43 263.155L1051.8 268.337H1037.97L1032.73 262.414L1035.57 250.802L1036.48 247.349H953.648L944.463 286.04H1112.43L1087.51 309.052H942.988L969.673 347.689H1078.78ZM697.998 347.689L741.986 162.683H834.163L824.323 185.683H745.161L743.674 224.332H807.845L798.008 247.349H742.81L741.335 286.04H781.526L771.732 309.052H740.47L738.983 347.689H777.037L855.955 162.683H917.325L911.809 185.683H851.75L842.524 224.332H902.624L897.101 247.349H837.051L827.825 286.04H887.917L882.401 309.052H822.343L813.117 347.689H894.919L968.396 39.3268L977.622 0.636178H870.412L852.162 39.3268H946.728L941.258 62.3269H841.288L823.05 100.981H932.033L926.551 123.993H812.21L798.166 153.748V0.636178H703.892L694.666 39.3268H776.468V62.3269H689.183L679.957 100.981H776.468V123.948L674.484 123.993L665.258 162.683H720.288L714.806 185.683H659.776L650.55 224.332H705.621L700.181 247.349H645.076L635.895 286.04H690.996L685.527 309.052H630.368L621.183 347.689H697.998ZM585.104 347.689L594.288 309.052L599.771 286.04H599.812L608.997 247.349H534.323L539.682 224.332H608.172L611.22 211.585L624.149 157.287L632.098 123.993H562.995L568.349 100.981H643.887L653.113 62.3269H653.07L658.545 39.3268H658.586L667.812 0.636178H505.2L495.974 39.3268H636.884L631.403 62.3269H490.505L481.279 100.981H546.639L541.285 123.993H475.797L466.571 162.683H601.175L595.689 185.683H461.097L451.871 224.332H518.014L512.656 247.349H446.389L437.163 286.04H578.102L572.632 309.052H431.69L422.464 347.689" fill="#00549E"/>
</svg>
