<svg width="433" height="421" viewBox="0 0 433 421" fill="none" xmlns="http://www.w3.org/2000/svg">
<path d="M236.817 420.607C281.189 420.607 317.16 400.693 317.16 376.128C317.16 351.563 281.189 331.648 236.817 331.648C192.445 331.648 156.474 351.563 156.474 376.128C156.474 400.693 192.445 420.607 236.817 420.607Z" fill="#E0E0E0"/>
<path d="M381.301 371.709C403.624 371.709 421.72 361.691 421.72 349.333C421.72 336.975 403.624 326.957 381.301 326.957C358.979 326.957 340.883 336.975 340.883 349.333C340.883 361.691 358.979 371.709 381.301 371.709Z" fill="#E0E0E0"/>
<path d="M360.945 354.383C350.119 343.347 343.765 298.394 354.317 289.631H408.033C418.553 298.394 412.241 343.284 401.426 354.372L401.132 354.677L400.753 355.045C400.448 355.34 400.122 355.635 399.775 355.919L399.522 356.118L398.702 356.739C398.251 357.062 397.784 357.36 397.302 357.633C388.402 362.767 373.958 362.767 365.058 357.633C364.585 357.36 364.111 357.055 363.648 356.729C363.385 356.539 363.133 356.35 362.891 356.15L362.565 355.898C362.239 355.624 361.923 355.351 361.628 355.066L361.197 354.646L360.945 354.383Z" fill="#37474F"/>
<path d="M403.373 286.106C415.629 293.187 415.629 304.654 403.373 311.734C391.117 318.814 371.244 318.814 358.988 311.734C346.732 304.654 346.732 293.187 358.988 286.106C371.244 279.026 391.117 279.026 403.373 286.106Z" fill="#455A64"/>
<path d="M397.481 289.515C406.476 294.712 406.476 303.128 397.481 308.325C388.486 313.522 373.884 313.522 364.869 308.325C355.853 303.128 355.874 294.712 364.869 289.515C373.863 284.318 388.476 284.318 397.481 289.515Z" fill="#263238"/>
<path d="M364.879 298.426C373.884 293.229 388.476 293.229 397.492 298.426C399.668 299.599 401.519 301.294 402.878 303.36C401.522 305.43 399.671 307.13 397.492 308.304C388.486 313.501 373.895 313.501 364.879 308.304C362.702 307.127 360.851 305.428 359.493 303.36C360.855 301.297 362.705 299.602 364.879 298.426Z" fill="#F5F5F5"/>
<path d="M386.414 284.244L378.755 278.763C378.755 278.763 372.443 245.656 377.903 231.422C383.363 217.189 393.389 217.241 398.176 221.06C402.962 224.879 400.343 236.84 398.386 243.742C396.019 252.063 388.497 289.347 393.799 302.571L386.414 284.244Z" fill="#4280C3"/>
<path d="M386.414 284.244L378.755 278.763C378.755 278.763 372.443 245.656 377.903 231.422C383.363 217.189 393.389 217.241 398.176 221.06C402.962 224.879 400.343 236.84 398.386 243.742C396.019 252.063 388.497 289.347 393.799 302.571L386.414 284.244Z" fill="#70A2DA"/>
<path d="M384.878 280.394C385.019 280.336 385.134 280.231 385.205 280.096C385.277 279.962 385.298 279.807 385.267 279.658C379.018 251.348 391.916 225.037 392.042 224.774C392.119 224.622 392.132 224.445 392.079 224.284C392.026 224.122 391.91 223.988 391.758 223.911C391.606 223.834 391.43 223.821 391.268 223.875C391.106 223.928 390.972 224.043 390.896 224.195C390.759 224.458 377.661 251.169 384.005 279.952C384.043 280.119 384.144 280.264 384.288 280.356C384.431 280.449 384.606 280.481 384.773 280.447L384.878 280.394Z" fill="white"/>
<path d="M383.111 275.628C383.111 275.628 382.248 273.03 386.077 272.367C389.907 271.704 391.337 268.517 391.737 263.172C392.137 257.828 393.715 253.999 398.512 253.21C403.309 252.421 407.181 254.84 410.305 252.431C413.43 250.022 421.499 244.215 428.19 246.866C434.881 249.517 432.703 255.282 429.242 258.964C425.781 262.646 424.739 263.94 427.411 269.99C430.083 276.039 428.137 281.688 421.962 283.108C415.786 284.528 412.325 283.792 412.231 290.578C412.136 296.637 410.905 302.308 404.582 304.601C399.578 306.413 394.201 306.944 388.939 306.147C387.169 305.992 385.49 305.294 384.131 304.149C382.848 302.855 383.079 301.413 383.079 299.73V275.628H383.111Z" fill="#4280C3"/>
<g opacity="0.8">
<path d="M383.111 275.628C383.111 275.628 382.248 273.03 386.077 272.367C389.907 271.704 391.337 268.517 391.737 263.172C392.137 257.828 393.715 253.999 398.512 253.21C403.309 252.421 407.181 254.84 410.305 252.431C413.43 250.022 421.499 244.215 428.19 246.866C434.881 249.517 432.703 255.282 429.242 258.964C425.781 262.646 424.739 263.94 427.411 269.99C430.083 276.039 428.137 281.688 421.962 283.108C415.786 284.528 412.325 283.792 412.231 290.578C412.136 296.637 410.905 302.308 404.582 304.601C399.578 306.413 394.201 306.944 388.939 306.147C387.169 305.992 385.49 305.294 384.131 304.149C382.848 302.855 383.079 301.413 383.079 299.73V275.628H383.111Z" fill="#A2C6EE"/>
</g>
<path d="M383.111 303.57C383.223 303.571 383.333 303.535 383.424 303.469C383.515 303.403 383.582 303.309 383.616 303.202C394.862 269.8 420.331 256.303 420.584 256.176C420.708 256.111 420.802 256 420.846 255.866C420.889 255.732 420.878 255.587 420.815 255.461C420.784 255.398 420.74 255.343 420.687 255.297C420.634 255.251 420.573 255.217 420.506 255.195C420.439 255.173 420.369 255.165 420.299 255.171C420.23 255.177 420.162 255.197 420.1 255.23C419.837 255.366 393.999 269.032 382.606 302.865C382.583 302.931 382.573 303.002 382.578 303.072C382.582 303.142 382.601 303.21 382.632 303.273C382.664 303.335 382.707 303.391 382.76 303.437C382.814 303.483 382.875 303.517 382.942 303.538C382.996 303.56 383.053 303.571 383.111 303.57Z" fill="white"/>
<path d="M399.249 274.45H399.364C406.728 272.778 418.469 273.682 418.585 273.693C418.725 273.705 418.865 273.66 418.973 273.57C419.082 273.479 419.15 273.35 419.163 273.209C419.169 273.138 419.161 273.068 419.139 273C419.117 272.933 419.082 272.871 419.036 272.817C418.991 272.763 418.934 272.719 418.871 272.687C418.808 272.655 418.739 272.636 418.669 272.63C418.185 272.63 406.634 271.705 399.133 273.419C399.011 273.454 398.905 273.531 398.834 273.636C398.763 273.741 398.732 273.868 398.745 273.994C398.759 274.121 398.817 274.238 398.91 274.325C399.002 274.412 399.122 274.464 399.249 274.471V274.45Z" fill="white"/>
<path d="M393.263 290.504C396.619 290.504 400.174 290.283 400.406 290.272C400.476 290.268 400.544 290.251 400.607 290.22C400.671 290.189 400.727 290.146 400.773 290.093C400.819 290.04 400.854 289.978 400.876 289.911C400.898 289.845 400.906 289.774 400.9 289.704C400.898 289.634 400.881 289.564 400.85 289.501C400.82 289.437 400.777 289.38 400.724 289.334C400.67 289.287 400.608 289.253 400.541 289.231C400.473 289.21 400.402 289.203 400.332 289.21C400.259 289.21 392.053 289.715 388.844 289.21C388.705 289.191 388.564 289.227 388.451 289.309C388.337 289.391 388.26 289.514 388.234 289.652C388.213 289.791 388.247 289.933 388.33 290.047C388.412 290.162 388.537 290.239 388.676 290.262C390.197 290.449 391.73 290.53 393.263 290.504Z" fill="white"/>
<path d="M402.699 270.526C402.769 270.522 402.838 270.504 402.901 270.473C402.964 270.442 403.02 270.399 403.066 270.346C403.112 270.293 403.147 270.232 403.169 270.165C403.191 270.098 403.199 270.028 403.194 269.958C402.938 266.139 402.149 262.375 400.848 258.775C400.794 258.644 400.691 258.54 400.562 258.483C400.433 258.426 400.286 258.421 400.153 258.47C400.088 258.495 400.028 258.534 399.977 258.583C399.927 258.632 399.887 258.69 399.859 258.755C399.832 258.82 399.818 258.889 399.818 258.96C399.818 259.03 399.832 259.1 399.859 259.164C401.121 262.661 401.9 266.314 402.173 270.021C402.179 270.157 402.236 270.286 402.335 270.38C402.433 270.474 402.563 270.526 402.699 270.526Z" fill="white"/>
<path d="M382.963 307.189C377.667 308.811 372.037 309.018 366.636 307.789C357.273 305.779 355.011 300.056 355.011 300.056C355.011 300.056 361.681 293.124 367.583 292.692C361.692 291.815 355.694 291.943 349.846 293.071C349.846 293.071 344.428 291.072 345.448 282.014C345.448 282.014 350.551 278.301 362.281 279.752C362.281 279.752 356.4 275.607 346.08 274.377C345.269 274.377 346.374 262.594 347.352 257.334C348.331 252.074 350.288 252.894 354.506 253.347C358.725 253.799 372.001 258.186 373.579 261.205C375.157 264.225 373.579 271.894 373.579 271.894C373.579 271.894 377.44 268.738 378.292 264.866C381.255 265.135 384.065 266.298 386.351 268.201C390.064 271.357 388.991 273.346 387.782 276.47C386.587 279.626 384.947 282.595 382.911 285.286C382.911 285.286 386.866 283.855 390.622 274.429C390.622 274.429 394.504 281.646 395.188 286.811C395.872 291.977 390.969 302.97 382.963 307.189Z" fill="#A2C6EE"/>
<path d="M382.721 307.684C382.627 307.648 382.544 307.587 382.483 307.507C382.421 307.427 382.384 307.332 382.374 307.231C380.965 289.694 361.113 262.289 352.339 256.787C352.22 256.711 352.135 256.591 352.103 256.453C352.072 256.315 352.096 256.171 352.171 256.05C352.25 255.935 352.37 255.854 352.506 255.823C352.642 255.791 352.786 255.813 352.907 255.882C361.828 261.479 381.995 289.326 383.416 307.147C383.421 307.216 383.413 307.286 383.392 307.352C383.371 307.418 383.337 307.479 383.292 307.532C383.247 307.585 383.192 307.628 383.13 307.659C383.068 307.691 383.001 307.71 382.932 307.715C382.86 307.723 382.788 307.712 382.721 307.684Z" fill="white"/>
<path d="M67.3574 394.696C66.9305 394.696 66.5211 394.526 66.2193 394.225C65.9174 393.923 65.7478 393.513 65.7478 393.086V289.662C65.7478 289.235 65.9174 288.826 66.2193 288.524C66.5211 288.222 66.9305 288.053 67.3574 288.053C67.7843 288.053 68.1937 288.222 68.4956 288.524C68.7974 288.826 68.967 289.235 68.967 289.662V393.107C68.9615 393.531 68.7895 393.935 68.4882 394.232C68.1869 394.529 67.7807 394.696 67.3574 394.696Z" fill="#455A64"/>
<path d="M131.32 357.054C130.994 357.051 130.676 356.949 130.41 356.761C130.143 356.573 129.939 356.309 129.826 356.002L98.1185 275.733C97.9951 275.344 98.0239 274.923 98.1991 274.555C98.3742 274.187 98.6827 273.899 99.0621 273.749C99.4416 273.599 99.8637 273.599 100.243 273.749C100.623 273.899 100.931 274.187 101.106 274.555L132.814 354.824C132.896 355.021 132.937 355.233 132.935 355.446C132.934 355.66 132.89 355.871 132.805 356.067C132.721 356.263 132.598 356.44 132.444 356.588C132.291 356.736 132.109 356.852 131.909 356.928C131.723 357.006 131.523 357.049 131.32 357.054Z" fill="#455A64"/>
<path d="M127.512 347.408C127.293 347.409 127.076 347.364 126.875 347.277C126.674 347.19 126.494 347.063 126.344 346.903L67.3574 284.465L8.4443 346.64C8.30265 346.806 8.12864 346.942 7.93288 347.038C7.73712 347.135 7.5237 347.191 7.30561 347.203C7.08752 347.215 6.86932 347.182 6.6643 347.107C6.45928 347.031 6.27173 346.915 6.11307 346.765C5.9544 346.615 5.82794 346.434 5.74139 346.234C5.65483 346.033 5.60999 345.817 5.60959 345.599C5.60919 345.38 5.65325 345.164 5.73908 344.963C5.8249 344.762 5.9507 344.581 6.10882 344.43L66.1791 281.015C66.3339 280.861 66.5179 280.74 66.7203 280.659C66.9227 280.577 67.1393 280.537 67.3574 280.541C67.576 280.543 67.792 280.588 67.9926 280.675C68.1932 280.762 68.3743 280.888 68.5252 281.046L128.68 344.714C128.895 344.943 129.039 345.229 129.094 345.539C129.149 345.848 129.112 346.167 128.987 346.455C128.863 346.744 128.657 346.99 128.395 347.163C128.133 347.336 127.826 347.428 127.512 347.429V347.408Z" fill="#455A64"/>
<path d="M3.35256 357.054C3.15072 357.053 2.95095 357.013 2.76343 356.939C2.56415 356.862 2.3822 356.747 2.2283 356.599C2.07441 356.451 1.95168 356.274 1.86736 356.077C1.78304 355.881 1.73883 355.67 1.73734 355.457C1.73586 355.244 1.77712 355.032 1.8587 354.835L33.5666 274.566C33.7228 274.168 34.0306 273.849 34.4222 273.678C34.8139 273.507 35.2572 273.499 35.6548 273.656C36.0524 273.812 36.3717 274.12 36.5423 274.511C36.713 274.903 36.7211 275.346 36.5648 275.744L4.84643 356.013C4.73172 356.317 4.5276 356.579 4.26095 356.765C3.9943 356.951 3.67761 357.052 3.35256 357.054Z" fill="#455A64"/>
<path d="M129.132 344.935L133.34 355.992C133.35 356.086 133.35 356.181 133.34 356.276C133.351 356.342 133.351 356.409 133.34 356.476C133.228 356.783 133.002 357.035 132.709 357.181C132.314 357.378 131.878 357.481 131.436 357.481C130.994 357.481 130.558 357.378 130.163 357.181C129.944 357.066 129.77 356.88 129.669 356.655V356.507L125.787 346.134L129.132 344.935Z" fill="#4280C3"/>
<path d="M5.54074 344.935L1.33266 355.992C1.32232 356.086 1.32232 356.181 1.33266 356.276C1.32222 356.342 1.32222 356.409 1.33266 356.476C1.44469 356.783 1.67072 357.035 1.96387 357.181C2.35921 357.378 2.79499 357.481 3.23681 357.481C3.67864 357.481 4.11442 357.378 4.50976 357.181C4.72883 357.066 4.90295 356.88 5.00421 356.655V356.507L8.89668 346.134L5.54074 344.935Z" fill="#4280C3"/>
<path d="M69.1879 385.08V394.233C69.1731 394.395 69.1157 394.551 69.0215 394.684C68.9273 394.817 68.7996 394.923 68.6514 394.991C68.2425 395.193 67.7925 395.298 67.3364 395.298C66.8802 395.298 66.4302 395.193 66.0214 394.991C65.8732 394.923 65.7455 394.817 65.6513 394.684C65.5571 394.551 65.4997 394.395 65.4848 394.233V385.08C66.0541 384.775 66.6902 384.615 67.3364 384.615C67.9826 384.615 68.6187 384.775 69.1879 385.08Z" fill="#4280C3"/>
<path d="M133.277 274.587C133.277 271.946 130.963 269.127 126.071 265.96C117.034 260.09 96.835 248.318 84.1898 241.311C84.1831 241.286 84.1699 241.263 84.1514 241.244C84.1329 241.226 84.1098 241.213 84.0845 241.206C74.3428 235.304 65.2534 207.173 58.531 185.786C56.2376 178.506 53.4182 174.382 50.1148 172.446C49.3258 171.983 46.4117 170.342 45.7595 169.984C39.1528 166.029 30.4736 170.784 19.6694 176.696C9.70675 182.146 1.93232 189.121 0.364814 207.626C-0.582003 218.903 0.364814 240.438 2.61614 256.755C5.93 284.013 9.98028 284.107 15.9031 288.621C26.0657 296.479 48.9576 307.557 58.6046 311.313C76.0997 318.193 90.3967 307.578 101.054 302.318C110.828 297.371 120.264 291.783 129.3 285.591C131.962 283.644 133.351 281.688 133.319 279.626C133.266 278.795 133.288 275.439 133.277 274.587Z" fill="#263238"/>
<path d="M101.022 297.237C110.791 292.298 120.223 286.721 129.258 280.541C135.318 276.144 134.76 271.641 126.102 266.002C119.622 261.794 119.958 261.426 71.1552 234.6C71.1552 234.6 8.92824 271.315 11.6109 278.101C14.2935 284.886 46.4643 301.498 58.5941 306.274C76.0576 313.154 90.3546 302.497 101.022 297.237Z" fill="#37474F"/>
<path d="M49.7046 172.183C43.1505 168.743 34.6396 173.414 24.1089 179.179C17.3655 182.882 11.6214 187.259 8.12873 195.454L3.68921 192.887C7.17139 184.723 12.9154 180.347 19.6378 176.654C30.4421 170.742 39.1212 165.987 45.7279 169.942C46.3171 170.321 48.6105 171.604 49.7046 172.183Z" fill="#455A64"/>
<path d="M24.1089 179.231C40.2784 170.373 51.6928 164.082 58.531 185.786C65.2639 207.173 74.3113 235.304 84.0845 241.206C84.0845 241.206 80.9285 238.534 56.732 256.828C49.0312 262.646 39.6788 267.422 33.5876 271.083C21.563 278.248 14.262 281.12 13.1153 280.162C6.75056 274.902 3.31045 228.666 4.87796 210.161C6.44547 191.656 14.1568 184.681 24.1089 179.231Z" fill="#37474F"/>
<g opacity="0.5">
<path opacity="0.5" d="M24.1089 179.231C40.2784 170.373 51.6929 164.082 58.531 185.786C65.2639 207.173 74.3113 235.304 84.0845 241.206C84.0845 241.206 67.389 241.206 43.1925 254.262C18.0493 267.843 14.1989 281.12 13.0522 280.162C6.68745 274.902 3.24734 228.666 4.81485 210.161C6.38236 191.656 14.1568 184.681 24.1089 179.231Z" fill="#455A64"/>
</g>
<path d="M333.792 127.367C338.074 126.41 341.85 125.516 344.754 124.769C360.198 120.824 364.848 115.711 365.321 108.883C366.089 97.9842 362.007 97.9 354.969 102.771C352.042 104.848 348.837 106.502 345.448 107.684C346.626 106.338 347.607 104.833 348.362 103.213C349.414 100.499 347.984 98.7627 347.047 98.2998C346.311 97.9421 345.564 99.8252 343.018 101.908C339.736 104.57 337.085 105.064 334.371 108.778C333.332 110.145 331.84 111.096 330.163 111.461C328.627 111.808 303.41 118.709 291.595 120.739C284.663 111.913 278.224 102.497 270.892 93.1238C259.604 78.6691 254.238 76.6492 247.905 77.7959L242.403 95.9327C242.403 95.9327 279.581 139.718 280.023 140.265C281.286 141.971 283.054 143.236 285.077 143.88C287.1 144.524 289.274 144.514 291.29 143.852C307.302 139.15 324.25 131.775 333.792 127.367Z" fill="#FFA8A7"/>
<path d="M246.432 74.1455C259.625 74.7241 263.538 82.1198 270.313 90.3256C277.088 98.5313 291.837 119.582 291.837 119.582L327.848 112.05C327.848 112.05 326.365 122.391 331.004 128.619C331.004 128.619 311.9 138.256 300.327 142.685C285.704 148.302 284.747 147.019 282.106 144.599C279.466 142.18 247.39 105.874 247.39 105.874L246.432 74.1455Z" fill="#37474F"/>
<path d="M97.5715 98.5417C100.991 88.1688 104.767 87.7375 109.428 94.9122C111.351 97.9436 113.688 100.691 116.371 103.076C115.777 101.38 115.423 99.6097 115.319 97.8158C115.319 94.9017 117.36 93.8286 118.401 93.7655C119.222 93.7655 119.19 95.7328 120.769 98.6259C122.788 102.339 125.05 103.812 126.165 108.262C126.586 109.935 127.68 113.259 129.079 114.248C136.233 119.277 149.236 125.473 162.165 130.471C166.752 120.781 172.801 108.694 177.409 100.225C186.183 84.129 191.99 82.3406 198.376 83.098L204.877 100.888C204.877 100.888 170.161 146.682 169.803 147.25C167.142 150.995 161.692 153.562 157.452 151.826C145.344 146.861 136.349 138.15 126.071 131.144C119.969 126.999 114.204 123.78 110.522 121.023C97.7819 111.534 95.4253 105.043 97.5715 98.5417Z" fill="#FFA8A7"/>
<path d="M190.034 298.731C190.318 285.054 194.431 274.902 194.757 271.105C194.757 271.105 193.705 189.752 193.705 176.549L263.075 173.719C263.075 173.719 262.107 255.282 262.107 266.592C262.107 277.901 260.414 325.968 258.625 348.091L258.425 355.371L242.94 360.19C242.94 360.19 243.234 358.086 242.94 347.734C242.645 337.382 235.691 301.634 235.039 292.555C234.208 280.804 236.091 276.06 235.849 268.212C235.607 260.364 231.031 209.004 231.031 209.004C231.031 209.004 222.341 259.501 220.174 276.596C217.702 296.227 209.748 347.681 209.727 359.643C209.727 361.747 209.727 364.272 209.727 366.954C209.727 373.435 209.548 375.139 210.59 377.643C212.399 382.019 196.914 384.775 196.177 381.661L194.505 368.806V368.438V360.284C194.526 348.091 189.613 318.572 190.034 298.731Z" fill="#FFA8A7"/>
<path d="M288.755 375.675C289.177 376.932 289.101 378.302 288.545 379.505C288.008 380.63 282.159 383.934 274.258 383.397C268.405 382.985 262.768 381.016 257.931 377.695C254.922 375.696 251.787 375.328 247.874 375.097C243.96 374.865 238.826 372.93 237.974 371.099C237.122 369.269 238.1 366.123 238.1 366.123L288.755 375.675Z" fill="#37474F"/>
<path d="M256.889 351.027L257.521 350.89C257.863 350.797 258.222 350.779 258.573 350.837C258.953 350.958 259.29 351.189 259.54 351.5C260.318 352.481 260.995 353.539 261.56 354.656C263.212 357.349 266.694 359.59 270.481 361.631C273.069 363.02 275.594 364.093 278.256 365.292C280.917 366.491 284.568 367.259 286.672 368.69C289.775 370.794 290.175 376.054 286.672 378.095C283.632 379.883 275.615 381.819 267.21 379.442C262.633 378.148 257.552 373.256 251.545 372.782C247.716 372.488 240.488 371.415 238.027 368.511C237.122 367.217 238.332 363.135 239.331 359.622C240.383 355.771 241.719 349.754 242.992 350.09C243.045 350.848 242.897 351.037 243.392 351.553C243.886 352.068 244.497 352.342 245.012 352.783C245.894 353.659 246.608 354.69 247.116 355.824C247.315 356.329 247.688 356.747 248.168 357.002C248.82 357.244 249.294 356.834 249.862 356.581C250.578 356.253 251.388 356.193 252.145 356.413C252.07 355.653 251.936 354.901 251.745 354.162C251.657 353.93 251.635 353.679 251.682 353.436C251.784 353.202 251.957 353.007 252.176 352.878C253.6 351.937 255.206 351.306 256.889 351.027Z" fill="#455A64"/>
<path d="M225.655 398.052C226.118 398.494 225.981 401.503 225.466 402.26C224.95 403.017 221.731 405.837 215.997 406.258C210.516 406.647 205.614 405.911 202.395 403.859C199.176 401.808 197.608 399.556 197.313 396.432C197.019 393.307 197.313 390.288 195.862 387.889C194.484 385.67 192.295 383.166 191.822 381.956C190.77 379.336 191.822 375.591 191.822 375.591L225.655 398.052Z" fill="#37474F"/>
<path d="M210.632 370.763C210.673 371.948 210.886 373.121 211.263 374.245C212.109 376.664 213.239 378.973 214.63 381.125C215.312 382.252 216.075 383.327 216.913 384.344C218.575 386.322 220.637 387.942 222.394 389.836C224.266 391.626 225.463 394.008 225.781 396.579C226.013 400.882 221.342 402.344 217.744 402.976C213.853 403.658 209.86 403.46 206.056 402.397C204.06 401.874 202.256 400.787 200.861 399.267C199.466 397.746 198.537 395.857 198.187 393.823C197.987 392.624 198.06 391.403 197.924 390.204C197.443 387.457 196.294 384.87 194.578 382.672C193.576 381.401 192.716 380.025 192.011 378.569C190.886 375.907 191.78 372.909 192.506 370.258C193.126 367.964 193.821 365.376 194.61 365.587C194.61 366.776 194.61 366.902 195.462 367.691C196.514 368.743 196.577 370.247 197.724 371.141C197.353 370.151 197.085 369.125 196.924 368.08C196.848 367.661 196.934 367.228 197.166 366.87C197.54 366.531 197.992 366.289 198.481 366.165C200.188 365.584 201.951 365.185 203.741 364.977C205.431 364.698 207.154 364.698 208.844 364.977C209.345 365.071 209.798 365.335 210.127 365.723C210.424 366.153 210.582 366.663 210.579 367.186C210.653 367.859 210.601 369.627 210.632 370.763Z" fill="#455A64"/>
<path d="M215.208 382.019C213.599 380.82 210.011 380.809 208.044 381.02C206.051 381.193 204.133 381.866 202.468 382.976C202.224 383.153 201.925 383.237 201.625 383.214C201.324 383.191 201.042 383.062 200.827 382.85C200.701 382.729 200.603 382.582 200.539 382.42C200.476 382.257 200.448 382.082 200.459 381.908C200.471 381.734 200.519 381.564 200.603 381.41C200.687 381.257 200.803 381.124 200.943 381.02C202.784 379.661 204.973 378.855 207.255 378.695C212.094 378.347 213.504 379.179 213.504 379.179C213.504 379.179 215.692 380.599 215.208 382.019Z" fill="#F5F5F5"/>
<path d="M218.848 386.427C216.828 385.238 212.883 385.375 210.916 385.627C208.953 385.841 207.081 386.566 205.488 387.731C205.243 387.909 204.943 387.993 204.642 387.968C204.341 387.942 204.058 387.81 203.847 387.595C203.721 387.474 203.624 387.328 203.561 387.165C203.498 387.003 203.472 386.829 203.484 386.655C203.496 386.482 203.546 386.313 203.631 386.161C203.715 386.009 203.832 385.877 203.973 385.775C205.834 384.353 208.058 383.482 210.39 383.26C215.219 382.913 216.481 383.902 216.481 383.902C217.039 384.119 217.542 384.459 217.951 384.896C218.361 385.333 218.667 385.856 218.848 386.427Z" fill="#F5F5F5"/>
<path d="M205.298 374.066C207.335 373.711 209.429 373.885 211.379 374.571C212.231 375.055 212.789 376.401 212.242 376.738C210.535 376.05 208.684 375.797 206.855 376.001C205.033 376.173 203.253 376.657 201.595 377.432C201.185 377.622 200.701 377.874 200.27 378.116C200.133 378.19 199.984 378.237 199.829 378.252C199.675 378.268 199.519 378.252 199.371 378.206C199.222 378.159 199.085 378.084 198.966 377.984C198.848 377.883 198.751 377.76 198.681 377.622C198.56 377.38 198.535 377.102 198.614 376.843C198.692 376.585 198.867 376.366 199.102 376.233C200.988 375.074 203.101 374.335 205.298 374.066Z" fill="#F5F5F5"/>
<path d="M266.905 359.569C266.63 359.044 266.228 358.596 265.735 358.267C265.243 357.938 264.675 357.738 264.085 357.686C262.349 357.36 259.277 358.643 257.363 360.211C257.182 360.359 257.041 360.548 256.95 360.763C256.86 360.978 256.824 361.212 256.845 361.445C256.865 361.677 256.942 361.901 257.069 362.096C257.197 362.292 257.369 362.454 257.573 362.567C257.831 362.708 258.125 362.767 258.417 362.735C258.708 362.703 258.983 362.582 259.204 362.388C261.303 360.478 264.068 359.466 266.905 359.569Z" fill="#F5F5F5"/>
<path d="M272.291 362.599C271.915 362.064 271.415 361.628 270.835 361.328C270.254 361.027 269.61 360.871 268.956 360.874C268.956 360.874 264.411 361.01 261.592 363.63C261.419 363.773 261.284 363.955 261.197 364.161C261.11 364.368 261.074 364.592 261.093 364.816C261.111 365.039 261.184 365.254 261.304 365.443C261.423 365.633 261.587 365.79 261.781 365.902C262.028 366.041 262.313 366.099 262.594 366.066C262.875 366.034 263.139 365.914 263.349 365.723C264.509 364.565 265.915 363.682 267.463 363.141C269.011 362.6 270.661 362.415 272.291 362.599Z" fill="#F5F5F5"/>
<path d="M278.245 365.313C277.814 364.818 277.28 364.422 276.681 364.153C276.081 363.884 275.431 363.749 274.774 363.756C272.193 363.914 269.729 364.886 267.736 366.533C267.563 366.676 267.427 366.859 267.341 367.065C267.254 367.271 267.218 367.496 267.237 367.719C267.255 367.942 267.328 368.158 267.447 368.347C267.567 368.536 267.731 368.694 267.925 368.806C268.172 368.943 268.456 369 268.737 368.968C269.019 368.936 269.283 368.816 269.493 368.627C270.591 367.429 271.955 366.505 273.475 365.929C274.995 365.354 276.629 365.143 278.245 365.313Z" fill="#F5F5F5"/>
<path d="M263.117 173.719C263.117 173.719 264.043 231.191 264.169 241.29C264.296 251.39 264.169 270.747 264.169 280.615C264.169 280.615 261.613 284.928 247.032 284.918C232.451 284.907 230.347 280.878 230.347 280.878L228.19 234.421L224.108 282.645C221.158 284.653 217.828 286.035 214.324 286.706C210.819 287.377 207.214 287.324 203.731 286.548C191.727 283.96 189.96 280.384 189.96 280.384L192.327 173.909L263.117 173.719Z" fill="#37474F"/>
<path d="M228.169 234.421L230.273 214.916C230.273 214.916 240.278 212.476 246.969 207.437C244.814 210.052 242.249 212.301 239.373 214.096C235.312 216.379 233.356 217.315 233.356 217.315L230.431 236.188L229.916 273.009L228.169 234.421Z" fill="#263238"/>
<path d="M191.496 183.682C201.017 190.614 244.181 198.305 264.211 183.682C264.211 183.682 263.749 127.735 262.17 98.1208C262.097 96.7742 262.013 95.4697 261.876 94.2073C261.876 93.7865 261.771 93.3657 261.729 92.9449C261.497 91.1698 261.146 89.4124 260.677 87.6848C260.603 87.4007 260.508 87.1167 260.424 86.8326C260.224 86.1909 260.024 85.5702 259.761 84.9495C259.635 84.6234 259.498 84.2973 259.351 83.9817C259.204 83.6661 259.078 83.382 258.909 83.098C258.896 83.0409 258.871 82.9872 258.836 82.9402C258.688 82.6561 258.52 82.3721 258.362 82.0986C258.204 81.825 258.004 81.4989 257.794 81.2043C257.584 80.9098 257.405 80.6468 257.205 80.3943C257.005 80.1418 256.742 79.8262 256.49 79.5527C256.261 79.2874 256.019 79.0346 255.764 78.7952L255.238 78.3008L254.712 77.8694C254.491 77.6695 254.238 77.4907 253.996 77.3119C253.194 76.7496 252.35 76.2502 251.471 75.818C251.229 75.7023 250.977 75.576 250.724 75.4813C250.663 75.4574 250.603 75.4293 250.546 75.3972L249.641 75.0605C249.135 74.862 248.619 74.6899 248.094 74.5451C247.561 74.3978 247.004 74.261 246.422 74.1348C245.769 74.1348 245.054 74.1348 244.318 74.1348H242.74L241.035 74.1979C233.545 74.524 222.793 75.7338 214.167 76.8385L212.484 77.0699L211 77.2487C205.077 78.0272 200.69 78.669 200.017 78.7742H199.912C197.976 79.2686 196.177 79.7315 194.725 80.1628C190.77 81.3306 193.673 80.3312 192.842 84.1605C190.286 95.3961 193.263 136.267 193.263 136.267L191.496 183.682Z" fill="#3076C1"/>
<path d="M208.717 43.4058C208.717 43.4058 211.8 57.871 213.031 60.2381C213.857 61.7017 215.212 62.7934 216.818 63.2889L216.597 53.1159L208.717 43.4058Z" fill="#263238"/>
<path d="M212.536 22.6913C211.459 22.5698 210.368 22.6961 209.347 23.0608C208.326 23.4255 207.402 24.0188 206.645 24.7954C204.12 27.3623 205.561 35.4208 208.717 43.4056L214.514 44.0789L212.536 22.6913Z" fill="#263238"/>
<path d="M216.25 44.0788C215.093 44.7732 213.43 42.5429 212.042 41.0385C210.653 39.5341 205.93 37.4932 203.626 42.4061C201.322 47.319 205.73 54.0415 209.37 55.1987C215.682 57.1975 216.671 53.0946 216.671 53.0946L217.028 76.4495C223.677 88.4951 246.18 82.3303 237.743 74.3454V68.4226C240.933 68.6492 244.136 68.6492 247.326 68.4226C251.997 67.6967 253.912 64.467 255.332 59.4068C257.605 51.2852 258.488 44.7311 256.542 28.7614C254.438 11.2663 234.071 11.0875 223.077 17.9993C212.084 24.911 216.25 44.0788 216.25 44.0788Z" fill="#FFA8A7"/>
<path d="M213.588 13.1283C217.443 11.4819 221.469 10.2681 225.592 9.50938C234.471 7.58419 243.476 5.80627 251.619 1.71392C252.558 1.10515 253.656 0.786798 254.775 0.79866C256.879 1.08271 257.847 3.67067 257.931 5.81679C258.004 7.81726 257.741 9.81582 257.152 11.7291C257.798 11.1105 258.661 10.7713 259.556 10.7851C260.45 10.7989 261.302 11.1646 261.929 11.8028C262.524 12.4738 262.958 13.2717 263.199 14.1357C263.439 14.9998 263.48 15.9073 263.317 16.7894C262.791 20.766 259.751 24.0799 256.142 25.8473C252.534 27.6146 248.452 28.046 244.444 28.1617C238.843 28.3297 233.241 27.9101 227.727 26.9098C226.405 26.5773 225.034 26.4776 223.677 26.6152C222.999 26.691 222.357 26.9562 221.823 27.3804C221.289 27.8046 220.885 28.3707 220.658 29.0138C220.069 31.2231 219.448 46.2564 216.366 46.3196C215.787 46.3196 213.599 42.5428 212.157 41.1962C210.369 39.4919 208.56 26.6152 208.244 24.2377C208.205 24.0525 208.122 23.8793 208.002 23.7327C205.982 20.9028 208.349 16.1371 210.842 14.5801C211.729 14.0434 212.646 13.5586 213.588 13.1283Z" fill="#263238"/>
<path d="M209.107 23.9325C208.746 24.3559 208.306 24.7042 207.81 24.9574C207.315 25.2106 206.775 25.3638 206.221 25.4083C205.666 25.4527 205.109 25.3875 204.579 25.2164C204.05 25.0454 203.56 24.7717 203.136 24.4111C202.713 24.0505 202.365 23.6101 202.111 23.1149C201.858 22.6197 201.705 22.0795 201.661 21.5252C201.616 20.9708 201.681 20.4131 201.852 19.8839C202.024 19.3547 202.297 18.8644 202.658 18.4409L209.107 23.9325Z" fill="#263238"/>
<path d="M237.722 68.4435C237.722 68.4435 227.307 67.3914 223.656 65.4978C221.512 64.3819 219.755 62.6436 218.617 60.5112C219.168 62.6431 220.141 64.6428 221.478 66.392C224.151 69.8006 237.722 72.3149 237.722 72.3149V68.4435Z" fill="#F28F8F"/>
<path d="M235.218 41.4697C235.203 41.8824 235.068 42.2817 234.828 42.6179C234.588 42.9541 234.255 43.2122 233.869 43.3603C233.484 43.5083 233.063 43.5396 232.66 43.4503C232.257 43.361 231.889 43.155 231.602 42.858C231.315 42.561 231.122 42.1862 231.046 41.7802C230.971 41.3742 231.017 40.955 231.178 40.5748C231.339 40.1946 231.609 39.8702 231.953 39.6421C232.297 39.414 232.701 39.2922 233.114 39.292C233.396 39.2918 233.676 39.3486 233.936 39.4589C234.196 39.5692 234.432 39.7308 234.628 39.9341C234.825 40.1373 234.978 40.378 235.079 40.6419C235.181 40.9057 235.228 41.1872 235.218 41.4697Z" fill="#263238"/>
<path d="M233.009 33.5899L228.537 36.0517C228.219 35.438 228.15 34.7247 228.346 34.0616C228.542 33.3985 228.988 32.8372 229.589 32.4958C229.884 32.3355 230.208 32.2365 230.542 32.2049C230.876 32.1733 231.213 32.2097 231.533 32.312C231.852 32.4142 232.148 32.5802 232.402 32.7998C232.655 33.0195 232.862 33.2883 233.009 33.5899Z" fill="#263238"/>
<path d="M236.785 55.9033L241.551 57.6918C241.447 58.0117 241.28 58.3074 241.059 58.5612C240.838 58.815 240.568 59.0217 240.266 59.169C239.964 59.3163 239.635 59.4011 239.299 59.4184C238.963 59.4357 238.627 59.3852 238.311 59.2698C237.67 59.0154 237.153 58.5224 236.868 57.8945C236.584 57.2666 236.554 56.5528 236.785 55.9033Z" fill="#F28F8F"/>
<path d="M253.849 35.326L249.778 32.17C249.968 31.8944 250.212 31.6605 250.496 31.4827C250.78 31.3048 251.096 31.1866 251.427 31.1354C251.758 31.0842 252.096 31.101 252.42 31.1848C252.744 31.2687 253.048 31.4177 253.313 31.6229C253.862 32.0519 254.225 32.6766 254.325 33.3667C254.425 34.0567 254.254 34.7587 253.849 35.326Z" fill="#263238"/>
<path d="M252.597 40.8808C252.583 41.2935 252.447 41.6928 252.207 42.029C251.967 42.3652 251.634 42.6234 251.249 42.7714C250.863 42.9194 250.442 42.9507 250.039 42.8614C249.636 42.7721 249.268 42.5661 248.981 42.2691C248.694 41.9722 248.501 41.5973 248.426 41.1913C248.35 40.7853 248.396 40.3661 248.557 39.9859C248.718 39.6057 248.988 39.2813 249.332 39.0532C249.676 38.8251 250.08 38.7034 250.493 38.7031C250.776 38.703 251.055 38.7597 251.316 38.87C251.576 38.9803 251.811 39.1419 252.008 39.3452C252.204 39.5484 252.357 39.7892 252.459 40.053C252.56 40.3168 252.607 40.5984 252.597 40.8808Z" fill="#263238"/>
<path d="M243.676 39.3867L244.37 51.9478L250.924 49.707L243.676 39.3867Z" fill="#F28F8F"/>
<path d="M200.701 78.7637C185.289 79.0056 181.291 88.0846 176.746 97.7C172.202 107.315 160.672 129.05 160.672 129.05L131.657 115.932C129.992 121.109 126.534 125.523 121.905 128.377C121.905 128.377 135.581 139.876 147.385 148.302C157.368 155.435 163.165 159.138 167.005 156.582C169.845 154.688 198.166 117.657 198.166 117.657C205.382 106.4 206.918 87.285 200.701 78.7637Z" fill="#37474F"/>
<path d="M249.778 46.5618L248.126 45.7202L246.506 43.4057C246.768 43.2949 247.052 43.2476 247.335 43.2677C247.619 43.2878 247.893 43.3748 248.137 43.5215C248.873 44.0475 249.778 46.5618 249.778 46.5618Z" fill="#4280C3"/>
<path opacity="0.65" d="M249.778 46.5618L248.126 45.7202L246.506 43.4057C246.768 43.2949 247.052 43.2476 247.335 43.2677C247.619 43.2878 247.893 43.3748 248.137 43.5215C248.873 44.0475 249.778 46.5618 249.778 46.5618Z" fill="black"/>
<path d="M265.137 39.3344C265.034 41.0513 264.373 42.6876 263.255 43.9942C262.136 45.3008 260.621 46.2061 258.941 46.5723L256.342 47.0141C255.205 47.2236 254.048 47.3153 252.892 47.2876H252.545C252.355 47.2876 252.166 47.2876 251.987 47.2876C251.665 47.2564 251.345 47.2037 251.03 47.1298C250.865 47.0982 250.703 47.0525 250.546 46.9931C250.4 46.9516 250.259 46.8952 250.125 46.8247C250.063 46.8036 250.006 46.7716 249.957 46.7301C249.885 46.6956 249.818 46.6533 249.757 46.6038C249.651 46.515 249.562 46.4081 249.494 46.2882L248.599 44.4577C248.393 44.0927 248.083 43.7976 247.708 43.6102C247.333 43.4228 246.911 43.3515 246.495 43.4057L244.644 43.7318C244.185 43.8518 243.759 44.0714 243.395 44.3751C243.032 44.6788 242.74 45.059 242.54 45.4887C242.54 45.4887 242.151 46.4565 241.656 47.5927C241.162 48.7289 238.09 50.2123 234.807 50.7488L232.209 51.2117C231.682 51.2896 231.147 51.2896 230.62 51.2117C230.324 51.1916 230.032 51.1387 229.747 51.0539L229.347 50.9382L229.095 50.833C228.868 50.7455 228.649 50.6363 228.443 50.5068C227.738 50.2228 216.408 45.6149 214.851 41.9013C212.368 35.9258 222.562 29.7715 226.233 28.6038C226.654 28.4328 227.091 28.3059 227.538 28.225L254.301 23.6382C255.634 23.3725 257.017 23.6326 258.162 24.3641C258.846 24.7955 261.371 26.2893 262.423 26.9205C262.516 26.9629 262.605 27.0159 262.686 27.0783C262.833 27.1625 262.981 27.2677 263.128 27.3624C263.178 27.3956 263.224 27.4345 263.265 27.4781C263.412 27.5938 263.549 27.7201 263.685 27.8463C263.85 28.0127 264.002 28.1922 264.138 28.3828C264.242 28.514 264.334 28.6549 264.411 28.8037C264.542 29.011 264.655 29.2292 264.748 29.4559C264.832 29.6558 264.895 29.8557 264.958 30.0556C265.014 30.2446 265.053 30.4382 265.074 30.6342C265.084 30.6792 265.084 30.7259 265.074 30.7709C265.09 30.9916 265.09 31.2131 265.074 31.4337C265.193 34.0918 265.214 36.7254 265.137 39.3344Z" fill="#4280C3"/>
<g opacity="0.2">
<path opacity="0.2" d="M265.137 39.3344C265.034 41.0513 264.373 42.6876 263.255 43.9942C262.136 45.3008 260.621 46.2061 258.941 46.5723L256.342 47.0141C255.205 47.2236 254.048 47.3153 252.892 47.2876H252.545C252.355 47.2876 252.166 47.2876 251.987 47.2876C251.665 47.2564 251.345 47.2037 251.03 47.1298C250.865 47.0982 250.703 47.0525 250.546 46.9931C250.4 46.9516 250.259 46.8952 250.125 46.8247C250.063 46.8036 250.006 46.7716 249.957 46.7301C249.885 46.6956 249.818 46.6533 249.757 46.6038C249.651 46.515 249.562 46.4081 249.494 46.2882L248.599 44.4577C248.393 44.0927 248.083 43.7976 247.708 43.6102C247.333 43.4228 246.911 43.3515 246.495 43.4057L244.644 43.7318C244.185 43.8518 243.759 44.0714 243.395 44.3751C243.032 44.6788 242.74 45.059 242.54 45.4887C242.54 45.4887 242.151 46.4565 241.656 47.5927C241.162 48.7289 238.09 50.2123 234.807 50.7488L232.209 51.2117C231.682 51.2896 231.147 51.2896 230.62 51.2117C230.324 51.1916 230.032 51.1387 229.747 51.0539L229.347 50.9382L229.095 50.833C228.868 50.7455 228.649 50.6363 228.443 50.5068C227.738 50.2228 216.408 45.6149 214.851 41.9013C212.368 35.9258 222.562 29.7715 226.233 28.6038C226.654 28.4328 227.091 28.3059 227.538 28.225L254.301 23.6382C255.634 23.3725 257.017 23.6326 258.162 24.3641C258.846 24.7955 261.371 26.2893 262.423 26.9205C262.516 26.9629 262.605 27.0159 262.686 27.0783C262.833 27.1625 262.981 27.2677 263.128 27.3624C263.178 27.3956 263.224 27.4345 263.265 27.4781C263.412 27.5938 263.549 27.7201 263.685 27.8463C263.85 28.0127 264.002 28.1922 264.138 28.3828C264.242 28.514 264.334 28.6549 264.411 28.8037C264.542 29.011 264.655 29.2292 264.748 29.4559C264.832 29.6558 264.895 29.8557 264.958 30.0556C265.014 30.2446 265.053 30.4382 265.074 30.6342C265.084 30.6792 265.084 30.7259 265.074 30.7709C265.09 30.9916 265.09 31.2131 265.074 31.4337C265.193 34.0918 265.214 36.7254 265.137 39.3344Z" fill="black"/>
</g>
<path d="M262.423 26.9205C261.358 26.3719 260.14 26.1942 258.962 26.4156L232.198 31.1391C230.593 31.4875 229.136 32.327 228.029 33.541C226.923 34.7551 226.222 36.2835 226.023 37.9141L218.343 33.4851C220.661 31.4429 223.327 29.8325 226.212 28.73C226.633 28.5591 227.07 28.4322 227.517 28.3513L254.301 23.6382C255.634 23.3725 257.017 23.6326 258.162 24.3641C258.825 24.7955 261.371 26.2893 262.423 26.9205Z" fill="#4280C3"/>
<path opacity="0.35" d="M262.423 26.9205C261.358 26.3719 260.14 26.1942 258.962 26.4156L232.198 31.1391C230.593 31.4875 229.136 32.327 228.029 33.541C226.923 34.7551 226.222 36.2835 226.023 37.9141L218.343 33.4851C220.661 31.4429 223.327 29.8325 226.212 28.73C226.633 28.5591 227.07 28.4322 227.517 28.3513L254.301 23.6382C255.634 23.3725 257.017 23.6326 258.162 24.3641C258.825 24.7955 261.371 26.2893 262.423 26.9205Z" fill="white"/>
<path d="M265.137 31.4548C265.2 34.0778 265.2 36.7078 265.137 39.3449C265.035 41.0597 264.374 42.6939 263.255 43.9973C262.136 45.3007 260.62 46.2014 258.941 46.5618L256.342 47.0246C253.05 47.6033 250.03 47.2456 249.494 46.2462L248.599 44.4156C248.393 44.0507 248.083 43.7555 247.708 43.5681C247.333 43.3807 246.911 43.3095 246.495 43.3636L244.633 43.7003C244.173 43.8161 243.745 44.0342 243.381 44.3384C243.016 44.6425 242.725 45.0249 242.529 45.4571L241.635 47.5612C241.141 48.7394 238.079 50.1702 234.797 50.7172L232.198 51.1801C231.449 51.3404 230.672 51.3307 229.927 51.1516C229.181 50.9725 228.485 50.6287 227.89 50.1454C227.294 49.662 226.815 49.0514 226.486 48.3585C226.158 47.6655 225.989 46.9078 225.992 46.1409C225.928 43.5214 225.928 40.8808 225.992 38.2613C226.095 36.5443 226.758 34.9084 227.879 33.6034C229 32.2984 230.517 31.396 232.198 31.0339L258.962 26.3209C259.718 26.1621 260.5 26.1762 261.249 26.3622C261.999 26.5483 262.697 26.9013 263.291 27.3951C263.884 27.8888 264.359 28.5104 264.679 29.2134C264.999 29.9164 265.155 30.6826 265.137 31.4548Z" fill="#4280C3"/>
<path opacity="0.5" d="M265.137 39.3341C265.034 41.051 264.373 42.6873 263.255 43.9939C262.136 45.3005 260.621 46.2058 258.941 46.572L256.342 47.0138C255.205 47.2233 254.048 47.315 252.892 47.2873H252.545C252.355 47.2873 252.166 47.2873 251.987 47.2873C251.665 47.2561 251.345 47.2034 251.03 47.1295C250.865 47.0979 250.703 47.0522 250.546 46.9928C250.4 46.9513 250.259 46.8949 250.125 46.8244C250.064 46.8033 250.006 46.7712 249.957 46.7298C249.885 46.6953 249.818 46.653 249.757 46.6035C249.651 46.5147 249.562 46.4078 249.494 46.2879L248.599 44.4574C248.393 44.0924 248.083 43.7973 247.708 43.6099C247.333 43.4224 246.911 43.3512 246.495 43.4054L244.644 43.7315C244.185 43.8515 243.759 44.0711 243.396 44.3748C243.032 44.6785 242.74 45.0587 242.54 45.4884C242.54 45.4884 242.151 46.4562 241.656 47.5924C241.162 48.7286 238.09 50.2119 234.807 50.7485L232.209 51.2114C231.682 51.2893 231.147 51.2893 230.62 51.2114C230.324 51.1913 230.032 51.1384 229.747 51.0536L229.347 50.9378L229.095 50.8326C228.868 50.7452 228.649 50.636 228.443 50.5065C227.696 50.0463 227.079 49.4024 226.652 48.6363C226.225 47.8702 226.001 47.0073 226.002 46.1301C225.939 43.5001 225.939 40.87 226.002 38.24C226.106 36.5229 226.769 34.887 227.89 33.582C229.01 32.277 230.527 31.3746 232.209 31.0126L258.972 26.289C260.15 26.0676 261.368 26.2453 262.433 26.794C262.527 26.8364 262.615 26.8893 262.697 26.9518C262.844 27.0359 262.991 27.1411 263.138 27.2358C263.188 27.2691 263.234 27.3079 263.275 27.3516C263.422 27.4673 263.559 27.5935 263.696 27.7198C263.861 27.8862 264.012 28.0656 264.148 28.2563C264.253 28.3874 264.344 28.5284 264.422 28.6771C264.553 28.8844 264.665 29.1027 264.758 29.3293C264.843 29.5292 264.906 29.7291 264.969 29.929C265.025 30.118 265.063 30.3117 265.085 30.5076C265.094 30.5527 265.094 30.5993 265.085 30.6444C265.101 30.865 265.101 31.0865 265.085 31.3071C265.197 34.0494 265.214 36.725 265.137 39.3341Z" fill="white"/>
<g opacity="0.7">
<path opacity="0.7" d="M265.137 31.4544C265.153 31.2337 265.153 31.0122 265.137 30.7916C265.147 30.7465 265.147 30.6999 265.137 30.6548C265.116 30.4589 265.077 30.2652 265.021 30.0762C264.958 29.8763 264.895 29.6764 264.811 29.4766C264.718 29.2499 264.605 29.0316 264.474 28.8243C264.397 28.6756 264.305 28.5347 264.201 28.4035C264.065 28.2128 263.913 28.0334 263.748 27.867C263.612 27.7407 263.475 27.6145 263.328 27.4988C263.29 27.4582 263.248 27.4228 263.201 27.3936L247.116 43.3948C247.432 43.438 247.734 43.556 247.995 43.7389C248.257 43.9219 248.471 44.1645 248.62 44.4468L249.515 46.2773C249.583 46.3972 249.672 46.5041 249.778 46.5929C249.839 46.6424 249.906 46.6847 249.978 46.7192C250.027 46.7606 250.084 46.7927 250.146 46.8138C250.28 46.8843 250.421 46.9407 250.567 46.9822C250.724 47.0416 250.886 47.0873 251.051 47.1189C251.366 47.1928 251.686 47.2455 252.008 47.2767C252.187 47.2767 252.376 47.2767 252.565 47.2767H252.913C253.615 47.2921 254.318 47.2604 255.017 47.182L265.221 36.988C265.211 35.1469 265.2 33.3164 265.137 31.4544Z" fill="#4280C3"/>
<path opacity="0.7" d="M252.45 27.5727L229.063 50.9485L229.316 51.0537L229.716 51.1695C230 51.2543 230.293 51.3072 230.589 51.3273C231.115 51.4052 231.651 51.4052 232.177 51.3273L233.871 51.0222L258.331 26.5732L252.45 27.5727Z" fill="#4280C3"/>
<path opacity="0.7" d="M235.807 30.4971L225.97 40.344C225.97 42.3112 225.97 44.2785 225.97 46.2563C225.982 47.1601 226.221 48.0463 226.665 48.8338L246.969 28.5298L235.807 30.4971Z" fill="#4280C3"/>
</g>
<path d="M219.795 40.8279C219.812 40.9701 219.797 41.1143 219.75 41.2496C219.703 41.385 219.626 41.5079 219.524 41.6092C219.423 41.7105 219.3 41.7875 219.165 41.8343C219.03 41.8812 218.885 41.8968 218.743 41.8799C218.438 41.8057 218.168 41.6298 217.977 41.3811C217.785 41.1324 217.685 40.8259 217.691 40.5123C217.674 40.37 217.69 40.2258 217.737 40.0905C217.784 39.9551 217.861 39.8322 217.962 39.7309C218.063 39.6297 218.186 39.5527 218.321 39.5058C218.457 39.4589 218.601 39.4433 218.743 39.4602C219.047 39.5361 219.316 39.7126 219.507 39.9608C219.698 40.2091 219.8 40.5147 219.795 40.8279Z" fill="#263238"/>
<g opacity="0.5">
<path opacity="0.5" d="M259.982 26.8886C260.743 26.888 261.493 27.0683 262.17 27.4146C262.248 27.4534 262.322 27.4992 262.391 27.5514C262.529 27.6317 262.663 27.7195 262.791 27.8144H262.844H262.896L263.265 28.1405C263.415 28.2934 263.552 28.4588 263.675 28.635C263.76 28.7389 263.835 28.8518 263.896 28.9716C264.003 29.1508 264.098 29.3371 264.18 29.5292C264.242 29.6801 264.295 29.8347 264.338 29.9921V30.0762C264.387 30.2299 264.419 30.3887 264.432 30.5497V30.7075C264.447 30.9036 264.447 31.1005 264.432 31.2966C264.506 33.9056 264.506 36.5567 264.432 39.1552C264.369 40.7521 263.787 42.2849 262.776 43.5223C261.764 44.7596 260.377 45.6343 258.825 46.0143L256.227 46.4667C255.261 46.634 254.282 46.722 253.302 46.7297H252.85H252.523H252.018C251.714 46.6958 251.412 46.6431 251.114 46.5719C250.964 46.5419 250.817 46.5033 250.672 46.4562C250.57 46.4225 250.472 46.3802 250.377 46.33H250.304L250.198 46.2668C250.15 46.2235 250.108 46.174 250.072 46.1195L249.178 44.289C248.967 43.8413 248.634 43.4624 248.217 43.1962C247.8 42.9299 247.316 42.7873 246.822 42.7846C246.685 42.7742 246.548 42.7742 246.411 42.7846L244.549 43.1108C243.995 43.2472 243.479 43.5073 243.04 43.8717C242.601 44.2362 242.25 44.6953 242.014 45.2148L241.12 47.3188C240.751 48.192 238.027 49.5807 234.692 50.1698L232.104 50.6222C231.798 50.6744 231.488 50.7025 231.178 50.7063C231.003 50.7168 230.827 50.7168 230.652 50.7063C230.389 50.6828 230.129 50.6371 229.873 50.5696L229.558 50.4644L229.421 50.4118H229.295C229.096 50.3384 228.905 50.2431 228.727 50.1277C228.059 49.7167 227.508 49.1409 227.126 48.4556C226.745 47.7703 226.546 46.9985 226.549 46.2142C226.496 43.6157 226.496 40.9541 226.549 38.3556C226.658 36.7717 227.277 35.2656 228.312 34.0618C229.347 32.8579 230.743 32.0208 232.293 31.6753L259.067 27.0043C259.369 26.9503 259.675 26.9221 259.982 26.9202V26.8886ZM259.982 26.3626C259.63 26.3633 259.278 26.3915 258.93 26.4468L232.167 31.1703C230.485 31.5324 228.968 32.4348 227.847 33.7398C226.727 35.0448 226.064 36.6807 225.96 38.3977C225.897 41.0383 225.897 43.6578 225.96 46.2879C225.959 47.1651 226.183 48.0279 226.61 48.7941C227.037 49.5602 227.654 50.2041 228.401 50.6643C228.607 50.7938 228.825 50.903 229.053 50.9904L229.305 51.0956L229.705 51.2113C229.989 51.2962 230.282 51.3491 230.578 51.3691C230.768 51.3802 230.957 51.3802 231.146 51.3691C231.499 51.3731 231.851 51.3449 232.198 51.285L234.797 50.8221C238.079 50.254 241.109 48.8232 241.646 47.666C242.182 46.5088 242.529 45.562 242.529 45.562C242.729 45.1323 243.021 44.7521 243.385 44.4484C243.749 44.1447 244.175 43.9251 244.633 43.8051L246.485 43.479C246.59 43.4686 246.696 43.4686 246.8 43.479C247.166 43.483 247.524 43.5821 247.839 43.7666C248.155 43.9511 248.417 44.2145 248.599 44.531L249.494 46.3615C249.562 46.4814 249.651 46.5883 249.757 46.6771C249.818 46.7266 249.885 46.7689 249.957 46.8034C250.006 46.8448 250.063 46.8769 250.125 46.898C250.259 46.9685 250.4 47.0249 250.546 47.0664C250.703 47.1258 250.865 47.1715 251.03 47.2031C251.345 47.277 251.665 47.3297 251.987 47.3609C252.166 47.3609 252.355 47.3609 252.545 47.3609H253.323C254.336 47.355 255.346 47.26 256.342 47.0769L258.941 46.635C260.631 46.2659 262.154 45.3513 263.273 44.032C264.393 42.7128 265.048 41.062 265.137 39.334C265.2 36.704 265.2 34.0774 265.137 31.4544C265.153 31.2338 265.153 31.0122 265.137 30.7916C265.147 30.7465 265.147 30.6999 265.137 30.6549C265.116 30.4589 265.077 30.2653 265.021 30.0762C264.958 29.8764 264.895 29.6765 264.811 29.4766C264.718 29.2499 264.605 29.0317 264.474 28.8243C264.397 28.6756 264.305 28.5347 264.201 28.4035C264.065 28.2128 263.913 28.0334 263.749 27.867C263.612 27.7408 263.475 27.6145 263.328 27.4988C263.287 27.4552 263.241 27.4163 263.191 27.3831C263.044 27.2884 262.896 27.1832 262.749 27.099C262.668 27.0366 262.579 26.9836 262.486 26.9412C261.732 26.5507 260.895 26.3486 260.045 26.3521L259.982 26.3626Z" fill="black"/>
</g>
<path d="M225.992 46.2564L225.855 40.586C225.855 39.6392 225.781 38.7134 225.855 37.735C225.968 36.7676 226.268 35.8314 226.738 34.9787C227.664 33.2513 229.18 31.9145 231.01 31.2125C231.928 30.9318 232.867 30.7242 233.819 30.5918L236.606 30.0868L247.768 28.1827C251.492 27.5655 255.224 26.9798 258.962 26.4258C255.259 27.1832 251.552 27.9126 247.842 28.614L236.733 30.6339L233.945 31.1073C233.023 31.2264 232.112 31.4163 231.22 31.6754C229.494 32.3385 228.051 33.5805 227.138 35.1891C226.676 35.9861 226.373 36.8649 226.244 37.7771C226.139 38.6818 226.191 39.6497 226.16 40.586L225.992 46.2564Z" fill="white"/>
<g opacity="0.3">
<path opacity="0.3" d="M415.681 0.78848V136.983C413.346 151.238 406.013 165.24 393.589 178.096C389.107 182.706 384.274 186.962 379.134 190.825C374.113 194.535 368.886 197.96 363.48 201.083C342.882 213.012 318.485 221.408 292.563 226.331C288.439 227.124 284.273 227.825 280.065 228.435V91.6725C309.206 86.9594 336.664 78.2803 359.661 65.6245C388.203 49.8442 405.613 30.3713 411.926 10.0042C413.123 6.99412 414.097 3.8998 414.84 0.7464C414.872 0.658354 414.932 0.583028 415.011 0.531356C415.089 0.479685 415.182 0.454357 415.276 0.459048C415.37 0.463738 415.46 0.498203 415.532 0.557442C415.605 0.61668 415.658 0.697609 415.681 0.78848Z" fill="#4280C3"/>
</g>
<path d="M279.466 229.087V91.1777L279.939 91.1041C309.753 86.2859 337.211 77.3016 359.346 65.1192C386.814 49.9912 404.793 30.897 411.315 9.90922V9.43581H411.505C412.626 6.55714 413.547 3.60446 414.261 0.598846C414.356 0.400733 414.51 0.237165 414.702 0.131057C414.894 0.0249485 415.115 -0.0183839 415.333 0.00713104C415.551 0.032646 415.755 0.125729 415.918 0.27334C416.08 0.420952 416.193 0.615698 416.239 0.830292V136.983C413.83 151.785 406.329 165.724 393.957 178.485C389.455 183.118 384.597 187.392 379.429 191.267C374.39 194.997 369.143 198.436 363.712 201.566C343.576 213.212 319.653 221.754 292.627 226.888C288.513 227.677 284.295 228.382 280.107 228.992L279.466 229.087ZM280.591 92.1035V227.814C284.547 227.235 288.524 226.562 292.416 225.826C319.316 220.702 343.123 212.223 363.154 200.577C368.539 197.467 373.748 194.06 378.755 190.373C383.87 186.541 388.681 182.32 393.147 177.748C405.361 165.124 412.757 151.448 415.124 136.93V1.80867C414.401 4.65103 413.498 7.44452 412.42 10.1722C405.803 31.4546 387.645 50.7802 359.893 66.0555C337.727 78.2484 310.374 87.2537 280.591 92.1035Z" fill="#A2C6EE"/>
<path d="M311.647 194.476C311.348 194.476 311.062 194.357 310.851 194.146C310.64 193.935 310.521 193.648 310.521 193.35V112.912C310.53 112.672 310.616 112.44 310.765 112.251C310.915 112.062 311.12 111.925 311.352 111.86C318.012 110.072 324.156 108.168 330.131 106.022C330.304 105.954 330.491 105.932 330.675 105.956C330.858 105.979 331.033 106.049 331.183 106.158C331.332 106.262 331.455 106.401 331.539 106.562C331.623 106.723 331.667 106.902 331.667 107.084V187.522C331.664 187.752 331.591 187.976 331.457 188.164C331.324 188.352 331.137 188.495 330.92 188.574C324.871 190.741 318.674 192.666 311.984 194.465C311.872 194.482 311.759 194.486 311.647 194.476ZM312.773 113.775V191.877C318.601 190.288 324.061 188.584 329.384 186.691V108.641C324.05 110.503 318.622 112.218 312.773 113.775Z" fill="white"/>
<path d="M347.836 181.546C347.62 181.551 347.406 181.488 347.226 181.367C347.067 181.266 346.937 181.126 346.847 180.96C346.756 180.795 346.71 180.609 346.711 180.42V99.983C346.708 99.7625 346.77 99.5459 346.887 99.3593C347.005 99.1728 347.174 99.024 347.374 98.931C352.674 96.5554 357.846 93.9042 362.87 90.9882C364.017 90.378 365.079 89.7258 366.1 89.0841C366.269 88.9753 366.466 88.9175 366.668 88.9175C366.869 88.9175 367.066 88.9753 367.236 89.0841C367.413 89.1789 367.561 89.3199 367.665 89.4921C367.769 89.6643 367.824 89.8614 367.825 90.0624V170.5C367.826 170.692 367.777 170.881 367.683 171.049C367.589 171.217 367.453 171.357 367.288 171.457C366.236 172.12 365.132 172.814 363.953 173.435C358.862 176.381 353.619 179.057 348.247 181.451C348.117 181.508 347.978 181.541 347.836 181.546ZM348.962 100.719V178.685C353.36 176.654 357.925 174.287 362.87 171.447C363.817 170.952 364.7 170.395 365.574 169.869V92.0192C365.048 92.3348 364.522 92.6399 363.953 92.9344C358.641 96.0379 353.717 98.5417 348.962 100.719Z" fill="white"/>
<path d="M383.952 159.422C383.788 159.424 383.626 159.388 383.479 159.317C383.279 159.224 383.111 159.075 382.995 158.889C382.879 158.702 382.821 158.485 382.827 158.265V77.8589C382.828 77.6939 382.865 77.531 382.936 77.3819C383.007 77.2329 383.109 77.1012 383.237 76.9963C386.547 74.2608 389.707 71.3495 392.705 68.275C396.067 64.8735 399.143 61.2 401.9 57.292C402.036 57.0945 402.232 56.9459 402.459 56.8678C402.686 56.7898 402.933 56.7863 403.162 56.858C403.391 56.9297 403.591 57.0727 403.733 57.2662C403.875 57.4597 403.952 57.6936 403.951 57.9337V138.371C403.95 138.603 403.88 138.83 403.751 139.023C400.933 143.026 397.794 146.794 394.367 150.29C391.3 153.419 388.069 156.383 384.689 159.17C384.48 159.337 384.22 159.426 383.952 159.422ZM385.078 78.4165V155.877C387.813 153.531 390.391 151.132 392.747 148.712C396.007 145.389 398.997 141.811 401.689 138.013V61.3843C399.41 64.3387 396.951 67.1494 394.325 69.8005C391.392 72.8225 388.302 75.688 385.067 78.3849L385.078 78.4165Z" fill="white"/>
<g opacity="0.3">
<path opacity="0.3" d="M293.657 208.426L339.41 123.906L375.999 171.447C375.999 171.447 360.576 193.518 293.657 208.426Z" fill="#4280C3"/>
</g>
<g opacity="0.3">
<path opacity="0.3" d="M208.675 213.507C166.9 211.276 126.271 201.356 94.2366 183.755C58.2365 163.925 39.9208 138.045 39.3106 112.071V109.483L38.9529 21.9338C38.9529 15.6848 49.9571 33.4008 73.0068 51.5692C73.5539 52.011 74.0588 52.4213 74.6585 52.8526C75.942 53.8415 77.257 54.8094 78.6246 55.7772C83.6628 59.346 88.9037 62.6198 94.3208 65.5821C126.271 83.1403 166.71 93.0503 208.328 95.3121L208.675 213.507Z" fill="#4280C3"/>
</g>
<path d="M40.1522 22.06C42.4805 24.0549 44.6703 26.206 46.7063 28.4984C54.6583 37.104 63.2383 45.1073 72.3756 52.4423C72.7754 52.7685 73.1857 53.0841 73.6065 53.3997L74.0378 53.7468C75.2687 54.6937 76.5732 55.6615 78.046 56.703C83.115 60.2854 88.3836 63.5765 93.8263 66.5604C124.335 83.3928 164.522 93.913 207.224 96.3747L207.56 212.318C165.059 209.888 125.061 199.41 94.8047 182.756C60.3615 163.767 41.057 138.676 40.4363 112.05V109.462L40.1102 22.06H40.1522ZM39.6262 20.6924C39.1949 20.6924 38.9845 21.1027 38.9845 21.9758L39.3106 109.504V112.092C39.9208 138.066 58.247 163.946 94.2366 183.776C126.229 201.398 166.9 211.318 208.675 213.549L208.328 95.3121C166.721 93.0503 126.271 83.1403 94.3628 65.5821C88.9457 62.6198 83.7049 59.346 78.6667 55.7772C77.2991 54.8094 75.984 53.8415 74.7006 52.8526C74.143 52.4213 73.6486 52.011 73.0489 51.5692C53.2183 35.9467 42.2878 20.6924 39.6262 20.6924Z" fill="#A2C6EE"/>
<path d="M168.278 196.716H168.13C167.783 196.716 133.94 191.814 101.012 175.097C63.2862 155.951 48.4737 126.273 48.3265 125.968C48.2481 125.815 48.2084 125.645 48.2107 125.474V102.75C48.2084 102.519 48.2824 102.293 48.4211 102.108L73.1541 67.1392C73.274 66.9771 73.4341 66.8491 73.6186 66.7679C73.8031 66.6867 74.0057 66.6552 74.2061 66.6763C74.405 66.6962 74.5949 66.7692 74.7559 66.8877C74.917 67.0061 75.0432 67.1657 75.1214 67.3496L105.809 138.887L103.126 125.695C103.084 125.479 103.106 125.256 103.188 125.053C103.27 124.849 103.409 124.674 103.589 124.548L128.375 107.137C128.499 107.044 128.644 106.979 128.796 106.948C128.949 106.917 129.107 106.921 129.258 106.958C129.411 106.991 129.554 107.054 129.681 107.145C129.808 107.235 129.915 107.351 129.995 107.484L169.298 173.509C169.402 173.684 169.456 173.884 169.456 174.088V195.591C169.459 195.739 169.432 195.887 169.376 196.025C169.321 196.163 169.238 196.288 169.133 196.393C169.028 196.498 168.902 196.581 168.764 196.637C168.627 196.692 168.479 196.719 168.33 196.716H168.278ZM50.4515 125.179C51.8823 127.925 66.7263 155.151 102 173.067C130.984 187.795 160.672 193.203 167.121 194.255V174.393L128.596 109.672L105.451 125.968L110.112 149.113C110.139 149.371 110.075 149.63 109.933 149.847C109.791 150.064 109.578 150.225 109.33 150.303C109.083 150.381 108.816 150.371 108.575 150.275C108.334 150.179 108.133 150.002 108.008 149.775L73.8379 70.1375L50.4621 103.129L50.4515 125.179Z" fill="white"/>
<path d="M167.846 130.102C167.14 130.098 166.436 130.028 165.742 129.892C158.957 128.566 153.444 121.139 153.444 113.344C153.375 111.46 153.722 109.585 154.463 107.851C155.203 106.118 156.317 104.57 157.726 103.318C158.88 102.357 160.236 101.668 161.694 101.304C163.151 100.94 164.671 100.909 166.142 101.214C172.917 102.539 178.43 109.967 178.43 117.762C178.501 119.646 178.154 121.522 177.413 123.255C176.673 124.989 175.558 126.537 174.148 127.788C172.384 129.275 170.154 130.095 167.846 130.102ZM164.049 103.318C162.261 103.302 160.526 103.917 159.146 105.054C157.997 106.097 157.091 107.381 156.492 108.813C155.894 110.246 155.619 111.793 155.685 113.344C155.685 120.119 160.388 126.546 166.205 127.683C167.349 127.93 168.535 127.917 169.673 127.644C170.811 127.37 171.873 126.844 172.78 126.105C173.93 125.061 174.836 123.778 175.434 122.345C176.032 120.912 176.308 119.366 176.242 117.815C176.242 111.04 171.55 104.612 165.721 103.476C165.17 103.369 164.61 103.313 164.049 103.307V103.318Z" fill="white"/>
<g opacity="0.3">
<path opacity="0.3" d="M47.1797 48.6865C47.1797 48.6865 57.4369 66.7076 78.6457 74.5452V64.3616C58.3101 54.7462 47.1797 36.7461 47.1797 36.7461V48.6865Z" fill="#4280C3"/>
</g>
<g opacity="0.3">
<path opacity="0.3" d="M47.1797 67.1392C47.1797 67.1392 57.4369 85.1603 78.6457 92.9978V82.8143C58.3101 73.1988 47.1797 55.1987 47.1797 55.1987V67.1392Z" fill="#4280C3"/>
</g>
<g opacity="0.3">
<path opacity="0.3" d="M47.1797 85.5913C47.1797 85.5913 57.4369 103.612 78.6457 111.45V101.266C58.3101 91.6509 47.1797 73.6509 47.1797 73.6509V85.5913Z" fill="#4280C3"/>
</g>
</svg>
