<svg width="48" height="48" fill="none" xmlns="http://www.w3.org/2000/svg"><path d="M19.6267 29.2604c3.6014-1.8674 7.1713-3.7177 10.7741-5.5861-3.6136-1.8857-7.1826-3.7467-10.7741-5.6211v11.2072z" fill="#EA5050"/><path d="M24 0C10.7456 0 0 10.7451 0 24s10.7456 24 24 24 24-10.7451 24-24S37.2544 0 24 0zm16.3524 32.011c-.4154 1.8021-1.8895 3.1314-3.6637 3.3293-4.2019.4699-8.4544.4724-12.6897.4699-4.2353.0025-8.4887 0-12.6916-.4699-1.77418-.1979-3.24733-1.5272-3.66177-3.3293C7.0549 29.4438 7.0549 26.6423 7.0549 24c0-2.6423.00687-5.4447.5976-8.011.41445-1.8021 1.88759-3.1319 3.6618-3.3303 4.2028-.4694 8.4563-.4719 12.6916-.4694 4.2343-.0025 8.4878 0 12.6892.4694 1.7751.1984 3.2493 1.5277 3.6637 3.3303.5907 2.5667.5858 5.3687.5858 8.011 0 2.6423-.0015 5.4443-.5922 8.011z" fill="#EA5050"/></svg>