<svg width="392" height="428" viewBox="0 0 392 428" fill="none" xmlns="http://www.w3.org/2000/svg">
<path d="M165.553 343.463L147.721 333.171L125.205 320.17H125.151C123.128 319.047 121.866 316.578 121.866 313.047C121.866 309.662 120.713 307.254 118.843 306.069L134.229 314.947L136.659 316.347L159.145 329.324L159.391 329.47C161.322 330.624 162.514 333.063 162.514 336.501C162.514 339.94 163.653 342.286 165.553 343.463Z" fill="#6D7EDD"/>
<g opacity="0.1">
<path opacity="0.1" d="M165.553 343.463L147.721 333.171L125.205 320.17H125.151C123.128 319.047 121.866 316.578 121.866 313.047C121.866 309.662 120.713 307.254 118.843 306.069L134.229 314.947L136.659 316.347L159.145 329.324L159.391 329.47C161.322 330.624 162.514 333.063 162.514 336.501C162.514 339.94 163.653 342.286 165.553 343.463Z" fill="black"/>
</g>
<path d="M184.361 318.416V323.839C184.361 330.817 179.469 339.294 173.43 342.779C170.453 344.502 167.745 344.686 165.776 343.594L165.553 343.463C163.653 342.286 162.476 339.871 162.476 336.471C162.476 333.071 161.283 330.594 159.353 329.44L159.106 329.293L136.621 316.316C140.775 312.124 143.729 305.8 143.729 300.385V295L184.361 318.416Z" fill="#6D7EDD"/>
<path d="M159.122 329.293C157.153 328.255 154.506 328.455 151.552 330.155C150.142 330.984 148.848 331.998 147.706 333.171C143.552 337.355 140.606 343.679 140.606 349.094C140.606 356.071 135.706 364.549 129.667 368.041L118.728 374.357L78.1187 350.902L89.0576 344.586C95.0963 341.102 99.9965 332.617 99.9965 325.639C99.9965 318.662 104.889 310.185 110.935 306.7C113.905 304.985 116.605 304.8 118.574 305.885L118.836 306.031L134.221 314.908L136.652 316.308L159.122 329.293Z" fill="#6D7EDD"/>
<g opacity="0.4">
<path opacity="0.4" d="M159.122 329.293C157.153 328.255 154.506 328.455 151.552 330.155C150.142 330.984 148.848 331.998 147.706 333.171C143.552 337.355 140.606 343.679 140.606 349.094C140.606 356.071 135.706 364.549 129.667 368.041L118.728 374.357L78.1187 350.902L89.0576 344.586C95.0963 341.102 99.9965 332.617 99.9965 325.639C99.9965 318.662 104.889 310.185 110.935 306.7C113.905 304.985 116.605 304.8 118.574 305.885L118.836 306.031L134.221 314.908L136.652 316.308L159.122 329.293Z" fill="white"/>
</g>
<path d="M128.082 354.171C127.828 352.479 126.451 351.864 124.79 352.825L118.743 356.31L106.435 363.41C104.187 364.643 102.02 366.02 99.9503 367.534C96.7713 370.263 93.8204 373.247 91.1268 376.457C85.742 382.611 80.3572 389.288 74.9723 392.396L47.0558 408.512C46.0865 409.145 45.2799 409.997 44.7012 410.999C44.1225 412.001 43.788 413.126 43.7249 414.282V424.628C43.7249 426.598 45.0095 427.482 46.6635 426.751C45.6669 427.177 44.5895 427.379 43.5066 427.344C42.4237 427.31 41.3614 427.039 40.394 426.551L3.3309 405.143C2.36164 404.51 1.555 403.658 0.976304 402.656C0.397612 401.654 0.0631487 400.529 0 399.373V389.027C0.0619349 387.871 0.395888 386.746 0.97469 385.743C1.55349 384.741 2.36079 383.889 3.3309 383.257L31.2474 367.103C36.6323 364.026 42.0171 357.318 47.402 351.171C50.1066 347.969 53.0678 344.992 56.2562 342.271C58.3244 340.761 60.488 339.386 62.7334 338.155L75.0416 331.055L81.0803 327.563C82.1125 327.039 83.2537 326.766 84.4112 326.766C85.5687 326.766 86.7098 327.039 87.7421 327.563L124.828 348.979C125.708 349.564 126.452 350.33 127.013 351.225C127.574 352.121 127.939 353.125 128.082 354.171Z" fill="#455A64"/>
<path d="M46.871 415.843C46.871 415.843 -0.000123319 389.019 0.00756931 388.788C0.00756931 388.788 0.00756931 388.942 0.00756931 389.019V399.366C0.0695042 400.522 0.403457 401.647 0.982259 402.649C1.56106 403.652 2.36836 404.503 3.33848 405.135L40.4246 426.551C41.4569 427.075 42.598 427.348 43.7555 427.348C44.913 427.348 46.0542 427.075 47.0864 426.551L48.6711 425.636L46.871 415.843Z" fill="#37474F"/>
<path d="M124.782 352.818L106.451 363.41C104.204 364.643 102.038 366.018 99.9658 367.526C91.6423 374.249 83.3189 387.596 74.9955 392.388L47.079 408.543C46.1088 409.175 45.3015 410.026 44.7227 411.029C44.1439 412.031 43.81 413.156 43.748 414.312V424.659C43.748 426.782 45.2404 427.644 47.079 426.582L124.774 381.719C125.744 381.086 126.55 380.234 127.129 379.232C127.708 378.23 128.042 377.105 128.105 375.949V354.741C128.121 352.618 126.628 351.756 124.782 352.818Z" fill="#263238"/>
<path d="M100.204 359.802C97.9555 361.035 95.7893 362.412 93.7192 363.926C92.1166 365.248 90.5982 366.668 89.1729 368.18C88.8607 368.481 88.4618 368.676 88.0325 368.738C87.6032 368.801 87.1652 368.726 86.7805 368.526L58.187 352.017C58.0183 351.935 57.8723 351.813 57.7615 351.662C57.6507 351.51 57.5786 351.334 57.5513 351.148C57.524 350.963 57.5425 350.773 57.605 350.596C57.6675 350.419 57.7722 350.26 57.91 350.133C59.3408 348.621 60.8643 347.201 62.4718 345.879C64.54 344.369 66.7036 342.994 68.949 341.763C72.4491 339.732 76.3723 337.463 79.911 335.432C80.325 335.224 80.7821 335.115 81.2456 335.115C81.7091 335.115 82.1662 335.224 82.5803 335.432L111.166 351.933C111.325 351.989 111.463 352.093 111.561 352.231C111.659 352.369 111.711 352.533 111.711 352.702C111.711 352.871 111.659 353.036 111.561 353.173C111.463 353.311 111.325 353.415 111.166 353.471L100.204 359.802Z" fill="#37474F"/>
<path d="M82.5802 336.825C82.1663 336.616 81.7092 336.507 81.2455 336.507C80.7819 336.507 80.3247 336.616 79.9109 336.825L68.9489 343.163C66.7035 344.394 64.5399 345.769 62.4717 347.279C60.8661 348.6 59.3427 350.018 57.9099 351.525L57.7715 351.702C57.8859 351.848 58.0269 351.97 58.1869 352.064L86.7804 368.572C87.1651 368.772 87.6031 368.847 88.0324 368.785C88.4617 368.722 88.8606 368.527 89.1728 368.226C90.5981 366.715 92.1166 365.294 93.7191 363.972C95.7892 362.459 97.9554 361.081 100.204 359.849L111.166 353.518L111.297 353.425L111.166 353.333L82.5802 336.825Z" fill="white"/>
<path d="M40.6247 419.451C40.6247 420.451 39.8554 420.828 38.9554 420.297L4.79246 400.573C4.31731 400.275 3.91924 399.869 3.63053 399.387C3.34183 398.906 3.17065 398.364 3.13086 397.804C3.13086 396.804 3.90012 396.427 4.79246 396.958L38.9554 416.689C39.431 416.986 39.83 417.391 40.12 417.871C40.41 418.351 40.5829 418.892 40.6247 419.451Z" fill="#263238"/>
<path d="M52.9329 383.826V382.457L51.3482 382.342L47.7942 380.273C47.278 380.011 46.7075 379.875 46.1288 379.875C45.5501 379.875 44.9795 380.011 44.4633 380.273L42.0632 381.657L40.8555 381.565V382.896C40.8675 383.107 40.9379 383.311 41.0587 383.485C41.1796 383.659 41.3462 383.795 41.5401 383.88L46.0172 386.465C46.5334 386.727 47.104 386.863 47.6827 386.863C48.2614 386.863 48.8319 386.727 49.3481 386.465L52.2713 384.78C52.4579 384.696 52.6192 384.564 52.7393 384.398C52.8594 384.232 52.9341 384.038 52.956 383.834L52.9329 383.826Z" fill="#E0E0E0"/>
<path d="M47.7944 378.919L52.2792 381.503C52.4802 381.571 52.6547 381.701 52.7783 381.873C52.9019 382.046 52.9684 382.253 52.9684 382.465C52.9684 382.677 52.9019 382.884 52.7783 383.056C52.6547 383.229 52.4802 383.358 52.2792 383.426L49.356 385.111C48.8398 385.373 48.2693 385.509 47.6906 385.509C47.1119 385.509 46.5413 385.373 46.0251 385.111L41.548 382.526C41.3471 382.458 41.1726 382.329 41.049 382.156C40.9254 381.984 40.8589 381.777 40.8589 381.565C40.8589 381.353 40.9254 381.146 41.049 380.973C41.1726 380.801 41.3471 380.671 41.548 380.603L44.4635 378.919C44.9797 378.657 45.5503 378.521 46.129 378.521C46.7077 378.521 47.2782 378.657 47.7944 378.919Z" fill="#F5F5F5"/>
<path d="M41.2173 377.042V375.672L39.6326 375.557L36.0479 373.488C35.5317 373.226 34.9611 373.09 34.3824 373.09C33.8037 373.09 33.2332 373.226 32.717 373.488L30.3169 374.872L29.1091 374.788V376.111C29.1241 376.321 29.1966 376.524 29.3187 376.696C29.4407 376.868 29.6077 377.004 29.8015 377.088L34.2786 379.672C34.7937 379.938 35.3647 380.076 35.944 380.076C36.5234 380.076 37.0944 379.938 37.6095 379.672L40.525 377.988C40.7139 377.906 40.8776 377.775 40.9993 377.608C41.1209 377.442 41.1962 377.247 41.2173 377.042Z" fill="#E0E0E0"/>
<path d="M36.0476 372.134L40.5247 374.726C40.7257 374.794 40.9002 374.924 41.0238 375.096C41.1474 375.269 41.2139 375.476 41.2139 375.688C41.2139 375.9 41.1474 376.107 41.0238 376.279C40.9002 376.452 40.7257 376.581 40.5247 376.649L37.6092 378.365C37.093 378.626 36.5225 378.763 35.9438 378.763C35.3651 378.763 34.7945 378.626 34.2783 378.365L29.8012 375.772C29.6003 375.704 29.4258 375.575 29.3021 375.402C29.1785 375.23 29.1121 375.023 29.1121 374.811C29.1121 374.599 29.1785 374.392 29.3021 374.219C29.4258 374.047 29.6003 373.917 29.8012 373.849L32.7167 372.164C33.2305 371.898 33.7998 371.757 34.3785 371.751C34.9572 371.746 35.529 371.877 36.0476 372.134Z" fill="#F5F5F5"/>
<path d="M64.6486 390.588V389.219L63.1101 389.104L59.5176 387.034C59.0014 386.773 58.4308 386.636 57.8521 386.636C57.2735 386.636 56.7029 386.773 56.1867 387.034L53.7943 388.419L52.5789 388.327V389.658C52.5918 389.869 52.6625 390.072 52.7832 390.246C52.9039 390.419 53.0701 390.557 53.2635 390.642L57.7483 393.227C58.2645 393.488 58.8351 393.625 59.4138 393.625C59.9924 393.625 60.563 393.488 61.0792 393.227L63.9947 391.542C64.1822 391.459 64.3443 391.328 64.4646 391.161C64.5849 390.995 64.6589 390.8 64.6794 390.596L64.6486 390.588Z" fill="#E0E0E0"/>
<path d="M59.4872 385.68L63.9643 388.265C64.1652 388.333 64.3398 388.463 64.4634 388.635C64.587 388.808 64.6534 389.015 64.6534 389.227C64.6534 389.439 64.587 389.646 64.4634 389.818C64.3398 389.991 64.1652 390.12 63.9643 390.188L61.0488 391.873C60.5326 392.135 59.962 392.271 59.3833 392.271C58.8047 392.271 58.2341 392.135 57.7179 391.873L53.2331 389.288C53.0322 389.22 52.8576 389.091 52.734 388.918C52.6104 388.746 52.5439 388.539 52.5439 388.327C52.5439 388.115 52.6104 387.908 52.734 387.735C52.8576 387.563 53.0322 387.433 53.2331 387.365L56.1563 385.68C56.6725 385.419 57.2431 385.283 57.8217 385.283C58.4004 385.283 58.971 385.419 59.4872 385.68Z" fill="#F5F5F5"/>
<path d="M62.3101 378.419V377.049L60.7254 376.934L57.1406 374.865C56.6244 374.603 56.0539 374.467 55.4752 374.467C54.8965 374.467 54.326 374.603 53.8097 374.865L51.4096 376.249L50.2019 376.157V377.488C50.2148 377.699 50.2855 377.902 50.4063 378.076C50.527 378.25 50.6931 378.387 50.8865 378.472L55.3713 381.057C55.8876 381.319 56.4581 381.455 57.0368 381.455C57.6155 381.455 58.186 381.319 58.7022 381.057L61.6178 379.372C61.8049 379.288 61.967 379.156 62.0883 378.99C62.2096 378.825 62.286 378.63 62.3101 378.426V378.419Z" fill="#E0E0E0"/>
<path d="M57.1408 373.511L61.6179 376.095C61.8188 376.164 61.9933 376.293 62.1169 376.466C62.2406 376.638 62.307 376.845 62.307 377.057C62.307 377.269 62.2406 377.476 62.1169 377.649C61.9933 377.821 61.8188 377.95 61.6179 378.019L58.7024 379.703C58.1862 379.965 57.6156 380.101 57.0369 380.101C56.4582 380.101 55.8877 379.965 55.3715 379.703L50.8713 377.119C50.6703 377.05 50.4958 376.921 50.3722 376.748C50.2486 376.576 50.1821 376.369 50.1821 376.157C50.1821 375.945 50.2486 375.738 50.3722 375.565C50.4958 375.393 50.6703 375.264 50.8713 375.195L53.7945 373.511C54.3127 373.247 54.886 373.109 55.4676 373.109C56.0492 373.109 56.6226 373.247 57.1408 373.511Z" fill="#F5F5F5"/>
<path d="M50.5945 371.634V370.264L49.0098 370.149L45.4251 368.08C44.9089 367.818 44.3383 367.682 43.7596 367.682C43.1809 367.682 42.6104 367.818 42.0942 368.08L39.6941 369.464L38.4863 369.38V370.672C38.4984 370.883 38.5687 371.087 38.6896 371.261C38.8104 371.435 38.9771 371.572 39.171 371.657L43.6558 374.241C44.172 374.503 44.7425 374.639 45.3212 374.639C45.8999 374.639 46.4705 374.503 46.9867 374.241L49.9022 372.557C50.0902 372.474 50.2527 372.343 50.3731 372.177C50.4934 372.01 50.5672 371.815 50.5868 371.611L50.5945 371.634Z" fill="#E0E0E0"/>
<path d="M45.425 366.726L49.9022 369.318C50.1031 369.386 50.2776 369.516 50.4012 369.688C50.5248 369.861 50.5913 370.068 50.5913 370.28C50.5913 370.492 50.5248 370.699 50.4012 370.871C50.2776 371.044 50.1031 371.173 49.9022 371.241L47.0251 372.926C46.5089 373.188 45.9384 373.324 45.3597 373.324C44.781 373.324 44.2104 373.188 43.6942 372.926L39.2094 370.334C39.0085 370.265 38.8339 370.136 38.7103 369.964C38.5867 369.791 38.5203 369.584 38.5203 369.372C38.5203 369.16 38.5867 368.953 38.7103 368.781C38.8339 368.608 39.0085 368.479 39.2094 368.41L42.1326 366.726C42.6438 366.471 43.2074 366.338 43.7788 366.338C44.3502 366.338 44.9138 366.471 45.425 366.726Z" fill="#F5F5F5"/>
<path d="M74.0259 385.18V383.811L72.4412 383.696L68.8565 381.626C68.3403 381.365 67.7697 381.229 67.191 381.229C66.6123 381.229 66.0418 381.365 65.5256 381.626L63.1255 383.011L61.9177 382.919V384.25C61.933 384.461 62.0055 384.664 62.1275 384.838C62.2494 385.011 62.4162 385.148 62.6101 385.234L67.0872 387.819C67.6034 388.081 68.1739 388.217 68.7526 388.217C69.3313 388.217 69.9019 388.081 70.4181 387.819L73.3413 386.134C73.5279 386.05 73.6892 385.918 73.8092 385.752C73.9293 385.586 74.004 385.392 74.0259 385.188V385.18Z" fill="#E0E0E0"/>
<path d="M68.8567 380.273L73.3415 382.857C73.5424 382.925 73.717 383.055 73.8406 383.227C73.9642 383.4 74.0306 383.607 74.0306 383.819C74.0306 384.031 73.9642 384.238 73.8406 384.41C73.717 384.583 73.5424 384.712 73.3415 384.78L70.4183 386.465C69.9021 386.727 69.3315 386.863 68.7528 386.863C68.1742 386.863 67.6036 386.727 67.0874 386.465L62.6103 383.88C62.4093 383.812 62.2348 383.683 62.1112 383.51C61.9876 383.338 61.9211 383.131 61.9211 382.919C61.9211 382.707 61.9876 382.5 62.1112 382.327C62.2348 382.155 62.4093 382.025 62.6103 381.957L65.5258 380.273C66.042 380.011 66.6126 379.875 67.1912 379.875C67.7699 379.875 68.3405 380.011 68.8567 380.273Z" fill="#F5F5F5"/>
<path d="M43.5635 389.258V387.888L41.9788 387.773L38.3941 385.704C37.879 385.438 37.308 385.3 36.7286 385.3C36.1493 385.3 35.5783 385.438 35.0632 385.704L32.6631 387.088L31.4553 386.996V388.365C31.4699 388.576 31.5413 388.779 31.6618 388.952C31.7823 389.125 31.9476 389.263 32.14 389.35L36.6248 391.935C37.141 392.196 37.7115 392.332 38.2902 392.332C38.8689 392.332 39.4395 392.196 39.9557 391.935L42.8712 390.25C43.0583 390.165 43.2204 390.033 43.3417 389.868C43.463 389.702 43.5394 389.508 43.5635 389.304V389.258Z" fill="#E0E0E0"/>
<path d="M38.3939 384.35L42.871 386.934C43.072 387.003 43.2465 387.132 43.3701 387.304C43.4937 387.477 43.5602 387.684 43.5602 387.896C43.5602 388.108 43.4937 388.315 43.3701 388.487C43.2465 388.66 43.072 388.789 42.871 388.857L39.9555 390.542C39.4393 390.804 38.8688 390.94 38.2901 390.94C37.7114 390.94 37.1408 390.804 36.6246 390.542L32.1398 387.957C31.9389 387.889 31.7644 387.76 31.6408 387.587C31.5172 387.415 31.4507 387.208 31.4507 386.996C31.4507 386.784 31.5172 386.577 31.6408 386.404C31.7644 386.232 31.9389 386.102 32.1398 386.034L35.063 384.35C35.5792 384.088 36.1498 383.952 36.7285 383.952C37.3072 383.952 37.8777 384.088 38.3939 384.35Z" fill="#F5F5F5"/>
<path d="M31.8397 382.473V381.103L30.3012 380.988L26.7088 378.919C26.1926 378.657 25.622 378.521 25.0433 378.521C24.4646 378.521 23.8941 378.657 23.3779 378.919L20.9855 380.303L19.77 380.211V381.542C19.7829 381.753 19.8536 381.956 19.9744 382.13C20.0951 382.304 20.2613 382.441 20.4547 382.526L24.9395 385.111C25.4557 385.373 26.0262 385.509 26.6049 385.509C27.1836 385.509 27.7542 385.373 28.2704 385.111L31.1859 383.426C31.3734 383.343 31.5355 383.212 31.6558 383.046C31.776 382.879 31.8501 382.684 31.8705 382.48L31.8397 382.473Z" fill="#E0E0E0"/>
<path d="M26.6704 377.595L31.1552 380.18C31.3562 380.248 31.5307 380.378 31.6543 380.55C31.7779 380.723 31.8444 380.93 31.8444 381.142C31.8444 381.354 31.7779 381.561 31.6543 381.733C31.5307 381.906 31.3562 382.035 31.1552 382.103L28.2397 383.75C27.7235 384.011 27.1529 384.147 26.5743 384.147C25.9956 384.147 25.425 384.011 24.9088 383.75L20.424 381.165C20.2231 381.097 20.0485 380.967 19.9249 380.795C19.8013 380.622 19.7349 380.415 19.7349 380.203C19.7349 379.991 19.8013 379.784 19.9249 379.612C20.0485 379.439 20.2231 379.31 20.424 379.242L23.3395 377.557C23.8587 377.301 24.4309 377.172 25.0096 377.178C25.5883 377.185 26.1572 377.328 26.6704 377.595Z" fill="#F5F5F5"/>
<path d="M55.2792 396.058V394.689L53.6945 394.573L50.1021 392.465C49.587 392.2 49.016 392.062 48.4366 392.062C47.8573 392.062 47.2863 392.2 46.7712 392.465L44.3711 393.85L43.1787 393.75V395.081C43.1948 395.292 43.2676 395.495 43.3895 395.668C43.5113 395.842 43.6777 395.979 43.871 396.065L48.3482 398.65C48.8644 398.912 49.4349 399.048 50.0136 399.048C50.5923 399.048 51.1629 398.912 51.6791 398.65L54.5946 396.966C54.7817 396.881 54.9438 396.749 55.0651 396.583C55.1864 396.418 55.2628 396.223 55.2869 396.019L55.2792 396.058Z" fill="#E0E0E0"/>
<path d="M50.1019 391.111L54.5791 393.696C54.78 393.764 54.9545 393.894 55.0781 394.066C55.2017 394.239 55.2682 394.446 55.2682 394.658C55.2682 394.87 55.2017 395.077 55.0781 395.249C54.9545 395.422 54.78 395.551 54.5791 395.619L51.6405 397.304C51.1243 397.566 50.5537 397.702 49.975 397.702C49.3963 397.702 48.8258 397.566 48.3096 397.304L43.8325 394.719C43.6315 394.651 43.457 394.522 43.3334 394.349C43.2098 394.177 43.1433 393.97 43.1433 393.758C43.1433 393.545 43.2098 393.339 43.3334 393.166C43.457 392.994 43.6315 392.864 43.8325 392.796L46.748 391.111C47.2671 390.846 47.8419 390.708 48.425 390.708C49.008 390.708 49.5828 390.846 50.1019 391.111Z" fill="#F5F5F5"/>
<path d="M34.1783 394.658V393.288L32.5936 393.173L29.0088 391.096C28.4926 390.834 27.9221 390.698 27.3434 390.698C26.7647 390.698 26.1941 390.834 25.6779 391.096L23.2778 392.481L22.0701 392.396V393.75C22.085 393.961 22.1575 394.163 22.2796 394.335C22.4017 394.508 22.5687 394.643 22.7624 394.727L27.2395 397.319C27.7557 397.581 28.3263 397.717 28.905 397.717C29.4837 397.717 30.0542 397.581 30.5704 397.319L33.4936 395.635C33.6813 395.55 33.8432 395.417 33.9634 395.249C34.0835 395.082 34.1576 394.886 34.1783 394.681V394.658Z" fill="#E0E0E0"/>
<path d="M29.0088 389.742L33.4936 392.335C33.6945 392.403 33.8691 392.532 33.9927 392.705C34.1163 392.877 34.1827 393.084 34.1827 393.296C34.1827 393.508 34.1163 393.715 33.9927 393.888C33.8691 394.06 33.6945 394.19 33.4936 394.258L30.5704 395.942C30.0542 396.204 29.4836 396.34 28.905 396.34C28.3263 396.34 27.7557 396.204 27.2395 395.942L22.7624 393.358C22.5615 393.289 22.3869 393.16 22.2633 392.988C22.1397 392.815 22.0732 392.608 22.0732 392.396C22.0732 392.184 22.1397 391.977 22.2633 391.805C22.3869 391.632 22.5615 391.503 22.7624 391.435L25.6779 389.742C26.1941 389.481 26.7646 389.344 27.3433 389.344C27.922 389.344 28.4926 389.481 29.0088 389.742Z" fill="#F5F5F5"/>
<path d="M22.4624 387.873V386.504L20.8778 386.388L17.293 384.319C16.7768 384.057 16.2062 383.921 15.6275 383.921C15.0488 383.921 14.4783 384.057 13.9621 384.319L11.562 385.704L10.3542 385.611V386.942C10.3672 387.153 10.4379 387.357 10.5586 387.53C10.6793 387.704 10.8455 387.841 11.0389 387.927L15.5237 390.511C16.0399 390.773 16.6105 390.909 17.1891 390.909C17.7678 390.909 18.3384 390.773 18.8546 390.511L21.7701 388.827C21.9572 388.742 22.1193 388.61 22.2406 388.445C22.3619 388.279 22.4383 388.085 22.4624 387.881V387.873Z" fill="#E0E0E0"/>
<path d="M17.2929 382.98L21.77 385.565C21.9709 385.633 22.1454 385.763 22.269 385.935C22.3926 386.108 22.4591 386.314 22.4591 386.527C22.4591 386.739 22.3926 386.946 22.269 387.118C22.1454 387.291 21.9709 387.42 21.77 387.488L18.8545 389.134C18.3383 389.396 17.7677 389.532 17.189 389.532C16.6103 389.532 16.0398 389.396 15.5236 389.134L11.0388 386.55C10.8378 386.482 10.6633 386.352 10.5397 386.18C10.4161 386.007 10.3496 385.8 10.3496 385.588C10.3496 385.376 10.4161 385.169 10.5397 384.997C10.6633 384.824 10.8378 384.695 11.0388 384.627L13.9466 382.98C14.4648 382.716 15.0381 382.579 15.6197 382.579C16.2013 382.579 16.7747 382.716 17.2929 382.98Z" fill="#F5F5F5"/>
<path d="M45.8941 401.443V400.073L44.3171 399.958L40.7246 397.881C40.2084 397.619 39.6379 397.483 39.0592 397.483C38.4805 397.483 37.9099 397.619 37.3937 397.881L34.9936 399.266L33.7859 399.181V400.512C33.7993 400.722 33.8703 400.924 33.9911 401.096C34.1119 401.269 34.2777 401.404 34.4705 401.489L38.9476 404.081C39.4639 404.343 40.0344 404.479 40.6131 404.479C41.1918 404.479 41.7623 404.343 42.2786 404.081L45.2018 402.397C45.3903 402.313 45.5531 402.18 45.6735 402.012C45.7938 401.845 45.8673 401.648 45.8864 401.443H45.8941Z" fill="#E0E0E0"/>
<path d="M40.7246 396.504L45.2094 399.096C45.4104 399.165 45.5849 399.294 45.7085 399.466C45.8321 399.639 45.8986 399.846 45.8986 400.058C45.8986 400.27 45.8321 400.477 45.7085 400.649C45.5849 400.822 45.4104 400.951 45.2094 401.02L42.2862 402.704C41.77 402.966 41.1995 403.102 40.6208 403.102C40.0421 403.102 39.4715 402.966 38.9553 402.704L34.4782 400.119C34.2773 400.051 34.1027 399.922 33.9791 399.749C33.8555 399.577 33.7891 399.37 33.7891 399.158C33.7891 398.946 33.8555 398.739 33.9791 398.566C34.1027 398.394 34.2773 398.264 34.4782 398.196L37.3937 396.504C37.9099 396.242 38.4805 396.106 39.0592 396.106C39.6379 396.106 40.2084 396.242 40.7246 396.504Z" fill="#F5F5F5"/>
<path d="M58.2718 362.303L57.9871 361.126L56.8025 361.026L52.9562 358.787C51.1176 357.725 48.6791 357.949 47.4944 359.256C47.243 359.531 47.0586 359.86 46.9559 360.218H46.6174L46.9174 361.464C47.0506 361.906 47.271 362.317 47.5656 362.672C47.8603 363.028 48.2232 363.321 48.6329 363.533L53.3562 366.257C53.7397 366.462 54.1788 366.539 54.6092 366.476C55.0397 366.414 55.4389 366.216 55.7486 365.91C56.4922 365.115 57.2384 364.295 57.9871 363.449C58.1269 363.297 58.2262 363.112 58.2759 362.912C58.3256 362.712 58.3242 362.502 58.2718 362.303Z" fill="#E0E0E0"/>
<path d="M53.0558 365.064L48.3325 362.341C46.494 361.279 46.0248 359.387 47.1863 358.079C48.3479 356.772 50.8096 356.541 52.6481 357.61L57.3714 360.333C57.5394 360.42 57.6848 360.545 57.796 360.699C57.9071 360.852 57.9809 361.029 58.0116 361.216C58.0422 361.402 58.0288 361.594 57.9724 361.774C57.916 361.955 57.8182 362.12 57.6868 362.256C56.938 363.103 56.1918 363.923 55.4482 364.718C55.1392 365.024 54.7398 365.223 54.3091 365.286C53.8784 365.348 53.439 365.27 53.0558 365.064Z" fill="#F5F5F5"/>
<path d="M82.4113 376.995L82.1267 375.803H81.7882C81.4663 375.419 81.0781 375.096 80.642 374.849L75.9264 372.126C75.5463 371.923 75.1098 371.85 74.6843 371.919C74.2588 371.989 73.868 372.197 73.5725 372.511C72.8032 373.334 72.1032 374.149 71.3724 374.934L70.7031 374.88L71.0031 376.118C71.0433 376.281 71.1166 376.433 71.2186 376.565C71.3206 376.698 71.4489 376.807 71.5955 376.888L76.3111 379.611C78.1496 380.673 80.642 380.503 81.8344 379.196C82.1123 378.91 82.3116 378.557 82.4127 378.172C82.5138 377.786 82.5133 377.381 82.4113 376.995Z" fill="#E0E0E0"/>
<path d="M76.0492 378.365L71.3336 375.642C71.1663 375.558 71.0217 375.435 70.9121 375.284C70.8024 375.132 70.7309 374.956 70.7037 374.771C70.6766 374.586 70.6945 374.398 70.7559 374.221C70.8173 374.044 70.9205 373.885 71.0567 373.757C71.8003 372.957 72.5465 372.136 73.2952 371.295C73.5908 370.981 73.9815 370.774 74.407 370.704C74.8325 370.634 75.2691 370.707 75.6492 370.911L80.3648 373.634C82.211 374.695 82.7572 376.642 81.5725 377.949C80.3878 379.257 77.8954 379.411 76.0492 378.365Z" fill="#F5F5F5"/>
<path d="M70.595 369.534L70.3104 368.372L69.4104 368.31L63.7563 365.049C63.2819 364.795 62.7374 364.705 62.2064 364.791C61.6755 364.877 61.1876 365.135 60.8177 365.526C60.2408 366.172 59.6715 366.803 59.0946 367.426C59.0416 367.489 58.9927 367.556 58.9484 367.626H58.3792L58.6715 368.841C58.7229 369.048 58.8182 369.242 58.9509 369.409C59.0836 369.577 59.2506 369.713 59.4407 369.811L65.4948 373.303C65.973 373.56 66.5209 373.656 67.0581 373.579C67.5953 373.501 68.0935 373.254 68.4796 372.872C69.0565 372.257 69.6335 371.618 70.2027 370.98C70.386 370.792 70.5182 370.561 70.5869 370.308C70.6555 370.055 70.6583 369.788 70.595 369.534Z" fill="#E0E0E0"/>
<path d="M69.9261 369.764C69.3568 370.403 68.7798 371.041 68.2106 371.657C67.8226 372.038 67.3232 372.285 66.785 372.362C66.2467 372.44 65.6978 372.344 65.2182 372.088L59.1641 368.595C58.9557 368.49 58.7756 368.337 58.639 368.147C58.5025 367.958 58.4134 367.739 58.3795 367.508C58.3455 367.277 58.3677 367.042 58.444 366.821C58.5203 366.601 58.6485 366.402 58.8179 366.241C59.3948 365.618 59.9641 364.987 60.5411 364.341C60.9109 363.95 61.3988 363.692 61.9298 363.606C62.4607 363.52 63.0052 363.611 63.4796 363.864L69.5337 367.357C69.7413 367.468 69.9204 367.626 70.0573 367.818C70.1941 368.01 70.285 368.231 70.3229 368.464C70.3608 368.697 70.3448 368.935 70.276 369.16C70.2071 369.386 70.0874 369.593 69.9261 369.764Z" fill="#F5F5F5"/>
<path d="M235.398 249.309L284.215 221.113L287.763 303.49L235.398 333.857V249.309Z" fill="#6D7EDD"/>
<path d="M235.398 333.857L211 319.769L225.63 243.674L235.398 249.309V333.857Z" fill="#37474F"/>
<path d="M211 319.769L226.924 317.703L235.398 333.857L211 319.769Z" fill="#37474F"/>
<path d="M211 319.769L226.924 317.703L235.398 333.857L211 319.769Z" fill="#37474F"/>
<path d="M211 319.769L226.924 317.703L235.398 333.857L211 319.769Z" fill="#6D7EDD"/>
<path opacity="0.1" d="M211 319.769L226.924 317.703L235.398 333.857L211 319.769Z" fill="black"/>
<path d="M226.924 317.703L235.398 243.674V249.309V333.857L226.924 317.703Z" fill="#6D7EDD"/>
<path opacity="0.2" d="M226.924 317.703L235.398 243.674V249.309V333.857L226.924 317.703Z" fill="black"/>
<path d="M284.215 221.113L275.679 220.487L274.447 215.478L225.631 243.674H235.398V249.309L284.215 221.113Z" fill="#6D7EDD"/>
<path opacity="0.2" d="M284.215 221.113L275.679 220.487L274.447 215.478L225.631 243.674H235.398V249.309L284.215 221.113Z" fill="black"/>
<path d="M251.343 245.803C251.343 246.512 251.865 246.825 252.491 246.45C252.82 246.234 253.093 245.944 253.289 245.603C253.485 245.263 253.597 244.88 253.618 244.488C253.618 243.757 253.117 243.465 252.491 243.82C252.157 244.037 251.879 244.329 251.679 244.674C251.48 245.018 251.365 245.405 251.343 245.803Z" fill="#6D7EDD"/>
<path opacity="0.3" d="M251.343 245.803C251.343 246.512 251.865 246.825 252.491 246.45C252.82 246.234 253.093 245.944 253.289 245.603C253.485 245.263 253.597 244.88 253.618 244.488C253.618 243.757 253.117 243.465 252.491 243.82C252.157 244.037 251.879 244.329 251.679 244.674C251.48 245.018 251.365 245.405 251.343 245.803Z" fill="black"/>
<path d="M265.828 237.204C265.828 237.934 266.349 238.227 266.976 237.872C267.321 237.644 267.605 237.334 267.802 236.97C267.998 236.606 268.102 236.199 268.103 235.785C268.103 235.075 267.602 234.762 266.976 235.138C266.63 235.362 266.345 235.668 266.145 236.028C265.945 236.388 265.836 236.792 265.828 237.204Z" fill="#6D7EDD"/>
<path opacity="0.3" d="M265.828 237.204C265.828 237.934 266.349 238.227 266.976 237.872C267.321 237.644 267.605 237.334 267.802 236.97C267.998 236.606 268.102 236.199 268.103 235.785C268.103 235.075 267.602 234.762 266.976 235.138C266.63 235.362 266.345 235.668 266.145 236.028C265.945 236.388 265.836 236.792 265.828 237.204Z" fill="black"/>
<g style="mix-blend-mode:multiply">
<path d="M241.555 240.022C241.555 240.752 242.077 241.044 242.703 240.689C243.034 240.472 243.309 240.178 243.505 239.834C243.701 239.489 243.812 239.103 243.83 238.707C243.83 237.997 243.329 237.705 242.703 238.06C242.371 238.274 242.095 238.563 241.896 238.904C241.696 239.245 241.58 239.628 241.555 240.022Z" fill="#6D7EDD"/>
</g>
<g style="mix-blend-mode:multiply" opacity="0.2">
<path d="M241.555 240.022C241.555 240.752 242.077 241.044 242.703 240.689C243.034 240.472 243.309 240.178 243.505 239.834C243.701 239.489 243.812 239.103 243.83 238.707C243.83 237.997 243.329 237.705 242.703 238.06C242.371 238.274 242.095 238.563 241.896 238.904C241.696 239.245 241.58 239.628 241.555 240.022Z" fill="black"/>
</g>
<g style="mix-blend-mode:multiply">
<path d="M256.165 231.444C256.165 232.174 256.686 232.466 257.312 232.112C257.644 231.894 257.919 231.601 258.115 231.256C258.311 230.911 258.422 230.525 258.439 230.129C258.439 229.419 257.939 229.106 257.312 229.482C256.981 229.696 256.705 229.986 256.505 230.326C256.306 230.667 256.189 231.05 256.165 231.444Z" fill="#6D7EDD"/>
</g>
<g style="mix-blend-mode:multiply" opacity="0.2">
<path d="M256.165 231.444C256.165 232.174 256.686 232.466 257.312 232.112C257.644 231.894 257.919 231.601 258.115 231.256C258.311 230.911 258.422 230.525 258.439 230.129C258.439 229.419 257.939 229.106 257.312 229.482C256.981 229.696 256.705 229.986 256.505 230.326C256.306 230.667 256.189 231.05 256.165 231.444Z" fill="black"/>
</g>
<path d="M225.63 243.674H235.398L226.924 317.702L211 319.769L225.63 243.674Z" fill="#6D7EDD"/>
<path d="M274.447 215.478L275.678 220.487L274.447 226.748L271.984 228.188L274.447 215.478Z" fill="#6D7EDD"/>
<path d="M290.873 78.6698C284.09 78.6698 270.44 80.8821 263.365 111.896C261.758 118.93 260.422 126.61 259.191 136.482C257.292 151.091 255.017 163.155 253.222 176.971C252.971 178.891 252.053 184.547 251.823 186.3C250.529 195.671 247.921 201.536 247.921 208.653C248.985 212.952 251.469 217.711 261.069 218.692C270.085 215.791 268.332 214.392 268.541 206.315C268.75 198.238 266.224 196.381 267.038 186.759C270.503 163.948 277.327 125.066 277.327 125.066L290.873 78.6698Z" fill="#FFA8A7"/>
<path d="M242.807 240.022C242.961 240.02 243.11 239.964 243.227 239.866C243.345 239.767 243.425 239.63 243.454 239.479C243.454 239.479 245.145 229.44 247.232 221.885C248.902 215.895 253.159 214.33 256.916 212.952C257.751 212.66 258.544 212.368 259.233 212.055C259.311 212.021 259.382 211.972 259.441 211.91C259.5 211.849 259.547 211.776 259.578 211.697C259.609 211.617 259.624 211.532 259.622 211.447C259.62 211.361 259.601 211.277 259.567 211.199C259.533 211.121 259.483 211.05 259.422 210.991C259.36 210.931 259.288 210.885 259.208 210.854C259.129 210.823 259.044 210.808 258.958 210.81C258.873 210.812 258.789 210.831 258.711 210.865C258.022 211.178 257.271 211.45 256.478 211.742C252.617 213.14 247.837 214.893 246.042 221.53C243.955 229.169 242.223 239.166 242.202 239.27C242.178 239.441 242.221 239.615 242.322 239.755C242.423 239.896 242.575 239.991 242.745 240.022H242.807Z" fill="#455A64"/>
<path d="M252.491 200.138C254.142 202.863 255.419 205.797 256.29 208.862C256.623 210.51 259.274 209.049 259.775 206.774C260.029 203.301 260.029 199.813 259.775 196.339C260.626 199.551 261.006 202.869 260.902 206.19C260.359 209.404 259.504 210.114 257.291 210.907C255.079 211.7 255.204 209.676 254.578 207.025C253.952 204.374 252.491 200.138 252.491 200.138Z" fill="#F28F8F"/>
<path d="M253.054 244.446V224.911C253.054 220.57 253.054 215.665 260.088 211.533C262.592 210.072 264.492 209.613 265.431 210.218C266.37 210.823 266.245 212.451 266.245 212.472V236.432C266.245 236.603 266.313 236.768 266.434 236.889C266.556 237.011 266.72 237.079 266.892 237.079C267.063 237.079 267.228 237.011 267.349 236.889C267.471 236.768 267.539 236.603 267.539 236.432V212.535C267.601 211.892 267.504 211.243 267.256 210.646C267.009 210.05 266.618 209.523 266.12 209.112C264.7 208.215 262.467 208.653 259.441 210.406C251.719 214.935 251.74 220.466 251.76 224.911V244.446C251.76 244.618 251.829 244.782 251.95 244.904C252.071 245.025 252.236 245.093 252.407 245.093C252.579 245.093 252.744 245.025 252.865 244.904C252.986 244.782 253.054 244.618 253.054 244.446Z" fill="#455A64"/>
<path d="M257.292 231.444C257.446 231.446 257.597 231.392 257.716 231.292C257.834 231.193 257.914 231.054 257.939 230.901L260.339 216.104C260.369 215.935 260.331 215.761 260.233 215.62C260.135 215.479 259.986 215.383 259.817 215.352C259.646 215.328 259.472 215.371 259.332 215.472C259.192 215.573 259.096 215.725 259.066 215.895L256.645 230.63C256.614 230.799 256.652 230.973 256.75 231.113C256.848 231.254 256.997 231.351 257.166 231.381L257.292 231.444Z" fill="#455A64"/>
<path d="M261.695 210.615C265.243 209.175 268.979 206.441 270.294 207.922C270.934 208.704 271.376 209.629 271.581 210.619C271.787 211.609 271.749 212.634 271.472 213.606C271.196 214.578 270.687 215.468 269.992 216.201C269.296 216.934 268.433 217.488 267.476 217.815C263.431 219.183 259.028 219.042 255.079 217.419L261.695 210.615Z" fill="#FFA8A7"/>
<path d="M296.007 77.9393C285.425 77.9393 272.652 81.2786 267.56 91.067C262.113 101.502 258.523 129.49 258.523 129.49C258.523 129.49 262.53 138.11 277.307 137.15L296.007 77.9393Z" fill="#37474F"/>
<path d="M380.533 338.615C383.163 337.238 384.853 340.598 387.233 343.29C388.923 345.168 391.532 348.153 391.929 350.303C392.492 353.496 389.633 358.505 386.46 361.26C383.288 364.015 379.594 365.997 378.446 372.05C378.154 374.826 377.079 377.461 375.346 379.649C373.613 381.837 371.293 383.486 368.658 384.405C361.791 387.369 352.587 386.493 349.457 384.405C345.763 382.005 349.144 379.397 354.319 371.883C361.082 362.199 366.362 355.291 366.362 346.254L380.533 338.615Z" fill="#263238"/>
<path d="M375.128 330.684L380.679 338.824C381.854 340.517 382.315 342.604 381.964 344.635C381.612 346.666 380.476 348.476 378.801 349.676L378.634 349.781C376.951 350.807 374.959 351.204 373.01 350.903C371.062 350.601 369.284 349.619 367.99 348.132L359.328 338.678L375.128 330.684Z" fill="#FFA8A7"/>
<path d="M273.07 171.774C272.715 182.21 275.658 224.097 282.816 242.735C289.975 261.372 294.149 272.81 296.403 276.671C298.657 280.532 363.649 343.812 363.649 343.812C363.649 343.812 374.689 342.998 376.443 332.312C376.443 332.312 349.812 287.043 344.03 277.756C338.249 268.468 317.838 254.235 317.838 254.235L319.695 173.026L273.07 171.774Z" fill="#37474F"/>
<path d="M287.398 392.879L273.661 389.755L278.21 369.75L291.947 372.873L287.398 392.879Z" fill="#FFA8A7"/>
<path d="M273.07 171.774H338.98C339.564 179.079 341.067 183.17 341.463 200.826C341.964 229.398 315.396 281.304 315.396 281.304C315.73 285.186 317.378 301.465 313.684 315.887C307.84 338.657 291.958 377.163 291.958 377.163C291.958 377.163 282.023 378.583 277.077 372.843C277.077 372.843 285.864 294.62 288.243 274.584C290.81 252.899 297.384 213.307 297.384 213.307C293.035 208.963 289.088 204.234 285.592 199.178C279.496 191.05 275.225 181.703 273.07 171.774Z" fill="#37474F"/>
<path d="M363.336 155.578C360.372 125.024 351.126 103.548 349.77 95.8672L340.795 133.685C343.621 143.83 345.857 154.129 347.495 164.532C347.87 167.141 352.128 189.848 351.46 199.532C351.348 201.242 350.604 202.848 349.373 204.04C346.075 207.275 345.095 210.072 342.882 213.704C341.15 216.563 339.355 217.565 339.814 218.253C340.429 218.984 341.297 219.457 342.244 219.577C343.192 219.697 344.15 219.455 344.928 218.9C346.681 217.704 348.286 216.303 349.707 214.726C349.143 218.471 347.98 222.1 346.263 225.475C342.361 233.218 343.007 237.287 353.839 235.013C360.622 233.572 365.11 228.209 366.904 212.159C367.232 206.374 367.197 200.575 366.8 194.795C366.278 181.333 364.233 164.741 363.336 155.578Z" fill="#FFA8A7"/>
<path d="M317.775 78.5654C330.402 81.6125 347.641 85.5779 352.629 99.2692C357.617 112.96 363.064 138.924 363.064 138.924C359.12 143.536 346.848 145.957 341.547 143.098L339.063 134.896V171.67C329.191 182.418 294.734 187.427 273.153 171.67V103.068C273.153 92.0896 279.248 78.9201 296.111 78.0227L317.775 78.5654Z" fill="#455A64"/>
<path d="M338.98 134.979L332.656 115.047L338.98 143.912V134.979Z" fill="#37474F"/>
<path d="M322.512 22.4022C323.646 22.2506 324.799 22.3598 325.884 22.7214C326.969 23.0831 327.958 23.6878 328.774 24.4893C331.445 27.2233 330.861 32.2741 328.774 43.8782L320.53 44.8383L322.512 22.4022Z" fill="#263238"/>
<path d="M274.426 19.042C272.655 19.0508 270.9 18.6956 269.271 17.9985C266.746 16.5375 266.078 19.4177 267.455 21.9013C268.379 23.6894 269.744 25.2124 271.42 26.3263C273.096 27.4401 275.029 28.108 277.035 28.2669C277.035 27.9121 279.394 21.8178 279.394 21.8178L274.426 19.042Z" fill="#263238"/>
<path d="M318.651 44.9635C319.883 45.694 321.615 43.3356 323.138 41.7494C323.732 41.0699 324.489 40.5532 325.338 40.2481C326.187 39.943 327.1 39.8596 327.99 40.0059C328.881 40.1522 329.719 40.5233 330.426 41.0841C331.132 41.6448 331.684 42.3767 332.029 43.2104C334.534 48.4907 328.836 55.5032 325.497 57.8199C324.564 58.6281 323.401 59.1216 322.172 59.2303C320.943 59.3389 319.711 59.0572 318.651 58.4251L317.775 78.6071C316.298 81.8444 314.042 84.6653 311.208 86.8177C308.375 88.9701 305.052 90.387 301.537 90.9418C289.683 92.5488 292.124 82.7605 296.006 77.981V70.6345C293.045 71.2727 290.001 71.4277 286.99 71.0937C285.446 70.6763 281.752 66.2308 279.372 61.2218C276.701 55.6284 272.255 45.6731 276.221 28.8513C280.395 10.7772 299.888 10.2346 311.472 17.5185C323.055 24.8023 318.651 44.9635 318.651 44.9635Z" fill="#FFA8A7"/>
<path d="M318.651 47.0506C319.257 47.0506 321.615 43.1686 323.139 41.7703C325.226 39.8502 322.513 22.4648 322.513 22.4648C322.513 22.4648 324.6 15.8488 320.425 11.4868C316.251 7.1248 308.153 7.83441 302.247 7.6257C294.989 7.69239 287.793 6.27182 281.105 3.45155C272.757 -0.200834 272.068 -0.722608 271.024 3.055C269.981 6.83261 269.584 15.2018 274.593 20.8578L277.327 25.3032C277.327 25.3032 279.874 27.3903 287.763 28.413C295.652 29.4356 308.947 25.1571 310.721 24.9276C312.975 24.6145 313.475 26.8268 314.686 32.8376C315.688 37.9927 316.585 47.0506 318.651 47.0506Z" fill="#263238"/>
<path d="M322.513 23.7379L329.901 19.7725C329.404 18.7857 328.537 18.0361 327.488 17.6879C326.44 17.3397 325.296 17.4214 324.308 17.915C323.315 18.467 322.575 19.3809 322.24 20.4659C321.906 21.5509 322.004 22.7231 322.513 23.7379Z" fill="#263238"/>
<path d="M296.027 70.5928C296.027 70.5928 307.005 68.3805 310.846 66.4186C313.103 65.2426 314.956 63.4182 316.168 61.1801C315.593 63.4502 314.563 65.5802 313.141 67.4413C310.345 71.0311 296.027 73.7025 296.027 73.7025V70.5928Z" fill="#F28F8F"/>
<path d="M295.673 44.5252C295.689 44.9588 295.833 45.3781 296.085 45.7307C296.338 46.0834 296.689 46.3539 297.095 46.5086C297.5 46.6634 297.942 46.6954 298.366 46.6009C298.789 46.5063 299.175 46.2893 299.476 45.9768C299.778 45.6643 299.98 45.2702 300.059 44.8435C300.138 44.4168 300.089 43.9764 299.92 43.577C299.75 43.1776 299.467 42.8369 299.105 42.5973C298.743 42.3577 298.319 42.2297 297.885 42.2294C297.589 42.2349 297.297 42.2986 297.025 42.4169C296.754 42.5352 296.509 42.7058 296.303 42.919C296.098 43.1322 295.936 43.3838 295.828 43.6594C295.72 43.935 295.667 44.2292 295.673 44.5252Z" fill="#263238"/>
<path d="M297.906 36.2186L302.623 38.8066C302.96 38.1623 303.034 37.4118 302.827 36.7143C302.621 36.0169 302.15 35.4273 301.516 35.0707C301.206 34.8992 300.864 34.7928 300.511 34.7579C300.158 34.723 299.802 34.7604 299.464 34.8679C299.126 34.9753 298.814 35.1505 298.546 35.3827C298.278 35.615 298.06 35.8994 297.906 36.2186Z" fill="#263238"/>
<path d="M297.029 59.2391L292 61.1175C292.11 61.4552 292.287 61.7673 292.52 62.0353C292.753 62.3032 293.038 62.5216 293.357 62.6774C293.677 62.8331 294.024 62.9231 294.379 62.9419C294.733 62.9608 295.088 62.9081 295.422 62.7871C296.096 62.5164 296.638 61.9964 296.938 61.3355C297.237 60.6746 297.27 59.9236 297.029 59.2391Z" fill="#F28F8F"/>
<path d="M276.054 38.0343L280.354 34.7368C280.153 34.445 279.894 34.1976 279.594 34.0098C279.294 33.8221 278.958 33.6979 278.608 33.6451C278.258 33.5923 277.9 33.6119 277.558 33.7027C277.216 33.7936 276.896 33.9537 276.618 34.1733C276.044 34.6197 275.664 35.2708 275.559 35.9905C275.454 36.7101 275.632 37.4424 276.054 38.0343Z" fill="#263238"/>
<path d="M277.39 43.8991C277.406 44.3336 277.55 44.7536 277.804 45.1067C278.058 45.4598 278.41 45.7302 278.817 45.8843C279.223 46.0384 279.666 46.0692 280.09 45.9729C280.514 45.8767 280.901 45.6576 281.201 45.3431C281.501 45.0285 281.702 44.6325 281.779 44.2045C281.855 43.7764 281.804 43.3353 281.631 42.9363C281.458 42.5373 281.171 42.1981 280.807 41.961C280.442 41.7239 280.016 41.5995 279.581 41.6033C279.286 41.6087 278.995 41.6725 278.725 41.7911C278.455 41.9097 278.211 42.0807 278.007 42.2941C277.803 42.5076 277.644 42.7594 277.538 43.0349C277.432 43.3103 277.382 43.6041 277.39 43.8991Z" fill="#263238"/>
<path d="M287.742 43.6277L289.829 56.7137L282.566 55.858L287.742 43.6277Z" fill="#F28F8F"/>
<path d="M275.219 383.07L275.658 381.108C274.218 381.379 268.061 391.543 261.925 396.072C255.225 400.956 249.402 403.836 246.418 406.028C242.411 408.97 248.213 414.981 258.064 415.524C262.968 415.795 271.88 414.292 274.614 411.704C277.348 409.116 279.352 404.775 281.522 402.897C283.693 401.019 288.118 399.391 289.599 396.991C290.419 394.619 290.711 392.098 290.455 389.602C290.455 387.014 290.288 384.197 289.412 384.238C289.412 384.531 289.057 385.741 289.057 385.741C286.475 387.052 283.602 387.684 280.708 387.578C278.392 387.369 274.072 386.826 275.219 383.07Z" fill="#263238"/>
<path d="M289.975 261.31C289.975 261.31 295.819 219.735 297.384 213.307C297.384 213.307 287.951 208.068 284.382 203.978C287.091 207.882 290.062 211.598 293.273 215.102L289.975 261.31Z" fill="#263238"/>
<path d="M325.267 259.932C325.267 259.932 318.234 277.443 315.396 281.304C315.396 281.304 316.105 294.64 316.001 297.333L319.695 300.568C319.803 294.529 319.251 288.496 318.046 282.577C321.274 275.315 323.695 267.722 325.267 259.932Z" fill="#263238"/>
<path d="M217.887 134.9C217.926 150.355 212.058 165.241 201.483 176.512L196.446 181.308C184.83 191.238 169.9 196.427 154.629 195.843C139.359 195.258 124.869 188.941 114.047 178.152C103.224 167.363 96.8637 152.893 96.2319 137.624C95.6002 122.355 100.744 107.409 110.638 95.7629L115.434 90.7037C124.075 82.576 134.904 77.1536 146.588 75.1046C158.273 73.0556 170.301 74.4695 181.192 79.1722C192.082 83.8748 201.359 91.6607 207.88 101.571C214.4 111.48 217.879 123.081 217.887 134.944V134.9Z" fill="white"/>
<path d="M156.936 68.9998C140.382 69.0127 124.437 75.2474 112.265 86.4672C100.092 97.6869 92.5819 113.072 91.2229 129.57C89.8638 146.069 94.7557 162.476 104.928 175.536C115.1 188.596 129.81 197.356 146.139 200.078L153.586 219.175C153.866 219.894 154.357 220.511 154.994 220.946C155.631 221.381 156.384 221.613 157.155 221.613C157.927 221.613 158.68 221.381 159.317 220.946C159.954 220.511 160.445 219.894 160.725 219.175L168.106 200.034C184.411 197.249 199.076 188.442 209.196 175.358C219.316 162.273 224.152 145.865 222.747 129.383C221.342 112.901 213.798 97.5485 201.61 86.3654C189.422 75.1822 173.478 68.9845 156.936 68.9998ZM217.887 134.9C217.925 150.355 212.057 165.241 201.483 176.512L196.446 181.308C184.83 191.238 169.9 196.428 154.629 195.843C139.359 195.258 124.869 188.941 114.046 178.152C103.224 167.363 96.8635 152.893 96.2317 137.624C95.6 122.356 100.743 107.409 110.638 95.7629L115.434 90.7037C124.074 82.576 134.904 77.1536 146.588 75.1046C158.273 73.0556 170.301 74.4695 181.192 79.1722C192.082 83.8748 201.359 91.6608 207.879 101.571C214.4 111.48 217.878 123.081 217.887 134.944V134.9Z" fill="#455A64"/>
<path opacity="0.7" d="M217.887 134.9C217.926 150.355 212.058 165.241 201.483 176.512L196.446 181.308C184.83 191.238 169.9 196.427 154.629 195.843C139.359 195.258 124.869 188.941 114.047 178.152C103.224 167.363 96.8637 152.893 96.2319 137.624C95.6002 122.355 100.744 107.409 110.638 95.7629L115.434 90.7037C124.075 82.576 134.904 77.1536 146.588 75.1046C158.273 73.0556 170.301 74.4695 181.192 79.1722C192.082 83.8748 201.359 91.6607 207.88 101.571C214.4 111.48 217.879 123.081 217.887 134.944V134.9Z" fill="white"/>
<path d="M148.877 167.861C147.677 167.86 146.491 167.613 145.391 167.134C144.29 166.656 143.3 165.957 142.482 165.08L122.639 143.88C121.051 142.183 120.201 139.926 120.277 137.603C120.353 135.28 121.348 133.083 123.045 131.494C124.741 129.906 126.998 129.056 129.321 129.132C131.644 129.208 133.841 130.204 135.43 131.9L148.329 145.675L178.837 107.02C179.556 106.117 180.446 105.364 181.456 104.805C182.466 104.246 183.576 103.891 184.723 103.761C185.87 103.631 187.032 103.728 188.141 104.047C189.251 104.365 190.287 104.899 191.19 105.618C192.093 106.337 192.845 107.227 193.405 108.237C193.964 109.247 194.319 110.357 194.449 111.504C194.579 112.651 194.482 113.813 194.163 114.922C193.844 116.032 193.31 117.067 192.591 117.971L155.754 164.576C154.964 165.571 153.967 166.382 152.832 166.953C151.698 167.524 150.453 167.841 149.183 167.883L148.877 167.861Z" fill="#6D7EDD"/>
</svg>
