<svg width="1189" height="1189" viewBox="0 0 1189 1189" fill="none" xmlns="http://www.w3.org/2000/svg">
<path d="M811.008 335.349C801.755 335.349 792.511 331.685 785.663 324.418C710.044 244.228 667.59 202.699 630.85 183.558C596.624 165.733 562.371 164.935 494.263 164.935C475.032 164.935 459.429 149.341 459.429 130.101C459.429 110.869 475.032 95.2665 494.263 95.2665C569.564 95.2665 614.522 96.5002 663.036 121.773C708.937 145.676 753.595 188.865 836.344 276.621C849.552 290.619 848.899 312.662 834.902 325.861C828.171 332.211 819.58 335.349 811.008 335.349V335.349Z" fill="#DBAD5C"/>
<path d="M330.171 165.869H281.92C262.68 165.869 247.086 150.275 247.086 131.035C247.086 111.794 262.68 96.2007 281.92 96.2007H330.171C349.411 96.2007 365.005 111.794 365.005 131.035C365.005 150.275 349.411 165.869 330.171 165.869Z" fill="#DBAD5C"/>
<path d="M525.369 132.876C525.369 75.5996 478.76 29 421.474 29C364.696 29 318.07 74.7832 317.253 131.361L317.026 293.331C317.026 312.562 332.62 328.165 351.86 328.165H490.534C509.775 328.165 525.369 312.562 525.369 293.331C525.369 293.331 525.369 133.938 525.369 132.876Z" fill="#EDC472"/>
<path d="M317.253 131.361L317.026 293.331C317.026 312.571 332.62 328.165 351.86 328.165H421.193V29.0091C364.542 29.1542 318.07 74.8739 317.253 131.361Z" fill="#FCF2B6"/>
<path d="M421.193 401.09C188.948 401.09 0 589.983 0 822.174C0 952.157 58.6736 1072.85 160.981 1153.31C167.122 1158.13 174.706 1160.75 182.516 1160.75H659.87C667.68 1160.75 675.264 1158.13 681.405 1153.31C783.712 1072.85 842.395 952.157 842.395 822.174C842.395 589.983 653.447 401.09 421.193 401.09V401.09Z" fill="#8F4CD6"/>
<path d="M0 822.174C0 952.157 58.6736 1072.85 160.981 1153.31C167.122 1158.13 174.706 1160.75 182.516 1160.75H421.193V401.09C188.948 401.09 0 589.983 0 822.174V822.174Z" fill="#C78FF5"/>
<path d="M826.402 707.103C776.21 530.674 613.551 401.09 421.193 401.09C224.943 401.09 59.6262 535.972 13.081 717.871C247.812 774.857 575.243 673.058 826.402 707.103V707.103Z" fill="#80DBFF"/>
<path d="M13.09 717.871C132.542 746.872 275.997 734.753 421.202 720.338V401.09C224.943 401.09 59.6261 535.972 13.09 717.871V717.871Z" fill="#B5EFFF"/>
<path d="M1129 379.808C1085.92 332.682 1024 289.974 963.38 265.563C888.732 235.501 827.137 237.669 789.935 271.659C752.733 305.659 745.05 366.8 768.309 443.825C787.196 506.381 824.198 571.858 867.278 618.984C911.129 666.935 957.81 691.002 1004.75 691.002C1045.04 691.002 1085.53 673.249 1124.51 637.626C1163.13 602.338 1184.62 563.948 1188.4 523.517C1192.83 476.11 1172.85 427.75 1129 379.808V379.808Z" fill="#8F4CD6"/>
<path d="M557.817 270.534H284.569C265.338 270.534 249.735 286.128 249.735 305.368V432.912C249.735 452.152 265.338 467.746 284.569 467.746H557.817C577.057 467.746 592.651 452.152 592.651 432.912V305.368C592.651 286.128 577.057 270.534 557.817 270.534Z" fill="#DBAD5C"/>
<path d="M284.569 270.534C265.338 270.534 249.735 286.128 249.735 305.368V432.912C249.735 452.152 265.338 467.746 284.569 467.746H421.193V270.534H284.569Z" fill="#EDC472"/>
<path d="M1188.4 523.526C1192.83 476.11 1172.85 427.75 1129 379.808C1085.92 332.682 1024 289.974 963.38 265.563C888.732 235.501 827.137 237.669 789.935 271.659L1124.51 637.626C1163.13 602.338 1184.62 563.948 1188.4 523.526V523.526Z" fill="#C78FF5"/>
</svg>
