<svg width="295" height="393" viewBox="0 0 295 393" fill="none" xmlns="http://www.w3.org/2000/svg">
<path d="M21.3198 165.22C20.7424 165.22 20.1813 165.029 19.7234 164.678C19.2655 164.326 18.9363 163.833 18.7868 163.275C18.6374 162.718 18.676 162.126 18.8967 161.593C19.1174 161.059 19.5079 160.614 20.0076 160.325L104.113 111.675C104.412 111.492 104.745 111.37 105.091 111.317C105.438 111.264 105.792 111.281 106.132 111.367C106.472 111.453 106.791 111.606 107.071 111.818C107.35 112.029 107.585 112.295 107.76 112.598C107.936 112.902 108.049 113.238 108.092 113.586C108.135 113.934 108.109 114.287 108.013 114.624C107.918 114.962 107.756 115.277 107.537 115.551C107.318 115.825 107.046 116.052 106.738 116.219L22.6884 164.868C22.2712 165.104 21.7991 165.225 21.3198 165.22Z" fill="#37474F"/>
<path d="M25.3833 239.294C24.9244 239.296 24.4733 239.175 24.0765 238.945C23.6797 238.714 23.3515 238.382 23.1258 237.982C22.7769 237.381 22.6805 236.667 22.8577 235.995C23.0349 235.323 23.4713 234.749 24.0711 234.399L108.121 185.764C108.418 185.591 108.746 185.479 109.087 185.434C109.428 185.388 109.774 185.411 110.106 185.499C110.438 185.587 110.75 185.74 111.023 185.949C111.296 186.158 111.525 186.419 111.697 186.716C111.87 187.013 111.982 187.342 112.027 187.682C112.072 188.023 112.05 188.369 111.962 188.702C111.873 189.034 111.72 189.345 111.512 189.618C111.303 189.891 111.042 190.12 110.745 190.293L26.6955 238.97C26.2947 239.193 25.8418 239.305 25.3833 239.294Z" fill="#37474F"/>
<path d="M21.0234 182.871C20.7945 182.874 20.5692 182.815 20.3707 182.701C20.1722 182.586 20.0079 182.421 19.8947 182.222C19.8067 182.074 19.7493 181.909 19.7258 181.738C19.7023 181.567 19.7132 181.392 19.7579 181.226C19.8026 181.059 19.8801 180.902 19.986 180.766C20.0918 180.629 20.2239 180.515 20.3744 180.43L105.03 131.443C105.18 131.351 105.346 131.29 105.519 131.263C105.693 131.237 105.87 131.246 106.04 131.289C106.21 131.332 106.369 131.408 106.509 131.514C106.649 131.62 106.766 131.752 106.854 131.904C106.942 132.056 106.998 132.224 107.02 132.398C107.042 132.572 107.028 132.749 106.98 132.917C106.933 133.086 106.852 133.244 106.742 133.38C106.633 133.517 106.497 133.631 106.343 133.714L21.6866 182.702C21.4828 182.812 21.255 182.87 21.0234 182.871Z" fill="#37474F"/>
<path d="M23.408 201.637C23.121 201.635 22.8423 201.54 22.6146 201.365C22.387 201.19 22.223 200.946 22.1477 200.669C22.0725 200.392 22.0901 200.098 22.198 199.831C22.3058 199.565 22.498 199.342 22.7449 199.196L107.401 150.208C107.701 150.045 108.054 150.006 108.383 150.099C108.712 150.192 108.991 150.41 109.162 150.706C109.333 151.002 109.382 151.353 109.298 151.684C109.214 152.015 109.004 152.301 108.713 152.48L24.057 201.467C23.859 201.579 23.6354 201.637 23.408 201.637Z" fill="#37474F"/>
<path d="M23.408 220.487C23.121 220.485 22.8423 220.39 22.6146 220.215C22.387 220.04 22.223 219.796 22.1477 219.519C22.0725 219.242 22.0901 218.948 22.198 218.681C22.3058 218.415 22.498 218.192 22.7449 218.046L107.401 169.058C107.701 168.895 108.054 168.856 108.383 168.949C108.712 169.042 108.991 169.26 109.162 169.556C109.333 169.852 109.382 170.203 109.298 170.534C109.214 170.865 109.004 171.151 108.713 171.33L24.057 220.317C23.859 220.429 23.6354 220.487 23.408 220.487Z" fill="#37474F"/>
<path d="M100.276 195.344C99.9395 195.344 99.616 195.216 99.3719 194.985C99.1277 194.754 98.9816 194.438 98.9635 194.102L94.7307 119.422C94.7101 119.074 94.8286 118.732 95.0601 118.471C95.2917 118.21 95.6172 118.052 95.9653 118.032C96.3133 118.011 96.6552 118.13 96.9158 118.361C97.1764 118.593 97.3344 118.918 97.355 119.266L101.588 193.961C101.599 194.136 101.576 194.31 101.52 194.476C101.464 194.641 101.375 194.794 101.26 194.925C101.145 195.056 101.005 195.163 100.848 195.24C100.691 195.316 100.52 195.361 100.346 195.372L100.276 195.344Z" fill="#37474F"/>
<path d="M89.4398 201.651C89.1059 201.651 88.7844 201.525 88.5406 201.297C88.2968 201.069 88.1491 200.756 88.1276 200.423L83.8948 125.728C83.8689 125.548 83.8808 125.364 83.9298 125.189C83.9788 125.014 84.0637 124.85 84.1792 124.71C84.2947 124.569 84.4383 124.454 84.6007 124.371C84.7632 124.289 84.941 124.241 85.1228 124.232C85.3047 124.222 85.4866 124.25 85.6569 124.314C85.8273 124.378 85.9824 124.478 86.1124 124.605C86.2425 124.733 86.3445 124.886 86.4121 125.055C86.4797 125.224 86.5113 125.405 86.505 125.587L90.7378 200.268C90.7532 200.442 90.7334 200.617 90.6795 200.783C90.6256 200.949 90.5387 201.103 90.4241 201.235C90.3095 201.366 90.1695 201.474 90.0125 201.55C89.8555 201.626 89.6847 201.67 89.5103 201.679L89.4398 201.651Z" fill="#37474F"/>
<path d="M78.5896 207.929C78.2549 207.93 77.933 207.801 77.6912 207.569C77.4493 207.338 77.3061 207.022 77.2916 206.688L73.0588 132.007C73.0434 131.833 73.0632 131.658 73.1171 131.492C73.171 131.326 73.2579 131.172 73.3725 131.04C73.4871 130.909 73.6271 130.802 73.7841 130.725C73.9411 130.649 74.1119 130.605 74.2863 130.596C74.4598 130.583 74.6343 130.604 74.7995 130.659C74.9648 130.713 75.1175 130.8 75.2488 130.914C75.3801 131.029 75.4874 131.168 75.5644 131.324C75.6413 131.48 75.6865 131.65 75.6972 131.824L79.93 206.518C79.9434 206.692 79.9222 206.866 79.8676 207.032C79.8129 207.197 79.7259 207.35 79.6117 207.481C79.4975 207.612 79.3583 207.72 79.2022 207.797C79.0461 207.874 78.8762 207.919 78.7025 207.929H78.5896Z" fill="#37474F"/>
<path d="M67.7536 214.279C67.4198 214.279 67.0982 214.153 66.8545 213.925C66.6107 213.697 66.463 213.384 66.4414 213.051L62.2086 138.356C62.1828 138.176 62.1947 137.992 62.2436 137.817C62.2926 137.641 62.3775 137.478 62.493 137.337C62.6085 137.197 62.7521 137.081 62.9146 136.999C63.077 136.917 63.2548 136.869 63.4367 136.859C63.6185 136.85 63.8004 136.878 63.9708 136.942C64.1412 137.006 64.2963 137.105 64.4263 137.233C64.5563 137.36 64.6583 137.514 64.7259 137.683C64.7935 137.852 64.8252 138.033 64.8189 138.215L69.0517 212.896C69.0651 213.071 69.0434 213.246 68.9879 213.412C68.9324 213.578 68.8441 213.732 68.7284 213.863C68.6127 213.995 68.4718 214.102 68.3141 214.178C68.1564 214.254 67.985 214.298 67.8101 214.307L67.7536 214.279Z" fill="#37474F"/>
<path d="M56.9176 220.628C56.5825 220.625 56.2609 220.495 56.0175 220.265C55.774 220.035 55.6268 219.721 55.6054 219.386L51.3726 144.691C51.3634 144.519 51.3881 144.347 51.4455 144.184C51.5029 144.021 51.5918 143.871 51.7071 143.743C51.8224 143.615 51.9618 143.51 52.1175 143.436C52.2731 143.361 52.4419 143.318 52.6143 143.309C52.7866 143.299 52.959 143.324 53.1218 143.382C53.2845 143.439 53.4344 143.528 53.5628 143.643C53.6912 143.758 53.7956 143.898 53.8701 144.054C53.9446 144.209 53.9877 144.378 53.997 144.55L58.2298 219.245C58.2412 219.419 58.2182 219.594 58.162 219.76C58.1057 219.925 58.0174 220.077 57.902 220.209C57.7867 220.34 57.6465 220.447 57.4897 220.523C57.3329 220.6 57.1624 220.645 56.9882 220.656L56.9176 220.628Z" fill="#37474F"/>
<path d="M46.0817 226.907C45.7456 226.907 45.4221 226.778 45.1779 226.547C44.9338 226.316 44.7876 226.001 44.7695 225.665L40.5367 150.984C40.5161 150.636 40.6346 150.294 40.8662 150.034C41.0977 149.773 41.4233 149.615 41.7713 149.594C42.1193 149.574 42.4612 149.692 42.7219 149.924C42.9825 150.155 43.1405 150.481 43.1611 150.829L47.3939 225.524C47.4073 225.697 47.3861 225.872 47.3314 226.037C47.2768 226.202 47.1898 226.355 47.0756 226.486C46.9613 226.618 46.8221 226.725 46.666 226.802C46.5099 226.879 46.3401 226.924 46.1663 226.935L46.0817 226.907Z" fill="#37474F"/>
<path d="M35.2316 233.228C34.8989 233.221 34.5808 233.09 34.3403 232.86C34.0999 232.63 33.9547 232.318 33.9335 231.986L29.7007 157.291C29.6748 157.111 29.6867 156.927 29.7357 156.752C29.7847 156.576 29.8696 156.413 29.9851 156.272C30.1006 156.131 30.2442 156.016 30.4066 155.934C30.5691 155.852 30.7469 155.804 30.9287 155.794C31.1106 155.784 31.2925 155.813 31.4628 155.877C31.6332 155.941 31.7883 156.04 31.9184 156.168C32.0484 156.295 32.1504 156.448 32.218 156.618C32.2856 156.787 32.3172 156.968 32.3109 157.15L36.5437 231.845C36.5612 232.019 36.5428 232.195 36.4897 232.362C36.4366 232.529 36.3498 232.683 36.2348 232.815C36.1199 232.948 35.9791 233.055 35.8211 233.131C35.6631 233.206 35.4913 233.249 35.3162 233.256L35.2316 233.228Z" fill="#37474F"/>
<path d="M149.715 32.9736L92.6002 6.10352e-05V38.5186L149.715 71.4921L163.175 67.9789V51.9648L149.715 32.9736ZM154.583 58.9066C153.636 58.2871 152.849 57.4533 152.285 56.4727C151.721 55.4921 151.397 54.3924 151.337 53.2628C151.337 51.1888 152.748 50.3563 154.583 51.3863C155.531 52.0032 156.32 52.8365 156.884 53.8176C157.449 54.7987 157.772 55.8997 157.828 57.03C157.828 59.0477 156.318 59.8801 154.583 58.8501V58.9066Z" fill="#459AC3"/>
<path opacity="0.75" d="M149.715 32.9736L92.6002 6.10352e-05V38.5186L149.715 71.4921L163.175 67.9789V51.9648L149.715 32.9736ZM154.583 58.9066C153.636 58.2871 152.849 57.4533 152.285 56.4727C151.721 55.4921 151.397 54.3924 151.337 53.2628C151.337 51.1888 152.748 50.3563 154.583 51.3863C155.531 52.0032 156.32 52.8365 156.884 53.8176C157.449 54.7987 157.772 55.8997 157.828 57.03C157.828 59.0477 156.318 59.8801 154.583 58.8501V58.9066Z" fill="white"/>
<path d="M155.189 125.122C154.9 125.101 154.624 124.991 154.4 124.808C154.175 124.624 154.012 124.376 153.934 124.097C153.855 123.818 153.864 123.522 153.96 123.248C154.056 122.974 154.234 122.737 154.47 122.568L164.784 116.219C168.122 114.153 170.881 111.271 172.798 107.845C174.716 104.419 175.731 100.561 175.747 96.635V77.3475C175.738 74.9843 175.128 72.6623 173.972 70.6008C172.817 68.5393 171.155 66.8065 169.143 65.5662L154.907 56.8043C154.701 56.7423 154.512 56.6341 154.355 56.488C154.197 56.3418 154.075 56.1615 153.997 55.9609C153.92 55.7604 153.89 55.5448 153.908 55.3306C153.927 55.1164 153.994 54.9093 154.105 54.7252C154.216 54.541 154.368 54.3847 154.548 54.268C154.729 54.1514 154.934 54.0775 155.147 54.0522C155.361 54.0268 155.577 54.0505 155.78 54.1216C155.983 54.1926 156.167 54.3091 156.318 54.4621L170.653 63.224C173.062 64.71 175.053 66.7851 176.438 69.2537C177.823 71.7222 178.556 74.5029 178.568 77.3334V96.6209C178.551 101.017 177.415 105.336 175.267 109.172C173.12 113.008 170.032 116.234 166.293 118.547L155.937 124.896C155.714 125.04 155.455 125.118 155.189 125.122Z" fill="#459AC3"/>
<path opacity="0.9" d="M155.189 125.122C154.9 125.101 154.624 124.991 154.4 124.808C154.175 124.624 154.012 124.376 153.934 124.097C153.855 123.818 153.864 123.522 153.96 123.248C154.056 122.974 154.234 122.737 154.47 122.568L164.784 116.219C168.122 114.153 170.881 111.271 172.798 107.845C174.716 104.419 175.731 100.561 175.747 96.635V77.3475C175.738 74.9843 175.128 72.6623 173.972 70.6008C172.817 68.5393 171.155 66.8065 169.143 65.5662L154.907 56.8043C154.701 56.7423 154.512 56.6341 154.355 56.488C154.197 56.3418 154.075 56.1615 153.997 55.9609C153.92 55.7604 153.89 55.5448 153.908 55.3306C153.927 55.1164 153.994 54.9093 154.105 54.7252C154.216 54.541 154.368 54.3847 154.548 54.268C154.729 54.1514 154.934 54.0775 155.147 54.0522C155.361 54.0268 155.577 54.0505 155.78 54.1216C155.983 54.1926 156.167 54.3091 156.318 54.4621L170.653 63.224C173.062 64.71 175.053 66.7851 176.438 69.2537C177.823 71.7222 178.556 74.5029 178.568 77.3334V96.6209C178.551 101.017 177.415 105.336 175.267 109.172C173.12 113.008 170.032 116.234 166.293 118.547L155.937 124.896C155.714 125.04 155.455 125.118 155.189 125.122Z" fill="black"/>
<path d="M136.565 296.607C136.565 302.66 132.332 305.072 127.083 302.081C124.319 300.282 122.017 297.856 120.367 294.999C118.717 292.143 117.765 288.938 117.588 285.644C117.588 279.591 121.821 277.178 127.083 280.169C129.844 281.971 132.141 284.399 133.789 287.255C135.436 290.111 136.387 293.315 136.565 296.607Z" fill="#455A64"/>
<path d="M130.3 292.995C130.3 295.055 128.889 295.901 127.069 294.871C126.123 294.252 125.336 293.418 124.772 292.437C124.208 291.457 123.883 290.357 123.824 289.227C123.824 287.153 125.235 286.321 127.069 287.351C128.015 287.97 128.8 288.804 129.362 289.785C129.923 290.766 130.245 291.866 130.3 292.995Z" fill="#263238"/>
<path d="M140.882 294.109C140.704 290.814 139.751 287.607 138.102 284.748C136.452 281.89 134.151 279.461 131.387 277.658C127.648 275.499 124.431 276.148 122.921 278.885C124.42 278.937 125.879 279.379 127.154 280.169C129.902 281.979 132.185 284.41 133.82 287.266C135.455 290.121 136.395 293.321 136.565 296.607C136.565 299.598 135.521 301.7 133.842 302.702L137.976 300.331C139.754 299.372 140.882 297.213 140.882 294.109Z" fill="#263238"/>
<path d="M127.478 275.852C120.875 272.028 115.528 275.118 115.528 282.737L139.387 296.536C139.387 288.917 134.068 279.661 127.478 275.852Z" fill="#459AC3"/>
<path d="M131.768 272.494C126.914 269.672 122.752 270.631 120.875 274.328C123.187 274.041 125.526 274.581 127.478 275.852C134.067 279.661 139.429 288.917 139.429 296.536L143.662 293.192C143.718 285.531 138.371 276.303 131.768 272.494Z" fill="#459AC3"/>
<path opacity="0.5" d="M131.768 272.494C126.914 269.672 122.752 270.631 120.875 274.328C123.187 274.041 125.526 274.581 127.478 275.852C134.067 279.661 139.429 288.917 139.429 296.536L143.662 293.192C143.718 285.531 138.371 276.303 131.768 272.494Z" fill="black"/>
<path d="M206.35 336.931C206.35 342.984 202.117 345.397 196.854 342.406C194.089 340.607 191.788 338.18 190.138 335.324C188.488 332.468 187.536 329.262 187.359 325.968C187.359 319.915 191.591 317.503 196.854 320.494C199.617 322.295 201.916 324.722 203.566 327.578C205.216 330.434 206.169 333.638 206.35 336.931Z" fill="#455A64"/>
<path d="M200.057 333.319C200.057 335.379 198.646 336.226 196.812 335.196C195.866 334.576 195.078 333.742 194.515 332.762C193.951 331.781 193.626 330.682 193.567 329.552C193.567 327.478 194.978 326.645 196.812 327.675C197.761 328.292 198.55 329.126 199.114 330.107C199.678 331.088 200.001 332.189 200.057 333.319Z" fill="#263238"/>
<path d="M210.667 334.434C210.488 331.14 209.537 327.935 207.89 325.077C206.243 322.219 203.946 319.788 201.186 317.982C197.447 315.824 194.216 316.473 192.72 319.21C194.219 319.261 195.678 319.704 196.953 320.494C199.715 322.295 202.015 324.722 203.665 327.578C205.314 330.434 206.268 333.638 206.449 336.931C206.449 339.922 205.404 342.025 203.725 343.026L207.845 340.656C209.538 339.697 210.667 337.538 210.667 334.434Z" fill="#263238"/>
<path d="M197.235 316.176C190.632 312.353 185.284 315.443 185.284 323.062L209.186 336.861C209.214 329.27 203.866 319.986 197.235 316.176Z" fill="#459AC3"/>
<path d="M201.553 312.818C196.713 309.996 192.537 310.956 190.674 314.652C192.982 314.359 195.319 314.9 197.263 316.176C203.867 319.986 209.214 329.242 209.214 336.861L213.447 333.517C213.503 325.884 208.156 316.571 201.553 312.818Z" fill="#459AC3"/>
<path opacity="0.5" d="M201.553 312.818C196.713 309.996 192.537 310.956 190.674 314.652C192.982 314.359 195.319 314.9 197.263 316.176C203.867 319.986 209.214 329.242 209.214 336.861L213.447 333.517C213.503 325.884 208.156 316.571 201.553 312.818Z" fill="black"/>
<path d="M122.54 385.51C122.54 391.563 118.307 393.975 113.059 390.984C110.294 389.185 107.993 386.759 106.343 383.903C104.693 381.046 103.74 377.841 103.563 374.547C103.563 368.494 107.796 366.081 113.059 369.072C115.819 370.875 118.117 373.302 119.764 376.158C121.411 379.014 122.362 382.218 122.54 385.51Z" fill="#455A64"/>
<path d="M116.29 381.898C116.29 383.972 114.879 384.804 113.059 383.774C112.112 383.155 111.325 382.321 110.761 381.34C110.198 380.36 109.873 379.26 109.814 378.131C109.814 376.056 111.225 375.224 113.059 376.254C114.001 376.877 114.784 377.712 115.345 378.692C115.906 379.672 116.23 380.77 116.29 381.898Z" fill="#263238"/>
<path d="M126.872 383.012C126.695 379.718 125.742 376.513 124.092 373.657C122.442 370.8 120.141 368.374 117.376 366.575C113.637 364.416 110.42 365.051 108.911 367.788C110.409 367.84 111.869 368.282 113.143 369.072C115.904 370.874 118.201 373.302 119.849 376.158C121.496 379.014 122.447 382.217 122.625 385.51C122.625 388.501 121.581 390.603 119.902 391.619L124.036 389.234C125.743 388.275 126.872 386.116 126.872 383.012Z" fill="#263238"/>
<path d="M113.468 364.755C106.865 360.945 101.517 364.035 101.517 371.654L125.419 385.453C125.419 377.82 120.071 368.564 113.468 364.755Z" fill="#459AC3"/>
<path d="M117.757 361.397C112.904 358.575 108.741 359.534 106.865 363.245C109.176 362.939 111.52 363.475 113.468 364.755C120.071 368.564 125.419 377.82 125.419 385.453L129.651 382.095C129.708 374.42 124.36 365.206 117.757 361.397Z" fill="#459AC3"/>
<path opacity="0.5" d="M117.757 361.397C112.904 358.575 108.741 359.534 106.865 363.245C109.176 362.939 111.52 363.475 113.468 364.755C120.071 368.564 125.419 377.82 125.419 385.453L129.651 382.095C129.708 374.42 124.36 365.206 117.757 361.397Z" fill="black"/>
<path d="M210.145 335.012C209.566 335.011 209.003 334.818 208.545 334.464C208.086 334.109 207.758 333.613 207.612 333.052C207.465 332.491 207.508 331.898 207.734 331.364C207.96 330.831 208.357 330.387 208.861 330.102C209.472 329.759 209.98 329.259 210.334 328.654C210.688 328.049 210.874 327.36 210.874 326.66C210.874 325.959 210.688 325.271 210.334 324.666C209.98 324.061 209.472 323.561 208.861 323.217L120.48 273.623C117.685 272.064 115.329 269.824 113.632 267.11C111.934 264.397 110.951 261.298 110.773 258.102L101.207 86.307C101.071 83.9588 100.356 81.6808 99.125 79.6767C97.8939 77.6725 96.1855 76.0046 94.1523 74.822L87.9724 71.21C87.1448 70.7387 86.2088 70.4908 85.2564 70.4908C84.304 70.4908 83.368 70.7387 82.5403 71.21L77.3481 74.1024C76.7468 74.3862 76.0601 74.4312 75.4269 74.2283C74.7936 74.0253 74.2611 73.5895 73.9368 73.009C73.6125 72.4285 73.5206 71.7465 73.6798 71.1009C73.839 70.4553 74.2373 69.8942 74.7943 69.531L79.9724 66.7091C81.5997 65.7945 83.4382 65.3223 85.3048 65.3396C87.1714 65.357 89.0009 65.8632 90.6109 66.8078L96.7908 70.4198C99.5684 72.0359 101.901 74.3172 103.578 77.0584C105.255 79.7995 106.225 82.9147 106.399 86.1235L115.965 257.877C116.091 260.201 116.805 262.455 118.038 264.429C119.272 266.403 120.986 268.032 123.02 269.164L211.401 318.758C212.826 319.556 214.012 320.719 214.837 322.128C215.663 323.537 216.098 325.14 216.098 326.773C216.098 328.405 215.663 330.009 214.837 331.417C214.012 332.826 212.826 333.989 211.401 334.787C211.007 334.963 210.576 335.04 210.145 335.012Z" fill="#263238"/>
<path d="M136.226 283.386C135.554 283.383 134.893 283.208 134.307 282.878L118.406 273.961C117.497 273.452 116.827 272.603 116.544 271.6C116.261 270.597 116.388 269.523 116.896 268.614C117.405 267.704 118.255 267.035 119.258 266.751C120.26 266.468 121.335 266.595 122.244 267.104L138.145 276.021C138.902 276.448 139.496 277.113 139.835 277.913C140.174 278.712 140.239 279.602 140.02 280.442C139.801 281.283 139.31 282.027 138.624 282.56C137.938 283.092 137.095 283.383 136.226 283.386Z" fill="#459AC3"/>
<path d="M143.14 285.954C142.69 285.952 142.248 285.835 141.856 285.616L136.311 282.497C135.754 282.134 135.356 281.573 135.197 280.927C135.037 280.282 135.129 279.6 135.454 279.019C135.778 278.439 136.31 278.003 136.944 277.8C137.577 277.597 138.264 277.642 138.865 277.926L144.424 281.044C144.929 281.329 145.325 281.773 145.551 282.306C145.777 282.84 145.82 283.433 145.673 283.994C145.527 284.554 145.199 285.051 144.741 285.405C144.282 285.76 143.719 285.953 143.14 285.954Z" fill="#253239"/>
<path d="M207.464 323.358C206.791 323.362 206.129 323.187 205.546 322.85L189.644 313.933C189.194 313.681 188.798 313.343 188.478 312.938C188.159 312.533 187.922 312.068 187.782 311.572C187.642 311.075 187.601 310.556 187.661 310.044C187.722 309.531 187.883 309.036 188.135 308.585C188.644 307.676 189.493 307.006 190.496 306.723C190.992 306.583 191.512 306.542 192.024 306.602C192.536 306.663 193.032 306.824 193.482 307.076L209.397 316.007C210.159 316.43 210.758 317.095 211.1 317.896C211.442 318.698 211.507 319.59 211.286 320.433C211.064 321.276 210.568 322.021 209.876 322.55C209.184 323.08 208.336 323.364 207.464 323.358Z" fill="#459AC3"/>
<path d="M210.145 335.012C209.566 335.011 209.003 334.818 208.545 334.464C208.086 334.109 207.758 333.613 207.612 333.052C207.465 332.491 207.508 331.898 207.734 331.365C207.96 330.831 208.356 330.387 208.861 330.102C209.472 329.759 209.98 329.259 210.334 328.654C210.687 328.049 210.874 327.361 210.874 326.66C210.874 325.959 210.687 325.271 210.334 324.666C209.98 324.061 209.472 323.561 208.861 323.217C208.288 322.86 207.874 322.296 207.707 321.641C207.539 320.987 207.63 320.293 207.961 319.704C208.291 319.115 208.837 318.677 209.483 318.48C210.129 318.282 210.826 318.342 211.429 318.646C212.854 319.443 214.04 320.606 214.865 322.015C215.691 323.424 216.126 325.027 216.126 326.66C216.126 328.292 215.691 329.896 214.865 331.304C214.04 332.713 212.854 333.876 211.429 334.674C211.037 334.894 210.595 335.01 210.145 335.012Z" fill="#455A64"/>
<path d="M49.9639 351.324C53.6687 349.185 53.6684 342.248 49.9632 335.831C46.2579 329.413 40.2508 325.944 36.5459 328.083C32.841 330.222 32.8414 337.159 36.5466 343.577C40.2519 349.994 46.259 353.463 49.9639 351.324Z" fill="#455A64"/>
<path d="M46.505 341.573C46.505 343.647 45.0941 344.48 43.2598 343.45C42.3152 342.829 41.5303 341.995 40.9689 341.014C40.4075 340.034 40.0854 338.934 40.0288 337.806C40.0288 335.732 41.4397 334.899 43.2598 335.929C44.2063 336.549 44.9933 337.383 45.5572 338.363C46.121 339.344 46.4457 340.444 46.505 341.573Z" fill="#263238"/>
<path d="M57.087 342.688C56.9066 339.395 55.9529 336.19 54.3031 333.335C52.6534 330.479 50.3541 328.052 47.5915 326.25C43.8525 324.092 40.6214 324.727 39.1259 327.464C40.625 327.513 42.0848 327.956 43.3587 328.748C46.1236 330.547 48.4247 332.973 50.0748 335.829C51.7248 338.686 52.6771 341.891 52.8542 345.185C52.8542 348.176 51.8102 350.279 50.1311 351.295L54.2511 348.91C55.9583 347.951 57.087 345.792 57.087 342.688Z" fill="#263238"/>
<path d="M43.6689 324.43C37.0799 320.621 31.7324 323.711 31.7324 331.33L55.6196 345.129C55.6196 337.496 50.2721 328.24 43.6689 324.43Z" fill="#459AC3"/>
<path d="M47.9582 321.072C43.1187 318.25 38.9565 319.21 37.08 322.921C39.3865 322.613 41.7265 323.149 43.669 324.43C50.2722 328.24 55.6196 337.496 55.6196 345.129L59.8524 341.771C59.9089 334.152 54.5614 324.882 47.9582 321.072Z" fill="#459AC3"/>
<path opacity="0.5" d="M47.9582 321.072C43.1187 318.25 38.9565 319.21 37.08 322.921C39.3865 322.613 41.7265 323.149 43.669 324.43C50.2722 328.24 55.6196 337.496 55.6196 345.129L59.8524 341.771C59.9089 334.152 54.5614 324.882 47.9582 321.072Z" fill="black"/>
<path d="M135.154 373.531C130.611 373.54 126.142 372.383 122.173 370.173L35.2598 321.397C32.4643 319.838 30.1083 317.598 28.4111 314.885C26.7139 312.171 25.7306 309.072 25.5526 305.877L15.9864 134.123C15.8523 131.777 15.1374 129.5 13.9061 127.498C12.6748 125.496 10.9655 123.831 8.93178 122.653L2.52614 118.829C1.75029 118.376 1.10799 117.726 0.664386 116.945C0.220781 116.164 -0.00836269 115.279 0.00023324 114.381C0.00882917 113.483 0.254849 112.603 0.713322 111.83C1.17179 111.058 1.82642 110.42 2.61079 109.982L74.8506 69.4885C75.152 69.292 75.4905 69.1595 75.8452 69.0994C76.1999 69.0392 76.5631 69.0526 76.9124 69.1387C77.2617 69.2248 77.5896 69.3818 77.8756 69.6C78.1617 69.8181 78.3998 70.0928 78.5753 70.4068C78.7507 70.7209 78.8597 71.0677 78.8955 71.4256C78.9313 71.7836 78.8931 72.1451 78.7833 72.4877C78.6735 72.8303 78.4944 73.1466 78.2572 73.4171C78.02 73.6876 77.7298 73.9064 77.4044 74.0599L5.44679 114.441L11.669 118.081C14.4452 119.702 16.7761 121.987 18.453 124.73C20.1298 127.473 21.1002 130.589 21.2775 133.799L30.7448 305.538C30.8696 307.863 31.5822 310.118 32.8161 312.092C34.0499 314.066 35.7646 315.695 37.7995 316.825L124.727 365.601C127.91 367.371 131.491 368.299 135.133 368.299C138.774 368.299 142.356 367.371 145.538 365.601L208.861 330.102C209.162 329.915 209.498 329.79 209.849 329.736C210.199 329.682 210.557 329.7 210.9 329.788C211.244 329.876 211.566 330.032 211.847 330.248C212.129 330.465 212.363 330.735 212.537 331.044C212.711 331.354 212.82 331.695 212.858 332.047C212.896 332.4 212.862 332.757 212.759 333.096C212.655 333.435 212.484 333.75 212.256 334.021C212.027 334.292 211.746 334.514 211.429 334.674L148.092 370.187C144.136 372.39 139.682 373.541 135.154 373.531Z" fill="#455A64"/>
<path d="M52.4309 331.965C51.7531 331.968 51.0863 331.793 50.4979 331.457L34.5967 322.54C33.7367 322.004 33.1165 321.157 32.8649 320.176C32.6133 319.194 32.7498 318.154 33.246 317.27C33.7422 316.387 34.5599 315.729 35.5289 315.433C36.4979 315.138 37.5436 315.227 38.4485 315.682L54.3498 324.614C55.1103 325.036 55.7088 325.7 56.051 326.5C56.3931 327.3 56.4595 328.191 56.2397 329.033C56.02 329.875 55.5265 330.62 54.837 331.151C54.1474 331.681 53.301 331.968 52.4309 331.965Z" fill="#459AC3"/>
<path d="M123.669 371.937C122.998 371.939 122.337 371.769 121.75 371.443L105.835 362.512C105.384 362.254 104.989 361.91 104.672 361.5C104.355 361.09 104.121 360.621 103.985 360.121C103.849 359.62 103.812 359.098 103.878 358.583C103.943 358.069 104.11 357.572 104.367 357.122C104.625 356.671 104.969 356.276 105.379 355.959C105.789 355.642 106.258 355.408 106.758 355.272C107.259 355.136 107.781 355.099 108.296 355.165C108.81 355.231 109.307 355.397 109.757 355.654L125.588 364.543C126.348 364.966 126.947 365.629 127.289 366.43C127.631 367.23 127.698 368.121 127.478 368.963C127.258 369.804 126.765 370.549 126.075 371.08C125.385 371.611 124.539 371.897 123.669 371.894V371.937Z" fill="#459AC3"/>
<path d="M135.154 373.559C131.77 373.561 128.418 372.914 125.278 371.654C124.942 371.538 124.633 371.355 124.37 371.116C124.107 370.878 123.896 370.588 123.748 370.265C123.6 369.942 123.52 369.592 123.511 369.237C123.503 368.882 123.566 368.529 123.698 368.199C123.83 367.869 124.028 367.57 124.279 367.319C124.53 367.067 124.829 366.87 125.159 366.738C125.489 366.606 125.842 366.542 126.197 366.55C126.552 366.559 126.902 366.639 127.225 366.787C129.74 367.802 132.427 368.324 135.14 368.324C135.5 368.298 135.861 368.346 136.202 368.466C136.542 368.585 136.854 368.774 137.119 369.019C137.383 369.265 137.594 369.562 137.738 369.893C137.882 370.224 137.957 370.581 137.957 370.942C137.957 371.303 137.882 371.66 137.738 371.99C137.594 372.321 137.383 372.619 137.119 372.864C136.854 373.11 136.542 373.298 136.202 373.418C135.861 373.537 135.5 373.586 135.14 373.559H135.154Z" fill="#455A64"/>
<path d="M45.0517 323.838C44.3638 323.84 43.6875 323.66 43.0907 323.318C42.494 322.976 41.9977 322.482 41.6518 321.888C41.3059 321.293 41.1225 320.618 41.1199 319.93C41.1173 319.242 41.2958 318.566 41.6373 317.968L44.5438 312.833C44.7864 312.361 45.1219 311.943 45.5301 311.604C45.9382 311.266 46.4106 311.013 46.9189 310.861C47.4272 310.71 47.9609 310.662 48.4879 310.722C49.0149 310.782 49.5244 310.948 49.9858 311.209C50.4472 311.471 50.851 311.823 51.1729 312.244C51.4948 312.666 51.7282 313.148 51.859 313.662C51.9899 314.176 52.0155 314.712 51.9344 315.236C51.8532 315.76 51.667 316.262 51.3868 316.713L48.4662 321.848C48.124 322.453 47.6277 322.955 47.0278 323.305C46.4279 323.654 45.746 323.838 45.0517 323.838Z" fill="#459AC3"/>
<path d="M48.9176 315.711C48.4658 315.71 48.0224 315.588 47.6336 315.358C47.3336 315.189 47.0698 314.963 46.8576 314.692C46.6453 314.421 46.4888 314.111 46.397 313.779C46.3052 313.447 46.2799 313.1 46.3227 312.759C46.3654 312.417 46.4753 312.087 46.646 311.788L59.6266 288.903C60.5877 287.21 61.9808 285.802 63.6639 284.822C65.347 283.843 67.2597 283.328 69.2068 283.33H75.6548C78.2282 283.326 80.6951 282.302 82.5147 280.483C84.3344 278.663 85.3583 276.196 85.362 273.623C85.3356 273.263 85.3836 272.901 85.5032 272.561C85.6227 272.22 85.8112 271.908 86.0569 271.644C86.3025 271.38 86.6 271.169 86.9307 271.025C87.2615 270.88 87.6185 270.806 87.9793 270.806C88.3402 270.806 88.6971 270.88 89.0279 271.025C89.3587 271.169 89.6562 271.38 89.9018 271.644C90.1474 271.908 90.3359 272.22 90.4554 272.561C90.575 272.901 90.623 273.263 90.5966 273.623C90.5929 277.584 89.0175 281.383 86.2161 284.184C83.4148 286.985 79.6165 288.561 75.6548 288.564H69.2068C68.1861 288.564 67.1834 288.833 66.301 289.346C65.4186 289.86 64.688 290.598 64.1839 291.485L51.2033 314.37C50.9766 314.778 50.6451 315.117 50.2432 315.352C49.8412 315.588 49.3836 315.712 48.9176 315.711Z" fill="#455A64"/>
<path d="M19.5702 154.116C18.9961 154.114 18.4387 153.923 17.9834 153.573C17.5281 153.224 17.2001 152.734 17.0496 152.18C16.899 151.626 16.9344 151.038 17.1501 150.506C17.3658 149.974 17.7501 149.527 18.2439 149.235L102.9 100.247C103.197 100.075 103.526 99.9626 103.866 99.9172C104.207 99.8718 104.553 99.894 104.886 99.9824C105.218 100.071 105.529 100.224 105.802 100.433C106.075 100.641 106.304 100.902 106.477 101.199C106.649 101.497 106.761 101.825 106.806 102.166C106.852 102.507 106.83 102.853 106.741 103.185C106.653 103.517 106.5 103.829 106.291 104.102C106.082 104.375 105.822 104.604 105.524 104.776L20.8683 153.764C20.4746 153.995 20.0265 154.116 19.5702 154.116Z" fill="#455A64"/>
<path d="M59.3445 334.533C58.8947 334.53 58.4529 334.414 58.0606 334.194L52.5015 331.076C52.2022 330.907 51.9391 330.681 51.7272 330.411C51.5153 330.141 51.3586 329.831 51.2663 329.5C51.1739 329.17 51.1476 328.824 51.1889 328.483C51.2301 328.142 51.3382 327.812 51.5068 327.513C51.6754 327.214 51.9013 326.951 52.1716 326.739C52.4418 326.527 52.7513 326.37 53.0821 326.278C53.4129 326.186 53.7587 326.159 54.0996 326.201C54.4406 326.242 54.7701 326.35 55.0694 326.518L60.6284 329.623C61.1332 329.907 61.5294 330.351 61.7555 330.885C61.9815 331.418 62.0246 332.012 61.878 332.572C61.7314 333.133 61.4034 333.629 60.9451 333.984C60.4868 334.338 59.924 334.531 59.3445 334.533Z" fill="#455A64"/>
<path d="M119.634 195.231C119.286 195.231 118.952 195.093 118.706 194.847C118.46 194.601 118.322 194.267 118.322 193.919V122.794C118.302 122.611 118.322 122.426 118.379 122.251C118.436 122.077 118.529 121.916 118.652 121.779C118.775 121.643 118.925 121.534 119.093 121.459C119.261 121.384 119.443 121.346 119.627 121.346C119.81 121.346 119.992 121.384 120.16 121.459C120.328 121.534 120.478 121.643 120.601 121.779C120.724 121.916 120.817 122.077 120.874 122.251C120.931 122.426 120.951 122.611 120.932 122.794V193.947C120.924 194.288 120.785 194.612 120.543 194.852C120.3 195.091 119.974 195.227 119.634 195.231Z" fill="#263238"/>
<path d="M130.314 201.369C129.966 201.369 129.633 201.23 129.387 200.984C129.141 200.738 129.002 200.405 129.002 200.057V128.917C128.983 128.734 129.003 128.55 129.06 128.375C129.117 128.2 129.21 128.039 129.333 127.903C129.456 127.766 129.606 127.657 129.774 127.582C129.942 127.508 130.124 127.469 130.307 127.469C130.491 127.469 130.673 127.508 130.841 127.582C131.009 127.657 131.159 127.766 131.282 127.903C131.405 128.039 131.498 128.2 131.555 128.375C131.612 128.55 131.632 128.734 131.613 128.917V200.071C131.609 200.414 131.471 200.742 131.228 200.984C130.986 201.227 130.658 201.365 130.314 201.369Z" fill="#263238"/>
<path d="M141.009 207.464C140.837 207.466 140.665 207.433 140.505 207.368C140.345 207.303 140.2 207.206 140.077 207.084C139.955 206.962 139.859 206.816 139.793 206.656C139.728 206.496 139.695 206.325 139.697 206.152V134.998C139.697 134.65 139.835 134.317 140.082 134.07C140.328 133.824 140.661 133.686 141.009 133.686C141.357 133.686 141.691 133.824 141.937 134.07C142.183 134.317 142.322 134.65 142.322 134.998V206.152C142.322 206.5 142.183 206.834 141.937 207.08C141.691 207.326 141.357 207.464 141.009 207.464Z" fill="#263238"/>
<path d="M151.704 213.573C151.532 213.573 151.361 213.539 151.202 213.473C151.043 213.407 150.898 213.311 150.776 213.189C150.655 213.067 150.558 212.922 150.492 212.763C150.426 212.604 150.392 212.433 150.392 212.261V141.108C150.392 140.76 150.53 140.426 150.776 140.18C151.022 139.934 151.356 139.795 151.704 139.795C152.052 139.795 152.386 139.934 152.632 140.18C152.878 140.426 153.016 140.76 153.016 141.108V212.261C153.016 212.609 152.878 212.943 152.632 213.189C152.386 213.435 152.052 213.573 151.704 213.573Z" fill="#263238"/>
<path d="M162.399 219.668C162.051 219.668 161.717 219.53 161.471 219.284C161.225 219.038 161.087 218.704 161.087 218.356V147.259C161.087 146.911 161.225 146.577 161.471 146.331C161.717 146.085 162.051 145.947 162.399 145.947C162.747 145.947 163.081 146.085 163.327 146.331C163.573 146.577 163.711 146.911 163.711 147.259V218.413C163.697 218.751 163.552 219.07 163.308 219.304C163.063 219.538 162.738 219.669 162.399 219.668Z" fill="#263238"/>
<path d="M173.094 225.778C172.746 225.778 172.412 225.64 172.166 225.393C171.92 225.147 171.782 224.814 171.782 224.466V153.312C171.782 152.964 171.92 152.63 172.166 152.384C172.412 152.138 172.746 152 173.094 152C173.442 152 173.776 152.138 174.022 152.384C174.268 152.63 174.406 152.964 174.406 153.312V224.466C174.406 224.814 174.268 225.147 174.022 225.393C173.776 225.64 173.442 225.778 173.094 225.778Z" fill="#263238"/>
<path d="M183.789 231.915C183.441 231.915 183.107 231.777 182.861 231.531C182.615 231.285 182.477 230.951 182.477 230.603V159.407C182.477 159.059 182.615 158.726 182.861 158.48C183.107 158.234 183.441 158.095 183.789 158.095C184.137 158.095 184.471 158.234 184.717 158.48C184.963 158.726 185.101 159.059 185.101 159.407V230.504C185.115 230.685 185.091 230.866 185.031 231.037C184.971 231.208 184.877 231.364 184.754 231.497C184.63 231.629 184.481 231.735 184.315 231.807C184.149 231.879 183.97 231.916 183.789 231.915Z" fill="#263238"/>
<path d="M194.484 237.982C194.136 237.982 193.802 237.844 193.556 237.598C193.31 237.352 193.172 237.018 193.172 236.67V165.517C193.172 165.169 193.31 164.835 193.556 164.589C193.802 164.343 194.136 164.205 194.484 164.205C194.832 164.205 195.166 164.343 195.412 164.589C195.658 164.835 195.796 165.169 195.796 165.517V236.67C195.796 237.018 195.658 237.352 195.412 237.598C195.166 237.844 194.832 237.982 194.484 237.982Z" fill="#263238"/>
<path d="M205.179 244.078C204.831 244.078 204.497 243.939 204.251 243.693C204.005 243.447 203.867 243.113 203.867 242.765V171.612C203.867 171.264 204.005 170.93 204.251 170.684C204.497 170.438 204.831 170.3 205.179 170.3C205.527 170.3 205.86 170.438 206.107 170.684C206.353 170.93 206.491 171.264 206.491 171.612V242.765C206.491 243.113 206.353 243.447 206.107 243.693C205.86 243.939 205.527 244.078 205.179 244.078Z" fill="#263238"/>
<path d="M215.874 250.257C215.701 250.257 215.531 250.224 215.371 250.158C215.212 250.092 215.068 249.995 214.946 249.873C214.824 249.751 214.727 249.607 214.661 249.447C214.595 249.288 214.561 249.118 214.561 248.945V177.721C214.561 177.373 214.7 177.04 214.946 176.794C215.192 176.547 215.526 176.409 215.874 176.409C216.222 176.409 216.555 176.547 216.801 176.794C217.048 177.04 217.186 177.373 217.186 177.721V248.847C217.199 249.027 217.176 249.208 217.116 249.379C217.056 249.55 216.961 249.706 216.838 249.839C216.715 249.971 216.566 250.077 216.4 250.149C216.234 250.221 216.055 250.258 215.874 250.257Z" fill="#263238"/>
<path d="M226.568 256.282C226.22 256.282 225.887 256.144 225.641 255.898C225.394 255.652 225.256 255.318 225.256 254.97V183.817C225.256 183.469 225.394 183.135 225.641 182.889C225.887 182.643 226.22 182.504 226.568 182.504C226.916 182.504 227.25 182.643 227.496 182.889C227.742 183.135 227.881 183.469 227.881 183.817V254.97C227.882 255.143 227.85 255.314 227.785 255.474C227.719 255.634 227.623 255.78 227.5 255.902C227.378 256.024 227.233 256.121 227.073 256.186C226.913 256.251 226.741 256.284 226.568 256.282Z" fill="#263238"/>
<path d="M237.263 262.392C236.918 262.388 236.588 262.248 236.345 262.002C236.102 261.757 235.965 261.425 235.965 261.079V189.926C235.946 189.743 235.966 189.558 236.023 189.384C236.08 189.209 236.173 189.048 236.296 188.912C236.419 188.775 236.569 188.666 236.737 188.591C236.905 188.517 237.087 188.478 237.27 188.478C237.454 188.478 237.636 188.517 237.804 188.591C237.972 188.666 238.122 188.775 238.245 188.912C238.368 189.048 238.461 189.209 238.518 189.384C238.575 189.558 238.595 189.743 238.576 189.926V261.079C238.576 261.427 238.437 261.761 238.191 262.007C237.945 262.253 237.611 262.392 237.263 262.392Z" fill="#263238"/>
<path d="M248.029 262.392C247.683 262.388 247.353 262.248 247.11 262.002C246.867 261.757 246.731 261.425 246.731 261.08V196.021C246.712 195.839 246.731 195.654 246.788 195.479C246.845 195.304 246.938 195.143 247.061 195.007C247.184 194.87 247.335 194.761 247.502 194.687C247.67 194.612 247.852 194.573 248.036 194.573C248.22 194.573 248.401 194.612 248.569 194.687C248.737 194.761 248.887 194.87 249.011 195.007C249.134 195.143 249.227 195.304 249.283 195.479C249.34 195.654 249.36 195.839 249.341 196.021V261.08C249.341 261.428 249.203 261.761 248.957 262.007C248.711 262.253 248.377 262.392 248.029 262.392Z" fill="#263238"/>
<path d="M258.667 253.221C258.496 253.222 258.325 253.19 258.166 253.126C258.007 253.061 257.862 252.966 257.74 252.845C257.618 252.725 257.521 252.581 257.455 252.422C257.389 252.264 257.355 252.094 257.355 251.922V202.131C257.336 201.948 257.356 201.763 257.412 201.588C257.469 201.414 257.562 201.253 257.685 201.116C257.808 200.98 257.959 200.871 258.127 200.796C258.295 200.721 258.476 200.682 258.66 200.682C258.844 200.682 259.026 200.721 259.193 200.796C259.361 200.871 259.512 200.98 259.635 201.116C259.758 201.253 259.851 201.414 259.908 201.588C259.965 201.763 259.984 201.948 259.965 202.131V251.922C259.965 252.093 259.932 252.262 259.866 252.419C259.801 252.577 259.706 252.72 259.585 252.84C259.464 252.961 259.321 253.056 259.164 253.122C259.006 253.187 258.838 253.221 258.667 253.221Z" fill="#263238"/>
<path d="M269.362 242.582C269.014 242.582 268.68 242.444 268.434 242.198C268.188 241.952 268.05 241.618 268.05 241.27V208.226C268.05 207.878 268.188 207.544 268.434 207.298C268.68 207.052 269.014 206.914 269.362 206.914C269.71 206.914 270.044 207.052 270.29 207.298C270.536 207.544 270.674 207.878 270.674 208.226V241.27C270.674 241.618 270.536 241.952 270.29 242.198C270.044 242.444 269.71 242.582 269.362 242.582Z" fill="#263238"/>
<path d="M280.057 232.945C279.709 232.945 279.375 232.807 279.129 232.561C278.883 232.315 278.745 231.981 278.745 231.633V214.335C278.745 213.987 278.883 213.653 279.129 213.407C279.375 213.161 279.709 213.023 280.057 213.023C280.405 213.023 280.739 213.161 280.985 213.407C281.231 213.653 281.369 213.987 281.369 214.335V231.633C281.369 231.981 281.231 232.315 280.985 232.561C280.739 232.807 280.405 232.945 280.057 232.945Z" fill="#263238"/>
<path d="M280.113 234.159C279.884 234.162 279.658 234.098 279.464 233.975L105.411 134.265C105.248 134.187 105.102 134.077 104.983 133.941C104.864 133.805 104.774 133.645 104.72 133.472C104.666 133.3 104.647 133.118 104.667 132.938C104.686 132.758 104.742 132.584 104.832 132.427C104.922 132.27 105.043 132.133 105.188 132.025C105.334 131.917 105.5 131.84 105.676 131.8C105.852 131.759 106.035 131.755 106.213 131.788C106.391 131.822 106.56 131.891 106.709 131.993L280.762 231.704C281.064 231.878 281.283 232.164 281.373 232.5C281.463 232.836 281.416 233.194 281.242 233.496C281.13 233.696 280.966 233.863 280.767 233.98C280.569 234.096 280.343 234.158 280.113 234.159Z" fill="#263238"/>
<path d="M267.782 244.896C267.555 244.893 267.332 244.834 267.133 244.727L107.429 153.228C107.138 153.059 106.924 152.783 106.831 152.46C106.739 152.136 106.777 151.789 106.935 151.492C107.02 151.342 107.134 151.21 107.27 151.104C107.407 150.997 107.562 150.919 107.729 150.873C107.895 150.827 108.069 150.815 108.24 150.836C108.412 150.858 108.577 150.913 108.727 150.998L268.417 242.497C268.674 242.636 268.877 242.857 268.993 243.125C269.109 243.393 269.132 243.692 269.057 243.974C268.982 244.256 268.814 244.505 268.58 244.68C268.346 244.855 268.06 244.946 267.768 244.938L267.782 244.896Z" fill="#263238"/>
<path d="M256.353 256.169C256.124 256.169 255.9 256.105 255.704 255.986L108.459 171.626C108.309 171.541 108.177 171.427 108.071 171.291C107.964 171.155 107.886 170.999 107.84 170.833C107.794 170.666 107.782 170.492 107.803 170.321C107.825 170.15 107.88 169.984 107.965 169.834C108.142 169.536 108.428 169.319 108.763 169.229C109.098 169.139 109.455 169.184 109.757 169.355L257.016 253.714C257.315 253.891 257.532 254.178 257.622 254.512C257.711 254.847 257.666 255.204 257.496 255.506C257.382 255.709 257.216 255.877 257.015 255.994C256.814 256.111 256.586 256.171 256.353 256.169Z" fill="#263238"/>
<path d="M244.769 267.979C244.308 267.98 243.855 267.859 243.457 267.626L109.898 191.111C109.294 190.765 108.852 190.193 108.669 189.521C108.487 188.849 108.579 188.132 108.925 187.527C109.271 186.923 109.843 186.481 110.515 186.298C111.187 186.116 111.904 186.208 112.508 186.554L244.403 262.123L287.972 222.039L106.724 118.194C106.164 117.827 105.765 117.26 105.61 116.609C105.454 115.958 105.553 115.272 105.887 114.692C106.22 114.111 106.763 113.68 107.404 113.487C108.044 113.293 108.735 113.352 109.334 113.651L293.687 219.217C294.042 219.426 294.344 219.714 294.569 220.059C294.795 220.404 294.937 220.797 294.985 221.206C295.029 221.615 294.977 222.028 294.832 222.413C294.688 222.798 294.455 223.143 294.152 223.422L246.533 267.302C246.05 267.738 245.421 267.98 244.769 267.979Z" fill="#263238"/>
<path d="M34.9777 241.989C34.7488 241.992 34.5234 241.933 34.3249 241.819C34.1265 241.704 33.9621 241.539 33.8489 241.34C33.7609 241.192 33.7035 241.027 33.68 240.856C33.6565 240.685 33.6674 240.51 33.7121 240.344C33.7568 240.177 33.8344 240.02 33.9402 239.884C34.0461 239.747 34.1781 239.633 34.3286 239.548L115.754 192.212C115.903 192.12 116.069 192.059 116.243 192.032C116.416 192.006 116.593 192.014 116.763 192.057C116.933 192.1 117.092 192.177 117.232 192.283C117.372 192.388 117.489 192.521 117.577 192.673C117.665 192.825 117.721 192.993 117.743 193.167C117.765 193.341 117.751 193.517 117.704 193.686C117.656 193.855 117.575 194.012 117.465 194.149C117.356 194.286 117.22 194.4 117.066 194.483L35.6972 241.792C35.4795 241.921 35.2309 241.989 34.9777 241.989Z" fill="#37474F"/>
<path d="M45.729 248.099C45.5007 248.098 45.2764 248.038 45.0785 247.924C44.8805 247.81 44.7157 247.647 44.6003 247.45C44.5123 247.301 44.4549 247.136 44.4314 246.965C44.4079 246.794 44.4188 246.62 44.4635 246.453C44.5081 246.286 44.5857 246.13 44.6916 245.993C44.7974 245.857 44.9295 245.743 45.08 245.658L126.505 198.321C126.654 198.213 126.823 198.138 127.002 198.1C127.182 198.062 127.367 198.062 127.547 198.1C127.726 198.138 127.896 198.213 128.044 198.321C128.193 198.428 128.317 198.566 128.409 198.724C128.501 198.883 128.559 199.059 128.579 199.241C128.599 199.424 128.581 199.608 128.525 199.783C128.469 199.957 128.377 200.119 128.255 200.256C128.133 200.393 127.984 200.503 127.817 200.578L46.3922 247.915C46.1922 248.036 45.9627 248.1 45.729 248.099Z" fill="#37474F"/>
<path d="M56.4379 254.194C56.1509 254.193 55.8722 254.097 55.6445 253.923C55.4169 253.748 55.2529 253.503 55.1776 253.226C55.1024 252.949 55.12 252.655 55.2279 252.389C55.3357 252.123 55.5279 251.9 55.7748 251.753L137.2 204.416C137.5 204.254 137.853 204.214 138.181 204.307C138.51 204.4 138.79 204.618 138.961 204.914C139.132 205.21 139.181 205.561 139.097 205.892C139.013 206.223 138.803 206.509 138.512 206.688L57.087 254.025C56.8874 254.133 56.6647 254.191 56.4379 254.194Z" fill="#37474F"/>
<path d="M67.1328 260.303C66.904 260.296 66.6803 260.233 66.4812 260.12C66.2821 260.007 66.1135 259.847 65.99 259.654C65.8198 259.352 65.7748 258.995 65.8645 258.661C65.9541 258.326 66.1714 258.039 66.4697 257.862L147.852 210.526C148.001 210.418 148.17 210.343 148.35 210.305C148.529 210.267 148.715 210.267 148.894 210.305C149.073 210.343 149.243 210.418 149.391 210.525C149.54 210.633 149.664 210.77 149.757 210.929C149.849 211.087 149.907 211.264 149.927 211.446C149.946 211.628 149.928 211.813 149.872 211.987C149.816 212.162 149.725 212.323 149.603 212.46C149.481 212.597 149.332 212.707 149.165 212.783L67.7819 260.134C67.5854 260.25 67.3607 260.308 67.1328 260.303Z" fill="#37474F"/>
<path d="M77.8277 266.399C77.5406 266.397 77.2619 266.302 77.0343 266.127C76.8067 265.952 76.6426 265.707 76.5674 265.43C76.4921 265.153 76.5098 264.859 76.6177 264.593C76.7255 264.327 76.9176 264.104 77.1646 263.958L158.59 216.621C158.891 216.445 159.25 216.396 159.587 216.485C159.924 216.573 160.213 216.792 160.389 217.093C160.564 217.395 160.613 217.753 160.525 218.091C160.436 218.428 160.217 218.717 159.916 218.892L78.4767 266.229C78.2787 266.341 78.0551 266.399 77.8277 266.399Z" fill="#37474F"/>
<path d="M88.5932 272.508C88.3643 272.501 88.1406 272.438 87.9415 272.325C87.7424 272.212 87.5738 272.052 87.4503 271.859C87.2802 271.557 87.2351 271.2 87.3248 270.865C87.4144 270.53 87.6317 270.244 87.93 270.067L169.355 222.73C169.504 222.629 169.671 222.559 169.848 222.525C170.025 222.491 170.206 222.494 170.382 222.533C170.557 222.573 170.723 222.647 170.868 222.753C171.013 222.859 171.135 222.994 171.227 223.149C171.318 223.304 171.376 223.476 171.398 223.655C171.419 223.833 171.404 224.014 171.353 224.187C171.302 224.359 171.216 224.519 171.1 224.657C170.985 224.795 170.842 224.907 170.681 224.988L89.2422 272.325C89.0482 272.447 88.8227 272.511 88.5932 272.508Z" fill="#37474F"/>
<path d="M99.2174 278.603C98.9885 278.605 98.7632 278.546 98.5647 278.432C98.3662 278.318 98.2019 278.153 98.0887 277.954C97.9136 277.655 97.8643 277.298 97.9516 276.962C98.0389 276.626 98.2556 276.339 98.5543 276.162L179.979 228.825C180.128 228.737 180.293 228.68 180.464 228.656C180.635 228.633 180.809 228.644 180.976 228.689C181.143 228.733 181.299 228.811 181.436 228.917C181.572 229.022 181.686 229.155 181.771 229.305C181.946 229.605 181.996 229.961 181.908 230.297C181.821 230.633 181.604 230.921 181.306 231.097L99.8806 278.476C99.6744 278.576 99.4458 278.619 99.2174 278.603Z" fill="#37474F"/>
<path d="M109.912 284.712C109.625 284.711 109.347 284.616 109.119 284.441C108.891 284.266 108.727 284.021 108.652 283.744C108.577 283.467 108.595 283.173 108.702 282.907C108.81 282.641 109.002 282.418 109.249 282.272L190.674 234.935C190.972 234.786 191.315 234.756 191.634 234.851C191.952 234.945 192.223 235.157 192.392 235.444C192.56 235.731 192.614 236.071 192.541 236.395C192.468 236.72 192.275 237.005 192.001 237.192L110.576 284.529C110.376 284.65 110.146 284.713 109.912 284.712Z" fill="#37474F"/>
<path d="M120.607 290.808C120.378 290.81 120.153 290.751 119.954 290.637C119.756 290.523 119.592 290.358 119.478 290.159C119.303 289.859 119.254 289.503 119.341 289.167C119.429 288.831 119.645 288.543 119.944 288.367L201.383 241.03C201.532 240.942 201.697 240.885 201.868 240.861C202.039 240.838 202.213 240.849 202.38 240.893C202.547 240.938 202.703 241.015 202.84 241.121C202.976 241.227 203.09 241.359 203.175 241.51C203.345 241.812 203.39 242.169 203.301 242.504C203.211 242.838 202.994 243.125 202.695 243.302L121.27 290.639C121.067 290.749 120.839 290.807 120.607 290.808Z" fill="#37474F"/>
<path d="M131.302 296.917C131.015 296.916 130.736 296.82 130.509 296.646C130.281 296.471 130.117 296.226 130.042 295.949C129.967 295.672 129.984 295.378 130.092 295.112C130.2 294.846 130.392 294.623 130.639 294.476L212.078 247.139C212.378 246.964 212.734 246.915 213.07 247.002C213.406 247.09 213.694 247.306 213.87 247.605C214.04 247.907 214.085 248.264 213.996 248.599C213.906 248.934 213.689 249.22 213.39 249.397L131.965 296.734C131.765 296.855 131.536 296.918 131.302 296.917Z" fill="#37474F"/>
<path d="M141.997 303.012C141.768 303.015 141.543 302.956 141.344 302.841C141.146 302.727 140.982 302.562 140.868 302.363C140.78 302.215 140.723 302.05 140.699 301.879C140.676 301.707 140.687 301.533 140.732 301.366C140.776 301.2 140.854 301.043 140.96 300.907C141.065 300.77 141.198 300.656 141.348 300.571L222.773 253.234C222.922 253.143 223.089 253.082 223.262 253.055C223.435 253.029 223.612 253.037 223.782 253.08C223.952 253.123 224.112 253.2 224.252 253.306C224.392 253.411 224.509 253.544 224.597 253.696C224.684 253.848 224.741 254.016 224.762 254.19C224.784 254.364 224.771 254.54 224.723 254.709C224.675 254.878 224.594 255.035 224.485 255.172C224.375 255.309 224.239 255.423 224.085 255.506L142.66 302.843C142.456 302.953 142.229 303.011 141.997 303.012Z" fill="#37474F"/>
<path d="M152.692 309.122C152.464 309.121 152.239 309.061 152.041 308.947C151.843 308.833 151.679 308.67 151.563 308.473C151.479 308.322 151.426 308.156 151.407 307.985C151.387 307.813 151.403 307.64 151.451 307.474C151.5 307.309 151.581 307.155 151.69 307.021C151.799 306.887 151.933 306.776 152.085 306.695L233.51 259.358C233.659 259.251 233.828 259.175 234.008 259.137C234.187 259.099 234.372 259.099 234.552 259.137C234.731 259.175 234.901 259.25 235.049 259.358C235.198 259.465 235.322 259.603 235.414 259.761C235.507 259.92 235.564 260.096 235.584 260.278C235.604 260.461 235.586 260.645 235.53 260.82C235.474 260.995 235.382 261.156 235.261 261.293C235.139 261.43 234.989 261.54 234.822 261.616L153.355 308.938C153.155 309.059 152.926 309.123 152.692 309.122Z" fill="#37474F"/>
<path d="M121.031 275.937L55.9301 238.363V149.122L121.031 186.709V275.937Z" fill="#459AC3"/>
<path d="M121.031 275.937V186.709L186.117 149.122V238.363L121.031 275.937Z" fill="#459AC3"/>
<path opacity="0.5" d="M121.031 275.937L55.9301 238.363V149.122L121.031 186.709V275.937Z" fill="black"/>
<path opacity="0.7" d="M121.031 275.937V186.709L186.117 149.122V238.363L121.031 275.937Z" fill="black"/>
<path d="M121.031 183.069L50.8789 142.575L121.031 102.067L191.168 142.575L121.031 183.069Z" fill="#459AC3"/>
<path d="M81.3833 124.952L151.535 165.46L160.664 160.183L90.5262 119.69L81.3833 124.952Z" fill="#459AC3"/>
<path opacity="0.8" d="M81.3833 124.952L151.535 165.46L160.664 160.183L90.5262 119.69L81.3833 124.952Z" fill="white"/>
<path d="M160.664 124.952L90.5262 165.46L81.3833 160.183L151.535 119.69L160.664 124.952Z" fill="#459AC3"/>
<path opacity="0.8" d="M160.664 124.952L90.5262 165.46L81.3833 160.183L151.535 119.69L160.664 124.952Z" fill="white"/>
<path d="M121.031 197.079L50.8789 156.572V142.575L121.031 183.069V197.079Z" fill="#459AC3"/>
<path d="M121.031 197.079V183.069L191.168 142.575V156.586L121.031 197.079Z" fill="#459AC3"/>
<path opacity="0.3" d="M121.031 197.079L50.8789 156.572V142.575L121.031 183.069V197.079Z" fill="black"/>
<path opacity="0.5" d="M121.031 197.079V183.069L191.168 142.575V156.586L121.031 197.079Z" fill="black"/>
<path d="M90.5262 258.385L81.3833 253.15V160.183L90.5262 165.46V258.385Z" fill="#459AC3"/>
<path d="M151.535 258.385L160.664 253.15V160.183L151.535 165.46V258.385Z" fill="#459AC3"/>
<path d="M154.498 179.344C154.448 180.329 154.167 181.288 153.677 182.144C153.186 183 152.501 183.727 151.676 184.268C150.11 185.185 148.854 184.437 148.854 182.631C148.907 181.645 149.19 180.685 149.68 179.828C150.17 178.97 150.853 178.239 151.676 177.693C153.228 176.79 154.498 177.524 154.498 179.344Z" fill="#459AC3"/>
<path d="M184.113 162.243C184.062 163.228 183.779 164.186 183.289 165.042C182.799 165.897 182.115 166.625 181.292 167.168C179.711 168.071 178.47 167.337 178.47 165.531C178.519 164.544 178.801 163.583 179.291 162.725C179.781 161.867 180.467 161.136 181.292 160.593C182.844 159.69 184.113 160.423 184.113 162.243Z" fill="#459AC3"/>
<path d="M151.648 181.728C151.274 181.728 150.915 181.58 150.65 181.315C150.385 181.051 150.237 180.692 150.237 180.317V160.677C150.249 156.603 151.31 152.601 153.316 149.055C155.322 145.509 158.207 142.539 161.694 140.43L168.635 136.198C170.034 135.355 171.631 134.899 173.264 134.877C174.896 134.854 176.505 135.266 177.926 136.07C179.348 136.874 180.529 138.041 181.351 139.452C182.173 140.862 182.605 142.466 182.604 144.099V163.175C182.604 163.549 182.455 163.908 182.19 164.172C181.926 164.437 181.567 164.586 181.193 164.586C180.819 164.586 180.46 164.437 180.195 164.172C179.93 163.908 179.782 163.549 179.782 163.175V144.169C179.783 143.025 179.48 141.9 178.904 140.911C178.328 139.922 177.5 139.103 176.504 138.539C175.508 137.975 174.38 137.686 173.235 137.701C172.091 137.716 170.971 138.035 169.99 138.624L163.048 142.787C159.965 144.648 157.412 147.271 155.635 150.405C153.858 153.538 152.918 157.075 152.903 160.677V180.36C152.895 180.701 152.764 181.028 152.533 181.28C152.302 181.532 151.987 181.691 151.648 181.728Z" fill="#459AC3"/>
<path opacity="0.9" d="M151.648 181.728C151.274 181.728 150.915 181.58 150.65 181.315C150.385 181.051 150.237 180.692 150.237 180.317V160.677C150.249 156.603 151.31 152.601 153.316 149.055C155.322 145.509 158.207 142.539 161.694 140.43L168.635 136.198C170.034 135.355 171.631 134.899 173.264 134.877C174.896 134.854 176.505 135.266 177.926 136.07C179.348 136.874 180.529 138.041 181.351 139.452C182.173 140.862 182.605 142.466 182.604 144.099V163.175C182.604 163.549 182.455 163.908 182.19 164.172C181.926 164.437 181.567 164.586 181.193 164.586C180.819 164.586 180.46 164.437 180.195 164.172C179.93 163.908 179.782 163.549 179.782 163.175V144.169C179.783 143.025 179.48 141.9 178.904 140.911C178.328 139.922 177.5 139.103 176.504 138.539C175.508 137.975 174.38 137.686 173.235 137.701C172.091 137.716 170.971 138.035 169.99 138.624L163.048 142.787C159.965 144.648 157.412 147.271 155.635 150.405C153.858 153.538 152.918 157.075 152.903 160.677V180.36C152.895 180.701 152.764 181.028 152.533 181.28C152.302 181.532 151.987 181.691 151.648 181.728Z" fill="black"/>
<path d="M196.403 145.637L230.166 166.772V262.462L196.403 241.326V145.637Z" fill="#459AC3"/>
<path d="M129.538 279.929V184.24L196.403 145.637V241.326L129.538 279.929Z" fill="#459AC3"/>
<path opacity="0.3" d="M129.538 279.929V184.24L196.403 145.637V241.326L129.538 279.929Z" fill="black"/>
<path d="M134.378 251.668L143.718 196.952C144.569 192.003 146.497 187.302 149.367 183.181C152.237 179.06 155.978 175.621 160.325 173.108L195.359 152.903C197.339 151.761 199.57 151.122 201.855 151.043C204.14 150.964 206.41 151.447 208.465 152.45C210.519 153.453 212.296 154.945 213.64 156.796C214.983 158.646 215.852 160.797 216.17 163.062L225.454 228.952C226.716 237.938 224.435 247.063 219.093 254.399C213.751 261.734 205.766 266.705 196.826 268.261L157.729 275.033C154.54 275.575 151.267 275.345 148.186 274.363C145.104 273.38 142.302 271.673 140.016 269.385C137.729 267.097 136.024 264.295 135.043 261.212C134.062 258.13 133.834 254.857 134.378 251.668Z" fill="#459AC3"/>
<path opacity="0.8" d="M134.378 251.668L143.718 196.952C144.569 192.003 146.497 187.302 149.367 183.181C152.237 179.06 155.978 175.621 160.325 173.108L195.359 152.903C197.339 151.761 199.57 151.122 201.855 151.043C204.14 150.964 206.41 151.447 208.465 152.45C210.519 153.453 212.296 154.945 213.64 156.796C214.983 158.646 215.852 160.797 216.17 163.062L225.454 228.952C226.716 237.938 224.435 247.063 219.093 254.399C213.751 261.734 205.766 266.705 196.826 268.261L157.729 275.033C154.54 275.575 151.267 275.345 148.186 274.363C145.104 273.38 142.302 271.673 140.016 269.385C137.729 267.097 136.024 264.295 135.043 261.212C134.062 258.13 133.834 254.857 134.378 251.668Z" fill="white"/>
<path d="M163.316 301.065V205.376L230.166 166.772V262.462L163.316 301.065Z" fill="#459AC3"/>
<path opacity="0.5" d="M163.316 301.065V205.376L230.166 166.772V262.462L163.316 301.065Z" fill="black"/>
<path d="M129.538 184.24L163.316 205.376V301.065L129.538 279.929V184.24Z" fill="#459AC3"/>
<path opacity="0.3" d="M146.427 273.397V194.822L163.316 205.376V301.065L146.427 273.397Z" fill="black"/>
<path d="M184.777 201.975C184.727 202.962 184.446 203.924 183.955 204.782C183.465 205.639 182.78 206.37 181.955 206.914C180.389 207.817 179.133 207.083 179.133 205.263C179.182 204.278 179.464 203.319 179.954 202.463C180.444 201.607 181.13 200.879 181.955 200.339C183.507 199.464 184.777 200.169 184.777 201.975Z" fill="#459AC3"/>
<path d="M214.406 184.875C214.356 185.859 214.074 186.818 213.583 187.674C213.093 188.529 212.408 189.257 211.584 189.799C210.004 190.716 208.762 189.982 208.762 188.162C208.811 187.177 209.092 186.217 209.582 185.361C210.073 184.506 210.759 183.778 211.584 183.238C213.122 182.321 214.406 183.069 214.406 184.875Z" fill="#459AC3"/>
<path d="M181.926 204.36C181.552 204.36 181.193 204.211 180.929 203.947C180.664 203.682 180.516 203.323 180.516 202.949V183.323C180.526 179.245 181.586 175.238 183.596 171.689C185.605 168.14 188.495 165.169 191.986 163.062L198.928 158.9C200.326 158.061 201.922 157.608 203.553 157.587C205.183 157.566 206.79 157.979 208.209 158.782C209.628 159.586 210.808 160.751 211.629 162.16C212.45 163.569 212.883 165.17 212.882 166.801V185.891C212.934 186.099 212.939 186.316 212.894 186.526C212.85 186.736 212.758 186.933 212.626 187.102C212.494 187.271 212.325 187.408 212.133 187.502C211.94 187.596 211.728 187.645 211.514 187.645C211.299 187.645 211.088 187.596 210.895 187.502C210.702 187.408 210.533 187.271 210.401 187.102C210.269 186.933 210.178 186.736 210.133 186.526C210.089 186.316 210.093 186.099 210.145 185.891V166.801C210.143 165.656 209.838 164.532 209.261 163.543C208.683 162.554 207.853 161.737 206.857 161.173C205.86 160.609 204.732 160.32 203.587 160.335C202.442 160.349 201.321 160.667 200.339 161.256L193.397 165.418C190.313 167.281 187.761 169.908 185.987 173.044C184.213 176.18 183.276 179.72 183.267 183.323V202.991C183.257 203.346 183.113 203.684 182.865 203.938C182.616 204.192 182.281 204.342 181.926 204.36Z" fill="#459AC3"/>
<path opacity="0.9" d="M181.926 204.36C181.552 204.36 181.193 204.211 180.929 203.947C180.664 203.682 180.516 203.323 180.516 202.949V183.323C180.526 179.245 181.586 175.238 183.596 171.689C185.605 168.14 188.495 165.169 191.986 163.062L198.928 158.9C200.326 158.061 201.922 157.608 203.553 157.587C205.183 157.566 206.79 157.979 208.209 158.782C209.628 159.586 210.808 160.751 211.629 162.16C212.45 163.569 212.883 165.17 212.882 166.801V185.891C212.934 186.099 212.939 186.316 212.894 186.526C212.85 186.736 212.758 186.933 212.626 187.102C212.494 187.271 212.325 187.408 212.133 187.502C211.94 187.596 211.728 187.645 211.514 187.645C211.299 187.645 211.088 187.596 210.895 187.502C210.702 187.408 210.533 187.271 210.401 187.102C210.269 186.933 210.178 186.736 210.133 186.526C210.089 186.316 210.093 186.099 210.145 185.891V166.801C210.143 165.656 209.838 164.532 209.261 163.543C208.683 162.554 207.853 161.737 206.857 161.173C205.86 160.609 204.732 160.32 203.587 160.335C202.442 160.349 201.321 160.667 200.339 161.256L193.397 165.418C190.313 167.281 187.761 169.908 185.987 173.044C184.213 176.18 183.276 179.72 183.267 183.323V202.991C183.257 203.346 183.113 203.684 182.865 203.938C182.616 204.192 182.281 204.342 181.926 204.36Z" fill="black"/>
<path d="M205.546 271.901C204.963 271.903 204.396 271.71 203.935 271.353C203.473 270.997 203.144 270.497 202.999 269.932C202.853 269.368 202.9 268.771 203.131 268.236C203.362 267.701 203.765 267.258 204.276 266.977L291.119 219.217C291.721 218.94 292.406 218.901 293.036 219.108C293.667 219.316 294.195 219.754 294.515 220.335C294.835 220.916 294.923 221.597 294.761 222.24C294.6 222.883 294.201 223.442 293.644 223.803L206.801 271.563C206.419 271.783 205.986 271.899 205.546 271.901Z" fill="#37474F"/>
<path d="M157.926 315.767C157.453 315.764 156.989 315.631 156.586 315.382C156.183 315.133 155.856 314.778 155.641 314.356C155.474 314.055 155.368 313.724 155.33 313.383C155.291 313.041 155.321 312.695 155.416 312.364C155.512 312.034 155.672 311.726 155.887 311.457C156.103 311.189 156.369 310.966 156.671 310.801L243.5 262.998C244.108 262.681 244.816 262.615 245.473 262.814C246.129 263.013 246.682 263.461 247.012 264.063C247.342 264.664 247.424 265.371 247.239 266.031C247.055 266.692 246.619 267.254 246.025 267.598L159.14 315.443C158.768 315.649 158.351 315.76 157.926 315.767Z" fill="#37474F"/>
<path d="M222.265 279.52C222.084 279.521 221.906 279.484 221.74 279.411C221.575 279.338 221.427 279.231 221.306 279.097C221.071 278.842 220.947 278.505 220.96 278.158C220.973 277.812 221.123 277.485 221.376 277.249L268.995 233.326C269.25 233.092 269.588 232.967 269.934 232.981C270.28 232.994 270.607 233.143 270.844 233.397C271.079 233.654 271.204 233.994 271.191 234.343C271.177 234.691 271.027 235.021 270.773 235.259L223.154 279.125C223.039 279.246 222.901 279.344 222.749 279.411C222.596 279.479 222.432 279.516 222.265 279.52Z" fill="#37474F"/>
<path d="M180.643 302.293C180.462 302.294 180.283 302.256 180.118 302.183C179.952 302.111 179.804 302.004 179.683 301.869C179.565 301.744 179.473 301.597 179.413 301.435C179.353 301.274 179.325 301.103 179.332 300.931C179.338 300.758 179.379 300.59 179.451 300.433C179.524 300.277 179.627 300.137 179.754 300.021L227.373 256.141C227.5 256.024 227.648 255.934 227.81 255.874C227.972 255.815 228.144 255.788 228.317 255.796C228.489 255.803 228.658 255.844 228.814 255.916C228.971 255.989 229.111 256.092 229.228 256.219C229.345 256.346 229.435 256.494 229.495 256.656C229.554 256.818 229.581 256.99 229.574 257.162C229.566 257.335 229.525 257.504 229.453 257.66C229.38 257.817 229.277 257.957 229.151 258.074L181.531 301.954C181.287 302.173 180.971 302.294 180.643 302.293Z" fill="#37474F"/>
<path d="M200.932 290.836C200.751 290.837 200.572 290.8 200.407 290.727C200.242 290.654 200.093 290.547 199.972 290.413C199.854 290.287 199.763 290.14 199.702 289.979C199.642 289.817 199.614 289.646 199.621 289.474C199.627 289.302 199.668 289.133 199.74 288.977C199.813 288.82 199.916 288.68 200.043 288.564L247.662 244.684C247.788 244.568 247.935 244.479 248.096 244.42C248.257 244.361 248.428 244.335 248.599 244.342C248.77 244.349 248.938 244.39 249.093 244.462C249.248 244.534 249.387 244.636 249.503 244.762C249.619 244.888 249.709 245.035 249.768 245.196C249.826 245.357 249.853 245.528 249.846 245.699C249.839 245.87 249.798 246.037 249.726 246.193C249.654 246.348 249.552 246.487 249.426 246.603L201.821 290.483C201.582 290.712 201.263 290.839 200.932 290.836Z" fill="#37474F"/>
<path d="M157.926 315.767C157.472 315.767 157.025 315.65 156.628 315.428L23.0693 238.97C22.4668 238.626 22.0258 238.056 21.8432 237.387C21.6606 236.717 21.7515 236.003 22.0957 235.4C22.44 234.798 23.0095 234.357 23.6789 234.174C24.3484 233.992 25.0629 234.082 25.6654 234.427L157.56 309.996L201.143 269.841L19.8947 165.996C19.2922 165.652 18.8512 165.083 18.6686 164.413C18.486 163.744 18.5769 163.029 18.9211 162.427C19.2654 161.824 19.8349 161.383 20.5043 161.201C21.1738 161.018 21.8883 161.109 22.4908 161.453L206.844 267.076C207.206 267.279 207.516 267.566 207.746 267.913C207.976 268.259 208.121 268.656 208.168 269.069C208.215 269.483 208.162 269.901 208.016 270.291C207.869 270.68 207.631 271.029 207.323 271.309L159.704 315.189C159.205 315.598 158.571 315.804 157.926 315.767Z" fill="#455A64"/>
<path d="M33.7219 243.302C33.5502 243.302 33.3802 243.268 33.2218 243.201C33.0634 243.135 32.9197 243.038 32.799 242.916C32.6782 242.794 32.5829 242.65 32.5185 242.491C32.4541 242.331 32.4219 242.161 32.4238 241.989V170.836C32.4048 170.653 32.4243 170.468 32.4813 170.294C32.5382 170.119 32.6312 169.958 32.7542 169.822C32.8772 169.685 33.0276 169.576 33.1955 169.501C33.3634 169.427 33.5451 169.388 33.7289 169.388C33.9127 169.388 34.0944 169.427 34.2623 169.501C34.4302 169.576 34.5806 169.685 34.7036 169.822C34.8266 169.958 34.9196 170.119 34.9766 170.294C35.0335 170.468 35.0531 170.653 35.034 170.836V241.989C35.0359 242.162 35.0033 242.334 34.938 242.494C34.8727 242.654 34.7761 242.799 34.6539 242.921C34.5317 243.044 34.3863 243.14 34.2262 243.206C34.0662 243.271 33.8947 243.304 33.7219 243.302Z" fill="#455A64"/>
<path d="M44.4309 249.411C44.2586 249.411 44.088 249.377 43.9288 249.311C43.7696 249.245 43.6249 249.149 43.5031 249.027C43.3812 248.905 43.2846 248.76 43.2186 248.601C43.1527 248.442 43.1187 248.271 43.1187 248.099V176.889C43.0997 176.706 43.1193 176.521 43.1762 176.347C43.2331 176.172 43.3261 176.011 43.4492 175.875C43.5722 175.738 43.7225 175.629 43.8904 175.554C44.0583 175.48 44.2401 175.441 44.4239 175.441C44.6076 175.441 44.7894 175.48 44.9573 175.554C45.1252 175.629 45.2755 175.738 45.3986 175.875C45.5216 176.011 45.6146 176.172 45.6715 176.347C45.7284 176.521 45.748 176.706 45.729 176.889V248.042C45.7365 248.218 45.7087 248.394 45.647 248.559C45.5854 248.723 45.4912 248.874 45.3701 249.002C45.249 249.13 45.1034 249.232 44.9421 249.302C44.7807 249.372 44.6069 249.409 44.4309 249.411Z" fill="#455A64"/>
<path d="M55.1257 255.506C54.9529 255.508 54.7814 255.475 54.6213 255.41C54.4613 255.345 54.3159 255.248 54.1937 255.126C54.0714 255.004 53.9748 254.858 53.9096 254.698C53.8443 254.538 53.8117 254.367 53.8136 254.194V183.041C53.8136 182.693 53.9518 182.359 54.1979 182.113C54.444 181.867 54.7777 181.728 55.1257 181.728C55.4737 181.728 55.8075 181.867 56.0536 182.113C56.2996 182.359 56.4379 182.693 56.4379 183.041V254.194C56.4379 254.542 56.2996 254.876 56.0536 255.122C55.8075 255.368 55.4737 255.506 55.1257 255.506Z" fill="#455A64"/>
<path d="M65.8207 261.616C65.4727 261.616 65.139 261.477 64.8929 261.231C64.6468 260.985 64.5085 260.651 64.5085 260.303V189.15C64.5085 188.802 64.6468 188.468 64.8929 188.222C65.139 187.976 65.4727 187.838 65.8207 187.838C66.1687 187.838 66.5025 187.976 66.7486 188.222C66.9946 188.468 67.1329 188.802 67.1329 189.15V260.303C67.1329 260.651 66.9946 260.985 66.7486 261.231C66.5025 261.477 66.1687 261.616 65.8207 261.616Z" fill="#455A64"/>
<path d="M76.5155 267.711C76.1675 267.711 75.8338 267.572 75.5877 267.326C75.3416 267.08 75.2034 266.747 75.2034 266.399V195.231C75.2034 194.883 75.3416 194.549 75.5877 194.303C75.8338 194.057 76.1675 193.919 76.5155 193.919C76.8636 193.919 77.1973 194.057 77.4434 194.303C77.6895 194.549 77.8277 194.883 77.8277 195.231V266.384C77.8296 266.558 77.797 266.73 77.7319 266.891C77.6668 267.052 77.5704 267.198 77.4484 267.321C77.3264 267.445 77.1811 267.543 77.021 267.609C76.8608 267.676 76.6891 267.711 76.5155 267.711Z" fill="#455A64"/>
<path d="M87.1823 273.82C86.8343 273.82 86.5005 273.682 86.2544 273.436C86.0084 273.19 85.8701 272.856 85.8701 272.508V201.355C85.8701 201.007 86.0084 200.673 86.2544 200.427C86.5005 200.181 86.8343 200.042 87.1823 200.042C87.5303 200.042 87.864 200.181 88.1101 200.427C88.3562 200.673 88.4944 201.007 88.4944 201.355V272.508C88.4944 272.856 88.3562 273.19 88.1101 273.436C87.864 273.682 87.5303 273.82 87.1823 273.82Z" fill="#455A64"/>
<path d="M97.9053 279.887C97.5573 279.887 97.2236 279.749 96.9775 279.503C96.7314 279.257 96.5931 278.923 96.5931 278.575V207.45C96.5931 207.102 96.7314 206.768 96.9775 206.522C97.2236 206.276 97.5573 206.138 97.9053 206.138C98.2533 206.138 98.5871 206.276 98.8332 206.522C99.0792 206.768 99.2175 207.102 99.2175 207.45V278.603C99.2101 278.946 99.0686 279.273 98.8233 279.513C98.578 279.753 98.2485 279.887 97.9053 279.887Z" fill="#455A64"/>
<path d="M108.6 286.025C108.252 286.025 107.918 285.886 107.672 285.64C107.426 285.394 107.288 285.06 107.288 284.712V213.573C107.288 213.225 107.426 212.891 107.672 212.645C107.918 212.399 108.252 212.261 108.6 212.261C108.948 212.261 109.282 212.399 109.528 212.645C109.774 212.891 109.912 213.225 109.912 213.573V284.727C109.909 285.072 109.769 285.402 109.523 285.645C109.277 285.888 108.946 286.025 108.6 286.025Z" fill="#455A64"/>
<path d="M119.295 292.12C118.947 292.12 118.613 291.982 118.367 291.736C118.121 291.49 117.983 291.156 117.983 290.808V219.654C117.983 219.306 118.121 218.973 118.367 218.727C118.613 218.48 118.947 218.342 119.295 218.342C119.643 218.342 119.977 218.48 120.223 218.727C120.469 218.973 120.607 219.306 120.607 219.654V290.808C120.607 291.156 120.469 291.49 120.223 291.736C119.977 291.982 119.643 292.12 119.295 292.12Z" fill="#455A64"/>
<path d="M129.99 298.229C129.642 298.229 129.308 298.091 129.062 297.845C128.816 297.599 128.678 297.265 128.678 296.917V225.764C128.678 225.416 128.816 225.082 129.062 224.836C129.308 224.59 129.642 224.452 129.99 224.452C130.338 224.452 130.672 224.59 130.918 224.836C131.164 225.082 131.302 225.416 131.302 225.764V296.917C131.302 297.265 131.164 297.599 130.918 297.845C130.672 298.091 130.338 298.229 129.99 298.229Z" fill="#455A64"/>
<path d="M140.685 304.324C140.337 304.324 140.003 304.186 139.757 303.94C139.511 303.694 139.373 303.36 139.373 303.012V231.915C139.373 231.567 139.511 231.234 139.757 230.987C140.003 230.741 140.337 230.603 140.685 230.603C141.033 230.603 141.367 230.741 141.613 230.987C141.859 231.234 141.997 231.567 141.997 231.915V303.069C141.986 303.408 141.842 303.73 141.597 303.964C141.352 304.199 141.024 304.328 140.685 304.324Z" fill="#455A64"/>
<path d="M151.38 310.434C151.034 310.43 150.704 310.29 150.461 310.045C150.218 309.799 150.082 309.467 150.082 309.122V237.968C150.063 237.786 150.082 237.601 150.139 237.426C150.196 237.251 150.289 237.09 150.412 236.954C150.535 236.817 150.685 236.708 150.853 236.634C151.021 236.559 151.203 236.52 151.387 236.52C151.571 236.52 151.752 236.559 151.92 236.634C152.088 236.708 152.238 236.817 152.361 236.954C152.484 237.09 152.577 237.251 152.634 237.426C152.691 237.601 152.711 237.786 152.692 237.968V309.122C152.692 309.47 152.554 309.804 152.308 310.05C152.061 310.296 151.728 310.434 151.38 310.434Z" fill="#455A64"/>
<path d="M162.075 310.434C161.729 310.43 161.399 310.29 161.156 310.044C160.913 309.799 160.777 309.467 160.777 309.122V244.063C160.758 243.881 160.777 243.696 160.834 243.521C160.891 243.346 160.984 243.186 161.107 243.049C161.23 242.913 161.38 242.803 161.548 242.729C161.716 242.654 161.898 242.615 162.082 242.615C162.265 242.615 162.447 242.654 162.615 242.729C162.783 242.803 162.933 242.913 163.056 243.049C163.179 243.186 163.272 243.346 163.329 243.521C163.386 243.696 163.406 243.881 163.387 244.063V309.122C163.387 309.47 163.249 309.803 163.002 310.049C162.756 310.296 162.423 310.434 162.075 310.434Z" fill="#455A64"/>
<path d="M172.784 301.263C172.612 301.265 172.442 301.233 172.283 301.168C172.123 301.104 171.979 301.008 171.857 300.888C171.735 300.767 171.638 300.623 171.572 300.465C171.505 300.306 171.471 300.136 171.471 299.965V250.173C171.452 249.99 171.472 249.805 171.529 249.631C171.586 249.456 171.679 249.295 171.802 249.159C171.925 249.022 172.075 248.913 172.243 248.838C172.411 248.763 172.593 248.725 172.777 248.725C172.96 248.725 173.142 248.763 173.31 248.838C173.478 248.913 173.628 249.022 173.751 249.159C173.874 249.295 173.967 249.456 174.024 249.631C174.081 249.805 174.101 249.99 174.082 250.173V299.965C174.082 300.309 173.945 300.639 173.701 300.883C173.458 301.126 173.128 301.263 172.784 301.263Z" fill="#455A64"/>
<path d="M183.478 290.624C183.13 290.624 182.797 290.486 182.551 290.24C182.304 289.994 182.166 289.66 182.166 289.312V256.268C182.147 256.085 182.167 255.901 182.224 255.726C182.281 255.551 182.374 255.39 182.497 255.254C182.62 255.117 182.77 255.008 182.938 254.933C183.106 254.859 183.288 254.82 183.471 254.82C183.655 254.82 183.837 254.859 184.005 254.933C184.173 255.008 184.323 255.117 184.446 255.254C184.569 255.39 184.662 255.551 184.719 255.726C184.776 255.901 184.796 256.085 184.776 256.268V289.312C184.776 289.658 184.64 289.989 184.397 290.235C184.154 290.481 183.824 290.621 183.478 290.624Z" fill="#455A64"/>
<path d="M194.173 280.988C193.825 280.988 193.492 280.849 193.246 280.603C192.999 280.357 192.861 280.023 192.861 279.675V262.377C192.861 262.029 192.999 261.696 193.246 261.45C193.492 261.204 193.825 261.065 194.173 261.065C194.521 261.065 194.855 261.204 195.101 261.45C195.347 261.696 195.486 262.029 195.486 262.377V279.675C195.486 280.023 195.347 280.357 195.101 280.603C194.855 280.849 194.521 280.988 194.173 280.988Z" fill="#455A64"/>
<path d="M194.23 282.201C194 282.204 193.775 282.14 193.581 282.018L19.5279 182.307C19.3642 182.23 19.2183 182.12 19.0993 181.983C18.9804 181.847 18.8908 181.687 18.8364 181.515C18.782 181.342 18.7639 181.16 18.7832 180.98C18.8026 180.8 18.8589 180.626 18.9487 180.469C19.0384 180.312 19.1597 180.175 19.3049 180.067C19.4501 179.959 19.6161 179.883 19.7924 179.842C19.9687 179.801 20.1515 179.797 20.3294 179.831C20.5073 179.864 20.6763 179.934 20.8259 180.035L194.879 279.746C195.18 279.92 195.4 280.207 195.49 280.543C195.58 280.879 195.532 281.237 195.359 281.538C195.246 281.739 195.082 281.906 194.884 282.022C194.686 282.139 194.46 282.201 194.23 282.201Z" fill="#455A64"/>
<path d="M181.898 292.938C181.671 292.935 181.449 292.877 181.249 292.769L21.5455 201.27C21.2724 201.084 21.0794 200.802 21.005 200.48C20.9306 200.159 20.9803 199.821 21.1442 199.534C21.3081 199.247 21.574 199.033 21.889 198.933C22.204 198.834 22.5449 198.857 22.8435 198.998L182.547 290.497C182.804 290.636 183.008 290.857 183.124 291.125C183.24 291.393 183.262 291.692 183.187 291.974C183.112 292.257 182.944 292.505 182.71 292.68C182.476 292.855 182.19 292.946 181.898 292.938Z" fill="#455A64"/>
<path d="M170.427 304.212C170.198 304.211 169.974 304.147 169.778 304.028L22.5755 219.668C22.4257 219.585 22.294 219.472 22.188 219.337C22.0819 219.202 22.0037 219.048 21.9578 218.882C21.9118 218.717 21.8991 218.544 21.9204 218.374C21.9417 218.204 21.9965 218.04 22.0817 217.891C22.2561 217.59 22.5415 217.37 22.8767 217.277C23.2118 217.185 23.5698 217.228 23.8736 217.397L171.133 301.757C171.387 301.9 171.586 302.124 171.699 302.392C171.811 302.661 171.831 302.96 171.755 303.242C171.679 303.523 171.511 303.771 171.279 303.947C171.046 304.123 170.761 304.216 170.47 304.212H170.427Z" fill="#455A64"/>
<path d="M11.401 111.986C10.5324 111.982 9.68927 111.692 9.00301 111.159C8.31675 110.627 7.8259 109.882 7.60691 109.042C7.38791 108.201 7.45307 107.312 7.79225 106.512C8.13143 105.713 8.72557 105.048 9.48212 104.621L74.1876 68.3457C75.0925 67.89 76.1382 67.8008 77.1073 68.0965C78.0763 68.3923 78.8939 69.0503 79.3901 69.9336C79.8863 70.817 80.0228 71.8576 79.7713 72.839C79.5197 73.8204 78.8994 74.6671 78.0394 75.2028L13.3199 111.478C12.7339 111.808 12.0734 111.983 11.401 111.986Z" fill="#459AC3"/>
<path d="M3.93709 114.892C3.35761 114.891 2.79482 114.698 2.33653 114.344C1.87823 113.989 1.55021 113.493 1.40361 112.932C1.257 112.371 1.30009 111.778 1.52613 111.244C1.75216 110.711 2.14843 110.267 2.65314 109.982L9.04467 106.399C9.346 106.202 9.68453 106.07 10.0392 106.009C10.3939 105.949 10.7572 105.963 11.1065 106.049C11.4557 106.135 11.7836 106.292 12.0696 106.51C12.3557 106.728 12.5938 107.003 12.7693 107.317C12.9447 107.631 13.0538 107.978 13.0895 108.336C13.1253 108.694 13.0872 109.055 12.9774 109.398C12.8676 109.74 12.6885 110.057 12.4513 110.327C12.2141 110.598 11.9238 110.816 11.5985 110.97L5.22105 114.554C4.82869 114.774 4.38686 114.89 3.93709 114.892Z" fill="#455A64"/>
</svg>
