<svg width="371" height="457" viewBox="0 0 371 457" fill="none" xmlns="http://www.w3.org/2000/svg">
<path d="M189.998 129.027C189.998 78.7806 161.897 33.6582 124.655 12.1634C105.93 1.34681 89.5322 -0.841449 77.8292 6.02801L46.418 24.0326C45.8502 24.3512 45.2823 24.6836 44.7284 25.0437L45.0746 24.8082L44.5622 25.1129C33.5655 32.2178 26.973 47.7018 26.973 72.0358C26.973 122.753 55.088 167.391 92.3299 188.9C111.041 199.702 127.439 202.002 139.142 195.187L170.747 177.114C171.107 176.92 171.467 176.712 171.827 176.49L172.381 176.172C183.406 169.081 189.998 153.569 189.998 129.027Z" fill="#A588F0"/>
<path opacity="0.5" d="M136.324 193.747C163.023 179.753 164.973 130.832 140.678 84.4783C116.383 38.1248 75.0437 11.8922 48.344 25.886C21.6444 39.8799 19.6949 88.8011 43.9897 135.155C68.2846 181.508 109.624 207.741 136.324 193.747Z" fill="white"/>
<path d="M107.8 118.723C107.8 91.5362 100.072 78.9607 92.3296 74.4872C84.5876 70.0138 76.8733 73.6839 76.8733 100.802C76.8733 127.919 84.6014 140.564 92.3296 145.038C100.058 149.511 107.8 145.91 107.8 118.723Z" fill="#A588F0"/>
<path opacity="0.3" d="M107.8 118.723C107.8 91.5362 100.072 78.9607 92.3296 74.4872C84.5876 70.0138 76.8733 73.6839 76.8733 100.802C76.8733 127.919 84.6014 140.564 92.3296 145.038C100.058 149.511 107.8 145.91 107.8 118.723Z" fill="black"/>
<path d="M371 366.675C371 316.359 342.885 271.319 305.629 249.811C286.918 239.008 270.507 236.806 258.817 243.675L227.42 261.68C226.838 261.985 226.271 262.317 225.717 262.677L226.063 262.455L225.55 262.746C214.554 269.837 207.961 285.321 207.961 309.655C207.961 360.373 236.076 405.011 273.318 426.519C292.029 437.322 308.427 439.621 320.13 432.821L351.791 414.747L352.871 414.124L353.425 413.805C364.394 406.728 371 391.23 371 366.675Z" fill="#A588F0"/>
<path opacity="0.5" d="M317.3 431.416C344 417.422 345.95 368.501 321.655 322.147C297.36 275.794 256.021 249.561 229.321 263.555C202.621 277.549 200.672 326.47 224.967 372.823C249.262 419.177 290.601 445.409 317.3 431.416Z" fill="white"/>
<path d="M288.788 356.37C288.788 329.183 281.06 316.608 273.318 312.148C265.576 307.689 257.862 311.331 257.862 338.463C257.862 365.594 265.59 378.239 273.318 382.699C281.046 387.158 288.788 383.571 288.788 356.37Z" fill="#A588F0"/>
<path opacity="0.3" d="M288.788 356.37C288.788 329.183 281.06 316.608 273.318 312.148C265.576 307.689 257.862 311.331 257.862 338.463C257.862 365.594 265.59 378.239 273.318 382.699C281.046 387.158 288.788 383.571 288.788 356.37Z" fill="black"/>
<path d="M269.08 99.6106L236.769 118.114L68.7853 305.182L128.187 339.474L160.484 320.957L328.467 133.889L269.08 99.6106Z" fill="#A588F0"/>
<path opacity="0.3" d="M296.156 152.406L128.187 339.474L160.484 320.957L328.467 133.889L296.156 152.406Z" fill="black"/>
<path opacity="0.5" d="M236.769 118.114L296.156 152.406L128.187 339.474L68.7853 305.182L236.769 118.114Z" fill="white"/>
</svg>
