<svg width="267" height="414" viewBox="0 0 267 414" fill="none" xmlns="http://www.w3.org/2000/svg">
<path d="M82.1678 248.073C81.7038 247.805 81.1774 247.664 80.6416 247.664C80.1057 247.664 79.5793 247.805 79.1153 248.073L57.9002 260.283V12.647C57.9006 11.4897 58.2055 10.353 58.7843 9.3509C59.3631 8.34883 60.1955 7.51676 61.1978 6.93829C62.2001 6.35981 63.3369 6.05531 64.4942 6.05539C65.6514 6.05547 66.7883 6.36013 67.7905 6.93875L70.843 1.6884C68.9185 0.580864 66.7367 -0.00138989 64.5163 2.49142e-06C62.2958 0.00139488 60.1148 0.586393 58.1917 1.69634C56.2686 2.8063 54.671 4.40221 53.5591 6.32416C52.4472 8.2461 51.8599 10.4266 51.8563 12.647V263.824L32.2132 275.179C31.7519 275.446 31.3683 275.828 31.1005 276.289C30.8328 276.749 30.6902 277.272 30.687 277.805V306.3C30.7136 306.565 30.8094 306.819 30.9647 307.036C31.12 307.253 31.3295 307.426 31.5722 307.536C32.2362 307.875 32.9711 308.052 33.7166 308.052C34.4621 308.052 35.197 307.875 35.861 307.536C36.1066 307.428 36.3192 307.256 36.4773 307.039C36.6354 306.822 36.7334 306.567 36.7615 306.3V279.56L77.6195 255.933V279.133C77.6462 279.398 77.742 279.652 77.8973 279.869C78.0526 280.086 78.2621 280.258 78.5048 280.369C79.1688 280.708 79.9037 280.885 80.6492 280.885C81.3947 280.885 82.1296 280.708 82.7936 280.369C83.0363 280.258 83.2458 280.086 83.4011 279.869C83.5564 279.652 83.6522 279.398 83.6788 279.133V250.698C83.6772 250.167 83.5369 249.645 83.2719 249.185C83.0069 248.725 82.6263 248.341 82.1678 248.073Z" fill="#F0F0F0"/>
<path d="M70.8191 1.69472L67.7894 6.9422L231.307 101.349L234.337 96.1017L70.8191 1.69472Z" fill="#F0F0F0"/>
<path d="M118.447 240.274C113.868 241.617 110.923 250.164 108.343 258.589C106.161 265.61 98.6514 273.684 83.2514 282.582C67.8514 291.48 64.5089 290.549 61.6243 285.558C58.7397 280.567 57.305 272.447 51.9936 276.797C51.9936 276.797 53.5198 264.343 82.7783 247.447C112.037 230.552 118.447 240.274 118.447 240.274Z" fill="#263238"/>
<path d="M100.834 36.9146L114.571 36.8077C114.571 36.8077 114.326 56.7712 113.35 71.9118C112.373 87.0523 109.854 109.672 108.389 112.739C107.299 114.752 105.665 116.418 103.673 117.547L65.9744 139.312C65.9744 139.312 62.9218 141.616 61.3956 140.09C59.5488 138.289 58.4651 124.659 58.5567 104.391C58.6483 84.1219 58.5567 68.783 58.5567 68.783L70.6295 54.4361L100.834 36.9146Z" fill="#7995F0"/>
<path d="M100.834 36.9146L114.571 36.8077C114.571 36.8077 114.326 56.7712 113.35 71.9118C112.373 87.0523 109.854 109.672 108.389 112.739C107.299 114.752 105.665 116.418 103.673 117.547L65.9744 139.312C65.9744 139.312 62.9218 141.616 61.3956 140.09C59.5488 138.289 58.4651 124.659 58.5567 104.391C58.6483 84.1219 58.5567 68.783 58.5567 68.783L70.6295 54.4361L100.834 36.9146Z" fill="#455A64"/>
<path opacity="0.1" d="M100.208 119.485L103.612 117.517C105.601 116.392 107.236 114.731 108.328 112.724C109.854 109.672 112.312 87.0218 113.288 71.8965C114.265 56.7713 114.494 36.7925 114.494 36.7925H104.818C105.092 58.6638 102.772 105.2 100.208 119.485Z" fill="black"/>
<path opacity="0.1" d="M61.2883 140.075C62.8146 141.601 65.8671 139.281 65.8671 139.281L71.0716 136.229C68.5075 124.919 66.1876 81.283 66.4929 59.1217L58.4036 68.7066C58.4036 68.7066 58.4799 83.9692 58.4036 104.33C58.3273 124.69 59.4263 138.274 61.2883 140.075Z" fill="black"/>
<path d="M103.612 121.347C107.092 124.644 112.281 134.809 113.044 148.82C113.807 162.831 118.874 240.503 118.874 240.503C118.874 240.503 113.365 240.594 109.931 248.516C106.496 256.437 99.5062 266.831 83.1141 276.324C66.722 285.818 63.8679 281.04 61.7464 277.988C59.6249 274.935 56.9082 273.409 52.4057 276.965C52.4057 276.965 55.8245 198.592 56.9845 179.193C58.1445 159.794 62.6469 147.004 65.8979 143.081L103.612 121.347Z" fill="#455A64"/>
<path d="M110.755 98.7282C111.136 102.742 111.503 106.634 111.701 108.435C112.174 113.014 114.494 110.404 114.494 110.404C119.714 97.4462 129.345 96.3473 129.345 96.3473C129.345 96.3473 125.59 72.9802 123.835 58.8928C122.079 44.8054 121.759 36.6398 114.494 36.8382C114.494 36.8382 114.25 56.7865 113.288 71.9423C112.754 80.062 111.792 90.4101 110.755 98.7282Z" fill="#37474F"/>
<path d="M114.128 107.672C122.156 96.2557 129.39 95.2636 129.39 95.2636C129.39 95.2636 131.176 94.6226 131.542 96.973C131.863 98.9572 132.626 107.275 132.107 108.71C131.588 110.145 129.192 113.426 122.843 118.005C116.493 122.584 112.952 123.377 112.815 120.752C112.678 118.127 111.625 114.784 111.853 113.121C112.226 111.167 113.001 109.311 114.128 107.672Z" fill="#263238"/>
<path d="M130.917 106.588C130.444 105.062 114.616 117.486 114.845 119.73C115.074 121.973 131.939 109.259 130.917 106.588Z" fill="black"/>
<path d="M42.3934 143.814C42.3934 143.814 51.2 137.037 56.1298 144.257C56.1298 144.257 58.4345 144.257 59.0145 139.113C59.1518 137.984 59.3502 136.167 59.5639 134.046C58.5679 124.194 58.1652 114.291 58.3581 104.391C58.4344 84.1066 58.3581 68.7677 58.3581 68.7677C51.0321 76.7653 49.8874 86.396 47.7964 102.666C45.7054 118.936 42.3934 143.814 42.3934 143.814Z" fill="#37474F"/>
<path d="M57.9916 142.456C46.8041 138.06 42.4085 143.799 42.4085 143.799C41.0463 144.873 40.0625 146.354 39.6002 148.027C39.1345 151.568 38.9508 155.14 39.0507 158.71C39.1728 160.908 40.6838 162.083 45.0489 161.549C50.0856 160.954 56.5417 158.1 57.3811 154.727C58.006 152.405 58.3543 150.018 58.419 147.614C58.709 143.646 59.0753 143.112 57.9916 142.456Z" fill="#263238"/>
<path d="M40.3635 157.81C40.5924 155.002 55.2293 151.552 55.2903 154.956C55.3514 158.359 39.7987 162.831 40.3635 157.81Z" fill="black"/>
<path opacity="0.1" d="M52.4362 276.996C56.9387 273.394 59.6707 274.951 61.777 278.018C62.5716 279.429 63.7523 280.583 65.1805 281.346C65.1805 253.476 65.0737 212.664 65.2569 196.638C65.5163 171.455 66.7831 152.376 73.5445 138.762L65.9131 143.188C62.6622 147.111 58.1445 159.901 56.9998 179.3C55.8551 198.698 52.4362 276.996 52.4362 276.996Z" fill="black"/>
<path opacity="0.1" d="M104.619 169.837C105.123 183.787 106.603 219.807 107.473 253.446C108.38 251.858 109.2 250.222 109.93 248.546C113.364 240.625 118.874 240.533 118.874 240.533C118.874 240.533 113.807 162.877 113.044 148.851C112.281 134.824 107.092 124.644 103.612 121.378L95.2325 126.201C102.101 131.787 103.612 141.25 104.619 169.837Z" fill="black"/>
<path d="M107.732 67.333L93.0803 75.1322L92.6682 89.8759C92.6682 90.9443 93.0803 91.6921 93.8129 91.7837L98.7428 92.4858C99.1678 92.4859 99.5863 92.3815 99.9616 92.1819C100.337 91.9823 100.657 91.6936 100.895 91.3411L106.023 85.2361C106.787 84.3276 107.241 83.1997 107.32 82.0156L107.732 67.333Z" fill="#37474F"/>
<path d="M107.733 67.333C107.733 67.333 106.573 74.7354 100.208 78.1237C93.8437 81.512 93.0806 75.0711 93.0806 75.0711L107.733 67.333Z" fill="#263238"/>
<path d="M63.5931 92.8216L78.23 83.664L78.6573 97.9193C78.6388 99.101 78.2311 100.244 77.4974 101.17L72.5828 107.55C72.3397 107.917 72.0202 108.227 71.6461 108.459C71.272 108.691 70.8522 108.839 70.4155 108.893L65.2873 108.802C64.5241 108.802 64.0205 108.115 63.9899 107.077L63.5931 92.8216Z" fill="#37474F"/>
<path d="M63.5931 92.8216C63.5931 92.8216 64.7531 98.9266 71.1023 94.9278C73.0111 93.6628 74.6322 92.0102 75.8602 90.0775C77.0882 88.1447 77.8957 85.9752 78.23 83.7098L63.5931 92.8216Z" fill="#263238"/>
<path opacity="0.1" d="M87.8913 126.613L83.4194 129.192V46.9574L87.8913 44.378V126.613Z" fill="black"/>
<path opacity="0.1" d="M87.8913 272.844C86.4871 273.791 84.9914 274.722 83.4194 275.653V133.008L87.8913 130.429V272.844Z" fill="black"/>
<path d="M85.6629 53.0472C85.6629 53.0472 86.8686 58.3128 90.608 56.4965C94.3473 54.6803 98.4377 44.4543 99.674 40.9592C101.093 36.9604 101.093 36.3804 100.284 34.7473C99.2831 33.3074 98.0135 32.074 96.5452 31.1148C97.0183 31.5269 96.5452 33.6942 95.3547 37.6472C93.5232 43.3859 88.2881 51.5362 85.6629 53.0472Z" fill="#37474F"/>
<path d="M85.6629 53.0472C85.6629 53.0472 84.4571 59.7017 80.7178 62.2048C76.9785 64.7078 72.8881 59.1522 71.6518 57.1376C70.2324 54.7718 70.2324 54.2071 71.0413 51.6277C72.1018 48.8936 73.3513 46.2366 74.7807 43.6759C74.3075 44.6375 74.7043 46.3469 75.9711 48.8347C77.8027 52.4672 83.0378 54.5582 85.6629 53.0472Z" fill="#37474F"/>
<path d="M85.6475 53.0472C83.0223 54.5734 77.7719 52.4824 75.9557 48.8499C74.1394 45.2174 74.1242 43.218 75.9557 42.8823C79.3941 42.6054 82.7168 41.5118 85.6475 39.6924C89.2671 37.5239 92.5395 34.8227 95.3545 31.6795C97.186 29.909 97.186 31.9084 95.3545 37.6472C93.523 43.3859 88.2726 51.5362 85.6475 53.0472Z" fill="#263238"/>
<path d="M75.4521 47.7053C75.5993 48.0906 75.7674 48.4676 75.9557 48.8347C76.1414 49.2086 76.3666 49.5617 76.6273 49.8878L83.2665 40.9592L85.0828 38.5172C85.9222 37.3572 86.7922 36.9909 87.2654 36.9909L89.1732 37.3572L95.0493 38.5019C95.1713 38.2194 95.2733 37.9287 95.3546 37.6319C95.5225 37.174 95.6445 36.7314 95.7514 36.3346L91.4626 35.5257L87.6927 34.7778H87.2196C87.2196 30.8706 86.9754 28.2607 83.9839 27.2381C81.9234 26.536 81.2671 23.4682 82.2439 19.2557C83.2665 14.6769 86.8227 11.8381 88.7 12.0212C90.2263 12.2044 90.4094 14.8906 90.4094 16.0506C90.4094 16.3784 90.5397 16.6929 90.7715 16.9247C91.0034 17.1566 91.3178 17.2868 91.6457 17.2868C91.8067 17.2869 91.966 17.2547 92.1143 17.1922C92.2627 17.1297 92.3969 17.0382 92.5093 16.923C92.6217 16.8077 92.7099 16.6712 92.7686 16.5214C92.8274 16.3715 92.8556 16.2115 92.8515 16.0506C92.8515 10.6018 90.15 9.70131 88.9595 9.56394C85.3423 9.19764 81.0382 13.517 79.8019 18.7215C77.9094 27.0702 81.8777 29.1459 83.1445 29.5733C84.4113 30.0006 84.7623 31.0995 84.7623 35.6783H84.6707C84.1254 36.1148 83.6471 36.629 83.2513 37.2046L79.4051 42.3939L75.4521 47.7053Z" fill="#7995F0"/>
<path d="M103.612 117.532V121.347C92.3902 130.716 79.6371 138.078 65.9131 143.112V139.296L103.612 117.532Z" fill="#263238"/>
<path d="M96.942 120.523C99.4603 114.143 104.573 99.2777 105.382 85.6787L111.365 77.6047L113.136 75.2238C112.937 89.0975 120.767 86.7928 126.139 82.6567C132.077 78.0779 135.755 72.4765 136.457 66.4325C137.159 60.3885 138.121 60.0069 138.121 60.0069L142.699 60.8769C142.699 60.8769 143.829 94.9431 142.699 103.139C141.57 111.335 125.544 126.72 116.036 121.836C114.368 120.796 113.091 119.235 112.403 117.394C112.165 116.849 111.763 116.391 111.252 116.084C110.742 115.777 110.149 115.636 109.555 115.682C108.961 115.727 108.397 115.956 107.939 116.336C107.481 116.717 107.153 117.231 107 117.806C105.199 124.324 99.2008 129.833 96.942 130.017C94.6831 130.2 94.1489 127.59 96.942 120.523Z" fill="#7995F0"/>
<path d="M164.784 67.7451C164.73 67.0622 164.46 66.4142 164.013 65.8955C163.565 65.3767 162.964 65.0141 162.296 64.8604L128.52 58.3586C128.363 58.343 128.204 58.343 128.047 58.3586C128.047 54.4513 127.803 51.8414 124.796 50.7272C122.766 50.0252 122.095 46.9726 123.056 42.7601C124.094 38.1814 127.635 35.3272 129.512 35.5256C131.039 35.6935 131.222 38.395 131.222 39.555C131.222 39.8829 131.352 40.1973 131.584 40.4292C131.816 40.661 132.13 40.7913 132.458 40.7913C132.786 40.7913 133.1 40.661 133.332 40.4292C133.564 40.1973 133.694 39.8829 133.694 39.555C133.694 34.091 130.962 33.2057 129.787 33.0684C126.17 32.7021 121.85 37.0214 120.629 42.226C118.706 50.5746 122.705 52.6503 123.972 53.0777C125.239 53.505 125.498 54.6955 125.498 59.1827H125.422C124.873 59.6197 124.389 60.1337 123.987 60.709L90.3178 106.207C88.181 109.092 87.7842 112.922 89.4478 114.785C89.7015 115.083 90.0174 115.322 90.3733 115.486C90.7293 115.649 91.1166 115.733 91.5083 115.731C92.1937 115.708 92.8615 115.508 93.4467 115.151L160.984 76.1548C162.322 75.2309 163.383 73.9597 164.052 72.4779C164.722 70.9962 164.975 69.3599 164.784 67.7451ZM159.915 74.2012L92.302 113.197C91.4778 113.67 91.2336 113.38 91.1267 113.274C90.4094 112.465 90.4399 109.839 92.1341 107.565L125.895 62.0979C126.75 60.9532 127.635 60.5716 128.093 60.5716L161.869 67.0735C162.22 67.0735 162.449 67.4856 162.556 68.1114C162.674 69.2675 162.493 70.4346 162.03 71.5008C161.568 72.567 160.84 73.4968 159.915 74.2012Z" fill="#263238"/>
<path d="M169.195 212.481C169.195 212.481 165.746 183.558 161.182 162.114C158.435 149.232 156.42 139.357 156.298 126.155C156.085 103.612 155.077 96.4693 155.077 96.4693C151.611 92.4969 148.901 87.9243 147.08 82.9772C143.63 73.3617 145.019 61.3348 145.019 61.3348L138.12 60.0069C139.097 66.9209 138.12 78.9021 137.693 88.4259C137.266 97.9498 134.488 109.473 126.002 114.205C117.516 118.936 116.234 110.099 115.41 101.598C114.585 93.0963 114.601 86.4876 113.883 74.1249L106.985 83.4656C107.763 91.6448 107.465 99.8908 106.099 107.993C104.039 119.653 103.169 126.46 97.8119 129.65C97.5908 129.8 97.3413 129.904 97.0788 129.954C96.8163 130.003 96.5463 129.999 96.2856 129.94C95.6751 129.788 94.8662 129.223 94.9883 127.239C94.6754 132.688 94.6754 138.151 94.9883 143.6C95.6751 157.26 88.6238 233.818 85.1897 264.419C84.5944 271.852 84.2434 276.721 84.2434 276.721C86.721 277.832 89.2705 278.776 91.8747 279.545C95.492 280.384 97.4303 274.783 97.4303 274.783C98.7142 275.347 100.157 275.438 101.501 275.038C102.846 274.638 104.005 273.774 104.772 272.6C104.772 272.6 105.336 277.301 107.824 278.507C110.312 279.713 113.929 275.317 118.722 273.424C122.766 271.806 128.108 270.753 130.779 268.937C132.485 267.556 133.581 265.562 133.832 263.381C133.832 263.381 135.007 264.465 138.624 262.664C139.743 262.046 140.725 261.208 141.511 260.201C142.298 259.194 142.873 258.038 143.203 256.803C143.203 256.803 149.476 253.476 151.765 250.408C153.152 248.235 153.695 245.629 153.292 243.082C154.719 242.706 155.996 241.899 156.949 240.771C157.903 239.643 158.485 238.249 158.618 236.779C158.618 236.779 162.037 235.39 165.09 234.215C168.142 233.039 170.554 226.583 170.554 226.583C170.554 226.583 170.096 220.829 169.195 212.481Z" fill="#7995F0"/>
<path opacity="0.5" d="M169.195 212.481C169.195 212.481 165.746 183.558 161.182 162.114C158.435 149.232 156.42 139.357 156.298 126.155C156.085 103.612 155.077 96.4693 155.077 96.4693C151.611 92.4969 148.901 87.9243 147.08 82.9772C143.63 73.3617 145.019 61.3348 145.019 61.3348L138.12 60.0069C139.097 66.9209 138.12 78.9021 137.693 88.4259C137.266 97.9498 134.488 109.473 126.002 114.205C117.516 118.936 116.234 110.099 115.41 101.598C114.585 93.0963 114.601 86.4876 113.883 74.1249L106.985 83.4656C107.763 91.6448 107.465 99.8908 106.099 107.993C104.039 119.653 103.169 126.46 97.8119 129.65C97.5908 129.8 97.3413 129.904 97.0788 129.954C96.8163 130.003 96.5463 129.999 96.2856 129.94C95.6751 129.788 94.8662 129.223 94.9883 127.239C94.6754 132.688 94.6754 138.151 94.9883 143.6C95.6751 157.26 88.6238 233.818 85.1897 264.419C84.5944 271.852 84.2434 276.721 84.2434 276.721C86.721 277.832 89.2705 278.776 91.8747 279.545C95.492 280.384 97.4303 274.783 97.4303 274.783C98.7142 275.347 100.157 275.438 101.501 275.038C102.846 274.638 104.005 273.774 104.772 272.6C104.772 272.6 105.336 277.301 107.824 278.507C110.312 279.713 113.929 275.317 118.722 273.424C122.766 271.806 128.108 270.753 130.779 268.937C132.485 267.556 133.581 265.562 133.832 263.381C133.832 263.381 135.007 264.465 138.624 262.664C139.743 262.046 140.725 261.208 141.511 260.201C142.298 259.194 142.873 258.038 143.203 256.803C143.203 256.803 149.476 253.476 151.765 250.408C153.152 248.235 153.695 245.629 153.292 243.082C154.719 242.706 155.996 241.899 156.949 240.771C157.903 239.643 158.485 238.249 158.618 236.779C158.618 236.779 162.037 235.39 165.09 234.215C168.142 233.039 170.554 226.583 170.554 226.583C170.554 226.583 170.096 220.829 169.195 212.481Z" fill="white"/>
<path d="M127.452 122.538C127.452 123.652 128.032 124.202 128.765 123.789C129.179 123.46 129.512 123.039 129.737 122.56C129.962 122.081 130.073 121.556 130.062 121.027C130.062 119.913 129.482 119.348 128.765 119.76C128.345 120.089 128.008 120.512 127.78 120.994C127.553 121.476 127.44 122.005 127.452 122.538Z" fill="#37474F"/>
<path d="M127.452 131.283C127.452 132.398 128.032 132.962 128.765 132.535C129.179 132.206 129.512 131.785 129.737 131.306C129.962 130.826 130.073 130.302 130.062 129.772C130.062 128.658 129.482 128.094 128.765 128.506C128.346 128.836 128.01 129.258 127.782 129.74C127.554 130.222 127.441 130.75 127.452 131.283Z" fill="#37474F"/>
<path d="M127.452 140.029C127.452 141.143 128.032 141.708 128.765 141.296C129.178 140.962 129.509 140.538 129.734 140.057C129.959 139.575 130.071 139.049 130.062 138.518C130.062 137.404 129.482 136.839 128.765 137.266C128.346 137.592 128.009 138.012 127.781 138.492C127.553 138.972 127.44 139.498 127.452 140.029Z" fill="#37474F"/>
<path opacity="0.5" d="M104.879 272.722C104.112 273.896 102.953 274.76 101.608 275.16C100.264 275.56 98.8212 275.469 97.5373 274.905C97.5373 274.905 95.5989 280.506 91.9817 279.667C89.3774 278.898 86.8279 277.954 84.3503 276.843C84.3503 276.843 84.7014 271.974 85.2966 264.541C88.1244 265.554 91.0586 266.24 94.0421 266.587C97.7052 266.724 97.5526 262.298 97.5526 262.298C102.818 264.45 105.367 259.123 105.367 259.123C107.214 261.687 111.06 260.833 115.654 257.261C120.248 253.69 127.635 254.209 130.321 251.736C133.008 249.264 134.015 244.41 134.015 244.41C134.901 244.662 135.834 244.705 136.74 244.536C137.646 244.366 138.5 243.989 139.235 243.433C141.163 241.883 142.522 239.735 143.096 237.328C145.548 237.218 147.879 236.235 149.668 234.555C151.457 232.875 152.585 230.61 152.849 228.171C154.099 227.583 155.197 226.713 156.055 225.63C156.913 224.547 157.508 223.28 157.794 221.928C157.794 221.928 163.899 220.402 169.256 212.572C170.157 220.936 170.783 226.751 170.783 226.751C170.783 226.751 168.356 233.177 165.319 234.382C162.281 235.588 158.847 236.947 158.847 236.947C158.714 238.417 158.132 239.811 157.179 240.939C156.226 242.067 154.948 242.874 153.521 243.25C153.924 245.797 153.381 248.403 151.994 250.576C149.705 253.629 143.432 256.971 143.432 256.971C143.103 258.206 142.527 259.362 141.74 260.369C140.954 261.376 139.972 262.214 138.853 262.832C135.236 264.633 134.061 263.549 134.061 263.549C133.81 265.729 132.714 267.724 131.008 269.105C128.337 270.921 122.995 271.974 118.951 273.592C114.174 275.485 110.602 279.88 108.053 278.675C105.504 277.469 104.879 272.722 104.879 272.722Z" fill="#7995F0"/>
<path opacity="0.1" d="M151.491 160.084C151.491 160.084 156.39 188.473 161.274 235.802L158.725 236.825C158.557 229.193 155.841 190.899 151.491 160.084Z" fill="black"/>
<path opacity="0.1" d="M155.84 241.937C155.104 242.477 154.277 242.88 153.398 243.128C153.536 236.565 151.765 207.81 148.301 180.154C148.301 180.154 151.475 190.167 155.84 241.937Z" fill="black"/>
<path opacity="0.1" d="M140.364 153.567C143.92 199.858 146.393 250.53 145.92 255.323C144.393 256.254 143.31 256.849 143.31 256.849C143.127 243.937 143.218 210.909 140.364 153.567Z" fill="black"/>
<path opacity="0.1" d="M133.969 213.503C133.969 200.789 132.931 182.047 132.931 182.047C132.931 182.047 135.434 203.17 136.106 229.468C136.518 245.463 136.106 257.063 135.739 263.717C135.134 263.854 134.499 263.75 133.969 263.427C134.427 254.957 133.969 226.232 133.969 213.503Z" fill="black"/>
<path opacity="0.1" d="M117.592 179.62C117.592 190.472 117.272 192.38 117.318 206.208C117.363 220.036 117.409 260.39 116.554 266.175C116.554 266.175 115.868 237.801 115.669 223.867C115.471 209.932 116.142 199.065 117.592 179.62Z" fill="black"/>
<path opacity="0.1" d="M109.549 178.216C107.213 201.11 105.764 234.367 104.878 272.646L109.549 178.216Z" fill="black"/>
<path opacity="0.1" d="M95.675 278.079C95.675 264.862 96.0718 244.578 97.476 229.071C99.0022 212.404 100.528 194.929 100.528 194.929C100.528 194.929 99.9638 213.625 98.6512 229.3C97.3386 244.975 97.537 268.098 97.6133 274.828C97.1511 276.012 96.4961 277.11 95.675 278.079Z" fill="black"/>
<path d="M145.98 107.062V116.219C145.98 129.543 155.016 135.145 166.142 128.719C177.284 122.294 186.32 106.268 186.32 92.9284L186.136 84.4882C175.819 107.214 154.772 118.676 145.98 107.062Z" fill="#263238"/>
<path d="M204.437 90.6085C204.383 89.9256 204.112 89.2777 203.665 88.7589C203.218 88.2401 202.616 87.8776 201.949 87.7239L168.173 81.222C168.015 81.2068 167.857 81.2068 167.699 81.222C167.699 77.3148 167.455 74.7048 164.449 73.5907C162.419 72.8886 161.747 69.8361 162.709 65.6236C163.746 61.0448 167.287 58.1907 169.165 58.3738C170.691 58.557 170.874 61.2585 170.874 62.4032C170.874 62.731 171.004 63.0455 171.236 63.2773C171.468 63.5092 171.782 63.6394 172.11 63.6394C172.438 63.6394 172.753 63.5092 172.985 63.2773C173.216 63.0455 173.347 62.731 173.347 62.4032C173.347 56.9544 170.615 56.0539 169.439 55.9165C165.822 55.5655 161.503 59.8848 160.282 65.0741C158.359 73.4075 162.342 75.4832 163.609 75.9258C164.876 76.3685 165.212 77.5437 165.212 82.0309H165.135C164.586 82.4678 164.103 82.9819 163.701 83.5572L129.924 129.055C127.803 131.924 127.406 135.771 129.055 137.633C129.313 137.929 129.632 138.165 129.99 138.326C130.349 138.487 130.738 138.568 131.13 138.564C131.81 138.549 132.473 138.354 133.053 137.999L200.606 99.0029C201.947 98.084 203.012 96.8169 203.687 95.3379C204.362 93.8588 204.621 92.2238 204.437 90.6085ZM199.507 97.0493L131.954 136.045C131.13 136.534 130.871 136.244 130.779 136.137C130.062 135.328 130.092 132.703 131.771 130.429L165.547 84.9919C166.402 83.8624 167.287 83.4656 167.745 83.4656L201.521 89.9675C201.873 89.9675 202.101 90.3796 202.208 91.0053C202.315 92.16 202.123 93.3228 201.65 94.3815C201.177 95.4402 200.439 96.359 199.507 97.0493Z" fill="#7995F0"/>
<path opacity="0.25" d="M204.437 90.6085C204.383 89.9256 204.112 89.2777 203.665 88.7589C203.218 88.2401 202.616 87.8776 201.949 87.7239L168.173 81.222C168.015 81.2068 167.857 81.2068 167.699 81.222C167.699 77.3148 167.455 74.7048 164.449 73.5907C162.419 72.8886 161.747 69.8361 162.709 65.6236C163.746 61.0448 167.287 58.1907 169.165 58.3738C170.691 58.557 170.874 61.2585 170.874 62.4032C170.874 62.731 171.004 63.0455 171.236 63.2773C171.468 63.5092 171.782 63.6394 172.11 63.6394C172.438 63.6394 172.753 63.5092 172.985 63.2773C173.216 63.0455 173.347 62.731 173.347 62.4032C173.347 56.9544 170.615 56.0539 169.439 55.9165C165.822 55.5655 161.503 59.8848 160.282 65.0741C158.359 73.4075 162.342 75.4832 163.609 75.9258C164.876 76.3685 165.212 77.5437 165.212 82.0309H165.135C164.586 82.4678 164.103 82.9819 163.701 83.5572L129.924 129.055C127.803 131.924 127.406 135.771 129.055 137.633C129.313 137.929 129.632 138.165 129.99 138.326C130.349 138.487 130.738 138.568 131.13 138.564C131.81 138.549 132.473 138.354 133.053 137.999L200.606 99.0029C201.947 98.084 203.012 96.8169 203.687 95.3379C204.362 93.8588 204.621 92.2238 204.437 90.6085ZM199.507 97.0493L131.954 136.045C131.13 136.534 130.871 136.244 130.779 136.137C130.062 135.328 130.092 132.703 131.771 130.429L165.547 84.9919C166.402 83.8624 167.287 83.4656 167.745 83.4656L201.521 89.9675C201.873 89.9675 202.101 90.3796 202.208 91.0053C202.315 92.16 202.123 93.3228 201.65 94.3815C201.177 95.4402 200.439 96.359 199.507 97.0493Z" fill="black"/>
<path d="M186.136 84.5645C186.136 84.5645 189.967 85.175 192.623 85.755C191.49 92.3947 190.761 99.0972 190.441 105.825C190.441 112.77 191.295 121.012 188.075 132.627C184.854 144.241 183.496 159.641 186.716 168.57C192.259 183.556 195.116 199.402 195.157 215.381C195.37 237.862 193.264 302.973 193.264 302.973C193.264 310.161 136.869 337.161 136.869 329.972C136.869 329.972 137.662 272.463 137.449 247.417C137.235 222.371 142.302 204.178 144.225 194.104C146.148 184.031 146.072 167.242 142.882 159.596C139.692 151.949 140.455 145.737 141.096 135.603C141.423 129.158 140.722 122.703 139.021 116.479C140.99 113.084 143.341 109.924 146.026 107.062C146.026 107.062 147.385 135.572 164.631 125.606C181.878 115.639 186.136 84.5645 186.136 84.5645Z" fill="#455A64"/>
<path d="M188.64 208.741C188.64 208.741 191.692 236.443 175.316 261.626C175.316 261.626 184.336 243.403 188.64 208.741Z" fill="#263238"/>
<path d="M137.433 263.259C138.395 277.805 146.286 303.186 152.772 306.758C152.772 306.758 143.218 305.735 137.311 285.009C137.311 276.935 137.311 271.913 137.433 263.259Z" fill="#263238"/>
<path d="M185.236 202.316C175.88 225.057 166.662 269.838 163.426 295.418C160.19 320.998 157.641 356.728 157.641 356.728C160.112 357.855 162.663 358.799 165.273 359.551C168.89 360.391 170.828 354.805 170.828 354.805C172.113 355.366 173.554 355.455 174.898 355.055C176.242 354.656 177.401 353.794 178.17 352.622C178.17 352.622 178.734 357.323 181.222 358.529C183.71 359.734 187.327 355.339 192.12 353.431C196.164 351.828 201.506 350.775 204.162 348.944C205.868 347.57 206.965 345.58 207.214 343.403C207.214 343.403 208.39 344.472 211.992 342.686C213.107 342.064 214.086 341.224 214.873 340.218C215.659 339.211 216.236 338.058 216.57 336.825C216.57 336.825 222.843 333.498 225.133 330.415C226.516 328.24 227.059 325.635 226.659 323.089C228.089 322.716 229.368 321.911 230.322 320.782C231.276 319.653 231.857 318.257 231.986 316.785C231.986 316.785 235.42 315.397 238.457 314.221C241.494 313.046 243.921 306.59 243.921 306.59C243.921 306.59 240.869 274.63 237.602 252.759C234.336 230.887 225.148 196.775 215.777 184.84L185.16 202.255" fill="#7995F0"/>
<path opacity="0.45" d="M185.236 202.316C175.88 225.057 166.662 269.838 163.426 295.418C160.19 320.998 157.641 356.728 157.641 356.728C160.112 357.855 162.663 358.799 165.273 359.551C168.89 360.391 170.828 354.805 170.828 354.805C172.113 355.366 173.554 355.455 174.898 355.055C176.242 354.656 177.401 353.794 178.17 352.622C178.17 352.622 178.734 357.323 181.222 358.529C183.71 359.734 187.327 355.339 192.12 353.431C196.164 351.828 201.506 350.775 204.162 348.944C205.868 347.57 206.965 345.58 207.214 343.403C207.214 343.403 208.39 344.472 211.992 342.686C213.107 342.064 214.086 341.224 214.873 340.218C215.659 339.211 216.236 338.058 216.57 336.825C216.57 336.825 222.843 333.498 225.133 330.415C226.516 328.24 227.059 325.635 226.659 323.089C228.089 322.716 229.368 321.911 230.322 320.782C231.276 319.653 231.857 318.257 231.986 316.785C231.986 316.785 235.42 315.397 238.457 314.221C241.494 313.046 243.921 306.59 243.921 306.59C243.921 306.59 240.869 274.63 237.602 252.759C234.336 230.887 225.148 196.775 215.777 184.84L185.16 202.255" fill="white"/>
<path d="M178.231 352.637C177.462 353.809 176.303 354.671 174.959 355.071C173.615 355.47 172.174 355.381 170.889 354.82C170.889 354.82 168.951 360.406 165.334 359.567C162.724 358.814 160.173 357.871 157.703 356.743C157.703 356.743 158.054 351.874 158.649 344.457C161.475 345.455 164.403 346.136 167.379 346.487C171.057 346.639 170.889 342.213 170.889 342.213C176.17 344.365 178.719 339.023 178.719 339.023C180.566 341.603 184.412 340.733 189.006 337.176C193.6 333.62 200.987 334.124 203.674 331.636C206.36 329.148 207.367 324.31 207.367 324.31C208.251 324.563 209.181 324.607 210.085 324.437C210.989 324.268 211.84 323.89 212.572 323.333C214.508 321.787 215.872 319.638 216.448 317.228C219.025 317.084 221.459 315.998 223.286 314.176C224.911 312.524 225.932 310.373 226.186 308.071C227.437 307.484 228.535 306.614 229.393 305.531C230.251 304.448 230.846 303.18 231.131 301.828C231.131 301.828 237.236 300.21 242.609 292.457C243.509 300.821 244.059 306.651 244.059 306.651C244.059 306.651 241.647 313.077 238.594 314.282C235.542 315.488 232.123 316.847 232.123 316.847C231.994 318.319 231.413 319.715 230.46 320.843C229.506 321.972 228.226 322.778 226.796 323.15C227.196 325.696 226.653 328.301 225.27 330.476C222.981 333.529 216.708 336.886 216.708 336.886C216.374 338.119 215.796 339.273 215.01 340.279C214.224 341.285 213.244 342.125 212.129 342.747C208.527 344.533 207.352 343.465 207.352 343.465C207.102 345.641 206.005 347.631 204.299 349.005C201.644 350.836 196.302 351.89 192.257 353.492C187.48 355.4 183.908 359.796 181.36 358.59C178.811 357.384 178.231 352.637 178.231 352.637Z" fill="#7995F0"/>
<path opacity="0.1" d="M219.272 218.876C219.272 218.876 227.361 237.618 234.702 315.778L232.138 316.801C231.909 309.169 226.949 244.349 219.272 218.876Z" fill="black"/>
<path opacity="0.1" d="M229.193 321.929C228.447 322.458 227.616 322.856 226.736 323.104C226.873 316.557 225.103 287.786 221.638 260.131C221.638 260.131 224.828 270.158 229.193 321.929Z" fill="black"/>
<path opacity="0.1" d="M210.282 226.797C217.776 270.845 219.776 330.583 219.302 335.299C217.776 336.23 216.692 336.825 216.692 336.825C216.464 323.913 216.83 291.19 210.282 226.797Z" fill="black"/>
<path opacity="0.1" d="M207.306 293.495C207.306 280.766 206.268 262.023 206.268 262.023C206.268 262.023 208.771 283.147 209.443 309.444C209.84 325.455 209.443 337.039 209.061 343.693C208.765 343.766 208.458 343.779 208.156 343.732C207.855 343.685 207.566 343.578 207.306 343.419C207.779 334.933 207.23 306.208 207.306 293.495Z" fill="black"/>
<path opacity="0.1" d="M194.592 235.573C192.578 246.76 190.624 272.341 190.655 286.169C190.685 299.997 190.761 340.351 189.907 346.135C189.907 346.135 189.205 317.762 189.021 303.812C188.404 280.931 190.272 258.051 194.592 235.573Z" fill="black"/>
<path opacity="0.1" d="M176.186 354.545C177.285 303.873 183.634 266.022 186.198 255.75C182.84 274.844 179.116 314.343 178.231 352.637C177.694 353.413 176.997 354.064 176.186 354.545Z" fill="black"/>
<path opacity="0.1" d="M169.073 358.056C169.073 344.838 169.47 324.478 170.874 309.047C172.018 297.762 173.806 286.551 176.231 275.469C176.231 275.469 173.27 293.663 171.973 309.337C170.676 325.012 170.859 348.15 170.935 354.881C170.492 356.034 169.863 357.106 169.073 358.056Z" fill="black"/>
<path opacity="0.1" d="M192.791 199.645C189.541 209.611 182.398 246.272 181.192 260.588C182.908 240.268 186.277 220.12 191.265 200.347L192.791 199.645Z" fill="black"/>
<path opacity="0.1" d="M199.934 195.814C200.835 200.622 202.651 219.669 202.987 242.334C204.879 220.478 201.766 196.546 201.567 194.837" fill="black"/>
<path opacity="0.1" d="M209.443 189.755C211.687 193.723 218.83 206.543 221.241 217.746C219.99 206.116 211.519 190.182 210.908 188.747L209.443 189.755Z" fill="black"/>
<path d="M214.251 102.834C204.62 114.342 194.715 120.737 184.489 120.905V137.907C184.489 150.545 191.158 156.955 199.37 152.224C207.581 147.477 214.251 133.374 214.251 120.722V102.834Z" fill="#7995F0"/>
<path opacity="0.45" d="M214.251 102.834C204.62 114.342 194.715 120.737 184.489 120.905V137.907C184.489 150.545 191.158 156.955 199.37 152.224C207.581 147.477 214.251 133.374 214.251 120.722V102.834Z" fill="black"/>
<path d="M199.599 104.574L180.475 130.352V126.552L197.844 103.307C198.246 102.732 198.729 102.218 199.278 101.781C199.278 97.3088 199.111 96.1794 197.752 95.6757C196.394 95.172 192.502 93.1574 194.425 84.8087C195.6 79.6194 199.919 75.3154 203.582 75.6511C204.758 75.7885 207.49 76.689 207.49 82.1378C207.49 82.4656 207.359 82.7801 207.128 83.0119C206.896 83.2438 206.581 83.374 206.253 83.374C205.926 83.374 205.611 83.2438 205.379 83.0119C205.147 82.7801 205.017 82.4656 205.017 82.1378C205.017 80.9931 204.849 78.2916 203.308 78.1084C201.491 77.9253 197.89 80.8404 196.852 85.3582C195.89 89.5707 196.562 92.6232 198.592 93.3253C201.644 94.3631 201.827 96.973 201.843 100.957C202 100.941 202.158 100.941 202.316 100.957L224.416 105.215V107.519L201.888 103.185C201.4 103.017 200.515 103.444 199.599 104.574Z" fill="#37474F"/>
<path d="M180.536 147.355L224.385 122.034V124.659L180.536 149.965V147.355Z" fill="#7995F0"/>
<path d="M199.11 144.76C197.126 138.655 189.19 123.301 184.489 120.905C184.489 120.905 176.613 130.429 174.247 135.984C171.882 141.54 168.417 150.377 165.777 168.707L178.49 175.148C179.055 179.178 180.749 188.885 185.175 192.807L199.11 192.517V144.76Z" fill="#7995F0"/>
<path opacity="0.25" d="M199.11 144.76C197.126 138.655 189.19 123.301 184.489 120.905C184.489 120.905 176.613 130.429 174.247 135.984C171.882 141.54 168.417 150.377 165.777 168.707L178.49 175.148C179.055 179.178 180.749 188.885 185.175 192.807L199.11 192.517V144.76Z" fill="white"/>
<path d="M161.686 187.786C164.037 190.35 175.331 194.868 178.857 193.998C179.864 193.727 180.766 193.158 181.444 192.365C182.122 191.572 182.545 190.593 182.657 189.556C180.047 184.977 178.918 178.323 178.475 175.179C177.056 174.477 172.202 168.143 169.806 167.105C168.712 166.445 167.466 166.077 166.189 166.036C165.564 166.159 164.993 166.474 164.556 166.937C162.907 168.54 162.633 171.958 162.098 175.881C161.564 179.803 159.336 185.222 161.686 187.786Z" fill="#7995F0"/>
<path d="M178.887 128.261C181.665 124.324 184.489 120.905 184.489 120.905C189.19 123.301 197.126 138.579 199.11 144.76V166.815C195.02 147.569 182.81 131.68 178.887 128.261Z" fill="#7995F0"/>
<path opacity="0.1" d="M178.887 128.261C181.665 124.324 184.489 120.905 184.489 120.905C189.19 123.301 197.126 138.579 199.11 144.76V166.815C195.02 147.569 182.81 131.68 178.887 128.261Z" fill="black"/>
<path d="M194.425 195.234C194.104 183.253 194.593 158.1 200.393 140.609C206.192 123.118 214.251 102.834 214.251 102.834C214.251 102.834 221.501 102.376 225.851 104.818C230.201 107.26 232.933 117.028 235.832 128.826C235.832 128.826 222.63 146.622 220.86 151.369C220.571 155.881 219.98 160.368 219.089 164.8C218.188 168.283 217.108 171.716 215.854 175.087L194.425 195.234Z" fill="#7995F0"/>
<path opacity="0.25" d="M194.425 195.234C194.104 183.253 194.593 158.1 200.393 140.609C206.192 123.118 214.251 102.834 214.251 102.834C214.251 102.834 221.501 102.376 225.851 104.818C230.201 107.26 232.933 117.028 235.832 128.826C235.832 128.826 222.63 146.622 220.86 151.369C220.571 155.881 219.98 160.368 219.089 164.8C218.188 168.283 217.108 171.716 215.854 175.087L194.425 195.234Z" fill="white"/>
<path d="M218.631 166.494C218.707 167.014 218.982 167.485 219.397 167.806C219.813 168.128 220.337 168.276 220.859 168.219C222.813 168.082 223.836 164.8 227.499 160.695C231.162 156.589 238.594 146.409 239.785 143.6C240.975 140.792 239.785 136.717 239.236 133.924C238.686 131.131 239.861 127.346 237.862 126.399C237.435 126.253 236.977 126.226 236.536 126.32C236.096 126.414 235.688 126.626 235.359 126.934C233.543 128.155 231.375 131.039 229.254 135.053C227.621 138.289 225.24 142.563 223.042 146.744C222.169 148.204 221.423 149.736 220.814 151.323C220.533 155.831 219.936 160.314 219.028 164.739C218.936 165.35 218.799 165.884 218.631 166.494Z" fill="#7995F0"/>
<path opacity="0.2" d="M222.493 165.655C221.668 166.601 220.615 166.861 221.592 165.258C223.44 163.015 225.163 160.671 226.751 158.237C230.048 152.987 235.069 142.868 237.236 141.25C239.404 139.632 240.09 141.54 237.923 145.34C235.351 149.466 232.538 153.436 229.498 157.23C227.331 159.962 223.21 164.541 222.493 165.655Z" fill="black"/>
<path opacity="0.2" d="M178.933 191.83C179.726 191.937 180.795 191.113 179.879 190.472C178.963 189.831 178.048 190.594 174.949 188.625C171.851 186.656 167.242 181.467 165.09 182.062C164.578 182.186 164.113 182.455 163.75 182.837C163.388 183.219 163.143 183.698 163.047 184.216C162.95 184.733 163.005 185.268 163.205 185.755C163.405 186.242 163.741 186.661 164.174 186.961C166.629 188.566 169.338 189.743 172.187 190.441C174.232 190.976 178.231 191.388 178.933 191.83Z" fill="black"/>
<path d="M214.251 102.834C216.255 102.75 218.263 102.847 220.249 103.124C216.113 113.899 209.092 132.978 204.559 149.37C201.232 161.458 199.98 182.947 199.645 192.212L194.425 195.264C194.104 183.283 194.593 158.13 200.393 140.639C206.192 123.148 214.251 102.834 214.251 102.834Z" fill="#7995F0"/>
<path opacity="0.15" d="M220.859 151.369C221.287 147.202 221.195 137.465 221.79 133.725C222.386 129.986 225.713 126.094 224.507 130.169C223.309 134.551 222.467 139.022 221.989 143.539C221.88 146.181 221.501 148.804 220.859 151.369Z" fill="black"/>
<path opacity="0.15" d="M178.49 175.148C178.063 171.47 178.17 161.61 177.559 158.588C176.949 155.566 173.637 155.444 174.842 158.161C176.13 161.528 176.977 165.047 177.361 168.631C177.424 170.846 177.805 173.041 178.49 175.148Z" fill="black"/>
<path d="M215.853 175.041V184.855C210.696 189.072 205.181 192.831 199.37 196.089C188.778 202.194 185.237 202.27 185.237 202.27V192.761C195.422 189.77 205.627 183.863 215.853 175.041Z" fill="#7995F0"/>
<path opacity="0.45" d="M215.853 175.041V184.855C210.696 189.072 205.181 192.831 199.37 196.089C188.778 202.194 185.237 202.27 185.237 202.27V192.761C195.422 189.77 205.627 183.863 215.853 175.041Z" fill="black"/>
<path d="M198.331 157.505C198.331 158.604 198.927 159.168 199.644 158.756C200.061 158.424 200.396 158.002 200.623 157.52C200.851 157.038 200.965 156.511 200.957 155.978C200.957 154.879 200.361 154.315 199.644 154.727C199.227 155.059 198.892 155.481 198.665 155.963C198.437 156.445 198.323 156.972 198.331 157.505Z" fill="#37474F"/>
<path d="M196.759 170.096C196.759 171.21 197.339 171.775 198.057 171.348C198.476 171.022 198.813 170.602 199.041 170.122C199.269 169.643 199.381 169.116 199.369 168.585C199.369 167.471 198.789 166.906 198.057 167.318C197.644 167.652 197.312 168.076 197.087 168.558C196.862 169.039 196.75 169.565 196.759 170.096Z" fill="#37474F"/>
<path d="M195.997 181.497C195.997 182.612 196.577 183.176 197.294 182.764C197.712 182.434 198.049 182.012 198.277 181.53C198.504 181.048 198.617 180.519 198.607 179.986C198.607 178.872 198.027 178.308 197.294 178.735C196.879 179.064 196.547 179.485 196.322 179.964C196.096 180.443 195.985 180.968 195.997 181.497Z" fill="#37474F"/>
<path d="M203.78 78.4442L209.595 81.802L206.68 87.1286L200.85 83.7556L203.78 78.4442Z" fill="#F0F0F0"/>
<path d="M169.668 58.7554L175.499 62.1132L172.584 67.4398L166.753 64.0668L169.668 58.7554Z" fill="#F0F0F0"/>
<path d="M129.711 35.6783L135.526 39.0361L132.626 44.3627L126.796 41.005L129.711 35.6783Z" fill="#F0F0F0"/>
<path d="M89.0971 12.2349L94.9121 15.5927L92.0122 20.9193L86.1819 17.5463L89.0971 12.2349Z" fill="#F0F0F0"/>
<path d="M264.938 353.614C264.474 353.346 263.947 353.205 263.411 353.205C262.876 353.205 262.349 353.346 261.885 353.614L240.655 365.824V107.062C240.651 104.84 240.064 102.659 238.952 100.736C237.841 98.8125 236.244 97.215 234.321 96.103L231.268 101.353C232.269 101.933 233.101 102.765 233.679 103.767C234.258 104.769 234.563 105.905 234.565 107.062V369.35L214.907 380.705C214.445 380.972 214.062 381.354 213.794 381.815C213.526 382.275 213.384 382.798 213.38 383.33V411.78C213.409 412.047 213.507 412.302 213.665 412.519C213.823 412.736 214.035 412.908 214.281 413.016C214.945 413.355 215.68 413.532 216.425 413.532C217.171 413.532 217.906 413.355 218.57 413.016C218.812 412.906 219.022 412.733 219.177 412.516C219.333 412.299 219.428 412.045 219.455 411.78V385.07L260.328 361.474V384.674C260.355 384.939 260.451 385.193 260.606 385.41C260.761 385.627 260.971 385.799 261.214 385.91C261.878 386.249 262.612 386.426 263.358 386.426C264.103 386.426 264.838 386.249 265.502 385.91C265.748 385.801 265.96 385.63 266.119 385.413C266.277 385.196 266.375 384.941 266.403 384.674V356.224C266.403 355.7 266.269 355.184 266.012 354.727C265.755 354.27 265.385 353.887 264.938 353.614Z" fill="#F0F0F0"/>
<path d="M83.4846 348.712C88.8723 351.475 87.6971 355.398 83.4846 359.106C79.9513 362.126 76.655 365.412 73.6249 368.935C70.5724 372.507 62.2848 377.04 52.3336 377.04C42.3823 377.04 34.2168 372.797 38.5972 367.592C42.9776 362.388 47.5411 362.525 54.8214 359.259C62.1016 355.993 66.3752 352.131 71.1066 349.552C75.0596 347.446 78.8753 346.331 83.4846 348.712Z" fill="#E0E0E0"/>
<path d="M61.8118 336.762C67.1995 339.524 66.009 343.447 61.8118 347.156C58.2734 350.18 54.9721 353.471 51.9368 357C48.8843 360.556 40.5967 365.089 30.6607 365.089C20.7248 365.089 12.544 360.846 16.9244 355.642C21.3047 350.437 25.8683 350.575 33.1485 347.308C40.4288 344.042 44.7176 340.196 49.449 337.617C53.3868 335.449 57.1872 334.396 61.8118 336.762Z" fill="#E0E0E0"/>
<path d="M64.2997 323.407C65.2918 326.551 64.0555 330.397 63.3076 333.358C62.7912 336.961 62.5819 340.602 62.6819 344.241C62.6671 344.433 62.6013 344.618 62.4913 344.776C62.3813 344.934 62.2311 345.06 62.0561 345.141C61.6138 345.403 61.1139 345.553 60.6004 345.576C60.0868 345.6 59.5752 345.498 59.1104 345.278C58.9402 345.197 58.7926 345.076 58.6807 344.924C58.5689 344.772 58.4963 344.595 58.4694 344.408C58.4694 344.149 58.9425 335.083 55.6763 336.075C56.1037 332.183 60.1177 327.818 64.2997 323.407Z" fill="#7995F0"/>
<path opacity="0.6" d="M64.2997 323.407C65.2918 326.551 64.0555 330.397 63.3076 333.358C62.7912 336.961 62.5819 340.602 62.6819 344.241C62.6671 344.433 62.6013 344.618 62.4913 344.776C62.3813 344.934 62.2311 345.06 62.0561 345.141C61.6138 345.403 61.1139 345.553 60.6004 345.576C60.0868 345.6 59.5752 345.498 59.1104 345.278C58.9402 345.197 58.7926 345.076 58.6807 344.924C58.5689 344.772 58.4963 344.595 58.4694 344.408C58.4694 344.149 58.9425 335.083 55.6763 336.075C56.1037 332.183 60.1177 327.818 64.2997 323.407Z" fill="black"/>
<path d="M26.0056 348.468C24.2961 350.819 30.2333 354.009 37.1473 350.514C43.2523 347.461 45.1296 341.661 48.7469 334.366C51.3568 329.085 55.4166 318.66 57.0497 316.05C59.6597 311.899 59.9038 309.488 56.9734 308.602C56.3018 309.503 40.0777 331.496 43.3744 323.438C46.6711 315.379 48.9911 310.602 50.8989 308.938C52.2141 307.849 53.8772 307.269 55.5845 307.305H55.8898C58.8355 307.397 61.3538 308.831 61.8575 311.105C62.641 314.358 63.6092 317.563 64.7574 320.706C65.3679 322.522 65.9936 327.726 61.9795 330.474C57.9655 333.221 54.5772 336.289 53.3104 340.303C51.6925 345.492 49.7084 355.367 45.2059 358.328C38.2309 362.907 26.7381 365.349 20.2057 360.678C15.9169 357.641 19.1068 353.993 26.0056 348.468Z" fill="#7995F0"/>
<path opacity="0.5" d="M26.0056 348.468C24.2961 350.819 30.2333 354.009 37.1473 350.514C43.2523 347.461 45.1296 341.661 48.7469 334.366C51.3568 329.085 55.4166 318.66 57.0497 316.05C59.6597 311.899 59.9038 309.488 56.9734 308.602C56.3018 309.503 40.0777 331.496 43.3744 323.438C46.6711 315.379 48.9911 310.602 50.8989 308.938C52.2141 307.849 53.8772 307.269 55.5845 307.305H55.8898C58.8355 307.397 61.3538 308.831 61.8575 311.105C62.641 314.358 63.6092 317.563 64.7574 320.706C65.3679 322.522 65.9936 327.726 61.9795 330.474C57.9655 333.221 54.5772 336.289 53.3104 340.303C51.6925 345.492 49.7084 355.367 45.2059 358.328C38.2309 362.907 26.7381 365.349 20.2057 360.678C15.9169 357.641 19.1068 353.993 26.0056 348.468Z" fill="white"/>
<path d="M37.1323 350.498C43.2373 347.446 45.1452 341.646 48.7472 334.335C51.3571 329.039 55.4169 318.615 57.0653 316.02C59.7362 311.716 59.9652 309.243 56.6685 308.389C54.1349 308.007 51.1281 307.61 47.633 314.631C44.1378 321.652 39.7727 330.001 36.8728 335.144C33.8953 340.043 30.2364 344.493 26.0058 348.361C24.2964 350.819 30.2793 354.009 37.1323 350.498Z" fill="#7995F0"/>
<path opacity="0.2" d="M37.1323 350.498C43.2373 347.446 45.1452 341.646 48.7472 334.335C51.3571 329.039 55.4169 318.615 57.0653 316.02C59.7362 311.716 59.9652 309.243 56.6685 308.389C54.1349 308.007 51.1281 307.61 47.633 314.631C44.1378 321.652 39.7727 330.001 36.8728 335.144C33.8953 340.043 30.2364 344.493 26.0058 348.361C24.2964 350.819 30.2793 354.009 37.1323 350.498Z" fill="black"/>
<path opacity="0.3" d="M36.1705 348.621C41.1767 344.042 46.1828 331.435 48.1212 327.681C48.6953 326.409 49.5236 325.268 50.5552 324.328C51.5867 323.389 52.7997 322.67 54.1194 322.217C52.3642 326.261 50.2885 331.222 48.747 334.427C45.145 341.738 43.2066 347.537 37.1321 350.59C35.3685 351.508 33.4254 352.029 31.4391 352.116C33.1182 351.096 34.7018 349.926 36.1705 348.621Z" fill="black"/>
<path d="M85.3775 335.419C86.3696 338.563 85.1486 342.409 84.3855 345.37C83.869 348.973 83.6597 352.614 83.7597 356.252C83.7434 356.444 83.677 356.628 83.5672 356.786C83.4573 356.944 83.308 357.071 83.1339 357.153C82.6916 357.415 82.1917 357.564 81.6782 357.588C81.1646 357.612 80.6531 357.51 80.1883 357.29C80.018 357.209 79.8705 357.087 79.7586 356.936C79.6468 356.784 79.5742 356.607 79.5472 356.42C79.5472 356.161 80.0051 347.095 76.7389 348.087C77.1815 344.21 81.1956 339.814 85.3775 335.419Z" fill="#7995F0"/>
<path opacity="0.6" d="M85.3775 335.419C86.3696 338.563 85.1486 342.409 84.3855 345.37C83.869 348.973 83.6597 352.614 83.7597 356.252C83.7434 356.444 83.677 356.628 83.5672 356.786C83.4573 356.944 83.308 357.071 83.1339 357.153C82.6916 357.415 82.1917 357.564 81.6782 357.588C81.1646 357.612 80.6531 357.51 80.1883 357.29C80.018 357.209 79.8705 357.087 79.7586 356.936C79.6468 356.784 79.5742 356.607 79.5472 356.42C79.5472 356.161 80.0051 347.095 76.7389 348.087C77.1815 344.21 81.1956 339.814 85.3775 335.419Z" fill="black"/>
<path d="M47.0681 360.48C45.3587 362.831 51.2958 366.005 58.2098 362.525C64.3149 359.473 66.1922 353.673 69.8094 346.377C72.4193 341.097 76.4792 330.672 78.1123 328.062C80.7222 323.911 80.9664 321.499 78.036 320.614C77.3797 321.515 61.1403 343.508 64.437 335.449C67.7337 327.391 70.0689 322.613 71.9767 320.95C73.2817 319.853 74.943 319.272 76.6471 319.317H76.9523C79.9133 319.408 82.4163 320.767 82.92 323.102C83.7063 326.359 84.6745 329.569 85.8199 332.717C86.4304 334.534 87.0562 339.738 83.0421 342.485C79.0281 345.233 75.6397 348.3 74.3882 352.315C72.7551 357.504 70.7709 367.379 66.2685 370.34C59.2934 374.919 47.8007 377.345 41.2683 372.69C36.9948 369.653 40.1847 366.005 47.0681 360.48Z" fill="#7995F0"/>
<path opacity="0.5" d="M47.0681 360.48C45.3587 362.831 51.2958 366.005 58.2098 362.525C64.3149 359.473 66.1922 353.673 69.8094 346.377C72.4193 341.097 76.4792 330.672 78.1123 328.062C80.7222 323.911 80.9664 321.499 78.036 320.614C77.3797 321.515 61.1403 343.508 64.437 335.449C67.7337 327.391 70.0689 322.613 71.9767 320.95C73.2817 319.853 74.943 319.272 76.6471 319.317H76.9523C79.9133 319.408 82.4163 320.767 82.92 323.102C83.7063 326.359 84.6745 329.569 85.8199 332.717C86.4304 334.534 87.0562 339.738 83.0421 342.485C79.0281 345.233 75.6397 348.3 74.3882 352.315C72.7551 357.504 70.7709 367.379 66.2685 370.34C59.2934 374.919 47.8007 377.345 41.2683 372.69C36.9948 369.653 40.1847 366.005 47.0681 360.48Z" fill="white"/>
<path d="M58.2097 362.525C64.3148 359.473 66.2226 353.688 69.8246 346.377C72.4345 341.081 76.4944 330.657 78.1427 328.062C80.829 323.758 81.0427 321.286 77.7459 320.431C75.2123 320.049 72.2208 319.653 68.7104 326.673C65.2 333.694 60.8502 342.043 57.9503 347.186C54.9726 352.08 51.3193 356.53 47.0985 360.404C45.3739 362.815 51.3263 366.005 58.2097 362.525Z" fill="#7995F0"/>
<path opacity="0.2" d="M58.2097 362.525C64.3148 359.473 66.2226 353.688 69.8246 346.377C72.4345 341.081 76.4944 330.657 78.1427 328.062C80.829 323.758 81.0427 321.286 77.7459 320.431C75.2123 320.049 72.2208 319.653 68.7104 326.673C65.2 333.694 60.8502 342.043 57.9503 347.186C54.9726 352.08 51.3193 356.53 47.0985 360.404C45.3739 362.815 51.3263 366.005 58.2097 362.525Z" fill="black"/>
<path opacity="0.3" d="M57.2484 360.617C62.2545 356.039 67.2607 343.447 69.199 339.692C69.7731 338.421 70.6014 337.28 71.633 336.34C72.6645 335.4 73.8775 334.682 75.1972 334.228C73.442 338.273 71.3663 343.233 69.8248 346.438C66.2228 353.749 64.2844 359.549 58.2099 362.586C56.45 363.514 54.5048 364.035 52.517 364.113C54.1994 363.097 55.7834 361.927 57.2484 360.617Z" fill="black"/>
<path d="M139.743 377.696C145.131 380.474 143.955 384.381 139.743 388.105C135.53 391.83 131.425 394.455 128.296 397.935C123.305 403.46 115.674 406.344 105.738 406.344C95.8017 406.344 85.2705 401.765 94.8249 396.591C100.762 393.341 103.769 391.524 111.049 388.243C118.329 384.961 122.603 381.13 127.334 378.551C131.318 376.445 135.134 375.315 139.743 377.696Z" fill="#E0E0E0"/>
<path d="M118.055 365.059C123.442 367.821 122.267 371.744 118.055 375.453C113.842 379.162 109.736 381.817 106.608 385.297C101.617 390.822 93.9855 393.707 84.0495 393.707C74.1135 393.707 63.5823 389.128 73.1214 383.939C79.0739 380.703 82.0806 378.872 89.3609 375.605C96.6411 372.339 100.915 368.478 105.646 365.898C109.645 363.731 113.445 362.708 118.055 365.059Z" fill="#E0E0E0"/>
<path d="M135.957 355.077C133.859 357.773 132.205 360.787 131.058 364.006C129.929 367.943 126.891 372.003 125.503 374.812C125.152 375.529 121.946 374.72 121.153 373.56C121.885 371.103 121.717 370.019 121.733 364.677C121.521 360.759 122.517 356.87 124.587 353.535C124.694 353.337 125.411 352.376 125.533 352.192C128.387 347.934 131.455 348.041 133.622 348.361C136.904 349.17 138.644 350.788 135.957 355.077Z" fill="#7995F0"/>
<path opacity="0.3" d="M135.957 355.077C133.859 357.773 132.205 360.787 131.058 364.006C129.929 367.943 126.891 372.003 125.503 374.812C125.152 375.529 121.946 374.72 121.153 373.56C121.885 371.103 121.717 370.019 121.733 364.677C121.521 360.759 122.517 356.87 124.587 353.535C124.694 353.337 125.411 352.376 125.533 352.192C128.387 347.934 131.455 348.041 133.622 348.361C136.904 349.17 138.644 350.788 135.957 355.077Z" fill="black"/>
<path d="M141.071 363.868C142.063 367.012 140.826 370.843 140.063 373.82C139.547 377.418 139.338 381.053 139.438 384.687C139.438 384.854 139.224 385.16 138.507 385.16C137.789 385.16 137.621 384.87 137.606 384.717C137.606 384.458 138.461 371.774 132.417 376.536C132.859 372.66 136.873 368.279 141.071 363.868Z" fill="black"/>
<path d="M131.623 377.589C129.898 380.993 129.013 387.449 127.914 391.188C126.525 395.95 124.037 397.965 120.283 400.346C116.528 402.727 101.22 393.798 101.22 393.798C104.572 392.41 107.765 390.665 110.744 388.594C114.636 385.694 118.192 382.031 119.459 377.91C120.725 373.789 123.9 366.692 126.663 364.418C128.225 363.23 130.059 362.449 131.999 362.145C133.938 361.841 135.923 362.024 137.774 362.678C141.589 364.036 141.33 367.852 138.43 369.943C135.874 372.221 133.589 374.786 131.623 377.589Z" fill="#263238"/>
<path d="M127.96 391.188C129.059 387.449 129.944 380.993 131.669 377.589C131.669 377.589 132.355 376.628 133.363 375.376L132.844 373.85C128.937 378.322 128.601 384.366 127.593 388.243C126.586 392.12 125.35 396.637 119.092 399.613L119.901 400.575C120.076 400.522 120.245 400.451 120.405 400.361C124.037 397.965 126.525 395.95 127.96 391.188Z" fill="black"/>
<path d="M138.751 370.95C135.968 372.682 133.548 374.936 131.623 377.589C130.482 373.157 130.289 368.533 131.058 364.021C131.479 361.834 132.193 359.714 133.18 357.718C133.368 357.32 133.577 356.933 133.806 356.558C134.716 355.161 135.547 353.714 136.294 352.223C137.072 350.697 135.958 349.17 133.409 348.652C130.86 348.133 127.899 349.384 125.533 352.696C123.168 356.008 121.794 359.122 121.718 365.807C121.573 363.707 121.66 361.599 121.977 359.519C122.669 355.604 124.671 352.041 127.655 349.415C128.997 348.386 130.635 347.819 132.325 347.797H132.631C135.576 347.797 138.095 349.247 138.613 351.582C139.39 354.836 140.358 358.042 141.513 361.182C142.124 362.998 142.765 368.203 138.751 370.95Z" fill="#37474F"/>
<path d="M102.777 388.914C107.722 386.503 114.681 390.593 117.017 393.325C118.592 395.4 119.729 397.773 120.359 400.3C120.359 400.3 115.185 404.177 105.005 403.658C92.5201 403.032 94.1532 397.003 96.0916 394.913C98.1549 392.736 100.391 390.731 102.777 388.914Z" fill="#455A64"/>
<path d="M114.224 342.455C112.125 345.151 110.471 348.165 109.324 351.384C108.195 355.306 105.158 359.381 103.769 362.174C103.418 362.907 100.213 362.174 99.4189 360.938C100.152 358.481 99.9837 357.397 99.9989 352.04C99.7845 348.121 100.781 344.231 102.853 340.898C102.96 340.715 103.677 339.738 103.799 339.57C106.653 335.297 109.721 335.404 111.889 335.724C115.216 336.533 116.94 338.151 114.224 342.455Z" fill="#7995F0"/>
<path opacity="0.3" d="M114.224 342.455C112.125 345.151 110.471 348.165 109.324 351.384C108.195 355.306 105.158 359.381 103.769 362.174C103.418 362.907 100.213 362.174 99.4189 360.938C100.152 358.481 99.9837 357.397 99.9989 352.04C99.7845 348.121 100.781 344.231 102.853 340.898C102.96 340.715 103.677 339.738 103.799 339.57C106.653 335.297 109.721 335.404 111.889 335.724C115.216 336.533 116.94 338.151 114.224 342.455Z" fill="black"/>
<path d="M119.367 351.216C120.374 354.36 119.138 358.206 118.375 361.182C117.859 364.78 117.649 368.416 117.749 372.049C117.749 372.202 117.535 372.522 116.818 372.522C116.101 372.522 115.933 372.232 115.918 372.08C115.918 371.82 116.772 359.137 110.728 363.884C111.171 360.022 115.185 355.627 119.367 351.216Z" fill="black"/>
<path d="M109.935 364.937C108.21 368.356 107.325 374.796 106.226 378.551C104.837 383.313 102.349 385.328 98.671 387.709C94.9927 390.09 79.608 381.161 79.608 381.161C82.9566 379.765 86.1489 378.021 89.1319 375.956C93.0239 373.041 96.58 369.378 97.8468 365.272C99.1136 361.167 102.288 354.07 105.051 351.78C106.615 350.596 108.449 349.817 110.388 349.514C112.326 349.21 114.31 349.391 116.162 350.04C119.978 351.399 119.703 355.214 116.818 357.321C114.237 359.585 111.928 362.141 109.935 364.937Z" fill="#263238"/>
<path d="M106.226 378.551C107.325 374.796 108.21 368.356 109.935 364.937C109.935 364.937 110.622 363.99 111.629 362.724L111.11 361.197C107.203 365.654 106.867 371.713 105.844 375.59C104.822 379.467 103.616 383.984 97.3584 386.945L98.1673 387.922C98.3425 387.87 98.5114 387.798 98.671 387.709C102.349 385.328 104.837 383.313 106.226 378.551Z" fill="black"/>
<path d="M117.062 358.297C114.287 360.038 111.868 362.291 109.935 364.937C108.792 360.51 108.6 355.89 109.37 351.384C109.791 349.197 110.504 347.076 111.492 345.08C111.674 344.675 111.883 344.282 112.117 343.905C113.026 342.512 113.857 341.07 114.605 339.586C115.384 338.059 114.269 336.533 111.721 336.014C109.172 335.495 106.211 336.731 103.845 340.059C101.479 343.386 100.106 346.484 100.029 353.169C99.8845 351.065 99.9714 348.951 100.289 346.866C100.981 342.948 102.989 339.384 105.982 336.762C107.32 335.727 108.96 335.158 110.652 335.144H110.957C113.903 335.236 116.421 336.67 116.925 338.944C117.705 342.2 118.678 345.405 119.84 348.545C120.436 350.346 121.077 355.55 117.062 358.297Z" fill="#37474F"/>
<path d="M81.0885 376.277C86.0335 373.865 92.9933 377.956 95.3285 380.672C96.9028 382.753 98.0398 385.131 98.671 387.663C98.671 387.663 93.497 391.539 83.3168 391.021C70.832 390.395 72.4651 384.366 74.4034 382.26C76.4654 380.087 78.7012 378.086 81.0885 376.277Z" fill="#455A64"/>
<path d="M36.4205 311.003L31.1355 301.055L35.3922 288.787V281.279L22.3831 288.787V296.296L27.9789 306.005C28.0699 306.153 28.2032 306.27 28.3615 306.34L36.4205 311.003Z" fill="#7995F0"/>
<path opacity="0.2" d="M36.4205 311.003L31.1355 301.055L35.3922 288.787V281.279L22.3831 288.787V296.296L27.9789 306.005C28.0699 306.153 28.2032 306.27 28.3615 306.34L36.4205 311.003Z" fill="black"/>
<path d="M67.5083 221.518C67.4344 220.167 67.0429 218.852 66.3656 217.68C65.6884 216.509 64.7444 215.513 63.6104 214.774L60.4298 212.933C59.222 212.32 57.8865 212 56.5319 212C55.1773 212 53.8418 212.32 52.634 212.933L3.89794 241.127C2.76389 241.866 1.81992 242.861 1.14266 244.033C0.465408 245.205 0.0739311 246.52 0 247.871V301.605C0.0702399 302.96 0.45999 304.28 1.13741 305.456C1.81483 306.632 2.76073 307.632 3.89794 308.373L7.07846 310.214C8.28627 310.827 9.62178 311.147 10.9764 311.147C12.331 311.147 13.6665 310.827 14.8743 310.214L30.5617 301.151L36.1335 310.716C36.2146 310.852 36.3327 310.963 36.4741 311.035C36.6155 311.106 36.7744 311.137 36.9323 311.121C37.0901 311.106 37.2405 311.047 37.3658 310.95C37.4911 310.853 37.5862 310.722 37.6401 310.573L43.5468 293.522L63.6104 281.9C64.7444 281.162 65.6884 280.166 66.3656 278.994C67.0429 277.823 67.4344 276.508 67.5083 275.156V221.518Z" fill="#7995F0"/>
<path opacity="0.2" d="M0 301.605C0.0702399 302.961 0.45999 304.28 1.13741 305.456C1.81483 306.633 2.76073 307.632 3.89794 308.373L7.07846 310.214C8.18335 310.773 9.3948 311.09 10.6319 311.144C11.8691 311.197 13.1034 310.986 14.2526 310.525C12.4112 311.218 11.0242 310.19 11.0242 307.966V254.208C11.068 252.855 11.4637 251.536 12.1721 250.382L1.17178 244.021C0.479617 245.19 0.0930662 246.514 0.0478375 247.871L0 301.605Z" fill="black"/>
<path opacity="0.3" d="M67.3888 220.418C66.9344 218.768 65.4279 218.218 63.6104 219.27L14.8744 247.465C13.7169 248.178 12.7682 249.184 12.1243 250.382L1.14795 244.045C1.79908 242.853 2.74613 241.848 3.89801 241.127L52.6101 212.933C53.8221 212.32 55.1616 212 56.52 212C57.8785 212 59.2179 212.32 60.4299 212.933L63.6104 214.775C64.591 215.409 65.4318 216.237 66.0814 217.207C66.7311 218.177 67.1759 219.27 67.3888 220.418Z" fill="white"/>
<path d="M22.8138 267.528C22.863 264.235 23.5619 260.985 24.8704 257.963C26.079 254.781 28.2213 252.038 31.0162 250.095C35.225 247.704 38.7403 252.654 39.2903 258.584C39.7925 252.032 43.2361 242.897 47.4449 240.434C48.3666 239.741 49.5155 239.42 50.6631 239.535C51.8107 239.65 52.8729 240.193 53.6385 241.056C55.1701 243.122 55.9237 245.663 55.7668 248.23C55.7668 258.274 49.7645 267.361 44.7187 276.926L39.2664 286.157L34.0054 283.216C28.9596 279.533 22.8616 277.548 22.8138 267.528Z" fill="#FAFAFA"/>
</svg>
