<svg width="327" height="327" viewBox="0 0 327 327" fill="none" xmlns="http://www.w3.org/2000/svg">
<g clip-path="url(#clip0)">
<path d="M56.1426 329.769C22.3745 329.769 -4.99997 325.707 -4.99997 320.695C-4.99997 315.684 22.3745 311.622 56.1426 311.622C89.9107 311.622 117.285 315.684 117.285 320.695C117.285 325.707 89.9107 329.769 56.1426 329.769Z" fill="#3F7DC2"/>
<path d="M155.888 311.882C111.309 311.882 75.1697 309.222 75.1697 305.941C75.1697 302.66 111.309 300 155.888 300C200.468 300 236.607 302.66 236.607 305.941C236.607 309.222 200.468 311.882 155.888 311.882Z" fill="#3F7DC2"/>
<path d="M221.986 87.3576L262.979 82V247.747L221.986 253.104V87.3576Z" fill="#37474F"/>
<path d="M139.994 87.3576L180.987 82V247.747L139.994 253.104V87.3576Z" fill="#263238"/>
<path d="M221.986 87.3576L180.987 82V247.747L221.986 253.104V87.3576Z" fill="#263238"/>
<path d="M139.993 87.3576L99 82V247.747L139.993 253.104V87.3576Z" fill="#37474F"/>
<path d="M221.986 90.8853L259.068 86.0811V243.923L221.986 248.728V90.8853Z" fill="#DBDBDB"/>
<path d="M139.994 91.1809L180.987 86.0811V243.923L139.994 249.023V91.1809Z" fill="#DBDBDB"/>
<path d="M221.986 91.0364L180.987 86.2258V244.074L221.986 248.879V91.0364Z" fill="#EBEBEB"/>
<path d="M139.993 91.1809L102.911 86.0811V243.923L139.993 249.023V91.1809Z" fill="#EBEBEB"/>
<path d="M135.661 90.5899L132.353 101.915L131.573 104.588L123.392 132.501L122.914 133.608L120.518 132.703L102.911 126.062V123.088L121.474 130.099L133.133 90.2378L135.661 90.5899Z" fill="white"/>
<path d="M173.982 86.9551L172.479 87.8669L169.863 89.439L153.507 99.3116L151.287 100.657L140.138 107.386L139.994 107.342L131.573 104.587L130.41 104.21L131.108 101.506L132.353 101.915L139.849 104.367L139.994 104.279L167.316 87.7851V87.7788H167.322L170.07 87.4456L171.51 87.2632H171.523L173.982 86.9551Z" fill="white"/>
<path d="M214.139 90.1183L212.007 99.0099L211.29 102.016L199.481 151.096L198.833 153.819L198.827 153.85L190.067 150.448L187.036 149.197L180.949 146.681L180.194 146.367L178.962 144.424L151.287 100.657L150.646 99.645L152.689 98.0163L153.507 99.3117L165.731 118.642L167.379 121.252L181.785 144.028L197.116 150.153L205.033 117.284L205.737 114.347L211.623 89.8164L214.139 90.1183Z" fill="white"/>
<path d="M206.926 115.372L205.404 117.604L205.033 117.283L180.987 96.5887L180.295 95.9913L178.792 95.0418L176.604 93.671L169.863 89.4389L169.266 89.0616L170.071 87.4455L171.511 87.2632H171.523L172.479 87.8669L180.987 93.2245L181.742 93.6961L205.738 114.347L206.926 115.372Z" fill="white"/>
<path d="M259.062 126.282V129.326L252.547 126.276L250.214 125.175L221.32 111.624L211.29 102.016L209.649 100.444L211.265 98.2993L212.007 99.0099L222.647 109.197L259.062 126.282Z" fill="white"/>
<path d="M234.997 204.037L232.57 203.345L250.479 124L252.906 124.691L234.997 204.037Z" fill="white"/>
<path d="M259.062 193.617V196.56L228.533 207.257L226.105 208.112H226.099L222.59 209.338L184.955 244.534L181.477 244.125L194.463 231.988L197.072 229.542L208.517 218.846L210.579 216.922L221.376 206.823L232.683 202.861L235.487 201.874L259.062 193.617Z" fill="white"/>
<path d="M221.835 162.78L197.55 153.366L198.355 150.706L222.131 159.925L243.744 157.648L243.976 160.447L221.835 162.78Z" fill="white"/>
<path d="M167.051 122.006L164.806 120.767L177.125 92.4763L179.37 93.7151L167.051 122.006Z" fill="white"/>
<path d="M197.619 229.63L197.286 232.409L194.462 231.988L180.49 229.894L139.867 215.72L102.911 219.82V216.991L127.92 214.217L131.202 213.859L140.125 212.865L140.364 212.954L163.568 221.047L166.19 221.958L181.031 227.134L197.072 229.542L197.619 229.63Z" fill="white"/>
<path d="M111.803 159.176L102.911 179.638V173.224L120.518 132.702L121.147 131.262L123.392 132.501L122.914 133.608L113.004 156.416L111.803 159.176Z" fill="white"/>
<path d="M131.617 214.299L129.9 216.336L127.92 214.217L102.911 187.517V183.637L122.361 204.414L124.36 206.539L131.202 213.859L131.617 214.299Z" fill="white"/>
<path d="M140.151 160.635L110.986 159.126L111.099 156.315L139.836 157.805L180.622 143.852L181.352 146.543L140.151 160.635Z" fill="white"/>
<path d="M124.103 207.395L121.732 206.49L136.321 158.416L138.692 159.327L124.103 207.395Z" fill="white"/>
<path d="M259.062 172.62V175.456L241.933 173.318L240.845 173.18L241.121 170.388L242.549 170.564L259.062 172.62Z" fill="white"/>
<path d="M208.8 219.764L186.835 148.568L189.199 147.643L211.164 218.839L208.8 219.764Z" fill="white"/>
<path d="M164.901 223.593L163.034 221.72L180.201 200.082L200.053 187.826L201.254 190.291L181.779 202.314L164.901 223.593Z" fill="white"/>
<path d="M214.139 90.1183L212.007 99.0099L211.29 102.016L199.481 151.096L198.833 153.819L198.827 153.85L190.067 150.448L187.036 149.197L180.949 146.681L180.194 146.367L178.962 144.424L151.287 100.657L150.646 99.645L152.689 98.0163L153.507 99.3117L165.731 118.642L167.379 121.252L181.785 144.028L197.116 150.153L205.033 117.284L205.737 114.347L211.623 89.8164L214.139 90.1183Z" fill="white"/>
<path d="M221.835 162.78L197.55 153.366L198.355 150.706L222.131 159.925L243.744 157.648L243.976 160.447L221.835 162.78Z" fill="white"/>
<path d="M197.619 229.63L197.286 232.416L194.456 231.988L180.49 229.894L164.411 224.285H164.398L148.017 218.563L139.867 215.72L102.911 219.82V216.991L127.92 214.217L131.208 213.859L140.119 212.865L140.37 212.954L148.017 215.626L163.568 221.047L166.19 221.958H166.196L166.234 221.977L181.031 227.134L197.072 229.542L197.619 229.63Z" fill="white"/>
<path d="M211.164 218.839L208.8 219.757L199.952 191.095V191.089L199.122 188.398L187.03 149.197L186.835 148.568L187.131 148.448L189.199 147.643L190.067 150.448L202.178 189.718L211.164 218.839Z" fill="white"/>
<path d="M201.254 190.284V190.291L199.952 191.096L181.779 202.314L166.197 221.959L164.901 223.593L163.034 221.726L163.568 221.047L180.201 200.082L199.122 188.398L200.053 187.826L201.254 190.284Z" fill="white"/>
<path d="M246.102 245.602L243.442 245.948L226.105 208.111H226.099L225.621 207.055L227.847 205.766L228.533 207.256L246.102 245.602Z" fill="white"/>
<path d="M150.495 149.662L171.8 142.374L157.877 120.358L146.168 124.289L150.495 149.662Z" fill="#EBEBEB"/>
<path d="M227.929 153.171L240.097 151.888L245.655 127.672L232.544 121.522L227.929 153.171Z" fill="#EBEBEB"/>
<path d="M259.062 119.264L231.683 107.071V89.6276L259.068 86.0811L259.062 119.264Z" fill="#EBEBEB"/>
<path d="M143.213 109.725L150.029 105.613L156.129 115.297L145.256 119.013L143.213 109.725Z" fill="#EBEBEB"/>
<path d="M187.715 204.496L198.826 197.635L204.775 216.928L196.821 224.367L187.715 223.002V204.496Z" fill="#DBDBDB"/>
<path d="M187.017 92.0864V86.9111L209.082 89.5208L204.8 107.386L187.017 92.0864Z" fill="#DBDBDB"/>
<path d="M107.055 180.575L121.229 195.711L130.385 165.414L113.96 164.565L107.055 180.575Z" fill="#DBDBDB"/>
<path d="M106.816 119.742V95.0986L126.838 97.9787L119.11 124.39L106.816 119.742Z" fill="#DBDBDB"/>
<path d="M106.816 92.08L126.838 94.96L128.429 89.5898L106.816 86.6155V92.08Z" fill="#DBDBDB"/>
<path d="M144.175 244.854V221.763L158.858 226.914V243.024L144.175 244.854Z" fill="#EBEBEB"/>
<path d="M106.037 223.562L117.45 222.292V242.534L106.037 240.962V223.562Z" fill="#DBDBDB"/>
<path d="M249.673 240.477L236.94 212.696L259.062 204.942L259.068 239.257L249.673 240.477Z" fill="#EBEBEB"/>
<path d="M218.647 153.083V139.06L205.951 134.62L202.951 147.115L218.647 153.083Z" fill="#DBDBDB"/>
<path d="M190.067 150.454L202.184 189.725L201.254 190.291L199.958 191.089V191.096L181.779 202.314L166.241 221.977L164.411 224.285H164.398L148.017 218.563V215.626L163.568 221.053L180.201 200.082L199.122 188.398L187.023 149.197H187.03L187.13 148.455L187.419 146.279V146.26L197.122 150.121L201.304 132.753L203.675 133.677L198.826 153.85L190.067 150.454Z" fill="#70ABED"/>
<path d="M211.73 116.523C211.259 111.75 207.957 106.99 202.179 106.99C196.4 106.99 193.105 111.75 192.627 116.523C191.897 123.899 196.871 130.583 202.179 136.677C207.492 130.583 212.466 123.899 211.73 116.523ZM202.179 121.83C201.144 121.829 200.133 121.521 199.274 120.945C198.414 120.37 197.744 119.552 197.349 118.596C196.954 117.64 196.852 116.588 197.054 115.574C197.257 114.559 197.756 113.628 198.488 112.897C199.219 112.166 200.152 111.668 201.166 111.466C202.181 111.265 203.233 111.369 204.188 111.765C205.144 112.161 205.961 112.832 206.535 113.692C207.11 114.552 207.417 115.564 207.417 116.598C207.417 117.286 207.283 117.967 207.019 118.603C206.756 119.238 206.371 119.816 205.884 120.302C205.397 120.788 204.819 121.173 204.184 121.435C203.548 121.698 202.866 121.832 202.179 121.83Z" fill="#263238"/>
<path d="M157.576 198.459C157.098 193.68 153.803 188.92 148.017 188.92C142.232 188.92 138.943 193.68 138.465 198.459C137.736 205.835 142.71 212.513 148.017 218.582C153.331 212.513 158.305 205.835 157.576 198.459ZM148.017 203.76C146.983 203.759 145.972 203.451 145.112 202.875C144.253 202.3 143.583 201.482 143.188 200.526C142.793 199.57 142.691 198.518 142.893 197.504C143.096 196.489 143.594 195.558 144.326 194.827C145.058 194.095 145.991 193.598 147.005 193.396C148.02 193.195 149.072 193.299 150.027 193.695C150.983 194.091 151.8 194.762 152.374 195.622C152.949 196.482 153.256 197.494 153.256 198.528C153.256 199.216 153.121 199.897 152.858 200.533C152.595 201.168 152.209 201.746 151.723 202.232C151.236 202.718 150.658 203.103 150.022 203.365C149.387 203.628 148.705 203.762 148.017 203.76Z" fill="#263238"/>
<path d="M67.3095 150.423C67.1366 150.8 66.948 151.209 66.7358 151.547C66.1959 152.473 65.5293 153.32 64.7552 154.062C62.7583 156.056 60.3811 157.63 57.7647 158.688C55.1483 159.746 52.346 160.269 49.524 160.224C47.8453 160.197 46.1755 159.972 44.5491 159.556C40.841 158.623 37.4459 156.725 34.7093 154.054C33.4208 152.8 32.3221 151.365 31.4477 149.794C27.0562 141.789 25.2731 132.612 26.3471 123.545C26.3471 123.372 26.3864 123.207 26.4099 123.034C26.4061 122.976 26.4061 122.918 26.4099 122.861C26.4099 122.861 26.4099 122.806 26.4099 122.774C26.4099 122.554 26.4728 122.334 26.5043 122.114C26.9866 118.777 27.8516 115.507 29.0821 112.369C29.0821 112.369 29.0821 112.369 29.0821 112.329C29.5379 111.198 30.0252 110.113 30.5596 109.068C31.1704 107.864 31.85 106.696 32.5952 105.57C35.566 101.099 43.2838 98.9294 48.2115 102.623C51.536 105.107 52.8328 108.612 53.6108 112.306C53.7995 113.178 53.9488 114.058 54.0981 114.947C54.2789 116.023 54.4439 117.1 54.6247 118.153C54.7347 118.782 54.8526 119.411 54.994 120.024C54.994 120.024 54.994 120.094 54.994 120.126C55.8193 123.859 56.5659 127.05 59.2459 129.73C61.6037 132.088 64.1972 134.217 65.9184 137.078C68.119 140.56 69.2979 145.865 67.3095 150.423Z" fill="#263238"/>
<path d="M69.5022 142.438C68.9285 138.957 66.9558 136.104 64.4329 133.73C62.7825 132.331 61.25 130.799 59.851 129.148C58.6052 127.454 57.6124 125.587 56.9038 123.607C55.1433 118.939 54.4752 113.948 52.6755 109.296C52.6755 109.233 52.5733 109.296 52.589 109.296C55.0961 116.369 55.2848 124.731 60.5112 130.61C62.9868 133.4 66.1227 135.475 67.8124 138.902C69.5022 142.328 69.8008 146.195 67.8753 149.472C65.9498 152.75 62.3738 154.691 58.7664 155.76C58.6485 155.799 58.7035 156.003 58.8214 155.972C65.1324 154.534 70.6418 149.346 69.5022 142.438Z" fill="#263238"/>
<path d="M53.3118 159.705C52.1451 159.948 50.9637 160.113 49.7751 160.2C45.9256 160.567 42.0468 159.925 38.5207 158.337C37.4312 157.81 36.4032 157.165 35.4556 156.412C32.7512 154.211 30.6208 151.388 29.2468 148.183C27.4868 144.098 26.3936 139.757 26.0087 135.325C25.5724 130.951 25.7151 126.538 26.4332 122.2C26.7004 120.629 27.0462 119.002 27.4706 117.438C28.3074 114.319 29.4664 111.295 30.9286 108.415C30.9758 108.329 31.1173 108.415 31.078 108.478L30.8186 109.028C30.575 109.555 30.3471 110.081 30.1191 110.6C28.5451 114.269 27.4183 118.113 26.7633 122.051C26.7633 122.271 26.6846 122.491 26.6532 122.719C26.6532 122.719 26.6532 122.774 26.6532 122.806C26.6494 122.863 26.6494 122.921 26.6532 122.979C26.6061 123.269 26.5668 123.568 26.5353 123.867C25.4743 132.378 26.4253 141.841 30.465 149.448C30.5907 149.676 30.7164 149.904 30.85 150.124C32.8935 153.887 36.1756 156.828 40.1397 158.447C41.6314 159.005 43.1907 159.362 44.7766 159.508C47.6 159.72 50.4359 159.705 53.2568 159.461C53.2728 159.458 53.2893 159.457 53.3055 159.46C53.3217 159.463 53.3371 159.469 53.351 159.477C53.3648 159.486 53.3768 159.498 53.3863 159.511C53.3958 159.524 53.4025 159.539 53.4061 159.555C53.4097 159.571 53.4101 159.588 53.4074 159.604C53.4046 159.62 53.3986 159.636 53.3899 159.65C53.3811 159.664 53.3697 159.676 53.3563 159.685C53.3429 159.694 53.3278 159.701 53.3118 159.705Z" fill="#263238"/>
<path d="M63.726 131.977C62.2295 130.908 60.7893 129.761 59.4113 128.543C57.9834 126.99 56.932 125.129 56.3383 123.104C54.9237 119.065 53.7055 114.923 52.5659 110.797H52.5266C53.5876 114.671 54.5621 118.562 55.796 122.389C56.2719 124.118 56.9889 125.772 57.9259 127.301C58.8822 128.598 60.042 129.731 61.3604 130.657C64.2133 132.85 66.909 135.16 68.6931 138.335C70.6108 141.738 71.1923 145.825 69.5419 149.448H69.589C72.8035 142.98 68.8424 136.096 63.726 131.977Z" fill="#263238"/>
<path d="M32.8933 127.065C28.2485 129.808 11.0053 147.059 9.93648 157.441C8.73402 169.049 15.2415 186.411 16.6325 188.281C18.4245 190.694 33.2077 185.287 32.8855 181.553C32.4768 176.885 26.5588 161.339 27.0539 158.549C27.8398 154.321 33.9308 140.017 37.9154 131.042C40.226 125.879 36.4693 124.951 32.8933 127.065Z" fill="#F7A9A0"/>
<path d="M16.633 188.281C17.0338 189.735 19.6274 199.096 20.8613 201.422C22.0952 203.748 26.1427 210.209 28.0211 209.438C29.8994 208.668 28.8698 206.695 28.8698 206.695C28.8698 206.695 31.0154 209.147 32.7995 208.204C34.5835 207.261 32.9095 204.228 32.9095 204.228C32.9095 204.228 35.2672 206.585 37.0434 205.517C38.8196 204.448 36.564 201.681 36.564 201.681C36.564 201.681 38.6467 203.945 39.7077 202.467C40.9966 200.675 36.6976 196.966 35.5266 194.27C35.2594 193.657 31.0076 181.569 31.0076 181.569L16.633 188.281Z" fill="#F7A9A0"/>
<path d="M36.4222 202.003C33.2784 199.252 32.3589 197.5 31.18 193.555C31.18 193.538 31.1734 193.522 31.1616 193.51C31.1498 193.498 31.1338 193.492 31.1171 193.492C31.1004 193.492 31.0845 193.498 31.0727 193.51C31.0609 193.522 31.0543 193.538 31.0543 193.555C31.8402 197.484 32.6733 199.842 36.2964 202.137C36.4694 202.294 36.5715 202.137 36.4222 202.003Z" fill="#263238"/>
<path d="M32.8307 204.518C29.8049 201.375 28.8067 199.488 27.2663 195.441C27.2663 195.386 27.1484 195.441 27.1642 195.441C28.343 199.536 29.2154 201.87 32.6657 204.621C32.8071 204.77 32.9722 204.652 32.8307 204.518Z" fill="#263238"/>
<path d="M28.4295 206.562C25.7181 203.308 24.4999 201.28 23.5411 197.13C23.5359 197.115 23.5259 197.101 23.5125 197.091C23.4991 197.082 23.483 197.076 23.4664 197.076C23.4499 197.076 23.4337 197.082 23.4203 197.091C23.4069 197.101 23.3969 197.115 23.3918 197.13C23.7304 200.8 25.5008 204.188 28.3195 206.562C28.516 206.813 28.5946 206.766 28.4295 206.562Z" fill="#263238"/>
<path d="M32.2331 178.386C33.9106 180.275 35.4473 182.285 36.8308 184.399C37.9704 186.466 39.3772 195.724 37.3888 196.14C34.8345 196.683 32.964 191.495 32.3824 188.831C32.3824 188.831 26.4644 190.089 24.3188 186.654C22.1732 183.22 32.2331 178.386 32.2331 178.386Z" fill="#F7A9A0"/>
<path d="M36.65 196.062C33.9543 194.867 33.4199 191.346 32.6654 188.784C32.6545 188.746 32.6349 188.712 32.6084 188.683C32.5818 188.654 32.5489 188.632 32.5122 188.619C32.4756 188.605 32.4363 188.6 32.3974 188.604C32.3585 188.608 32.3211 188.621 32.2882 188.642C29.7732 189.004 26.1187 188.776 24.2875 186.811C24.2762 186.802 24.2622 186.798 24.2479 186.798C24.2336 186.798 24.2198 186.804 24.2088 186.813C24.1978 186.822 24.1902 186.834 24.1874 186.848C24.1846 186.863 24.1866 186.877 24.1932 186.89C25.8672 189.248 29.4431 189.782 32.1703 189.248C32.909 191.865 33.6007 195.393 36.6343 196.124C36.6579 196.093 36.6657 196.069 36.65 196.062Z" fill="#263238"/>
<path d="M9.32361 164.294C9.86359 170.317 10.9153 176.283 12.4673 182.127L32.9013 174.936C32.9013 174.936 27.6906 161.717 27.5649 159.54C27.3841 156.396 31.7224 146.32 36.21 136.654C39.8882 128.794 39.9746 124.299 35.1883 125.879C33.7207 126.416 32.3244 127.131 31.0308 128.008C22.2442 133.636 11.9564 147.562 9.76372 155.948C9.20053 158.692 9.05218 161.506 9.32361 164.294Z" fill="#FF006D"/>
<path d="M33.4515 132.755C33.45 132.829 33.4703 132.901 33.5099 132.963C33.5495 133.024 33.6067 133.073 33.674 133.102C33.7414 133.131 33.8159 133.14 33.888 133.126C33.9602 133.113 34.0267 133.079 34.0792 133.027C34.1316 132.976 34.1676 132.91 34.1825 132.838C34.1974 132.766 34.1906 132.692 34.1629 132.624C34.1352 132.556 34.0878 132.498 34.0269 132.457C33.966 132.416 33.8943 132.394 33.8209 132.394C33.7243 132.394 33.6315 132.432 33.5624 132.499C33.4934 132.567 33.4536 132.659 33.4515 132.755ZM27.4549 132.394C27.5283 132.394 27.6 132.416 27.6609 132.457C27.7218 132.498 27.7692 132.556 27.7969 132.624C27.8246 132.692 27.8314 132.766 27.8165 132.838C27.8016 132.91 27.7656 132.976 27.7132 133.027C27.6607 133.079 27.5942 133.113 27.522 133.126C27.4499 133.14 27.3754 133.131 27.308 133.102C27.2407 133.073 27.1836 133.024 27.1439 132.963C27.1043 132.901 27.084 132.829 27.0855 132.755C27.0876 132.659 27.1274 132.567 27.1965 132.499C27.2655 132.432 27.3583 132.394 27.4549 132.394ZM37.0039 127.678C37.077 127.678 37.1484 127.7 37.2091 127.741C37.2699 127.781 37.3172 127.839 37.3452 127.906C37.3731 127.974 37.3804 128.048 37.3662 128.12C37.3519 128.191 37.3168 128.257 37.2651 128.309C37.2134 128.361 37.1476 128.396 37.076 128.41C37.0043 128.424 36.93 128.417 36.8625 128.389C36.795 128.361 36.7374 128.314 36.6968 128.253C36.6562 128.192 36.6345 128.121 36.6345 128.048C36.6278 127.995 36.6323 127.942 36.6479 127.892C36.6634 127.841 36.6895 127.795 36.7245 127.755C36.7595 127.716 36.8026 127.684 36.8507 127.663C36.8989 127.642 36.9512 127.631 37.0039 127.631V127.678ZM27.4549 141.959C27.528 141.959 27.5994 141.98 27.6601 142.021C27.7209 142.061 27.7682 142.119 27.7962 142.187C27.8241 142.254 27.8315 142.328 27.8172 142.4C27.803 142.472 27.7678 142.537 27.7161 142.589C27.6645 142.641 27.5986 142.676 27.527 142.69C27.4553 142.704 27.3811 142.697 27.3136 142.669C27.2461 142.641 27.1884 142.594 27.1478 142.533C27.1072 142.472 27.0855 142.401 27.0855 142.328C27.0834 142.278 27.0914 142.228 27.109 142.182C27.1266 142.135 27.1535 142.092 27.188 142.056C27.2225 142.021 27.264 141.992 27.3098 141.972C27.3557 141.953 27.4051 141.943 27.4549 141.943V141.959ZM21.0889 141.959C21.162 141.959 21.2334 141.98 21.2942 142.021C21.3549 142.061 21.4022 142.119 21.4302 142.187C21.4581 142.254 21.4655 142.328 21.4512 142.4C21.437 142.472 21.4018 142.537 21.3501 142.589C21.2985 142.641 21.2326 142.676 21.161 142.69C21.0893 142.704 21.0151 142.697 20.9476 142.669C20.8801 142.641 20.8224 142.594 20.7818 142.533C20.7412 142.472 20.7196 142.401 20.7196 142.328C20.7174 142.278 20.7254 142.228 20.743 142.182C20.7606 142.135 20.7875 142.092 20.822 142.056C20.8565 142.021 20.898 141.992 20.9439 141.972C20.9897 141.953 21.0391 141.943 21.0889 141.943V141.959ZM30.6379 137.243C30.7113 137.243 30.783 137.265 30.8439 137.306C30.9048 137.347 30.9522 137.405 30.9799 137.473C31.0076 137.541 31.0144 137.615 30.9995 137.687C30.9846 137.759 30.9487 137.825 30.8962 137.876C30.8438 137.928 30.7772 137.962 30.705 137.976C30.6329 137.989 30.5584 137.98 30.491 137.951C30.4237 137.922 30.3666 137.874 30.3269 137.812C30.2873 137.75 30.267 137.678 30.2685 137.604C30.2662 137.553 30.2748 137.501 30.2939 137.453C30.3129 137.404 30.3419 137.361 30.379 137.324C30.4161 137.288 30.4604 137.26 30.5091 137.242C30.5577 137.224 30.6097 137.216 30.6615 137.219L30.6379 137.243ZM24.2719 137.243C24.3453 137.243 24.417 137.265 24.478 137.306C24.5389 137.347 24.5862 137.405 24.6139 137.473C24.6416 137.541 24.6484 137.615 24.6335 137.687C24.6186 137.759 24.5827 137.825 24.5302 137.876C24.4778 137.928 24.4112 137.962 24.3391 137.976C24.2669 137.989 24.1924 137.98 24.125 137.951C24.0577 137.922 24.0006 137.874 23.9609 137.812C23.9213 137.75 23.901 137.678 23.9025 137.604C23.9004 137.555 23.9084 137.505 23.926 137.458C23.9436 137.412 23.9705 137.369 24.005 137.333C24.0395 137.297 24.081 137.268 24.1268 137.249C24.1727 137.229 24.2221 137.219 24.2719 137.219V137.243ZM27.4549 151.515C27.528 151.515 27.5994 151.537 27.6601 151.578C27.7209 151.618 27.7682 151.676 27.7962 151.743C27.8241 151.811 27.8315 151.885 27.8172 151.957C27.803 152.028 27.7678 152.094 27.7161 152.146C27.6645 152.198 27.5986 152.233 27.527 152.247C27.4553 152.261 27.3811 152.254 27.3136 152.226C27.2461 152.198 27.1884 152.151 27.1478 152.09C27.1072 152.029 27.0855 151.958 27.0855 151.885C27.0823 151.834 27.0895 151.784 27.1066 151.736C27.1237 151.689 27.1504 151.645 27.185 151.608C27.2197 151.571 27.2615 151.542 27.3079 151.522C27.3543 151.502 27.4044 151.492 27.4549 151.492V151.515ZM21.0889 151.515C21.162 151.515 21.2334 151.537 21.2942 151.578C21.3549 151.618 21.4022 151.676 21.4302 151.743C21.4581 151.811 21.4655 151.885 21.4512 151.957C21.437 152.028 21.4018 152.094 21.3501 152.146C21.2985 152.198 21.2326 152.233 21.161 152.247C21.0893 152.261 21.0151 152.254 20.9476 152.226C20.8801 152.198 20.8224 152.151 20.7818 152.09C20.7412 152.029 20.7196 151.958 20.7196 151.885C20.7163 151.834 20.7235 151.784 20.7406 151.736C20.7577 151.689 20.7844 151.645 20.819 151.608C20.8537 151.571 20.8955 151.542 20.9419 151.522C20.9883 151.502 21.0384 151.492 21.0889 151.492V151.515ZM14.7229 151.515C14.796 151.515 14.8674 151.537 14.9282 151.578C14.9889 151.618 15.0363 151.676 15.0642 151.743C15.0922 151.811 15.0995 151.885 15.0852 151.957C15.071 152.028 15.0358 152.094 14.9841 152.146C14.9325 152.198 14.8667 152.233 14.795 152.247C14.7234 152.261 14.6491 152.254 14.5816 152.226C14.5141 152.198 14.4564 152.151 14.4158 152.09C14.3752 152.029 14.3536 151.958 14.3536 151.885C14.3503 151.834 14.3575 151.784 14.3746 151.736C14.3917 151.689 14.4184 151.645 14.453 151.608C14.4877 151.571 14.5295 151.542 14.5759 151.522C14.6223 151.502 14.6724 151.492 14.7229 151.492V151.515ZM30.6379 146.8C30.711 146.8 30.7824 146.821 30.8431 146.862C30.9039 146.903 30.9512 146.96 30.9792 147.028C31.0072 147.095 31.0145 147.17 31.0002 147.241C30.986 147.313 30.9508 147.379 30.8991 147.43C30.8474 147.482 30.7816 147.517 30.71 147.531C30.6383 147.546 30.564 147.538 30.4966 147.51C30.4291 147.483 30.3714 147.435 30.3308 147.374C30.2902 147.314 30.2685 147.242 30.2685 147.169C30.2639 147.116 30.2708 147.063 30.2888 147.012C30.3067 146.962 30.3354 146.916 30.3727 146.878C30.4101 146.84 30.4552 146.811 30.5051 146.792C30.5549 146.773 30.6083 146.765 30.6615 146.768L30.6379 146.8ZM24.2719 146.8C24.345 146.8 24.4164 146.821 24.4771 146.862C24.5379 146.903 24.5852 146.96 24.6132 147.028C24.6412 147.095 24.6485 147.17 24.6342 147.241C24.62 147.313 24.5848 147.379 24.5331 147.43C24.4815 147.482 24.4157 147.517 24.344 147.531C24.2723 147.546 24.1981 147.538 24.1306 147.51C24.0631 147.483 24.0054 147.435 23.9648 147.374C23.9242 147.314 23.9025 147.242 23.9025 147.169C23.8982 147.118 23.9045 147.067 23.9211 147.018C23.9377 146.97 23.9642 146.925 23.999 146.887C24.0337 146.85 24.0759 146.82 24.1229 146.799C24.1699 146.779 24.2207 146.768 24.2719 146.768V146.8ZM17.9059 146.8C18.0039 146.8 18.0978 146.839 18.1671 146.908C18.2364 146.977 18.2753 147.071 18.2753 147.169C18.2753 147.267 18.2364 147.361 18.1671 147.43C18.0978 147.5 18.0039 147.539 17.9059 147.539C17.808 147.539 17.714 147.5 17.6447 147.43C17.5755 147.361 17.5365 147.267 17.5365 147.169C17.5365 147.071 17.5755 146.977 17.6447 146.908C17.714 146.839 17.808 146.8 17.9059 146.8ZM27.4549 161.072C27.528 161.072 27.5994 161.094 27.6601 161.134C27.7209 161.175 27.7682 161.233 27.7962 161.3C27.8241 161.368 27.8315 161.442 27.8172 161.514C27.803 161.585 27.7678 161.651 27.7161 161.703C27.6645 161.754 27.5986 161.79 27.527 161.804C27.4553 161.818 27.3811 161.811 27.3136 161.783C27.2461 161.755 27.1884 161.708 27.1478 161.647C27.1072 161.586 27.0855 161.515 27.0855 161.442C27.0812 161.391 27.0875 161.339 27.1041 161.291C27.1207 161.242 27.1472 161.198 27.1819 161.16C27.2167 161.122 27.2589 161.092 27.3059 161.072C27.3529 161.051 27.4037 161.041 27.4549 161.041V161.072ZM21.0889 161.072C21.162 161.072 21.2334 161.094 21.2942 161.134C21.3549 161.175 21.4022 161.233 21.4302 161.3C21.4581 161.368 21.4655 161.442 21.4512 161.514C21.437 161.585 21.4018 161.651 21.3501 161.703C21.2985 161.754 21.2326 161.79 21.161 161.804C21.0893 161.818 21.0151 161.811 20.9476 161.783C20.8801 161.755 20.8224 161.708 20.7818 161.647C20.7412 161.586 20.7196 161.515 20.7196 161.442C20.7152 161.391 20.7215 161.339 20.7381 161.291C20.7547 161.242 20.7812 161.198 20.816 161.16C20.8507 161.122 20.8929 161.092 20.9399 161.072C20.9869 161.051 21.0377 161.041 21.0889 161.041V161.072ZM14.7229 161.072C14.796 161.072 14.8674 161.094 14.9282 161.134C14.9889 161.175 15.0363 161.233 15.0642 161.3C15.0922 161.368 15.0995 161.442 15.0852 161.514C15.071 161.585 15.0358 161.651 14.9841 161.703C14.9325 161.754 14.8667 161.79 14.795 161.804C14.7234 161.818 14.6491 161.811 14.5816 161.783C14.5141 161.755 14.4564 161.708 14.4158 161.647C14.3752 161.586 14.3536 161.515 14.3536 161.442C14.3492 161.391 14.3555 161.339 14.3721 161.291C14.3887 161.242 14.4152 161.198 14.45 161.16C14.4847 161.122 14.5269 161.092 14.5739 161.072C14.6209 161.051 14.6717 161.041 14.7229 161.041V161.072ZM24.2719 156.357C24.345 156.357 24.4164 156.378 24.4771 156.419C24.5379 156.459 24.5852 156.517 24.6132 156.585C24.6412 156.652 24.6485 156.726 24.6342 156.798C24.62 156.87 24.5848 156.936 24.5331 156.987C24.4815 157.039 24.4157 157.074 24.344 157.088C24.2723 157.103 24.1981 157.095 24.1306 157.067C24.0631 157.039 24.0054 156.992 23.9648 156.931C23.9242 156.871 23.9025 156.799 23.9025 156.726C23.897 156.674 23.9025 156.622 23.9185 156.573C23.9346 156.523 23.9609 156.478 23.9958 156.439C24.0307 156.4 24.0733 156.37 24.1209 156.349C24.1685 156.328 24.2199 156.317 24.2719 156.317V156.357ZM17.9059 156.357C18.0039 156.357 18.0978 156.396 18.1671 156.465C18.2364 156.534 18.2753 156.628 18.2753 156.726C18.2753 156.824 18.2364 156.918 18.1671 156.987C18.0978 157.057 18.0039 157.095 17.9059 157.095C17.808 157.095 17.714 157.057 17.6447 156.987C17.5755 156.918 17.5365 156.824 17.5365 156.726C17.5365 156.628 17.5755 156.534 17.6447 156.465C17.714 156.396 17.808 156.357 17.9059 156.357ZM11.5321 156.357C11.6055 156.355 11.6776 156.375 11.7394 156.415C11.8012 156.455 11.8497 156.512 11.8789 156.579C11.9081 156.646 11.9165 156.721 11.9032 156.793C11.8898 156.865 11.8553 156.932 11.8039 156.984C11.7526 157.037 11.6868 157.073 11.615 157.088C11.5431 157.103 11.4684 157.096 11.4005 157.068C11.3325 157.04 11.2744 156.993 11.2334 156.932C11.1925 156.871 11.1706 156.799 11.1706 156.726C11.1651 156.675 11.1703 156.623 11.1859 156.574C11.2015 156.526 11.2272 156.48 11.2612 156.442C11.2952 156.404 11.3369 156.373 11.3835 156.351C11.4302 156.33 11.4808 156.318 11.5321 156.317V156.357ZM27.4549 170.629C27.528 170.629 27.5994 170.651 27.6601 170.691C27.7209 170.732 27.7682 170.79 27.7962 170.857C27.8241 170.925 27.8315 170.999 27.8172 171.07C27.803 171.142 27.7678 171.208 27.7161 171.26C27.6645 171.311 27.5986 171.346 27.527 171.361C27.4553 171.375 27.3811 171.368 27.3136 171.34C27.2461 171.312 27.1884 171.264 27.1478 171.204C27.1072 171.143 27.0855 171.071 27.0855 170.998C27.08 170.947 27.0855 170.894 27.1015 170.845C27.1176 170.796 27.1439 170.75 27.1788 170.711C27.2137 170.673 27.2563 170.642 27.3039 170.621C27.3514 170.6 27.4029 170.589 27.4549 170.59V170.629ZM21.0889 170.629C21.162 170.629 21.2334 170.651 21.2942 170.691C21.3549 170.732 21.4022 170.79 21.4302 170.857C21.4581 170.925 21.4655 170.999 21.4512 171.07C21.437 171.142 21.4018 171.208 21.3501 171.26C21.2985 171.311 21.2326 171.346 21.161 171.361C21.0893 171.375 21.0151 171.368 20.9476 171.34C20.8801 171.312 20.8224 171.264 20.7818 171.204C20.7412 171.143 20.7196 171.071 20.7196 170.998C20.714 170.947 20.7195 170.894 20.7355 170.845C20.7516 170.796 20.7779 170.75 20.8128 170.711C20.8477 170.673 20.8903 170.642 20.9379 170.621C20.9855 170.6 21.0369 170.589 21.0889 170.59V170.629ZM14.7229 170.629C14.796 170.629 14.8674 170.651 14.9282 170.691C14.9889 170.732 15.0363 170.79 15.0642 170.857C15.0922 170.925 15.0995 170.999 15.0852 171.07C15.071 171.142 15.0358 171.208 14.9841 171.26C14.9325 171.311 14.8667 171.346 14.795 171.361C14.7234 171.375 14.6491 171.368 14.5816 171.34C14.5141 171.312 14.4564 171.264 14.4158 171.204C14.3752 171.143 14.3536 171.071 14.3536 170.998C14.348 170.947 14.3535 170.894 14.3695 170.845C14.3856 170.796 14.4119 170.75 14.4468 170.711C14.4817 170.673 14.5243 170.642 14.5719 170.621C14.6195 170.6 14.6709 170.589 14.7229 170.59V170.629ZM24.2719 165.914C24.345 165.914 24.4164 165.935 24.4771 165.976C24.5379 166.016 24.5852 166.074 24.6132 166.142C24.6412 166.209 24.6485 166.283 24.6342 166.355C24.62 166.427 24.5848 166.492 24.5331 166.544C24.4815 166.596 24.4157 166.631 24.344 166.645C24.2723 166.659 24.1981 166.652 24.1306 166.624C24.0631 166.596 24.0054 166.549 23.9648 166.488C23.9242 166.427 23.9025 166.356 23.9025 166.283C23.8958 166.231 23.9004 166.177 23.9159 166.127C23.9314 166.077 23.9575 166.03 23.9925 165.991C24.0275 165.951 24.0706 165.92 24.1188 165.898C24.167 165.877 24.2192 165.866 24.2719 165.866V165.914ZM17.9059 165.914C18.0039 165.914 18.0978 165.952 18.1671 166.022C18.2364 166.091 18.2753 166.185 18.2753 166.283C18.2753 166.381 18.2364 166.475 18.1671 166.544C18.0978 166.613 18.0039 166.652 17.9059 166.652C17.808 166.652 17.714 166.613 17.6447 166.544C17.5755 166.475 17.5365 166.381 17.5365 166.283C17.5365 166.185 17.5755 166.091 17.6447 166.022C17.714 165.952 17.808 165.914 17.9059 165.914ZM11.5321 165.914C11.6055 165.912 11.6776 165.932 11.7394 165.972C11.8012 166.012 11.8497 166.069 11.8789 166.136C11.9081 166.203 11.9165 166.278 11.9032 166.35C11.8898 166.422 11.8553 166.489 11.8039 166.541C11.7526 166.594 11.6868 166.63 11.615 166.644C11.5431 166.659 11.4684 166.653 11.4005 166.625C11.3325 166.597 11.2744 166.55 11.2334 166.489C11.1925 166.428 11.1706 166.356 11.1706 166.283C11.1639 166.231 11.1682 166.179 11.1833 166.129C11.1984 166.079 11.2238 166.033 11.258 165.994C11.2921 165.954 11.3342 165.923 11.3814 165.901C11.4287 165.879 11.48 165.867 11.5321 165.866V165.914ZM14.7229 180.194C14.796 180.194 14.8674 180.215 14.9282 180.256C14.9889 180.297 15.0363 180.354 15.0642 180.422C15.0922 180.489 15.0995 180.564 15.0852 180.635C15.071 180.707 15.0358 180.773 14.9841 180.824C14.9325 180.876 14.8667 180.911 14.795 180.925C14.7234 180.94 14.6491 180.932 14.5816 180.904C14.5141 180.876 14.4564 180.829 14.4158 180.768C14.3752 180.708 14.3536 180.636 14.3536 180.563C14.3468 180.511 14.3514 180.458 14.3669 180.407C14.3824 180.357 14.4086 180.31 14.4436 180.271C14.4785 180.231 14.5216 180.2 14.5698 180.178C14.618 180.157 14.6702 180.146 14.7229 180.147V180.194ZM24.2719 175.478C24.345 175.478 24.4164 175.5 24.4771 175.54C24.5379 175.581 24.5852 175.639 24.6132 175.706C24.6412 175.774 24.6485 175.848 24.6342 175.92C24.62 175.991 24.5848 176.057 24.5331 176.109C24.4815 176.16 24.4157 176.196 24.344 176.21C24.2723 176.224 24.1981 176.217 24.1306 176.189C24.0631 176.161 24.0054 176.114 23.9648 176.053C23.9242 175.992 23.9025 175.921 23.9025 175.848C23.8933 175.794 23.896 175.739 23.9103 175.687C23.9247 175.635 23.9504 175.586 23.9857 175.545C24.021 175.503 24.0649 175.47 24.1144 175.448C24.1639 175.426 24.2176 175.415 24.2719 175.415V175.478ZM17.9059 175.478C18.0039 175.478 18.0978 175.517 18.1671 175.586C18.2364 175.656 18.2753 175.75 18.2753 175.848C18.2753 175.946 18.2364 176.04 18.1671 176.109C18.0978 176.178 18.0039 176.217 17.9059 176.217C17.808 176.217 17.714 176.178 17.6447 176.109C17.5755 176.04 17.5365 175.946 17.5365 175.848C17.5365 175.75 17.5755 175.656 17.6447 175.586C17.714 175.517 17.808 175.478 17.9059 175.478ZM11.5321 175.478C11.6055 175.477 11.6776 175.497 11.7394 175.537C11.8012 175.576 11.8497 175.633 11.8789 175.701C11.9081 175.768 11.9165 175.843 11.9032 175.915C11.8898 175.987 11.8553 176.053 11.8039 176.106C11.7526 176.158 11.6868 176.194 11.615 176.209C11.5431 176.224 11.4684 176.217 11.4005 176.19C11.3325 176.162 11.2744 176.114 11.2334 176.054C11.1925 175.993 11.1706 175.921 11.1706 175.848C11.1614 175.795 11.1639 175.741 11.1778 175.689C11.1918 175.637 11.2168 175.589 11.2512 175.548C11.2856 175.507 11.3286 175.473 11.3771 175.451C11.4256 175.428 11.4785 175.416 11.5321 175.415V175.478Z" fill="white"/>
<path d="M9.32356 164.294C9.86354 170.317 10.9152 176.283 12.4673 182.127L32.9013 174.936C32.9013 174.936 27.6906 161.717 27.5649 159.54C27.3841 156.396 31.7224 146.32 36.21 136.654C39.8882 128.794 39.9746 124.299 35.1883 125.879L9.32356 164.294Z" fill="#263238"/>
<path d="M37.3576 126.672C37.4676 127.325 40.2733 131.679 43.2127 131.718C44.1715 131.718 44.478 126.507 44.478 126.507L44.5881 126.122L46.1599 120.794L40.0611 116.329L39.173 115.732C39.173 115.732 38.8508 117.218 38.4657 119.072C38.4428 119.16 38.4245 119.25 38.4107 119.34C38.3807 119.437 38.357 119.537 38.34 119.638C38.2771 119.913 38.2142 120.196 38.1592 120.479C38.1042 120.762 38.0728 120.904 38.0413 121.131C38.0099 121.359 37.9627 121.579 37.9156 121.807C37.6146 123.414 37.4282 125.039 37.3576 126.672Z" fill="#F7A9A0"/>
<path d="M38.4343 119.072C38.8822 120.629 39.6651 122.068 40.7282 123.29C41.7912 124.512 43.1086 125.487 44.5881 126.146L46.1599 120.817L40.0612 116.353L39.1731 115.756C39.1731 115.756 38.8194 117.218 38.4343 119.072Z" fill="#263238"/>
<path d="M53.1623 111.489C55.4257 120.92 50.0186 123.474 47.9595 123.867C46.089 124.228 39.7309 125.572 36.5007 116.385C33.2706 107.197 36.9644 103.15 41.1534 101.916C45.3423 100.682 50.8988 102.01 53.1623 111.489Z" fill="#F7A9A0"/>
<path d="M52.3688 109.901C52.1453 109.894 51.9223 109.876 51.7007 109.846C51.4631 109.861 51.2274 109.794 51.0327 109.657C50.9779 109.604 50.9426 109.534 50.9326 109.458C50.9226 109.383 50.9385 109.306 50.9777 109.241C51.0711 109.126 51.1926 109.038 51.3303 108.984C51.468 108.93 51.6173 108.913 51.7636 108.934C52.0774 108.94 52.3776 109.063 52.6046 109.28C52.652 109.33 52.6843 109.393 52.6978 109.461C52.7112 109.529 52.7054 109.599 52.6808 109.664C52.6562 109.729 52.6139 109.785 52.5587 109.827C52.5036 109.869 52.4378 109.894 52.3688 109.901Z" fill="#263238"/>
<path d="M46.1679 110.821C46.3879 110.766 46.5844 110.679 46.8044 110.608C47.0405 110.567 47.256 110.448 47.4174 110.27C47.4562 110.205 47.4726 110.129 47.4641 110.054C47.4556 109.979 47.4226 109.909 47.3702 109.854C47.2492 109.76 47.1051 109.7 46.953 109.681C46.801 109.661 46.6465 109.683 46.5058 109.744C46.2029 109.822 45.9397 110.01 45.7671 110.27C45.7296 110.333 45.7113 110.405 45.7145 110.477C45.7177 110.55 45.7422 110.62 45.785 110.678C45.8277 110.737 45.8869 110.782 45.955 110.807C46.0231 110.833 46.0971 110.837 46.1679 110.821Z" fill="#263238"/>
<path d="M47.9519 113.131C47.9519 113.131 47.9048 113.131 47.9519 113.202C48.0698 113.854 48.0934 114.616 47.5276 114.923C47.5276 114.923 47.5276 114.97 47.5276 114.923C48.227 114.75 48.1877 113.736 47.9519 113.131Z" fill="#263238"/>
<path d="M47.2839 112.534C46.215 112.612 46.4429 114.734 47.4332 114.672C48.4235 114.609 48.1799 112.471 47.2839 112.534Z" fill="#263238"/>
<path d="M46.8752 112.699C46.7023 112.84 46.5452 113.068 46.3251 113.115C46.105 113.162 45.8457 112.966 45.6492 112.77C45.6885 113.178 45.8929 113.555 46.333 113.555C46.7731 113.555 46.9853 113.178 47.0403 112.77C47.0246 112.738 46.946 112.636 46.8752 112.699Z" fill="#263238"/>
<path d="M51.3943 112.471C51.3943 112.471 51.4493 112.471 51.4493 112.526C51.4965 113.186 51.6615 113.933 52.2744 114.098C52.2744 114.098 52.2744 114.137 52.2744 114.098C51.5357 114.106 51.3314 113.108 51.3943 112.471Z" fill="#263238"/>
<path d="M51.881 111.724C52.9341 111.536 53.2328 113.658 52.2583 113.831C51.2837 114.003 51.0322 111.913 51.881 111.724Z" fill="#263238"/>
<path d="M52.3765 111.803C52.5573 111.889 52.7538 112.07 52.9581 112.054C53.1625 112.038 53.3275 111.787 53.4454 111.543C53.4454 111.543 53.4454 111.543 53.4847 111.543C53.5476 111.952 53.4847 112.392 53.0996 112.526C52.7145 112.659 52.4394 112.329 52.3137 111.944C52.2586 111.913 52.3058 111.763 52.3765 111.803Z" fill="#263238"/>
<path d="M48.2347 118.2C48.3683 118.373 48.4862 118.609 48.722 118.672C48.9673 118.706 49.2171 118.685 49.4529 118.609C49.3396 118.724 49.197 118.806 49.0405 118.847C48.8841 118.887 48.7196 118.883 48.5648 118.837C48.4362 118.782 48.327 118.69 48.2513 118.572C48.1757 118.454 48.137 118.317 48.1404 118.177C48.1562 118.153 48.2112 118.153 48.2347 118.2Z" fill="#263238"/>
<path d="M50.8993 115.599C50.8993 115.599 51.1508 116.565 51.2058 117.029C51.2058 117.076 51.1037 117.108 50.9465 117.139C50.5571 117.259 50.1423 117.27 49.7473 117.17C49.3524 117.07 48.9924 116.864 48.7066 116.573C48.6973 116.565 48.6916 116.553 48.6909 116.541C48.6901 116.528 48.6944 116.516 48.7027 116.506C48.7111 116.497 48.7228 116.491 48.7353 116.491C48.7478 116.49 48.7602 116.494 48.7695 116.502C49.4104 116.833 50.1405 116.949 50.8522 116.833C50.8522 116.707 50.3649 115.198 50.4356 115.182C50.8006 115.167 51.1657 115.204 51.5202 115.292C51.0487 113.264 50.2549 111.323 49.8226 109.296C49.8164 109.28 49.8166 109.262 49.8232 109.247C49.8299 109.232 49.8424 109.219 49.858 109.213C49.8736 109.207 49.8911 109.207 49.9066 109.214C49.9221 109.22 49.9343 109.233 49.9405 109.248C50.8531 111.3 51.5561 113.438 52.0389 115.63C52.0861 115.889 51.0958 115.654 50.8993 115.599Z" fill="#263238"/>
<path d="M50.8833 116.872C50.6795 117.294 50.371 117.656 49.9873 117.925C49.7721 118.063 49.5198 118.132 49.2643 118.121C48.7063 118.121 48.5884 117.611 48.6041 117.171C48.6124 116.94 48.6466 116.71 48.7063 116.487C49.3722 116.845 50.1351 116.979 50.8833 116.872Z" fill="#263238"/>
<path d="M49.9873 117.925C49.7721 118.063 49.5197 118.131 49.2643 118.121C48.7063 118.121 48.5884 117.611 48.6041 117.171C48.8858 117.124 49.1748 117.173 49.4254 117.31C49.676 117.447 49.8738 117.663 49.9873 117.925Z" fill="#FF98B9"/>
<path d="M36.6661 116.07C37.7114 115.858 40.0456 112.565 39.409 107.464C39.409 107.464 39.6684 112.086 39.409 112.809C39.1497 113.532 40.7136 110.954 40.2578 106.836C41.6812 107.573 43.203 108.103 44.7768 108.408C46.7888 108.675 47.9755 108.494 48.0934 108.329C48.2113 108.164 45.2327 107.677 44.3367 106.899C44.3367 106.899 49.8382 108.565 52.196 108.408C52.471 108.408 51.9995 102.694 47.9913 100.815C43.9831 98.9371 38.5209 102.348 37.1691 104.077C37.1691 104.077 35.3694 104.596 33.7582 107.598C32.1471 110.6 35.5423 116.298 36.6661 116.07Z" fill="#263238"/>
<path d="M2.29766 287.842L17.576 290.891L27.5729 292.887C27.5729 292.887 37.8528 250.911 39.5975 232.788C41.2401 215.6 43.6765 188.454 40.4306 163.729H21.0812C19.4386 166.597 11.4144 176.822 15.6426 193.083C16.2399 195.386 14.8567 216.299 12.7268 230.493C10.7227 243.681 2.29766 287.842 2.29766 287.842Z" fill="#37474F"/>
<path d="M17.576 290.891L27.5729 292.887C27.5729 292.887 37.8528 250.911 39.5975 232.788C41.2401 215.6 43.6765 188.454 40.4306 163.729H33.5931C30.3629 187.157 21.0969 265.427 17.576 290.891Z" fill="#263238"/>
<path d="M1.80287 291.465C1.55137 293.037 1.3156 294.591 1.09554 296.126C0.961929 297.069 0.836189 297.988 0.710442 298.876C-0.0754852 304.598 -0.515606 309.015 -0.0754852 309.408C1.26845 310.618 40.7927 317.558 42.2781 317.346C43.7635 317.134 43.2134 312.937 41.893 311.443C41.1071 310.54 35.6056 306.728 31.448 303.828C28.768 301.989 26.6303 300.543 26.6303 300.543L27.5184 295.906L31.7781 274.866L5.31596 270.308C5.31596 270.308 3.3983 281.177 1.80287 291.465Z" fill="#EBEBEB"/>
<path d="M30.1197 299.34C27.9191 297.768 24.8147 296.778 22.1819 297.634C22.0797 297.634 22.1348 297.815 22.2212 297.823C24.8595 298.148 27.4549 298.757 29.9625 299.638C30.0005 299.649 30.0408 299.646 30.0768 299.63C30.1128 299.614 30.1425 299.587 30.1608 299.552C30.1791 299.517 30.185 299.477 30.1775 299.439C30.1701 299.4 30.1497 299.365 30.1197 299.34Z" fill="#263238"/>
<path d="M30.4883 297.171C28.2956 295.599 25.1833 294.617 22.5584 295.473C22.4562 295.473 22.5033 295.646 22.5584 295.662C25.1982 295.988 27.7959 296.594 30.3076 297.47C30.3472 297.494 30.3947 297.501 30.4396 297.49C30.4846 297.479 30.5233 297.45 30.5473 297.411C30.5713 297.371 30.5785 297.324 30.5675 297.279C30.5564 297.234 30.5279 297.195 30.4883 297.171Z" fill="#263238"/>
<path d="M30.8581 295.033C28.6654 293.461 25.561 292.471 22.9281 293.328C22.8259 293.328 22.8731 293.508 22.9281 293.516C25.5662 293.842 28.1616 294.451 30.6695 295.332C30.7091 295.357 30.757 295.365 30.8027 295.355C30.8484 295.344 30.8881 295.316 30.9131 295.277C30.9382 295.237 30.9464 295.189 30.9361 295.143C30.9258 295.098 30.8977 295.058 30.8581 295.033Z" fill="#263238"/>
<path d="M31.2352 292.848C29.0425 291.277 25.9302 290.286 23.3052 291.143C23.2031 291.143 23.2502 291.316 23.3052 291.332C25.946 291.657 28.5441 292.265 31.0544 293.147C31.074 293.159 31.0958 293.167 31.1184 293.17C31.1411 293.174 31.1642 293.173 31.1865 293.167C31.2087 293.162 31.2297 293.152 31.2482 293.138C31.2666 293.125 31.2822 293.108 31.2941 293.088C31.306 293.068 31.3139 293.047 31.3173 293.024C31.3208 293.001 31.3198 292.978 31.3143 292.956C31.3088 292.934 31.299 292.913 31.2854 292.894C31.2719 292.876 31.2548 292.86 31.2352 292.848Z" fill="#263238"/>
<path d="M31.6045 290.679C29.4118 289.107 26.3073 288.117 23.6745 288.974C23.5723 288.974 23.6195 289.155 23.7138 289.17C26.3509 289.497 28.9459 290.103 31.4552 290.978C31.4748 290.988 31.4961 290.993 31.518 290.995C31.5399 290.997 31.5618 290.994 31.5826 290.987C31.6034 290.98 31.6226 290.969 31.6392 290.955C31.6558 290.94 31.6694 290.923 31.6792 290.903C31.689 290.884 31.6948 290.862 31.6964 290.84C31.6979 290.818 31.6951 290.796 31.6882 290.776C31.6813 290.755 31.6703 290.736 31.6559 290.719C31.6416 290.703 31.6241 290.689 31.6045 290.679Z" fill="#263238"/>
<path d="M-0.445232 309.581C0.497879 310.917 20.4289 314.438 33.1374 316.387C38.9689 317.275 43.2679 317.841 43.5194 317.707C44.3054 317.267 44.2582 313.102 41.7511 310.013C40.36 308.3 33.2238 303.443 29.9622 301.234L28.2803 300.126L31.1175 286.765L31.7305 283.873L32.3672 280.863C31.5419 280.863 3.51582 275.88 3.51582 275.88C3.51582 275.88 3.31935 277.059 3.01284 278.977C2.87137 279.818 2.71418 280.808 2.54128 281.9C1.06374 291.182 -1.4355 308.174 -0.445232 309.581Z" fill="#FF006D"/>
<path d="M-0.887758 309.473L44.2812 317.259L43.846 319.784L-1.32297 311.998L-0.887758 309.473Z" fill="#263238"/>
<path opacity="0.1" d="M2.51801 281.869L31.0943 286.734L31.7073 283.842L2.98957 278.945C2.8481 279.786 2.69091 280.777 2.51801 281.869Z" fill="black"/>
<path d="M29.9386 301.234L33.1374 316.387C38.9689 317.275 43.2679 317.841 43.5194 317.707C44.3054 317.267 44.2582 313.101 41.7511 310.013C40.36 308.299 33.2238 303.442 29.9386 301.234Z" fill="#263238"/>
<path d="M30.4571 192.203C30.4571 192.203 33.9624 218.012 35.2356 231.004C35.5499 234.242 35.9272 270.772 35.9272 278.796V284.58C35.9272 291.992 35.9272 297.257 35.9272 297.257H62.1771C62.1771 297.257 62.1771 297.014 62.1771 296.558C62.1771 296.306 62.1771 296.008 62.1771 295.646C62.1771 295.285 62.1771 294.86 62.1771 294.365C62.1771 294.082 62.1771 293.776 62.1771 293.461C62.1771 291.245 62.2556 288.188 62.3107 284.62C62.3107 282.796 62.3657 280.839 62.3893 278.796C62.5857 262.904 56.9978 177.184 51.5828 163.737H23.3917C23.3917 163.737 18.8097 179.542 30.4571 192.203Z" fill="#37474F"/>
<path d="M21.3561 186.214C23.4467 187.385 25.5294 188.572 27.6435 189.758C28.6731 190.34 29.7262 190.882 30.7872 191.44C31.8482 191.998 32.9563 192.493 33.9938 193.099C34.0038 193.107 34.0108 193.119 34.0138 193.132C34.0168 193.145 34.0155 193.159 34.0103 193.171C34.0051 193.183 33.9961 193.193 33.9846 193.2C33.9732 193.207 33.9599 193.21 33.9466 193.209C32.744 192.91 31.5688 192.51 30.4335 192.014C29.3338 191.562 28.2583 191.053 27.2112 190.489C25.0751 189.357 23.0939 187.955 21.3168 186.316C21.2303 186.261 21.2932 186.174 21.3561 186.214Z" fill="#263238"/>
<path d="M46.8515 164.373C48.879 172.564 50.4195 180.867 51.4649 189.24C52.5102 197.689 53.2018 206.2 53.9641 214.68C55.536 231.751 56.8485 248.852 57.2336 265.993C57.4537 275.59 57.2729 285.201 56.6677 294.774C56.6677 294.853 56.542 294.853 56.542 294.774C57.0528 277.743 56.542 260.673 55.4181 243.689C54.8758 235.13 54.1842 226.587 53.4297 218.044C52.6752 209.501 51.9679 201.131 51.0719 192.69C50.1468 183.196 48.6349 173.768 46.545 164.46C46.5393 164.44 46.5377 164.419 46.5401 164.398C46.5426 164.377 46.5491 164.357 46.5593 164.339C46.5695 164.321 46.5833 164.304 46.5997 164.292C46.6161 164.279 46.6349 164.269 46.655 164.263C46.6752 164.258 46.6962 164.256 46.717 164.258C46.7377 164.261 46.7578 164.267 46.7761 164.278C46.7943 164.288 46.8104 164.302 46.8233 164.318C46.8363 164.334 46.8458 164.353 46.8515 164.373Z" fill="#263238"/>
<path d="M35.9742 300.251C35.9742 301.823 36.0293 303.434 36.0764 304.967C36.0764 305.918 36.1314 306.845 36.1629 307.741C36.3593 313.518 36.6658 317.958 37.1688 318.249C38.6935 319.224 78.8228 319.342 80.2454 318.878C81.6679 318.414 80.4183 314.375 78.87 313.125C77.919 312.339 71.8753 309.518 67.2855 307.396C64.3304 306.036 61.9805 304.975 61.9805 304.975L62.1062 300.259L62.735 278.803H35.8799C35.8799 278.803 35.7935 289.846 35.9742 300.251Z" fill="#EBEBEB"/>
<path d="M65.2427 303.199C62.8142 302.028 59.5762 301.581 57.132 302.869C57.0377 302.916 57.132 303.05 57.2027 303.05C59.8579 302.924 62.519 303.082 65.1406 303.522C65.1799 303.525 65.2194 303.515 65.2523 303.494C65.2853 303.472 65.3098 303.439 65.3218 303.402C65.3337 303.364 65.3324 303.323 65.318 303.287C65.3036 303.25 65.2771 303.219 65.2427 303.199Z" fill="#263238"/>
<path d="M65.2418 301.006C62.8132 299.835 59.5752 299.379 57.131 300.676C57.0366 300.723 57.1309 300.857 57.2017 300.857C59.8566 300.724 62.5181 300.88 65.1396 301.32C65.1813 301.334 65.2266 301.33 65.2657 301.31C65.3048 301.291 65.3343 301.256 65.3479 301.214C65.3614 301.173 65.3578 301.127 65.3379 301.088C65.318 301.049 65.2834 301.02 65.2418 301.006Z" fill="#263238"/>
<path d="M65.2427 298.806C62.8142 297.635 59.5762 297.187 57.132 298.476C57.0377 298.523 57.132 298.664 57.2027 298.656C59.8579 298.53 62.519 298.688 65.1406 299.128C65.1799 299.131 65.2194 299.122 65.2523 299.1C65.2853 299.078 65.3098 299.046 65.3218 299.008C65.3337 298.97 65.3324 298.93 65.318 298.893C65.3036 298.856 65.2771 298.825 65.2427 298.806Z" fill="#263238"/>
<path d="M65.2418 296.605C62.8132 295.434 59.5752 294.979 57.131 296.275C57.0366 296.322 57.1309 296.456 57.2017 296.456C59.8566 296.328 62.5177 296.483 65.1396 296.92C65.1602 296.926 65.182 296.929 65.2036 296.927C65.2253 296.926 65.2464 296.92 65.2657 296.91C65.285 296.9 65.3023 296.886 65.3164 296.87C65.3305 296.853 65.3412 296.834 65.3479 296.814C65.3546 296.793 65.3571 296.771 65.3554 296.75C65.3537 296.728 65.3478 296.707 65.3379 296.688C65.3281 296.668 65.3145 296.651 65.298 296.637C65.2815 296.623 65.2624 296.612 65.2418 296.605Z" fill="#263238"/>
<path d="M65.2427 294.412C62.8142 293.249 59.5762 292.793 57.132 294.082C57.0377 294.137 57.132 294.271 57.2027 294.263C59.8579 294.137 62.519 294.295 65.1406 294.734C65.1799 294.738 65.2194 294.728 65.2523 294.706C65.2853 294.685 65.3098 294.652 65.3218 294.615C65.3337 294.577 65.3324 294.536 65.318 294.499C65.3036 294.463 65.2771 294.432 65.2427 294.412Z" fill="#263238"/>
<path d="M34.9923 284.58C34.9923 284.58 34.9923 285.704 34.9923 287.535C34.9923 288.384 34.9923 289.382 34.9923 290.498C35.1337 299.882 35.5503 317.22 36.7763 318.485C38.4582 320.175 80.7881 319.585 81.4797 319.019C82.1713 318.454 81.4247 314.367 78.4382 311.742C76.2533 309.84 63.4585 304.291 63.4585 304.291L63.9772 290.498L64.0951 287.535L64.2051 284.58C63.4506 284.714 34.9923 284.58 34.9923 284.58Z" fill="#FF006D"/>
<path d="M36.3675 318.438H82.2026V321H36.3675V318.438Z" fill="#263238"/>
<path opacity="0.1" d="M35.0157 287.536C35.0157 288.384 35.0157 289.383 35.0157 290.498H64.0398L64.1577 287.536H35.0157Z" fill="black"/>
<path d="M53.2099 153.567L55.8113 170.472L15.4777 170.205C15.4777 170.205 23.4312 137.982 31.8799 127.859C34.9764 124.15 41.2638 125.006 44.5018 128.527C47.8892 132.213 54.4123 140.505 55.2375 145.118C55.9449 149.181 53.2099 153.567 53.2099 153.567Z" fill="#FF006D"/>
<path d="M46.1835 132.755C46.182 132.829 46.2023 132.901 46.2419 132.963C46.2816 133.024 46.3387 133.073 46.406 133.102C46.4734 133.131 46.5479 133.14 46.6201 133.126C46.6922 133.113 46.7588 133.079 46.8112 133.027C46.8637 132.976 46.8996 132.91 46.9145 132.838C46.9294 132.766 46.9226 132.692 46.8949 132.624C46.8672 132.556 46.8198 132.498 46.7589 132.457C46.698 132.416 46.6263 132.394 46.5529 132.394C46.4563 132.394 46.3635 132.432 46.2945 132.499C46.2254 132.567 46.1856 132.659 46.1835 132.755ZM40.1869 132.394C40.2603 132.394 40.332 132.416 40.3929 132.457C40.4539 132.498 40.5012 132.556 40.5289 132.624C40.5566 132.692 40.5634 132.766 40.5485 132.838C40.5336 132.91 40.4977 132.976 40.4452 133.027C40.3928 133.079 40.3262 133.113 40.2541 133.126C40.1819 133.14 40.1074 133.131 40.04 133.102C39.9727 133.073 39.9156 133.024 39.8759 132.963C39.8363 132.901 39.816 132.829 39.8175 132.755C39.8196 132.659 39.8594 132.567 39.9285 132.499C39.9975 132.432 40.0903 132.394 40.1869 132.394ZM33.8209 132.394C33.8943 132.394 33.9661 132.416 34.027 132.457C34.0879 132.498 34.1352 132.556 34.1629 132.624C34.1906 132.692 34.1974 132.766 34.1825 132.838C34.1676 132.91 34.1317 132.976 34.0792 133.027C34.0268 133.079 33.9602 133.113 33.8881 133.126C33.8159 133.14 33.7414 133.131 33.674 133.102C33.6067 133.073 33.5496 133.024 33.5099 132.963C33.4703 132.901 33.45 132.829 33.4515 132.755C33.4535 132.661 33.4911 132.572 33.5568 132.505C33.6225 132.437 33.7113 132.398 33.8052 132.394H33.8209ZM43.3699 127.678C43.443 127.678 43.5144 127.7 43.5751 127.741C43.6359 127.781 43.6832 127.839 43.7112 127.906C43.7391 127.974 43.7465 128.048 43.7322 128.12C43.718 128.191 43.6828 128.257 43.6311 128.309C43.5795 128.361 43.5136 128.396 43.442 128.41C43.3703 128.424 43.2961 128.417 43.2286 128.389C43.1611 128.361 43.1034 128.314 43.0628 128.253C43.0222 128.192 43.0005 128.121 43.0005 128.048C42.9938 127.995 42.9984 127.942 43.0139 127.892C43.0294 127.841 43.0555 127.795 43.0905 127.755C43.1255 127.716 43.1686 127.684 43.2168 127.663C43.265 127.642 43.3172 127.631 43.3699 127.631V127.678ZM37.0039 127.678C37.077 127.678 37.1484 127.7 37.2091 127.741C37.2699 127.781 37.3172 127.839 37.3452 127.906C37.3731 127.974 37.3805 128.048 37.3662 128.12C37.352 128.191 37.3168 128.257 37.2651 128.309C37.2135 128.361 37.1476 128.396 37.076 128.41C37.0043 128.424 36.9301 128.417 36.8626 128.389C36.7951 128.361 36.7374 128.314 36.6968 128.253C36.6562 128.192 36.6346 128.121 36.6346 128.048C36.6278 127.995 36.6324 127.942 36.6479 127.892C36.6634 127.841 36.6895 127.795 36.7245 127.755C36.7595 127.716 36.8026 127.684 36.8508 127.663C36.899 127.642 36.9512 127.631 37.0039 127.631V127.678ZM52.9268 141.959C52.9998 141.959 53.0712 141.98 53.132 142.021C53.1927 142.061 53.2401 142.119 53.268 142.187C53.296 142.254 53.3033 142.328 53.289 142.4C53.2748 142.472 53.2396 142.537 53.188 142.589C53.1363 142.641 53.0705 142.676 52.9988 142.69C52.9272 142.704 52.8529 142.697 52.7854 142.669C52.7179 142.641 52.6602 142.594 52.6196 142.533C52.579 142.472 52.5574 142.401 52.5574 142.328C52.5552 142.278 52.5632 142.228 52.5809 142.182C52.5985 142.135 52.6253 142.092 52.6599 142.057C52.6944 142.021 52.7358 141.992 52.7817 141.972C52.8275 141.953 52.8769 141.943 52.9268 141.943V141.959ZM46.5529 141.959C46.626 141.959 46.6974 141.98 46.7581 142.021C46.8189 142.061 46.8662 142.119 46.8942 142.187C46.9222 142.254 46.9295 142.328 46.9152 142.4C46.901 142.472 46.8658 142.537 46.8141 142.589C46.7625 142.641 46.6966 142.676 46.625 142.69C46.5533 142.704 46.479 142.697 46.4116 142.669C46.3441 142.641 46.2864 142.594 46.2458 142.533C46.2052 142.472 46.1835 142.401 46.1835 142.328C46.1814 142.278 46.1894 142.228 46.207 142.182C46.2246 142.135 46.2515 142.092 46.286 142.057C46.3205 142.021 46.362 141.992 46.4078 141.972C46.4537 141.953 46.5031 141.943 46.5529 141.943V141.959ZM40.1869 141.959C40.26 141.959 40.3314 141.98 40.3921 142.021C40.4529 142.061 40.5002 142.119 40.5282 142.187C40.5562 142.254 40.5635 142.328 40.5492 142.4C40.535 142.472 40.4998 142.537 40.4481 142.589C40.3965 142.641 40.3306 142.676 40.259 142.69C40.1873 142.704 40.1131 142.697 40.0456 142.669C39.9781 142.641 39.9204 142.594 39.8798 142.533C39.8392 142.472 39.8175 142.401 39.8175 142.328C39.8154 142.278 39.8234 142.228 39.841 142.182C39.8586 142.135 39.8855 142.092 39.92 142.057C39.9545 142.021 39.996 141.992 40.0418 141.972C40.0877 141.953 40.1371 141.943 40.1869 141.943V141.959ZM33.8209 141.959C33.894 141.959 33.9654 141.98 34.0262 142.021C34.0869 142.061 34.1342 142.119 34.1622 142.187C34.1902 142.254 34.1975 142.328 34.1832 142.4C34.169 142.472 34.1338 142.537 34.0821 142.589C34.0305 142.641 33.9647 142.676 33.893 142.69C33.8213 142.704 33.7471 142.697 33.6796 142.669C33.6121 142.641 33.5544 142.594 33.5138 142.533C33.4732 142.472 33.4515 142.401 33.4515 142.328C33.4494 142.279 33.4569 142.231 33.4736 142.185C33.4902 142.14 33.5157 142.098 33.5485 142.062C33.5814 142.026 33.621 141.997 33.665 141.977C33.709 141.956 33.7567 141.945 33.8052 141.943L33.8209 141.959ZM27.455 141.959C27.528 141.959 27.5994 141.98 27.6602 142.021C27.7209 142.061 27.7683 142.119 27.7962 142.187C27.8242 142.254 27.8315 142.328 27.8172 142.4C27.803 142.472 27.7678 142.537 27.7161 142.589C27.6645 142.641 27.5987 142.676 27.527 142.69C27.4554 142.704 27.3811 142.697 27.3136 142.669C27.2461 142.641 27.1884 142.594 27.1478 142.533C27.1072 142.472 27.0856 142.401 27.0856 142.328C27.0835 142.278 27.0914 142.228 27.109 142.182C27.1266 142.135 27.1535 142.092 27.188 142.057C27.2225 142.021 27.264 141.992 27.3099 141.972C27.3557 141.953 27.4051 141.943 27.455 141.943V141.959ZM49.7359 137.243C49.8096 137.241 49.8821 137.262 49.944 137.302C50.006 137.342 50.0545 137.4 50.0834 137.467C50.1124 137.535 50.1203 137.61 50.1063 137.682C50.0923 137.755 50.057 137.821 50.0049 137.873C49.9528 137.926 49.8862 137.961 49.8139 137.975C49.7415 137.989 49.6665 137.981 49.5987 137.952C49.5309 137.923 49.4733 137.875 49.4334 137.813C49.3934 137.751 49.3728 137.678 49.3744 137.605C49.3723 137.555 49.38 137.506 49.3971 137.46C49.4143 137.414 49.4405 137.372 49.4741 137.336C49.5078 137.3 49.5483 137.271 49.5933 137.251C49.6382 137.231 49.6867 137.22 49.7359 137.219V137.243ZM43.3699 137.243C43.4433 137.243 43.515 137.265 43.5759 137.306C43.6368 137.347 43.6842 137.405 43.7119 137.473C43.7396 137.541 43.7464 137.616 43.7315 137.687C43.7166 137.759 43.6806 137.825 43.6282 137.876C43.5757 137.928 43.5092 137.962 43.437 137.976C43.3649 137.989 43.2904 137.98 43.223 137.951C43.1557 137.922 43.0986 137.874 43.0589 137.812C43.0193 137.75 42.999 137.678 43.0005 137.605C42.9984 137.555 43.0064 137.505 43.024 137.458C43.0416 137.412 43.0685 137.369 43.103 137.333C43.1375 137.297 43.179 137.268 43.2248 137.249C43.2707 137.229 43.3201 137.219 43.3699 137.219V137.243ZM37.0039 137.243C37.0773 137.243 37.149 137.265 37.2099 137.306C37.2708 137.347 37.3182 137.405 37.3459 137.473C37.3736 137.541 37.3804 137.616 37.3655 137.687C37.3506 137.759 37.3147 137.825 37.2622 137.876C37.2098 137.928 37.1432 137.962 37.071 137.976C36.9989 137.989 36.9244 137.98 36.857 137.951C36.7897 137.922 36.7326 137.874 36.693 137.812C36.6533 137.75 36.633 137.678 36.6346 137.605C36.6324 137.555 36.6404 137.505 36.658 137.458C36.6756 137.412 36.7025 137.369 36.737 137.333C36.7715 137.297 36.813 137.268 36.8589 137.249C36.9047 137.229 36.9541 137.219 37.0039 137.219V137.243ZM30.6379 137.243C30.7113 137.243 30.783 137.265 30.8439 137.306C30.9048 137.347 30.9522 137.405 30.9799 137.473C31.0076 137.541 31.0145 137.616 30.9996 137.687C30.9847 137.759 30.9487 137.825 30.8962 137.876C30.8438 137.928 30.7772 137.962 30.7051 137.976C30.6329 137.989 30.5584 137.98 30.4911 137.951C30.4237 137.922 30.3666 137.874 30.327 137.812C30.2873 137.75 30.267 137.678 30.2686 137.605C30.2662 137.553 30.2749 137.501 30.2939 137.453C30.3129 137.404 30.3419 137.361 30.379 137.324C30.4161 137.288 30.4604 137.26 30.5091 137.242C30.5578 137.224 30.6097 137.216 30.6615 137.219L30.6379 137.243ZM52.9268 151.515C52.9998 151.515 53.0712 151.537 53.132 151.578C53.1927 151.618 53.2401 151.676 53.268 151.743C53.296 151.811 53.3033 151.885 53.289 151.957C53.2748 152.028 53.2396 152.094 53.188 152.146C53.1363 152.198 53.0705 152.233 52.9988 152.247C52.9272 152.261 52.8529 152.254 52.7854 152.226C52.7179 152.198 52.6602 152.151 52.6196 152.09C52.579 152.029 52.5574 151.958 52.5574 151.885C52.5541 151.834 52.5613 151.784 52.5784 151.736C52.5955 151.689 52.6222 151.645 52.6569 151.608C52.6915 151.571 52.7333 151.542 52.7798 151.522C52.8262 151.502 52.8762 151.492 52.9268 151.492V151.515ZM46.5529 151.515C46.626 151.515 46.6974 151.537 46.7581 151.578C46.8189 151.618 46.8662 151.676 46.8942 151.743C46.9222 151.811 46.9295 151.885 46.9152 151.957C46.901 152.028 46.8658 152.094 46.8141 152.146C46.7625 152.198 46.6966 152.233 46.625 152.247C46.5533 152.261 46.479 152.254 46.4116 152.226C46.3441 152.198 46.2864 152.151 46.2458 152.09C46.2052 152.029 46.1835 151.958 46.1835 151.885C46.1803 151.834 46.1875 151.784 46.2046 151.736C46.2217 151.689 46.2484 151.645 46.283 151.608C46.3176 151.571 46.3595 151.542 46.4059 151.522C46.4523 151.502 46.5024 151.492 46.5529 151.492V151.515ZM40.1869 151.515C40.26 151.515 40.3314 151.537 40.3921 151.578C40.4529 151.618 40.5002 151.676 40.5282 151.743C40.5562 151.811 40.5635 151.885 40.5492 151.957C40.535 152.028 40.4998 152.094 40.4481 152.146C40.3965 152.198 40.3306 152.233 40.259 152.247C40.1873 152.261 40.1131 152.254 40.0456 152.226C39.9781 152.198 39.9204 152.151 39.8798 152.09C39.8392 152.029 39.8175 151.958 39.8175 151.885C39.8143 151.834 39.8215 151.784 39.8386 151.736C39.8557 151.689 39.8824 151.645 39.917 151.608C39.9517 151.571 39.9935 151.542 40.0399 151.522C40.0863 151.502 40.1364 151.492 40.1869 151.492V151.515ZM33.8209 151.515C33.894 151.515 33.9654 151.537 34.0262 151.578C34.0869 151.618 34.1342 151.676 34.1622 151.743C34.1902 151.811 34.1975 151.885 34.1832 151.957C34.169 152.028 34.1338 152.094 34.0821 152.146C34.0305 152.198 33.9647 152.233 33.893 152.247C33.8213 152.261 33.7471 152.254 33.6796 152.226C33.6121 152.198 33.5544 152.151 33.5138 152.09C33.4732 152.029 33.4515 151.958 33.4515 151.885C33.4484 151.836 33.4551 151.786 33.4712 151.74C33.4874 151.693 33.5127 151.65 33.5456 151.614C33.5786 151.577 33.6185 151.548 33.6631 151.527C33.7077 151.506 33.756 151.494 33.8052 151.492L33.8209 151.515ZM27.455 151.515C27.528 151.515 27.5994 151.537 27.6602 151.578C27.7209 151.618 27.7683 151.676 27.7962 151.743C27.8242 151.811 27.8315 151.885 27.8172 151.957C27.803 152.028 27.7678 152.094 27.7161 152.146C27.6645 152.198 27.5987 152.233 27.527 152.247C27.4554 152.261 27.3811 152.254 27.3136 152.226C27.2461 152.198 27.1884 152.151 27.1478 152.09C27.1072 152.029 27.0856 151.958 27.0856 151.885C27.0823 151.834 27.0895 151.784 27.1066 151.736C27.1237 151.689 27.1504 151.645 27.1851 151.608C27.2197 151.571 27.2615 151.542 27.3079 151.522C27.3544 151.502 27.4044 151.492 27.455 151.492V151.515ZM21.089 151.515C21.162 151.515 21.2334 151.537 21.2942 151.578C21.3549 151.618 21.4023 151.676 21.4302 151.743C21.4582 151.811 21.4655 151.885 21.4512 151.957C21.437 152.028 21.4018 152.094 21.3502 152.146C21.2985 152.198 21.2327 152.233 21.161 152.247C21.0894 152.261 21.0151 152.254 20.9476 152.226C20.8801 152.198 20.8224 152.151 20.7818 152.09C20.7412 152.029 20.7196 151.958 20.7196 151.885C20.7164 151.834 20.7235 151.784 20.7406 151.736C20.7577 151.689 20.7844 151.645 20.8191 151.608C20.8537 151.571 20.8955 151.542 20.9419 151.522C20.9884 151.502 21.0384 151.492 21.089 151.492V151.515ZM49.7359 146.8C49.8093 146.798 49.8815 146.819 49.9432 146.858C50.005 146.898 50.0536 146.955 50.0827 147.022C50.1119 147.09 50.1203 147.164 50.107 147.236C50.0936 147.309 50.0591 147.375 50.0078 147.428C49.9564 147.48 49.8906 147.516 49.8188 147.531C49.7469 147.546 49.6723 147.539 49.6043 147.511C49.5363 147.483 49.4782 147.436 49.4372 147.375C49.3963 147.314 49.3744 147.243 49.3744 147.169C49.3701 147.119 49.3762 147.068 49.3923 147.02C49.4084 146.972 49.4342 146.928 49.4681 146.89C49.502 146.853 49.5433 146.823 49.5894 146.802C49.6354 146.781 49.6853 146.769 49.7359 146.768V146.8ZM43.3699 146.8C43.443 146.8 43.5144 146.822 43.5751 146.862C43.6359 146.903 43.6832 146.96 43.7112 147.028C43.7391 147.095 43.7465 147.17 43.7322 147.241C43.718 147.313 43.6828 147.379 43.6311 147.43C43.5795 147.482 43.5136 147.517 43.442 147.532C43.3703 147.546 43.2961 147.538 43.2286 147.51C43.1611 147.483 43.1034 147.435 43.0628 147.374C43.0222 147.314 43.0005 147.242 43.0005 147.169C42.9962 147.118 43.0025 147.067 43.0191 147.018C43.0357 146.97 43.0622 146.925 43.0969 146.887C43.1317 146.85 43.1739 146.82 43.2209 146.799C43.2679 146.779 43.3187 146.768 43.3699 146.768V146.8ZM37.0039 146.8C37.077 146.8 37.1484 146.822 37.2091 146.862C37.2699 146.903 37.3172 146.96 37.3452 147.028C37.3731 147.095 37.3805 147.17 37.3662 147.241C37.352 147.313 37.3168 147.379 37.2651 147.43C37.2135 147.482 37.1476 147.517 37.076 147.532C37.0043 147.546 36.9301 147.538 36.8626 147.51C36.7951 147.483 36.7374 147.435 36.6968 147.374C36.6562 147.314 36.6346 147.242 36.6346 147.169C36.6302 147.118 36.6365 147.067 36.6531 147.018C36.6697 146.97 36.6962 146.925 36.731 146.887C36.7657 146.85 36.8079 146.82 36.8549 146.799C36.9019 146.779 36.9527 146.768 37.0039 146.768V146.8ZM30.6379 146.8C30.711 146.8 30.7824 146.822 30.8432 146.862C30.9039 146.903 30.9513 146.96 30.9792 147.028C31.0072 147.095 31.0145 147.17 31.0002 147.241C30.986 147.313 30.9508 147.379 30.8991 147.43C30.8475 147.482 30.7817 147.517 30.71 147.532C30.6384 147.546 30.5641 147.538 30.4966 147.51C30.4291 147.483 30.3714 147.435 30.3308 147.374C30.2902 147.314 30.2686 147.242 30.2686 147.169C30.2639 147.116 30.2708 147.063 30.2888 147.012C30.3068 146.962 30.3354 146.916 30.3728 146.878C30.4101 146.84 30.4552 146.811 30.5051 146.792C30.5549 146.773 30.6083 146.765 30.6615 146.768L30.6379 146.8ZM24.2719 146.8C24.345 146.8 24.4164 146.822 24.4772 146.862C24.5379 146.903 24.5853 146.96 24.6132 147.028C24.6412 147.095 24.6485 147.17 24.6342 147.241C24.62 147.313 24.5848 147.379 24.5331 147.43C24.4815 147.482 24.4157 147.517 24.344 147.532C24.2724 147.546 24.1981 147.538 24.1306 147.51C24.0631 147.483 24.0054 147.435 23.9648 147.374C23.9242 147.314 23.9026 147.242 23.9026 147.169C23.8982 147.118 23.9045 147.067 23.9211 147.018C23.9377 146.97 23.9642 146.925 23.999 146.887C24.0337 146.85 24.0759 146.82 24.1229 146.799C24.1699 146.779 24.2207 146.768 24.2719 146.768V146.8ZM52.9268 161.072C52.9998 161.072 53.0712 161.094 53.132 161.135C53.1927 161.175 53.2401 161.233 53.268 161.3C53.296 161.368 53.3033 161.442 53.289 161.514C53.2748 161.585 53.2396 161.651 53.188 161.703C53.1363 161.754 53.0705 161.79 52.9988 161.804C52.9272 161.818 52.8529 161.811 52.7854 161.783C52.7179 161.755 52.6602 161.708 52.6196 161.647C52.579 161.586 52.5574 161.515 52.5574 161.442C52.553 161.391 52.5593 161.339 52.5759 161.291C52.5925 161.242 52.619 161.198 52.6538 161.16C52.6885 161.122 52.7307 161.092 52.7777 161.072C52.8247 161.051 52.8755 161.041 52.9268 161.041V161.072ZM46.5529 161.072C46.626 161.072 46.6974 161.094 46.7581 161.135C46.8189 161.175 46.8662 161.233 46.8942 161.3C46.9222 161.368 46.9295 161.442 46.9152 161.514C46.901 161.585 46.8658 161.651 46.8141 161.703C46.7625 161.754 46.6966 161.79 46.625 161.804C46.5533 161.818 46.479 161.811 46.4116 161.783C46.3441 161.755 46.2864 161.708 46.2458 161.647C46.2052 161.586 46.1835 161.515 46.1835 161.442C46.1792 161.391 46.1855 161.339 46.2021 161.291C46.2187 161.242 46.2452 161.198 46.28 161.16C46.3147 161.122 46.3569 161.092 46.4039 161.072C46.4509 161.051 46.5016 161.041 46.5529 161.041V161.072ZM40.1869 161.072C40.26 161.072 40.3314 161.094 40.3921 161.135C40.4529 161.175 40.5002 161.233 40.5282 161.3C40.5562 161.368 40.5635 161.442 40.5492 161.514C40.535 161.585 40.4998 161.651 40.4481 161.703C40.3965 161.754 40.3306 161.79 40.259 161.804C40.1873 161.818 40.1131 161.811 40.0456 161.783C39.9781 161.755 39.9204 161.708 39.8798 161.647C39.8392 161.586 39.8175 161.515 39.8175 161.442C39.8132 161.391 39.8195 161.339 39.8361 161.291C39.8527 161.242 39.8792 161.198 39.914 161.16C39.9487 161.122 39.9909 161.092 40.0379 161.072C40.0849 161.051 40.1357 161.041 40.1869 161.041V161.072ZM33.8209 161.072C33.894 161.072 33.9654 161.094 34.0262 161.135C34.0869 161.175 34.1342 161.233 34.1622 161.3C34.1902 161.368 34.1975 161.442 34.1832 161.514C34.169 161.585 34.1338 161.651 34.0821 161.703C34.0305 161.754 33.9647 161.79 33.893 161.804C33.8213 161.818 33.7471 161.811 33.6796 161.783C33.6121 161.755 33.5544 161.708 33.5138 161.647C33.4732 161.586 33.4515 161.515 33.4515 161.442C33.4473 161.392 33.4531 161.342 33.4688 161.294C33.4844 161.247 33.5095 161.203 33.5426 161.166C33.5756 161.128 33.616 161.098 33.6611 161.076C33.7063 161.055 33.7553 161.043 33.8052 161.041L33.8209 161.072ZM27.455 161.072C27.528 161.072 27.5994 161.094 27.6602 161.135C27.7209 161.175 27.7683 161.233 27.7962 161.3C27.8242 161.368 27.8315 161.442 27.8172 161.514C27.803 161.585 27.7678 161.651 27.7161 161.703C27.6645 161.754 27.5987 161.79 27.527 161.804C27.4554 161.818 27.3811 161.811 27.3136 161.783C27.2461 161.755 27.1884 161.708 27.1478 161.647C27.1072 161.586 27.0856 161.515 27.0856 161.442C27.0812 161.391 27.0875 161.339 27.1041 161.291C27.1207 161.242 27.1472 161.198 27.182 161.16C27.2167 161.122 27.2589 161.092 27.3059 161.072C27.3529 161.051 27.4037 161.041 27.455 161.041V161.072ZM21.089 161.072C21.162 161.072 21.2334 161.094 21.2942 161.135C21.3549 161.175 21.4023 161.233 21.4302 161.3C21.4582 161.368 21.4655 161.442 21.4512 161.514C21.437 161.585 21.4018 161.651 21.3502 161.703C21.2985 161.754 21.2327 161.79 21.161 161.804C21.0894 161.818 21.0151 161.811 20.9476 161.783C20.8801 161.755 20.8224 161.708 20.7818 161.647C20.7412 161.586 20.7196 161.515 20.7196 161.442C20.7152 161.391 20.7215 161.339 20.7381 161.291C20.7547 161.242 20.7812 161.198 20.816 161.16C20.8507 161.122 20.893 161.092 20.9399 161.072C20.9869 161.051 21.0377 161.041 21.089 161.041V161.072ZM49.7359 156.357C49.8093 156.355 49.8815 156.375 49.9432 156.415C50.005 156.455 50.0536 156.512 50.0827 156.579C50.1119 156.647 50.1203 156.721 50.107 156.793C50.0936 156.865 50.0591 156.932 50.0078 156.984C49.9564 157.037 49.8906 157.073 49.8188 157.088C49.7469 157.103 49.6723 157.096 49.6043 157.068C49.5363 157.04 49.4782 156.993 49.4372 156.932C49.3963 156.871 49.3744 156.799 49.3744 156.726C49.3689 156.675 49.3742 156.623 49.3898 156.574C49.4054 156.526 49.431 156.48 49.465 156.442C49.499 156.404 49.5407 156.373 49.5873 156.351C49.634 156.33 49.6846 156.318 49.7359 156.317V156.357ZM43.3699 156.357C43.443 156.357 43.5144 156.378 43.5751 156.419C43.6359 156.46 43.6832 156.517 43.7112 156.585C43.7391 156.652 43.7465 156.726 43.7322 156.798C43.718 156.87 43.6828 156.936 43.6311 156.987C43.5795 157.039 43.5136 157.074 43.442 157.088C43.3703 157.103 43.2961 157.095 43.2286 157.067C43.1611 157.039 43.1034 156.992 43.0628 156.931C43.0222 156.871 43.0005 156.799 43.0005 156.726C42.995 156.674 43.0005 156.622 43.0165 156.573C43.0326 156.523 43.0589 156.478 43.0938 156.439C43.1287 156.401 43.1713 156.37 43.2189 156.349C43.2664 156.328 43.3179 156.317 43.3699 156.317V156.357ZM37.0039 156.357C37.077 156.357 37.1484 156.378 37.2091 156.419C37.2699 156.46 37.3172 156.517 37.3452 156.585C37.3731 156.652 37.3805 156.726 37.3662 156.798C37.352 156.87 37.3168 156.936 37.2651 156.987C37.2135 157.039 37.1476 157.074 37.076 157.088C37.0043 157.103 36.9301 157.095 36.8626 157.067C36.7951 157.039 36.7374 156.992 36.6968 156.931C36.6562 156.871 36.6346 156.799 36.6346 156.726C36.629 156.674 36.6345 156.622 36.6505 156.573C36.6666 156.523 36.6929 156.478 36.7278 156.439C36.7627 156.401 36.8053 156.37 36.8529 156.349C36.9005 156.328 36.9519 156.317 37.0039 156.317V156.357ZM30.6379 156.357C30.711 156.357 30.7824 156.378 30.8432 156.419C30.9039 156.46 30.9513 156.517 30.9792 156.585C31.0072 156.652 31.0145 156.726 31.0002 156.798C30.986 156.87 30.9508 156.936 30.8991 156.987C30.8475 157.039 30.7817 157.074 30.71 157.088C30.6384 157.103 30.5641 157.095 30.4966 157.067C30.4291 157.039 30.3714 156.992 30.3308 156.931C30.2902 156.871 30.2686 156.799 30.2686 156.726C30.2627 156.672 30.2687 156.618 30.2861 156.567C30.3035 156.516 30.332 156.469 30.3695 156.43C30.407 156.391 30.4525 156.361 30.503 156.341C30.5535 156.322 30.6076 156.314 30.6615 156.317L30.6379 156.357ZM24.2719 156.357C24.345 156.357 24.4164 156.378 24.4772 156.419C24.5379 156.46 24.5853 156.517 24.6132 156.585C24.6412 156.652 24.6485 156.726 24.6342 156.798C24.62 156.87 24.5848 156.936 24.5331 156.987C24.4815 157.039 24.4157 157.074 24.344 157.088C24.2724 157.103 24.1981 157.095 24.1306 157.067C24.0631 157.039 24.0054 156.992 23.9648 156.931C23.9242 156.871 23.9026 156.799 23.9026 156.726C23.897 156.674 23.9025 156.622 23.9186 156.573C23.9346 156.523 23.9609 156.478 23.9958 156.439C24.0307 156.401 24.0733 156.37 24.1209 156.349C24.1685 156.328 24.2199 156.317 24.2719 156.317V156.357ZM49.7359 165.906C49.8093 165.904 49.8815 165.924 49.9432 165.964C50.005 166.004 50.0536 166.061 50.0827 166.128C50.1119 166.196 50.1203 166.27 50.107 166.342C50.0936 166.414 50.0591 166.481 50.0078 166.533C49.9564 166.586 49.8906 166.622 49.8188 166.637C49.7469 166.652 49.6723 166.645 49.6043 166.617C49.5363 166.589 49.4782 166.542 49.4372 166.481C49.3963 166.42 49.3744 166.348 49.3744 166.275C49.3689 166.224 49.3742 166.172 49.3898 166.123C49.4054 166.075 49.431 166.029 49.465 165.991C49.499 165.953 49.5407 165.922 49.5873 165.9C49.634 165.879 49.6846 165.867 49.7359 165.866V165.906ZM43.3699 165.906C43.443 165.906 43.5144 165.927 43.5751 165.968C43.6359 166.009 43.6832 166.066 43.7112 166.134C43.7391 166.201 43.7465 166.275 43.7322 166.347C43.718 166.419 43.6828 166.485 43.6311 166.536C43.5795 166.588 43.5136 166.623 43.442 166.637C43.3703 166.652 43.2961 166.644 43.2286 166.616C43.1611 166.588 43.1034 166.541 43.0628 166.48C43.0222 166.42 43.0005 166.348 43.0005 166.275C42.995 166.223 43.0005 166.171 43.0165 166.122C43.0326 166.072 43.0589 166.027 43.0938 165.988C43.1287 165.95 43.1713 165.919 43.2189 165.898C43.2664 165.877 43.3179 165.866 43.3699 165.866V165.906ZM37.0039 165.906C37.077 165.906 37.1484 165.927 37.2091 165.968C37.2699 166.009 37.3172 166.066 37.3452 166.134C37.3731 166.201 37.3805 166.275 37.3662 166.347C37.352 166.419 37.3168 166.485 37.2651 166.536C37.2135 166.588 37.1476 166.623 37.076 166.637C37.0043 166.652 36.9301 166.644 36.8626 166.616C36.7951 166.588 36.7374 166.541 36.6968 166.48C36.6562 166.42 36.6346 166.348 36.6346 166.275C36.629 166.223 36.6345 166.171 36.6505 166.122C36.6666 166.072 36.6929 166.027 36.7278 165.988C36.7627 165.95 36.8053 165.919 36.8529 165.898C36.9005 165.877 36.9519 165.866 37.0039 165.866V165.906ZM30.6379 165.906C30.711 165.906 30.7824 165.927 30.8432 165.968C30.9039 166.009 30.9513 166.066 30.9792 166.134C31.0072 166.201 31.0145 166.275 31.0002 166.347C30.986 166.419 30.9508 166.485 30.8991 166.536C30.8475 166.588 30.7817 166.623 30.71 166.637C30.6384 166.652 30.5641 166.644 30.4966 166.616C30.4291 166.588 30.3714 166.541 30.3308 166.48C30.2902 166.42 30.2686 166.348 30.2686 166.275C30.2627 166.221 30.2687 166.167 30.2861 166.116C30.3035 166.065 30.332 166.018 30.3695 165.979C30.407 165.94 30.4525 165.91 30.503 165.89C30.5535 165.871 30.6076 165.863 30.6615 165.866L30.6379 165.906ZM24.2719 165.906C24.345 165.906 24.4164 165.927 24.4772 165.968C24.5379 166.009 24.5853 166.066 24.6132 166.134C24.6412 166.201 24.6485 166.275 24.6342 166.347C24.62 166.419 24.5848 166.485 24.5331 166.536C24.4815 166.588 24.4157 166.623 24.344 166.637C24.2724 166.652 24.1981 166.644 24.1306 166.616C24.0631 166.588 24.0054 166.541 23.9648 166.48C23.9242 166.42 23.9026 166.348 23.9026 166.275C23.897 166.223 23.9025 166.171 23.9186 166.122C23.9346 166.072 23.9609 166.027 23.9958 165.988C24.0307 165.95 24.0733 165.919 24.1209 165.898C24.1685 165.877 24.2199 165.866 24.2719 165.866V165.906ZM17.906 165.906C18.0039 165.906 18.0979 165.945 18.1671 166.014C18.2364 166.083 18.2753 166.177 18.2753 166.275C18.2753 166.373 18.2364 166.467 18.1671 166.536C18.0979 166.606 18.0039 166.644 17.906 166.644C17.808 166.644 17.714 166.606 17.6448 166.536C17.5755 166.467 17.5366 166.373 17.5366 166.275C17.5366 166.177 17.5755 166.083 17.6448 166.014C17.714 165.945 17.808 165.906 17.906 165.906Z" fill="white"/>
<path d="M17.0654 167.886C18.2364 167.768 19.4232 167.784 20.6021 167.753L24.2173 167.682C26.6301 167.635 29.035 167.603 31.4478 167.58C36.297 167.532 41.154 167.415 46.0032 167.58C47.3707 167.627 48.7382 167.666 50.0978 167.721C51.4575 167.776 52.8329 167.894 54.2004 167.925C54.2076 167.925 54.2147 167.927 54.2214 167.93C54.2281 167.932 54.2342 167.936 54.2393 167.942C54.2444 167.947 54.2484 167.953 54.2512 167.959C54.254 167.966 54.2554 167.973 54.2554 167.98C54.2554 167.988 54.254 167.995 54.2512 168.002C54.2484 168.008 54.2444 168.014 54.2393 168.019C54.2342 168.024 54.2281 168.029 54.2214 168.031C54.2147 168.034 54.2076 168.035 54.2004 168.035C52.9665 168.035 51.7247 168.09 50.4829 168.106L46.962 168.145C44.5571 168.145 42.1469 168.145 39.7315 168.145C34.9138 168.145 30.1039 168.043 25.2862 168.02H21.1836C19.824 168.02 18.4408 168.075 17.089 167.98C17.0104 167.988 16.9947 167.894 17.0654 167.886Z" fill="#263238"/>
<path d="M39.1336 133.762C41.8607 138.202 52.4943 149.103 60.4086 151.217C67.3483 153.056 84.1434 146.03 89.4091 143.138C91.3818 142.061 85.6367 125.407 83.3732 126.217C80.3317 127.301 64.1731 136.591 62.4598 136.033C60.7465 135.475 47.8574 129.691 44.8394 128.276C37.9704 125.054 35.0389 127.089 39.1336 133.762Z" fill="#F7A9A0"/>
<path d="M82.7683 126.586C82.7683 126.586 91.5314 121.925 93.3547 120.872C97.0171 118.758 112.146 114.829 114.025 114.986C115.903 115.143 117.766 118.798 105.301 123.348C105.301 123.348 107.981 128.849 106.346 131.341C105.293 132.976 101.104 138.964 99.1549 139.719C96.9464 140.576 89.4094 143.138 89.4094 143.138L82.7683 126.586Z" fill="#F7A9A0"/>
<path d="M95.296 124.55C95.4532 124.55 103.108 122.192 105.882 122.428C108.657 122.664 110.692 126.523 110.598 127.568C110.504 128.613 108.987 135.097 106.212 134.893C103.438 134.689 105.482 129.777 105.427 129.195C105.372 128.613 105.309 127.867 104.782 127.883C104.256 127.898 94.7616 131.576 94.7616 131.576L95.296 124.55Z" fill="#F7A9A0"/>
<path d="M96.0584 127.073C96.2156 127.073 103.918 124.715 106.653 124.951C109.388 125.187 111.463 129.046 111.368 130.099C111.274 131.152 109.796 137.62 106.983 137.416C104.169 137.212 106.252 132.3 106.197 131.718C106.142 131.136 106.087 130.39 105.56 130.405C105.034 130.421 95.5396 134.099 95.5396 134.099L96.0584 127.073Z" fill="#F7A9A0"/>
<path d="M96.035 128.567C96.1922 128.606 104.114 127.364 106.818 128.024C109.521 128.685 110.983 132.74 110.748 133.801C110.512 134.862 108.06 141.008 105.34 140.403C102.621 139.797 105.34 135.239 105.388 134.65C105.435 134.06 105.474 133.314 104.947 133.259C104.421 133.204 94.4946 135.443 94.4946 135.443L96.035 128.567Z" fill="#F7A9A0"/>
<path d="M94.526 131.082C97.1353 130.579 100.09 129.793 102.841 130.296C105.592 130.799 107.329 134.744 107.172 135.797C107.014 136.85 105.002 143.185 102.244 142.768C99.4852 142.352 101.906 137.613 101.882 137.023C101.859 136.434 101.882 135.695 101.348 135.671C100.813 135.648 91.0758 138.595 91.0758 138.595L94.526 131.082Z" fill="#F7A9A0"/>
<path d="M97.3158 122.405C98.6828 121.966 100.118 121.777 101.552 121.847C102.45 121.865 103.345 121.946 104.232 122.091C105.543 122.273 106.816 122.663 108.004 123.246C108.083 123.293 108.099 123.387 108.004 123.348C106.783 122.946 105.52 122.682 104.24 122.562C103.336 122.468 102.432 122.397 101.52 122.35C100.112 122.294 98.7023 122.336 97.3001 122.476C97.3001 122.476 97.2922 122.413 97.3158 122.405Z" fill="#263238"/>
<path d="M97.4261 124.912C99.8487 124.672 102.289 124.672 104.712 124.912C105.93 124.984 107.117 125.319 108.193 125.894C108.688 126.17 110.315 127.254 110.661 127.969C110.661 128.056 110.614 128.111 110.559 128.04C109.694 127.308 108.731 126.699 107.698 126.232C106.529 125.766 105.298 125.472 104.044 125.36C101.862 125.122 99.6678 125.017 97.4733 125.046C97.4654 125.022 97.1746 124.928 97.4261 124.912Z" fill="#263238"/>
<path d="M97.8893 127.458C100.355 127.496 102.814 127.722 105.246 128.134C106.566 128.297 107.809 128.843 108.822 129.706C109.757 130.614 110.438 131.753 110.794 133.007C110.794 133.078 110.723 133.133 110.684 133.062C110.152 131.947 109.398 130.952 108.468 130.138C107.383 129.301 106.1 128.759 104.743 128.567C102.472 128.114 100.171 127.833 97.8579 127.726C97.4649 127.631 97.52 127.458 97.8893 127.458Z" fill="#263238"/>
<path d="M98.6049 130.154C99.5402 130.335 102.016 130.83 102.928 131.066C103.773 131.2 104.578 131.519 105.285 132.001C105.842 132.532 106.311 133.147 106.676 133.824C107.117 134.483 107.412 135.228 107.541 136.009C107.753 137.778 106.252 139.082 105.419 140.473C105.38 140.536 105.277 140.473 105.317 140.403C105.749 139.679 106.103 138.909 106.472 138.147C106.878 137.432 107.025 136.6 106.889 135.789C106.681 135.072 106.352 134.397 105.914 133.793C105.561 133.118 105.042 132.544 104.405 132.127C103.646 131.805 102.856 131.563 102.047 131.404C101.261 131.199 99.7445 130.806 98.9428 130.618C97.2845 130.217 96.813 129.808 98.6049 130.154Z" fill="#263238"/>
<path d="M94.0227 137.691C95.4926 137.71 96.9588 137.539 98.3846 137.18C98.9986 137 99.5956 136.766 100.169 136.481C100.758 136.225 101.292 135.856 101.74 135.396C101.752 135.389 101.767 135.386 101.781 135.387C101.795 135.389 101.808 135.395 101.818 135.405C101.828 135.415 101.834 135.428 101.836 135.442C101.837 135.456 101.834 135.471 101.827 135.483C101.447 135.935 101.023 136.348 100.562 136.717C101.324 137.182 102.15 137.534 103.014 137.762C103.092 137.762 103.061 137.88 103.014 137.88C102.753 137.92 102.488 137.92 102.228 137.88C101.955 137.82 101.69 137.725 101.442 137.597C101.059 137.407 100.7 137.172 100.373 136.897C99.8255 137.256 99.2227 137.521 98.5889 137.683C97.0769 138.02 95.5164 138.078 93.9834 137.856C93.9726 137.854 93.9623 137.849 93.9533 137.842C93.9443 137.836 93.9366 137.828 93.9308 137.818C93.925 137.809 93.921 137.798 93.9193 137.787C93.9175 137.776 93.9179 137.765 93.9205 137.754C93.9231 137.743 93.9278 137.733 93.9343 137.724C93.9408 137.715 93.9491 137.707 93.9586 137.701C93.9681 137.696 93.9786 137.692 93.9896 137.69C94.0006 137.688 94.0118 137.689 94.0227 137.691Z" fill="#263238"/>
<path d="M84.8902 124.149L89.48 147.413C89.48 147.413 68.7316 153.26 61.5954 151.948C54.4592 150.635 44.2029 141.77 39.4559 134.657C34.7089 127.545 36.3986 123.733 45.8926 127.875C55.3866 132.017 61.6111 134.241 62.5856 134.406C63.5602 134.571 84.8902 124.149 84.8902 124.149Z" fill="#FF006D"/>
<path d="M84.3873 132.755C84.3857 132.829 84.406 132.901 84.4457 132.963C84.4853 133.024 84.5424 133.073 84.6098 133.102C84.6771 133.131 84.7516 133.14 84.8238 133.126C84.8959 133.113 84.9625 133.079 85.0149 133.027C85.0674 132.976 85.1034 132.91 85.1183 132.838C85.1332 132.766 85.1263 132.692 85.0986 132.624C85.0709 132.556 85.0236 132.498 84.9627 132.457C84.9018 132.416 84.83 132.394 84.7567 132.394C84.66 132.394 84.5673 132.432 84.4982 132.499C84.4292 132.567 84.3893 132.659 84.3873 132.755ZM78.3907 132.394C78.4641 132.394 78.5358 132.416 78.5967 132.457C78.6576 132.498 78.7049 132.556 78.7326 132.624C78.7603 132.692 78.7672 132.766 78.7523 132.838C78.7374 132.91 78.7014 132.976 78.649 133.027C78.5965 133.079 78.53 133.113 78.4578 133.126C78.3856 133.14 78.3111 133.131 78.2438 133.102C78.1764 133.073 78.1193 133.024 78.0797 132.963C78.04 132.901 78.0197 132.829 78.0213 132.755C78.0233 132.659 78.0632 132.567 78.1322 132.499C78.2013 132.432 78.2941 132.394 78.3907 132.394ZM72.0247 132.394C72.0981 132.394 72.1698 132.416 72.2307 132.457C72.2916 132.498 72.3389 132.556 72.3666 132.624C72.3943 132.692 72.4012 132.766 72.3863 132.838C72.3714 132.91 72.3354 132.976 72.283 133.027C72.2305 133.079 72.164 133.113 72.0918 133.126C72.0197 133.14 71.9451 133.131 71.8778 133.102C71.8105 133.073 71.7533 133.024 71.7137 132.963C71.6741 132.901 71.6537 132.829 71.6553 132.755C71.6574 132.659 71.6972 132.567 71.7662 132.499C71.8353 132.432 71.9281 132.394 72.0247 132.394ZM52.9267 132.394C53.0001 132.394 53.0718 132.416 53.1327 132.457C53.1936 132.498 53.241 132.556 53.2687 132.624C53.2964 132.692 53.3032 132.766 53.2883 132.838C53.2734 132.91 53.2374 132.976 53.185 133.027C53.1325 133.079 53.066 133.113 52.9938 133.126C52.9217 133.14 52.8472 133.131 52.7798 133.102C52.7125 133.073 52.6553 133.024 52.6157 132.963C52.5761 132.901 52.5558 132.829 52.5573 132.755C52.5594 132.659 52.5992 132.567 52.6683 132.499C52.7373 132.432 52.8301 132.394 52.9267 132.394ZM46.5529 132.394C46.6262 132.394 46.698 132.416 46.7589 132.457C46.8198 132.498 46.8671 132.556 46.8948 132.624C46.9225 132.692 46.9294 132.766 46.9145 132.838C46.8996 132.91 46.8636 132.976 46.8111 133.027C46.7587 133.079 46.6922 133.113 46.62 133.126C46.5478 133.14 46.4733 133.131 46.406 133.102C46.3386 133.073 46.2815 133.024 46.2419 132.963C46.2023 132.901 46.1819 132.829 46.1835 132.755C46.1855 132.659 46.2254 132.567 46.2944 132.499C46.3635 132.432 46.4562 132.394 46.5529 132.394ZM40.1869 132.394C40.2603 132.394 40.332 132.416 40.3929 132.457C40.4538 132.498 40.5011 132.556 40.5288 132.624C40.5565 132.692 40.5634 132.766 40.5485 132.838C40.5336 132.91 40.4976 132.976 40.4452 133.027C40.3927 133.079 40.3262 133.113 40.254 133.126C40.1818 133.14 40.1073 133.131 40.04 133.102C39.9726 133.073 39.9155 133.024 39.8759 132.963C39.8363 132.901 39.8159 132.829 39.8175 132.755C39.8195 132.659 39.8594 132.567 39.9284 132.499C39.9975 132.432 40.0902 132.394 40.1869 132.394ZM81.5737 127.678C81.6467 127.678 81.7181 127.7 81.7789 127.741C81.8396 127.781 81.887 127.839 81.9149 127.906C81.9429 127.974 81.9502 128.048 81.936 128.12C81.9217 128.191 81.8865 128.257 81.8349 128.309C81.7832 128.361 81.7174 128.396 81.6457 128.41C81.5741 128.424 81.4998 128.417 81.4323 128.389C81.3648 128.361 81.3071 128.314 81.2665 128.253C81.226 128.192 81.2043 128.121 81.2043 128.048C81.1975 127.995 81.2021 127.942 81.2176 127.892C81.2331 127.841 81.2593 127.795 81.2943 127.755C81.3293 127.716 81.3723 127.684 81.4205 127.663C81.4687 127.642 81.5209 127.631 81.5737 127.631V127.678ZM43.3699 127.678C43.4429 127.678 43.5143 127.7 43.5751 127.741C43.6358 127.781 43.6832 127.839 43.7111 127.906C43.7391 127.974 43.7464 128.048 43.7322 128.12C43.7179 128.191 43.6827 128.257 43.6311 128.309C43.5794 128.361 43.5136 128.396 43.4419 128.41C43.3703 128.424 43.296 128.417 43.2285 128.389C43.161 128.361 43.1033 128.314 43.0627 128.253C43.0221 128.192 43.0005 128.121 43.0005 128.048C42.9938 127.995 42.9983 127.942 43.0138 127.892C43.0293 127.841 43.0555 127.795 43.0905 127.755C43.1255 127.716 43.1685 127.684 43.2167 127.663C43.2649 127.642 43.3171 127.631 43.3699 127.631V127.678ZM37.0039 127.678C37.0769 127.678 37.1483 127.7 37.2091 127.741C37.2698 127.781 37.3172 127.839 37.3451 127.906C37.3731 127.974 37.3804 128.048 37.3662 128.12C37.3519 128.191 37.3167 128.257 37.2651 128.309C37.2134 128.361 37.1476 128.396 37.0759 128.41C37.0043 128.424 36.93 128.417 36.8625 128.389C36.795 128.361 36.7373 128.314 36.6967 128.253C36.6561 128.192 36.6345 128.121 36.6345 128.048C36.6278 127.995 36.6323 127.942 36.6478 127.892C36.6633 127.841 36.6895 127.795 36.7245 127.755C36.7595 127.716 36.8025 127.684 36.8507 127.663C36.8989 127.642 36.9511 127.631 37.0039 127.631V127.678ZM84.7567 141.959C84.8297 141.959 84.9011 141.98 84.9619 142.021C85.0226 142.061 85.07 142.119 85.0979 142.187C85.1259 142.254 85.1332 142.328 85.1189 142.4C85.1047 142.472 85.0695 142.537 85.0179 142.589C84.9662 142.641 84.9004 142.676 84.8287 142.69C84.7571 142.704 84.6828 142.697 84.6153 142.669C84.5478 142.641 84.4901 142.594 84.4495 142.533C84.4089 142.472 84.3873 142.401 84.3873 142.328C84.3851 142.278 84.3931 142.228 84.4107 142.182C84.4284 142.135 84.4552 142.092 84.4898 142.057C84.5243 142.021 84.5657 141.992 84.6116 141.972C84.6574 141.953 84.7068 141.943 84.7567 141.943V141.959ZM78.3907 141.959C78.4637 141.959 78.5351 141.98 78.5959 142.021C78.6566 142.061 78.704 142.119 78.7319 142.187C78.7599 142.254 78.7672 142.328 78.753 142.4C78.7387 142.472 78.7035 142.537 78.6519 142.589C78.6002 142.641 78.5344 142.676 78.4627 142.69C78.3911 142.704 78.3168 142.697 78.2493 142.669C78.1818 142.641 78.1241 142.594 78.0835 142.533C78.0429 142.472 78.0213 142.401 78.0213 142.328C78.0192 142.278 78.0271 142.228 78.0448 142.182C78.0624 142.135 78.0892 142.092 78.1238 142.057C78.1583 142.021 78.1997 141.992 78.2456 141.972C78.2915 141.953 78.3408 141.943 78.3907 141.943V141.959ZM72.0247 141.959C72.0977 141.959 72.1692 141.98 72.2299 142.021C72.2906 142.061 72.338 142.119 72.3659 142.187C72.3939 142.254 72.4012 142.328 72.387 142.4C72.3727 142.472 72.3375 142.537 72.2859 142.589C72.2342 142.641 72.1684 142.676 72.0967 142.69C72.0251 142.704 71.9508 142.697 71.8833 142.669C71.8158 142.641 71.7581 142.594 71.7175 142.533C71.677 142.472 71.6553 142.401 71.6553 142.328C71.6532 142.278 71.6612 142.228 71.6788 142.182C71.6964 142.135 71.7232 142.092 71.7578 142.057C71.7923 142.021 71.8337 141.992 71.8796 141.972C71.9255 141.953 71.9748 141.943 72.0247 141.943V141.959ZM65.6587 141.959C65.7317 141.959 65.8032 141.98 65.8639 142.021C65.9246 142.061 65.972 142.119 66 142.187C66.0279 142.254 66.0352 142.328 66.021 142.4C66.0067 142.472 65.9715 142.537 65.9199 142.589C65.8682 142.641 65.8024 142.676 65.7308 142.69C65.6591 142.704 65.5848 142.697 65.5173 142.669C65.4498 142.641 65.3922 142.594 65.3516 142.533C65.311 142.472 65.2893 142.401 65.2893 142.328C65.2872 142.278 65.2952 142.228 65.3128 142.182C65.3304 142.135 65.3573 142.092 65.3918 142.057C65.4263 142.021 65.4677 141.992 65.5136 141.972C65.5595 141.953 65.6088 141.943 65.6587 141.943V141.959ZM59.2927 141.959C59.3658 141.959 59.4372 141.98 59.4979 142.021C59.5587 142.061 59.606 142.119 59.634 142.187C59.6619 142.254 59.6692 142.328 59.655 142.4C59.6407 142.472 59.6055 142.537 59.5539 142.589C59.5022 142.641 59.4364 142.676 59.3648 142.69C59.2931 142.704 59.2189 142.697 59.1514 142.669C59.0839 142.641 59.0262 142.594 58.9856 142.533C58.945 142.472 58.9233 142.401 58.9233 142.328C58.9212 142.278 58.9292 142.228 58.9468 142.182C58.9644 142.135 58.9913 142.092 59.0258 142.057C59.0603 142.021 59.1017 141.992 59.1476 141.972C59.1935 141.953 59.2428 141.943 59.2927 141.943V141.959ZM52.9267 141.959C52.9998 141.959 53.0712 141.98 53.1319 142.021C53.1927 142.061 53.24 142.119 53.268 142.187C53.2959 142.254 53.3032 142.328 53.289 142.4C53.2747 142.472 53.2396 142.537 53.1879 142.589C53.1363 142.641 53.0704 142.676 52.9988 142.69C52.9271 142.704 52.8529 142.697 52.7854 142.669C52.7179 142.641 52.6602 142.594 52.6196 142.533C52.579 142.472 52.5573 142.401 52.5573 142.328C52.5552 142.278 52.5632 142.228 52.5808 142.182C52.5984 142.135 52.6253 142.092 52.6598 142.057C52.6943 142.021 52.7357 141.992 52.7816 141.972C52.8275 141.953 52.8768 141.943 52.9267 141.943V141.959ZM46.5529 141.959C46.6259 141.959 46.6973 141.98 46.7581 142.021C46.8188 142.061 46.8662 142.119 46.8941 142.187C46.9221 142.254 46.9294 142.328 46.9151 142.4C46.9009 142.472 46.8657 142.537 46.8141 142.589C46.7624 142.641 46.6966 142.676 46.6249 142.69C46.5533 142.704 46.479 142.697 46.4115 142.669C46.344 142.641 46.2863 142.594 46.2457 142.533C46.2052 142.472 46.1835 142.401 46.1835 142.328C46.1814 142.278 46.1893 142.228 46.207 142.182C46.2246 142.135 46.2514 142.092 46.2859 142.057C46.3204 142.021 46.3619 141.992 46.4078 141.972C46.4537 141.953 46.503 141.943 46.5529 141.943V141.959ZM81.5737 137.243C81.6471 137.243 81.7188 137.265 81.7797 137.306C81.8406 137.347 81.8879 137.405 81.9156 137.473C81.9433 137.541 81.9502 137.616 81.9353 137.687C81.9204 137.759 81.8844 137.825 81.832 137.876C81.7795 137.928 81.713 137.962 81.6408 137.976C81.5686 137.989 81.4941 137.98 81.4268 137.951C81.3594 137.922 81.3023 137.874 81.2627 137.812C81.2231 137.75 81.2027 137.678 81.2043 137.605C81.2022 137.555 81.2102 137.505 81.2278 137.458C81.2454 137.412 81.2723 137.369 81.3068 137.333C81.3413 137.297 81.3827 137.268 81.4286 137.249C81.4745 137.229 81.5238 137.219 81.5737 137.219V137.243ZM75.2077 137.243C75.2811 137.243 75.3528 137.265 75.4137 137.306C75.4746 137.347 75.5219 137.405 75.5496 137.473C75.5774 137.541 75.5842 137.616 75.5693 137.687C75.5544 137.759 75.5184 137.825 75.466 137.876C75.4135 137.928 75.347 137.962 75.2748 137.976C75.2026 137.989 75.1281 137.98 75.0608 137.951C74.9934 137.922 74.9363 137.874 74.8967 137.812C74.8571 137.75 74.8367 137.678 74.8383 137.605C74.8362 137.555 74.8442 137.505 74.8618 137.458C74.8794 137.412 74.9063 137.369 74.9408 137.333C74.9753 137.297 75.0167 137.268 75.0626 137.249C75.1085 137.229 75.1578 137.219 75.2077 137.219V137.243ZM68.8417 137.243C68.9151 137.243 68.9868 137.265 69.0477 137.306C69.1086 137.347 69.1559 137.405 69.1836 137.473C69.2114 137.541 69.2182 137.616 69.2033 137.687C69.1884 137.759 69.1524 137.825 69.1 137.876C69.0475 137.928 68.981 137.962 68.9088 137.976C68.8366 137.989 68.7621 137.98 68.6948 137.951C68.6274 137.922 68.5703 137.874 68.5307 137.812C68.4911 137.75 68.4707 137.678 68.4723 137.605C68.4702 137.555 68.4782 137.505 68.4958 137.458C68.5134 137.412 68.5403 137.369 68.5748 137.333C68.6093 137.297 68.6507 137.268 68.6966 137.249C68.7425 137.229 68.7918 137.219 68.8417 137.219V137.243ZM62.4757 137.243C62.5491 137.243 62.6208 137.265 62.6817 137.306C62.7426 137.347 62.7899 137.405 62.8177 137.473C62.8454 137.541 62.8522 137.616 62.8373 137.687C62.8224 137.759 62.7864 137.825 62.734 137.876C62.6815 137.928 62.615 137.962 62.5428 137.976C62.4706 137.989 62.3961 137.98 62.3288 137.951C62.2615 137.922 62.2043 137.874 62.1647 137.812C62.1251 137.75 62.1048 137.678 62.1063 137.605C62.1042 137.555 62.1122 137.505 62.1298 137.458C62.1474 137.412 62.1743 137.369 62.2088 137.333C62.2433 137.297 62.2847 137.268 62.3306 137.249C62.3765 137.229 62.4258 137.219 62.4757 137.219V137.243ZM56.1097 137.243C56.1831 137.243 56.2548 137.265 56.3157 137.306C56.3766 137.347 56.4239 137.405 56.4517 137.473C56.4794 137.541 56.4862 137.616 56.4713 137.687C56.4564 137.759 56.4204 137.825 56.368 137.876C56.3155 137.928 56.249 137.962 56.1768 137.976C56.1047 137.989 56.0302 137.98 55.9628 137.951C55.8955 137.922 55.8384 137.874 55.7987 137.812C55.7591 137.75 55.7388 137.678 55.7403 137.605C55.7382 137.555 55.7462 137.505 55.7638 137.458C55.7814 137.412 55.8083 137.369 55.8428 137.333C55.8773 137.297 55.9188 137.268 55.9646 137.249C56.0105 137.229 56.0598 137.219 56.1097 137.219V137.243ZM49.7358 137.243C49.8096 137.241 49.882 137.262 49.944 137.302C50.0059 137.342 50.0545 137.4 50.0834 137.467C50.1123 137.535 50.1203 137.61 50.1063 137.682C50.0923 137.755 50.057 137.821 50.0048 137.873C49.9527 137.926 49.8862 137.961 49.8138 137.975C49.7414 137.989 49.6665 137.981 49.5987 137.952C49.5309 137.923 49.4733 137.875 49.4333 137.813C49.3933 137.751 49.3728 137.678 49.3743 137.605C49.3722 137.555 49.38 137.506 49.3971 137.46C49.4142 137.414 49.4404 137.372 49.4741 137.336C49.5078 137.3 49.5483 137.271 49.5932 137.251C49.6382 137.231 49.6867 137.22 49.7358 137.219V137.243ZM43.3699 137.243C43.4433 137.243 43.515 137.265 43.5759 137.306C43.6368 137.347 43.6841 137.405 43.7118 137.473C43.7395 137.541 43.7464 137.616 43.7315 137.687C43.7166 137.759 43.6806 137.825 43.6281 137.876C43.5757 137.928 43.5091 137.962 43.437 137.976C43.3648 137.989 43.2903 137.98 43.223 137.951C43.1556 137.922 43.0985 137.874 43.0589 137.812C43.0192 137.75 42.9989 137.678 43.0005 137.605C42.9984 137.555 43.0063 137.505 43.0239 137.458C43.0416 137.412 43.0684 137.369 43.103 137.333C43.1375 137.297 43.1789 137.268 43.2248 137.249C43.2706 137.229 43.32 137.219 43.3699 137.219V137.243ZM65.6587 151.515C65.7317 151.515 65.8032 151.537 65.8639 151.578C65.9246 151.618 65.972 151.676 66 151.743C66.0279 151.811 66.0352 151.885 66.021 151.957C66.0067 152.028 65.9715 152.094 65.9199 152.146C65.8682 152.198 65.8024 152.233 65.7308 152.247C65.6591 152.261 65.5848 152.254 65.5173 152.226C65.4498 152.198 65.3922 152.151 65.3516 152.09C65.311 152.029 65.2893 151.958 65.2893 151.885C65.2861 151.834 65.2932 151.784 65.3104 151.736C65.3275 151.689 65.3542 151.645 65.3888 151.608C65.4234 151.571 65.4652 151.542 65.5117 151.522C65.5581 151.502 65.6081 151.492 65.6587 151.492V151.515ZM87.9397 146.8C88.013 146.798 88.0852 146.819 88.147 146.858C88.2088 146.898 88.2573 146.955 88.2865 147.022C88.3156 147.09 88.3241 147.164 88.3107 147.236C88.2974 147.309 88.2628 147.375 88.2115 147.428C88.1602 147.48 88.0944 147.516 88.0225 147.531C87.9507 147.546 87.876 147.539 87.808 147.511C87.7401 147.483 87.6819 147.436 87.641 147.375C87.6 147.314 87.5782 147.243 87.5781 147.169C87.5738 147.119 87.5799 147.068 87.596 147.02C87.6122 146.972 87.638 146.928 87.6719 146.89C87.7058 146.853 87.7471 146.823 87.7931 146.802C87.8392 146.781 87.8891 146.769 87.9397 146.768V146.8ZM81.5737 146.8C81.6467 146.8 81.7181 146.822 81.7789 146.862C81.8396 146.903 81.887 146.96 81.9149 147.028C81.9429 147.095 81.9502 147.17 81.936 147.241C81.9217 147.313 81.8865 147.379 81.8349 147.43C81.7832 147.482 81.7174 147.517 81.6457 147.532C81.5741 147.546 81.4998 147.538 81.4323 147.51C81.3648 147.483 81.3071 147.435 81.2665 147.374C81.226 147.314 81.2043 147.242 81.2043 147.169C81.1999 147.118 81.2062 147.067 81.2228 147.018C81.2394 146.97 81.266 146.925 81.3007 146.887C81.3354 146.85 81.3777 146.82 81.4247 146.799C81.4716 146.779 81.5224 146.768 81.5737 146.768V146.8ZM75.2077 146.8C75.2807 146.8 75.3522 146.822 75.4129 146.862C75.4737 146.903 75.521 146.96 75.5489 147.028C75.5769 147.095 75.5842 147.17 75.57 147.241C75.5557 147.313 75.5205 147.379 75.4689 147.43C75.4172 147.482 75.3514 147.517 75.2797 147.532C75.2081 147.546 75.1338 147.538 75.0663 147.51C74.9988 147.483 74.9411 147.435 74.9005 147.374C74.86 147.314 74.8383 147.242 74.8383 147.169C74.8339 147.118 74.8402 147.067 74.8568 147.018C74.8734 146.97 74.9 146.925 74.9347 146.887C74.9694 146.85 75.0117 146.82 75.0587 146.799C75.1056 146.779 75.1564 146.768 75.2077 146.768V146.8ZM68.8417 146.8C68.9147 146.8 68.9862 146.822 69.0469 146.862C69.1077 146.903 69.155 146.96 69.183 147.028C69.2109 147.095 69.2182 147.17 69.204 147.241C69.1897 147.313 69.1545 147.379 69.1029 147.43C69.0512 147.482 68.9854 147.517 68.9137 147.532C68.8421 147.546 68.7678 147.538 68.7003 147.51C68.6328 147.483 68.5751 147.435 68.5346 147.374C68.494 147.314 68.4723 147.242 68.4723 147.169C68.4679 147.118 68.4743 147.067 68.4909 147.018C68.5075 146.97 68.534 146.925 68.5687 146.887C68.6035 146.85 68.6457 146.82 68.6927 146.799C68.7397 146.779 68.7904 146.768 68.8417 146.768V146.8ZM62.4757 146.8C62.5488 146.8 62.6202 146.822 62.6809 146.862C62.7417 146.903 62.789 146.96 62.817 147.028C62.8449 147.095 62.8522 147.17 62.838 147.241C62.8237 147.313 62.7886 147.379 62.7369 147.43C62.6852 147.482 62.6194 147.517 62.5478 147.532C62.4761 147.546 62.4018 147.538 62.3343 147.51C62.2668 147.483 62.2091 147.435 62.1686 147.374C62.128 147.314 62.1063 147.242 62.1063 147.169C62.102 147.118 62.1083 147.067 62.1249 147.018C62.1415 146.97 62.168 146.925 62.2027 146.887C62.2375 146.85 62.2797 146.82 62.3267 146.799C62.3737 146.779 62.4244 146.768 62.4757 146.768V146.8ZM56.1097 146.8C56.1828 146.8 56.2542 146.822 56.3149 146.862C56.3757 146.903 56.423 146.96 56.451 147.028C56.4789 147.095 56.4862 147.17 56.472 147.241C56.4577 147.313 56.4226 147.379 56.3709 147.43C56.3192 147.482 56.2534 147.517 56.1818 147.532C56.1101 147.546 56.0358 147.538 55.9683 147.51C55.9008 147.483 55.8432 147.435 55.8026 147.374C55.762 147.314 55.7403 147.242 55.7403 147.169C55.736 147.118 55.7423 147.067 55.7589 147.018C55.7755 146.97 55.802 146.925 55.8367 146.887C55.8715 146.85 55.9137 146.82 55.9607 146.799C56.0077 146.779 56.0584 146.768 56.1097 146.768V146.8Z" fill="white"/>
<path d="M81.1336 128.417C81.5894 131.671 82.1631 134.893 82.9255 138.092C83.2949 139.664 83.7114 141.235 84.1672 142.807C84.5956 144.322 85.0992 145.815 85.6762 147.279H85.7234C85.4483 145.66 85.0239 144.041 84.6545 142.438C84.2852 140.835 83.9158 139.341 83.5464 137.801C82.7605 134.657 81.9745 131.514 81.2436 128.37C81.2357 128.268 81.1179 128.299 81.1336 128.417ZM44.195 142.689C46.0577 143.703 47.9282 144.788 49.6965 145.927C51.4648 147.067 53.1546 148.427 54.8601 149.747C54.8688 149.757 54.8741 149.77 54.8752 149.783C54.8763 149.796 54.8731 149.81 54.8661 149.821C54.8591 149.833 54.8486 149.841 54.8362 149.846C54.8238 149.852 54.8101 149.852 54.7972 149.849C52.9974 148.702 51.1505 147.649 49.3821 146.43L48.7691 146.006C48.3133 145.88 47.8574 145.723 47.4016 145.574C47.0517 145.464 46.7081 145.335 46.372 145.189C46.0309 145.019 45.6791 144.872 45.3189 144.749C45.3055 144.742 45.2951 144.73 45.2894 144.716C45.2838 144.702 45.2833 144.687 45.288 144.673C45.2928 144.659 45.3024 144.646 45.3153 144.639C45.3282 144.631 45.3434 144.628 45.3582 144.631C45.7197 144.741 46.097 144.804 46.4663 144.882C46.8248 144.957 47.177 145.059 47.5195 145.189L47.7002 145.252L44.1322 142.752L44.1636 142.65L44.195 142.689Z" fill="#263238"/>
<path d="M40.0536 114.648C40.0536 114.648 37.5073 111.952 36.2577 112.903C35.0081 113.854 37.2322 117.98 38.9219 118.341C39.1356 118.402 39.3592 118.418 39.5794 118.39C39.7996 118.361 40.0118 118.289 40.2033 118.176C40.3948 118.064 40.5616 117.914 40.6939 117.736C40.8262 117.558 40.9212 117.355 40.9731 117.139L40.0536 114.648Z" fill="#F7A9A0"/>
<path d="M36.9487 114.074V114.114C37.5032 114.293 38.0136 114.588 38.4469 114.978C38.8801 115.368 39.2266 115.844 39.4637 116.377C39.3816 116.274 39.2782 116.191 39.1607 116.132C39.0432 116.073 38.9143 116.04 38.7829 116.035C38.6515 116.031 38.5207 116.055 38.3995 116.106C38.2782 116.157 38.1694 116.233 38.0804 116.33C38.0804 116.33 38.0804 116.401 38.1197 116.385C38.3082 116.293 38.5205 116.262 38.7274 116.296C38.9343 116.329 39.1256 116.426 39.2751 116.573C39.5213 116.812 39.7425 117.076 39.9352 117.359C40.006 117.454 40.1789 117.359 40.1239 117.265C39.896 115.843 38.4813 113.988 36.9487 114.074Z" fill="#263238"/>
</g>
<defs>
<clipPath id="clip0">
<rect width="327" height="327" fill="white"/>
</clipPath>
</defs>
</svg>
