<svg width="1041" height="425" viewBox="0 0 1041 425" fill="none" xmlns="http://www.w3.org/2000/svg">
<path d="M944.5 190.5C836.121 175.978 617.897 398.731 409.827 146.96C228.887 -71.9823 138.931 12.0037 118.548 37.6277C115.316 41.6914 113.727 46.6743 113.199 51.8399L80.0513 376.341C77.8838 397.56 94.536 416 115.865 416H862.889C873.675 416 883.864 411.206 890.437 402.655C926.246 356.065 1036.31 202.801 944.5 190.5Z" fill="url(#paint0_linear)"/>
<path d="M937.5 201C798.134 186.444 696.829 407.69 429.27 155.311C184.373 -75.692 106.066 30.0471 94.5578 49.6162C93.4257 51.5414 92.7277 53.5905 92.1867 55.7574L11.1653 380.28C5.49328 402.998 22.6773 425 46.0931 425H1004.43C1021.51 425 1036.18 413.036 1037.94 396.041C1043.95 338.034 1044.42 212.168 937.5 201Z" fill="url(#paint1_linear)"/>
<defs>
<linearGradient id="paint0_linear" x1="627.5" y1="2.33435" x2="531.202" y2="423.354" gradientUnits="userSpaceOnUse">
<stop stop-color="#FF62A5"/>
<stop offset="0.905865" stop-color="#FF8EBF"/>
</linearGradient>
<linearGradient id="paint1_linear" x1="709.178" y1="10.3356" x2="632.431" y2="440.768" gradientUnits="userSpaceOnUse">
<stop offset="0.520833" stop-color="#5498E2"/>
<stop offset="0.905865" stop-color="#3A78BC"/>
</linearGradient>
</defs>
</svg>
