<svg width="737" height="372" viewBox="0 0 737 372" fill="none" xmlns="http://www.w3.org/2000/svg">
<path d="M475.867 80.0881C476.391 85.8489 475.363 91.6283 472.84 97.106C471.662 99.6448 470.18 102.105 468.412 104.458C466.198 107.484 463.915 110.423 464.019 113.874C464.451 114.111 462.895 113.999 462.877 113.661C450.769 107.747 434.666 105.896 425.844 96.8309C421.882 92.4467 419.629 87.371 419.324 82.1388C418.49 76.3584 419.272 70.5159 421.624 64.9584C423.786 60.4195 428.007 56.2057 434.285 54.2175C440.564 52.2294 448.884 52.8796 455.284 54.7052C469.07 58.669 474.916 70.085 475.867 80.0881Z" fill="#EBEBEB"/>
<path d="M475.578 148.691C474.289 144.416 472.999 140.129 471.657 135.867C469.025 127.493 466.272 119.158 463.099 110.885C461.217 105.931 459.184 101.02 456.999 96.1499C457.618 93.188 458.444 90.2507 459.474 87.3491C460.921 83.8413 462.838 80.4844 464.703 77.0773C464.825 76.8635 464.354 76.7252 464.198 76.9264C460.834 81.5783 456.442 87.5125 455.745 93.1954C453.2 87.6802 450.423 82.232 447.414 76.851C447.48 72.4359 448.14 68.0358 449.383 63.7126C449.383 63.677 449.368 63.6424 449.338 63.614C449.309 63.5855 449.267 63.5647 449.22 63.5548C449.173 63.5448 449.122 63.5462 449.076 63.5588C449.03 63.5714 448.991 63.5945 448.965 63.6245C447.461 67.3889 446.624 71.2754 446.473 75.1914C444.149 71.1262 441.662 67.1113 439.013 63.1468C438.769 62.7947 438.072 63.1468 438.281 63.4611C442.359 70.376 446.072 77.4167 449.505 84.5328C444.011 80.5229 437.504 77.3092 430.334 75.0656C430.02 74.9651 429.758 75.2919 430.072 75.4051C437.816 78.3158 444.771 82.2084 450.603 86.8965C453.066 92.1015 455.39 97.3401 457.575 102.612C450.202 96.5397 439.693 92.2147 429.358 89.6373C428.992 89.5493 428.852 89.9391 429.201 90.0396C441.122 93.3714 450.115 98.8405 458.725 105.416C459.579 107.541 460.468 109.678 461.235 111.815C464.337 119.912 467.213 128.047 469.949 136.206C471.256 140.129 472.528 144.039 473.766 147.962C475.108 152.186 476.049 156.624 477.931 160.723C478.123 161.125 479.082 161.088 478.994 160.622C478.143 156.605 477.003 152.623 475.578 148.691V148.691Z" fill="#DBDBDB"/>
<path d="M462.411 71.098C459.906 73.4323 458.067 76.0963 457 78.9383C457 78.9547 457.009 78.9704 457.025 78.9819C457.041 78.9935 457.063 79 457.086 79C457.109 79 457.131 78.9935 457.147 78.9819C457.163 78.9704 457.172 78.9547 457.172 78.9383C458.877 76.301 460.805 73.7404 462.945 71.2706C463.169 71.0734 462.652 70.8761 462.411 71.098Z" fill="#DBDBDB"/>
<path d="M437.912 88.6839C434.615 87.4181 430.953 86.5089 427.103 86C427.002 86 426.934 86.069 427.103 86.0986C428.795 86.6117 430.655 86.9966 432.415 87.4899C434.174 87.9833 435.883 88.5457 437.659 88.9996C437.723 89.002 437.787 88.993 437.843 88.9738C437.898 88.9546 437.942 88.9262 437.97 88.8921C437.997 88.8581 438.006 88.82 437.996 88.7829C437.986 88.7457 437.957 88.7113 437.912 88.6839V88.6839Z" fill="#DBDBDB"/>
<path d="M433.892 65.7185C432.774 65.0787 431.568 64.5062 430.289 64.0082C430.246 63.9983 430.2 63.9973 430.156 64.0056C430.112 64.0138 430.073 64.0307 430.046 64.0539C430.018 64.0771 430.002 64.1055 430 64.1349C429.999 64.1643 430.011 64.1932 430.037 64.2176C431.149 64.8753 432.356 65.4636 433.64 65.9745C433.82 66.0792 434.18 65.8349 433.892 65.7185Z" fill="#DBDBDB"/>
<path d="M518.138 94.9917C509.168 97.3947 500.146 99.6333 491.194 101.998C490.414 102.213 473.15 81.3072 477.791 69.9371C480.017 64.7731 483.793 60.037 488.844 56.0745C493.894 52.112 500.093 49.0229 506.986 47.0326C513.376 45.1229 521.272 43.4028 528.25 44.1996C534.449 44.9079 539.09 48.3732 541.428 52.4837C544.631 58.0738 544.302 64.9414 543.315 70.8351C542.615 76.3704 539.96 81.6782 535.61 86.2396C531.125 90.6662 525.116 93.1325 518.138 94.9917Z" fill="#EBEBEB"/>
<path d="M529.722 73.6012C524.042 75.9052 518.114 77.8828 511.995 79.5152C507.904 80.4982 503.939 81.729 500.142 83.1942C503.501 76.7905 507.282 70.4998 511.309 64.2468C517.405 62.8536 522.971 60.4778 527.576 57.3031C527.623 57.2698 527.649 57.2247 527.649 57.1776C527.649 57.1305 527.623 57.0853 527.576 57.052C527.53 57.0187 527.466 57 527.4 57C527.334 57 527.271 57.0187 527.225 57.052C522.427 59.5521 517.275 61.6858 511.854 63.418C512.944 61.7355 514.052 60.053 515.178 58.3955C515.494 57.9309 514.58 57.5166 514.193 57.9812C509.762 63.2315 505.82 68.6844 502.393 74.3043C500.982 69.5603 500.246 64.7268 500.194 59.8772C500.194 59.8505 500.18 59.825 500.153 59.8061C500.127 59.7873 500.091 59.7767 500.054 59.7767C500.016 59.7767 499.98 59.7873 499.954 59.8061C499.928 59.825 499.913 59.8505 499.913 59.8772C499.218 65.2033 499.764 70.575 501.531 75.7734C498.682 80.5574 496.132 85.4292 493.881 90.3512C492.579 87.5135 490.944 84.726 489.783 81.8632C488.016 77.7576 487.191 73.4751 487.339 69.1814C487.339 69.0558 487.092 69.0558 487.075 69.1814C486.104 77.165 488.138 85.1889 492.966 92.423C491.665 95.3738 490.434 98.3496 489.326 101.313C483.632 116.46 480.834 132.088 481.008 147.771C481.027 147.836 481.077 147.894 481.149 147.936C481.221 147.977 481.311 148 481.403 148C481.496 148 481.586 147.977 481.658 147.936C481.73 147.894 481.78 147.836 481.799 147.771C482.884 132.239 486.196 116.827 491.682 101.777C493.863 95.8886 496.466 90.1378 499.385 84.5C504.767 83.0937 510.078 81.2856 515.354 79.7161C520.635 78.3313 525.556 76.3284 529.915 73.7895C530.126 73.7142 529.898 73.5258 529.722 73.6012Z" fill="#DBDBDB"/>
<path d="M537.685 67.0139C532.045 68.6975 526.745 70.959 521.105 72.6677C520.855 72.7431 521.105 73.0446 521.302 72.9944C527.427 72.0395 533.134 70.0612 537.936 67.2275C538.115 67.1144 537.882 66.9511 537.685 67.0139Z" fill="#DBDBDB"/>
<path d="M491 60.22C491 60.0027 490.528 59.9004 490.445 60.1305C489.008 63.9666 488.145 68.0712 490.302 71.8945C490.302 72.0352 490.774 72.0352 490.774 71.8945C490.692 67.9306 489.973 64.1328 491 60.22Z" fill="#DBDBDB"/>
<path d="M513.224 51.1057C511.412 52.8349 510.674 54.8712 511.133 56.877C511.133 57.0117 511.501 57.0679 511.559 56.877C512.101 54.9458 513.205 53.1605 513.999 51.2629C514.005 51.2091 513.981 51.1556 513.929 51.1106C513.878 51.0657 513.803 51.0317 513.715 51.0139C513.627 50.9961 513.531 50.9954 513.443 51.012C513.354 51.0285 513.278 51.0615 513.224 51.1057V51.1057Z" fill="#DBDBDB"/>
<path d="M544.662 107.202C543.504 113.607 539.241 122.795 529.206 124.149C522.696 125.026 515.977 125.314 509.433 126.091C502.415 126.906 495.397 127.809 488.484 129C487.905 129.1 485.554 113.958 500.555 104.457C504.766 101.812 510.363 100.42 515.503 98.9162C521.373 97.1001 527.547 95.836 533.872 95.1558C537.75 94.7673 541.118 94.9428 543.206 97.6001C545.294 100.257 545.224 104.156 544.662 107.202Z" fill="#EBEBEB"/>
<path d="M535.445 100.421C531.526 101.671 527.608 103.083 523.742 104.533C524.601 103.568 525.534 102.638 526.536 101.746C528.047 100.496 529.769 99.3957 531.439 98.2332C531.579 98.1457 531.439 97.9332 531.245 98.0207C527.555 99.7043 524.603 102.09 522.723 104.908C517.891 106.733 513.147 108.658 508.666 110.733C505.523 112.142 502.58 113.766 499.88 115.582C500.485 113.944 501.29 112.346 502.288 110.807C504.045 108.458 506.751 106.92 509.316 105.095C509.37 105.062 509.403 105.015 509.408 104.965C509.413 104.914 509.389 104.865 509.343 104.827C509.296 104.788 509.23 104.765 509.159 104.762C509.088 104.758 509.018 104.775 508.965 104.808C506.149 106.146 503.756 107.888 501.941 109.922C500.126 111.956 498.927 114.237 498.422 116.62C495.365 118.857 492.676 121.336 490.409 124.007C481.624 134.444 475.772 147.543 478.812 159.78C478.812 160.08 479.568 160.067 479.568 159.78C479.415 147.424 483.936 135.267 492.658 124.582C493.291 123.819 493.941 123.082 494.626 122.369C497.586 121.677 500.602 121.114 503.658 120.682C507.172 120.269 510.898 120.144 514.517 119.894C520.492 119.494 527.011 118.707 531.79 115.932C532.001 115.807 531.79 115.532 531.526 115.645C520.456 120.207 507.067 117.907 495.663 121.232C499.874 117.155 505.126 113.678 511.144 110.982L512.145 110.545C519.912 110.22 528.276 110.607 535.234 107.908C535.265 107.888 535.285 107.862 535.293 107.833C535.301 107.804 535.296 107.774 535.278 107.747C535.261 107.721 535.231 107.699 535.195 107.685C535.159 107.671 535.117 107.666 535.076 107.67C528.241 109.858 521.019 109.133 513.885 109.77C521.019 106.67 528.416 103.983 535.585 100.896C536.2 100.683 536.113 100.208 535.445 100.421Z" fill="#DBDBDB"/>
<path d="M539.782 105.008C536.24 105.766 532.641 106.396 529 106.894V107C532.805 107.009 536.555 106.386 539.921 105.185C540.043 105.126 540.043 104.961 539.782 105.008Z" fill="#DBDBDB"/>
<path d="M513.568 103.019C511.787 104.003 510.25 105.255 509.041 106.708C508.891 106.87 509.19 107.101 509.356 106.952C510.118 106.301 510.914 105.677 511.727 105.067C512.507 104.546 513.249 103.989 513.949 103.398C513.986 103.352 514.003 103.298 514 103.243C513.996 103.189 513.971 103.136 513.928 103.094C513.886 103.052 513.828 103.022 513.763 103.008C513.698 102.994 513.63 102.998 513.568 103.019V103.019Z" fill="#DBDBDB"/>
<path d="M455.977 125.837C456.099 126.04 455.7 126.231 455.544 126.015C455.479 126.078 455.387 126.123 455.283 126.142C448.476 127.333 441.574 128.21 434.617 128.77C429.03 129.138 422.592 129.366 417.699 126.992C411.071 123.781 406.698 115.174 410.29 109.716C414.524 103.217 427.312 106.746 433.715 109.056C443.589 112.574 451.467 118.511 455.977 125.837V125.837Z" fill="#EBEBEB"/>
<path d="M461.306 128.163C457.575 125.518 453.432 123.204 448.963 121.27C445.75 117.528 441.482 114.335 436.446 111.905C436.203 111.778 435.995 112.071 436.221 112.185C440.223 114.519 443.773 117.24 446.776 120.276C441.797 118.284 436.627 116.559 431.308 115.116C429.403 112.528 426.513 110.404 422.992 109C422.992 109 422.836 109 422.905 109.076C425.808 110.7 428.34 112.652 430.405 114.861C427.263 114.007 424.086 113.205 420.909 112.427C420.631 112.364 420.51 112.682 420.787 112.759C426.447 114.377 432.228 116.084 437.818 118.059C430.987 118.862 424.025 118.862 417.194 118.059C417.003 118.059 416.916 118.237 417.107 118.276C424.237 119.82 431.808 119.904 438.998 118.518C442.58 119.791 446.058 121.216 449.415 122.786C446.6 122.614 443.767 122.786 441.03 123.296C436.195 124.139 431.243 124.567 426.273 124.57C426.1 124.57 426.048 124.786 426.273 124.812C434.832 125.895 442.904 123.041 451.394 123.78C454.531 125.357 457.482 127.125 460.213 129.067C465.498 132.951 469.853 137.461 473.094 142.408C476.653 147.733 478.597 153.391 481.479 158.895C481.509 158.935 481.556 158.966 481.613 158.984C481.67 159.002 481.734 159.005 481.794 158.993C481.854 158.981 481.907 158.955 481.944 158.919C481.981 158.883 482.001 158.838 482 158.793C479.448 147.874 472.087 135.897 461.306 128.163Z" fill="#DBDBDB"/>
<path d="M434.999 113.867C434.409 113.01 433.638 112.246 432.721 111.609C431.969 110.945 431.075 110.4 430.082 110C429.992 110 429.955 110.074 430.082 110.118C430.805 110.797 431.89 111.299 432.613 111.948C433.336 112.598 434.059 113.351 434.854 114C434.875 114 434.895 113.997 434.914 113.99C434.933 113.983 434.95 113.973 434.963 113.96C434.977 113.948 434.987 113.933 434.994 113.917C435 113.901 435.001 113.884 434.999 113.867Z" fill="#DBDBDB"/>
<path d="M420.918 116.817C419.641 116.658 418.293 116.675 416.999 116.542C415.707 116.396 414.433 116.215 413.184 116.001C413.149 115.998 413.114 116.001 413.083 116.009C413.052 116.017 413.027 116.03 413.013 116.045C412.999 116.06 412.996 116.077 413.005 116.093C413.014 116.11 413.033 116.124 413.061 116.134C415.418 116.813 418.178 117.105 420.918 116.966C420.943 116.958 420.964 116.947 420.978 116.934C420.993 116.921 421 116.906 421 116.891C421 116.877 420.993 116.862 420.978 116.849C420.964 116.836 420.943 116.825 420.918 116.817V116.817Z" fill="#DBDBDB"/>
<path d="M502 140L500.603 151.43L495.836 190H453.701L447.746 151.43L446 140H502Z" fill="#C7C7C7"/>
<path d="M502 140L500.603 151H447.746L446 140H502Z" fill="#A6A6A6"/>
<path d="M506 137H442V146H506V137Z" fill="#C7C7C7"/>
<path d="M154 97.095L163.84 104.122H219.08V90.0611H163.84L154 97.095Z" fill="#EBEBEB"/>
<path d="M154.08 117.275L164.4 123.938L219.57 121.942L218.6 107.903L163.43 109.892L154.08 117.275Z" fill="#EBEBEB"/>
<path d="M286.88 107.86L276.29 114.299L221.23 111.105L222.79 97.0878L277.85 100.282L286.88 107.86Z" fill="#EBEBEB"/>
<path d="M212.86 264.978H227.79L224.31 84H216.34L212.86 264.978Z" fill="#DBDBDB"/>
<path d="M169.86 105.844C269.726 166.844 360.961 343.344 446.957 154.844C506.587 24.1367 579.111 1.61279 617.976 0.0877657C634.463 -0.559148 644.996 14.3843 643.901 30.8471L625.192 312.02C623.933 330.932 608.226 345.629 589.271 345.629H157.151C139.87 345.629 125.071 333.427 122.433 316.348C110.994 242.276 89.4251 56.7133 169.86 105.844Z" fill="url(#paint0_linear)"/>
<path d="M170.312 124.824C254.459 179.824 337.536 347.344 459.594 151.345C553.12 1.16203 666.19 30.9316 713.943 53.0564C728.232 59.6766 733.672 76.0381 728.785 91.0084L645.383 346.496C640.549 361.305 626.738 371.324 611.161 371.324H47.7299C23.8112 371.324 6.76006 348.522 14.4991 325.889C42.5307 243.914 106.993 83.4377 170.312 124.824Z" fill="url(#paint1_linear)"/>
<defs>
<linearGradient id="paint0_linear" x1="282.98" y1="-68.0359" x2="427.472" y2="321.398" gradientUnits="userSpaceOnUse">
<stop stop-color="#FF62A5"/>
<stop offset="0.905865" stop-color="#FF8EBF"/>
</linearGradient>
<linearGradient id="paint1_linear" x1="200.101" y1="-43.3404" x2="318.638" y2="366.49" gradientUnits="userSpaceOnUse">
<stop offset="0.520833" stop-color="#5498E2"/>
<stop offset="0.905865" stop-color="#3A78BC"/>
</linearGradient>
</defs>
</svg>
