<svg width="506" height="423" viewBox="0 0 506 423" fill="none" xmlns="http://www.w3.org/2000/svg">
<path d="M47.0687 191.144C109.578 176.588 193.452 397.69 313.46 145.311C417.242 -72.9457 485.519 11.9999 502.084 38.9596C504.876 43.5032 506 48.7385 506 54.0713V379C506 398.882 489.882 415 470 415H69.7317C53.5379 415 39.364 404.211 35.7189 388.433C22.5901 331.604 -1.55162 202.466 47.0687 191.144Z" fill="url(#paint0_linear)"/>
<path d="M29.0687 199.144C91.5782 184.588 175.452 405.69 295.46 153.311C399.242 -64.9457 467.519 19.9999 484.084 46.9596C486.876 51.5032 488 56.7385 488 62.0713V387C488 406.882 471.882 423 452 423H51.7317C35.5379 423 21.364 412.211 17.7189 396.433C4.59012 339.604 -19.5516 210.466 29.0687 199.144Z" fill="url(#paint1_linear)"/>
<defs>
<linearGradient id="paint0_linear" x1="187.913" y1="0.335397" x2="340.367" y2="383.847" gradientUnits="userSpaceOnUse">
<stop stop-color="#FF62A5"/>
<stop offset="0.905865" stop-color="#FF8EBF"/>
</linearGradient>
<linearGradient id="paint1_linear" x1="169.913" y1="8.3354" x2="322.367" y2="391.847" gradientUnits="userSpaceOnUse">
<stop offset="0.520833" stop-color="#5498E2"/>
<stop offset="0.905865" stop-color="#3A78BC"/>
</linearGradient>
</defs>
</svg>
