<svg width="814" height="380" viewBox="0 0 814 380" fill="none" xmlns="http://www.w3.org/2000/svg">
<path d="M467 101.301V278H573.841V101.301H467ZM564.109 212.789H476.693V166.783H564.109V212.789ZM564.109 155.828H476.693V109.835H564.109V155.828Z" fill="#EBEBEB"/>
<path d="M616.526 101.301H573.815V277.987H616.526V101.301Z" fill="#DBDBDB"/>
<path d="M497.469 109.835H476.693V155.828H497.469V109.835Z" fill="#DBDBDB"/>
<path d="M564.753 267.548H476.603V222.404H564.753V267.548ZM477.89 266.26H563.466V223.691H477.89V266.26Z" fill="#DBDBDB"/>
<path d="M525.659 235.38H508.41V244.107H525.659V235.38Z" fill="#DBDBDB"/>
<path d="M531.414 244.107H512.865V235.405H531.414V244.107ZM514.152 242.82H530.126V236.693H514.152V242.82Z" fill="#DBDBDB"/>
<path d="M497.469 166.796H476.693V212.789H497.469V166.796Z" fill="#DBDBDB"/>
<path d="M572.631 27.2463C584.86 39.2176 586.906 57.7281 584.332 73.9473C584.267 74.3206 583.701 74.2176 583.701 73.87C583.701 70.1757 583.804 66.5199 583.791 62.877L583.611 62.3879C580.318 60.2202 577.594 57.2933 575.669 53.8535C573.622 49.8373 572.824 45.3062 571.253 41.1098C571.112 40.7108 571.537 40.8267 571.82 41.0326C579.26 46.5162 581.629 52.4247 583.765 60.3412C583.726 56.2163 583.295 52.1044 582.478 48.0609C580.869 40.5821 577.69 33.1547 572.322 27.6067C572.298 27.5864 572.279 27.5617 572.265 27.5339C572.251 27.5061 572.242 27.4758 572.24 27.4447C572.237 27.4136 572.241 27.3824 572.251 27.3528C572.26 27.3231 572.276 27.2957 572.296 27.272C572.316 27.2484 572.341 27.2289 572.369 27.2148C572.397 27.2007 572.427 27.1923 572.458 27.1899C572.489 27.1875 572.52 27.1912 572.55 27.2009C572.58 27.2106 572.607 27.226 572.631 27.2463V27.2463Z" fill="#A6A6A6"/>
<path d="M570.327 28.6363C568.228 28.7136 566.915 32.0733 565.268 33.0516C565.097 33.1923 564.898 33.2953 564.684 33.3537C564.471 33.4122 564.247 33.4248 564.028 33.3907C563.81 33.3567 563.6 33.2768 563.415 33.1562C563.229 33.0356 563.071 32.8772 562.951 32.6911C561.329 30.4256 563.556 27.6194 565.654 26.0619C564.148 26.6797 562.912 27.761 561.29 28.07C561.083 28.1356 560.864 28.1564 560.648 28.131C560.432 28.1056 560.224 28.0345 560.038 27.9225C559.852 27.8104 559.691 27.6601 559.568 27.4813C559.444 27.3026 559.36 27.0995 559.321 26.8857C558.613 23.7963 562.487 22.419 565.152 22.3546C563.865 21.4536 560.157 19.0207 562.127 17.8236C564.096 16.6264 568.447 20.102 569.85 21.2476C571.936 22.9339 574.42 25.4569 574.51 28.0957C574.639 31.1851 571.948 29.28 570.327 28.6363Z" fill="#DBDBDB"/>
<path d="M570.944 29.1514C568.254 27.9285 563.079 29.692 562.642 28.6751C561.753 26.6026 565.885 25.1867 568.112 24.9035C566.053 24.35 562.127 23.4618 562.242 21.4923C562.397 19.0723 568.28 21.1448 571.253 23.436C575.012 26.3066 574.986 29.087 574.368 29.6405C573.519 30.4 571.382 29.3573 570.944 29.1514Z" fill="#EBEBEB"/>
<path d="M600.474 26.062C587.807 37.557 585.027 55.9774 587.009 72.2867C587.009 72.66 587.627 72.5828 587.64 72.2867C587.781 68.5923 587.807 64.9366 587.962 61.2937C588.039 61.1263 588.09 60.9719 588.168 60.8045C591.545 58.769 594.38 55.947 596.432 52.5791C598.62 48.6401 599.598 44.1477 601.323 40.0156C601.478 39.6166 601.04 39.7196 600.757 39.9255C593.123 45.0745 590.523 50.9314 588.09 58.7321C588.289 54.6092 588.88 50.5145 589.854 46.5033C591.746 39.0888 595.196 31.7902 600.782 26.4481C600.988 26.1907 600.692 25.856 600.474 26.062Z" fill="#A6A6A6"/>
<path d="M602.713 27.5423C604.811 27.6968 606.008 31.0951 607.605 32.1377C607.769 32.2871 607.964 32.3994 608.175 32.4674C608.387 32.5353 608.61 32.5572 608.831 32.5316C609.052 32.506 609.264 32.4335 609.455 32.3189C609.645 32.2044 609.809 32.0504 609.935 31.8674C611.647 29.6663 609.535 26.7185 607.489 25.1352C608.969 25.8174 610.166 26.9373 611.775 27.3106C611.979 27.3855 612.197 27.4156 612.414 27.3991C612.631 27.3826 612.841 27.3197 613.032 27.2148C613.222 27.1098 613.388 26.9652 613.517 26.7908C613.647 26.6163 613.738 26.4161 613.783 26.2036C614.607 23.14 610.797 21.621 608.132 21.4537C609.42 20.617 613.281 18.3128 611.325 17.0513C609.368 15.7898 604.889 19.0852 603.46 20.1793C601.323 21.7884 598.748 24.2084 598.555 26.8472C598.311 29.9108 601.065 28.1216 602.713 27.5423Z" fill="#DBDBDB"/>
<path d="M602.095 28.0314C604.824 26.9115 609.922 28.8681 610.398 27.8641C611.364 25.8302 607.296 24.2598 605.082 23.8994C607.154 23.4231 611.119 22.6894 611.068 20.707C611.068 18.2742 605.056 20.1278 602.057 22.3032C598.195 25.0321 598.118 27.8126 598.71 28.3918C599.47 29.177 601.632 28.2245 602.095 28.0314Z" fill="#EBEBEB"/>
<path d="M587.511 56.4151C586.656 62.5671 585.344 68.6468 583.585 74.6038C583.561 74.7216 583.492 74.825 583.391 74.8914C583.291 74.9578 583.169 74.9817 583.051 74.9578C582.933 74.9339 582.83 74.8642 582.763 74.764C582.697 74.6638 582.673 74.5414 582.697 74.4236C583.521 68.8112 585.04 63.3147 585.876 57.6895C586.803 52.0328 587.148 46.2962 586.906 40.5692C586.366 31.1338 583.804 21.0933 577.651 13.7046C577.509 13.5244 577.793 13.2798 577.934 13.4471C590.266 27.8256 588.309 45.4479 588.296 47.0312C590.047 41.0841 591.836 34.2618 598.44 28.1989C598.723 27.9286 598.955 28.0573 598.903 28.5078C597.719 39.5395 594.655 45.3063 588.258 51.2147C588.013 52.9653 587.794 54.7288 587.511 56.4151Z" fill="#A6A6A6"/>
<path d="M577.483 15.3522C575.269 14.3739 572.206 17.1929 570.005 17.386C569.757 17.446 569.499 17.4527 569.248 17.4055C568.997 17.3583 568.759 17.2584 568.55 17.1124C568.34 16.9664 568.164 16.7775 568.034 16.5584C567.903 16.3393 567.82 16.0948 567.791 15.8413C567.237 12.6747 570.957 10.8983 573.918 10.3191C572.051 10.2161 570.223 10.7052 568.396 10.2161C568.147 10.1811 567.909 10.0937 567.698 9.95952C567.486 9.82537 567.305 9.64761 567.167 9.4381C567.03 9.22858 566.938 8.99212 566.899 8.74449C566.86 8.49686 566.874 8.24374 566.941 8.00203C567.765 4.43638 572.476 4.96416 575.269 6.22566C574.381 4.65523 571.768 0.265744 574.407 0.00829692C577.046 -0.249151 579.826 5.55628 580.714 7.46139C582.002 10.2547 583.289 14.1293 582.105 16.9097C580.676 20.1664 578.835 16.8454 577.483 15.3522Z" fill="#DBDBDB"/>
<path d="M577.896 16.2017C575.72 13.6273 569.464 12.8034 569.529 11.5291C569.645 8.9546 574.678 9.53384 577.098 10.3705C575.244 8.7615 571.614 5.86522 572.734 3.93436C574.098 1.50148 579.17 6.6247 581.101 10.4864C583.547 15.365 582.131 18.2098 581.204 18.493C579.891 18.7891 578.218 16.6394 577.896 16.2017Z" fill="#EBEBEB"/>
<path d="M595.633 59.749L601.065 101.301H567.971C568.653 97.6195 574.819 59.6975 574.819 59.6975L595.633 59.749Z" fill="#EBEBEB"/>
<path d="M584.887 113.94C470.522 174.94 400.632 351.94 302.15 163.44C232.89 30.8708 155.773 9.83636 116.107 9.02519C100.059 8.697 89.6685 22.992 90.1979 39.0351L99.4503 319.413C100.091 338.822 116.011 354.225 135.431 354.225H635.665C654.116 354.225 669.512 340.384 670.54 321.963C674.782 245.931 675.809 65.4441 584.887 113.94Z" fill="url(#paint0_linear)"/>
<path d="M585.24 133.94C488.876 188.94 427.458 355.94 287.678 159.941C179.691 8.52009 66.8578 40.3291 21.1174 62.632C7.81464 69.1184 2.58993 84.3216 6.52846 98.5878L76.9032 353.5C81.2123 369.109 95.4124 379.92 111.605 379.92H758.835C784.828 379.92 801.922 353.466 790.063 330.336C747.522 247.361 656.522 93.2555 585.24 133.94Z" fill="url(#paint1_linear)"/>
<defs>
<linearGradient id="paint0_linear" x1="489.935" y1="-59.44" x2="360.028" y2="341.517" gradientUnits="userSpaceOnUse">
<stop stop-color="#FF62A5"/>
<stop offset="0.905865" stop-color="#FF8EBF"/>
</linearGradient>
<linearGradient id="paint1_linear" x1="584.847" y1="-34.7443" x2="479.405" y2="382.741" gradientUnits="userSpaceOnUse">
<stop offset="0.520833" stop-color="#5498E2"/>
<stop offset="0.905865" stop-color="#3A78BC"/>
</linearGradient>
</defs>
</svg>
