<svg width="782" height="335" viewBox="0 0 782 335" fill="none" xmlns="http://www.w3.org/2000/svg">
<path d="M540.636 110.155C518.653 139.946 495.663 174.486 490.14 211.832C490.14 212.408 490.985 212.588 491.111 212.03C493.642 201.84 496.894 191.842 500.843 182.114C515.235 178.138 529.483 174.918 537.074 160.526C544.81 145.793 543.82 126.562 542.363 110.497C542.255 109.544 541.086 109.508 540.636 110.155Z" fill="#FF006D"/>
<path d="M501.06 181.753C510.936 159.59 523.637 137.337 539.827 119.15C539.935 119.024 540.097 119.15 539.989 119.33C529.447 132.3 521.424 146.44 513.598 160.832C520.884 153.438 528.854 146.818 535.744 138.974C535.774 138.952 535.811 138.941 535.849 138.943C535.886 138.945 535.922 138.96 535.95 138.985C535.978 139.011 535.996 139.045 536.001 139.083C536.006 139.12 535.997 139.158 535.977 139.19C529.123 147.412 521.586 156.352 512.717 162.433C510.318 166.846 507.92 171.266 505.521 175.691C506.133 175.349 506.744 175.061 507.32 174.756C507.428 174.756 507.536 174.864 507.41 174.917C506.744 175.259 506.061 175.619 505.359 175.925C504.208 178.012 503.056 180.116 501.869 182.203C501.491 182.635 500.844 182.221 501.06 181.753Z" fill="#263238"/>
<path d="M508.4 174.018C514.313 170.716 519.956 166.951 525.274 162.757C525.418 162.649 525.634 162.847 525.49 162.955C520.338 167.417 514.688 171.268 508.651 174.432C508.624 174.448 508.594 174.459 508.563 174.464C508.531 174.469 508.499 174.468 508.468 174.46C508.437 174.453 508.408 174.439 508.383 174.421C508.357 174.402 508.335 174.378 508.319 174.351C508.302 174.324 508.291 174.294 508.286 174.262C508.281 174.231 508.283 174.199 508.29 174.168C508.298 174.137 508.311 174.108 508.33 174.082C508.349 174.056 508.372 174.035 508.4 174.018V174.018Z" fill="#263238"/>
<path d="M487.658 206.201C487.658 206.651 488.467 206.633 488.467 206.201C488.575 193.897 488.467 181.538 488.647 169.197C491.813 162.829 498.559 159.321 503.272 154.212C506.65 150.495 509.59 146.402 512.033 142.015C517.706 131.518 521.171 119.972 522.215 108.086C523.511 94.9361 518.528 51.5274 512.969 53.0385C510.109 53.812 500.79 75.3095 498.325 82.4154C494.324 94.1179 491.398 106.161 489.582 118.394C485.031 147.358 485.409 177.076 487.658 206.201Z" fill="#FF006D"/>
<path d="M487.514 153.15C488.197 137.589 491.687 121.885 494.979 106.791C498.577 90.6008 502.643 75.2197 511.008 60.7201C511.17 60.4503 511.566 60.7202 511.422 60.972C505.84 72.2452 501.521 84.1002 498.541 96.3215C499.099 95.458 499.782 94.6124 500.34 93.7849C500.556 93.4611 501.096 93.7849 500.88 94.1087C500.126 95.4206 499.247 96.6558 498.253 97.7966H498.145C495.267 109.418 493.198 121.309 491.435 133.164C491.557 133 491.69 132.844 491.831 132.696C491.921 132.696 492.065 132.696 492.011 132.84C491.795 133.236 491.543 133.614 491.309 134.01C490.41 140.036 489.51 146.045 488.755 151.999C499.549 142.824 508.543 132.031 513.778 118.736C513.778 118.736 513.904 118.736 513.886 118.736C508.831 132.516 500.862 144.785 488.593 153.168C488.359 154.769 488.143 156.371 487.909 157.972C487.909 158.295 487.334 158.205 487.334 157.882C487.334 156.478 487.334 155.057 487.46 153.636C487.431 153.601 487.409 153.56 487.396 153.517C487.383 153.473 487.379 153.427 487.384 153.382C487.389 153.337 487.403 153.293 487.426 153.253C487.448 153.213 487.478 153.178 487.514 153.15V153.15Z" fill="#263238"/>
<path d="M492.568 130.609C500.753 118.376 508.399 106.521 514.389 93.0112C514.404 92.9754 514.432 92.9468 514.467 92.9316C514.502 92.9164 514.542 92.9159 514.578 92.9302C514.614 92.9446 514.643 92.9725 514.658 93.0079C514.673 93.0434 514.674 93.0834 514.659 93.1192C509.604 106.539 502.534 120.103 492.964 130.897C492.784 131.131 492.388 130.843 492.568 130.609Z" fill="#263238"/>
<path d="M503.452 89.9891C506.835 83.9806 510.414 78.1519 513.599 71.9995C513.689 71.8376 513.922 71.9995 513.85 72.1614C511.246 78.5783 507.933 84.6846 503.974 90.3669C503.74 90.6007 503.255 90.3669 503.452 89.9891Z" fill="#263238"/>
<path d="M479.274 170.636C479.118 178.782 478.16 186.892 476.414 194.85L476.792 197.512C479.296 188.72 480.752 179.662 481.127 170.528C481.198 170.398 481.235 170.253 481.235 170.105C481.235 169.958 481.198 169.812 481.127 169.683C481.472 157.425 480.562 145.164 478.411 133.092C474.597 110.497 466.286 88.8016 450.509 71.9274C450.379 71.802 450.221 71.71 450.048 71.6593C449.875 71.6085 449.692 71.6004 449.515 71.6358C449.338 71.6711 449.173 71.7489 449.032 71.8623C448.892 71.9758 448.782 72.1216 448.71 72.2872C442.342 88.4778 444.573 107.745 449.987 123.881C452.929 132.615 457.136 140.87 462.472 148.383C467.995 155.903 474.885 162.325 479.274 170.636Z" fill="#FF006D"/>
<path d="M452.415 79.3932C467.347 103.643 477.745 132.39 479.022 161.012C479.022 161.533 478.194 161.659 478.123 161.138C477.763 158.565 477.367 156.011 476.953 153.474C470.765 147.556 464.361 141.313 460.007 133.902C459.917 133.776 460.115 133.632 460.205 133.74C465.33 140.063 470.833 146.07 476.683 151.729C475.604 145.397 474.345 139.136 472.834 133.038L471.664 131.653C471.394 131.347 471.826 130.897 472.096 131.203L472.456 131.599C470.36 123.184 467.753 114.906 464.648 106.809C460.853 102.276 456.589 98.3542 453.855 92.8853C453.855 92.7594 453.981 92.6515 454.053 92.7594C456.283 95.8896 458.442 99.0378 460.961 101.934C461.968 103.085 463.083 104.165 464.127 105.298C460.685 96.5104 456.596 87.99 451.894 79.807C451.861 79.7372 451.852 79.6583 451.87 79.5831C451.887 79.5079 451.93 79.4409 451.99 79.3929C452.051 79.3449 452.126 79.3189 452.203 79.3189C452.28 79.319 452.355 79.3451 452.415 79.3932V79.3932Z" fill="#263238"/>
<path d="M455.438 109.31C460.259 115.804 465.764 121.992 470.261 128.72C470.387 128.9 470.1 129.098 469.938 128.954C464.181 123.557 459.288 116.164 455.114 109.49C454.988 109.274 455.276 109.112 455.438 109.31Z" fill="#263238"/>
<path d="M470.927 130.214L471.143 130.43C471.287 130.573 471.053 130.789 470.909 130.645L470.711 130.448C470.567 130.304 470.783 130.07 470.927 130.214Z" fill="#263238"/>
<path d="M429.011 126.004C430.779 139.538 436.231 152.326 444.77 162.973C448.293 167.154 452.649 170.554 457.561 172.957C463.102 175.691 468.894 178.839 474.615 181.088C477.34 188.022 479.365 195.212 480.659 202.549C480.839 201.92 481.019 201.272 481.217 200.643C477.529 169.071 457.093 142.087 430.972 124.763C430.767 124.63 430.529 124.559 430.284 124.557C430.04 124.556 429.801 124.625 429.594 124.755C429.388 124.886 429.223 125.073 429.12 125.294C429.017 125.516 428.979 125.762 429.011 126.004V126.004Z" fill="#FF006D"/>
<path d="M438.042 135.341C437.862 135.179 438.042 134.855 438.312 134.999C452.674 145.678 464.124 159.794 471.611 176.051C471.808 176.483 471.215 176.86 470.963 176.429C469.758 174.306 468.516 172.219 467.257 170.186C461.285 169.053 455.636 164.789 451.21 160.868C451.084 160.76 451.21 160.58 451.39 160.688C453.66 162.804 456.194 164.617 458.928 166.085C461.375 167.326 463.983 168.1 466.52 169.089C464.307 165.581 462.004 162.217 459.594 158.943C453.126 156.504 447.062 153.108 441.604 148.869C441.566 148.845 441.539 148.807 441.529 148.763C441.518 148.719 441.526 148.673 441.55 148.635C441.574 148.597 441.612 148.57 441.656 148.559C441.7 148.549 441.746 148.557 441.784 148.581C447.176 151.841 452.736 154.813 458.442 157.486C454.798 152.685 450.869 148.108 446.677 143.778C444.644 142.698 442.593 141.619 440.633 140.486C440.471 140.396 440.633 140.108 440.758 140.18C442.394 140.747 443.953 141.514 445.4 142.464C443.079 139.982 440.651 137.625 438.042 135.341Z" fill="#263238"/>
<path d="M438.6 146.224C438.95 146.443 439.286 146.684 439.607 146.944C439.607 147.034 439.607 147.16 439.481 147.124C439.118 146.948 438.769 146.744 438.438 146.512C438.258 146.404 438.42 146.134 438.6 146.224Z" fill="#263238"/>
<path d="M521.999 270.928H450.383L456.158 205.716L457.435 191.324H514.947L516.225 205.716L521.999 270.928Z" fill="#455A64"/>
<path d="M516.225 205.716H456.158L457.435 191.324H514.947L516.225 205.716Z" fill="#263238"/>
<path d="M518.365 181.268H453.999V195.498H518.365V181.268Z" fill="#455A64"/>
<path d="M598.909 98.934C531.225 86.0352 413.472 319.905 283.53 96.2692C175.501 -89.651 51.1319 42.1536 12.255 91.8989C4.28982 102.091 3.66069 115.803 9.58934 127.3L97.3604 297.5C103.536 309.476 115.882 317 129.356 317H582.134C598.298 317 612.449 306.264 616.051 290.506C628.827 234.616 651.408 108.939 598.909 98.934Z" fill="url(#paint0_linear)"/>
<path d="M578.569 120.434C493.332 168.197 430.262 281.592 306.621 111.381C207.777 -24.6929 127.889 26.2743 99.8215 52.1911C92.4179 59.0274 89.988 69.2678 91.7239 79.1942L131.247 305.201C134.26 322.43 149.219 335 166.709 335H726.295C752.426 335 769.447 308.222 757.147 285.167C717.899 211.609 639.746 86.1538 578.569 120.434Z" fill="url(#paint1_linear)"/>
<defs>
<linearGradient id="paint0_linear" x1="451.836" y1="-50.4396" x2="336.064" y2="305.434" gradientUnits="userSpaceOnUse">
<stop stop-color="#FF62A5"/>
<stop offset="0.905865" stop-color="#FF8EBF"/>
</linearGradient>
<linearGradient id="paint1_linear" x1="579.304" y1="-25.1043" x2="489.21" y2="338.236" gradientUnits="userSpaceOnUse">
<stop offset="0.520833" stop-color="#5498E2"/>
<stop offset="0.905865" stop-color="#3A78BC"/>
</linearGradient>
</defs>
</svg>
