<svg width="1119" height="802" viewBox="0 0 1119 802" fill="none" xmlns="http://www.w3.org/2000/svg">
<path d="M109.047 221.119C109.047 221.119 125.391 217.604 134.346 209.772C143.301 201.941 148.248 187.921 148.248 187.921C142.037 189.052 135.915 190.581 129.921 192.495C127.675 194.684 125.805 197.193 124.379 199.931C124.241 198.161 124.241 196.384 124.379 194.614C122.289 195.472 120.333 196.598 118.566 197.96C111.145 204.129 109.047 221.119 109.047 221.119Z" fill="#DBDBDB"/>
<path d="M138.103 194.743C140.326 193.277 142.591 191.871 144.814 190.396C144.843 190.379 144.864 190.352 144.872 190.32C144.88 190.288 144.874 190.255 144.856 190.228C144.838 190.2 144.809 190.18 144.776 190.173C144.743 190.166 144.708 190.171 144.679 190.188C140.504 192.574 136.329 195.139 132.3 197.792C130.902 198.723 129.524 199.693 128.126 200.683L128.407 200.218C128.898 199.445 129.451 198.673 129.931 197.911C130.959 196.36 132.122 194.893 133.407 193.525C133.407 193.475 133.407 193.396 133.323 193.445C132.05 194.842 130.777 196.218 129.618 197.693C129.065 198.396 128.575 199.129 128.063 199.871C127.813 200.257 127.562 200.644 127.333 201.04L127.082 201.436C124.995 203.01 122.907 204.653 120.956 206.386C119.745 207.455 118.576 208.574 117.438 209.713C118.075 207.842 118.628 205.941 119.359 204.099C119.359 204.086 119.353 204.073 119.343 204.064C119.334 204.055 119.32 204.049 119.307 204.049C119.293 204.049 119.279 204.055 119.27 204.064C119.26 204.073 119.254 204.086 119.254 204.099C118.545 206.079 117.762 207.98 117.167 209.97C115.915 211.257 114.725 212.584 113.598 213.931C113.61 213.844 113.627 213.758 113.65 213.673C113.838 212.95 114.026 212.218 114.234 211.495C114.631 210.089 115.069 208.693 115.57 207.327C116.509 204.47 117.995 201.801 119.954 199.455C119.954 199.406 119.954 199.337 119.881 199.386C116.815 203.006 114.672 207.248 113.619 211.782C113.445 212.442 113.278 213.102 113.118 213.762C113.034 214.109 112.94 214.465 112.877 214.832C112.377 215.465 111.896 216.099 111.437 216.762C108.648 220.804 106.328 225.119 104.518 229.634C102.484 234.702 100.742 239.871 99.2992 245.119C99.2992 245.14 99.308 245.16 99.3237 245.175C99.3393 245.19 99.3605 245.198 99.3827 245.198C99.4048 245.198 99.4261 245.19 99.4417 245.175C99.4574 245.16 99.4662 245.14 99.4662 245.119C102.67 236.05 105.927 226.842 111.395 218.743C112.554 217.03 113.806 215.376 115.132 213.792C117.837 213.627 120.508 213.125 123.074 212.297C125.88 211.401 128.555 210.173 131.038 208.644C132.453 207.741 133.815 206.766 135.118 205.723C135.181 205.673 135.118 205.594 135.056 205.644C132.771 207.387 130.251 208.832 127.562 209.941C124.92 211.09 122.156 211.97 119.317 212.564C118.117 212.812 116.885 213 115.664 213.158C117.177 211.39 118.786 209.698 120.486 208.089C121.039 207.564 121.603 207.099 122.177 206.564C124.081 205.301 126.1 204.201 128.209 203.277C130.891 202.049 133.522 200.752 136.173 199.475C137.675 198.752 139.157 198.01 140.66 197.317C140.723 197.317 140.66 197.198 140.608 197.228C137.915 198.455 135.191 199.604 132.478 200.782C129.931 201.891 127.353 203.01 124.901 204.307L124.588 204.485C126.8 202.653 129.096 200.921 131.445 199.238C133.643 197.713 135.863 196.214 138.103 194.743Z" fill="#A6A6A6"/>
<path d="M137.174 202.733C135.838 203.287 134.492 203.772 133.177 204.356C131.862 204.941 130.536 205.663 129.253 206.337C129.24 206.343 129.231 206.354 129.227 206.367C129.223 206.38 129.225 206.394 129.232 206.406C129.239 206.418 129.25 206.426 129.264 206.43C129.278 206.434 129.292 206.432 129.305 206.426C130.61 205.832 131.925 205.277 133.219 204.663C134.513 204.049 135.849 203.356 137.206 202.792C137.268 202.802 137.237 202.703 137.174 202.733Z" fill="#A6A6A6"/>
<path d="M55.9656 143C58.9846 146.694 60.6944 151.199 60.85 155.871C60.9022 157.257 60.6726 159.198 60.5056 161.475C64.5875 163.715 68.2027 166.644 71.172 170.119C67.9073 168.322 64.1592 167.472 60.3908 167.673C60.482 169.23 60.6912 170.779 61.017 172.307C63.3944 172.304 65.7492 172.744 67.9471 173.604C65.796 173.579 63.663 173.98 61.685 174.782C64.5968 183.574 73.2594 192.604 97.1702 196.436C99.6979 185.658 98.2001 174.381 92.9328 164.535C85.7732 151.168 55.9656 143 55.9656 143Z" fill="#DBDBDB"/>
<path d="M105.457 234.06C105.05 230.307 104.528 226.555 103.912 222.832C102.702 215.357 101.093 207.945 99.0904 200.624C98.1533 197.192 96.9997 193.816 95.6358 190.515C95.7087 189.91 95.7401 189.302 95.7297 188.693C95.7297 187.971 95.7297 187.248 95.7297 186.515C95.7297 185.07 95.6358 183.614 95.5106 182.169C95.2664 179.3 94.7742 176.456 94.039 173.664C93.6006 172.05 93.0997 170.456 92.5987 168.862C92.5987 168.848 92.5932 168.836 92.5834 168.827C92.5736 168.817 92.5604 168.812 92.5465 168.812C92.5327 168.812 92.5194 168.817 92.5096 168.827C92.4998 168.836 92.4943 168.848 92.4943 168.862C93.2853 171.649 93.8746 174.484 94.2581 177.347C94.6825 180.17 94.9508 183.012 95.0618 185.862C95.0618 186.634 95.0618 187.416 95.0618 188.198C95.0618 188.525 95.0618 188.862 95.0618 189.188C93.891 186.472 92.5456 183.827 91.0332 181.268C88.6077 177.212 85.873 173.331 82.8507 169.654C82.8453 169.225 82.7822 168.799 82.6628 168.386C82.548 167.881 82.4332 167.396 82.308 166.871C82.0714 165.835 81.8001 164.805 81.4939 163.782C80.899 161.723 80.1163 159.743 79.4066 157.713C79.4066 157.7 79.4011 157.687 79.3913 157.678C79.3815 157.669 79.3682 157.664 79.3544 157.664C79.3405 157.664 79.3273 157.669 79.3175 157.678C79.3077 157.687 79.3022 157.7 79.3022 157.713C79.9284 159.693 80.3459 161.802 80.8364 163.842C81.0764 164.832 81.3061 165.822 81.5461 166.881L81.8905 168.396C81.8855 168.436 81.8855 168.476 81.8905 168.515C80.9199 167.357 79.9388 166.218 78.9264 165.099C74.3656 160.02 69.3559 155.327 64.3149 150.683C63.6991 150.109 63.0625 149.555 62.4363 148.99L62.3632 149.06C67.1746 153.832 71.9129 158.644 76.4008 163.693C77.4444 164.891 78.4881 166.099 79.5318 167.337C78.9891 166.98 78.4881 166.644 77.9037 166.347C76.5156 165.485 75.1066 164.644 73.6559 163.872C72.2051 163.099 70.744 162.347 69.2515 161.644C67.7591 160.941 66.1205 160.337 64.5967 159.525C64.5341 159.525 64.4819 159.594 64.5445 159.614C66.0567 160.276 67.5149 161.044 68.9071 161.911C70.3578 162.723 71.819 163.555 73.2384 164.416C74.6578 165.277 76.0563 166.089 77.4131 166.951C78.582 167.664 79.7197 168.446 80.9303 169.109C83.7572 172.498 86.371 176.042 88.7579 179.723C90.2036 182.034 91.5238 184.413 92.7135 186.852L91.8577 186.495L89.6659 185.575C88.257 184.98 86.848 184.406 85.439 183.822C82.7568 182.713 80.0328 181.703 77.4027 180.485C75.919 179.826 74.4825 179.076 73.1027 178.238C73.0401 178.238 72.9879 178.287 73.0505 178.327C77.9454 181.535 83.4873 183.792 88.8727 186.07L91.221 187.06C91.8681 187.327 92.5152 187.634 93.1832 187.872C94.7887 191.279 96.1384 194.789 97.2222 198.376C99.3669 205.598 101.109 212.922 102.441 220.317C103.808 227.723 104.737 235.169 105.446 242.674C105.54 243.604 105.634 244.535 105.739 245.476C105.739 245.554 105.772 245.63 105.83 245.686C105.889 245.741 105.969 245.773 106.052 245.773C106.135 245.773 106.214 245.741 106.273 245.686C106.332 245.63 106.365 245.554 106.365 245.476C106.281 241.604 105.864 237.842 105.457 234.06Z" fill="#A6A6A6"/>
<path d="M90.9082 171.426C90.4699 169.119 89.8645 166.871 89.1653 164.614C89.1653 164.601 89.1598 164.588 89.15 164.579C89.1402 164.57 89.1269 164.565 89.1131 164.565C89.0992 164.565 89.086 164.57 89.0762 164.579C89.0664 164.588 89.0609 164.601 89.0609 164.614C89.6662 166.832 90.1046 169.089 90.5325 171.337C90.9604 173.584 91.3779 175.931 91.7223 178.267H91.7849C91.6285 175.973 91.3358 173.689 90.9082 171.426V171.426Z" fill="#A6A6A6"/>
<path d="M80.607 177.683C78.9372 176.646 77.1936 175.72 75.3886 174.911C74.5224 174.475 73.6352 174.069 72.7585 173.664C71.8818 173.258 70.9008 172.901 70.0032 172.466C69.9301 172.466 69.878 172.535 69.9406 172.565C70.8173 172.98 71.6522 173.485 72.508 173.931L75.1903 175.268C76.9437 176.159 78.6553 177.139 80.4922 177.862C80.5137 177.86 80.5344 177.854 80.5528 177.843C80.5711 177.832 80.5865 177.818 80.5977 177.8C80.6089 177.783 80.6156 177.763 80.6173 177.743C80.6189 177.723 80.6154 177.702 80.607 177.683V177.683Z" fill="#A6A6A6"/>
<path opacity="0.1" d="M109.35 194.267C109.35 194.267 124.463 190.842 131.403 181.218C138.041 172.03 140.18 156.366 140.347 154.99C140.076 156.257 136.955 169.941 126.665 176.317C118.785 181.208 111.166 185.218 109.35 194.267Z" fill="#A6A6A6"/>
<path d="M123.304 169.485C120.615 171.831 118.683 174.852 117.731 178.198C117.731 178.198 117.731 178.198 117.731 178.198C118.846 174.934 120.767 171.97 123.335 169.554C123.429 169.515 123.356 169.435 123.304 169.485Z" fill="#A6A6A6"/>
<path d="M109.35 194.267C109.35 194.267 124.462 190.842 131.403 181.218C138.041 172.03 140.18 156.366 140.347 154.99C140.351 154.957 140.351 154.924 140.347 154.891C140.347 154.891 133.094 164.673 125.475 167.168C117.856 169.663 107.158 178.287 109.35 194.267Z" fill="#DBDBDB"/>
<path d="M137.686 160.287C136.331 162.923 134.768 165.459 133.01 167.871C131.233 170.163 129.125 172.206 126.748 173.94C124.66 175.485 122.573 176.911 120.486 178.406L120.538 178.337C120.924 177.782 121.342 177.247 121.769 176.733C122.636 175.683 123.585 174.693 124.535 173.713C126.414 171.733 128.334 169.881 130.015 167.772C130.955 166.619 131.769 165.378 132.446 164.069C132.446 164.01 132.373 163.98 132.342 164.069C129.889 168.911 124.984 171.99 121.498 176.109C120.998 176.689 120.532 177.294 120.1 177.921C119.753 178.375 119.459 178.863 119.223 179.376C117.31 180.834 115.58 182.495 114.067 184.327C114.199 183.387 114.402 182.457 114.672 181.544C115.022 180.267 115.563 179.043 116.28 177.911C116.28 177.851 116.217 177.792 116.186 177.851C115.447 178.985 114.855 180.198 114.422 181.465C114.104 182.469 113.918 183.507 113.869 184.554V184.554C113.124 185.519 112.444 186.528 111.834 187.574L112.021 186.653C112.314 185.228 112.648 183.802 113.065 182.386C113.776 179.515 115.005 176.781 116.697 174.307C116.697 174.247 116.645 174.198 116.603 174.247C114.873 176.694 113.517 179.361 112.575 182.168C112.095 183.574 111.708 185 111.374 186.445C111.207 187.148 111.051 187.861 110.915 188.574C110.842 188.941 110.759 189.317 110.696 189.693C109.196 192.817 108.025 196.074 107.2 199.416C105.721 205.391 104.648 211.449 103.985 217.554C103.199 223.945 102.85 230.378 102.941 236.812C102.941 237.614 103.004 238.416 103.046 239.228C103.046 239.436 103.39 239.465 103.401 239.228C103.547 236.04 103.63 232.861 103.829 229.673C104.027 226.485 104.319 223.317 104.684 220.148C105.362 213.916 106.408 207.725 107.815 201.604C109.037 196.356 110.623 191.079 113.65 186.485C115.151 184.199 116.989 182.129 119.108 180.337C121.195 178.525 123.544 176.95 125.777 175.277C128.039 173.649 130.092 171.775 131.893 169.693C133.745 167.377 135.356 164.897 136.705 162.287C137.059 161.634 137.425 160.99 137.748 160.307C137.811 160.287 137.717 160.228 137.686 160.287Z" fill="#A6A6A6"/>
<path d="M53.868 187.921C53.868 187.921 53.6279 208.307 66.4756 214.188C79.3234 220.069 86.2012 215.178 94.9369 217.159C94.6029 216.673 88.3721 208.168 78.4571 205.832C68.2499 203.406 56.9573 196.416 53.868 187.921Z" fill="#DBDBDB"/>
<path opacity="0.1" d="M53.868 187.921C53.868 187.921 53.6279 208.307 66.4756 214.188C79.3234 220.069 86.2012 215.178 94.9369 217.159C90.3253 215.07 85.3934 213.69 80.3253 213.069C72.2159 212.119 56.7381 207.119 53.868 187.921Z" fill="#A6A6A6"/>
<path d="M95.7822 217.505C94.2525 216.185 92.53 215.081 90.6682 214.228C90.3968 214.099 90.115 214 89.8332 213.881C89.5514 213.762 89.5514 213.564 89.4053 213.416C89.0191 213.04 88.6121 212.673 88.1946 212.327C87.3884 211.668 86.5222 211.078 85.6063 210.564C83.519 209.376 81.1498 208.584 78.9685 207.436C78.9059 207.436 78.8537 207.505 78.9163 207.535C79.96 208.059 81.0037 208.644 82.0474 209.228C83.091 209.812 84.1347 210.327 85.0949 210.931C85.9913 211.472 86.8427 212.078 87.6415 212.743C87.8711 212.931 88.0798 213.129 88.299 213.337C86.8782 212.885 85.4279 212.521 83.9573 212.248C81.609 211.792 79.2294 211.475 76.8811 211C75.7276 210.769 74.5883 210.478 73.4683 210.129C72.4246 209.317 71.3809 208.505 70.3373 207.624C69.1148 206.56 68.0001 205.39 67.0079 204.129C67.0038 204.123 66.9985 204.118 66.9923 204.114C66.9862 204.11 66.9793 204.107 66.972 204.106C66.9647 204.105 66.9572 204.105 66.95 204.106C66.9427 204.107 66.9358 204.11 66.9296 204.114C66.9235 204.118 66.9182 204.123 66.914 204.129C66.9099 204.134 66.9071 204.141 66.9056 204.148C66.9041 204.155 66.9041 204.162 66.9056 204.169C66.907 204.176 66.9099 204.182 66.914 204.188C68.4556 206.184 70.2038 208.028 72.1324 209.693C71.5792 209.495 71.0261 209.287 70.4938 209.049C66.082 207.174 62.2957 204.188 59.5456 200.416C59.5456 200.356 59.4099 200.416 59.4517 200.465C61.7846 203.705 64.7977 206.452 68.3021 208.535C70.0595 209.573 71.9365 210.416 73.8962 211.05C76.1769 211.717 78.5027 212.236 80.8576 212.604C83.1613 212.962 85.4353 213.475 87.6624 214.139C89.7103 214.801 91.6365 215.763 93.3713 216.99C96.6456 219.401 99.2827 222.503 101.074 226.05C103.366 230.735 104.799 235.758 105.311 240.901C105.311 241.119 105.697 241.119 105.676 240.901C105.154 232.376 102.744 223.455 95.7822 217.505Z" fill="#A6A6A6"/>
<path d="M80.8678 210.911C80.1982 209.96 79.2911 209.181 78.2272 208.644C77.0158 208.035 75.9498 207.196 75.0962 206.178C75.0962 206.119 74.9605 206.178 75.0022 206.228C75.7749 207.162 76.7146 207.959 77.7785 208.584C78.9447 209.177 79.9738 209.985 80.8051 210.961C80.826 210.961 80.8991 210.911 80.8678 210.911Z" fill="#A6A6A6"/>
<path d="M87.6832 232.554L88.2677 243.762L90.0628 278H117.011L118.806 243.762L119.39 232.554H87.6832Z" fill="#EBEBEB"/>
<path d="M87.6832 232.554L88.2677 243.762H118.806L119.39 232.554H87.6832Z" fill="#DBDBDB"/>
<path d="M85.794 227.871H121.279V238.565H85.794V227.871Z" fill="#EBEBEB"/>
<path d="M54.3046 187.688C140.081 194.688 255.342 414.312 380.856 143.688C476.823 -63.2271 857.556 309.519 1031.49 496.483C1056.44 523.291 1029.4 563.157 994.777 551.239L593.757 413.197C589.896 411.868 585.837 411.205 581.754 411.238L49.7274 415.457C32.7393 415.592 18.0019 403.827 15.1328 387.082C4.43751 324.663 -12.7568 182.216 54.3046 187.688Z" fill="url(#paint0_linear)"/>
<path d="M37.2842 198.189C121.174 183.632 226.123 396.067 387.177 143.688C497.891 -29.8064 775.289 346.095 937.881 598.03C960.273 632.727 918.765 666.143 888.751 637.78L669.961 431.023C663.277 424.707 654.43 421.188 645.235 421.188H61.6019C46.9092 421.188 33.7301 412.34 28.9063 398.462C9.98241 344.018 -29.4435 209.767 37.2842 198.189Z" fill="url(#paint1_linear)"/>
<path d="M456.869 54.4495C460.721 31.6863 444.391 10.2708 420.396 6.61656C396.401 2.96234 373.827 18.4532 369.975 41.2164C366.123 63.9796 382.452 85.3951 406.447 89.0493C430.442 92.7036 453.017 77.2127 456.869 54.4495Z" fill="#EBEBEB"/>
<path d="M415.437 88.5852C438.624 88.5852 457.421 70.7534 457.421 48.7567C457.421 26.7601 438.624 8.9283 415.437 8.9283C392.25 8.9283 373.453 26.7601 373.453 48.7567C373.453 70.7534 392.25 88.5852 415.437 88.5852Z" fill="#DBDBDB"/>
<path d="M415.438 86.072C437.161 86.072 454.772 69.3654 454.772 48.7567C454.772 28.1481 437.161 11.4414 415.438 11.4414C393.714 11.4414 376.103 28.1481 376.103 48.7567C376.103 69.3654 393.714 86.072 415.438 86.072Z" fill="white"/>
<path opacity="0.5" d="M453.883 40.8416C435.968 51.1344 406.529 68.0242 390.076 77.2822C385.424 73.5618 381.745 68.8683 379.33 63.5708L433.748 15.7286C438.831 18.2687 443.267 21.8327 446.745 26.1708C450.223 30.5089 452.659 35.5162 453.883 40.8416V40.8416Z" fill="#EBEBEB"/>
<path opacity="0.5" d="M454.739 50.0625C454.596 54.2129 453.718 58.3108 452.142 62.1848L403.081 84.1994C400.944 83.5271 398.871 82.6822 396.887 81.674C411.71 73.537 438.786 58.7538 454.739 50.0625Z" fill="#EBEBEB"/>
<path d="M415.814 14.1517H415.054V19.8063H415.814V14.1517Z" fill="#C7C7C7"/>
<path d="M397.524 18.6027L396.866 18.9631L399.846 23.8601L400.504 23.4997L397.524 18.6027Z" fill="#C7C7C7"/>
<path d="M384.031 31.1423L383.651 31.7664L388.813 34.5937L389.193 33.9696L384.031 31.1423Z" fill="#C7C7C7"/>
<path d="M384.92 48.3995H378.96V49.1202H384.92V48.3995Z" fill="#C7C7C7"/>
<path d="M438.028 62.9341L443.19 65.7614L442.81 66.3855L437.648 63.5582L438.028 62.9341Z" fill="#C7C7C7"/>
<path d="M426.999 73.6566L429.976 78.5551L429.318 78.9151L426.341 74.0166L426.999 73.6566Z" fill="#C7C7C7"/>
<path d="M411.03 77.7072H411.789V83.3618H411.03V77.7072Z" fill="#C7C7C7"/>
<path d="M395.824 73.6535L396.482 74.0138L393.502 78.9109L392.844 78.5505L395.824 73.6535Z" fill="#C7C7C7"/>
<path d="M384.792 62.9181L385.172 63.5422L380.01 66.3695L379.63 65.7454L384.792 62.9181Z" fill="#C7C7C7"/>
<path d="M451.915 48.3995H445.955V49.1202H451.915V48.3995Z" fill="#C7C7C7"/>
<path d="M446.836 31.152L441.674 33.9793L442.053 34.6034L447.215 31.7761L446.836 31.152Z" fill="#C7C7C7"/>
<path d="M433.343 18.6068L430.365 23.5053L431.023 23.8653L434.001 18.9668L433.343 18.6068Z" fill="#C7C7C7"/>
<path d="M416.009 16.7141L417.301 51.276L413.574 51.2329L414.996 16.7017L416.009 16.7141Z" fill="#C7C7C7"/>
<path d="M438.702 36.7083L414.191 51.547L412.412 48.4364L438.221 35.8583L438.702 36.7083Z" fill="#A6A6A6"/>
<path d="M416.71 48.7566C416.71 49.0003 416.634 49.2385 416.491 49.4411C416.349 49.6437 416.146 49.8016 415.908 49.8948C415.671 49.988 415.41 50.0124 415.158 49.9649C414.906 49.9174 414.675 49.8 414.493 49.6278C414.312 49.4555 414.188 49.236 414.138 48.997C414.088 48.758 414.113 48.5103 414.212 48.2852C414.31 48.0601 414.477 47.8677 414.69 47.7323C414.904 47.597 415.155 47.5247 415.412 47.5247C415.756 47.5247 416.086 47.6545 416.33 47.8855C416.573 48.1166 416.71 48.4299 416.71 48.7566Z" fill="#C7C7C7"/>
<defs>
<linearGradient id="paint0_linear" x1="255.24" y1="-33.4513" x2="421.681" y2="374.935" gradientUnits="userSpaceOnUse">
<stop stop-color="#FF62A5"/>
<stop offset="0.905865" stop-color="#FF8EBF"/>
</linearGradient>
<linearGradient id="paint1_linear" x1="232.672" y1="6.52386" x2="353.613" y2="414.816" gradientUnits="userSpaceOnUse">
<stop offset="0.520833" stop-color="#5498E2"/>
<stop offset="0.905865" stop-color="#3A78BC"/>
</linearGradient>
</defs>
</svg>
