<svg width="1252" height="397" viewBox="0 0 1252 397" fill="none" xmlns="http://www.w3.org/2000/svg">
<path d="M904.441 76.0387C875.195 115.672 844.609 161.623 837.261 211.308C837.261 212.074 838.386 212.313 838.554 211.571C841.921 198.014 846.247 184.714 851.501 171.771C870.648 166.481 889.603 162.197 899.702 143.051C909.993 123.45 908.677 97.8656 906.739 76.4935C906.595 75.225 905.039 75.1771 904.441 76.0387Z" fill="#FF006D"/>
<path d="M851.789 171.292C864.928 141.806 881.825 112.201 903.365 88.005C903.508 87.8375 903.724 88.005 903.58 88.2444C889.555 105.5 878.881 124.311 868.47 143.458C878.163 133.621 888.765 124.814 897.932 114.379C897.972 114.349 898.022 114.334 898.072 114.337C898.122 114.339 898.17 114.36 898.206 114.394C898.243 114.428 898.267 114.474 898.274 114.523C898.281 114.573 898.27 114.624 898.243 114.666C889.124 125.604 879.096 137.498 867.297 145.588C864.106 151.459 860.915 157.339 857.724 163.226C858.538 162.772 859.352 162.389 860.118 161.982C860.261 161.982 860.405 162.125 860.237 162.197C859.352 162.652 858.442 163.131 857.509 163.537C855.977 166.314 854.445 169.114 852.866 171.89C852.363 172.464 851.502 171.914 851.789 171.292Z" fill="#263238"/>
<path d="M861.554 161.001C869.421 156.608 876.928 151.598 884.003 146.019C884.195 145.875 884.482 146.138 884.29 146.282C877.437 152.218 869.92 157.342 861.889 161.551C861.853 161.573 861.813 161.588 861.771 161.594C861.729 161.601 861.686 161.599 861.645 161.589C861.604 161.579 861.565 161.561 861.531 161.536C861.497 161.511 861.468 161.48 861.446 161.443C861.424 161.407 861.409 161.367 861.403 161.325C861.397 161.284 861.398 161.241 861.408 161.2C861.418 161.159 861.436 161.12 861.461 161.086C861.486 161.052 861.518 161.023 861.554 161.001V161.001Z" fill="#263238"/>
<path d="M833.959 203.817C833.959 204.415 835.036 204.391 835.036 203.817C835.18 187.447 835.036 171.005 835.275 154.587C839.487 146.114 848.462 141.447 854.733 134.65C859.226 129.706 863.137 124.261 866.388 118.424C873.934 104.459 878.544 89.0984 879.934 73.2862C881.657 55.7912 875.028 -1.95916 867.633 0.0512085C863.827 1.08033 851.43 29.6802 848.151 39.1338C842.828 54.7026 838.935 70.7242 836.52 86.9997C830.465 125.532 830.967 165.069 833.959 203.817Z" fill="#FF006D"/>
<path d="M833.767 133.239C834.677 112.536 839.32 91.643 843.7 71.5632C848.486 50.0235 853.895 29.5607 865.024 10.2707C865.239 9.9117 865.766 10.2707 865.574 10.6058C858.149 25.6035 852.402 41.3752 848.438 57.6342C849.18 56.4854 850.09 55.3605 850.832 54.2596C851.119 53.8288 851.837 54.2596 851.55 54.6904C850.547 56.4357 849.377 58.079 848.055 59.5967H847.912C844.082 75.0574 841.33 90.8771 838.985 106.649C839.147 106.431 839.323 106.223 839.511 106.027C839.631 106.027 839.822 106.027 839.751 106.218C839.463 106.745 839.128 107.247 838.817 107.774C837.621 115.791 836.424 123.785 835.419 131.707C849.778 119.501 861.745 105.141 868.709 87.4547C868.709 87.4547 868.877 87.4547 868.853 87.4547C862.128 105.787 851.526 122.11 835.203 133.262C834.892 135.393 834.605 137.523 834.294 139.653C834.294 140.083 833.528 139.964 833.528 139.533C833.528 137.666 833.528 135.775 833.696 133.885C833.657 133.838 833.629 133.784 833.611 133.726C833.594 133.668 833.589 133.607 833.595 133.547C833.602 133.486 833.621 133.428 833.65 133.375C833.68 133.322 833.72 133.276 833.767 133.239V133.239Z" fill="#263238"/>
<path d="M840.492 103.25C851.381 86.9759 861.553 71.204 869.523 53.2304C869.542 53.1828 869.579 53.1447 869.626 53.1245C869.673 53.1043 869.726 53.1036 869.774 53.1226C869.821 53.1417 869.86 53.1788 869.88 53.226C869.9 53.2731 869.901 53.3263 869.882 53.374C863.156 71.228 853.751 89.2735 841.018 103.633C840.779 103.944 840.252 103.561 840.492 103.25Z" fill="#263238"/>
<path d="M854.972 49.2097C859.472 41.2161 864.234 33.4617 868.471 25.2766C868.59 25.0612 868.901 25.2766 868.806 25.492C865.34 34.029 860.933 42.1527 855.666 49.7123C855.355 50.0234 854.709 49.7123 854.972 49.2097Z" fill="#263238"/>
<path d="M822.806 156.501C822.598 167.338 821.323 178.128 819.001 188.715L819.503 192.257C822.836 180.56 824.772 168.51 825.271 156.358C825.365 156.185 825.415 155.992 825.415 155.795C825.415 155.599 825.365 155.405 825.271 155.233C825.73 138.925 824.519 122.614 821.657 106.553C816.583 76.493 805.526 47.6298 784.537 25.1807C784.365 25.0139 784.154 24.8915 783.924 24.8239C783.694 24.7564 783.45 24.7456 783.215 24.7927C782.98 24.8398 782.759 24.9432 782.573 25.0941C782.386 25.2451 782.239 25.439 782.144 25.6594C773.672 47.1991 776.639 72.8313 783.843 94.2992C787.757 105.918 793.353 116.9 800.453 126.896C807.8 136.9 816.966 145.444 822.806 156.501Z" fill="#FF006D"/>
<path d="M787.073 35.113C806.938 67.3747 820.771 105.62 822.47 143.697C822.47 144.391 821.369 144.559 821.274 143.865C820.795 140.442 820.268 137.044 819.718 133.669C811.485 125.795 802.965 117.49 797.173 107.63C797.054 107.463 797.317 107.271 797.436 107.415C804.255 115.827 811.576 123.819 819.359 131.348C817.923 122.923 816.248 114.595 814.237 106.481L812.682 104.638C812.323 104.232 812.897 103.633 813.256 104.04L813.735 104.567C810.947 93.3722 807.478 82.3585 803.348 71.587C798.298 65.5559 792.626 60.3384 788.988 53.0628C788.988 52.8953 789.156 52.7516 789.251 52.8952C792.219 57.0596 795.091 61.2479 798.442 65.1011C799.782 66.6328 801.266 68.0688 802.654 69.5766C798.075 57.8855 792.635 46.5501 786.379 35.6635C786.335 35.5707 786.324 35.4657 786.348 35.3657C786.371 35.2657 786.427 35.1765 786.508 35.1127C786.588 35.0489 786.688 35.0141 786.791 35.0142C786.893 35.0143 786.993 35.0491 787.073 35.113V35.113Z" fill="#263238"/>
<path d="M791.095 74.9135C797.509 83.5533 804.832 91.7863 810.816 100.737C810.983 100.977 810.6 101.24 810.385 101.048C802.726 93.8684 796.216 84.032 790.664 75.1529C790.496 74.8657 790.879 74.6503 791.095 74.9135Z" fill="#263238"/>
<path d="M811.701 102.724L811.988 103.011C812.18 103.202 811.869 103.49 811.677 103.298L811.414 103.035C811.223 102.844 811.51 102.532 811.701 102.724Z" fill="#263238"/>
<path d="M755.937 97.1237C758.289 115.128 765.541 132.141 776.902 146.306C781.589 151.868 787.385 156.392 793.919 159.589C801.29 163.227 808.996 167.415 816.607 170.406C820.233 179.632 822.927 189.197 824.649 198.958C824.888 198.121 825.127 197.259 825.391 196.422C820.484 154.419 793.296 118.52 758.546 95.4723C758.273 95.2955 757.955 95.2006 757.63 95.1988C757.306 95.197 756.987 95.2885 756.712 95.4623C756.438 95.6361 756.219 95.885 756.081 96.1794C755.944 96.4739 755.894 96.8016 755.937 97.1237V97.1237Z" fill="#FF006D"/>
<path d="M767.951 109.545C767.712 109.329 767.951 108.899 768.31 109.09C787.418 123.298 802.65 142.077 812.61 163.705C812.874 164.28 812.084 164.782 811.749 164.208C810.145 161.384 808.494 158.607 806.819 155.903C798.873 154.395 791.358 148.723 785.47 143.506C785.303 143.362 785.47 143.123 785.71 143.266C788.729 146.081 792.1 148.494 795.738 150.446C798.992 152.098 802.463 153.127 805.837 154.443C802.894 149.776 799.83 145.301 796.623 140.945C788.019 137.701 779.952 133.183 772.69 127.542C772.639 127.511 772.603 127.46 772.59 127.402C772.576 127.343 772.586 127.282 772.618 127.231C772.65 127.18 772.701 127.144 772.759 127.131C772.817 127.117 772.879 127.128 772.929 127.159C780.103 131.496 787.501 135.45 795.091 139.006C790.243 132.62 785.016 126.53 779.439 120.769C776.735 119.333 774.006 117.897 771.398 116.39C771.182 116.27 771.398 115.887 771.565 115.983C773.741 116.737 775.815 117.758 777.74 119.022C774.653 115.719 771.422 112.584 767.951 109.545Z" fill="#263238"/>
<path d="M768.693 124.024C769.159 124.316 769.607 124.635 770.033 124.981C770.033 125.101 770.033 125.268 769.866 125.221C769.382 124.987 768.918 124.715 768.478 124.407C768.239 124.263 768.454 123.904 768.693 124.024Z" fill="#263238"/>
<path d="M879.647 289.928H784.369L792.052 203.171L793.751 184.024H870.265L871.964 203.171L879.647 289.928Z" fill="#455A64"/>
<path d="M871.964 203.171H792.052L793.751 184.024H870.265L871.964 203.171Z" fill="#263238"/>
<path d="M874.812 170.646H789.18V189.577H874.812V170.646Z" fill="#455A64"/>
<path d="M959 132.5C850.621 117.979 662.07 381.271 454 129.5C282.559 -77.9486 85.4147 65.9655 21.3166 123.064C8.44131 134.534 7.36577 153.542 17.5639 167.446L161.212 363.292C167.994 372.538 178.774 378 190.241 378H951.462C966.229 378 979.462 369.042 984.174 355.047C1003.96 296.285 1046.28 144.195 959 132.5Z" fill="url(#paint0_linear)"/>
<path d="M926 149.5C789.5 204.5 688.5 335.075 490.5 139.075C331.375 -18.4423 202.93 41.6982 158.626 71.3865C147.841 78.6132 143.897 91.8754 146.965 104.49L211.314 369.082C215.238 385.217 229.689 396.575 246.294 396.575H1186.74C1215.03 396.575 1231.66 365.944 1214.9 343.15C1153.07 259.087 1025.51 109.403 926 149.5Z" fill="url(#paint1_linear)"/>
<defs>
<linearGradient id="paint0_linear" x1="723.5" y1="-35.6656" x2="627.202" y2="385.354" gradientUnits="userSpaceOnUse">
<stop stop-color="#FF62A5"/>
<stop offset="0.905865" stop-color="#FF8EBF"/>
</linearGradient>
<linearGradient id="paint1_linear" x1="927.177" y1="-18.0898" x2="850.431" y2="412.342" gradientUnits="userSpaceOnUse">
<stop offset="0.520833" stop-color="#5498E2"/>
<stop offset="0.905865" stop-color="#3A78BC"/>
</linearGradient>
</defs>
</svg>
