<svg width="626" height="425" viewBox="0 0 626 425" fill="none" xmlns="http://www.w3.org/2000/svg">
<path d="M568.48 190.171C503.248 175.65 371.903 398.402 246.669 146.632C135.11 -77.6454 81.0145 15.9475 70.5301 39.0629C69.1416 42.1242 68.5104 45.3735 68.3041 48.7287L48.0927 377.462C46.8193 398.174 63.2737 415.671 84.0249 415.671H507.234C520.938 415.671 533.436 407.923 539.093 395.44C563.188 342.28 621.259 201.921 568.48 190.171Z" fill="url(#paint0_linear)"/>
<path d="M564.267 200.671C480.385 186.115 419.41 407.361 258.371 154.982C108.613 -79.7172 62.3568 33.1881 56.6109 50.1587C56.1466 51.53 55.8672 52.8889 55.6521 54.3206L6.21356 383.322C2.94241 405.09 19.8008 424.671 41.8139 424.671H590.396C608.568 424.671 623.822 411.159 624.881 393.018C628.331 333.902 627.639 211.669 564.267 200.671Z" fill="url(#paint1_linear)"/>
<defs>
<linearGradient id="paint0_linear" x1="377.683" y1="2.00573" x2="230.564" y2="389.144" gradientUnits="userSpaceOnUse">
<stop stop-color="#FF62A5"/>
<stop offset="0.905865" stop-color="#FF8EBF"/>
</linearGradient>
<linearGradient id="paint1_linear" x1="426.843" y1="10.0067" x2="305.894" y2="418.293" gradientUnits="userSpaceOnUse">
<stop offset="0.520833" stop-color="#5498E2"/>
<stop offset="0.905865" stop-color="#3A78BC"/>
</linearGradient>
</defs>
</svg>
