<svg width="1154" height="387" viewBox="0 0 1154 387" fill="none" xmlns="http://www.w3.org/2000/svg">
<path d="M593 132.308V361.564H731.619V132.308H593ZM718.993 276.956H605.576V217.266H718.993V276.956ZM718.993 203.054H605.576V143.381H718.993V203.054Z" fill="#EBEBEB"/>
<path d="M787 132.308H731.586V361.547H787V132.308Z" fill="#DBDBDB"/>
<path d="M632.532 143.381H605.576V203.054H632.532V143.381Z" fill="#DBDBDB"/>
<path d="M719.828 348.002H605.459V289.432H719.828V348.002ZM607.129 346.332H718.158V291.102H607.129V346.332Z" fill="#DBDBDB"/>
<path d="M669.106 306.267H646.727V317.59H669.106V306.267Z" fill="#DBDBDB"/>
<path d="M676.573 317.59H652.506V306.3H676.573V317.59ZM654.176 315.92H674.903V307.97H654.176V315.92Z" fill="#DBDBDB"/>
<path d="M632.532 217.283H605.576V276.956H632.532V217.283Z" fill="#DBDBDB"/>
<path d="M730.049 36.2266C745.915 51.7587 748.571 75.7748 745.231 96.8182C745.147 97.3025 744.412 97.1689 744.412 96.718C744.412 91.9248 744.546 87.1817 744.529 82.4553L744.295 81.8206C740.023 79.0082 736.489 75.2108 733.991 70.7478C731.335 65.5371 730.3 59.6583 728.262 54.2137C728.079 53.696 728.63 53.8463 728.997 54.1135C738.65 61.2282 741.723 68.894 744.496 79.1652C744.444 73.8134 743.885 68.4785 742.826 63.2323C740.738 53.529 736.613 43.8924 729.648 36.6943C729.618 36.6679 729.593 36.6359 729.574 36.5998C729.556 36.5637 729.545 36.5244 729.542 36.4841C729.539 36.4438 729.544 36.4032 729.556 36.3648C729.569 36.3263 729.589 36.2907 729.615 36.26C729.641 36.2293 729.673 36.2041 729.71 36.1858C729.746 36.1675 729.785 36.1565 729.825 36.1534C729.866 36.1503 729.906 36.1552 729.945 36.1677C729.983 36.1803 730.019 36.2003 730.049 36.2266V36.2266Z" fill="#A6A6A6"/>
<path d="M727.06 38.0301C724.337 38.1303 722.634 42.4893 720.496 43.7586C720.274 43.9411 720.016 44.0747 719.739 44.1506C719.462 44.2264 719.172 44.2428 718.888 44.1986C718.604 44.1544 718.333 44.0507 718.092 43.8943C717.851 43.7379 717.646 43.5323 717.49 43.2909C715.386 40.3515 718.275 36.7107 720.997 34.6898C719.043 35.4915 717.44 36.8944 715.336 37.2952C715.067 37.3804 714.783 37.4074 714.503 37.3744C714.223 37.3414 713.953 37.2492 713.711 37.1039C713.469 36.9585 713.261 36.7634 713.101 36.5315C712.94 36.2996 712.831 36.0361 712.78 35.7587C711.862 31.7505 716.889 29.9635 720.346 29.88C718.676 28.7109 713.866 25.5544 716.421 24.0012C718.976 22.448 724.621 26.9573 726.442 28.4437C729.147 30.6315 732.371 33.9049 732.488 37.3286C732.655 41.3369 729.164 38.8651 727.06 38.0301Z" fill="#DBDBDB"/>
<path d="M727.861 38.6984C724.37 37.1118 717.657 39.3998 717.089 38.0804C715.936 35.3915 721.297 33.5544 724.187 33.187C721.515 32.4689 716.421 31.3165 716.571 28.7612C716.771 25.6214 724.404 28.3103 728.262 31.2831C733.138 35.0074 733.105 38.6149 732.303 39.333C731.201 40.3184 728.429 38.9656 727.861 38.6984Z" fill="#EBEBEB"/>
<path d="M766.174 34.69C749.74 49.6041 746.132 73.5034 748.704 94.6637C748.704 95.148 749.506 95.0478 749.522 94.6637C749.706 89.8704 749.74 85.1273 749.94 80.4009C750.04 80.1838 750.107 79.9834 750.207 79.7663C754.589 77.1254 758.268 73.464 760.929 69.0943C763.769 63.9837 765.038 58.1551 767.276 52.794C767.476 52.2763 766.908 52.4099 766.541 52.6771C756.637 59.3575 753.264 66.9565 750.107 77.0774C750.365 71.7282 751.132 66.4156 752.395 61.2113C754.85 51.5915 759.326 42.122 766.574 35.191C766.842 34.857 766.457 34.4228 766.174 34.69Z" fill="#A6A6A6"/>
<path d="M769.079 36.6107C771.802 36.8111 773.355 41.2202 775.426 42.5729C775.639 42.7667 775.891 42.9125 776.166 43.0006C776.44 43.0888 776.73 43.1172 777.017 43.0839C777.303 43.0507 777.579 42.9567 777.826 42.808C778.073 42.6594 778.285 42.4597 778.449 42.2222C780.67 39.3663 777.931 35.5418 775.275 33.4875C777.196 34.3727 778.749 35.8257 780.837 36.31C781.102 36.4071 781.384 36.4463 781.665 36.4248C781.947 36.4034 782.22 36.3218 782.467 36.1857C782.714 36.0495 782.929 35.8619 783.097 35.6356C783.265 35.4093 783.383 35.1495 783.442 34.8737C784.511 30.8989 779.567 28.9281 776.11 28.711C777.78 27.6254 782.791 24.6359 780.252 22.9992C777.714 21.3625 771.902 25.638 770.048 27.0576C767.276 29.1453 763.935 32.2851 763.685 35.7088C763.367 39.6837 766.942 37.3622 769.079 36.6107Z" fill="#DBDBDB"/>
<path d="M768.278 37.2451C771.819 35.7921 778.432 38.3307 779.05 37.028C780.303 34.3893 775.025 32.3517 772.153 31.8841C774.842 31.2662 779.985 30.3142 779.919 27.7422C779.919 24.5857 772.119 26.9907 768.228 29.8132C763.218 33.3538 763.117 36.9612 763.886 37.7128C764.871 38.7315 767.677 37.4957 768.278 37.2451Z" fill="#EBEBEB"/>
<path d="M749.356 74.0713C748.246 82.0531 746.544 89.9412 744.262 97.67C744.231 97.8228 744.141 97.957 744.011 98.0432C743.881 98.1293 743.722 98.1602 743.569 98.1292C743.416 98.0982 743.282 98.0078 743.196 97.8778C743.11 97.7478 743.079 97.589 743.11 97.4362C744.179 90.1545 746.149 83.0231 747.235 75.7247C748.437 68.3855 748.884 60.9426 748.571 53.5123C747.87 41.2704 744.546 28.2435 736.563 18.6571C736.379 18.4233 736.747 18.1059 736.93 18.323C752.93 36.9782 750.391 59.842 750.375 61.8962C752.646 54.1803 754.967 45.3287 763.535 37.4625C763.903 37.1118 764.203 37.2788 764.136 37.8633C762.6 52.1762 758.625 59.6583 750.325 67.3241C750.007 69.5954 749.723 71.8835 749.356 74.0713Z" fill="#A6A6A6"/>
<path d="M736.345 20.7947C733.473 19.5254 729.498 23.183 726.642 23.4335C726.32 23.5114 725.985 23.52 725.66 23.4588C725.334 23.3976 725.026 23.268 724.754 23.0785C724.483 22.889 724.254 22.644 724.085 22.3597C723.915 22.0754 723.807 21.7583 723.769 21.4293C723.051 17.3209 727.878 15.0161 731.719 14.2646C729.297 14.131 726.926 14.7656 724.554 14.1309C724.232 14.0856 723.923 13.9721 723.649 13.7981C723.374 13.624 723.139 13.3934 722.961 13.1216C722.782 12.8497 722.664 12.5429 722.613 12.2216C722.562 11.9004 722.581 11.572 722.667 11.2584C723.736 6.63215 729.849 7.31691 733.473 8.95362C732.32 6.91609 728.93 1.22101 732.354 0.886985C735.777 0.552963 739.385 8.08515 740.537 10.5569C742.207 14.1811 743.877 19.2081 742.341 22.8155C740.487 27.0409 738.099 22.732 736.345 20.7947Z" fill="#DBDBDB"/>
<path d="M736.88 21.897C734.058 18.5567 725.941 17.4879 726.025 15.8345C726.175 12.4942 732.705 13.2458 735.845 14.3313C733.44 12.2437 728.73 8.48597 730.183 5.9808C731.953 2.8243 738.534 9.47135 741.039 14.4817C744.212 20.8114 742.375 24.5023 741.172 24.8698C739.469 25.2539 737.298 22.4648 736.88 21.897Z" fill="#EBEBEB"/>
<path d="M759.894 78.3967L766.941 132.308H724.003C724.888 127.531 732.888 78.33 732.888 78.33L759.894 78.3967Z" fill="#EBEBEB"/>
<g filter="url(#filter0_d)">
<path d="M829 113C667 174 568 351 428.5 162.5C325.427 23.222 210.07 7.05273 156.853 8.10514C139.431 8.44969 127.592 23.6669 128.406 41.0736L141.396 318.966C142.294 338.174 158.128 353.285 177.356 353.285H915.811C933.68 353.285 948.768 340.274 950.213 322.463C956.313 247.301 958.614 64.1946 829 113Z" fill="url(#paint0_linear)"/>
<path d="M829.5 133C693 188 606 355 408 159C254.772 7.31953 94.6559 39.4985 30.08 61.8064C12.7909 67.779 5.52862 86.8588 12.1905 103.894L110.815 356.091C116.213 369.895 129.521 378.98 144.343 378.98H1088.69C1116.95 378.98 1133.58 348.424 1116.89 325.631C1055.53 241.86 928.964 92.9228 829.5 133Z" fill="url(#paint1_linear)"/>
</g>
<defs>
<filter id="filter0_d" x="5.74377" y="8.05957" width="1121.81" height="378.92" filterUnits="userSpaceOnUse" color-interpolation-filters="sRGB">
<feFlood flood-opacity="0" result="BackgroundImageFix"/>
<feColorMatrix in="SourceAlpha" type="matrix" values="0 0 0 0 0 0 0 0 0 0 0 0 0 0 0 0 0 0 127 0" result="hardAlpha"/>
<feOffset dy="4"/>
<feGaussianBlur stdDeviation="2"/>
<feComposite in2="hardAlpha" operator="out"/>
<feColorMatrix type="matrix" values="0 0 0 0 0 0 0 0 0 0 0 0 0 0 0 0 0 0 0.25 0"/>
<feBlend mode="normal" in2="BackgroundImageFix" result="effect1_dropShadow"/>
<feBlend mode="normal" in="SourceGraphic" in2="effect1_dropShadow" result="shape"/>
</filter>
<linearGradient id="paint0_linear" x1="694.499" y1="-60.3804" x2="598.202" y2="360.639" gradientUnits="userSpaceOnUse">
<stop stop-color="#FF62A5"/>
<stop offset="0.905865" stop-color="#FF8EBF"/>
</linearGradient>
<linearGradient id="paint1_linear" x1="828.944" y1="-35.6848" x2="752.198" y2="394.747" gradientUnits="userSpaceOnUse">
<stop offset="0.520833" stop-color="#5498E2"/>
<stop offset="0.905865" stop-color="#3A78BC"/>
</linearGradient>
</defs>
</svg>
