<svg width="1041" height="425" viewBox="0 0 1041 425" fill="none" xmlns="http://www.w3.org/2000/svg">
<path d="M95.5663 190.171C203.946 175.65 422.17 398.402 630.239 146.632C811.179 -72.3109 901.136 11.675 921.518 37.2991C924.751 41.3628 926.34 46.3457 926.867 51.5113L960.015 376.013C962.183 397.231 945.53 415.671 924.201 415.671H177.178C166.392 415.671 156.202 410.878 149.629 402.326C113.82 355.737 3.76126 202.472 95.5663 190.171Z" fill="url(#paint0_linear)"/>
<path d="M102.567 200.671C241.933 186.115 343.238 407.36 610.797 154.982C855.693 -76.0211 934.001 29.718 945.509 49.2871C946.641 51.2123 947.339 53.2614 947.88 55.4283L1028.9 379.951C1034.57 402.669 1017.39 424.671 993.974 424.671H35.6384C18.5524 424.671 3.89169 412.707 2.1299 395.712C-3.88337 337.705 -4.34973 211.838 102.567 200.671Z" fill="url(#paint1_linear)"/>
<defs>
<linearGradient id="paint0_linear" x1="412.567" y1="2.00573" x2="508.864" y2="423.026" gradientUnits="userSpaceOnUse">
<stop stop-color="#FF62A5"/>
<stop offset="0.905865" stop-color="#FF8EBF"/>
</linearGradient>
<linearGradient id="paint1_linear" x1="330.889" y1="10.0065" x2="407.635" y2="440.438" gradientUnits="userSpaceOnUse">
<stop offset="0.520833" stop-color="#5498E2"/>
<stop offset="0.905865" stop-color="#3A78BC"/>
</linearGradient>
</defs>
</svg>
