<svg width="894" height="436" viewBox="0 0 894 436" fill="none" xmlns="http://www.w3.org/2000/svg">
<path d="M522 118.431L428 118.431V114.307L522 114.307V118.431Z" fill="#EBEBEB"/>
<path d="M433.275 118.436H437.398V132.071H433.275V118.436Z" fill="#EBEBEB"/>
<path d="M433.275 118.436H437.398V122.65H433.275V118.436Z" fill="#DBDBDB"/>
<path d="M512.613 118.436H516.737V132.071H512.613V118.436Z" fill="#EBEBEB"/>
<path d="M512.613 118.436H516.737V122.65H512.613V118.436Z" fill="#DBDBDB"/>
<path d="M445.55 114.313V88.0415H452.167V114.313H445.55Z" fill="#C7C7C7"/>
<path d="M445.55 89.5252V86.6369H452.167V89.5252H445.55Z" fill="#DBDBDB"/>
<path d="M445.55 94.292V93.2201H452.167V94.292H445.55Z" fill="#DBDBDB"/>
<path d="M445.55 110.866V107.978H452.991V110.866H445.55Z" fill="#DBDBDB"/>
<path d="M452.167 114.313V83.6639H456.793V114.313H452.167Z" fill="#DBDBDB"/>
<path d="M453.07 98.331V86.5465H455.845V98.331H453.07Z" fill="#EBEBEB"/>
<path d="M486.43 114.323L464.633 92.7764L467.885 89.4867L489.682 111.034L486.43 114.323Z" fill="#C7C7C7"/>
<path d="M481.979 108.599L473.598 100.314L475.549 98.3403L483.93 106.625L481.979 108.599Z" fill="#DBDBDB"/>
<path d="M456.787 114.313V91.037H464.64V114.313H456.787Z" fill="#A6A6A6"/>
<path d="M456.787 111.853V109.681H464.64V111.853H456.787Z" fill="#C7C7C7"/>
<path d="M456.787 108.254V107.413H464.64V108.254H456.787Z" fill="#C7C7C7"/>
<path d="M440.123 114.318V92.4417H445.544V114.318H440.123Z" fill="#A6A6A6"/>
<path d="M440.123 111.994V109.958H445.544V111.994H440.123Z" fill="#C7C7C7"/>
<path d="M440.123 98.9855V96.949H445.544V98.9855H440.123Z" fill="#C7C7C7"/>
<path d="M440.129 101.174V100.385H445.55V101.174H440.129Z" fill="#C7C7C7"/>
<path d="M502.995 86.2871C498.369 90.8001 497.59 97.8291 498.566 103.967C498.566 104.102 498.809 104.068 498.809 103.933C498.809 102.54 498.764 101.152 498.769 99.7753C498.769 99.7076 498.814 99.6512 498.843 99.5891C500.089 98.7679 501.12 97.6593 501.849 96.3567C502.622 94.8392 502.927 93.1243 503.514 91.5334C503.57 91.3811 503.406 91.4263 503.305 91.5052C500.484 93.5812 499.593 95.8152 498.792 98.7994C498.81 97.238 498.975 95.6818 499.283 94.151C499.82 91.2656 501.148 88.5861 503.119 86.4112C503.129 86.3939 503.134 86.3736 503.131 86.3534C503.129 86.3333 503.12 86.3146 503.106 86.3002C503.091 86.2859 503.072 86.2768 503.052 86.2744C503.032 86.272 503.012 86.2765 502.995 86.2871V86.2871Z" fill="#A6A6A6"/>
<path d="M503.864 86.8173C504.665 86.8173 505.161 88.1148 505.782 88.5097C505.847 88.5627 505.923 88.6013 506.004 88.6231C506.085 88.6448 506.17 88.6492 506.253 88.6359C506.336 88.6226 506.415 88.5919 506.486 88.5458C506.556 88.4998 506.616 88.4394 506.662 88.3686C507.276 87.5112 506.43 86.4562 505.641 85.8639C506.164 86.1571 506.716 86.3953 507.288 86.5747C507.366 86.6022 507.449 86.6121 507.532 86.6038C507.614 86.5955 507.694 86.5692 507.765 86.5266C507.836 86.4841 507.897 86.4264 507.943 86.3577C507.989 86.289 508.02 86.2109 508.032 86.1291C508.303 84.9613 506.836 84.4367 505.827 84.4367C506.317 84.0982 507.716 83.1787 506.955 82.7443C506.193 82.3099 504.557 83.6074 504.027 84.0418C503.237 84.6793 502.301 85.6383 502.261 86.6368C502.233 87.7763 503.254 87.0599 503.864 86.8173Z" fill="#DBDBDB"/>
<path d="M503.638 87.0147C504.653 86.5465 506.611 87.2178 506.774 86.8286C507.113 86.0444 505.55 85.5085 504.704 85.4013C505.483 85.1926 506.961 84.8372 506.927 84.1095C506.87 83.1956 504.642 83.9797 503.514 84.8429C502.098 85.9316 502.103 86.9865 502.34 87.1953C502.662 87.483 503.469 87.0881 503.638 87.0147Z" fill="#EBEBEB"/>
<path d="M492.457 85.8414C497.252 90.1908 498.296 97.1634 497.534 103.329C497.534 103.47 497.297 103.442 497.291 103.329C497.241 101.936 497.229 100.548 497.173 99.1717L497.094 98.9855C495.817 98.2163 494.745 97.15 493.969 95.8772C493.134 94.3879 492.767 92.6843 492.118 91.1216C492.056 90.9693 492.22 91.0088 492.327 91.0821C495.221 93.0509 496.203 95.251 497.122 98.2014C497.045 96.6421 496.822 95.0933 496.457 93.5756C495.807 90.7096 494.373 88.0806 492.316 85.9825C492.297 85.9638 492.287 85.9384 492.287 85.9119C492.287 85.8855 492.297 85.8601 492.316 85.8414C492.335 85.8227 492.36 85.8122 492.386 85.8122C492.413 85.8122 492.438 85.8227 492.457 85.8414V85.8414Z" fill="#A6A6A6"/>
<path d="M491.611 86.3998C490.815 86.4563 490.364 87.7481 489.76 88.143C489.697 88.1986 489.623 88.2403 489.542 88.2652C489.462 88.2901 489.377 88.2978 489.294 88.2877C489.21 88.2776 489.129 88.2499 489.057 88.2065C488.985 88.1631 488.923 88.1049 488.875 88.0358C488.226 87.2009 489.033 86.1121 489.8 85.4916C489.29 85.8205 488.747 86.0965 488.181 86.3152C488.104 86.3458 488.021 86.3589 487.938 86.3538C487.855 86.3486 487.775 86.3253 487.702 86.2854C487.629 86.2455 487.566 86.1901 487.517 86.1231C487.469 86.0561 487.435 85.9792 487.419 85.8978C487.109 84.7357 488.548 84.1603 489.557 84.0982C489.061 83.7767 487.628 82.9079 488.35 82.4058C489.072 81.9038 490.765 83.19 491.329 83.6131C492.141 84.2223 493.111 85.1418 493.185 86.1347C493.275 87.2968 492.231 86.6199 491.611 86.3998Z" fill="#DBDBDB"/>
<path d="M491.848 86.5748C490.81 86.1517 488.886 86.8907 488.706 86.5127C488.339 85.7455 489.879 85.1475 490.714 85.0121C489.93 84.8316 488.457 84.5495 488.457 83.7993C488.457 82.8854 490.714 83.5849 491.893 84.4085C493.348 85.4409 493.382 86.4901 493.157 86.7101C492.841 87.0204 492.017 86.6594 491.848 86.5748Z" fill="#EBEBEB"/>
<path d="M497.365 97.3327C497.686 99.6594 498.184 101.958 498.854 104.209C498.863 104.253 498.889 104.292 498.927 104.317C498.964 104.342 499.01 104.351 499.054 104.342C499.098 104.333 499.137 104.307 499.162 104.269C499.187 104.232 499.196 104.186 499.187 104.142C498.871 102.021 498.296 99.9389 497.985 97.8234C497.639 95.6776 497.514 93.5018 497.613 91.3304C497.816 87.7595 498.786 83.9573 501.116 81.1761C501.167 81.1084 501.06 81.0182 501.009 81.0746C496.338 86.5184 497.06 93.192 497.06 93.7899C496.4 91.5334 495.718 88.9554 493.218 86.6594C493.111 86.5579 493.027 86.6086 493.044 86.7779C493.489 90.9524 494.651 93.1356 497.077 95.3695C497.173 96.0182 497.258 96.6783 497.365 97.3327Z" fill="#A6A6A6"/>
<path d="M501.161 81.791C502.002 81.4186 503.158 82.4848 503.982 82.5582C504.074 82.5803 504.171 82.5831 504.264 82.5663C504.358 82.5494 504.447 82.5134 504.526 82.4604C504.605 82.4073 504.672 82.3385 504.723 82.2583C504.774 82.178 504.808 82.0881 504.822 81.9941C505.031 80.7981 503.621 80.1212 502.504 79.9068C503.209 79.8617 503.903 80.0535 504.597 79.8673C504.692 79.8562 504.784 79.8245 504.867 79.7744C504.949 79.7243 505.019 79.6569 505.073 79.5771C505.126 79.4972 505.162 79.4066 505.177 79.3116C505.192 79.2166 505.187 79.1194 505.161 79.0268C504.851 77.6785 503.068 77.8985 502.007 78.3554C502.346 77.7913 503.333 76.0989 502.335 76.003C501.336 75.9071 500.281 78.1016 499.948 78.8237C499.452 79.8842 498.956 81.3453 499.424 82.4002C499.948 83.6074 500.648 82.3495 501.161 81.791Z" fill="#DBDBDB"/>
<path d="M501.02 82.1069C501.844 81.1197 504.207 80.8263 504.185 80.3412C504.14 79.3596 502.25 79.5853 501.319 79.9012C502.019 79.2919 503.395 78.2088 502.972 77.4416C502.453 76.5221 500.541 78.457 499.802 79.9237C498.877 81.7684 499.418 82.8515 499.768 82.9531C500.247 83.0885 500.885 82.2761 501.02 82.1069Z" fill="#EBEBEB"/>
<path d="M494.29 98.5849L492.231 114.313H504.76C504.501 112.919 502.171 98.568 502.171 98.568L494.29 98.5849Z" fill="#DBDBDB"/>
<path d="M206.345 273.225H248.351V278H206.345V273.225Z" fill="#455A64"/>
<path d="M224.855 125.04H229.834V273.219H224.855V125.04Z" fill="#455A64"/>
<path d="M224.855 125.04H229.834V150.258H224.855V125.04Z" fill="#263238"/>
<path d="M201 139.643H253.696L249.869 127.059L249.726 126.613L238.585 90H216.111L204.957 126.619V126.631L204.84 127.046L201 139.643Z" fill="#3A78BC"/>
<path d="M236.721 98.4596C236.723 98.5527 236.76 98.6416 236.826 98.7074C236.892 98.7733 236.981 98.811 237.074 98.8126C237.168 98.8126 237.258 98.7754 237.324 98.7092C237.39 98.643 237.427 98.5532 237.427 98.4596C237.428 98.413 237.419 98.3667 237.402 98.3235C237.385 98.2803 237.359 98.2411 237.326 98.2081C237.293 98.1752 237.253 98.1492 237.21 98.1318C237.167 98.1143 237.121 98.1058 237.074 98.1066C236.98 98.1066 236.891 98.1438 236.825 98.21C236.758 98.2762 236.721 98.366 236.721 98.4596V98.4596Z" fill="white"/>
<path d="M230.243 98.4596C230.255 98.5459 230.297 98.6252 230.363 98.6826C230.428 98.74 230.512 98.7717 230.599 98.7717C230.687 98.7717 230.771 98.74 230.836 98.6826C230.902 98.6252 230.944 98.5459 230.956 98.4596C230.944 98.3732 230.902 98.2939 230.836 98.2365C230.771 98.1791 230.687 98.1474 230.599 98.1474C230.512 98.1474 230.428 98.1791 230.363 98.2365C230.297 98.2939 230.255 98.3732 230.243 98.4596Z" fill="white"/>
<path d="M223.747 98.4596C223.747 98.5532 223.784 98.643 223.85 98.7092C223.917 98.7754 224.006 98.8126 224.1 98.8126C224.193 98.811 224.282 98.7733 224.348 98.7074C224.414 98.6416 224.451 98.5527 224.453 98.4596C224.453 98.366 224.416 98.2762 224.35 98.21C224.283 98.1438 224.194 98.1066 224.1 98.1066C224.053 98.1058 224.007 98.1143 223.964 98.1318C223.921 98.1492 223.881 98.1752 223.848 98.2081C223.816 98.2411 223.79 98.2803 223.772 98.3235C223.755 98.3667 223.746 98.413 223.747 98.4596Z" fill="white"/>
<path d="M217.238 98.4596C217.24 98.5527 217.277 98.6416 217.343 98.7074C217.409 98.7733 217.498 98.811 217.591 98.8126C217.685 98.8126 217.774 98.7754 217.841 98.7092C217.907 98.643 217.944 98.5532 217.944 98.4596C217.945 98.413 217.936 98.3667 217.919 98.3235C217.901 98.2803 217.875 98.2411 217.843 98.2081C217.81 98.1752 217.77 98.1492 217.727 98.1318C217.684 98.1143 217.638 98.1058 217.591 98.1066C217.497 98.1066 217.408 98.1438 217.341 98.21C217.275 98.2762 217.238 98.366 217.238 98.4596Z" fill="white"/>
<path d="M233.476 93.914C233.475 93.9855 233.495 94.0558 233.534 94.1158C233.573 94.1759 233.629 94.2228 233.695 94.2508C233.761 94.2787 233.834 94.2864 233.904 94.2727C233.974 94.2591 234.039 94.2247 234.089 94.1741C234.14 94.1235 234.174 94.0589 234.188 93.9887C234.201 93.9185 234.194 93.8457 234.166 93.7798C234.138 93.714 234.091 93.6579 234.031 93.6189C233.971 93.5799 233.901 93.5598 233.829 93.561C233.735 93.561 233.646 93.5982 233.58 93.6644C233.513 93.7306 233.476 93.8204 233.476 93.914V93.914Z" fill="white"/>
<path d="M226.992 93.914C226.991 93.9606 227 94.0069 227.017 94.0501C227.035 94.0933 227.061 94.1325 227.094 94.1655C227.127 94.1984 227.166 94.2244 227.209 94.2418C227.252 94.2593 227.298 94.2678 227.345 94.267C227.439 94.267 227.528 94.2298 227.595 94.1636C227.661 94.0974 227.698 94.0076 227.698 93.914C227.698 93.8204 227.661 93.7306 227.595 93.6644C227.528 93.5982 227.439 93.561 227.345 93.561C227.298 93.5602 227.252 93.5687 227.209 93.5862C227.166 93.6036 227.127 93.6296 227.094 93.6625C227.061 93.6955 227.035 93.7347 227.017 93.7779C227 93.8211 226.991 93.8674 226.992 93.914V93.914Z" fill="white"/>
<path d="M220.502 93.914C220.502 93.9838 220.522 94.0521 220.561 94.1101C220.6 94.1682 220.655 94.2134 220.72 94.2401C220.784 94.2668 220.855 94.2738 220.924 94.2602C220.992 94.2466 221.055 94.213 221.104 94.1636C221.154 94.1142 221.187 94.0513 221.201 93.9829C221.215 93.9144 221.208 93.8434 221.181 93.7789C221.154 93.7144 221.109 93.6593 221.051 93.6205C220.993 93.5817 220.925 93.561 220.855 93.561C220.808 93.5602 220.762 93.5687 220.719 93.5862C220.675 93.6036 220.636 93.6296 220.603 93.6625C220.57 93.6955 220.544 93.7347 220.527 93.7779C220.509 93.8211 220.501 93.8674 220.502 93.914V93.914Z" fill="white"/>
<path d="M243.211 107.891C243.211 107.961 243.232 108.03 243.271 108.088C243.31 108.146 243.365 108.191 243.429 108.218C243.494 108.244 243.565 108.251 243.633 108.238C243.702 108.224 243.765 108.19 243.814 108.141C243.863 108.092 243.897 108.029 243.911 107.96C243.924 107.892 243.917 107.821 243.89 107.756C243.864 107.692 243.819 107.637 243.76 107.598C243.702 107.559 243.634 107.538 243.564 107.538C243.471 107.538 243.381 107.576 243.315 107.642C243.249 107.708 243.211 107.798 243.211 107.891V107.891Z" fill="white"/>
<path d="M236.721 107.891C236.721 107.986 236.758 108.076 236.824 108.143C236.89 108.21 236.98 108.249 237.074 108.251C237.145 108.252 237.215 108.232 237.275 108.193C237.335 108.154 237.382 108.099 237.41 108.033C237.439 107.968 237.447 107.895 237.433 107.825C237.42 107.755 237.387 107.691 237.337 107.64C237.287 107.589 237.223 107.554 237.153 107.54C237.083 107.525 237.01 107.532 236.944 107.559C236.878 107.586 236.822 107.632 236.782 107.691C236.742 107.75 236.721 107.82 236.721 107.891Z" fill="white"/>
<path d="M230.243 107.891C230.242 107.963 230.262 108.033 230.301 108.093C230.339 108.153 230.395 108.2 230.461 108.228C230.526 108.256 230.598 108.264 230.669 108.251C230.739 108.238 230.803 108.204 230.854 108.154C230.905 108.104 230.94 108.04 230.954 107.97C230.969 107.9 230.962 107.828 230.935 107.762C230.908 107.696 230.862 107.639 230.803 107.599C230.743 107.56 230.674 107.538 230.602 107.538C230.508 107.538 230.418 107.575 230.351 107.641C230.283 107.708 230.245 107.797 230.243 107.891V107.891Z" fill="white"/>
<path d="M223.747 107.891C223.746 107.938 223.755 107.985 223.772 108.028C223.789 108.072 223.815 108.112 223.848 108.145C223.881 108.179 223.92 108.205 223.963 108.223C224.007 108.241 224.053 108.251 224.1 108.251C224.186 108.239 224.266 108.197 224.323 108.131C224.38 108.066 224.412 107.982 224.412 107.895C224.412 107.807 224.38 107.723 224.323 107.658C224.266 107.592 224.186 107.55 224.1 107.538C224.006 107.538 223.916 107.576 223.85 107.642C223.784 107.708 223.747 107.798 223.747 107.891Z" fill="white"/>
<path d="M217.238 107.891C217.238 107.986 217.275 108.076 217.341 108.143C217.407 108.21 217.497 108.249 217.591 108.251C217.662 108.252 217.732 108.232 217.792 108.193C217.852 108.154 217.899 108.099 217.927 108.033C217.955 107.968 217.963 107.895 217.95 107.825C217.937 107.755 217.903 107.691 217.853 107.64C217.803 107.589 217.739 107.554 217.67 107.54C217.6 107.525 217.527 107.532 217.461 107.559C217.395 107.586 217.339 107.632 217.299 107.691C217.259 107.75 217.238 107.82 217.238 107.891V107.891Z" fill="white"/>
<path d="M210.766 107.891C210.765 107.963 210.785 108.033 210.824 108.093C210.863 108.153 210.919 108.2 210.985 108.228C211.051 108.256 211.124 108.264 211.194 108.25C211.264 108.237 211.329 108.202 211.38 108.152C211.43 108.101 211.465 108.036 211.478 107.966C211.492 107.896 211.484 107.823 211.456 107.757C211.428 107.691 211.381 107.635 211.321 107.596C211.261 107.557 211.191 107.537 211.119 107.538C211.026 107.54 210.937 107.578 210.872 107.644C210.806 107.709 210.768 107.798 210.766 107.891Z" fill="white"/>
<path d="M239.966 103.352C239.968 103.445 240.006 103.534 240.072 103.6C240.137 103.666 240.226 103.703 240.319 103.705C240.406 103.694 240.485 103.651 240.542 103.586C240.6 103.52 240.631 103.436 240.631 103.349C240.631 103.262 240.6 103.178 240.542 103.112C240.485 103.047 240.406 103.004 240.319 102.993C240.225 102.995 240.135 103.033 240.069 103.1C240.003 103.167 239.966 103.258 239.966 103.352V103.352Z" fill="white"/>
<path d="M233.476 103.352C233.476 103.423 233.497 103.493 233.537 103.552C233.577 103.611 233.633 103.657 233.699 103.684C233.765 103.711 233.838 103.718 233.908 103.704C233.977 103.689 234.041 103.655 234.091 103.604C234.141 103.553 234.175 103.488 234.188 103.418C234.201 103.348 234.193 103.276 234.165 103.21C234.137 103.145 234.09 103.089 234.03 103.05C233.97 103.012 233.9 102.992 233.829 102.993C233.735 102.994 233.645 103.033 233.579 103.1C233.513 103.167 233.476 103.258 233.476 103.352V103.352Z" fill="white"/>
<path d="M226.992 103.352C226.992 103.446 227.029 103.535 227.095 103.602C227.162 103.668 227.251 103.705 227.345 103.705C227.416 103.706 227.487 103.686 227.547 103.647C227.607 103.608 227.654 103.552 227.682 103.486C227.71 103.42 227.717 103.348 227.704 103.277C227.69 103.207 227.656 103.143 227.605 103.092C227.554 103.041 227.49 103.007 227.42 102.993C227.349 102.98 227.277 102.987 227.211 103.015C227.145 103.043 227.089 103.09 227.05 103.15C227.011 103.21 226.991 103.28 226.992 103.352V103.352Z" fill="white"/>
<path d="M220.502 103.352C220.503 103.422 220.525 103.489 220.564 103.546C220.604 103.604 220.659 103.648 220.724 103.674C220.789 103.7 220.859 103.706 220.927 103.691C220.995 103.677 221.058 103.643 221.106 103.593C221.155 103.544 221.188 103.481 221.201 103.413C221.214 103.344 221.207 103.274 221.18 103.209C221.153 103.145 221.108 103.09 221.05 103.052C220.992 103.013 220.924 102.993 220.855 102.993C220.808 102.993 220.761 103.002 220.718 103.02C220.675 103.038 220.636 103.065 220.603 103.098C220.57 103.132 220.544 103.172 220.527 103.215C220.509 103.259 220.501 103.305 220.502 103.352V103.352Z" fill="white"/>
<path d="M214.011 103.352C214.013 103.445 214.051 103.534 214.117 103.6C214.182 103.666 214.271 103.703 214.364 103.705C214.451 103.694 214.53 103.651 214.587 103.586C214.645 103.52 214.677 103.436 214.677 103.349C214.677 103.262 214.645 103.178 214.587 103.112C214.53 103.047 214.451 103.004 214.364 102.993C214.27 102.995 214.18 103.033 214.114 103.1C214.048 103.167 214.011 103.258 214.011 103.352V103.352Z" fill="white"/>
<path d="M243.211 117.33C243.211 117.423 243.249 117.513 243.315 117.579C243.381 117.645 243.471 117.683 243.564 117.683C243.658 117.683 243.748 117.645 243.814 117.579C243.88 117.513 243.917 117.423 243.917 117.33C243.917 117.236 243.88 117.146 243.814 117.08C243.748 117.014 243.658 116.977 243.564 116.977C243.471 116.977 243.381 117.014 243.315 117.08C243.249 117.146 243.211 117.236 243.211 117.33V117.33Z" fill="white"/>
<path d="M236.721 117.33C236.723 117.423 236.76 117.512 236.826 117.577C236.892 117.643 236.981 117.681 237.074 117.683C237.168 117.683 237.258 117.645 237.324 117.579C237.39 117.513 237.427 117.423 237.427 117.33C237.428 117.283 237.419 117.237 237.402 117.194C237.385 117.15 237.359 117.111 237.326 117.078C237.293 117.045 237.253 117.019 237.21 117.002C237.167 116.984 237.121 116.976 237.074 116.977C236.98 116.977 236.891 117.014 236.825 117.08C236.758 117.146 236.721 117.236 236.721 117.33V117.33Z" fill="white"/>
<path d="M230.243 117.33C230.255 117.416 230.297 117.495 230.363 117.553C230.428 117.61 230.512 117.642 230.599 117.642C230.687 117.642 230.771 117.61 230.836 117.553C230.902 117.495 230.944 117.416 230.956 117.33C230.944 117.243 230.902 117.164 230.836 117.106C230.771 117.049 230.687 117.017 230.599 117.017C230.512 117.017 230.428 117.049 230.363 117.106C230.297 117.164 230.255 117.243 230.243 117.33Z" fill="white"/>
<path d="M223.747 117.33C223.747 117.423 223.784 117.513 223.85 117.579C223.917 117.645 224.006 117.683 224.1 117.683C224.193 117.681 224.282 117.643 224.348 117.577C224.414 117.512 224.451 117.423 224.453 117.33C224.453 117.236 224.416 117.146 224.35 117.08C224.283 117.014 224.194 116.977 224.1 116.977C224.053 116.976 224.007 116.984 223.964 117.002C223.921 117.019 223.881 117.045 223.848 117.078C223.816 117.111 223.79 117.15 223.772 117.194C223.755 117.237 223.746 117.283 223.747 117.33Z" fill="white"/>
<path d="M217.238 117.33C217.24 117.423 217.277 117.512 217.343 117.577C217.409 117.643 217.498 117.681 217.591 117.683C217.685 117.683 217.774 117.645 217.841 117.579C217.907 117.513 217.944 117.423 217.944 117.33C217.945 117.283 217.936 117.237 217.919 117.194C217.901 117.15 217.875 117.111 217.843 117.078C217.81 117.045 217.77 117.019 217.727 117.002C217.684 116.984 217.638 116.976 217.591 116.977C217.497 116.977 217.408 117.014 217.341 117.08C217.275 117.146 217.238 117.236 217.238 117.33Z" fill="white"/>
<path d="M210.766 117.33C210.765 117.401 210.785 117.471 210.824 117.531C210.863 117.591 210.919 117.638 210.985 117.666C211.051 117.694 211.124 117.702 211.194 117.688C211.264 117.675 211.329 117.64 211.38 117.59C211.43 117.539 211.465 117.475 211.478 117.404C211.492 117.334 211.484 117.261 211.456 117.195C211.428 117.13 211.381 117.074 211.321 117.035C211.261 116.996 211.191 116.975 211.119 116.977C211.026 116.977 210.936 117.014 210.87 117.08C210.804 117.146 210.766 117.236 210.766 117.33V117.33Z" fill="white"/>
<path d="M239.966 112.778C239.966 112.871 240.003 112.961 240.07 113.027C240.136 113.094 240.226 113.131 240.319 113.131C240.366 113.131 240.412 113.122 240.454 113.104C240.497 113.086 240.536 113.06 240.569 113.027C240.602 112.995 240.628 112.956 240.645 112.913C240.663 112.87 240.672 112.824 240.672 112.778C240.672 112.731 240.663 112.685 240.645 112.643C240.628 112.6 240.602 112.561 240.569 112.528C240.536 112.495 240.497 112.469 240.454 112.452C240.412 112.434 240.366 112.425 240.319 112.425C240.226 112.425 240.136 112.462 240.07 112.528C240.003 112.594 239.966 112.684 239.966 112.778V112.778Z" fill="white"/>
<path d="M233.476 112.778C233.475 112.849 233.495 112.92 233.534 112.98C233.573 113.04 233.629 113.087 233.695 113.115C233.761 113.142 233.834 113.15 233.904 113.136C233.974 113.123 234.039 113.088 234.089 113.038C234.14 112.987 234.174 112.923 234.188 112.852C234.201 112.782 234.194 112.709 234.166 112.644C234.138 112.578 234.091 112.522 234.031 112.483C233.971 112.444 233.901 112.423 233.829 112.425C233.735 112.425 233.646 112.462 233.58 112.528C233.513 112.594 233.476 112.684 233.476 112.778V112.778Z" fill="white"/>
<path d="M227.345 113.137C227.15 113.137 226.992 112.979 226.992 112.784C226.992 112.589 227.15 112.431 227.345 112.431C227.54 112.431 227.698 112.589 227.698 112.784C227.698 112.979 227.54 113.137 227.345 113.137Z" fill="white"/>
<path d="M220.502 112.778C220.502 112.848 220.522 112.916 220.561 112.974C220.6 113.032 220.655 113.077 220.72 113.104C220.784 113.131 220.855 113.138 220.924 113.124C220.992 113.11 221.055 113.077 221.104 113.027C221.154 112.978 221.187 112.915 221.201 112.847C221.215 112.778 221.208 112.707 221.181 112.643C221.154 112.578 221.109 112.523 221.051 112.484C220.993 112.445 220.925 112.425 220.855 112.425C220.808 112.424 220.762 112.432 220.719 112.45C220.675 112.467 220.636 112.493 220.603 112.526C220.57 112.559 220.544 112.598 220.527 112.642C220.509 112.685 220.501 112.731 220.502 112.778Z" fill="white"/>
<path d="M214.365 113.137C214.17 113.137 214.012 112.979 214.012 112.784C214.012 112.589 214.17 112.431 214.365 112.431C214.559 112.431 214.718 112.589 214.718 112.784C214.718 112.979 214.559 113.137 214.365 113.137Z" fill="white"/>
<path d="M249.695 126.761C249.695 126.822 249.71 126.882 249.741 126.934C249.771 126.986 249.816 127.029 249.869 127.059L249.726 126.613C249.704 126.659 249.694 126.71 249.695 126.761V126.761Z" fill="white"/>
<path d="M243.211 126.761C243.211 126.831 243.232 126.9 243.271 126.958C243.31 127.016 243.365 127.061 243.429 127.088C243.494 127.114 243.565 127.121 243.633 127.108C243.702 127.094 243.765 127.06 243.814 127.011C243.863 126.962 243.897 126.899 243.911 126.83C243.924 126.762 243.917 126.691 243.89 126.626C243.864 126.562 243.819 126.507 243.76 126.468C243.702 126.429 243.634 126.408 243.564 126.408C243.471 126.408 243.381 126.446 243.315 126.512C243.249 126.578 243.211 126.668 243.211 126.761V126.761Z" fill="white"/>
<path d="M236.721 126.762C236.721 126.856 236.758 126.946 236.824 127.013C236.89 127.081 236.98 127.119 237.074 127.121C237.145 127.122 237.215 127.102 237.275 127.063C237.335 127.024 237.382 126.969 237.41 126.903C237.439 126.838 237.447 126.765 237.433 126.695C237.42 126.625 237.387 126.561 237.337 126.51C237.287 126.459 237.223 126.424 237.153 126.41C237.083 126.395 237.01 126.402 236.944 126.429C236.878 126.456 236.822 126.502 236.782 126.561C236.742 126.621 236.721 126.69 236.721 126.762Z" fill="white"/>
<path d="M230.243 126.761C230.242 126.833 230.262 126.903 230.301 126.963C230.339 127.023 230.395 127.07 230.461 127.098C230.526 127.126 230.598 127.134 230.669 127.121C230.739 127.108 230.803 127.074 230.854 127.024C230.905 126.974 230.94 126.91 230.954 126.84C230.969 126.77 230.962 126.698 230.935 126.632C230.908 126.566 230.862 126.509 230.803 126.469C230.743 126.43 230.674 126.408 230.602 126.408C230.508 126.408 230.418 126.445 230.351 126.511C230.283 126.578 230.245 126.667 230.243 126.761Z" fill="white"/>
<path d="M223.747 126.761C223.746 126.808 223.755 126.855 223.772 126.898C223.789 126.942 223.815 126.982 223.848 127.015C223.881 127.049 223.92 127.075 223.963 127.093C224.007 127.111 224.053 127.121 224.1 127.121C224.186 127.109 224.266 127.067 224.323 127.001C224.38 126.936 224.412 126.852 224.412 126.765C224.412 126.677 224.38 126.593 224.323 126.528C224.266 126.462 224.186 126.42 224.1 126.408C224.006 126.408 223.916 126.446 223.85 126.512C223.784 126.578 223.747 126.668 223.747 126.761Z" fill="white"/>
<path d="M217.238 126.762C217.238 126.856 217.275 126.946 217.341 127.013C217.407 127.081 217.497 127.119 217.591 127.121C217.662 127.122 217.732 127.102 217.792 127.063C217.852 127.024 217.899 126.969 217.927 126.903C217.955 126.838 217.963 126.765 217.95 126.695C217.937 126.625 217.903 126.561 217.853 126.51C217.803 126.459 217.739 126.424 217.67 126.41C217.6 126.395 217.527 126.402 217.461 126.429C217.395 126.456 217.339 126.502 217.299 126.561C217.259 126.621 217.238 126.69 217.238 126.762V126.762Z" fill="white"/>
<path d="M211.119 127.114C210.924 127.114 210.766 126.956 210.766 126.761C210.766 126.567 210.924 126.408 211.119 126.408C211.314 126.408 211.472 126.567 211.472 126.761C211.472 126.956 211.314 127.114 211.119 127.114Z" fill="white"/>
<path d="M204.852 127.022C204.897 126.989 204.934 126.946 204.959 126.897C204.984 126.847 204.996 126.792 204.995 126.737C205.005 126.694 205.005 126.649 204.995 126.607L204.852 127.022Z" fill="white"/>
<path d="M246.457 122.222C246.457 122.316 246.494 122.405 246.56 122.472C246.626 122.538 246.716 122.575 246.81 122.575C246.881 122.576 246.951 122.556 247.011 122.517C247.072 122.478 247.119 122.422 247.146 122.356C247.174 122.29 247.182 122.218 247.168 122.147C247.155 122.077 247.12 122.012 247.07 121.962C247.019 121.911 246.955 121.877 246.884 121.863C246.814 121.85 246.741 121.857 246.675 121.885C246.61 121.913 246.554 121.96 246.515 122.02C246.476 122.08 246.455 122.15 246.457 122.222Z" fill="white"/>
<path d="M239.966 122.222C239.968 122.315 240.006 122.404 240.072 122.47C240.137 122.536 240.226 122.573 240.319 122.575C240.406 122.564 240.485 122.521 240.542 122.456C240.6 122.39 240.631 122.306 240.631 122.219C240.631 122.132 240.6 122.048 240.542 121.982C240.485 121.917 240.406 121.874 240.319 121.863C240.225 121.864 240.135 121.903 240.069 121.97C240.003 122.037 239.966 122.128 239.966 122.222Z" fill="white"/>
<path d="M233.476 122.222C233.476 122.293 233.497 122.363 233.537 122.422C233.577 122.481 233.633 122.527 233.699 122.554C233.765 122.581 233.838 122.588 233.908 122.574C233.977 122.559 234.041 122.525 234.091 122.474C234.141 122.423 234.175 122.358 234.188 122.288C234.201 122.218 234.193 122.146 234.165 122.08C234.137 122.015 234.09 121.959 234.03 121.92C233.97 121.882 233.9 121.862 233.829 121.863C233.735 121.864 233.645 121.903 233.579 121.97C233.513 122.037 233.476 122.128 233.476 122.222V122.222Z" fill="white"/>
<path d="M226.992 122.222C226.992 122.316 227.029 122.405 227.095 122.472C227.162 122.538 227.251 122.575 227.345 122.575C227.416 122.576 227.487 122.556 227.547 122.517C227.607 122.478 227.654 122.422 227.682 122.356C227.71 122.29 227.717 122.218 227.704 122.147C227.69 122.077 227.656 122.012 227.605 121.962C227.554 121.911 227.49 121.877 227.42 121.863C227.349 121.85 227.277 121.857 227.211 121.885C227.145 121.913 227.089 121.96 227.05 122.02C227.011 122.08 226.991 122.15 226.992 122.222V122.222Z" fill="white"/>
<path d="M220.502 122.222C220.503 122.292 220.525 122.359 220.564 122.416C220.604 122.474 220.659 122.518 220.724 122.544C220.789 122.569 220.859 122.576 220.927 122.561C220.995 122.547 221.058 122.513 221.106 122.463C221.155 122.414 221.188 122.351 221.201 122.282C221.214 122.214 221.207 122.144 221.18 122.079C221.153 122.015 221.108 121.96 221.05 121.922C220.992 121.883 220.924 121.863 220.855 121.863C220.808 121.863 220.761 121.872 220.718 121.89C220.675 121.908 220.636 121.935 220.603 121.968C220.57 122.002 220.544 122.042 220.527 122.085C220.509 122.129 220.501 122.175 220.502 122.222V122.222Z" fill="white"/>
<path d="M214.011 122.222C214.013 122.315 214.051 122.404 214.117 122.47C214.182 122.536 214.271 122.573 214.364 122.575C214.451 122.564 214.53 122.521 214.587 122.456C214.645 122.39 214.677 122.306 214.677 122.219C214.677 122.132 214.645 122.048 214.587 121.982C214.53 121.917 214.451 121.874 214.364 121.863C214.27 121.864 214.18 121.903 214.114 121.97C214.048 122.037 214.011 122.128 214.011 122.222Z" fill="white"/>
<path d="M207.521 122.222C207.521 122.293 207.542 122.363 207.582 122.422C207.621 122.481 207.677 122.527 207.743 122.554C207.809 122.581 207.881 122.588 207.951 122.574C208.02 122.56 208.084 122.526 208.134 122.476C208.185 122.426 208.219 122.362 208.233 122.292C208.247 122.222 208.24 122.15 208.212 122.085C208.185 122.019 208.139 121.963 208.08 121.923C208.021 121.884 207.952 121.863 207.881 121.863C207.785 121.863 207.694 121.901 207.627 121.968C207.559 122.035 207.521 122.127 207.521 122.222Z" fill="white"/>
<path d="M249.702 136.2C249.702 136.293 249.739 136.383 249.805 136.449C249.871 136.515 249.961 136.553 250.055 136.553C250.148 136.551 250.237 136.513 250.302 136.447C250.368 136.382 250.406 136.293 250.408 136.2C250.408 136.106 250.37 136.016 250.304 135.95C250.238 135.884 250.148 135.847 250.055 135.847C250.008 135.846 249.962 135.854 249.918 135.872C249.875 135.889 249.836 135.915 249.803 135.948C249.77 135.981 249.744 136.02 249.727 136.063C249.709 136.107 249.701 136.153 249.702 136.2Z" fill="white"/>
<path d="M243.211 136.199C243.211 136.293 243.249 136.383 243.315 136.449C243.381 136.515 243.471 136.552 243.564 136.552C243.658 136.552 243.748 136.515 243.814 136.449C243.88 136.383 243.917 136.293 243.917 136.199C243.917 136.106 243.88 136.016 243.814 135.95C243.748 135.884 243.658 135.846 243.564 135.846C243.471 135.846 243.381 135.884 243.315 135.95C243.249 136.016 243.211 136.106 243.211 136.199V136.199Z" fill="white"/>
<path d="M236.721 136.2C236.723 136.293 236.76 136.382 236.826 136.447C236.892 136.513 236.981 136.551 237.074 136.553C237.168 136.553 237.258 136.515 237.324 136.449C237.39 136.383 237.427 136.293 237.427 136.2C237.428 136.153 237.419 136.107 237.402 136.063C237.385 136.02 237.359 135.981 237.326 135.948C237.293 135.915 237.253 135.889 237.21 135.872C237.167 135.854 237.121 135.846 237.074 135.847C236.98 135.847 236.891 135.884 236.825 135.95C236.758 136.016 236.721 136.106 236.721 136.2V136.2Z" fill="white"/>
<path d="M230.243 136.2C230.255 136.286 230.297 136.365 230.363 136.423C230.428 136.48 230.512 136.512 230.599 136.512C230.687 136.512 230.771 136.48 230.836 136.423C230.902 136.365 230.944 136.286 230.956 136.2C230.944 136.113 230.902 136.034 230.836 135.977C230.771 135.919 230.687 135.887 230.599 135.887C230.512 135.887 230.428 135.919 230.363 135.977C230.297 136.034 230.255 136.113 230.243 136.2V136.2Z" fill="white"/>
<path d="M223.747 136.2C223.747 136.293 223.784 136.383 223.85 136.449C223.917 136.515 224.006 136.553 224.1 136.553C224.193 136.551 224.282 136.513 224.348 136.447C224.414 136.382 224.451 136.293 224.453 136.2C224.453 136.106 224.416 136.016 224.35 135.95C224.283 135.884 224.194 135.847 224.1 135.847C224.053 135.846 224.007 135.854 223.964 135.872C223.921 135.889 223.881 135.915 223.848 135.948C223.816 135.981 223.79 136.02 223.772 136.063C223.755 136.107 223.746 136.153 223.747 136.2Z" fill="white"/>
<path d="M217.238 136.2C217.24 136.293 217.277 136.382 217.343 136.447C217.409 136.513 217.498 136.551 217.591 136.553C217.685 136.553 217.774 136.515 217.841 136.449C217.907 136.383 217.944 136.293 217.944 136.2C217.945 136.153 217.936 136.107 217.919 136.063C217.901 136.02 217.875 135.981 217.843 135.948C217.81 135.915 217.77 135.889 217.727 135.872C217.684 135.854 217.638 135.846 217.591 135.847C217.497 135.847 217.408 135.884 217.341 135.95C217.275 136.016 217.238 136.106 217.238 136.2Z" fill="white"/>
<path d="M211.119 136.552C210.924 136.552 210.766 136.394 210.766 136.199C210.766 136.005 210.924 135.846 211.119 135.846C211.314 135.846 211.472 136.005 211.472 136.199C211.472 136.394 211.314 136.552 211.119 136.552Z" fill="white"/>
<path d="M204.276 136.2C204.288 136.286 204.33 136.365 204.396 136.423C204.461 136.48 204.545 136.512 204.632 136.512C204.719 136.512 204.804 136.48 204.869 136.423C204.935 136.365 204.977 136.286 204.988 136.2C204.977 136.113 204.935 136.034 204.869 135.977C204.804 135.919 204.719 135.887 204.632 135.887C204.545 135.887 204.461 135.919 204.396 135.977C204.33 136.034 204.288 136.113 204.276 136.2V136.2Z" fill="white"/>
<path d="M246.456 131.654C246.456 131.701 246.464 131.747 246.482 131.79C246.499 131.833 246.525 131.872 246.558 131.905C246.591 131.938 246.63 131.964 246.673 131.982C246.717 131.999 246.763 132.008 246.809 132.007C246.903 132.007 246.993 131.97 247.059 131.904C247.125 131.837 247.162 131.748 247.162 131.654C247.162 131.56 247.125 131.471 247.059 131.404C246.993 131.338 246.903 131.301 246.809 131.301C246.763 131.3 246.717 131.309 246.673 131.326C246.63 131.344 246.591 131.37 246.558 131.402C246.525 131.435 246.499 131.475 246.482 131.518C246.464 131.561 246.456 131.607 246.456 131.654V131.654Z" fill="white"/>
<path d="M239.966 131.654C239.966 131.748 240.003 131.837 240.07 131.904C240.136 131.97 240.226 132.007 240.319 132.007C240.413 132.007 240.503 131.97 240.569 131.904C240.635 131.837 240.672 131.748 240.672 131.654C240.672 131.56 240.635 131.47 240.569 131.404C240.503 131.338 240.413 131.301 240.319 131.301C240.226 131.301 240.136 131.338 240.07 131.404C240.003 131.47 239.966 131.56 239.966 131.654V131.654Z" fill="white"/>
<path d="M233.476 131.654C233.475 131.726 233.495 131.796 233.534 131.856C233.573 131.916 233.629 131.963 233.695 131.991C233.761 132.019 233.834 132.026 233.904 132.013C233.974 131.999 234.039 131.965 234.089 131.914C234.14 131.863 234.174 131.799 234.188 131.729C234.201 131.658 234.194 131.586 234.166 131.52C234.138 131.454 234.091 131.398 234.031 131.359C233.971 131.32 233.901 131.3 233.829 131.301C233.735 131.301 233.646 131.338 233.58 131.404C233.513 131.471 233.476 131.56 233.476 131.654V131.654Z" fill="white"/>
<path d="M226.992 131.654C226.991 131.701 227 131.747 227.017 131.79C227.035 131.833 227.061 131.872 227.094 131.905C227.127 131.938 227.166 131.964 227.209 131.982C227.252 131.999 227.298 132.008 227.345 132.007C227.439 132.007 227.528 131.97 227.595 131.904C227.661 131.837 227.698 131.748 227.698 131.654C227.698 131.56 227.661 131.471 227.595 131.404C227.528 131.338 227.439 131.301 227.345 131.301C227.298 131.3 227.252 131.309 227.209 131.326C227.166 131.344 227.127 131.37 227.094 131.402C227.061 131.435 227.035 131.475 227.017 131.518C227 131.561 226.991 131.607 226.992 131.654V131.654Z" fill="white"/>
<path d="M220.502 131.654C220.502 131.724 220.522 131.792 220.561 131.85C220.6 131.908 220.655 131.953 220.72 131.98C220.784 132.007 220.855 132.014 220.924 132C220.992 131.987 221.055 131.953 221.104 131.904C221.154 131.854 221.187 131.791 221.201 131.723C221.215 131.654 221.208 131.583 221.181 131.519C221.154 131.454 221.109 131.399 221.051 131.36C220.993 131.322 220.925 131.301 220.855 131.301C220.808 131.3 220.762 131.309 220.719 131.326C220.675 131.344 220.636 131.37 220.603 131.402C220.57 131.435 220.544 131.475 220.527 131.518C220.509 131.561 220.501 131.607 220.502 131.654Z" fill="white"/>
<path d="M214.012 131.654C214.012 131.748 214.049 131.837 214.115 131.904C214.181 131.97 214.271 132.007 214.365 132.007C214.458 132.007 214.548 131.97 214.614 131.904C214.68 131.837 214.718 131.748 214.718 131.654C214.718 131.56 214.68 131.47 214.614 131.404C214.548 131.338 214.458 131.301 214.365 131.301C214.271 131.301 214.181 131.338 214.115 131.404C214.049 131.47 214.012 131.56 214.012 131.654V131.654Z" fill="white"/>
<path d="M207.521 131.654C207.52 131.725 207.54 131.795 207.579 131.855C207.617 131.915 207.673 131.962 207.739 131.99C207.804 132.018 207.876 132.026 207.947 132.013C208.017 132 208.081 131.966 208.132 131.916C208.183 131.866 208.218 131.802 208.232 131.733C208.247 131.663 208.24 131.59 208.213 131.524C208.186 131.458 208.14 131.402 208.081 131.362C208.021 131.322 207.952 131.301 207.88 131.301C207.833 131.3 207.787 131.309 207.743 131.326C207.7 131.343 207.66 131.369 207.627 131.402C207.593 131.435 207.567 131.474 207.549 131.517C207.53 131.561 207.521 131.607 207.521 131.654Z" fill="white"/>
<path d="M155.27 128.094C259.076 104.403 331.931 529.497 497.385 141.569C639.35 -191.285 829.689 153.358 880.872 257.924C888.749 274.018 882.662 292.928 867.4 302.315L717.163 394.714C711.491 398.202 704.962 400.049 698.304 400.049H184.562C170.305 400.049 157.431 391.703 152.236 378.426C128.392 317.485 70.2656 147.493 155.27 128.094Z" fill="url(#paint0_linear)"/>
<path d="M188.112 149.774C281.052 213.559 383.525 364.323 518.34 137.017C643.734 -74.404 696.381 127.459 703.126 156.704C703.666 159.043 703.881 161.334 703.881 163.734V399.646C703.881 419.528 687.763 435.646 667.881 435.646H47.1084C23.3785 435.646 6.31005 413.238 13.536 390.635C43.0316 298.371 116.239 100.448 188.112 149.774Z" fill="url(#paint1_linear)"/>
<defs>
<linearGradient id="paint0_linear" x1="332.981" y1="-79.6892" x2="506.774" y2="366.416" gradientUnits="userSpaceOnUse">
<stop stop-color="#FF62A5"/>
<stop offset="0.905865" stop-color="#FF8EBF"/>
</linearGradient>
<linearGradient id="paint1_linear" x1="221.014" y1="-45.2506" x2="364.223" y2="426.31" gradientUnits="userSpaceOnUse">
<stop offset="0.520833" stop-color="#5498E2"/>
<stop offset="0.905865" stop-color="#3A78BC"/>
</linearGradient>
</defs>
</svg>
