<svg width="1313" height="510" viewBox="0 0 1313 510" fill="none" xmlns="http://www.w3.org/2000/svg">
<path d="M298.973 366.055H353.78V372.285H298.973V366.055Z" fill="#455A64"/>
<path d="M323.124 172.717H329.621V366.047H323.124V172.717Z" fill="#455A64"/>
<path d="M323.124 172.717H329.621V205.618H323.124V172.717Z" fill="#263238"/>
<path d="M292 191.769H360.753L355.759 175.351L355.574 174.769L341.038 127H311.715L297.163 174.777V174.793L297.01 175.335L292 191.769Z" fill="#3A78BC"/>
<path d="M338.606 138.037C338.608 138.159 338.657 138.275 338.743 138.361C338.829 138.447 338.945 138.496 339.066 138.498C339.188 138.498 339.306 138.449 339.392 138.363C339.478 138.277 339.527 138.159 339.527 138.037C339.528 137.977 339.517 137.916 339.494 137.86C339.471 137.803 339.437 137.752 339.394 137.709C339.351 137.666 339.3 137.632 339.244 137.61C339.187 137.587 339.127 137.576 339.066 137.577C338.944 137.577 338.827 137.625 338.741 137.712C338.654 137.798 338.606 137.915 338.606 138.037V138.037Z" fill="white"/>
<path d="M330.154 138.037C330.169 138.15 330.224 138.253 330.31 138.328C330.395 138.403 330.505 138.445 330.619 138.445C330.732 138.445 330.842 138.403 330.928 138.328C331.013 138.253 331.068 138.15 331.083 138.037C331.068 137.925 331.013 137.821 330.928 137.746C330.842 137.671 330.732 137.63 330.619 137.63C330.505 137.63 330.395 137.671 330.31 137.746C330.224 137.821 330.169 137.925 330.154 138.037Z" fill="white"/>
<path d="M321.678 138.037C321.678 138.159 321.727 138.277 321.813 138.363C321.899 138.449 322.017 138.498 322.139 138.498C322.26 138.496 322.376 138.447 322.462 138.361C322.548 138.275 322.597 138.159 322.599 138.037C322.599 137.915 322.551 137.798 322.464 137.712C322.378 137.625 322.261 137.577 322.139 137.577C322.078 137.576 322.018 137.587 321.961 137.61C321.905 137.632 321.854 137.666 321.811 137.709C321.768 137.752 321.734 137.803 321.711 137.86C321.688 137.916 321.677 137.977 321.678 138.037Z" fill="white"/>
<path d="M313.186 138.037C313.188 138.159 313.237 138.275 313.323 138.361C313.409 138.447 313.525 138.496 313.647 138.498C313.769 138.498 313.886 138.449 313.972 138.363C314.059 138.277 314.107 138.159 314.107 138.037C314.108 137.977 314.097 137.916 314.074 137.86C314.052 137.803 314.018 137.752 313.975 137.709C313.932 137.666 313.881 137.632 313.824 137.61C313.768 137.587 313.707 137.576 313.647 137.577C313.524 137.577 313.407 137.625 313.321 137.712C313.235 137.798 313.186 137.915 313.186 138.037Z" fill="white"/>
<path d="M334.372 132.107C334.37 132.2 334.397 132.292 334.447 132.37C334.498 132.448 334.571 132.51 334.657 132.546C334.743 132.582 334.838 132.592 334.93 132.575C335.022 132.557 335.106 132.512 335.172 132.446C335.238 132.38 335.283 132.296 335.3 132.204C335.318 132.112 335.308 132.017 335.272 131.932C335.235 131.846 335.174 131.772 335.096 131.722C335.017 131.671 334.926 131.644 334.832 131.646C334.71 131.646 334.593 131.695 334.507 131.781C334.42 131.867 334.372 131.984 334.372 132.107V132.107Z" fill="white"/>
<path d="M325.912 132.107C325.911 132.167 325.922 132.228 325.945 132.284C325.968 132.34 326.001 132.392 326.044 132.435C326.087 132.478 326.139 132.512 326.195 132.534C326.251 132.557 326.312 132.568 326.373 132.567C326.495 132.567 326.612 132.519 326.698 132.432C326.785 132.346 326.833 132.229 326.833 132.107C326.833 131.984 326.785 131.867 326.698 131.781C326.612 131.695 326.495 131.646 326.373 131.646C326.312 131.645 326.251 131.656 326.195 131.679C326.139 131.702 326.087 131.735 326.044 131.778C326.001 131.821 325.968 131.873 325.945 131.929C325.922 131.985 325.911 132.046 325.912 132.107V132.107Z" fill="white"/>
<path d="M317.444 132.107C317.444 132.198 317.471 132.287 317.522 132.362C317.572 132.438 317.644 132.497 317.728 132.532C317.813 132.567 317.905 132.576 317.995 132.558C318.084 132.541 318.166 132.497 318.23 132.432C318.295 132.368 318.339 132.286 318.356 132.196C318.374 132.107 318.365 132.014 318.33 131.93C318.295 131.846 318.236 131.774 318.161 131.724C318.085 131.673 317.996 131.646 317.905 131.646C317.844 131.645 317.784 131.656 317.727 131.679C317.671 131.702 317.62 131.735 317.577 131.778C317.534 131.821 317.5 131.873 317.477 131.929C317.454 131.985 317.443 132.046 317.444 132.107V132.107Z" fill="white"/>
<path d="M347.074 150.343C347.074 150.434 347.101 150.523 347.151 150.599C347.202 150.675 347.274 150.734 347.358 150.769C347.442 150.803 347.535 150.813 347.624 150.795C347.713 150.777 347.795 150.733 347.86 150.669C347.924 150.604 347.968 150.522 347.986 150.433C348.004 150.344 347.994 150.251 347.96 150.167C347.925 150.083 347.866 150.011 347.79 149.96C347.714 149.91 347.625 149.883 347.534 149.883C347.412 149.883 347.295 149.931 347.208 150.017C347.122 150.104 347.074 150.221 347.074 150.343V150.343Z" fill="white"/>
<path d="M338.606 150.343C338.606 150.466 338.654 150.584 338.74 150.672C338.826 150.759 338.943 150.81 339.066 150.812C339.159 150.813 339.251 150.787 339.329 150.737C339.407 150.686 339.468 150.614 339.505 150.528C339.542 150.443 339.552 150.348 339.535 150.257C339.518 150.165 339.474 150.081 339.409 150.015C339.343 149.948 339.26 149.903 339.169 149.884C339.078 149.865 338.983 149.874 338.897 149.909C338.811 149.945 338.737 150.005 338.685 150.082C338.633 150.159 338.606 150.25 338.606 150.343Z" fill="white"/>
<path d="M330.154 150.343C330.152 150.436 330.178 150.528 330.229 150.606C330.279 150.684 330.352 150.745 330.438 150.782C330.523 150.819 330.618 150.829 330.709 150.812C330.8 150.795 330.885 150.751 330.951 150.685C331.017 150.62 331.063 150.537 331.082 150.446C331.1 150.355 331.092 150.26 331.056 150.174C331.021 150.088 330.961 150.014 330.884 149.962C330.807 149.91 330.716 149.883 330.623 149.883C330.5 149.883 330.382 149.931 330.294 150.017C330.206 150.103 330.156 150.22 330.154 150.343V150.343Z" fill="white"/>
<path d="M321.678 150.343C321.677 150.404 321.688 150.465 321.711 150.522C321.734 150.579 321.767 150.63 321.81 150.674C321.853 150.718 321.904 150.752 321.961 150.776C322.017 150.8 322.078 150.812 322.139 150.812C322.251 150.797 322.355 150.742 322.43 150.656C322.505 150.571 322.546 150.461 322.546 150.347C322.546 150.234 322.505 150.124 322.43 150.038C322.355 149.953 322.251 149.897 322.139 149.883C322.017 149.883 321.899 149.931 321.813 150.017C321.727 150.104 321.678 150.221 321.678 150.343Z" fill="white"/>
<path d="M313.186 150.343C313.186 150.466 313.234 150.584 313.32 150.672C313.407 150.759 313.524 150.81 313.647 150.812C313.74 150.813 313.831 150.787 313.909 150.737C313.987 150.686 314.049 150.614 314.085 150.528C314.122 150.443 314.132 150.348 314.115 150.257C314.098 150.165 314.054 150.081 313.989 150.015C313.924 149.948 313.84 149.903 313.749 149.884C313.658 149.865 313.563 149.874 313.477 149.909C313.391 149.945 313.317 150.005 313.266 150.082C313.214 150.159 313.186 150.25 313.186 150.343V150.343Z" fill="white"/>
<path d="M304.742 150.343C304.741 150.436 304.767 150.528 304.818 150.606C304.869 150.685 304.942 150.746 305.028 150.783C305.114 150.819 305.209 150.829 305.3 150.811C305.392 150.793 305.476 150.749 305.542 150.683C305.608 150.616 305.653 150.532 305.671 150.441C305.689 150.349 305.679 150.254 305.642 150.168C305.606 150.082 305.545 150.009 305.466 149.958C305.388 149.907 305.296 149.881 305.203 149.883C305.082 149.885 304.966 149.934 304.88 150.02C304.794 150.106 304.745 150.222 304.742 150.343Z" fill="white"/>
<path d="M342.84 144.42C342.842 144.542 342.891 144.658 342.977 144.744C343.063 144.83 343.179 144.879 343.3 144.881C343.413 144.866 343.516 144.811 343.591 144.725C343.666 144.64 343.707 144.53 343.707 144.416C343.707 144.303 343.666 144.193 343.591 144.108C343.516 144.022 343.413 143.967 343.3 143.952C343.177 143.954 343.06 144.004 342.974 144.092C342.888 144.18 342.84 144.298 342.84 144.42V144.42Z" fill="white"/>
<path d="M334.372 144.42C334.372 144.514 334.4 144.604 334.451 144.682C334.503 144.759 334.577 144.819 334.663 144.854C334.749 144.889 334.844 144.898 334.935 144.879C335.026 144.861 335.11 144.815 335.175 144.749C335.24 144.683 335.284 144.598 335.301 144.507C335.318 144.415 335.308 144.321 335.271 144.235C335.234 144.15 335.173 144.077 335.095 144.027C335.017 143.976 334.925 143.95 334.832 143.952C334.71 143.954 334.592 144.004 334.506 144.092C334.42 144.18 334.372 144.298 334.372 144.42V144.42Z" fill="white"/>
<path d="M325.912 144.42C325.912 144.543 325.96 144.66 326.047 144.746C326.133 144.833 326.25 144.881 326.373 144.881C326.466 144.883 326.558 144.856 326.636 144.805C326.714 144.755 326.775 144.681 326.812 144.596C326.848 144.51 326.858 144.415 326.841 144.323C326.823 144.231 326.778 144.147 326.712 144.081C326.646 144.015 326.562 143.97 326.47 143.952C326.378 143.935 326.283 143.945 326.198 143.981C326.112 144.018 326.038 144.079 325.988 144.157C325.937 144.235 325.91 144.327 325.912 144.42V144.42Z" fill="white"/>
<path d="M317.444 144.42C317.446 144.511 317.474 144.599 317.526 144.674C317.577 144.749 317.65 144.807 317.734 144.84C317.818 144.874 317.911 144.882 317.999 144.863C318.088 144.844 318.169 144.8 318.233 144.735C318.297 144.671 318.34 144.588 318.357 144.499C318.374 144.41 318.364 144.318 318.329 144.234C318.294 144.151 318.235 144.079 318.16 144.029C318.084 143.979 317.995 143.952 317.905 143.952C317.843 143.952 317.783 143.964 317.727 143.988C317.67 144.011 317.619 144.046 317.576 144.09C317.533 144.133 317.499 144.185 317.477 144.242C317.454 144.299 317.443 144.359 317.444 144.42V144.42Z" fill="white"/>
<path d="M308.976 144.42C308.978 144.542 309.028 144.658 309.114 144.744C309.199 144.83 309.315 144.879 309.437 144.881C309.55 144.866 309.653 144.811 309.728 144.725C309.803 144.64 309.844 144.53 309.844 144.416C309.844 144.303 309.803 144.193 309.728 144.108C309.653 144.022 309.55 143.967 309.437 143.952C309.314 143.954 309.197 144.004 309.111 144.092C309.025 144.18 308.976 144.298 308.976 144.42V144.42Z" fill="white"/>
<path d="M347.074 162.657C347.074 162.779 347.122 162.896 347.208 162.983C347.295 163.069 347.412 163.118 347.534 163.118C347.656 163.118 347.773 163.069 347.86 162.983C347.946 162.896 347.995 162.779 347.995 162.657C347.995 162.535 347.946 162.418 347.86 162.331C347.773 162.245 347.656 162.196 347.534 162.196C347.412 162.196 347.295 162.245 347.208 162.331C347.122 162.418 347.074 162.535 347.074 162.657V162.657Z" fill="white"/>
<path d="M338.606 162.657C338.608 162.779 338.657 162.894 338.743 162.98C338.829 163.066 338.945 163.116 339.066 163.118C339.188 163.118 339.306 163.069 339.392 162.983C339.478 162.896 339.527 162.779 339.527 162.657C339.528 162.596 339.517 162.536 339.494 162.48C339.471 162.423 339.437 162.372 339.394 162.329C339.351 162.286 339.3 162.252 339.244 162.229C339.187 162.207 339.127 162.195 339.066 162.196C338.944 162.196 338.827 162.245 338.741 162.331C338.654 162.418 338.606 162.535 338.606 162.657V162.657Z" fill="white"/>
<path d="M330.154 162.657C330.169 162.77 330.224 162.873 330.31 162.948C330.395 163.023 330.505 163.064 330.619 163.064C330.732 163.064 330.842 163.023 330.928 162.948C331.013 162.873 331.068 162.77 331.083 162.657C331.068 162.544 331.013 162.441 330.928 162.366C330.842 162.291 330.732 162.25 330.619 162.25C330.505 162.25 330.395 162.291 330.31 162.366C330.224 162.441 330.169 162.544 330.154 162.657Z" fill="white"/>
<path d="M321.678 162.657C321.678 162.779 321.727 162.896 321.813 162.983C321.899 163.069 322.017 163.118 322.139 163.118C322.26 163.116 322.376 163.066 322.462 162.98C322.548 162.894 322.597 162.779 322.599 162.657C322.599 162.535 322.551 162.418 322.464 162.331C322.378 162.245 322.261 162.196 322.139 162.196C322.078 162.195 322.018 162.207 321.961 162.229C321.905 162.252 321.854 162.286 321.811 162.329C321.768 162.372 321.734 162.423 321.711 162.48C321.688 162.536 321.677 162.596 321.678 162.657Z" fill="white"/>
<path d="M313.186 162.657C313.188 162.779 313.237 162.894 313.323 162.98C313.409 163.066 313.525 163.116 313.647 163.118C313.769 163.118 313.886 163.069 313.972 162.983C314.059 162.896 314.107 162.779 314.107 162.657C314.108 162.596 314.097 162.536 314.074 162.48C314.052 162.423 314.018 162.372 313.975 162.329C313.932 162.286 313.881 162.252 313.824 162.229C313.768 162.207 313.707 162.195 313.647 162.196C313.524 162.196 313.407 162.245 313.321 162.331C313.235 162.418 313.186 162.535 313.186 162.657Z" fill="white"/>
<path d="M304.742 162.657C304.741 162.75 304.767 162.842 304.818 162.92C304.869 162.999 304.942 163.06 305.028 163.096C305.114 163.133 305.209 163.143 305.3 163.125C305.392 163.107 305.476 163.062 305.542 162.996C305.608 162.93 305.653 162.846 305.671 162.755C305.689 162.663 305.679 162.568 305.642 162.482C305.606 162.396 305.545 162.323 305.466 162.272C305.388 162.221 305.296 162.195 305.203 162.196C305.081 162.196 304.964 162.245 304.877 162.331C304.791 162.418 304.742 162.535 304.742 162.657V162.657Z" fill="white"/>
<path d="M342.84 156.718C342.84 156.84 342.888 156.958 342.974 157.044C343.061 157.13 343.178 157.179 343.3 157.179C343.361 157.179 343.42 157.167 343.476 157.144C343.532 157.121 343.583 157.087 343.626 157.044C343.669 157.001 343.702 156.95 343.726 156.895C343.749 156.839 343.761 156.779 343.761 156.718C343.761 156.658 343.749 156.598 343.726 156.542C343.702 156.486 343.669 156.435 343.626 156.393C343.583 156.35 343.532 156.316 343.476 156.293C343.42 156.27 343.361 156.258 343.3 156.258C343.178 156.258 343.061 156.306 342.974 156.393C342.888 156.479 342.84 156.596 342.84 156.718V156.718Z" fill="white"/>
<path d="M334.372 156.718C334.37 156.812 334.397 156.903 334.447 156.982C334.498 157.06 334.571 157.121 334.657 157.158C334.743 157.194 334.838 157.204 334.93 157.186C335.022 157.168 335.106 157.124 335.172 157.058C335.238 156.992 335.283 156.907 335.3 156.816C335.318 156.724 335.308 156.629 335.272 156.543C335.235 156.457 335.174 156.384 335.096 156.333C335.017 156.282 334.926 156.256 334.832 156.258C334.71 156.258 334.593 156.306 334.507 156.393C334.42 156.479 334.372 156.596 334.372 156.718V156.718Z" fill="white"/>
<path d="M326.373 157.187C326.118 157.187 325.912 156.981 325.912 156.726C325.912 156.472 326.118 156.266 326.373 156.266C326.627 156.266 326.833 156.472 326.833 156.726C326.833 156.981 326.627 157.187 326.373 157.187Z" fill="white"/>
<path d="M317.444 156.718C317.444 156.809 317.471 156.898 317.522 156.974C317.572 157.05 317.644 157.109 317.728 157.144C317.813 157.179 317.905 157.188 317.995 157.17C318.084 157.152 318.166 157.108 318.23 157.044C318.295 156.979 318.339 156.897 318.356 156.808C318.374 156.719 318.365 156.626 318.33 156.542C318.295 156.458 318.236 156.386 318.161 156.335C318.085 156.285 317.996 156.258 317.905 156.258C317.844 156.257 317.784 156.268 317.727 156.291C317.671 156.313 317.62 156.347 317.577 156.39C317.534 156.433 317.5 156.484 317.477 156.541C317.454 156.597 317.443 156.657 317.444 156.718Z" fill="white"/>
<path d="M309.437 157.187C309.183 157.187 308.976 156.981 308.976 156.726C308.976 156.472 309.183 156.266 309.437 156.266C309.691 156.266 309.897 156.472 309.897 156.726C309.897 156.981 309.691 157.187 309.437 157.187Z" fill="white"/>
<path d="M355.533 174.963C355.532 175.042 355.553 175.12 355.593 175.188C355.633 175.256 355.69 175.313 355.76 175.351L355.574 174.769C355.545 174.829 355.531 174.896 355.533 174.963V174.963Z" fill="white"/>
<path d="M347.074 174.963C347.074 175.054 347.101 175.143 347.151 175.219C347.202 175.294 347.274 175.354 347.358 175.388C347.442 175.423 347.535 175.432 347.624 175.415C347.713 175.397 347.795 175.353 347.86 175.289C347.924 175.224 347.968 175.142 347.986 175.053C348.004 174.963 347.994 174.871 347.96 174.787C347.925 174.702 347.866 174.631 347.79 174.58C347.714 174.529 347.625 174.502 347.534 174.502C347.412 174.502 347.295 174.551 347.208 174.637C347.122 174.724 347.074 174.841 347.074 174.963V174.963Z" fill="white"/>
<path d="M338.606 174.963C338.606 175.086 338.654 175.204 338.74 175.291C338.826 175.379 338.943 175.429 339.066 175.432C339.159 175.433 339.251 175.407 339.329 175.357C339.407 175.306 339.468 175.233 339.505 175.148C339.542 175.062 339.552 174.968 339.535 174.877C339.518 174.785 339.474 174.701 339.409 174.634C339.343 174.568 339.26 174.523 339.169 174.504C339.078 174.485 338.983 174.494 338.897 174.529C338.811 174.564 338.737 174.624 338.685 174.702C338.633 174.779 338.606 174.87 338.606 174.963Z" fill="white"/>
<path d="M330.154 174.963C330.152 175.056 330.178 175.147 330.229 175.225C330.279 175.304 330.352 175.365 330.438 175.402C330.523 175.438 330.618 175.449 330.709 175.432C330.8 175.414 330.885 175.37 330.951 175.305C331.017 175.24 331.063 175.157 331.082 175.065C331.1 174.974 331.092 174.88 331.056 174.794C331.021 174.707 330.961 174.634 330.884 174.582C330.807 174.53 330.716 174.502 330.623 174.502C330.5 174.502 330.382 174.551 330.294 174.637C330.206 174.723 330.156 174.84 330.154 174.963Z" fill="white"/>
<path d="M321.678 174.963C321.677 175.024 321.688 175.085 321.711 175.142C321.734 175.198 321.767 175.25 321.81 175.294C321.853 175.337 321.904 175.372 321.961 175.396C322.017 175.419 322.078 175.432 322.139 175.432C322.251 175.417 322.355 175.361 322.43 175.276C322.505 175.19 322.546 175.081 322.546 174.967C322.546 174.853 322.505 174.743 322.43 174.658C322.355 174.573 322.251 174.517 322.139 174.502C322.017 174.502 321.899 174.551 321.813 174.637C321.727 174.724 321.678 174.841 321.678 174.963Z" fill="white"/>
<path d="M313.186 174.963C313.186 175.086 313.234 175.204 313.32 175.291C313.407 175.379 313.524 175.429 313.647 175.432C313.74 175.433 313.831 175.407 313.909 175.357C313.987 175.306 314.049 175.233 314.085 175.148C314.122 175.062 314.132 174.968 314.115 174.877C314.098 174.785 314.054 174.701 313.989 174.634C313.924 174.568 313.84 174.523 313.749 174.504C313.658 174.485 313.563 174.494 313.477 174.529C313.391 174.564 313.317 174.624 313.266 174.702C313.214 174.779 313.186 174.87 313.186 174.963V174.963Z" fill="white"/>
<path d="M305.203 175.423C304.949 175.423 304.742 175.217 304.742 174.963C304.742 174.709 304.949 174.502 305.203 174.502C305.457 174.502 305.664 174.709 305.664 174.963C305.664 175.217 305.457 175.423 305.203 175.423Z" fill="white"/>
<path d="M297.026 175.302C297.085 175.26 297.133 175.204 297.165 175.139C297.197 175.075 297.214 175.003 297.212 174.931C297.225 174.875 297.225 174.817 297.212 174.761L297.026 175.302Z" fill="white"/>
<path d="M351.308 169.04C351.308 169.162 351.356 169.28 351.442 169.366C351.529 169.452 351.646 169.501 351.768 169.501C351.861 169.502 351.953 169.476 352.031 169.425C352.11 169.374 352.171 169.301 352.208 169.215C352.244 169.129 352.254 169.034 352.236 168.943C352.218 168.851 352.174 168.767 352.107 168.701C352.041 168.635 351.957 168.59 351.866 168.572C351.774 168.554 351.679 168.564 351.593 168.601C351.507 168.637 351.434 168.699 351.383 168.777C351.332 168.855 351.306 168.947 351.308 169.04Z" fill="white"/>
<path d="M342.84 169.04C342.842 169.162 342.891 169.278 342.977 169.364C343.063 169.45 343.179 169.499 343.3 169.501C343.413 169.486 343.516 169.431 343.591 169.345C343.666 169.26 343.707 169.15 343.707 169.036C343.707 168.923 343.666 168.813 343.591 168.727C343.516 168.642 343.413 168.586 343.3 168.572C343.177 168.574 343.06 168.624 342.974 168.712C342.888 168.799 342.84 168.917 342.84 169.04Z" fill="white"/>
<path d="M334.372 169.04C334.372 169.133 334.4 169.224 334.451 169.301C334.503 169.379 334.577 169.439 334.663 169.474C334.749 169.509 334.844 169.518 334.935 169.499C335.026 169.48 335.11 169.435 335.175 169.369C335.24 169.302 335.284 169.218 335.301 169.127C335.318 169.035 335.308 168.941 335.271 168.855C335.234 168.77 335.173 168.697 335.095 168.647C335.017 168.596 334.925 168.57 334.832 168.572C334.71 168.574 334.592 168.624 334.506 168.712C334.42 168.799 334.372 168.917 334.372 169.04V169.04Z" fill="white"/>
<path d="M325.912 169.04C325.912 169.162 325.96 169.28 326.047 169.366C326.133 169.452 326.25 169.501 326.373 169.501C326.466 169.502 326.558 169.476 326.636 169.425C326.714 169.374 326.775 169.301 326.812 169.215C326.848 169.129 326.858 169.034 326.841 168.943C326.823 168.851 326.778 168.767 326.712 168.701C326.646 168.635 326.562 168.59 326.47 168.572C326.378 168.554 326.283 168.564 326.198 168.601C326.112 168.637 326.038 168.699 325.988 168.777C325.937 168.855 325.91 168.947 325.912 169.04V169.04Z" fill="white"/>
<path d="M317.444 169.04C317.446 169.131 317.474 169.219 317.526 169.294C317.577 169.369 317.65 169.426 317.734 169.46C317.818 169.494 317.911 169.502 317.999 169.483C318.088 169.464 318.169 169.42 318.233 169.355C318.297 169.29 318.34 169.208 318.357 169.119C318.374 169.03 318.364 168.938 318.329 168.854C318.294 168.77 318.235 168.699 318.16 168.649C318.084 168.598 317.995 168.572 317.905 168.572C317.843 168.572 317.783 168.584 317.727 168.607C317.67 168.631 317.619 168.666 317.576 168.709C317.533 168.753 317.499 168.805 317.477 168.861C317.454 168.918 317.443 168.979 317.444 169.04V169.04Z" fill="white"/>
<path d="M308.976 169.04C308.978 169.162 309.028 169.278 309.114 169.364C309.199 169.45 309.315 169.499 309.437 169.501C309.55 169.486 309.653 169.431 309.728 169.345C309.803 169.26 309.844 169.15 309.844 169.036C309.844 168.923 309.803 168.813 309.728 168.727C309.653 168.642 309.55 168.586 309.437 168.572C309.314 168.574 309.197 168.624 309.111 168.712C309.025 168.799 308.976 168.917 308.976 169.04Z" fill="white"/>
<path d="M300.508 169.04C300.508 169.133 300.536 169.224 300.587 169.301C300.639 169.378 300.712 169.438 300.798 169.473C300.883 169.509 300.978 169.518 301.069 169.5C301.159 169.482 301.243 169.437 301.308 169.372C301.374 169.306 301.419 169.223 301.437 169.132C301.455 169.041 301.446 168.947 301.41 168.861C301.375 168.775 301.315 168.702 301.237 168.651C301.16 168.599 301.07 168.572 300.977 168.572C300.853 168.572 300.734 168.621 300.646 168.709C300.558 168.797 300.508 168.916 300.508 169.04Z" fill="white"/>
<path d="M355.541 187.277C355.541 187.399 355.59 187.516 355.676 187.602C355.763 187.689 355.88 187.737 356.002 187.737C356.123 187.735 356.239 187.686 356.325 187.6C356.411 187.514 356.46 187.398 356.462 187.277C356.462 187.155 356.414 187.038 356.328 186.951C356.241 186.865 356.124 186.816 356.002 186.816C355.941 186.815 355.881 186.826 355.824 186.849C355.768 186.872 355.717 186.906 355.674 186.949C355.631 186.992 355.597 187.043 355.574 187.099C355.551 187.156 355.54 187.216 355.541 187.277Z" fill="white"/>
<path d="M347.074 187.277C347.074 187.399 347.122 187.516 347.208 187.602C347.295 187.689 347.412 187.737 347.534 187.737C347.656 187.737 347.773 187.689 347.86 187.602C347.946 187.516 347.995 187.399 347.995 187.277C347.995 187.155 347.946 187.037 347.86 186.951C347.773 186.865 347.656 186.816 347.534 186.816C347.412 186.816 347.295 186.865 347.208 186.951C347.122 187.037 347.074 187.155 347.074 187.277V187.277Z" fill="white"/>
<path d="M338.606 187.277C338.608 187.398 338.657 187.514 338.743 187.6C338.829 187.686 338.945 187.735 339.066 187.737C339.188 187.737 339.306 187.689 339.392 187.602C339.478 187.516 339.527 187.399 339.527 187.277C339.528 187.216 339.517 187.156 339.494 187.099C339.471 187.043 339.437 186.992 339.394 186.949C339.351 186.906 339.3 186.872 339.244 186.849C339.187 186.826 339.127 186.815 339.066 186.816C338.944 186.816 338.827 186.865 338.741 186.951C338.654 187.038 338.606 187.155 338.606 187.277V187.277Z" fill="white"/>
<path d="M330.154 187.277C330.169 187.389 330.224 187.493 330.31 187.568C330.395 187.643 330.505 187.684 330.619 187.684C330.732 187.684 330.842 187.643 330.928 187.568C331.013 187.493 331.068 187.389 331.083 187.277C331.068 187.164 331.013 187.061 330.928 186.986C330.842 186.911 330.732 186.87 330.619 186.87C330.505 186.87 330.395 186.911 330.31 186.986C330.224 187.061 330.169 187.164 330.154 187.277V187.277Z" fill="white"/>
<path d="M321.678 187.277C321.678 187.399 321.727 187.516 321.813 187.602C321.899 187.689 322.017 187.737 322.139 187.737C322.26 187.735 322.376 187.686 322.462 187.6C322.548 187.514 322.597 187.398 322.599 187.277C322.599 187.155 322.551 187.038 322.464 186.951C322.378 186.865 322.261 186.816 322.139 186.816C322.078 186.815 322.018 186.826 321.961 186.849C321.905 186.872 321.854 186.906 321.811 186.949C321.768 186.992 321.734 187.043 321.711 187.099C321.688 187.156 321.677 187.216 321.678 187.277Z" fill="white"/>
<path d="M313.186 187.277C313.188 187.398 313.237 187.514 313.323 187.6C313.409 187.686 313.525 187.735 313.647 187.737C313.769 187.737 313.886 187.689 313.972 187.602C314.059 187.516 314.107 187.399 314.107 187.277C314.108 187.216 314.097 187.156 314.074 187.099C314.052 187.043 314.018 186.992 313.975 186.949C313.932 186.906 313.881 186.872 313.824 186.849C313.768 186.826 313.707 186.815 313.647 186.816C313.524 186.816 313.407 186.865 313.321 186.951C313.235 187.038 313.186 187.155 313.186 187.277Z" fill="white"/>
<path d="M305.203 187.737C304.949 187.737 304.742 187.531 304.742 187.277C304.742 187.022 304.949 186.816 305.203 186.816C305.457 186.816 305.664 187.022 305.664 187.277C305.664 187.531 305.457 187.737 305.203 187.737Z" fill="white"/>
<path d="M296.275 187.277C296.289 187.389 296.345 187.493 296.43 187.568C296.516 187.643 296.625 187.684 296.739 187.684C296.853 187.684 296.963 187.643 297.048 187.568C297.134 187.493 297.189 187.389 297.204 187.277C297.189 187.164 297.134 187.061 297.048 186.986C296.963 186.911 296.853 186.87 296.739 186.87C296.625 186.87 296.516 186.911 296.43 186.986C296.345 187.061 296.289 187.164 296.275 187.277V187.277Z" fill="white"/>
<path d="M351.307 181.346C351.306 181.407 351.317 181.467 351.34 181.524C351.363 181.58 351.397 181.631 351.44 181.674C351.483 181.717 351.534 181.751 351.59 181.774C351.647 181.797 351.707 181.808 351.768 181.807C351.89 181.807 352.007 181.758 352.094 181.672C352.18 181.585 352.229 181.468 352.229 181.346C352.229 181.224 352.18 181.107 352.094 181.02C352.007 180.934 351.89 180.886 351.768 180.886C351.707 180.884 351.647 180.896 351.59 180.918C351.534 180.941 351.483 180.975 351.44 181.018C351.397 181.061 351.363 181.112 351.34 181.169C351.317 181.225 351.306 181.285 351.307 181.346V181.346Z" fill="white"/>
<path d="M342.84 181.346C342.84 181.468 342.888 181.585 342.974 181.672C343.061 181.758 343.178 181.807 343.3 181.807C343.422 181.807 343.539 181.758 343.626 181.672C343.712 181.585 343.761 181.468 343.761 181.346C343.761 181.224 343.712 181.107 343.626 181.02C343.539 180.934 343.422 180.886 343.3 180.886C343.178 180.886 343.061 180.934 342.974 181.02C342.888 181.107 342.84 181.224 342.84 181.346V181.346Z" fill="white"/>
<path d="M334.372 181.346C334.37 181.439 334.397 181.531 334.447 181.609C334.498 181.688 334.571 181.749 334.657 181.786C334.743 181.822 334.838 181.832 334.93 181.814C335.022 181.796 335.106 181.751 335.172 181.685C335.238 181.619 335.283 181.535 335.3 181.444C335.318 181.352 335.308 181.257 335.272 181.171C335.235 181.085 335.174 181.012 335.096 180.961C335.017 180.91 334.926 180.884 334.832 180.886C334.71 180.886 334.593 180.934 334.507 181.02C334.42 181.107 334.372 181.224 334.372 181.346V181.346Z" fill="white"/>
<path d="M325.912 181.346C325.911 181.407 325.922 181.467 325.945 181.524C325.968 181.58 326.001 181.631 326.044 181.674C326.087 181.717 326.139 181.751 326.195 181.774C326.251 181.797 326.312 181.808 326.373 181.807C326.495 181.807 326.612 181.758 326.698 181.672C326.785 181.585 326.833 181.468 326.833 181.346C326.833 181.224 326.785 181.107 326.698 181.02C326.612 180.934 326.495 180.886 326.373 180.886C326.312 180.884 326.251 180.896 326.195 180.918C326.139 180.941 326.087 180.975 326.044 181.018C326.001 181.061 325.968 181.112 325.945 181.169C325.922 181.225 325.911 181.285 325.912 181.346V181.346Z" fill="white"/>
<path d="M317.444 181.346C317.444 181.437 317.471 181.526 317.522 181.602C317.572 181.678 317.644 181.737 317.728 181.772C317.813 181.806 317.905 181.816 317.995 181.798C318.084 181.78 318.166 181.736 318.23 181.672C318.295 181.607 318.339 181.525 318.356 181.436C318.374 181.347 318.365 181.254 318.33 181.17C318.295 181.086 318.236 181.014 318.161 180.963C318.085 180.913 317.996 180.886 317.905 180.886C317.844 180.884 317.784 180.896 317.727 180.918C317.671 180.941 317.62 180.975 317.577 181.018C317.534 181.061 317.5 181.112 317.477 181.169C317.454 181.225 317.443 181.285 317.444 181.346Z" fill="white"/>
<path d="M308.976 181.346C308.976 181.468 309.025 181.585 309.111 181.672C309.198 181.758 309.315 181.807 309.437 181.807C309.559 181.807 309.676 181.758 309.763 181.672C309.849 181.585 309.897 181.468 309.897 181.346C309.897 181.224 309.849 181.107 309.763 181.02C309.676 180.934 309.559 180.886 309.437 180.886C309.315 180.886 309.198 180.934 309.111 181.02C309.025 181.107 308.976 181.224 308.976 181.346V181.346Z" fill="white"/>
<path d="M300.508 181.346C300.507 181.439 300.533 181.53 300.583 181.609C300.634 181.687 300.707 181.748 300.792 181.785C300.878 181.821 300.972 181.832 301.063 181.815C301.155 181.798 301.239 181.754 301.306 181.688C301.372 181.623 301.417 181.54 301.436 181.449C301.455 181.357 301.446 181.263 301.411 181.177C301.376 181.091 301.316 181.017 301.238 180.965C301.161 180.913 301.07 180.886 300.977 180.886C300.916 180.884 300.855 180.896 300.798 180.918C300.742 180.941 300.69 180.975 300.646 181.018C300.603 181.06 300.568 181.112 300.544 181.168C300.521 181.224 300.508 181.285 300.508 181.346Z" fill="white"/>
<path d="M228.042 244.38C380.5 223.953 487.5 590.5 730.5 256C929.776 -18.3126 1193.95 241.012 1282.57 343.215C1298.35 361.422 1290.21 388.729 1267.54 396.913L1046.47 476.741C1042.55 478.156 1038.41 478.88 1034.24 478.88H254.582C243.269 478.88 232.63 473.598 226.277 464.237C193.273 415.603 99.8662 261.554 228.042 244.38Z" fill="url(#paint0_linear)"/>
<path d="M276.276 263.075C412.776 318.075 563.276 448.075 761.276 252.075C939.971 75.1848 1018.07 233.811 1031.61 266.424C1033.14 270.115 1033.78 274.04 1033.78 278.036V473.575C1033.78 493.457 1017.66 509.575 997.776 509.575H56.3703C30.0713 509.575 13.1248 482.623 26.0023 459.693C72.7115 376.52 175.388 222.425 276.276 263.075Z" fill="url(#paint1_linear)"/>
<path d="M950 88.0213L755 88.0213V79.4667L950 79.4667V88.0213Z" fill="#EBEBEB"/>
<path d="M765.942 88.033H774.497V116.318H765.942V88.033Z" fill="#EBEBEB"/>
<path d="M765.942 88.033H774.497V96.7748H765.942V88.033Z" fill="#DBDBDB"/>
<path d="M930.527 88.033H939.082V116.318H930.527V88.033Z" fill="#EBEBEB"/>
<path d="M930.527 88.033H939.082V96.7748H930.527V88.033Z" fill="#DBDBDB"/>
<path d="M791.407 79.4784V24.9796H805.134V79.4784H791.407Z" fill="#C7C7C7"/>
<path d="M791.407 28.0575V22.0658H805.134V28.0575H791.407Z" fill="#DBDBDB"/>
<path d="M791.407 37.9461V35.7226H805.134V37.9461H791.407Z" fill="#DBDBDB"/>
<path d="M791.407 72.3281V66.3364H806.843V72.3281H791.407Z" fill="#DBDBDB"/>
<path d="M805.134 79.4785V15.8985H814.73V79.4785H805.134Z" fill="#DBDBDB"/>
<path d="M807.007 46.325V21.8783H812.764V46.325H807.007Z" fill="#EBEBEB"/>
<path d="M876.211 79.5004L830.995 34.8022L837.741 27.9777L882.957 72.6759L876.211 79.5004Z" fill="#C7C7C7"/>
<path d="M866.978 67.6254L849.592 50.4388L853.64 46.3441L871.025 63.5307L866.978 67.6254Z" fill="#DBDBDB"/>
<path d="M814.719 79.4785V31.1937H831.009V79.4785H814.719Z" fill="#A6A6A6"/>
<path d="M814.719 74.3761V69.8706H831.009V74.3761H814.719Z" fill="#C7C7C7"/>
<path d="M814.719 66.9098V65.1662H831.009V66.9098H814.719Z" fill="#C7C7C7"/>
<path d="M780.149 79.4903V34.1077H791.396V79.4903H780.149Z" fill="#A6A6A6"/>
<path d="M780.149 74.6686V70.444H791.396V74.6686H780.149Z" fill="#C7C7C7"/>
<path d="M780.149 47.6825V43.4579H791.396V47.6825H780.149Z" fill="#C7C7C7"/>
<path d="M780.161 52.2232V50.5848H791.407V52.2232H780.161Z" fill="#C7C7C7"/>
<path d="M910.574 21.3401C900.978 30.7022 899.363 45.2836 901.387 58.016C901.387 58.2969 901.891 58.2266 901.891 57.9458C901.891 55.0552 901.797 52.1764 901.809 49.321C901.809 49.1806 901.902 49.0635 901.961 48.9348C904.547 47.2311 906.686 44.9315 908.198 42.2292C909.802 39.0812 910.433 35.5237 911.651 32.2235C911.768 31.9076 911.428 32.0012 911.218 32.165C905.366 36.4716 903.517 41.1058 901.855 47.2964C901.894 44.0574 902.235 40.8291 902.874 37.6535C903.988 31.6679 906.743 26.1093 910.831 21.5976C910.853 21.5617 910.863 21.5195 910.858 21.4778C910.853 21.436 910.834 21.3972 910.804 21.3674C910.774 21.3377 910.735 21.3188 910.694 21.3139C910.652 21.3089 910.61 21.3182 910.574 21.3401V21.3401Z" fill="#A6A6A6"/>
<path d="M912.377 22.4401C914.038 22.4401 915.068 25.1317 916.356 25.9509C916.491 26.0609 916.648 26.141 916.817 26.1862C916.985 26.2313 917.161 26.2403 917.334 26.2127C917.506 26.1851 917.671 26.1215 917.817 26.0259C917.963 25.9304 918.087 25.8051 918.181 25.6583C919.457 23.8795 917.701 21.6912 916.063 20.4624C917.148 21.0706 918.293 21.5647 919.48 21.9369C919.642 21.9939 919.815 22.0146 919.986 21.9973C920.157 21.9801 920.322 21.9254 920.469 21.8371C920.617 21.7489 920.743 21.6292 920.839 21.4867C920.935 21.3442 920.999 21.1822 921.025 21.0124C921.587 18.59 918.544 17.5016 916.449 17.5016C917.467 16.7995 920.37 14.892 918.79 13.9909C917.21 13.0898 913.816 15.7814 912.716 16.6825C911.078 18.0048 909.135 19.9943 909.053 22.0656C908.995 24.4296 911.113 22.9433 912.377 22.4401Z" fill="#DBDBDB"/>
<path d="M911.908 22.8497C914.015 21.8784 918.076 23.271 918.415 22.4635C919.117 20.8368 915.876 19.7251 914.12 19.5027C915.735 19.0697 918.801 18.3325 918.731 16.8229C918.614 14.927 913.992 16.5537 911.651 18.3442C908.714 20.6028 908.725 22.7912 909.217 23.2242C909.884 23.821 911.557 23.0018 911.908 22.8497Z" fill="#EBEBEB"/>
<path d="M888.714 20.4156C898.661 29.4383 900.826 43.9027 899.246 56.6936C899.246 56.9861 898.755 56.9276 898.743 56.6936C898.638 53.803 898.614 50.9242 898.497 48.0688L898.334 47.6826C895.685 46.0869 893.46 43.8748 891.85 41.2345C890.118 38.145 889.358 34.6108 888.012 31.3692C887.883 31.0533 888.223 31.1352 888.445 31.2873C894.448 35.3715 896.485 39.9355 898.392 46.0559C898.233 42.8211 897.77 39.6084 897.011 36.4598C895.664 30.5144 892.69 25.0607 888.421 20.7082C888.383 20.6694 888.361 20.6168 888.361 20.5619C888.361 20.507 888.383 20.4544 888.421 20.4156C888.46 20.3768 888.513 20.355 888.568 20.355C888.623 20.355 888.675 20.3768 888.714 20.4156V20.4156Z" fill="#A6A6A6"/>
<path d="M886.959 21.5741C885.309 21.6911 884.372 24.371 883.12 25.1902C882.989 25.3056 882.835 25.392 882.668 25.4437C882.501 25.4955 882.325 25.5114 882.152 25.4904C881.978 25.4694 881.811 25.412 881.662 25.3219C881.512 25.2319 881.383 25.1112 881.283 24.9678C879.937 23.2359 881.611 20.9773 883.202 19.69C882.144 20.3723 881.018 20.9447 879.844 21.3986C879.684 21.4619 879.512 21.4892 879.34 21.4785C879.168 21.4678 879.001 21.4194 878.85 21.3367C878.699 21.254 878.569 21.1391 878.467 21.0001C878.366 20.8611 878.296 20.7015 878.264 20.5326C877.62 18.1218 880.604 16.9282 882.699 16.7994C881.669 16.1324 878.697 14.3302 880.195 13.2887C881.693 12.2472 885.203 14.9153 886.374 15.793C888.059 17.0569 890.072 18.9644 890.224 21.0241C890.411 23.4348 888.246 22.0305 886.959 21.5741Z" fill="#DBDBDB"/>
<path d="M887.45 21.9369C885.297 21.0592 881.307 22.5922 880.932 21.8082C880.171 20.2166 883.366 18.9762 885.098 18.6953C883.472 18.3208 880.417 17.7357 880.417 16.1792C880.417 14.2834 885.098 15.7345 887.544 17.4431C890.563 19.5847 890.633 21.7614 890.165 22.2178C889.51 22.8614 887.801 22.1124 887.45 21.9369Z" fill="#EBEBEB"/>
<path d="M898.895 44.2538C899.561 49.0805 900.594 53.8494 901.985 58.5192C902.003 58.6108 902.057 58.6912 902.135 58.7427C902.213 58.7943 902.309 58.8128 902.4 58.7942C902.492 58.7756 902.572 58.7214 902.624 58.6435C902.675 58.5655 902.694 58.4703 902.675 58.3788C902.02 53.9786 900.826 49.6604 900.182 45.2719C899.464 40.8204 899.205 36.3067 899.41 31.8023C899.831 24.3945 901.844 16.507 906.677 10.7376C906.783 10.5972 906.56 10.41 906.455 10.527C896.765 21.82 898.263 35.6641 898.263 36.9046C896.894 32.2235 895.478 26.8755 890.294 22.1125C890.071 21.9019 889.896 22.0072 889.931 22.3583C890.855 31.0182 893.266 35.5471 898.298 40.1813C898.497 41.5271 898.673 42.8963 898.895 44.2538Z" fill="#A6A6A6"/>
<path d="M906.771 12.0132C908.515 11.2408 910.914 13.4526 912.622 13.6047C912.814 13.6507 913.014 13.6564 913.208 13.6215C913.402 13.5866 913.587 13.5117 913.751 13.4018C913.915 13.2918 914.054 13.1491 914.16 12.9826C914.266 12.8161 914.336 12.6295 914.366 12.4345C914.799 9.95351 911.873 8.5492 909.556 8.1045C911.019 8.01088 912.458 8.40877 913.898 8.02258C914.096 7.99952 914.287 7.93374 914.457 7.8298C914.628 7.72585 914.774 7.5862 914.885 7.42047C914.996 7.25474 915.07 7.06686 915.102 6.86979C915.133 6.67271 915.122 6.47112 915.068 6.2789C914.425 3.48198 910.726 3.93839 908.526 4.88629C909.229 3.71604 911.277 0.205265 909.205 0.00632116C907.134 -0.192622 904.945 4.35968 904.255 5.8576C903.225 8.05769 902.195 11.0887 903.167 13.277C904.255 15.7814 905.706 13.1717 906.771 12.0132Z" fill="#DBDBDB"/>
<path d="M906.478 12.6686C908.187 10.6206 913.09 10.0121 913.043 9.00567C912.95 6.96943 909.029 7.43753 907.098 8.09287C908.549 6.82899 911.405 4.5821 910.527 2.99055C909.451 1.08304 905.483 5.09701 903.95 8.13968C902.031 11.9664 903.155 14.2133 903.88 14.424C904.875 14.7048 906.197 13.0197 906.478 12.6686Z" fill="#EBEBEB"/>
<path d="M892.517 46.8516L888.246 79.4784H914.237C913.699 76.5879 908.866 46.8165 908.866 46.8165L892.517 46.8516Z" fill="#DBDBDB"/>
<defs>
<linearGradient id="paint0_linear" x1="489.043" y1="65.2148" x2="585.34" y2="486.235" gradientUnits="userSpaceOnUse">
<stop stop-color="#FF62A5"/>
<stop offset="0.905865" stop-color="#FF8EBF"/>
</linearGradient>
<linearGradient id="paint1_linear" x1="324.598" y1="94.9103" x2="401.345" y2="525.342" gradientUnits="userSpaceOnUse">
<stop offset="0.520833" stop-color="#5498E2"/>
<stop offset="0.905865" stop-color="#3A78BC"/>
</linearGradient>
</defs>
</svg>
