<svg width="1172" height="506" viewBox="0 0 1172 506" fill="none" xmlns="http://www.w3.org/2000/svg">
<path d="M169.427 301.94C169.427 301.94 194.73 296.498 208.593 284.373C222.456 272.249 230.115 250.544 230.115 250.544C220.5 252.296 211.021 254.662 201.742 257.626C198.266 261.014 195.371 264.898 193.162 269.137C192.949 266.397 192.949 263.646 193.162 260.906C189.927 262.234 186.899 263.977 184.163 266.087C172.674 275.636 169.427 301.94 169.427 301.94Z" fill="#DBDBDB"/>
<path d="M214.41 261.105C217.851 258.836 221.358 256.66 224.799 254.376C224.844 254.349 224.876 254.307 224.888 254.258C224.9 254.209 224.892 254.158 224.864 254.115C224.836 254.073 224.791 254.042 224.74 254.031C224.688 254.019 224.634 254.028 224.589 254.054C218.126 257.748 211.663 261.718 205.426 265.826C203.261 267.267 201.128 268.769 198.963 270.302L199.399 269.582C200.159 268.386 201.015 267.19 201.758 266.01C203.35 263.609 205.149 261.337 207.139 259.22C207.139 259.143 207.139 259.02 207.009 259.097C205.038 261.258 203.067 263.389 201.273 265.673C200.417 266.761 199.658 267.895 198.866 269.045C198.478 269.643 198.09 270.241 197.735 270.854L197.347 271.467C194.116 273.904 190.884 276.449 187.863 279.131C185.988 280.786 184.179 282.519 182.417 284.281C183.403 281.384 184.259 278.441 185.39 275.59C185.39 275.57 185.382 275.55 185.367 275.536C185.352 275.522 185.331 275.514 185.31 275.514C185.288 275.514 185.268 275.522 185.252 275.536C185.237 275.55 185.229 275.57 185.229 275.59C184.13 278.656 182.918 281.599 181.997 284.68C180.058 286.672 178.216 288.726 176.471 290.811C176.49 290.677 176.517 290.544 176.552 290.413C176.843 289.294 177.134 288.159 177.457 287.04C178.071 284.864 178.75 282.702 179.525 280.587C180.978 276.164 183.279 272.033 186.311 268.401C186.311 268.325 186.311 268.217 186.198 268.294C181.453 273.898 178.135 280.465 176.504 287.485C176.234 288.507 175.976 289.529 175.728 290.551C175.599 291.087 175.453 291.639 175.356 292.206C174.581 293.187 173.838 294.168 173.127 295.195C168.809 301.451 165.217 308.132 162.414 315.122C159.266 322.968 156.569 330.971 154.335 339.095C154.335 339.128 154.349 339.159 154.373 339.182C154.397 339.205 154.43 339.218 154.464 339.218C154.499 339.218 154.532 339.205 154.556 339.182C154.58 339.159 154.594 339.128 154.594 339.095C159.554 325.054 164.595 310.799 173.062 298.261C174.856 295.609 176.794 293.049 178.846 290.597C183.035 290.341 187.169 289.563 191.143 288.282C195.486 286.895 199.628 284.994 203.471 282.626C205.662 281.228 207.771 279.719 209.789 278.104C209.886 278.027 209.789 277.905 209.692 277.981C206.155 280.68 202.253 282.918 198.09 284.634C193.999 286.414 189.72 287.775 185.326 288.696C183.468 289.079 181.561 289.37 179.671 289.615C182.013 286.878 184.504 284.258 187.135 281.767C187.992 280.955 188.864 280.235 189.753 279.407C192.701 277.452 195.826 275.749 199.092 274.318C203.245 272.417 207.316 270.409 211.42 268.432C213.747 267.313 216.042 266.163 218.368 265.09C218.465 265.09 218.368 264.906 218.288 264.952C214.119 266.853 209.902 268.631 205.701 270.455C201.758 272.172 197.767 273.904 193.97 275.912L193.485 276.188C196.911 273.352 200.466 270.67 204.101 268.064C207.505 265.703 210.941 263.384 214.41 261.105Z" fill="#A6A6A6"/>
<path d="M212.971 273.475C210.903 274.333 208.819 275.084 206.783 275.989C204.747 276.893 202.695 278.012 200.708 279.054C200.688 279.064 200.674 279.081 200.668 279.102C200.662 279.122 200.665 279.143 200.675 279.162C200.686 279.18 200.704 279.193 200.725 279.199C200.746 279.205 200.769 279.202 200.788 279.192C202.808 278.273 204.844 277.414 206.848 276.464C208.851 275.513 210.919 274.44 213.02 273.567C213.117 273.582 213.068 273.429 212.971 273.475Z" fill="#A6A6A6"/>
<path d="M87.2484 181C91.9223 186.719 94.5693 193.694 94.8103 200.927C94.8911 203.073 94.5356 206.077 94.2771 209.602C100.596 213.069 106.193 217.604 110.79 222.984C105.736 220.202 99.9334 218.886 94.0993 219.198C94.2404 221.608 94.5644 224.006 95.0688 226.372C98.7493 226.366 102.395 227.049 105.798 228.38C102.467 228.34 99.1651 228.961 96.1029 230.204C100.611 243.815 114.022 257.794 151.039 263.726C154.953 247.04 152.634 229.583 144.479 214.339C133.395 193.646 87.2484 181 87.2484 181Z" fill="#DBDBDB"/>
<path d="M163.868 321.974C163.238 316.164 162.43 310.355 161.477 304.592C159.603 293.019 157.112 281.544 154.012 270.21C152.561 264.897 150.775 259.671 148.664 254.56C148.777 253.624 148.825 252.682 148.809 251.74C148.809 250.621 148.809 249.502 148.809 248.368C148.809 246.13 148.664 243.877 148.47 241.639C148.092 237.198 147.33 232.794 146.192 228.472C145.513 225.973 144.738 223.505 143.962 221.038C143.962 221.017 143.953 220.998 143.938 220.983C143.923 220.969 143.903 220.961 143.881 220.961C143.86 220.961 143.839 220.969 143.824 220.983C143.809 220.998 143.8 221.017 143.8 221.038C145.025 225.352 145.937 229.741 146.531 234.174C147.188 238.544 147.603 242.944 147.775 247.356C147.775 248.552 147.775 249.763 147.775 250.974C147.775 251.479 147.775 252.001 147.775 252.506C145.963 248.302 143.88 244.206 141.538 240.244C137.783 233.966 133.55 227.956 128.871 222.264C128.862 221.601 128.765 220.941 128.58 220.302C128.402 219.52 128.224 218.769 128.03 217.957C127.664 216.352 127.244 214.758 126.77 213.174C125.849 209.986 124.637 206.92 123.539 203.778C123.539 203.758 123.53 203.738 123.515 203.724C123.5 203.709 123.479 203.701 123.458 203.701C123.436 203.701 123.416 203.709 123.401 203.724C123.386 203.738 123.377 203.758 123.377 203.778C124.346 206.844 124.993 210.109 125.752 213.266C126.124 214.799 126.479 216.332 126.851 217.972L127.384 220.317C127.376 220.378 127.376 220.44 127.384 220.501C125.881 218.708 124.363 216.945 122.795 215.213C115.734 207.349 107.979 200.084 100.174 192.895C99.2212 192.006 98.2356 191.148 97.2661 190.274L97.153 190.381C104.602 197.769 111.937 205.219 118.885 213.036C120.501 214.891 122.117 216.761 123.732 218.677C122.892 218.125 122.117 217.604 121.212 217.144C119.063 215.811 116.882 214.508 114.636 213.312C112.39 212.117 110.128 210.952 107.817 209.863C105.507 208.775 102.97 207.84 100.611 206.583C100.514 206.583 100.433 206.69 100.53 206.721C102.871 207.746 105.129 208.935 107.284 210.277C109.53 211.534 111.792 212.822 113.989 214.155C116.187 215.489 118.352 216.746 120.452 218.079C122.262 219.183 124.023 220.394 125.898 221.421C130.274 226.667 134.321 232.154 138.016 237.853C140.254 241.43 142.298 245.114 144.14 248.889L142.815 248.337L139.422 246.912C137.24 245.992 135.059 245.103 132.878 244.199C128.725 242.482 124.508 240.918 120.436 239.033C118.139 238.013 115.916 236.85 113.779 235.553C113.682 235.553 113.602 235.63 113.699 235.691C121.277 240.658 129.856 244.153 138.194 247.678L141.829 249.211C142.831 249.625 143.833 250.1 144.867 250.468C147.352 255.742 149.442 261.177 151.12 266.731C154.44 277.911 157.137 289.249 159.199 300.698C161.315 312.164 162.753 323.691 163.852 335.309C163.998 336.75 164.143 338.191 164.305 339.647C164.305 339.769 164.356 339.886 164.447 339.972C164.537 340.059 164.661 340.107 164.789 340.107C164.918 340.107 165.041 340.059 165.132 339.972C165.223 339.886 165.274 339.769 165.274 339.647C165.145 333.654 164.498 327.829 163.868 321.974Z" fill="#A6A6A6"/>
<path d="M141.344 225.007C140.666 221.436 139.729 217.957 138.646 214.462C138.646 214.441 138.637 214.422 138.622 214.408C138.607 214.393 138.587 214.385 138.565 214.385C138.544 214.385 138.523 214.393 138.508 214.408C138.493 214.422 138.484 214.441 138.484 214.462C139.422 217.895 140.1 221.39 140.763 224.87C141.425 228.349 142.071 231.982 142.605 235.599H142.701C142.459 232.047 142.006 228.511 141.344 225.007V225.007Z" fill="#A6A6A6"/>
<path d="M125.397 234.695C122.812 233.089 120.112 231.655 117.318 230.403C115.977 229.729 114.604 229.1 113.246 228.472C111.889 227.843 110.37 227.291 108.981 226.617C108.868 226.617 108.787 226.724 108.884 226.77C110.241 227.414 111.534 228.196 112.859 228.885L117.011 230.955C119.726 232.334 122.375 233.852 125.219 234.971C125.252 234.968 125.285 234.959 125.313 234.942C125.341 234.926 125.365 234.903 125.383 234.876C125.4 234.849 125.41 234.819 125.413 234.787C125.415 234.756 125.41 234.724 125.397 234.695V234.695Z" fill="#A6A6A6"/>
<path opacity="0.1" d="M169.895 260.369C169.895 260.369 193.292 255.066 204.036 240.167C214.313 225.942 217.625 201.693 217.884 199.562C217.464 201.524 212.632 222.708 196.701 232.579C184.502 240.151 172.707 246.359 169.895 260.369Z" fill="#A6A6A6"/>
<path d="M191.498 222.003C187.336 225.634 184.344 230.312 182.87 235.491C182.87 235.491 182.87 235.491 182.87 235.491C184.596 230.438 187.571 225.85 191.547 222.11C191.692 222.049 191.579 221.926 191.498 222.003Z" fill="#A6A6A6"/>
<path d="M169.895 260.37C169.895 260.37 193.291 255.066 204.036 240.167C214.313 225.942 217.625 201.693 217.883 199.562C217.89 199.512 217.89 199.46 217.883 199.409C217.883 199.409 206.654 214.553 194.859 218.416C183.064 222.279 166.502 235.63 169.895 260.37Z" fill="#DBDBDB"/>
<path d="M213.763 207.763C211.666 211.844 209.246 215.769 206.524 219.504C203.773 223.052 200.51 226.215 196.83 228.9C193.598 231.292 190.367 233.499 187.135 235.814L187.216 235.706C187.814 234.848 188.46 234.02 189.122 233.223C190.463 231.598 191.934 230.065 193.404 228.548C196.313 225.482 199.286 222.616 201.887 219.351C203.342 217.565 204.604 215.645 205.652 213.618C205.652 213.526 205.539 213.48 205.49 213.618C201.693 221.114 194.099 225.881 188.702 232.257C187.929 233.155 187.206 234.092 186.537 235.062C186.001 235.765 185.546 236.521 185.18 237.316C182.219 239.572 179.541 242.144 177.198 244.98C177.403 243.525 177.716 242.086 178.135 240.673C178.677 238.694 179.515 236.8 180.623 235.047C180.623 234.955 180.526 234.863 180.478 234.955C179.335 236.71 178.418 238.588 177.747 240.55C177.255 242.104 176.967 243.711 176.891 245.332V245.332C175.738 246.826 174.686 248.388 173.74 250.007L174.031 248.582C174.483 246.375 175.001 244.167 175.647 241.975C176.748 237.53 178.65 233.299 181.27 229.468C181.27 229.376 181.189 229.299 181.124 229.376C178.446 233.164 176.346 237.292 174.887 241.638C174.144 243.815 173.546 246.022 173.029 248.26C172.771 249.348 172.528 250.452 172.318 251.556C172.205 252.123 172.076 252.705 171.979 253.288C169.657 258.124 167.844 263.166 166.566 268.34C164.278 277.59 162.615 286.97 161.59 296.421C160.373 306.316 159.833 316.274 159.974 326.235C159.974 327.476 160.071 328.718 160.135 329.975C160.135 330.297 160.669 330.343 160.685 329.975C160.911 325.039 161.04 320.119 161.347 315.183C161.654 310.247 162.107 305.342 162.672 300.437C163.722 290.789 165.34 281.204 167.52 271.728C169.41 263.604 171.866 255.434 176.552 248.321C178.875 244.782 181.721 241.577 185.002 238.803C188.234 235.997 191.869 233.56 195.327 230.97C198.829 228.449 202.007 225.548 204.795 222.325C207.662 218.739 210.156 214.9 212.244 210.859C212.793 209.847 213.359 208.851 213.86 207.794C213.957 207.763 213.811 207.671 213.763 207.763Z" fill="#A6A6A6"/>
<path d="M84.0006 250.544C84.0006 250.544 83.629 282.105 103.519 291.21C123.409 300.315 134.057 292.743 147.581 295.808C147.064 295.057 137.418 281.89 122.068 278.273C106.266 274.517 88.7833 263.696 84.0006 250.544Z" fill="#DBDBDB"/>
<path opacity="0.1" d="M84.0006 250.544C84.0006 250.544 83.629 282.105 103.519 291.21C123.409 300.315 134.057 292.743 147.581 295.808C140.442 292.575 132.807 290.438 124.96 289.478C112.406 288.006 88.444 280.265 84.0006 250.544Z" fill="#A6A6A6"/>
<path d="M148.89 296.345C146.522 294.301 143.855 292.592 140.973 291.271C140.553 291.072 140.117 290.918 139.68 290.735C139.244 290.551 139.244 290.244 139.018 290.014C138.42 289.432 137.79 288.865 137.144 288.328C135.895 287.308 134.554 286.395 133.136 285.6C129.905 283.76 126.237 282.534 122.86 280.756C122.763 280.756 122.682 280.863 122.779 280.909C124.395 281.722 126.011 282.626 127.627 283.53C129.242 284.435 130.858 285.232 132.345 286.167C133.733 287.005 135.051 287.943 136.287 288.972C136.643 289.263 136.966 289.57 137.305 289.892C135.106 289.192 132.86 288.628 130.583 288.205C126.948 287.5 123.264 287.01 119.629 286.274C117.843 285.916 116.079 285.466 114.345 284.925C112.729 283.668 111.113 282.411 109.498 281.047C107.605 279.4 105.879 277.589 104.343 275.636C104.337 275.627 104.329 275.619 104.319 275.613C104.31 275.607 104.299 275.603 104.288 275.601C104.277 275.599 104.265 275.599 104.254 275.601C104.242 275.603 104.232 275.607 104.222 275.613C104.213 275.619 104.204 275.627 104.198 275.636C104.192 275.645 104.187 275.655 104.185 275.666C104.183 275.677 104.183 275.688 104.185 275.698C104.187 275.709 104.192 275.719 104.198 275.728C106.585 278.817 109.291 281.673 112.277 284.251C111.42 283.944 110.564 283.622 109.74 283.254C102.91 280.35 97.0481 275.728 92.7906 269.888C92.7906 269.796 92.5805 269.888 92.6452 269.965C96.2569 274.98 100.922 279.233 106.347 282.457C109.068 284.064 111.973 285.371 115.007 286.351C118.538 287.383 122.139 288.187 125.785 288.757C129.351 289.311 132.872 290.105 136.32 291.133C139.49 292.159 142.472 293.648 145.158 295.548C150.227 299.281 154.309 304.083 157.082 309.573C160.631 316.827 162.85 324.603 163.642 332.565C163.642 332.902 164.24 332.902 164.208 332.565C163.4 319.368 159.667 305.557 148.89 296.345Z" fill="#A6A6A6"/>
<path d="M125.801 286.136C124.764 284.664 123.36 283.458 121.713 282.626C119.837 281.684 118.187 280.385 116.865 278.809C116.865 278.718 116.655 278.809 116.72 278.886C117.916 280.332 119.371 281.567 121.018 282.534C122.823 283.451 124.417 284.702 125.704 286.213C125.736 286.213 125.849 286.136 125.801 286.136Z" fill="#A6A6A6"/>
<path d="M136.352 319.643L137.257 336.995L140.036 390H181.755L184.534 336.995L185.439 319.643H136.352Z" fill="#EBEBEB"/>
<path d="M136.352 319.643L137.257 336.995H184.534L185.439 319.643H136.352Z" fill="#DBDBDB"/>
<path d="M133.427 312.394H188.363V328.948H133.427V312.394Z" fill="#EBEBEB"/>
<path d="M90.5 272.5C233 279.5 424.483 499.123 633 228.5C807.539 1.9758 1050.72 255.567 1125.34 344.23C1138.24 359.561 1134.74 382.08 1118.49 393.812L986.36 489.24C980.273 493.636 972.963 496.019 965.454 496.055L59.738 500.379C44.5887 500.452 31.0554 491.104 26.7779 476.571C9.22664 416.94 -23.7897 266.886 90.5 272.5Z" fill="url(#paint0_linear)"/>
<path d="M62.2239 283C201.59 268.444 375.941 480.879 643.5 228.5C874.378 10.7204 1099.96 314.731 1157.47 402.18C1166.16 415.397 1164.16 432.423 1153.41 444.028L1106.69 494.465C1099.87 501.82 1090.3 506 1080.28 506H81.4596C69.44 506 58.2643 500.097 52.1146 489.769C22.7555 440.466 -53.3437 295.071 62.2239 283Z" fill="url(#paint1_linear)"/>
<path d="M730.365 99.9826C737.439 58.1838 707.454 18.8597 663.393 12.1496C619.333 5.43959 577.88 33.8846 570.807 75.6834C563.734 117.482 593.718 156.806 637.779 163.516C681.84 170.226 723.292 141.781 730.365 99.9826Z" fill="#EBEBEB"/>
<path d="M654.287 162.664C696.864 162.664 731.38 129.92 731.38 89.5293C731.38 49.1381 696.864 16.3945 654.287 16.3945C611.71 16.3945 577.195 49.1381 577.195 89.5293C577.195 129.92 611.71 162.664 654.287 162.664Z" fill="#DBDBDB"/>
<path d="M654.287 158.049C694.178 158.049 726.516 127.372 726.516 89.5293C726.516 51.6867 694.178 21.0093 654.287 21.0093C614.397 21.0093 582.059 51.6867 582.059 89.5293C582.059 127.372 614.397 158.049 654.287 158.049Z" fill="white"/>
<path opacity="0.5" d="M724.882 74.9951C691.987 93.8953 637.929 124.909 607.717 141.909C599.175 135.077 592.421 126.459 587.985 116.731L687.91 28.8816C697.244 33.5458 705.39 40.0901 711.776 48.056C718.163 56.0218 722.636 65.2163 724.882 74.9951V74.9951Z" fill="#EBEBEB"/>
<path opacity="0.5" d="M726.456 91.927C726.193 99.548 724.581 107.073 721.687 114.186L631.598 154.611C627.674 153.376 623.869 151.825 620.224 149.973C647.444 135.032 697.162 107.886 726.456 91.927Z" fill="#EBEBEB"/>
<path d="M654.979 25.986H653.584V36.3691H654.979V25.986Z" fill="#C7C7C7"/>
<path d="M621.393 34.1591L620.185 34.8208L625.658 43.8129L626.866 43.1512L621.393 34.1591Z" fill="#C7C7C7"/>
<path d="M596.617 57.1849L595.92 58.3309L605.399 63.5225L606.096 62.3765L596.617 57.1849Z" fill="#C7C7C7"/>
<path d="M598.251 88.8733H587.305V90.1966H598.251V88.8733Z" fill="#C7C7C7"/>
<path d="M695.77 115.562L705.248 120.754L704.551 121.9L695.072 116.708L695.77 115.562Z" fill="#C7C7C7"/>
<path d="M675.517 135.252L680.984 144.246L679.776 144.907L674.308 135.913L675.517 135.252Z" fill="#C7C7C7"/>
<path d="M646.194 142.689H647.589V153.073H646.194V142.689Z" fill="#C7C7C7"/>
<path d="M618.272 135.246L619.48 135.907L614.008 144.9L612.8 144.238L618.272 135.246Z" fill="#C7C7C7"/>
<path d="M598.016 115.533L598.713 116.679L589.235 121.871L588.537 120.725L598.016 115.533Z" fill="#C7C7C7"/>
<path d="M721.27 88.8733H710.325V90.1966H721.27V88.8733Z" fill="#C7C7C7"/>
<path d="M711.942 57.2027L702.464 62.3943L703.161 63.5403L712.64 58.3487L711.942 57.2027Z" fill="#C7C7C7"/>
<path d="M687.166 34.1666L681.698 43.1614L682.907 43.8224L688.374 34.8276L687.166 34.1666Z" fill="#C7C7C7"/>
<path d="M655.337 30.6911L657.709 94.1552L650.865 94.076L653.477 30.6685L655.337 30.6911Z" fill="#C7C7C7"/>
<path d="M697.007 67.4055L651.998 94.6528L648.731 88.941L696.124 65.8446L697.007 67.4055Z" fill="#A6A6A6"/>
<path d="M656.624 89.5291C656.624 89.9765 656.484 90.4139 656.222 90.7859C655.96 91.1579 655.588 91.4478 655.152 91.619C654.717 91.7902 654.237 91.835 653.775 91.7478C653.312 91.6605 652.887 91.445 652.554 91.1287C652.22 90.8123 651.993 90.4092 651.901 89.9704C651.809 89.5316 651.856 89.0768 652.037 88.6634C652.217 88.2501 652.523 87.8968 652.915 87.6482C653.307 87.3996 653.768 87.267 654.24 87.267C654.872 87.267 655.479 87.5053 655.926 87.9295C656.373 88.3538 656.624 88.9291 656.624 89.5291Z" fill="#C7C7C7"/>
<defs>
<linearGradient id="paint0_linear" x1="424.314" y1="51.3598" x2="534.51" y2="500.547" gradientUnits="userSpaceOnUse">
<stop stop-color="#FF62A5"/>
<stop offset="0.905865" stop-color="#FF8EBF"/>
</linearGradient>
<linearGradient id="paint1_linear" x1="386.822" y1="91.3354" x2="463.569" y2="521.767" gradientUnits="userSpaceOnUse">
<stop offset="0.520833" stop-color="#5498E2"/>
<stop offset="0.905865" stop-color="#3A78BC"/>
</linearGradient>
</defs>
</svg>
