<svg width="79" height="112" viewBox="0 0 79 112" fill="none" xmlns="http://www.w3.org/2000/svg">
<path d="M44.9678 80.4401C44.9678 80.4401 54.1598 54.7441 60.6318 46.2641C67.1038 37.7841 78.6798 28.7761 78.6798 28.7761C78.6798 28.7761 75.5518 69.1841 44.9678 80.4401Z" fill="#FF006D"/>
<path d="M45.5198 80.0241C48.2777 76.0982 50.8072 72.0168 53.0958 67.8001C54.2704 63.1773 55.8141 58.6561 57.7118 54.2802C57.7518 54.1922 57.8638 54.2802 57.8398 54.3362C56.5758 58.4082 55.1518 62.4321 53.8398 66.4881C57.2478 60.3201 60.5118 54.0562 64.4558 48.2802C65.4813 45.4223 66.823 42.688 68.4558 40.1282C68.4558 40.0562 68.6238 40.1282 68.5838 40.1842C67.5477 42.1692 66.634 44.2157 65.8478 46.3122C67.6977 43.7414 69.7382 41.3133 71.9518 39.0482C72.0878 38.9042 72.3358 39.0962 72.1998 39.2482C67.0718 44.8962 63.3358 51.4802 59.7518 58.1682C63.33 54.8053 66.6688 51.1965 69.7438 47.3682C69.7438 47.3682 69.8318 47.3682 69.8078 47.4162C66.5791 51.716 62.9873 55.7307 59.0718 59.4162C56.4638 64.3121 53.8878 69.2321 50.8638 73.8161C56.5438 69.6721 61.0798 64.1122 65.5678 58.7522C65.588 58.7267 65.6174 58.7103 65.6497 58.7065C65.6819 58.7028 65.7144 58.712 65.7398 58.7322C65.7653 58.7523 65.7817 58.7818 65.7854 58.814C65.7892 58.8463 65.78 58.8787 65.7598 58.9042C61.2318 64.8082 56.5918 70.3441 50.3918 74.5201C49.048 76.5462 47.5924 78.4959 46.0318 80.3601C45.9791 80.4041 45.9137 80.43 45.8452 80.4339C45.7766 80.4378 45.7086 80.4196 45.6513 80.3819C45.5939 80.3443 45.5501 80.2892 45.5265 80.2247C45.5028 80.1603 45.5005 80.09 45.5198 80.0241V80.0241Z" fill="#263238"/>
<path d="M43.5522 80.4882C43.5522 80.4882 57.2082 56.4882 53.8642 32.9522C50.5202 9.41615 46.6002 0.952148 46.6002 0.952148C46.6002 0.952148 25.1522 37.0481 43.5522 80.4882Z" fill="#FF006D"/>
<path d="M38.9279 42.28C39.9066 48.9622 41.4726 55.545 43.6079 61.952C43.8159 53.328 44.1599 44.712 44.5679 36.096C43.194 30.8335 42.4686 25.4227 42.4079 19.9841C42.4079 19.8241 42.6479 19.8401 42.6559 19.9841C42.9752 24.6503 43.6518 29.2852 44.6799 33.848C45.0266 26.744 45.4025 19.6374 45.8079 12.5281C45.8138 12.5082 45.8259 12.4908 45.8425 12.4785C45.8591 12.4661 45.8792 12.4595 45.8999 12.4595C45.9206 12.4595 45.9407 12.4661 45.9573 12.4785C45.9738 12.4908 45.986 12.5082 45.9919 12.5281C45.7599 23.64 45.5359 34.752 45.2399 45.864C46.9269 41.5979 48.2855 37.2092 49.3039 32.7361C49.3039 32.6961 49.3839 32.7361 49.3759 32.7361C48.7373 37.9137 47.3129 42.9638 45.1519 47.712C44.9599 54.808 44.7359 61.912 44.4319 69.008C46.8319 61.504 49.3439 54.24 50.1519 46.272C50.1519 46.2508 50.1603 46.2305 50.1753 46.2155C50.1903 46.2005 50.2107 46.192 50.2319 46.192C50.2531 46.192 50.2735 46.2005 50.2885 46.2155C50.3035 46.2305 50.3119 46.2508 50.3119 46.272C49.9599 55.072 47.5119 63.952 44.4399 72.168C44.4103 72.2505 44.3575 72.3227 44.2879 72.376C44.1705 74.968 44.0426 77.56 43.9039 80.152C43.8924 80.2212 43.8567 80.284 43.8033 80.3293C43.7498 80.3746 43.682 80.3995 43.6119 80.3995C43.5418 80.3995 43.474 80.3746 43.4205 80.3293C43.367 80.284 43.3314 80.2212 43.3199 80.152C43.3199 74.8187 43.3865 69.5067 43.5199 64.216C40.7959 57.2042 39.1949 49.8067 38.7759 42.296C38.8079 42.2 38.9199 42.2 38.9279 42.28Z" fill="#263238"/>
<path d="M39.9041 38.5521C40.3215 40.6639 40.5888 42.8026 40.7041 44.9521C40.7041 44.9691 40.6973 44.9854 40.6853 44.9974C40.6733 45.0094 40.657 45.0161 40.6401 45.0161C40.6231 45.0161 40.6068 45.0094 40.5948 44.9974C40.5828 44.9854 40.5761 44.9691 40.5761 44.9521C40.1073 42.8441 39.7891 40.7053 39.6241 38.5521C39.6001 38.4161 39.8721 38.3921 39.9041 38.5521Z" fill="#263238"/>
<path d="M47.9602 20.9922C47.9602 20.9202 48.0882 20.9442 48.0882 20.9922C48.0383 22.4862 47.7854 23.9665 47.3362 25.3922C47.3362 25.5122 47.1362 25.4562 47.1602 25.3362C47.4722 23.9122 47.6802 22.4482 47.9602 20.9922Z" fill="#263238"/>
<path d="M39.728 79.4321C39.728 79.4321 34.704 52.8801 24.344 41.3441C13.984 29.8081 0 25.7681 0 25.7681C0 25.7681 14.912 71.2881 39.728 79.4321Z" fill="#FF006D"/>
<path d="M21.1518 59.7442C25.1721 63.7204 29.5238 67.3469 34.1598 70.5842C31.4932 65.4962 28.6212 60.5522 25.5438 55.7522C20.5038 52.9202 15.4718 49.9522 11.7838 45.4002C11.7278 45.3282 11.8318 45.2322 11.8958 45.3042C15.6558 49.2242 20.1678 52.0482 24.8478 54.6962C20.1428 47.4665 14.997 40.5334 9.43984 33.9362C9.40908 33.9033 9.39264 33.8595 9.39414 33.8145C9.39564 33.7695 9.41496 33.727 9.44784 33.6962C9.48073 33.6654 9.52449 33.649 9.5695 33.6505C9.61451 33.652 9.65707 33.6713 9.68784 33.7042C12.9376 37.0876 15.9982 40.6477 18.8558 44.3682C17.5518 41.6962 16.3678 38.9282 15.0478 36.2802C15.0394 36.2653 15.0371 36.2477 15.0416 36.2312C15.0461 36.2147 15.057 36.2007 15.0718 36.1922C15.0867 36.1837 15.1043 36.1815 15.1208 36.186C15.1373 36.1905 15.1514 36.2013 15.1598 36.2162C17.4109 39.4976 19.2538 43.0411 20.6478 46.7682C24.5376 52.0723 28.0451 57.6464 31.1438 63.4482C30.1118 59.5282 29.0238 55.6322 27.7838 51.7682C27.7838 51.6962 27.8798 51.6562 27.9118 51.7682C29.6836 55.9729 31.0108 60.3514 31.8718 64.8322C33.8025 68.5655 35.5598 72.3522 37.1438 76.1922C37.1438 76.2962 37.0398 76.3762 36.9918 76.2722C36.1918 74.6722 35.3918 73.0722 34.5918 71.5362C34.5918 71.5362 34.5278 71.5362 34.4958 71.5362C29.5678 68.3362 24.7278 64.4882 21.0878 59.8322L21.1518 59.7442Z" fill="#263238"/>
<path d="M7.80807 40.0962C8.84007 40.8242 9.81606 41.6242 10.8321 42.3922C11.7924 43.0153 12.7019 43.7135 13.5521 44.4802C13.5521 44.4802 13.5521 44.5682 13.5521 44.5522C12.4508 44.0421 11.4251 43.3825 10.5041 42.5922C9.5165 41.8734 8.59305 41.0704 7.74407 40.1922C7.74175 40.1817 7.74157 40.1708 7.74356 40.1602C7.74554 40.1496 7.74965 40.1395 7.75562 40.1306C7.7616 40.1216 7.76933 40.1139 7.77834 40.108C7.78735 40.1021 7.79747 40.0981 7.80807 40.0962V40.0962Z" fill="#263238"/>
<path d="M56.4562 111.184H29.8882L32.2082 84.0483L32.7282 77.9363H53.6162L54.1362 84.0483L56.4562 111.184Z" fill="#455A64"/>
<path d="M54.136 84.0482H32.208L32.728 77.9363H53.616L54.136 84.0482Z" fill="#263238"/>
<path d="M55.2642 76.2803H30.9282V81.3683H55.2642V76.2803Z" fill="#455A64"/>
</svg>
