<svg width="495" height="495" viewBox="0 0 495 495" fill="none" xmlns="http://www.w3.org/2000/svg">
<path d="M247.5 439.708C117.628 439.708 12.3453 428.06 12.3453 413.691C12.3453 399.322 117.628 387.674 247.5 387.674C377.372 387.674 482.655 399.322 482.655 413.691C482.655 428.06 377.372 439.708 247.5 439.708Z" fill="#3A78BC" fill-opacity="0.65"/>
<path d="M83.7441 161.875H412.919V382.071H83.7441V161.875Z" fill="#DBDBDB"/>
<path d="M86.1399 164.558H410.523V379.378H86.1399V164.558Z" fill="#37474F"/>
<path d="M40.8771 398.574H455.796V413.681H40.8771V398.574Z" fill="#C7C7C7"/>
<path d="M455.796 398.574L412.919 382.071H83.7441L40.8771 398.574H455.796Z" fill="#DBDBDB"/>
<path d="M409.088 392.723L381.427 382.071H115.236L87.5755 392.723H409.088Z" fill="#37474F"/>
<path d="M104.475 180.883H392.198V363.063H104.475V180.883Z" fill="white"/>
<path d="M104.465 180.883H392.436V187.892H104.465V180.883Z" fill="#A6A6A6"/>
<path d="M386.862 184.387C386.862 184.732 386.965 185.069 387.156 185.355C387.347 185.642 387.62 185.865 387.938 185.997C388.256 186.129 388.607 186.164 388.945 186.096C389.283 186.029 389.593 185.863 389.837 185.62C390.08 185.376 390.246 185.065 390.314 184.727C390.381 184.389 390.346 184.039 390.214 183.721C390.083 183.402 389.859 183.13 389.573 182.939C389.286 182.747 388.949 182.645 388.605 182.645C388.376 182.644 388.148 182.688 387.936 182.775C387.724 182.862 387.532 182.99 387.37 183.152C387.208 183.315 387.079 183.507 386.992 183.719C386.905 183.931 386.861 184.158 386.862 184.387V184.387Z" fill="#C7C7C7"/>
<path d="M381.506 186.13C380.544 186.13 379.764 185.35 379.764 184.387C379.764 183.425 380.544 182.645 381.506 182.645C382.469 182.645 383.249 183.425 383.249 184.387C383.249 185.35 382.469 186.13 381.506 186.13Z" fill="white"/>
<path d="M372.666 184.387C372.666 184.732 372.768 185.069 372.959 185.355C373.151 185.642 373.423 185.865 373.741 185.997C374.06 186.129 374.41 186.164 374.748 186.096C375.086 186.029 375.397 185.863 375.64 185.62C375.884 185.376 376.05 185.065 376.117 184.727C376.184 184.389 376.15 184.039 376.018 183.721C375.886 183.402 375.663 183.13 375.376 182.939C375.09 182.747 374.753 182.645 374.408 182.645C374.179 182.644 373.952 182.688 373.74 182.775C373.528 182.862 373.335 182.99 373.173 183.152C373.011 183.315 372.883 183.507 372.796 183.719C372.709 183.931 372.664 184.158 372.666 184.387V184.387Z" fill="#FF006D"/>
<path d="M328.076 165.686C338.56 179.546 339.223 200.069 339.223 200.069C339.223 200.069 348.074 221.849 343.253 232.313C341.949 235.293 339.941 237.913 337.404 239.947C334.866 241.982 331.872 243.371 328.68 243.995L330.66 238.115C330.66 238.115 325.631 245.322 312.068 246.599C298.505 247.876 281.734 241.362 273.359 235.511C268.384 232.077 264.386 227.41 261.756 221.968L263.894 231.234C263.894 231.234 251.222 228.977 245.589 214.404C239.956 199.832 264.399 183.407 266.874 179.477C269.349 175.547 275.992 145.322 307.385 155.163C307.405 155.123 320.859 156.133 328.076 165.686Z" fill="#263238"/>
<path d="M333.422 243.867C337.303 242.669 340.837 239.402 343.183 236.174C345.707 232.785 347.021 228.647 346.916 224.423C346.728 219.354 344.738 214.622 342.807 210.009C340.827 205.237 338.461 200.594 336.551 195.802C336.452 195.535 336.847 195.386 336.996 195.604C339.379 199.361 341.544 203.251 343.48 207.257C345.52 210.955 347.122 214.879 348.252 218.948C349.308 222.699 349.267 226.674 348.133 230.403C347.07 233.43 345.278 236.15 342.916 238.323C340.134 240.936 336.848 242.401 333.551 244.203C333.529 244.212 333.505 244.216 333.481 244.215C333.458 244.214 333.435 244.209 333.413 244.2C333.391 244.19 333.372 244.176 333.356 244.159C333.339 244.142 333.327 244.121 333.318 244.099C333.31 244.077 333.306 244.054 333.306 244.03C333.307 244.006 333.312 243.983 333.322 243.961C333.332 243.94 333.345 243.92 333.363 243.904C333.38 243.888 333.4 243.875 333.422 243.867V243.867Z" fill="#263238"/>
<path d="M244.877 200.049C250.331 189.347 261.459 183.645 269.003 174.715C273.092 169.874 276.507 164.36 281.497 160.36C281.635 160.261 281.813 160.489 281.685 160.598C277.537 164.251 274.755 168.944 271.517 173.339C268.11 177.672 264.276 181.652 260.073 185.219C252.618 191.951 243.708 199.901 243.649 210.801C243.649 215.84 245.768 221.691 250.579 223.978C250.757 224.057 250.579 224.364 250.421 224.255C248.537 223.172 246.894 221.716 245.592 219.976C244.289 218.236 243.356 216.25 242.847 214.137C241.805 209.35 242.526 204.348 244.877 200.049V200.049Z" fill="#263238"/>
<path d="M243.976 203.009C244.241 198.7 245.831 194.579 248.53 191.209C251.262 187.892 255.123 185.773 258.935 183.942C263.34 181.833 267.934 179.903 271.092 176.022C271.22 175.854 271.448 176.081 271.319 176.24C266.28 182.655 258.113 184.823 252.064 189.961C245.134 195.842 243.748 205.633 246.758 213.909C248.702 218.965 251.812 223.49 255.836 227.116C255.905 227.175 255.836 227.284 255.737 227.215C248.846 221.156 243.243 212.553 243.976 203.009Z" fill="#263238"/>
<path d="M298.98 251.519C288.555 262.469 234.986 314.266 211.603 309.434C183.259 303.583 150.341 286.338 137.491 274.081C130.284 267.221 165.023 232.501 172.27 237.857C183.685 246.312 211.187 260.37 216.028 262.35C220.869 264.33 261.825 243.213 285.704 234.957C307.207 227.472 306.316 243.807 298.98 251.519Z" fill="#F7A9A0"/>
<path d="M117.899 258.509C124.186 266.894 143.758 279.002 149.579 280.111C155.4 281.219 177.121 248.629 175.171 242.837C173.22 237.046 149.856 210.474 139.531 207.811C129.205 205.148 111.375 249.826 117.899 258.509Z" fill="#F7A9A0"/>
<path d="M172.013 237.6C172.013 237.6 168.3 224.483 169.043 212.504C169.696 202.425 171.805 187.536 166.399 186.981C155.301 185.843 150.054 222.978 150.054 222.978C150.054 222.978 150.381 239.738 161.271 241.788C168.132 243.164 172.013 237.6 172.013 237.6Z" fill="#F7A9A0"/>
<path d="M154.628 215.107C155.183 220.631 148.352 218.127 148.352 218.127C148.352 218.127 157.261 224.067 155.677 230.007C154.093 235.699 145.956 232.373 145.362 232.145C145.837 232.472 153.925 238.184 151.668 243.956C149.322 249.955 141.768 245.223 141.233 244.946C141.59 245.381 146.114 251.312 143.402 255.311C138.749 262.182 126.75 247.391 120.047 246.916C120.047 246.916 118.018 258.202 117.899 258.519C117.899 258.519 106.197 244.659 107.276 235.62C107.415 234.306 107.997 233.078 108.928 232.14C109.859 231.203 111.082 230.61 112.395 230.462C112.395 230.462 108.128 226.403 109.751 221.8C110.593 219.433 115.127 218.681 115.127 218.681C115.127 218.681 111.84 215.295 113.543 211.286C114.899 208.088 119.226 207.831 119.226 207.831C119.226 207.831 117.592 203.108 120.028 200.287C124.948 194.575 153.45 203.277 154.628 215.107Z" fill="#F7A9A0"/>
<path d="M119.909 207.672C119.888 207.672 119.868 207.664 119.853 207.649C119.838 207.634 119.83 207.614 119.83 207.593C119.83 207.572 119.838 207.552 119.853 207.537C119.868 207.522 119.888 207.514 119.909 207.514C129.977 208.088 140.867 211.81 148.728 218.216C148.985 218.434 148.728 218.938 148.431 218.76C139.075 213.701 130.353 209.969 119.909 207.672Z" fill="#263238"/>
<path d="M114.998 218.572C114.89 218.572 114.929 218.364 114.998 218.364C125.374 219.018 137.511 223.542 145.688 231.997C145.966 232.284 145.926 232.828 145.579 232.521C139.778 227.314 124.413 220.592 114.998 218.572Z" fill="#263238"/>
<path d="M141.57 245.718C133.403 237.917 123.552 233.511 112.791 230.452C112.652 230.452 112.721 230.215 112.85 230.215C118.523 230.284 125.186 232.947 130.185 235.462C134.872 237.715 138.892 241.151 141.847 245.431C141.996 245.599 141.778 245.886 141.57 245.718Z" fill="#263238"/>
<path d="M148.5 218.077C148.807 218.325 148.094 218.503 148.401 218.76C149.668 219.869 156.717 227.165 154.985 230.333C153.579 232.878 149.193 232.759 147.53 232.056L143.332 230.284L146.659 233.402C148.142 234.779 149.392 236.388 150.361 238.164C150.859 238.962 151.182 239.857 151.308 240.788C151.434 241.72 151.361 242.668 151.094 243.57C150.836 244.399 150.303 245.116 149.583 245.601C148.863 246.087 147.999 246.313 147.134 246.243C145.191 246.033 143.334 245.331 141.738 244.203L137.234 241.233L140.531 245.52C141.445 246.702 142.203 247.996 142.788 249.371C143.394 250.653 143.608 252.086 143.402 253.49C143.285 254.117 142.995 254.698 142.564 255.169C142.134 255.64 141.58 255.98 140.966 256.153C139.532 256.332 138.077 256.102 136.769 255.489C133.93 254.191 131.196 252.675 128.591 250.955C127.245 250.133 125.888 249.312 124.493 248.549C123.141 247.704 121.626 247.154 120.047 246.936C121.571 247.317 123.006 247.989 124.275 248.916C125.591 249.767 126.869 250.688 128.146 251.618C130.69 253.552 133.407 255.245 136.264 256.677C137.797 257.49 139.536 257.835 141.263 257.667C142.191 257.469 143.041 257.005 143.709 256.332C144.377 255.658 144.834 254.805 145.025 253.876C145.325 252.141 145.105 250.357 144.392 248.747C143.765 247.204 142.94 245.75 141.936 244.421L140.709 245.718C142.576 247.081 144.767 247.934 147.065 248.193C148.344 248.288 149.617 247.938 150.668 247.203C151.675 246.454 152.434 245.419 152.846 244.233C153.185 243.092 153.278 241.893 153.119 240.714C152.961 239.535 152.554 238.402 151.925 237.392C150.837 235.45 149.432 233.703 147.767 232.224L146.896 233.571C149.045 234.402 153.935 235.066 156.598 231.393C159.39 226.057 150.282 219.206 148.5 218.077Z" fill="#263238"/>
<path d="M148.352 218.127C149.483 218.3 150.635 218.3 151.767 218.127C152.222 218.071 152.653 217.894 153.017 217.616C153.381 217.337 153.663 216.967 153.836 216.543C154.079 215.561 154.035 214.53 153.707 213.573C153.401 212.494 153.014 211.385 152.579 210.246C153.527 211.042 154.299 212.026 154.846 213.137C155.51 214.347 155.671 215.77 155.291 217.097C155.014 217.798 154.526 218.396 153.896 218.81C153.297 219.168 152.613 219.356 151.916 219.354C150.627 219.338 149.377 218.908 148.352 218.127V218.127Z" fill="#263238"/>
<path d="M180.576 241.471L140.333 286.952C140.333 286.952 200.069 316.196 219.533 311.702C238.996 307.207 279.18 276.913 296.753 255.271C314.325 233.63 303.683 227.611 279.2 235.709C254.717 243.807 220.107 259.618 216.592 259.469C213.078 259.321 180.576 241.471 180.576 241.471Z" fill="#FF006D"/>
<path d="M140.333 286.952C140.333 286.952 200.069 316.186 219.532 311.701C231.65 308.92 251.787 296.119 269.508 281.615C269.583 281.571 269.653 281.518 269.716 281.457C280.388 272.705 290.169 263.36 296.762 255.232C302.475 248.213 305.197 242.837 305.455 239.055C305.518 238.349 305.468 237.637 305.306 236.947C303.94 231.007 294.149 230.749 279.21 235.689C254.697 243.778 220.117 259.588 216.592 259.449C213.068 259.311 180.586 241.471 180.586 241.471L140.333 286.952Z" fill="#FF006D"/>
<path d="M249.163 282.447C248.411 282.188 247.602 282.144 246.827 282.318C246.403 282.477 246.037 282.759 245.776 283.128C245.515 283.497 245.371 283.935 245.362 284.387C245.369 284.687 245.299 284.984 245.158 285.249C245.018 285.515 244.812 285.739 244.56 285.902C244.282 286.086 243.961 286.192 243.629 286.209C243.253 286.278 242.887 286.318 242.51 286.417C243.269 286.685 244.09 286.716 244.867 286.506C245.277 286.331 245.627 286.038 245.872 285.664C246.116 285.291 246.245 284.854 246.243 284.407C246.251 284.109 246.335 283.817 246.485 283.56C246.636 283.302 246.848 283.086 247.104 282.932C247.404 282.754 247.745 282.659 248.094 282.655C248.421 282.586 248.797 282.546 249.163 282.447Z" fill="white"/>
<path d="M301.782 240.57C302.537 240.833 303.353 240.867 304.128 240.669C304.459 240.534 304.753 240.32 304.982 240.046C305.212 239.771 305.371 239.445 305.445 239.095C305.509 238.389 305.458 237.677 305.296 236.986C304.884 237.4 304.646 237.956 304.633 238.54C304.637 238.841 304.565 239.138 304.423 239.403C304.281 239.668 304.074 239.892 303.821 240.055C303.546 240.235 303.228 240.34 302.9 240.362C302.524 240.431 302.158 240.471 301.782 240.57Z" fill="white"/>
<path d="M192.575 266.775C191.818 266.525 191.007 266.484 190.229 266.657C189.805 266.813 189.439 267.095 189.179 267.464C188.919 267.834 188.777 268.274 188.773 268.726C188.776 269.026 188.703 269.322 188.561 269.587C188.419 269.851 188.213 270.076 187.961 270.24C187.683 270.421 187.362 270.523 187.031 270.537C186.665 270.616 186.288 270.656 185.922 270.755C186.677 271.021 187.495 271.052 188.268 270.844C188.682 270.668 189.034 270.375 189.28 269.999C189.527 269.624 189.657 269.184 189.654 268.736C189.659 268.439 189.74 268.148 189.889 267.892C190.038 267.635 190.25 267.421 190.506 267.27C190.804 267.088 191.146 266.992 191.496 266.993C191.832 266.914 192.199 266.874 192.575 266.775Z" fill="white"/>
<path d="M153.45 283.308C152.696 283.058 151.889 283.017 151.114 283.189C150.69 283.345 150.324 283.625 150.062 283.992C149.801 284.36 149.657 284.798 149.648 285.249C149.655 285.55 149.585 285.848 149.445 286.115C149.305 286.382 149.099 286.608 148.846 286.773C148.568 286.954 148.247 287.056 147.916 287.07C147.54 287.14 147.173 287.189 146.797 287.288C147.557 287.547 148.376 287.578 149.153 287.377C149.566 287.201 149.916 286.907 150.161 286.531C150.406 286.156 150.534 285.717 150.529 285.268C150.538 284.97 150.621 284.679 150.772 284.421C150.922 284.163 151.135 283.947 151.391 283.793C151.692 283.619 152.033 283.527 152.381 283.526C152.668 283.447 153.044 283.407 153.45 283.308Z" fill="white"/>
<path d="M229.551 294.03C228.794 293.78 227.984 293.739 227.205 293.911C226.773 294.068 226.4 294.354 226.134 294.729C225.869 295.104 225.725 295.551 225.72 296.01C225.726 296.31 225.656 296.606 225.516 296.871C225.375 297.136 225.17 297.361 224.918 297.525C224.64 297.705 224.319 297.808 223.987 297.822C223.611 297.901 223.245 297.94 222.869 298.039C223.628 298.304 224.448 298.335 225.225 298.129C225.637 297.952 225.988 297.658 226.233 297.283C226.478 296.908 226.606 296.468 226.601 296.02C226.609 295.723 226.693 295.433 226.843 295.177C226.994 294.92 227.207 294.707 227.462 294.555C227.76 294.372 228.103 294.276 228.452 294.278C228.809 294.198 229.185 294.149 229.551 294.03Z" fill="white"/>
<path d="M272.478 239.639C271.721 239.389 270.91 239.348 270.131 239.521C269.709 239.68 269.345 239.962 269.085 240.331C268.825 240.7 268.683 241.139 268.676 241.59C268.679 241.89 268.605 242.186 268.464 242.451C268.322 242.715 268.116 242.94 267.864 243.104C267.587 243.288 267.266 243.394 266.934 243.411C266.567 243.481 266.191 243.52 265.815 243.619C266.573 243.887 267.395 243.919 268.171 243.708C268.582 243.533 268.931 243.24 269.176 242.867C269.421 242.493 269.55 242.056 269.547 241.61C269.554 241.311 269.637 241.019 269.787 240.761C269.938 240.503 270.152 240.287 270.409 240.134C270.708 239.956 271.05 239.861 271.399 239.857C271.725 239.788 272.102 239.738 272.478 239.639Z" fill="white"/>
<path d="M179.725 291.892C180.074 292.606 180.616 293.21 181.289 293.634C181.699 293.822 182.157 293.882 182.602 293.806C183.047 293.73 183.459 293.522 183.784 293.208C183.993 292.993 184.254 292.834 184.541 292.746C184.828 292.658 185.133 292.643 185.427 292.703C185.752 292.772 186.052 292.926 186.298 293.149C186.615 293.357 186.902 293.594 187.239 293.783C186.813 293.179 186.496 292.436 185.635 292.06C185.219 291.892 184.763 291.852 184.324 291.944C183.886 292.035 183.484 292.255 183.17 292.575C182.955 292.781 182.692 292.929 182.405 293.005C182.117 293.081 181.815 293.083 181.526 293.01C181.204 292.927 180.908 292.763 180.665 292.535C180.348 292.317 180.051 292.05 179.725 291.892Z" fill="white"/>
<path d="M226.769 273.24C227.12 273.957 227.665 274.561 228.343 274.982C228.752 275.169 229.208 275.229 229.652 275.153C230.095 275.077 230.505 274.869 230.828 274.557C231.038 274.341 231.298 274.182 231.586 274.094C231.873 274.006 232.177 273.991 232.472 274.052C232.796 274.121 233.097 274.275 233.343 274.497C233.66 274.705 233.957 274.943 234.283 275.131C233.858 274.527 233.541 273.784 232.69 273.408C232.274 273.241 231.818 273.2 231.379 273.292C230.94 273.384 230.538 273.603 230.224 273.923C230.007 274.128 229.742 274.276 229.453 274.352C229.165 274.428 228.861 274.43 228.571 274.359C228.249 274.275 227.952 274.112 227.71 273.883C227.393 273.705 227.106 273.478 226.769 273.24Z" fill="white"/>
<path d="M203.891 283.457C204.243 284.169 204.784 284.772 205.455 285.199C205.866 285.387 206.324 285.446 206.77 285.368C207.215 285.291 207.626 285.08 207.95 284.764C208.159 284.548 208.419 284.389 208.707 284.303C208.995 284.216 209.3 284.204 209.593 284.269C209.919 284.333 210.221 284.488 210.464 284.714C210.781 284.922 211.068 285.16 211.454 285.348C211.028 284.744 210.712 284.001 209.85 283.625C209.435 283.459 208.98 283.418 208.542 283.508C208.104 283.598 207.702 283.814 207.385 284.13C207.172 284.339 206.909 284.488 206.621 284.565C206.333 284.641 206.03 284.641 205.742 284.566C205.416 284.484 205.116 284.32 204.871 284.09C204.514 283.883 204.217 283.645 203.891 283.457Z" fill="white"/>
<path d="M174.299 249.827C174.656 250.54 175.2 251.142 175.874 251.569C176.284 251.757 176.742 251.817 177.187 251.741C177.632 251.665 178.043 251.457 178.368 251.143C178.577 250.927 178.838 250.768 179.125 250.679C179.412 250.591 179.717 250.577 180.012 250.638C180.335 250.712 180.634 250.865 180.883 251.084C181.19 251.292 181.487 251.529 181.873 251.717C181.437 251.113 181.13 250.371 180.269 249.995C179.853 249.827 179.397 249.787 178.959 249.878C178.52 249.97 178.118 250.19 177.804 250.51C177.589 250.715 177.326 250.863 177.038 250.939C176.751 251.015 176.449 251.017 176.161 250.945C175.815 250.867 175.495 250.704 175.23 250.47C174.923 250.252 174.636 250.025 174.299 249.827Z" fill="white"/>
<path d="M287.209 247.5C286.959 248.257 286.918 249.068 287.09 249.846C287.249 250.269 287.531 250.633 287.9 250.893C288.269 251.152 288.708 251.295 289.159 251.302C289.459 251.299 289.756 251.372 290.02 251.514C290.285 251.656 290.51 251.862 290.674 252.113C290.857 252.391 290.963 252.712 290.981 253.044C291.05 253.41 291.09 253.787 291.189 254.163C291.457 253.405 291.488 252.583 291.278 251.807C291.102 251.396 290.81 251.046 290.436 250.802C290.063 250.557 289.625 250.428 289.179 250.43C288.881 250.422 288.589 250.339 288.332 250.188C288.074 250.038 287.858 249.825 287.704 249.569C287.526 249.269 287.43 248.928 287.427 248.579C287.357 248.223 287.318 247.847 287.209 247.5Z" fill="white"/>
<path d="M167.785 275.933C167.535 276.69 167.494 277.501 167.666 278.279C167.824 278.702 168.106 279.067 168.476 279.327C168.845 279.587 169.284 279.729 169.735 279.734C170.036 279.728 170.334 279.8 170.599 279.942C170.864 280.084 171.089 280.292 171.25 280.546C171.432 280.82 171.535 281.138 171.547 281.467C171.626 281.843 171.666 282.209 171.765 282.586C172.031 281.83 172.062 281.012 171.854 280.239C171.678 279.826 171.384 279.474 171.009 279.227C170.634 278.981 170.194 278.851 169.745 278.853C169.448 278.847 169.157 278.764 168.901 278.613C168.644 278.463 168.431 278.249 168.28 277.992C168.105 277.709 168.009 277.384 168.003 277.051C167.934 276.675 167.884 276.299 167.785 275.933Z" fill="white"/>
<path d="M201.316 300.554C201.066 301.311 201.025 302.122 201.198 302.9C201.354 303.324 201.636 303.69 202.006 303.95C202.375 304.21 202.815 304.352 203.267 304.356C203.567 304.353 203.863 304.426 204.128 304.568C204.393 304.71 204.617 304.916 204.782 305.168C204.962 305.446 205.065 305.767 205.079 306.098C205.158 306.464 205.197 306.841 205.296 307.217C205.561 306.458 205.592 305.637 205.385 304.861C205.209 304.449 204.915 304.098 204.54 303.853C204.164 303.608 203.725 303.48 203.277 303.485C202.98 303.476 202.69 303.393 202.433 303.242C202.177 303.092 201.963 302.879 201.812 302.623C201.629 302.325 201.533 301.983 201.534 301.633C201.455 301.307 201.415 300.96 201.316 300.554Z" fill="white"/>
<path d="M207.177 258.954C206.927 259.711 206.886 260.522 207.058 261.301C207.215 261.724 207.497 262.091 207.866 262.35C208.236 262.61 208.676 262.752 209.128 262.756C209.428 262.753 209.724 262.827 209.989 262.968C210.253 263.11 210.478 263.316 210.642 263.568C210.823 263.846 210.925 264.167 210.939 264.498C211.018 264.865 211.058 265.241 211.157 265.607C211.423 264.852 211.454 264.034 211.246 263.261C211.071 262.848 210.777 262.496 210.401 262.249C210.026 262.002 209.586 261.872 209.137 261.875C208.841 261.87 208.55 261.79 208.294 261.64C208.037 261.491 207.823 261.279 207.672 261.023C207.49 260.726 207.394 260.383 207.395 260.033C207.316 259.697 207.276 259.38 207.177 258.954Z" fill="white"/>
<path d="M245.886 255.628C245.632 256.384 245.59 257.196 245.767 257.974C245.923 258.396 246.204 258.762 246.571 259.021C246.939 259.281 247.377 259.423 247.827 259.43C248.128 259.427 248.426 259.5 248.692 259.642C248.958 259.784 249.185 259.99 249.351 260.241C249.532 260.519 249.634 260.841 249.648 261.172C249.718 261.538 249.767 261.914 249.866 262.281C250.126 261.524 250.157 260.708 249.955 259.934C249.778 259.522 249.484 259.171 249.109 258.924C248.734 258.678 248.295 258.547 247.847 258.548C247.548 258.545 247.256 258.464 246.998 258.315C246.74 258.166 246.524 257.953 246.371 257.697C246.197 257.396 246.105 257.055 246.104 256.707C246.025 256.41 245.985 256.004 245.886 255.628Z" fill="white"/>
<path d="M269.498 281.655C269.573 281.61 269.643 281.557 269.706 281.497C269.706 281.368 269.656 281.239 269.617 281.101C269.587 281.299 269.537 281.477 269.498 281.655Z" fill="white"/>
<path d="M273.339 264.231C272.98 263.52 272.436 262.918 271.765 262.489C271.353 262.303 270.895 262.246 270.451 262.324C270.006 262.401 269.595 262.61 269.27 262.924C268.941 263.256 268.495 263.446 268.028 263.456C267.56 263.465 267.108 263.292 266.765 262.974C266.449 262.766 266.152 262.538 265.775 262.34C266.211 262.944 266.518 263.687 267.379 264.063C267.794 264.229 268.249 264.27 268.687 264.18C269.126 264.09 269.528 263.874 269.844 263.558C270.059 263.349 270.324 263.2 270.614 263.123C270.903 263.047 271.208 263.047 271.498 263.122C271.822 263.201 272.119 263.365 272.359 263.597C272.715 263.805 273.002 264.043 273.339 264.231Z" fill="white"/>
<path d="M152.46 292.298C154.529 289.278 157.222 286.595 159.578 283.793C161.934 280.992 164.528 278.121 167.092 275.319C172.042 269.874 177.131 264.587 182.249 259.321C185.219 256.252 188.318 253.311 191.337 250.272C191.446 250.163 191.634 250.341 191.535 250.46C186.655 256.133 181.853 261.835 176.854 267.399C171.854 272.963 166.954 278.289 161.816 283.516C160.35 285.021 158.846 286.486 157.341 287.951C155.87 289.553 154.31 291.07 152.668 292.496C152.559 292.595 152.381 292.426 152.46 292.298Z" fill="#263238"/>
<path opacity="0.1" d="M198.089 309.514C206.781 311.791 214.493 312.89 219.523 311.741C231.64 308.959 251.777 296.159 269.498 281.655C269.573 281.61 269.643 281.557 269.706 281.497C280.378 272.745 290.159 263.399 296.752 255.272C302.465 248.252 305.187 242.877 305.445 239.095C305.509 238.389 305.458 237.677 305.296 236.986C304.663 234.254 302.227 232.719 298.366 232.353L198.089 309.514Z" fill="black"/>
<path d="M259.162 309.939L249.787 363.063H362.093C358.895 311.127 328.759 254.321 315.473 238.135C308.821 230.026 295.673 228.294 285.704 234.907C283.338 236.471 255.786 277.121 253.529 283.051C249.034 294.743 259.162 309.939 259.162 309.939Z" fill="#FF006D"/>
<path d="M296.406 270.27C295.649 270.02 294.838 269.979 294.06 270.151C293.638 270.311 293.274 270.594 293.015 270.963C292.756 271.332 292.613 271.77 292.604 272.22C292.61 272.689 292.432 273.141 292.108 273.48C291.784 273.818 291.34 274.017 290.872 274.032C290.496 274.111 290.129 274.151 289.753 274.25C290.511 274.518 291.333 274.549 292.109 274.339C292.52 274.163 292.87 273.871 293.114 273.497C293.359 273.124 293.488 272.687 293.485 272.24C293.492 271.941 293.575 271.649 293.725 271.391C293.876 271.133 294.09 270.918 294.347 270.765C294.647 270.587 294.988 270.491 295.337 270.488C295.664 270.389 296.01 270.339 296.406 270.27Z" fill="white"/>
<path d="M289.08 316.8C288.323 316.55 287.512 316.509 286.734 316.681C286.311 316.84 285.947 317.123 285.687 317.492C285.428 317.861 285.285 318.299 285.278 318.75C285.281 319.051 285.208 319.347 285.066 319.611C284.924 319.876 284.718 320.101 284.467 320.265C284.189 320.446 283.867 320.548 283.536 320.562C283.17 320.641 282.793 320.681 282.427 320.78C283.182 321.046 284 321.077 284.773 320.869C285.187 320.695 285.539 320.401 285.785 320.025C286.03 319.65 286.157 319.209 286.15 318.76C286.158 318.463 286.241 318.173 286.392 317.917C286.543 317.661 286.755 317.447 287.011 317.295C287.309 317.112 287.652 317.016 288.001 317.018C288.367 316.988 288.734 316.939 289.08 316.8Z" fill="white"/>
<path d="M316.632 285.773C315.876 285.515 315.064 285.47 314.285 285.645C313.864 285.805 313.5 286.087 313.241 286.456C312.981 286.825 312.838 287.263 312.83 287.714C312.835 288.015 312.763 288.312 312.621 288.577C312.479 288.842 312.272 289.066 312.018 289.228C311.745 289.413 311.427 289.52 311.098 289.535C310.721 289.605 310.355 289.644 309.979 289.743C310.734 290.009 311.552 290.041 312.325 289.832C312.738 289.658 313.089 289.366 313.336 288.993C313.583 288.619 313.713 288.181 313.711 287.734C313.717 287.435 313.799 287.142 313.95 286.884C314.101 286.626 314.315 286.41 314.573 286.258C314.858 286.089 315.181 285.993 315.513 285.981C315.889 285.912 316.256 285.872 316.632 285.773Z" fill="white"/>
<path d="M331.551 333.491C330.797 333.241 329.99 333.2 329.215 333.373C328.79 333.528 328.423 333.809 328.163 334.179C327.903 334.549 327.762 334.99 327.759 335.442C327.762 335.742 327.689 336.038 327.547 336.303C327.405 336.567 327.199 336.792 326.947 336.956C326.669 337.137 326.348 337.24 326.017 337.253C325.651 337.333 325.274 337.372 324.898 337.471C325.657 337.736 326.478 337.767 327.254 337.56C327.667 337.384 328.017 337.09 328.262 336.715C328.507 336.339 328.635 335.9 328.63 335.452C328.639 335.155 328.722 334.864 328.873 334.608C329.023 334.352 329.236 334.138 329.492 333.986C329.79 333.804 330.132 333.708 330.482 333.709C330.808 333.63 331.185 333.63 331.551 333.491Z" fill="white"/>
<path d="M264.399 356.667C263.642 356.417 262.832 356.376 262.053 356.549C261.631 356.707 261.266 356.99 261.007 357.359C260.747 357.728 260.605 358.166 260.598 358.618C260.6 358.918 260.527 359.214 260.385 359.479C260.243 359.743 260.037 359.968 259.786 360.132C259.508 360.313 259.187 360.415 258.855 360.429C258.489 360.509 258.113 360.548 257.737 360.647C258.495 360.912 259.316 360.943 260.093 360.736C260.505 360.56 260.856 360.266 261.101 359.89C261.345 359.515 261.474 359.076 261.469 358.628C261.477 358.33 261.561 358.04 261.711 357.784C261.862 357.528 262.075 357.314 262.33 357.162C262.628 356.98 262.971 356.884 263.32 356.885C263.647 356.816 264.023 356.766 264.399 356.667Z" fill="white"/>
<path d="M356.172 339.709C356.931 339.973 357.752 340.004 358.529 339.798C358.692 339.735 358.846 339.649 358.984 339.54C358.934 339.214 358.865 338.897 358.796 338.55C358.659 338.803 358.462 339.017 358.222 339.174C357.944 339.355 357.622 339.457 357.291 339.471C356.915 339.57 356.549 339.57 356.172 339.709Z" fill="white"/>
<path d="M308.435 236.61C307.679 236.351 306.867 236.307 306.088 236.481C305.667 236.641 305.303 236.924 305.043 237.293C304.784 237.662 304.641 238.1 304.633 238.55C304.64 238.85 304.57 239.147 304.43 239.413C304.289 239.678 304.083 239.902 303.831 240.065C303.554 240.249 303.232 240.355 302.9 240.372C302.524 240.441 302.158 240.481 301.782 240.58C302.537 240.846 303.355 240.877 304.128 240.669C304.541 240.496 304.894 240.204 305.14 239.831C305.387 239.457 305.517 239.018 305.514 238.57C305.52 238.271 305.602 237.979 305.753 237.721C305.904 237.462 306.118 237.247 306.375 237.095C306.675 236.917 307.017 236.822 307.365 236.818C307.692 236.739 308.068 236.699 308.435 236.61Z" fill="white"/>
<path d="M268.518 303.93C268.87 304.643 269.411 305.245 270.082 305.672C270.493 305.86 270.952 305.919 271.397 305.842C271.842 305.764 272.254 305.553 272.577 305.237C272.786 305.021 273.046 304.862 273.334 304.776C273.622 304.689 273.927 304.677 274.22 304.742C274.546 304.807 274.848 304.961 275.091 305.187C275.408 305.395 275.695 305.633 276.032 305.821C275.606 305.217 275.289 304.475 274.428 304.098C274.013 303.932 273.558 303.892 273.12 303.981C272.682 304.071 272.279 304.287 271.963 304.603C271.75 304.812 271.487 304.962 271.199 305.038C270.911 305.114 270.608 305.115 270.32 305.039C269.995 304.96 269.698 304.796 269.458 304.564C269.141 304.316 268.844 304.079 268.518 303.93Z" fill="white"/>
<path d="M340.699 289.021C341.058 289.732 341.601 290.334 342.273 290.763C342.553 290.888 342.857 290.953 343.164 290.953C343.471 290.953 343.774 290.888 344.055 290.763C343.946 290.496 343.847 290.228 343.728 289.961C343.351 290.148 342.921 290.201 342.51 290.11C342.185 290.021 341.886 289.854 341.639 289.624C341.322 289.436 341.025 289.209 340.699 289.021Z" fill="white"/>
<path d="M340.699 321.067C341.052 321.782 341.597 322.386 342.273 322.809C342.682 322.996 343.138 323.056 343.581 322.98C344.024 322.904 344.434 322.696 344.758 322.384C344.967 322.168 345.228 322.009 345.515 321.921C345.802 321.833 346.107 321.818 346.401 321.879C346.726 321.948 347.026 322.101 347.272 322.324C347.589 322.532 347.886 322.77 348.213 322.958C347.787 322.354 347.47 321.611 346.619 321.235C346.203 321.068 345.747 321.027 345.308 321.119C344.869 321.21 344.468 321.43 344.154 321.75C343.937 321.955 343.672 322.103 343.383 322.179C343.094 322.255 342.79 322.257 342.5 322.186C342.177 322.099 341.881 321.932 341.639 321.7C341.322 321.493 341.035 321.265 340.699 321.067Z" fill="white"/>
<path d="M309.563 353.43C309.92 354.143 310.464 354.745 311.137 355.172C311.548 355.36 312.007 355.419 312.452 355.342C312.898 355.264 313.309 355.053 313.632 354.737C313.841 354.521 314.102 354.362 314.389 354.276C314.677 354.189 314.982 354.177 315.275 354.242C315.601 354.309 315.902 354.463 316.147 354.687C316.453 354.895 316.75 355.133 317.087 355.321C316.651 354.717 316.345 353.974 315.483 353.598C315.068 353.432 314.613 353.391 314.175 353.481C313.737 353.571 313.335 353.787 313.018 354.103C312.805 354.311 312.541 354.46 312.254 354.536C311.966 354.613 311.663 354.614 311.375 354.539C311.049 354.457 310.749 354.293 310.504 354.064C310.197 353.875 309.87 353.638 309.563 353.43Z" fill="white"/>
<path d="M307.227 314.157C307.586 314.868 308.129 315.47 308.801 315.899C309.211 316.085 309.667 316.143 310.111 316.065C310.554 315.987 310.963 315.778 311.286 315.464C311.618 315.134 312.064 314.945 312.531 314.934C312.999 314.923 313.453 315.091 313.8 315.404C314.117 315.622 314.414 315.85 314.741 316.048C314.315 315.444 314.008 314.701 313.147 314.325C312.733 314.154 312.276 314.11 311.837 314.2C311.398 314.29 310.995 314.509 310.682 314.83C310.465 315.035 310.2 315.183 309.911 315.259C309.622 315.335 309.318 315.337 309.028 315.266C308.706 315.182 308.41 315.019 308.167 314.79C307.89 314.573 307.563 314.345 307.227 314.157Z" fill="white"/>
<path d="M280.833 346.797C281.196 347.506 281.739 348.107 282.407 348.539C282.819 348.727 283.277 348.786 283.722 348.709C284.168 348.631 284.579 348.42 284.902 348.104C285.111 347.888 285.372 347.729 285.66 347.643C285.947 347.556 286.252 347.544 286.546 347.609C286.872 347.674 287.173 347.828 287.417 348.054C287.734 348.262 288.021 348.49 288.407 348.688C287.981 348.084 287.664 347.342 286.803 346.965C286.388 346.799 285.933 346.759 285.495 346.848C285.057 346.938 284.654 347.154 284.338 347.47C284.125 347.679 283.862 347.829 283.574 347.905C283.286 347.981 282.983 347.982 282.695 347.906C282.368 347.824 282.069 347.66 281.823 347.431C281.467 347.223 281.16 346.985 280.833 346.797Z" fill="white"/>
<path d="M287.209 247.5C286.959 248.257 286.918 249.068 287.09 249.846C287.249 250.269 287.531 250.633 287.9 250.893C288.269 251.152 288.708 251.295 289.159 251.302C289.459 251.299 289.756 251.372 290.02 251.514C290.285 251.656 290.51 251.862 290.674 252.113C290.857 252.391 290.963 252.712 290.981 253.044C291.05 253.41 291.09 253.787 291.189 254.163C291.457 253.405 291.488 252.583 291.278 251.807C291.102 251.396 290.81 251.046 290.436 250.802C290.063 250.557 289.625 250.428 289.179 250.43C288.881 250.422 288.589 250.339 288.332 250.188C288.074 250.038 287.858 249.825 287.704 249.569C287.526 249.269 287.43 248.928 287.427 248.579C287.357 248.223 287.318 247.847 287.209 247.5Z" fill="white"/>
<path d="M265.32 330.561C265.061 331.316 265.017 332.128 265.191 332.907C265.351 333.329 265.634 333.693 266.003 333.952C266.372 334.211 266.81 334.354 267.26 334.363C267.561 334.359 267.857 334.432 268.122 334.574C268.387 334.716 268.612 334.922 268.775 335.174C268.959 335.452 269.065 335.773 269.082 336.105C269.151 336.471 269.191 336.847 269.29 337.214C269.556 336.459 269.587 335.641 269.379 334.867C269.206 334.454 268.914 334.102 268.541 333.855C268.167 333.608 267.728 333.478 267.28 333.482C266.982 333.478 266.69 333.397 266.432 333.248C266.173 333.099 265.958 332.886 265.805 332.63C265.627 332.33 265.532 331.989 265.528 331.64C265.498 331.303 265.459 330.937 265.32 330.561Z" fill="white"/>
<path d="M269.617 281.101C269.362 281.857 269.321 282.669 269.498 283.447C269.655 283.868 269.936 284.233 270.303 284.492C270.67 284.752 271.107 284.895 271.557 284.902C271.859 284.898 272.157 284.97 272.424 285.112C272.69 285.254 272.916 285.461 273.082 285.714C273.263 285.991 273.366 286.313 273.379 286.645C273.448 287.011 273.497 287.387 273.596 287.753C273.856 286.997 273.887 286.181 273.685 285.407C273.51 284.994 273.216 284.642 272.841 284.395C272.465 284.149 272.026 284.019 271.577 284.021C271.278 284.015 270.985 283.933 270.727 283.782C270.469 283.632 270.254 283.417 270.102 283.16C269.935 282.874 269.843 282.55 269.834 282.219C269.755 281.843 269.716 281.477 269.617 281.101Z" fill="white"/>
<path d="M292.189 293.802C291.935 294.559 291.891 295.369 292.06 296.149C292.22 296.57 292.503 296.934 292.871 297.193C293.24 297.453 293.678 297.596 294.129 297.604C294.598 297.606 295.048 297.788 295.387 298.112C295.726 298.436 295.928 298.878 295.951 299.346C296.02 299.713 296.069 300.089 296.168 300.455C296.431 299.699 296.459 298.881 296.248 298.109C296.075 297.696 295.783 297.343 295.409 297.096C295.035 296.85 294.597 296.72 294.149 296.723C293.851 296.719 293.558 296.639 293.3 296.49C293.042 296.341 292.826 296.128 292.674 295.871C292.503 295.569 292.407 295.229 292.397 294.881C292.327 294.545 292.288 294.179 292.189 293.802Z" fill="white"/>
<path d="M342.471 347.767C342.22 348.524 342.179 349.335 342.352 350.114C342.51 350.537 342.792 350.902 343.161 351.162C343.53 351.421 343.97 351.563 344.421 351.569C344.722 351.565 345.018 351.637 345.283 351.779C345.548 351.921 345.773 352.128 345.936 352.381C346.116 352.655 346.219 352.973 346.233 353.301C346.302 353.678 346.351 354.054 346.45 354.42C346.71 353.664 346.741 352.848 346.54 352.074C346.364 351.661 346.07 351.309 345.695 351.062C345.32 350.815 344.88 350.685 344.431 350.688C344.132 350.682 343.839 350.6 343.581 350.449C343.323 350.298 343.108 350.084 342.956 349.826C342.789 349.54 342.698 349.217 342.688 348.886C342.609 348.48 342.54 348.143 342.471 347.767Z" fill="white"/>
<path d="M326.245 269.953C325.991 270.709 325.947 271.52 326.116 272.299C326.276 272.721 326.559 273.085 326.927 273.344C327.296 273.604 327.734 273.747 328.185 273.755C328.654 273.752 329.105 273.931 329.445 274.254C329.785 274.577 329.986 275.019 330.007 275.487C330.076 275.863 330.125 276.23 330.224 276.606C330.487 275.85 330.515 275.032 330.304 274.26C330.131 273.847 329.839 273.494 329.465 273.247C329.091 273 328.653 272.87 328.205 272.874C327.906 272.868 327.613 272.786 327.355 272.635C327.097 272.484 326.882 272.27 326.73 272.012C326.563 271.726 326.471 271.403 326.462 271.072C326.383 270.696 326.344 270.319 326.245 269.953Z" fill="white"/>
<path d="M326.245 302.514C325.991 303.271 325.947 304.081 326.116 304.861C326.276 305.282 326.559 305.646 326.927 305.905C327.296 306.165 327.734 306.308 328.185 306.316C328.654 306.313 329.105 306.492 329.445 306.815C329.785 307.138 329.986 307.58 330.007 308.048C330.076 308.425 330.125 308.791 330.224 309.167C330.486 308.407 330.513 307.587 330.304 306.811C330.13 306.399 329.838 306.048 329.464 305.803C329.09 305.557 328.652 305.429 328.205 305.435C327.906 305.426 327.615 305.343 327.357 305.192C327.1 305.042 326.884 304.829 326.73 304.574C326.555 304.273 326.463 303.931 326.462 303.584C326.383 303.257 326.344 302.881 326.245 302.514Z" fill="white"/>
<path d="M300.069 330.561C299.819 331.318 299.778 332.129 299.95 332.907C300.108 333.33 300.39 333.696 300.759 333.955C301.129 334.215 301.568 334.357 302.019 334.363C302.32 334.36 302.616 334.433 302.88 334.575C303.145 334.717 303.37 334.923 303.534 335.174C303.715 335.452 303.817 335.774 303.831 336.105C303.91 336.471 303.95 336.847 304.049 337.214C304.315 336.459 304.346 335.641 304.138 334.867C303.962 334.454 303.668 334.102 303.293 333.856C302.918 333.609 302.478 333.479 302.029 333.482C301.733 333.477 301.442 333.396 301.185 333.247C300.929 333.098 300.715 332.886 300.564 332.63C300.383 332.331 300.288 331.989 300.287 331.64C300.218 331.303 300.168 330.937 300.069 330.561Z" fill="white"/>
<path d="M273.339 264.231C272.98 263.52 272.436 262.918 271.765 262.489C271.353 262.303 270.895 262.246 270.451 262.324C270.006 262.401 269.595 262.61 269.27 262.924C268.941 263.256 268.495 263.446 268.028 263.456C267.56 263.465 267.108 263.292 266.765 262.974C266.449 262.766 266.152 262.538 265.775 262.34C266.211 262.944 266.518 263.687 267.379 264.063C267.794 264.229 268.249 264.27 268.687 264.18C269.126 264.09 269.528 263.874 269.844 263.558C270.059 263.349 270.324 263.2 270.614 263.123C270.903 263.047 271.208 263.047 271.498 263.122C271.822 263.201 272.119 263.365 272.359 263.597C272.715 263.805 273.002 264.043 273.339 264.231Z" fill="white"/>
<path d="M313.325 260.905C312.969 260.191 312.425 259.589 311.751 259.162C311.342 258.974 310.885 258.914 310.441 258.992C309.997 259.07 309.587 259.281 309.266 259.598C309.057 259.814 308.796 259.972 308.509 260.059C308.221 260.146 307.916 260.157 307.623 260.093C307.297 260.028 306.995 259.874 306.752 259.647C306.435 259.439 306.138 259.212 305.811 259.014C306.237 259.618 306.554 260.36 307.405 260.736C307.82 260.902 308.275 260.943 308.713 260.853C309.151 260.764 309.553 260.547 309.87 260.231C310.085 260.024 310.351 259.875 310.64 259.798C310.929 259.722 311.233 259.721 311.523 259.796C311.847 259.875 312.145 260.039 312.385 260.271C312.701 260.479 312.989 260.717 313.325 260.905Z" fill="white"/>
<path d="M321.077 243.213C336.006 255.539 389.644 301.188 386.417 317.394C383.17 333.808 370.745 347.094 361.192 337.887C353.272 330.333 318.305 274.27 311.959 259.281C305.91 245.005 306.405 231.096 321.077 243.213Z" fill="#F7A9A0"/>
<path d="M387.783 312.84C387.783 324.205 380.17 345.629 365.389 341.639C355.707 339.035 315.553 272.844 309.078 257.143C301.584 238.956 308.088 231.808 321.948 242.53C335.808 253.252 387.763 296.614 387.783 312.84Z" fill="#FF006D"/>
<path d="M346.084 265.251C346.839 265.517 347.657 265.548 348.43 265.34C348.549 265.292 348.661 265.232 348.767 265.162C348.573 265.007 348.388 264.842 348.213 264.667L348.124 264.736C347.848 264.915 347.531 265.017 347.203 265.033C346.827 265.112 346.45 265.162 346.084 265.251Z" fill="white"/>
<path d="M364.033 303.851C363.276 303.601 362.465 303.559 361.687 303.732C361.263 303.889 360.897 304.17 360.637 304.54C360.377 304.909 360.235 305.349 360.231 305.801C360.234 306.101 360.161 306.397 360.019 306.662C359.877 306.927 359.671 307.152 359.419 307.316C359.141 307.496 358.82 307.599 358.489 307.613C358.123 307.692 357.746 307.732 357.38 307.831C358.135 308.097 358.953 308.128 359.726 307.92C360.14 307.744 360.492 307.45 360.738 307.075C360.985 306.7 361.115 306.26 361.112 305.811C361.117 305.514 361.198 305.224 361.347 304.967C361.496 304.711 361.708 304.497 361.964 304.346C362.262 304.165 362.605 304.069 362.954 304.069C363.33 303.989 363.657 303.93 364.033 303.851Z" fill="white"/>
<path d="M359.291 336.689C359.509 336.927 359.726 337.164 359.944 337.382C359.993 337.141 360.091 336.913 360.233 336.712C360.374 336.511 360.556 336.341 360.766 336.214C361.067 336.039 361.408 335.947 361.756 335.947C362.122 335.877 362.498 335.828 362.875 335.729C362.117 335.479 361.307 335.438 360.528 335.61C360.26 335.698 360.012 335.838 359.8 336.024C359.587 336.209 359.414 336.435 359.291 336.689V336.689Z" fill="white"/>
<path d="M340.699 289.021C341.055 289.734 341.599 290.336 342.273 290.763C342.682 290.952 343.139 291.011 343.583 290.933C344.027 290.855 344.437 290.644 344.758 290.327C344.967 290.112 345.227 289.953 345.515 289.866C345.803 289.78 346.108 289.768 346.401 289.832C346.727 289.897 347.029 290.051 347.272 290.278C347.589 290.486 347.886 290.714 348.213 290.912C347.787 290.308 347.47 289.565 346.619 289.189C346.204 289.023 345.749 288.982 345.311 289.072C344.872 289.162 344.47 289.378 344.154 289.694C343.938 289.902 343.673 290.051 343.384 290.127C343.094 290.203 342.79 290.204 342.5 290.129C342.176 290.05 341.879 289.886 341.639 289.654C341.322 289.446 341.035 289.209 340.699 289.021Z" fill="white"/>
<path d="M324.007 245.52C323.757 246.274 323.716 247.081 323.888 247.856C324.042 248.28 324.322 248.647 324.69 248.907C325.058 249.167 325.497 249.308 325.948 249.312C326.249 249.309 326.547 249.381 326.814 249.523C327.08 249.665 327.306 249.871 327.472 250.123C327.653 250.402 327.755 250.723 327.769 251.054C327.839 251.43 327.888 251.797 327.987 252.173C328.246 251.413 328.277 250.594 328.076 249.817C327.9 249.404 327.606 249.054 327.23 248.809C326.855 248.564 326.416 248.436 325.967 248.441C325.669 248.432 325.378 248.349 325.12 248.198C324.862 248.048 324.646 247.835 324.492 247.579C324.318 247.278 324.226 246.937 324.225 246.589C324.146 246.263 324.106 245.886 324.007 245.52Z" fill="white"/>
<path d="M326.245 269.953C325.991 270.709 325.947 271.52 326.116 272.299C326.276 272.721 326.559 273.085 326.927 273.344C327.296 273.604 327.734 273.747 328.185 273.755C328.654 273.752 329.105 273.931 329.445 274.254C329.785 274.577 329.986 275.019 330.007 275.487C330.076 275.863 330.125 276.23 330.224 276.606C330.487 275.85 330.515 275.032 330.304 274.26C330.131 273.847 329.839 273.494 329.465 273.247C329.091 273 328.653 272.87 328.205 272.874C327.906 272.868 327.613 272.786 327.355 272.635C327.097 272.484 326.882 272.27 326.73 272.012C326.563 271.726 326.471 271.403 326.462 271.072C326.383 270.696 326.344 270.319 326.245 269.953Z" fill="white"/>
<path d="M373.151 322.037C372.901 322.794 372.86 323.605 373.032 324.383C373.188 324.806 373.468 325.171 373.836 325.43C374.203 325.69 374.641 325.833 375.091 325.839C375.393 325.836 375.691 325.908 375.957 326.05C376.224 326.192 376.45 326.398 376.616 326.651C376.796 326.929 376.899 327.25 376.913 327.581C376.982 327.947 377.032 328.324 377.131 328.7C377.39 327.94 377.421 327.121 377.22 326.344C377.044 325.932 376.749 325.581 376.374 325.336C375.999 325.091 375.559 324.963 375.111 324.968C374.813 324.959 374.521 324.876 374.264 324.725C374.006 324.575 373.79 324.362 373.636 324.106C373.461 323.805 373.369 323.464 373.369 323.116C373.289 322.79 373.23 322.413 373.151 322.037Z" fill="white"/>
<path d="M309.949 259.142C310.058 259.39 310.187 259.657 310.315 259.924C310.69 259.738 311.118 259.692 311.523 259.796C311.847 259.875 312.145 260.039 312.385 260.271C312.701 260.479 312.988 260.717 313.375 260.905C312.929 260.291 312.642 259.578 311.8 259.162C311.513 259.022 311.197 258.947 310.877 258.944C310.557 258.94 310.24 259.008 309.949 259.142Z" fill="white"/>
<path d="M318.631 280.041C319.968 281.902 321.443 283.665 322.869 285.457L323.859 286.744C322.968 285.034 322.096 283.312 321.245 281.576C319.944 279.089 318.777 276.535 317.75 273.923C317.681 273.755 317.938 273.676 318.028 273.814C319.364 275.913 320.433 278.15 321.7 280.289C322.968 282.427 324.185 284.595 325.393 286.763C327.829 291.09 330.343 295.396 332.907 299.633C338.065 308.108 343.56 316.394 349.242 324.532C350.836 326.809 352.41 329.106 354.083 331.333C355.756 333.561 357.331 335.976 359.033 338.214C359.093 338.293 358.984 338.402 358.915 338.323C357.311 336.343 355.658 334.491 354.024 332.581C352.391 330.67 351.004 328.68 349.47 326.7C346.411 322.74 343.53 318.701 340.699 314.592C335.054 306.324 329.83 297.776 325.047 288.981L324.7 288.308C323.888 287.446 323.096 286.556 322.344 285.625C320.928 283.863 319.701 281.972 318.463 280.081C318.424 280.031 318.572 279.952 318.631 280.041Z" fill="#263238"/>
<path d="M287.773 234.848C287.773 234.848 284.496 248.272 288.407 250.123C295.703 253.579 308.741 242.847 309.593 240.926C309.801 240.431 310.89 227.532 311.702 217.513C312.236 211.058 312.692 205.791 312.692 205.791L287.1 215.939L287.674 233.581L287.773 234.848Z" fill="#F7A9A0"/>
<path d="M287.1 215.939L287.674 233.581C292.575 232.736 297.243 230.869 301.374 228.101C305.506 225.332 309.008 221.725 311.652 217.513C312.187 211.058 312.642 205.791 312.642 205.791L309.444 206.94L287.1 215.939Z" fill="#263238"/>
<path d="M282.407 195.881C282.021 203.098 276.576 208.662 270.25 208.316C263.924 207.969 259.113 201.851 259.499 194.644C259.885 187.437 265.34 181.863 271.666 182.21C277.992 182.556 282.803 188.674 282.407 195.881Z" fill="#455A64"/>
<path d="M286.11 196.545C285.674 204.564 279.616 210.751 272.577 210.405C265.538 210.058 260.192 203.207 260.617 195.188C261.043 187.169 267.112 180.972 274.151 181.328C281.19 181.685 286.526 188.516 286.11 196.545Z" fill="#C7C7C7"/>
<path d="M264.607 190.634C262.221 221.522 280.447 226.443 287.11 226.948C293.159 227.413 313.84 228.215 319.384 197.733C324.928 167.251 311.345 156.38 297.604 154.588C283.863 152.797 267.003 159.736 264.607 190.634Z" fill="#F7A9A0"/>
<path d="M274.23 185.13C274.939 185.04 275.643 184.914 276.339 184.754C277.098 184.721 277.825 184.439 278.408 183.952C278.557 183.759 278.638 183.522 278.638 183.279C278.638 183.035 278.557 182.798 278.408 182.605C278.067 182.258 277.639 182.008 277.169 181.883C276.699 181.757 276.203 181.761 275.735 181.893C274.743 182.008 273.829 182.488 273.171 183.239C273.03 183.422 272.945 183.642 272.929 183.872C272.912 184.103 272.963 184.333 273.076 184.534C273.189 184.736 273.358 184.9 273.563 185.006C273.769 185.112 274 185.155 274.23 185.13V185.13Z" fill="#263238"/>
<path d="M295.426 186.783C294.727 186.63 294.037 186.442 293.357 186.219C292.607 186.113 291.912 185.765 291.377 185.229C291.239 185.029 291.172 184.789 291.187 184.547C291.201 184.305 291.296 184.075 291.456 183.893C291.825 183.576 292.272 183.364 292.751 183.279C293.23 183.193 293.723 183.238 294.178 183.407C295.156 183.608 296.025 184.166 296.614 184.972C296.742 185.164 296.81 185.389 296.811 185.62C296.811 185.851 296.744 186.077 296.618 186.269C296.491 186.462 296.311 186.614 296.099 186.705C295.887 186.797 295.653 186.824 295.426 186.783Z" fill="#263238"/>
<path d="M290.07 194.307C290.07 194.228 290.219 194.426 290.209 194.505C289.961 196.604 290.02 199.049 291.862 199.911C291.921 199.911 291.862 200.039 291.862 200.03C289.545 199.495 289.496 196.248 290.07 194.307Z" fill="#263238"/>
<path d="M292.139 192.278C295.545 192.278 295.208 199.119 292.05 199.079C288.892 199.04 289.288 192.238 292.139 192.278Z" fill="#263238"/>
<path d="M293.456 192.703C294.03 193.119 294.584 193.822 295.297 193.931C296.01 194.04 296.782 193.377 297.356 192.713C297.416 192.644 297.465 192.713 297.465 192.803C297.465 194.099 296.852 195.416 295.485 195.545C294.119 195.674 293.347 194.456 293.09 193.129C293.04 192.882 293.228 192.535 293.456 192.703Z" fill="#263238"/>
<path d="M277.784 192.931C277.784 192.842 277.616 193.02 277.616 193.109C277.616 195.218 277.22 197.634 275.279 198.248C275.22 198.248 275.22 198.376 275.279 198.366C277.636 198.139 278.101 194.931 277.784 192.931Z" fill="#263238"/>
<path d="M275.992 190.644C272.616 190.248 272.032 197.04 275.2 197.406C278.368 197.772 278.824 190.981 275.992 190.644Z" fill="#263238"/>
<path d="M274.547 190.981C273.982 191.298 273.398 191.912 272.755 191.902C272.111 191.892 271.517 191.11 271.092 190.367C271.092 190.288 270.993 190.367 270.983 190.436C270.844 191.723 271.161 193.109 272.389 193.466C273.616 193.822 274.438 192.733 274.844 191.486C274.923 191.228 274.774 190.852 274.547 190.981Z" fill="#263238"/>
<path d="M288.149 210.632C287.645 211.127 287.159 211.801 286.367 211.86C285.583 211.841 284.811 211.658 284.1 211.325C284.086 211.314 284.067 211.308 284.049 211.31C284.03 211.312 284.013 211.321 284.001 211.335C283.989 211.35 283.984 211.368 283.986 211.387C283.988 211.405 283.997 211.422 284.011 211.434C284.311 211.85 284.718 212.176 285.189 212.378C285.66 212.58 286.176 212.651 286.684 212.583C287.115 212.477 287.505 212.244 287.802 211.914C288.098 211.583 288.288 211.171 288.347 210.731C288.387 210.603 288.219 210.563 288.149 210.632Z" fill="#263238"/>
<path d="M279.814 202.485C279.814 202.485 279.18 205.603 279.091 207.088C279.091 207.227 279.437 207.316 279.942 207.375C279.942 207.375 279.942 207.375 280.002 207.375C281.261 207.687 282.582 207.646 283.819 207.254C285.056 206.863 286.16 206.137 287.011 205.158C287.12 205.019 286.942 204.861 286.803 204.94C284.831 206.116 282.533 206.626 280.249 206.395C280.17 205.979 281.497 201.089 281.239 201.059C280.081 201.091 278.933 201.278 277.824 201.613C278.933 195.079 281.091 188.743 282.11 182.259C282.113 182.212 282.1 182.166 282.074 182.128C282.047 182.09 282.009 182.062 281.964 182.048C281.92 182.034 281.872 182.036 281.828 182.053C281.785 182.069 281.748 182.1 281.724 182.14C279.002 188.585 277.547 196.069 276.22 202.792C276.081 203.623 279.18 202.702 279.814 202.485Z" fill="#263238"/>
<path d="M280.972 206.633C281.657 207.782 282.625 208.736 283.784 209.405C284.427 209.745 285.161 209.876 285.882 209.781C287.466 209.563 287.664 208.167 287.526 206.93C287.448 206.273 287.292 205.629 287.06 205.009C285.257 206.189 283.123 206.758 280.972 206.633V206.633Z" fill="#263238"/>
<path d="M283.784 209.405C284.427 209.745 285.161 209.876 285.882 209.781C287.466 209.563 287.664 208.167 287.526 206.93C285.872 206.91 284.13 207.821 283.784 209.405Z" fill="#F392B9"/>
<path d="M318.929 194.961C315.553 194.961 306.326 186.13 305.227 169.904C305.227 169.904 307.207 184.407 308.425 186.486C309.642 188.565 303.267 181.536 302.198 168.449C302.198 168.449 295.208 174.052 289.12 176.101C283.031 178.151 279.22 178.289 278.764 177.863C278.309 177.438 287.258 174.111 289.575 171.141C289.575 171.141 273.507 179.636 265.954 180.596C265.082 180.705 267.092 167.261 278.428 159.004C289.763 150.747 304.781 153.539 310.019 158.103C310.019 158.103 315.959 158.638 322.74 167.013C329.522 175.388 322.562 195.03 318.929 194.961Z" fill="#263238"/>
<path d="M314.285 199.733C314.285 199.733 320.958 189.991 325.373 192.367C329.789 194.743 324.829 208.801 319.691 210.771C319.049 211.068 318.355 211.232 317.648 211.253C316.942 211.275 316.239 211.153 315.58 210.896C314.922 210.639 314.322 210.252 313.817 209.757C313.313 209.263 312.913 208.672 312.642 208.019L314.285 199.733Z" fill="#F7A9A0"/>
<path d="M323.849 196.367C323.862 196.372 323.873 196.381 323.88 196.392C323.888 196.403 323.892 196.417 323.892 196.431C323.892 196.445 323.888 196.458 323.88 196.47C323.873 196.481 323.862 196.49 323.849 196.495C320.245 198 318.374 201.366 317.077 204.851C318.136 203.504 319.602 202.752 321.403 204.019C321.493 204.089 321.403 204.237 321.304 204.207C320.668 204.014 319.987 204.021 319.354 204.228C318.722 204.436 318.169 204.833 317.77 205.366C317.108 206.265 316.547 207.235 316.097 208.256C315.929 208.583 315.345 208.415 315.463 208.039V207.959C315.384 203.346 318.909 196.871 323.849 196.367Z" fill="#263238"/>
<path d="M316.8 209.425C316.806 209.64 316.876 209.849 317.001 210.025C317.126 210.201 317.3 210.336 317.502 210.412C317.704 210.489 317.924 210.504 318.134 210.455C318.344 210.407 318.535 210.297 318.683 210.139C318.83 209.982 318.928 209.784 318.963 209.571C318.998 209.358 318.969 209.14 318.88 208.944C318.791 208.747 318.645 208.582 318.462 208.468C318.278 208.355 318.065 208.298 317.849 208.306C317.562 208.316 317.291 208.44 317.094 208.649C316.898 208.859 316.792 209.137 316.8 209.425V209.425Z" fill="white"/>
<path d="M319.77 207.445C319.774 207.534 319.795 207.622 319.833 207.704C319.871 207.785 319.925 207.858 319.991 207.919C320.057 207.98 320.135 208.027 320.219 208.058C320.303 208.088 320.393 208.102 320.483 208.098C320.572 208.095 320.66 208.075 320.741 208.038C320.823 208.001 320.896 207.949 320.957 207.883C321.018 207.818 321.065 207.741 321.096 207.657C321.126 207.573 321.14 207.484 321.136 207.395C321.134 207.305 321.113 207.217 321.077 207.135C321.04 207.053 320.988 206.979 320.922 206.918C320.857 206.856 320.78 206.808 320.696 206.776C320.612 206.744 320.523 206.729 320.433 206.732C320.252 206.742 320.082 206.822 319.958 206.955C319.835 207.088 319.767 207.263 319.77 207.445V207.445Z" fill="white"/>
<path d="M325.067 198.505L327.195 198.95C327.25 198.962 327.307 198.962 327.363 198.952C327.418 198.941 327.471 198.919 327.518 198.888C327.565 198.857 327.605 198.816 327.636 198.769C327.668 198.722 327.689 198.669 327.7 198.614V198.614C327.723 198.504 327.702 198.388 327.641 198.294C327.58 198.199 327.483 198.133 327.373 198.109L325.245 197.663C325.189 197.652 325.132 197.651 325.077 197.662C325.022 197.673 324.969 197.695 324.922 197.726C324.875 197.757 324.834 197.798 324.803 197.845C324.772 197.892 324.75 197.945 324.74 198V198C324.716 198.11 324.738 198.225 324.799 198.32C324.86 198.415 324.956 198.481 325.067 198.505V198.505Z" fill="#FF006D"/>
<path d="M325.304 197.139L327.472 197.267C327.529 197.271 327.586 197.264 327.64 197.246C327.694 197.227 327.743 197.198 327.786 197.161C327.828 197.123 327.862 197.077 327.887 197.025C327.911 196.974 327.925 196.918 327.928 196.862V196.862C327.933 196.748 327.894 196.636 327.818 196.551C327.742 196.466 327.636 196.414 327.522 196.406L325.363 196.277C325.249 196.269 325.137 196.306 325.05 196.38C324.963 196.454 324.908 196.56 324.898 196.673V196.673C324.893 196.788 324.932 196.901 325.007 196.988C325.083 197.075 325.189 197.129 325.304 197.139V197.139Z" fill="#FF006D"/>
<path d="M320.691 192.298C320.691 192.298 323.304 176.715 319.572 167.548C315.414 157.41 295.564 148.955 280.031 157.865C280.031 157.865 303.633 153.173 313.295 167.627C317.364 173.715 315.414 192.139 315.414 192.139L320.691 192.298Z" fill="#C7C7C7"/>
<path d="M316.315 214.603C309.309 213.834 304.34 206.739 305.216 198.755C306.092 190.771 312.481 184.922 319.487 185.69C326.492 186.459 331.462 193.554 330.586 201.538C329.71 209.522 323.321 215.371 316.315 214.603Z" fill="#C7C7C7"/>
<path d="M308.959 198.713C308.167 205.89 312.632 212.266 318.929 212.959C325.225 213.652 330.977 208.395 331.799 201.218C332.62 194.04 328.116 187.655 321.819 186.971C315.523 186.288 309.741 191.535 308.959 198.713Z" fill="#455A64"/>
<path d="M292.189 219.81L302.514 217.968L312.256 210.355L311.078 208.85L301.712 216.176L291.862 217.929L292.189 219.81Z" fill="#C7C7C7"/>
<path d="M293.545 218.552C293.268 215.582 285.377 214.82 285.793 219.275C286.209 223.73 293.822 221.503 293.545 218.552Z" fill="#37474F"/>
<path d="M287.694 234.462L290.298 248.916L310.375 235.452L313.949 241.847C313.949 241.847 292.169 265.32 292.337 264.082L289.209 251.46L279.616 257.816L284.417 237.857L287.694 234.462Z" fill="white"/>
<path d="M359.865 336.432C369.052 347.648 384.001 334.838 385.704 324.859C389.714 301.425 384.556 258.449 377.725 238.085C375.527 231.531 332.006 244.025 331.898 251.401C331.789 259.142 341.233 313.672 359.865 336.432Z" fill="#F7A9A0"/>
<path d="M378.893 249.866C378.893 249.866 378.239 228.353 370.587 214.018C365.3 204.118 351.391 183.823 317.879 182.338C309.959 182.002 298.366 187.15 311.147 192.426C320.225 196.168 327.106 195.802 331.997 198.94C331.997 198.94 318.057 207.237 318.028 215.206C318.003 222.18 318.473 229.148 319.433 236.056C320.75 236.171 322.073 236.201 323.393 236.145C323.393 236.145 323.591 243.609 331.927 251.351L378.893 249.866Z" fill="#F7A9A0"/>
<path d="M364.033 205.366C358.529 203.277 346.787 199.039 335.976 198.921C323.968 198.782 300.802 201.752 300.792 210.613C300.792 217.117 309.702 216.76 309.702 216.76C309.702 216.76 300.386 220.008 301.663 225.878C302.831 231.234 309.731 230.541 309.731 230.541C309.731 230.541 304.415 233.511 306.534 238.461C309.078 244.401 319.8 237.263 327.571 241.055C329.333 241.867 364.033 205.366 364.033 205.366Z" fill="#F7A9A0"/>
<path d="M337.946 211.632C332.442 210.514 319.305 211.177 309.85 216.582C309.632 216.701 309.613 216.929 309.85 216.86C318.982 214.033 328.423 212.328 337.966 211.781C338.006 211.741 338.006 211.642 337.946 211.632Z" fill="#263238"/>
<path d="M337.451 223.74C332.61 223.265 319.097 224.552 309.731 230.314C309.524 230.442 309.514 230.68 309.731 230.601C318.687 227.312 327.986 225.047 337.451 223.849C337.462 223.844 337.471 223.837 337.477 223.827C337.484 223.817 337.487 223.806 337.487 223.794C337.487 223.783 337.484 223.772 337.477 223.762C337.471 223.752 337.462 223.745 337.451 223.74V223.74Z" fill="#263238"/>
<path d="M301.831 206.752C303.138 205.306 304.989 204.772 306.613 203.782C306.702 203.732 306.781 203.881 306.692 203.92C303.831 205.118 300.831 207.95 301.307 211.306C301.881 215.345 306.722 216.374 310.078 216.463C310.246 216.463 310.167 216.652 309.999 216.681C306.266 217.335 301 216.038 300.307 211.642C300.175 210.765 300.243 209.869 300.507 209.022C300.771 208.175 301.224 207.399 301.831 206.752V206.752Z" fill="#263238"/>
<path d="M310.543 216.335C310.632 216.335 310.702 216.434 310.613 216.473C305.445 218.453 302.257 222.047 302 224.087C301.814 225.074 301.934 226.094 302.342 227.012C302.751 227.93 303.429 228.701 304.286 229.225C306.081 230.213 308.165 230.542 310.177 230.155C310.345 230.155 310.405 230.373 310.246 230.403C307.821 230.848 303.158 231.393 301.475 227.482C300.069 224.215 301.643 218.79 310.543 216.335Z" fill="#263238"/>
<path d="M306.732 232.848C307.763 231.402 309.258 230.354 310.969 229.878C311.048 229.878 311.108 229.987 310.969 230.017C307.999 231.214 305.455 234.769 306.405 238.065C306.464 238.273 306.158 238.333 306.088 238.145C305.782 237.271 305.681 236.34 305.792 235.421C305.904 234.503 306.225 233.622 306.732 232.848V232.848Z" fill="#263238"/>
<path d="M305.108 187.001C305.346 185.516 307.217 184.031 310.811 183.358C307.841 184.17 305.672 185.774 305.692 187.219C305.712 188.664 306.781 190.189 309.929 191.882C310.019 191.882 309.929 191.971 309.86 191.931C307.999 191.07 304.692 189.664 305.108 187.001Z" fill="#263238"/>
<path d="M381.15 241.689L327.294 259.826C327.294 259.826 346.916 320.265 356.182 333.244C365.449 346.223 378.299 343.886 385.714 327.789C393.129 311.692 381.15 241.689 381.15 241.689Z" fill="#FF006D"/>
<path d="M352.737 261.271C351.98 261.021 351.169 260.98 350.391 261.152C349.968 261.311 349.604 261.593 349.344 261.962C349.085 262.331 348.942 262.77 348.935 263.221C348.938 263.521 348.865 263.818 348.723 264.082C348.581 264.347 348.375 264.572 348.124 264.736C347.846 264.916 347.524 265.019 347.193 265.033C346.827 265.112 346.45 265.152 346.084 265.251C346.839 265.517 347.657 265.548 348.43 265.34C348.844 265.164 349.196 264.87 349.442 264.495C349.689 264.12 349.819 263.68 349.816 263.231C349.821 262.934 349.902 262.644 350.051 262.387C350.2 262.131 350.412 261.917 350.668 261.766C350.968 261.588 351.309 261.492 351.658 261.489C351.994 261.419 352.361 261.36 352.737 261.271Z" fill="white"/>
<path d="M364.033 303.851C363.276 303.601 362.465 303.559 361.687 303.732C361.263 303.889 360.897 304.17 360.637 304.54C360.377 304.909 360.235 305.349 360.231 305.801C360.234 306.101 360.161 306.397 360.019 306.662C359.877 306.927 359.671 307.152 359.419 307.316C359.141 307.496 358.82 307.599 358.489 307.613C358.123 307.692 357.746 307.732 357.38 307.831C358.135 308.097 358.953 308.128 359.726 307.92C360.14 307.744 360.492 307.45 360.738 307.075C360.985 306.7 361.115 306.26 361.112 305.811C361.117 305.514 361.198 305.224 361.347 304.967C361.496 304.711 361.708 304.497 361.964 304.346C362.262 304.165 362.605 304.069 362.954 304.069C363.33 303.989 363.657 303.93 364.033 303.851Z" fill="white"/>
<path d="M359.221 336.838C359.459 337.075 359.697 337.293 359.934 337.501C359.969 337.237 360.062 336.984 360.208 336.761C360.354 336.539 360.548 336.351 360.776 336.214C361.075 336.036 361.418 335.944 361.766 335.947C362.132 335.877 362.508 335.828 362.884 335.729C362.127 335.479 361.317 335.438 360.538 335.61C360.242 335.706 359.971 335.866 359.744 336.078C359.516 336.29 359.338 336.549 359.221 336.838V336.838Z" fill="white"/>
<path d="M340.699 289.021C341.055 289.734 341.599 290.336 342.273 290.763C342.682 290.952 343.139 291.011 343.583 290.933C344.027 290.855 344.437 290.644 344.758 290.327C344.967 290.112 345.227 289.953 345.515 289.866C345.803 289.78 346.108 289.768 346.401 289.832C346.727 289.897 347.029 290.051 347.272 290.278C347.589 290.486 347.886 290.714 348.213 290.912C347.787 290.308 347.47 289.565 346.619 289.189C346.204 289.023 345.749 288.982 345.311 289.072C344.872 289.162 344.47 289.378 344.154 289.694C343.938 289.902 343.673 290.051 343.384 290.127C343.094 290.203 342.79 290.204 342.5 290.129C342.176 290.05 341.879 289.886 341.639 289.654C341.322 289.446 341.035 289.209 340.699 289.021Z" fill="white"/>
<path d="M377.368 292.832C377.728 293.543 378.271 294.145 378.942 294.575C379.353 294.762 379.812 294.821 380.257 294.744C380.703 294.666 381.114 294.455 381.437 294.139C381.646 293.923 381.907 293.764 382.194 293.678C382.482 293.591 382.787 293.579 383.081 293.644C383.407 293.709 383.708 293.863 383.952 294.089C384.259 294.297 384.556 294.535 384.942 294.723C384.506 294.119 384.199 293.377 383.338 293C382.923 292.834 382.468 292.794 382.03 292.883C381.592 292.973 381.189 293.189 380.873 293.505C380.659 293.713 380.396 293.862 380.108 293.939C379.82 294.015 379.518 294.016 379.229 293.941C378.903 293.859 378.604 293.695 378.358 293.466C378.002 293.258 377.705 293.04 377.368 292.832Z" fill="white"/>
<path d="M371.379 253.153C371.732 253.868 372.277 254.472 372.953 254.895C373.362 255.082 373.818 255.142 374.261 255.066C374.704 254.99 375.114 254.782 375.438 254.47C375.647 254.254 375.908 254.095 376.195 254.007C376.482 253.919 376.787 253.904 377.081 253.965C377.406 254.034 377.706 254.187 377.952 254.41C378.269 254.618 378.566 254.856 378.942 255.044C378.517 254.44 378.2 253.697 377.348 253.321C376.933 253.154 376.477 253.113 376.038 253.205C375.599 253.296 375.197 253.516 374.883 253.836C374.666 254.041 374.401 254.189 374.112 254.265C373.823 254.341 373.52 254.343 373.23 254.272C372.907 254.188 372.611 254.025 372.369 253.796C372.002 253.579 371.705 253.351 371.379 253.153Z" fill="white"/>
<path d="M366.003 273.24C365.749 273.996 365.705 274.807 365.874 275.586C366.034 276.008 366.317 276.372 366.686 276.631C367.055 276.89 367.493 277.033 367.943 277.042C368.245 277.034 368.542 277.105 368.808 277.248C369.073 277.39 369.297 277.599 369.458 277.853C369.648 278.124 369.754 278.444 369.765 278.774C369.834 279.15 369.884 279.517 369.983 279.893C370.246 279.137 370.273 278.319 370.062 277.546C369.889 277.133 369.597 276.781 369.224 276.534C368.85 276.287 368.411 276.157 367.963 276.161C367.664 276.155 367.372 276.073 367.114 275.922C366.855 275.771 366.64 275.557 366.488 275.299C366.321 275.013 366.226 274.69 366.211 274.359C366.142 274.022 366.102 273.646 366.003 273.24Z" fill="white"/>
<path d="M373.151 322.037C372.901 322.794 372.86 323.605 373.032 324.383C373.188 324.806 373.468 325.171 373.836 325.43C374.203 325.69 374.641 325.833 375.091 325.839C375.393 325.836 375.691 325.908 375.957 326.05C376.224 326.192 376.45 326.398 376.616 326.651C376.796 326.929 376.899 327.25 376.913 327.581C376.982 327.947 377.032 328.324 377.131 328.7C377.39 327.94 377.421 327.121 377.22 326.344C377.044 325.932 376.749 325.581 376.374 325.336C375.999 325.091 375.559 324.963 375.111 324.968C374.813 324.959 374.521 324.876 374.264 324.725C374.006 324.575 373.79 324.362 373.636 324.106C373.461 323.805 373.369 323.464 373.369 323.116C373.289 322.79 373.23 322.413 373.151 322.037Z" fill="white"/>
<path d="M333.303 269.914C336.232 268.578 339.229 267.398 342.283 266.379C345.352 265.191 348.45 264.142 351.549 263.083C357.568 261.013 363.637 259.172 369.706 257.351C373.24 256.281 376.794 255.371 380.328 254.381C380.457 254.381 380.507 254.598 380.328 254.648C374.25 256.925 368.191 259.291 362.063 261.419C355.935 263.548 350.015 265.518 343.936 267.31C342.203 267.825 340.451 268.3 338.709 268.765C336.938 269.35 335.132 269.826 333.303 270.191C333.214 270.211 333.175 269.983 333.303 269.914Z" fill="#263238"/>
<path d="M326.205 259.964C326.354 259.479 332.323 257.925 332.63 257.836C332.719 257.836 332.759 257.954 332.63 257.984C332.343 258.083 327.284 260.192 327.304 260.231C330.274 268.151 332.987 276.151 335.838 284.11C338.689 292.07 341.609 300.049 344.302 308.098C345.817 312.602 345.718 313.048 344.114 309.167C342.51 305.286 340.867 302.099 339.392 298.158C336.422 290.238 333.64 282.19 330.858 274.171C329.314 269.627 326.156 260.122 326.205 259.964Z" fill="#263238"/>
<path d="M232.185 354.054H262.815C265.783 354.051 268.629 352.87 270.726 350.771C272.824 348.671 274.002 345.825 274.002 342.857V342.857C274.004 341.386 273.715 339.93 273.154 338.571C272.592 337.212 271.769 335.977 270.73 334.937C269.691 333.896 268.457 333.07 267.099 332.506C265.741 331.942 264.286 331.651 262.815 331.65H232.185C229.217 331.653 226.371 332.833 224.274 334.933C222.176 337.033 220.998 339.879 220.998 342.847V342.847C220.996 344.317 221.285 345.774 221.846 347.133C222.408 348.492 223.231 349.727 224.27 350.767C225.309 351.808 226.543 352.634 227.901 353.198C229.259 353.762 230.714 354.052 232.185 354.054Z" fill="#455A64"/>
<path d="M256.113 342.669C256.099 342.313 255.982 341.969 255.776 341.679C255.697 341.54 255.598 341.411 255.509 341.273L254.915 340.689C254.687 340.52 254.469 340.352 254.232 340.194C253.291 339.595 252.241 339.188 251.143 338.996C248.614 338.491 246.01 338.491 243.48 338.996C242.396 339.181 241.359 339.582 240.431 340.174C240.184 340.332 239.956 340.51 239.718 340.679L239.154 341.253C239.003 341.469 238.864 341.694 238.738 341.926C238.643 342.166 238.56 342.41 238.491 342.659H238.669H243.54C243.58 342.665 243.621 342.657 243.657 342.637C243.693 342.618 243.721 342.587 243.738 342.55C243.874 342.283 244.079 342.057 244.331 341.896C244.583 341.734 244.874 341.642 245.173 341.629C246.63 341.535 248.092 341.535 249.549 341.629C249.847 341.641 250.137 341.731 250.389 341.891C250.642 342.051 250.847 342.275 250.985 342.54C250.994 342.575 251.014 342.606 251.043 342.627C251.072 342.649 251.107 342.66 251.143 342.659H256.093L256.113 342.669Z" fill="white"/>
<path d="M256.123 345.51V343.797C256.128 343.758 256.128 343.718 256.123 343.678H251.173C251.173 343.787 251.173 343.916 251.173 344.035C251.173 344.52 251.173 345.025 251.173 345.49C251.161 345.576 251.17 345.663 251.198 345.746C251.226 345.828 251.272 345.902 251.333 345.963C251.395 346.025 251.469 346.071 251.551 346.099C251.633 346.127 251.721 346.135 251.806 346.124H255.509C255.592 346.133 255.676 346.124 255.755 346.096C255.834 346.069 255.905 346.024 255.964 345.965C256.023 345.906 256.068 345.834 256.096 345.756C256.123 345.677 256.132 345.593 256.123 345.51V345.51Z" fill="white"/>
<path d="M243.481 345.51C243.481 344.886 243.481 344.272 243.431 343.649H238.541C238.541 343.649 238.541 343.718 238.541 343.758V345.51C238.531 345.592 238.54 345.674 238.567 345.752C238.594 345.829 238.638 345.9 238.696 345.958C238.754 346.016 238.825 346.06 238.903 346.087C238.98 346.114 239.063 346.123 239.144 346.114H242.887C242.967 346.122 243.049 346.111 243.125 346.084C243.202 346.056 243.271 346.012 243.328 345.954C243.385 345.896 243.428 345.826 243.455 345.749C243.481 345.672 243.49 345.591 243.481 345.51V345.51Z" fill="white"/>
<path d="M244.223 165.548C246.141 162.707 247.175 159.362 247.193 155.935C247.193 143.758 233.818 133.888 217.335 133.888C200.851 133.888 187.486 143.788 187.486 155.935C187.486 168.082 200.851 177.992 217.335 177.992C224.66 178.109 231.846 175.981 237.927 171.894L248.213 174.507L244.223 165.548Z" fill="#F3F3F3"/>
<path d="M206.603 155.935C206.605 156.549 206.425 157.149 206.085 157.66C205.745 158.171 205.261 158.57 204.695 158.806C204.128 159.041 203.504 159.104 202.902 158.984C202.3 158.865 201.747 158.57 201.313 158.136C200.879 157.702 200.584 157.149 200.465 156.547C200.346 155.945 200.408 155.321 200.643 154.754C200.879 154.188 201.278 153.704 201.789 153.364C202.3 153.024 202.901 152.844 203.514 152.846C204.333 152.849 205.117 153.175 205.696 153.754C206.274 154.332 206.6 155.116 206.603 155.935V155.935Z" fill="#263238"/>
<path d="M217.345 159.034C215.633 159.034 214.246 157.646 214.246 155.935C214.246 154.224 215.633 152.836 217.345 152.836C219.056 152.836 220.443 154.224 220.443 155.935C220.443 157.646 219.056 159.034 217.345 159.034Z" fill="#263238"/>
<path d="M234.274 155.935C234.276 156.549 234.095 157.149 233.755 157.66C233.416 158.171 232.932 158.57 232.365 158.806C231.799 159.041 231.175 159.104 230.573 158.984C229.971 158.865 229.418 158.57 228.984 158.136C228.55 157.702 228.255 157.149 228.135 156.547C228.016 155.945 228.078 155.321 228.314 154.754C228.55 154.188 228.948 153.704 229.46 153.364C229.971 153.024 230.571 152.844 231.185 152.846C232.003 152.849 232.787 153.175 233.366 153.754C233.945 154.332 234.271 155.116 234.274 155.935V155.935Z" fill="#263238"/>
</svg>
