<svg width="402" height="393" viewBox="0 0 402 393" fill="none" xmlns="http://www.w3.org/2000/svg">
<path d="M201.174 392.915C311.84 392.915 401.553 341.12 401.553 277.228C401.553 213.336 311.84 161.541 201.174 161.541C90.5071 161.541 0.794312 213.336 0.794312 277.228C0.794312 341.12 90.5071 392.915 201.174 392.915Z" fill="#F5F5F5"/>
<path d="M385.789 274.151L354.888 291.994L241.5 226.531L272.486 208.739L385.789 274.151Z" fill="#E0E0E0"/>
<path d="M74.8115 270.432L38.5341 249.521C38.3481 249.46 38.1861 249.342 38.0713 249.183C37.9565 249.024 37.8947 248.834 37.8947 248.638C37.8947 248.442 37.9565 248.251 38.0713 248.092C38.1861 247.934 38.3481 247.816 38.5341 247.754L128.196 195.798C128.669 195.559 129.192 195.434 129.722 195.434C130.252 195.434 130.775 195.559 131.248 195.798L167.525 216.709C167.711 216.77 167.873 216.888 167.988 217.047C168.103 217.206 168.164 217.396 168.164 217.592C168.164 217.788 168.103 217.979 167.988 218.138C167.873 218.296 167.711 218.414 167.525 218.476L77.8628 270.424C77.3904 270.664 76.8682 270.79 76.3381 270.792C75.8081 270.793 75.2851 270.67 74.8115 270.432Z" fill="#E6E6E6"/>
<path d="M22.1364 265.234C13.1178 270.5 13.1178 279.028 22.1364 284.294C31.155 289.56 45.8029 289.56 54.7877 284.294C63.7725 279.028 63.8064 270.5 54.7877 265.234C45.7691 259.968 31.155 259.968 22.1364 265.234Z" fill="#E6E6E6"/>
<path d="M196.491 378.563C228.477 378.563 254.407 363.592 254.407 345.125C254.407 326.658 228.477 311.688 196.491 311.688C164.506 311.688 138.576 326.658 138.576 345.125C138.576 363.592 164.506 378.563 196.491 378.563Z" fill="#E0E0E0"/>
<path d="M328.305 60.0113L326.86 60.8734L297.319 43.8166L298.756 42.9545L328.305 60.0113Z" fill="#FAFAFA"/>
<path d="M298.756 42.9548L326.86 59.1748V29.7438L298.756 13.5322V42.9548Z" fill="white"/>
<path d="M294.597 45.4141L329.582 65.6067V28.1798L294.597 7.97876V45.4141ZM297.319 12.7205L326.86 29.7435V60.8734L297.277 43.8166L297.319 12.7205Z" fill="#F0F0F0"/>
<path d="M297.319 43.8168L298.756 42.9547V13.5321L297.319 12.6869V43.8168Z" fill="#E0E0E0"/>
<path d="M294.598 7.97911L296.06 7.14233L331.045 27.3434L329.582 28.1802L294.598 7.97911Z" fill="#FAFAFA"/>
<path d="M331.044 27.343L329.582 28.1798V65.5813L331.044 64.7361V27.343Z" fill="#E0E0E0"/>
<path d="M299.855 42.0757L325.77 57.0363V49.556L319.287 34.5954L315.255 38.3314L316.709 44.603L307.758 25.4669L299.855 34.5954V42.0757Z" fill="#F0F0F0"/>
<path d="M315.5 27.3685C316.057 27.7325 316.521 28.2232 316.853 28.8004C317.185 29.3777 317.376 30.0252 317.41 30.6903C317.41 31.9159 316.565 32.3807 315.5 31.7975C314.947 31.4368 314.486 30.9515 314.154 30.3805C313.822 29.8095 313.629 29.1688 313.59 28.5096C313.59 27.2586 314.435 26.7599 315.5 27.3685Z" fill="#F0F0F0"/>
<path d="M374.92 101.445L373.483 102.298L343.933 85.2415L345.37 84.3794L374.92 101.445Z" fill="#FAFAFA"/>
<path d="M345.37 84.3793L373.483 100.608V71.1768L345.37 54.9568V84.3793Z" fill="white"/>
<path d="M341.22 86.8307L376.196 107.032V69.6048L341.22 49.4122V86.8307ZM343.933 54.1371L373.517 71.2023V102.298L343.933 85.2416V54.1371Z" fill="#F0F0F0"/>
<path d="M343.933 85.2416L345.37 84.3795V54.9569L343.933 54.1117V85.2416Z" fill="#E0E0E0"/>
<path d="M341.22 49.4122L342.683 48.5754L377.658 68.768L376.196 69.6048L341.22 49.4122Z" fill="#FAFAFA"/>
<path d="M377.658 68.7681L376.196 69.6049V107.006L377.658 106.17V68.7681Z" fill="#E0E0E0"/>
<path d="M346.469 83.5004L372.384 98.461V90.9807L365.901 76.0201L361.869 79.7645L363.323 86.0361L354.372 66.9L346.469 76.0201V83.5004Z" fill="#F0F0F0"/>
<path d="M362.114 68.8018C362.671 69.165 363.134 69.6543 363.466 70.23C363.797 70.8057 363.989 71.4515 364.024 72.1151C364.024 73.3407 363.179 73.8056 362.114 73.2224C361.556 72.8601 361.092 72.3712 360.758 71.7954C360.425 71.2197 360.232 70.5734 360.196 69.909C360.196 68.6835 361.058 68.1848 362.114 68.8018Z" fill="#F0F0F0"/>
<path d="M23.4718 131.366L25.7708 132.735L111.951 82.7484L109.652 81.3792L23.4718 131.366Z" fill="#FAFAFA"/>
<path d="M109.652 81.3791L25.7793 130.022V58.8621L109.652 10.2274V81.3791Z" fill="white"/>
<path d="M67.7791 32.0767V105.95L72.1235 103.44V29.5579L67.7791 32.0767Z" fill="#F0F0F0"/>
<path d="M65.6067 30.8088L67.7789 32.0767V105.95L65.6067 104.691V30.8088Z" fill="#E0E0E0"/>
<path d="M116.304 1.34387L21.4264 56.3516V140.266L116.304 85.2585V1.34387ZM111.951 82.7482L25.7793 132.735V58.8619L111.951 8.87489V82.7482Z" fill="#F0F0F0"/>
<path d="M111.951 82.7484L109.652 81.3792V10.2275L111.951 8.87512V82.7484Z" fill="#E0E0E0"/>
<path d="M116.304 1.34392L113.963 0L19.0853 55.0077L21.4266 56.3516L116.304 1.34392Z" fill="#FAFAFA"/>
<path d="M19.0852 55.0078L21.4265 56.3517V140.266L19.0852 138.931V55.0078Z" fill="#E0E0E0"/>
<path d="M67.7791 34.5787L72.1151 32.0768V34.5871L67.7791 37.089V34.5787Z" fill="#E0E0E0"/>
<path opacity="0.15" d="M67.7789 37.089L65.6067 35.8296L67.7789 34.5786V37.089Z" fill="black"/>
<path d="M82.4865 250.206L79.3675 265.665L76.3416 267.415L73.341 265.682L70.1968 250.206L76.3416 246.656L82.4865 250.206Z" fill="#E0E0E0"/>
<path opacity="0.05" d="M82.4865 250.206L79.3675 265.665L76.3416 267.415L73.341 265.682L70.1968 250.206L76.3416 246.656L82.4865 250.206Z" fill="black"/>
<path d="M76.3416 267.414V253.756L82.4864 250.206L79.3675 265.665L76.3416 267.414Z" fill="#EBEBEB"/>
<path opacity="0.05" d="M82.4865 250.206L80.4748 260.188L76.3416 262.571L72.2253 260.196L70.1968 250.206L76.3416 246.656L82.4865 250.206Z" fill="black"/>
<path d="M55.4645 234.611L52.354 250.062L49.3196 251.812L46.3191 250.079L43.1748 234.611L49.3196 231.061L55.4645 234.611Z" fill="#E0E0E0"/>
<path opacity="0.05" d="M55.4645 234.611L52.354 250.062L49.3196 251.812L46.3191 250.079L43.1748 234.611L49.3196 231.061L55.4645 234.611Z" fill="black"/>
<path d="M49.3196 251.812V238.153L55.4644 234.611L52.354 250.062L49.3196 251.812Z" fill="#EBEBEB"/>
<path opacity="0.05" d="M55.4645 234.611L53.4528 244.585L49.3196 246.977L45.2034 244.602L43.1748 234.611L49.3196 231.061L55.4645 234.611Z" fill="black"/>
<path opacity="0.05" d="M162.403 204.064L159.284 219.524L156.258 221.265L153.258 219.532L150.113 204.064L156.258 200.514L162.403 204.064Z" fill="black"/>
<path d="M156.259 221.265V207.606L162.403 204.065L159.284 219.524L156.259 221.265Z" fill="#EBEBEB"/>
<path opacity="0.05" d="M162.403 204.064L160.391 214.047L156.258 216.43L152.142 214.055L150.113 204.064L156.258 200.514L162.403 204.064Z" fill="black"/>
<path d="M76.3416 260.078L42.8535 240.748V168.277L76.3416 187.616V260.078Z" fill="#E0E0E0"/>
<path d="M76.3418 187.616L164.145 136.919V209.381L76.3418 260.078V187.616Z" fill="#EBEBEB"/>
<path d="M164.144 136.919L76.3416 187.616L42.8535 168.277L130.665 117.589L164.144 136.919Z" fill="#F5F5F5"/>
<path d="M81.1257 223.513L159.36 178.336V204.935L160.239 205.442L82.0048 250.611L81.1257 250.104V223.513Z" fill="#E0E0E0"/>
<path d="M82.0044 224.02L160.239 178.851V205.442L82.0044 250.611V224.02Z" fill="#F5F5F5"/>
<path d="M119.617 207.327L126.126 203.574C126.971 203.084 127.655 203.304 127.655 204.064C127.595 204.535 127.425 204.985 127.159 205.378C126.894 205.772 126.54 206.098 126.126 206.33L119.617 210.091C118.772 210.581 118.087 210.353 118.087 209.592C118.15 209.122 118.321 208.673 118.586 208.28C118.852 207.887 119.205 207.561 119.617 207.327Z" fill="#E0E0E0"/>
<path d="M81.1254 191.403L159.36 146.225V172.825L160.239 173.332L81.996 218.501L81.1169 217.994L81.1254 191.403Z" fill="#E0E0E0"/>
<path d="M81.9963 191.91L160.24 146.732V173.332L81.9963 218.501V191.91Z" fill="#F5F5F5"/>
<path d="M119.617 175.217L126.126 171.455C126.971 170.973 127.655 171.193 127.655 171.954C127.593 172.424 127.422 172.873 127.157 173.266C126.891 173.659 126.538 173.986 126.126 174.219L119.617 177.98C118.772 178.462 118.087 178.242 118.087 177.482C118.149 177.011 118.32 176.562 118.585 176.169C118.851 175.776 119.204 175.45 119.617 175.217Z" fill="#E0E0E0"/>
<path d="M141.873 126.92C145.938 129.261 145.938 133.065 141.873 135.372C137.807 137.68 131.24 137.714 127.174 135.372C123.108 133.031 123.117 129.228 127.174 126.92C131.231 124.613 137.782 124.579 141.873 126.92Z" fill="#E0E0E0"/>
<path d="M128.061 131.687C124.528 128.078 122.449 119.076 125.897 116.211H143.444C146.884 119.076 144.814 128.044 141.281 131.679L141.188 131.78L141.061 131.898C140.96 132.001 140.852 132.097 140.74 132.186L140.655 132.253L140.393 132.456C140.241 132.558 140.089 132.659 139.937 132.744C138.305 133.573 136.501 134.005 134.671 134.005C132.841 134.005 131.037 133.573 129.405 132.744C129.245 132.654 129.089 132.555 128.94 132.448L128.695 132.262L128.594 132.177C128.484 132.093 128.382 132 128.281 131.907L128.146 131.772L128.061 131.687Z" fill="#EBEBEB"/>
<path d="M141.915 115.061C145.921 117.369 145.921 121.122 141.915 123.429C137.908 125.737 131.426 125.737 127.419 123.429C123.413 121.122 123.421 117.369 127.419 115.061C131.417 112.754 137.917 112.745 141.915 115.061Z" fill="#FAFAFA"/>
<path d="M139.084 116.701C141.518 118.104 141.518 120.386 139.084 121.773C137.716 122.464 136.204 122.824 134.671 122.824C133.139 122.824 131.627 122.464 130.259 121.773C127.825 120.369 127.825 118.087 130.259 116.701C131.626 116.005 133.138 115.642 134.671 115.642C136.205 115.642 137.717 116.005 139.084 116.701Z" fill="#F5F5F5"/>
<path d="M130.259 119.119C131.626 118.422 133.138 118.059 134.671 118.059C136.205 118.059 137.717 118.422 139.083 119.119C139.673 119.433 140.174 119.893 140.537 120.454C140.174 121.015 139.673 121.475 139.083 121.789C137.715 122.481 136.204 122.841 134.671 122.841C133.139 122.841 131.627 122.481 130.259 121.789C129.669 121.475 129.169 121.015 128.805 120.454C129.169 119.893 129.669 119.433 130.259 119.119Z" fill="#EBEBEB"/>
<path d="M138.542 120.454C139.786 119.192 140.858 117.771 141.729 116.228C143.208 113.625 143.478 110.134 142.718 109.703C141.957 109.272 138.855 112.754 138.855 112.754C139.139 111.29 139.247 109.798 139.176 108.308C139.049 105.992 138.483 103.879 137.824 103.456C137.165 103.034 135.668 105.992 135.035 108.08C134.401 110.168 134.012 111.943 134.012 111.943C133.758 110.29 133.377 108.659 132.871 107.066C132.102 104.86 131.4 104.361 130.851 104.581C130.301 104.8 129.955 105.823 129.794 108.756C129.731 110.166 129.773 111.579 129.921 112.982C129.921 112.982 128.831 111.782 127.613 110.616C126.396 109.449 125.712 109.153 125.331 109.398C124.951 109.644 124.849 111.638 126.912 115.366C127.935 117.269 129.25 119 130.808 120.496C130.808 120.496 133.665 122.331 138.542 120.454Z" fill="#E0E0E0"/>
<path d="M80.7791 172.072L82.0807 172.706L106.229 158.76L104.927 158.135L80.7791 172.072Z" fill="#FAFAFA"/>
<path d="M104.927 158.135L81.9536 171.396L78.6064 137.029L101.58 123.784L104.927 158.135Z" fill="white"/>
<path d="M104.741 119.38L76.1553 135.854L80.0941 176.425L108.68 159.926L104.741 119.38ZM106.229 158.76L82.0804 172.706L78.6149 137.029L102.763 123.091L106.229 158.76Z" fill="#F0F0F0"/>
<path d="M106.229 158.76L104.927 158.135L101.58 123.784L102.755 123.091L106.229 158.76Z" fill="#E0E0E0"/>
<path d="M104.741 119.381L103.423 118.772L74.8286 135.279L76.1556 135.888L104.741 119.381Z" fill="#FAFAFA"/>
<path d="M74.8284 135.279L76.1554 135.888L80.0942 176.417L78.7756 175.8L74.8284 135.279Z" fill="#E0E0E0"/>
<path d="M103.913 157.483L82.7317 169.705L82.1738 163.915L86.1126 146.909L89.8654 152.716L89.0878 157.601L95.351 139.564L103.347 151.693L103.913 157.483Z" fill="#F0F0F0"/>
<path d="M85.7828 139.751C85.3419 140.028 84.9812 140.415 84.7366 140.875C84.4919 141.335 84.3718 141.851 84.3882 142.371C84.4812 143.318 85.2334 143.681 86.0787 143.216C86.519 142.939 86.8792 142.551 87.1238 142.091C87.3684 141.632 87.4889 141.116 87.4733 140.596C87.4226 139.616 86.6534 139.235 85.7828 139.751Z" fill="#F0F0F0"/>
<path d="M247.763 222.643L271.371 209.018L378.698 270.99V273.576L355.091 287.21L247.763 225.238V222.643Z" fill="#EBEBEB"/>
<path d="M355.091 284.615L247.763 222.643L271.371 209.018L378.698 270.99L355.091 284.615Z" fill="#F5F5F5"/>
<path d="M355.091 284.615V287.21L378.698 273.576V270.99L355.091 284.615Z" fill="#E0E0E0"/>
<path d="M247.763 127.858L271.371 114.225L273.61 115.518V210.311L250.003 223.944L247.763 222.643V127.858Z" fill="#EBEBEB"/>
<path d="M273.611 210.311L250.003 223.944V129.152L273.611 115.518V210.311Z" fill="#E0E0E0"/>
<path d="M276.163 179.764L258.151 190.169V225.668L276.163 215.264V179.764Z" fill="#E0E0E0"/>
<path d="M258.734 190.735L276.163 180.736C277.224 181.869 278.619 182.633 280.144 182.917L262.876 192.874C261.406 192.349 260.013 191.63 258.734 190.735Z" fill="white"/>
<path d="M264.567 192.814C264.043 193.083 263.464 193.223 262.876 193.223C262.288 193.223 261.709 193.083 261.186 192.814L258.244 191.124C258.041 191.057 257.865 190.928 257.739 190.755C257.614 190.582 257.547 190.374 257.547 190.16C257.547 189.947 257.614 189.738 257.739 189.565C257.865 189.392 258.041 189.263 258.244 189.197L275.419 179.341L276.155 179.755L259.25 189.518C258.692 189.831 258.692 190.363 259.25 190.667L261.98 192.214C262.292 192.37 262.637 192.452 262.986 192.452C263.335 192.452 263.68 192.37 263.992 192.214L280.896 182.477L281.742 182.95L264.567 192.814Z" fill="#FAFAFA"/>
<path d="M281.716 182.959V218.459L264.566 228.314C264.042 228.578 263.463 228.715 262.876 228.715C262.289 228.715 261.71 228.578 261.185 228.314L258.244 226.624C258.054 226.538 257.89 226.403 257.769 226.234C257.647 226.065 257.572 225.867 257.551 225.66V190.16C257.572 190.368 257.647 190.566 257.769 190.735C257.89 190.904 258.054 191.038 258.244 191.124L261.185 192.814C261.708 193.083 262.288 193.223 262.876 193.223C263.464 193.223 264.043 193.083 264.566 192.814L281.716 182.959Z" fill="#E0E0E0"/>
<path d="M262.876 193.212C262.287 193.229 261.705 193.092 261.185 192.814L258.244 191.124C258.054 191.038 257.89 190.904 257.769 190.734C257.647 190.565 257.572 190.367 257.551 190.16V225.66C257.572 225.867 257.647 226.065 257.769 226.234C257.89 226.403 258.054 226.538 258.244 226.624L261.185 228.314C261.706 228.589 262.288 228.725 262.876 228.711V193.212Z" fill="#F0F0F0"/>
<path d="M283.525 183.99L265.513 194.395V229.895L283.525 219.498V183.99Z" fill="#EBEBEB"/>
<path d="M266.096 194.961L283.525 184.962C284.585 186.095 285.98 186.859 287.506 187.143L270.229 197.1C268.763 196.574 267.372 195.855 266.096 194.961Z" fill="white"/>
<path d="M271.903 197.04C271.38 197.309 270.801 197.449 270.213 197.449C269.625 197.449 269.045 197.309 268.522 197.04L265.589 195.35C265.386 195.283 265.21 195.154 265.084 194.981C264.959 194.808 264.892 194.6 264.892 194.386C264.892 194.173 264.959 193.965 265.084 193.792C265.21 193.619 265.386 193.489 265.589 193.423L282.764 183.567L283.491 183.982L266.587 193.744C266.467 193.786 266.364 193.863 266.291 193.966C266.217 194.069 266.178 194.192 266.178 194.319C266.178 194.445 266.217 194.568 266.291 194.671C266.364 194.774 266.467 194.852 266.587 194.894L269.317 196.44C269.628 196.598 269.973 196.681 270.322 196.681C270.672 196.681 271.017 196.598 271.328 196.44L288.233 186.703L289.078 187.177L271.903 197.04Z" fill="#FAFAFA"/>
<path d="M289.079 187.185V222.685L271.903 232.54C271.38 232.809 270.801 232.949 270.213 232.949C269.625 232.949 269.046 232.809 268.523 232.54L265.59 230.85C265.399 230.765 265.234 230.631 265.112 230.462C264.991 230.293 264.916 230.094 264.896 229.886V194.386C264.916 194.594 264.991 194.793 265.112 194.962C265.234 195.132 265.399 195.265 265.59 195.35L268.523 197.04C269.046 197.309 269.625 197.449 270.213 197.449C270.801 197.449 271.38 197.309 271.903 197.04L289.079 187.185Z" fill="#E0E0E0"/>
<path d="M270.23 197.438C269.641 197.455 269.058 197.318 268.539 197.041L265.606 195.35C265.416 195.265 265.251 195.132 265.129 194.962C265.007 194.793 264.933 194.594 264.913 194.386V229.886C264.933 230.094 265.007 230.293 265.129 230.462C265.251 230.631 265.416 230.765 265.606 230.85L268.539 232.54C269.06 232.815 269.641 232.951 270.23 232.938V197.438Z" fill="#F0F0F0"/>
<path d="M298.071 193.161L280.06 203.566V237.823L298.071 227.418V193.161Z" fill="#E0E0E0"/>
<path d="M280.626 204.132L298.071 194.175C299.135 195.302 300.529 196.063 302.052 196.347L284.776 206.313C283.301 205.775 281.905 205.042 280.626 204.132Z" fill="white"/>
<path d="M286.449 206.211C285.925 206.475 285.346 206.613 284.759 206.613C284.172 206.613 283.593 206.475 283.069 206.211L280.127 204.521C279.927 204.452 279.754 204.323 279.631 204.151C279.508 203.979 279.442 203.773 279.442 203.561C279.442 203.35 279.508 203.144 279.631 202.972C279.754 202.8 279.927 202.671 280.127 202.602L297.311 192.747L298.038 193.161L281.133 202.915C281.011 202.954 280.904 203.032 280.828 203.136C280.753 203.24 280.712 203.365 280.712 203.494C280.712 203.622 280.753 203.748 280.828 203.852C280.904 203.956 281.011 204.033 281.133 204.073L283.863 205.62C284.175 205.776 284.52 205.857 284.869 205.857C285.218 205.857 285.562 205.776 285.875 205.62L302.779 195.891L303.625 196.356L286.449 206.211Z" fill="#FAFAFA"/>
<path d="M303.625 196.347V230.605L286.45 240.46C285.926 240.729 285.347 240.869 284.759 240.869C284.171 240.869 283.592 240.729 283.069 240.46L280.127 238.77C279.938 238.686 279.774 238.553 279.652 238.385C279.53 238.218 279.455 238.021 279.434 237.815V203.557C279.454 203.765 279.528 203.964 279.65 204.133C279.772 204.302 279.937 204.436 280.127 204.521L283.069 206.211C283.592 206.48 284.171 206.62 284.759 206.62C285.347 206.62 285.926 206.48 286.45 206.211L303.625 196.347Z" fill="#E0E0E0"/>
<path d="M284.776 206.609C284.188 206.622 283.606 206.486 283.085 206.211L280.144 204.521C279.953 204.436 279.789 204.302 279.667 204.133C279.545 203.964 279.471 203.765 279.451 203.557V237.823C279.472 238.029 279.547 238.226 279.669 238.394C279.791 238.562 279.955 238.694 280.144 238.778L283.085 240.469C283.605 240.746 284.187 240.883 284.776 240.866V206.609Z" fill="#F0F0F0"/>
<path d="M305.434 197.387L287.43 207.792V242.049L305.434 231.644V197.387Z" fill="#EBEBEB"/>
<path d="M288.005 208.358L305.434 198.401C306.498 199.529 307.891 200.293 309.415 200.582L292.138 210.539C290.669 210 289.279 209.267 288.005 208.358Z" fill="white"/>
<path d="M293.812 210.437C293.288 210.706 292.709 210.846 292.121 210.846C291.533 210.846 290.954 210.706 290.431 210.437L287.498 208.747C287.295 208.68 287.118 208.551 286.993 208.378C286.867 208.205 286.8 207.997 286.8 207.783C286.8 207.57 286.867 207.362 286.993 207.189C287.118 207.016 287.295 206.886 287.498 206.82L304.673 196.964L305.4 197.379L288.495 207.132C288.377 207.176 288.274 207.255 288.202 207.359C288.13 207.462 288.091 207.585 288.091 207.711C288.091 207.838 288.13 207.961 288.202 208.064C288.274 208.168 288.377 208.247 288.495 208.29L291.225 209.837C291.538 209.992 291.882 210.072 292.231 210.072C292.58 210.072 292.924 209.992 293.237 209.837L310.209 200.092L311.054 200.565L293.812 210.437Z" fill="#FAFAFA"/>
<path d="M310.987 200.574V234.839L293.811 244.695C293.287 244.959 292.708 245.096 292.121 245.096C291.534 245.096 290.955 244.959 290.43 244.695L287.498 243.004C287.307 242.922 287.142 242.79 287.02 242.622C286.898 242.454 286.824 242.256 286.804 242.049V207.792C286.824 207.999 286.898 208.196 287.02 208.364C287.142 208.532 287.307 208.665 287.498 208.747L290.43 210.437C290.954 210.706 291.533 210.846 292.121 210.846C292.709 210.846 293.288 210.706 293.811 210.437L310.987 200.574Z" fill="#E0E0E0"/>
<path d="M292.138 210.835C291.55 210.847 290.968 210.711 290.448 210.437L287.515 208.747C287.324 208.664 287.159 208.532 287.037 208.364C286.915 208.196 286.841 207.998 286.822 207.792V242.049C286.841 242.256 286.915 242.453 287.037 242.621C287.159 242.79 287.324 242.922 287.515 243.004L290.448 244.695C290.968 244.968 291.55 245.105 292.138 245.092V210.835Z" fill="#F0F0F0"/>
<path d="M317.732 206.49L299.72 216.895L305.315 252.183L323.319 241.787L317.732 206.49Z" fill="#EBEBEB"/>
<path d="M300.43 217.385L317.867 207.378C319.226 208.379 320.828 209.001 322.507 209.178L305.222 219.143C303.565 218.735 301.958 218.145 300.43 217.385Z" fill="white"/>
<path d="M307.031 219.008C306.468 219.275 305.857 219.427 305.234 219.455C304.611 219.482 303.989 219.385 303.405 219.169L299.973 217.766C298.891 217.326 298.773 216.54 299.694 216.008L316.878 206.144L317.723 206.49L300.818 216.244C300.26 216.565 300.336 217.039 300.987 217.301L304.174 218.585C304.524 218.716 304.896 218.775 305.269 218.759C305.642 218.743 306.008 218.652 306.346 218.493L323.251 208.755L324.214 209.144L307.031 219.008Z" fill="#FAFAFA"/>
<path d="M324.214 209.144L329.81 244.433L312.626 254.297C312.062 254.566 311.45 254.719 310.825 254.746C310.201 254.774 309.577 254.676 308.992 254.457L305.569 253.063C305.028 252.843 304.723 252.539 304.673 252.217L299.086 216.92C299.136 217.242 299.432 217.546 299.973 217.766L303.405 219.169C303.989 219.385 304.611 219.482 305.234 219.455C305.857 219.427 306.468 219.275 307.031 219.008L324.214 209.144Z" fill="#E0E0E0"/>
<path d="M305.273 219.456C304.637 219.491 304.001 219.393 303.405 219.169L299.973 217.766C299.432 217.546 299.128 217.242 299.086 216.92L304.673 252.217C304.723 252.539 305.028 252.843 305.569 253.063L308.992 254.457C309.591 254.681 310.23 254.779 310.868 254.745L305.273 219.456Z" fill="#F0F0F0"/>
<path d="M330.579 212.829L312.567 223.226V256.655L330.579 246.258V212.829Z" fill="#E0E0E0"/>
<path d="M313.151 223.801L330.571 213.793C331.636 214.924 333.033 215.688 334.56 215.974L317.284 225.931C317.284 225.931 316.126 225.677 313.151 223.801Z" fill="white"/>
<path d="M318.957 225.871C318.433 226.138 317.854 226.277 317.267 226.277C316.679 226.277 316.1 226.138 315.576 225.871L312.643 224.181C312.443 224.112 312.27 223.983 312.147 223.811C312.024 223.639 311.958 223.433 311.958 223.222C311.958 223.01 312.024 222.804 312.147 222.632C312.27 222.46 312.443 222.331 312.643 222.262L329.818 212.407L330.545 212.821L313.641 222.575C313.083 222.896 313.083 223.42 313.641 223.725L316.371 225.271C316.681 225.429 317.024 225.512 317.372 225.512C317.72 225.512 318.064 225.429 318.374 225.271L335.279 215.534L336.124 216.008L318.957 225.871Z" fill="#FAFAFA"/>
<path d="M336.132 216.016V249.445L318.957 259.3C318.434 259.567 317.854 259.706 317.267 259.706C316.679 259.706 316.1 259.567 315.576 259.3L312.643 257.61C312.453 257.525 312.288 257.391 312.166 257.222C312.044 257.053 311.97 256.854 311.95 256.646V223.226C311.97 223.433 312.044 223.632 312.166 223.801C312.288 223.971 312.453 224.105 312.643 224.189L315.576 225.88C316.101 226.142 316.68 226.279 317.267 226.279C317.854 226.279 318.432 226.142 318.957 225.88L336.132 216.016Z" fill="#E0E0E0"/>
<path d="M317.284 226.294C316.696 226.305 316.114 226.169 315.593 225.897L312.66 224.206C312.469 224.122 312.305 223.988 312.183 223.819C312.061 223.649 311.987 223.45 311.967 223.243V256.672C311.987 256.879 312.061 257.078 312.183 257.247C312.305 257.417 312.469 257.551 312.66 257.635L315.593 259.326C316.112 259.603 316.695 259.74 317.284 259.723V226.294Z" fill="#F0F0F0"/>
<path d="M337.941 217.056L319.929 227.46V260.889L337.941 250.485V217.056Z" fill="#EBEBEB"/>
<path d="M320.512 228.027L337.941 218.028C339.004 219.155 340.398 219.915 341.922 220.2L324.645 230.165C323.178 229.64 321.788 228.921 320.512 228.027Z" fill="white"/>
<path d="M326.319 230.097C325.796 230.366 325.217 230.506 324.629 230.506C324.041 230.506 323.461 230.366 322.938 230.097L320.005 228.407C319.076 227.875 319.076 227.021 320.005 226.488L337.257 216.641L337.984 217.056L321.079 226.81C320.96 226.851 320.856 226.929 320.783 227.032C320.71 227.135 320.67 227.258 320.67 227.384C320.67 227.511 320.71 227.634 320.783 227.737C320.856 227.84 320.96 227.917 321.079 227.959L323.809 229.506C324.121 229.664 324.465 229.746 324.815 229.746C325.164 229.746 325.509 229.664 325.821 229.506L342.725 219.769L343.571 220.242L326.319 230.097Z" fill="#FAFAFA"/>
<path d="M343.494 220.242V253.671L326.319 263.526C325.796 263.795 325.217 263.935 324.629 263.935C324.041 263.935 323.461 263.795 322.938 263.526L319.997 261.836C319.807 261.752 319.643 261.618 319.522 261.448C319.402 261.279 319.329 261.08 319.312 260.872V227.452C319.329 227.659 319.402 227.858 319.522 228.028C319.643 228.197 319.807 228.331 319.997 228.415L322.938 230.106C323.463 230.37 324.042 230.507 324.629 230.507C325.216 230.507 325.795 230.37 326.319 230.106L343.494 220.242Z" fill="#E0E0E0"/>
<path d="M324.645 230.52C324.057 230.534 323.475 230.397 322.955 230.123L320.013 228.432C319.823 228.348 319.659 228.214 319.539 228.045C319.418 227.875 319.346 227.676 319.329 227.469V260.898C319.346 261.105 319.418 261.304 319.539 261.474C319.659 261.643 319.823 261.777 320.013 261.861L322.955 263.552C323.474 263.829 324.057 263.966 324.645 263.949V230.52Z" fill="#F0F0F0"/>
<path d="M353.417 224.916L335.405 235.321V269.578L353.417 259.174V224.916Z" fill="#E0E0E0"/>
<path d="M335.989 235.887L353.417 225.888C354.482 227.016 355.875 227.78 357.398 228.069L340.122 238.026C338.655 237.5 337.265 236.781 335.989 235.887Z" fill="white"/>
<path d="M341.795 237.967C341.272 238.235 340.693 238.375 340.105 238.375C339.517 238.375 338.937 238.235 338.414 237.967L335.481 236.276C335.278 236.209 335.102 236.08 334.976 235.907C334.851 235.734 334.784 235.526 334.784 235.313C334.784 235.099 334.851 234.891 334.976 234.718C335.102 234.545 335.278 234.416 335.481 234.349L352.656 224.494L353.383 224.908L336.479 234.662C336.36 234.705 336.258 234.784 336.186 234.888C336.114 234.991 336.075 235.115 336.075 235.241C336.075 235.367 336.114 235.49 336.186 235.594C336.258 235.697 336.36 235.776 336.479 235.82L339.209 237.367C339.522 237.521 339.866 237.601 340.215 237.601C340.563 237.601 340.908 237.521 341.22 237.367L358.125 227.629L358.97 228.103L341.795 237.967Z" fill="#FAFAFA"/>
<path d="M358.97 228.111V262.368L341.795 272.224C341.271 272.488 340.692 272.625 340.105 272.625C339.518 272.625 338.939 272.488 338.414 272.224L335.481 270.533C335.291 270.451 335.126 270.319 335.004 270.151C334.882 269.983 334.808 269.785 334.788 269.578V235.321C334.808 235.528 334.882 235.725 335.004 235.893C335.126 236.061 335.291 236.194 335.481 236.276L338.414 237.966C338.937 238.235 339.517 238.375 340.105 238.375C340.693 238.375 341.272 238.235 341.795 237.966L358.97 228.111Z" fill="#E0E0E0"/>
<path d="M340.122 238.364C339.534 238.377 338.952 238.24 338.431 237.967L335.498 236.276C335.308 236.194 335.143 236.061 335.021 235.893C334.899 235.725 334.824 235.528 334.805 235.321V269.578C334.824 269.785 334.899 269.983 335.021 270.151C335.143 270.319 335.308 270.451 335.498 270.533L338.431 272.224C338.952 272.497 339.534 272.634 340.122 272.621V238.364Z" fill="#F0F0F0"/>
<path d="M360.779 229.142L342.776 239.547V273.804L360.779 263.408V229.142Z" fill="#EBEBEB"/>
<path d="M343.351 240.113L360.779 230.114C361.843 231.247 363.241 232.011 364.769 232.295L347.484 242.252C346.017 241.726 344.627 241.007 343.351 240.113Z" fill="white"/>
<path d="M349.157 242.193C348.634 242.461 348.055 242.601 347.467 242.601C346.879 242.601 346.299 242.461 345.776 242.193L342.843 240.502C342.64 240.436 342.464 240.307 342.338 240.134C342.213 239.961 342.146 239.753 342.146 239.539C342.146 239.325 342.213 239.117 342.338 238.944C342.464 238.771 342.64 238.642 342.843 238.575L360.078 228.728L360.804 229.143L343.9 238.905C343.342 239.218 343.342 239.75 343.9 240.055L346.622 241.601C346.933 241.759 347.278 241.842 347.627 241.842C347.977 241.842 348.321 241.759 348.633 241.601L365.538 231.864L366.383 232.338L349.157 242.193Z" fill="#FAFAFA"/>
<path d="M366.332 232.337V266.595L349.157 276.45C348.634 276.718 348.055 276.858 347.467 276.858C346.879 276.858 346.299 276.718 345.776 276.45L342.843 274.759C342.653 274.675 342.488 274.541 342.366 274.372C342.244 274.202 342.17 274.004 342.15 273.796V239.547C342.17 239.755 342.244 239.954 342.366 240.123C342.488 240.292 342.653 240.426 342.843 240.511L345.776 242.201C346.299 242.47 346.879 242.61 347.467 242.61C348.055 242.61 348.634 242.47 349.157 242.201L366.332 232.337Z" fill="#E0E0E0"/>
<path d="M347.484 242.59C346.895 242.607 346.313 242.47 345.793 242.193L342.86 240.502C342.67 240.418 342.505 240.284 342.383 240.115C342.261 239.945 342.187 239.747 342.167 239.539V273.796C342.187 274.004 342.261 274.203 342.383 274.372C342.505 274.541 342.67 274.675 342.86 274.76L345.793 276.45C346.314 276.723 346.896 276.859 347.484 276.847V242.59Z" fill="#F0F0F0"/>
<path d="M250.003 178.276L273.611 164.634L378.698 225.322V227.917L355.091 241.559L250.003 180.863V178.276Z" fill="#EBEBEB"/>
<path d="M355.091 238.964L250.003 178.276L273.611 164.634L378.698 225.322L355.091 238.964Z" fill="#F5F5F5"/>
<path d="M355.091 238.964V241.559L378.698 227.917V225.322L355.091 238.964Z" fill="#E0E0E0"/>
<path d="M278.006 136.97L260.002 147.375L265.589 182.663L283.601 172.267L278.006 136.97Z" fill="#EBEBEB"/>
<path d="M260.712 147.865L278.15 137.857C279.506 138.859 281.105 139.48 282.781 139.658L265.505 149.623C263.847 149.216 262.24 148.627 260.712 147.865Z" fill="white"/>
<path d="M267.305 149.488C266.742 149.755 266.131 149.907 265.508 149.934C264.885 149.962 264.263 149.865 263.679 149.648L260.247 148.245C259.174 147.806 259.047 147.02 259.968 146.487L277.152 136.623L277.997 136.97L261.093 146.724C260.543 147.045 260.619 147.518 261.262 147.78L264.448 149.065C265.159 149.324 265.943 149.291 266.629 148.972L283.533 139.227L284.497 139.624L267.305 149.488Z" fill="#FAFAFA"/>
<path d="M284.489 139.624L290.084 174.912L272.901 184.776C272.338 185.046 271.727 185.199 271.104 185.226C270.481 185.254 269.859 185.155 269.275 184.937L265.843 183.542C265.302 183.322 264.998 183.018 264.956 182.697L259.36 147.4C259.411 147.721 259.715 148.025 260.248 148.245L263.679 149.648C264.264 149.865 264.886 149.962 265.508 149.934C266.131 149.907 266.742 149.755 267.305 149.488L284.489 139.624Z" fill="#E0E0E0"/>
<path d="M265.556 149.936C264.917 149.97 264.278 149.872 263.679 149.648L260.248 148.245C259.715 148.025 259.402 147.721 259.36 147.4L264.956 182.697C265.006 183.018 265.302 183.322 265.843 183.542L269.275 184.937C269.871 185.161 270.507 185.259 271.143 185.224L265.556 149.936Z" fill="#F0F0F0"/>
<path d="M300.041 146.91L282.029 157.306V191.563L300.041 181.167V146.91Z" fill="#EBEBEB"/>
<path d="M282.612 157.881L300.066 147.873C301.127 149.006 302.522 149.77 304.047 150.054L286.771 160.011C286.771 160.011 285.63 159.757 282.612 157.881Z" fill="white"/>
<path d="M288.419 159.952C287.896 160.22 287.316 160.36 286.728 160.36C286.14 160.36 285.561 160.22 285.038 159.952L282.096 158.261C281.896 158.193 281.723 158.063 281.6 157.891C281.477 157.719 281.411 157.513 281.411 157.302C281.411 157.09 281.477 156.884 281.6 156.712C281.723 156.54 281.896 156.411 282.096 156.342L299.271 146.487L300.007 146.901L283.102 156.655C282.544 156.976 282.544 157.5 283.102 157.805L285.832 159.351C286.144 159.51 286.489 159.592 286.838 159.592C287.188 159.592 287.532 159.51 287.844 159.351L304.749 149.614L305.594 150.088L288.419 159.952Z" fill="#FAFAFA"/>
<path d="M305.594 150.096V184.353L288.419 194.175C287.896 194.444 287.317 194.584 286.729 194.584C286.141 194.584 285.561 194.444 285.038 194.175L282.097 192.485C281.906 192.4 281.742 192.266 281.62 192.097C281.498 191.927 281.423 191.729 281.404 191.521V157.306C281.423 157.514 281.498 157.712 281.62 157.882C281.742 158.051 281.906 158.185 282.097 158.27L285.038 159.96C285.563 160.224 286.142 160.361 286.729 160.361C287.316 160.361 287.895 160.224 288.419 159.96L305.594 150.096Z" fill="#E0E0E0"/>
<path d="M286.745 160.366C286.157 160.38 285.575 160.243 285.055 159.969L282.114 158.278C281.923 158.194 281.758 158.06 281.636 157.89C281.515 157.721 281.44 157.522 281.42 157.315V191.572C281.44 191.78 281.515 191.978 281.636 192.148C281.758 192.317 281.923 192.451 282.114 192.535L285.055 194.226C285.574 194.503 286.157 194.64 286.745 194.623V160.366Z" fill="#F0F0F0"/>
<path d="M309.212 146.09L291.208 156.495V196.812L309.212 186.408V146.09Z" fill="#E0E0E0"/>
<path d="M291.783 157.061L309.212 147.062C310.276 148.195 311.673 148.959 313.201 149.243L295.916 159.2C294.449 158.674 293.059 157.955 291.783 157.061Z" fill="white"/>
<path d="M297.59 159.14C297.067 159.409 296.487 159.549 295.899 159.549C295.311 159.549 294.732 159.409 294.209 159.14L291.276 157.45C291.073 157.383 290.896 157.254 290.771 157.081C290.646 156.908 290.578 156.7 290.578 156.486C290.578 156.273 290.646 156.065 290.771 155.892C290.896 155.719 291.073 155.589 291.276 155.523L308.519 145.676L309.246 146.09L292.341 155.852C291.783 156.165 291.783 156.698 292.341 157.002L295.063 158.549C295.374 158.707 295.719 158.789 296.068 158.789C296.418 158.789 296.763 158.707 297.074 158.549L313.979 148.812L314.824 149.285L297.59 159.14Z" fill="#FAFAFA"/>
<path d="M314.765 149.285V189.602L297.59 199.458C297.065 199.722 296.486 199.859 295.899 199.859C295.312 199.859 294.733 199.722 294.209 199.458L291.276 197.767C291.085 197.685 290.92 197.553 290.799 197.385C290.677 197.217 290.602 197.019 290.583 196.812V156.495C290.602 156.702 290.677 156.901 290.799 157.07C290.92 157.24 291.085 157.374 291.276 157.458L294.209 159.149C294.732 159.417 295.311 159.557 295.899 159.557C296.487 159.557 297.067 159.417 297.59 159.149L314.765 149.285Z" fill="#E0E0E0"/>
<path d="M295.916 159.521C295.328 159.538 294.745 159.401 294.226 159.123L291.293 157.433C291.102 157.348 290.937 157.214 290.816 157.045C290.694 156.876 290.619 156.677 290.6 156.469V196.787C290.619 196.994 290.693 197.191 290.815 197.359C290.937 197.527 291.102 197.66 291.293 197.742L294.226 199.433C294.747 199.705 295.328 199.841 295.916 199.83V159.521Z" fill="#F0F0F0"/>
<path d="M316.574 150.324L298.57 160.721V201.038L316.574 190.634V150.324Z" fill="#EBEBEB"/>
<path d="M299.153 161.296L316.574 151.288C317.639 152.419 319.036 153.183 320.563 153.469L303.278 163.426C301.814 162.902 300.427 162.186 299.153 161.296Z" fill="white"/>
<path d="M304.96 163.366C304.436 163.633 303.857 163.772 303.27 163.772C302.682 163.772 302.103 163.633 301.579 163.366L298.646 161.676C298.446 161.607 298.273 161.478 298.15 161.306C298.027 161.134 297.961 160.928 297.961 160.717C297.961 160.505 298.027 160.299 298.15 160.127C298.273 159.955 298.446 159.826 298.646 159.757L315.821 149.893L316.548 150.316L299.644 160.07C299.52 160.107 299.412 160.183 299.335 160.287C299.258 160.39 299.216 160.516 299.216 160.645C299.216 160.774 299.258 160.899 299.335 161.003C299.412 161.106 299.52 161.182 299.644 161.219L302.374 162.766C302.684 162.924 303.027 163.007 303.375 163.007C303.723 163.007 304.067 162.924 304.377 162.766L321.281 153.029L322.127 153.502L304.96 163.366Z" fill="#FAFAFA"/>
<path d="M322.127 153.511V193.829L304.96 203.684C304.436 203.951 303.857 204.089 303.27 204.089C302.682 204.089 302.103 203.951 301.579 203.684L298.646 201.994C298.457 201.908 298.293 201.773 298.171 201.604C298.05 201.435 297.974 201.237 297.953 201.03V160.712C297.974 160.92 298.05 161.118 298.171 161.287C298.293 161.456 298.457 161.59 298.646 161.676L301.579 163.367C302.103 163.633 302.682 163.772 303.27 163.772C303.857 163.772 304.436 163.633 304.96 163.367L322.127 153.511Z" fill="#E0E0E0"/>
<path d="M303.278 163.747C302.69 163.764 302.107 163.627 301.588 163.35L298.655 161.659C298.465 161.573 298.301 161.439 298.18 161.27C298.058 161.101 297.983 160.903 297.962 160.696V201.013C297.983 201.22 298.058 201.418 298.18 201.587C298.301 201.756 298.465 201.891 298.655 201.977L301.588 203.667C302.109 203.94 302.69 204.076 303.278 204.064V163.747Z" fill="#F0F0F0"/>
<path d="M338.389 165.429L318.315 177.026L324.544 216.363L344.618 204.775L338.389 165.429Z" fill="#EBEBEB"/>
<path d="M319.109 177.575L338.549 166.418C340.068 167.527 341.852 168.218 343.722 168.421L324.459 179.527C322.609 179.079 320.814 178.424 319.109 177.575Z" fill="white"/>
<path d="M326.463 179.375C325.834 179.674 325.153 179.844 324.457 179.876C323.762 179.908 323.068 179.801 322.414 179.561L318.594 177.997C317.394 177.507 317.25 176.628 318.281 176.036L337.443 165.048L338.389 165.437L319.557 176.307C318.932 176.662 319.017 177.194 319.743 177.49L323.293 178.919C323.685 179.063 324.101 179.128 324.517 179.109C324.934 179.09 325.343 178.988 325.719 178.809L344.551 167.973L345.616 168.404L326.463 179.375Z" fill="#FAFAFA"/>
<path d="M345.616 168.379L351.853 207.699L332.7 218.687C332.072 218.986 331.39 219.156 330.694 219.186C329.999 219.217 329.304 219.107 328.652 218.864L324.831 217.309C324.231 217.064 323.893 216.717 323.834 216.362L317.596 177.017C317.655 177.372 317.993 177.718 318.594 177.964L322.414 179.527C323.067 179.767 323.762 179.874 324.457 179.842C325.152 179.81 325.834 179.64 326.463 179.341L345.616 168.379Z" fill="#E0E0E0"/>
<path d="M324.502 179.874C323.792 179.917 323.08 179.811 322.414 179.561L318.594 177.997C317.993 177.752 317.655 177.406 317.596 177.051L323.834 216.396C323.893 216.751 324.231 217.098 324.831 217.343L328.652 218.898C329.317 219.151 330.029 219.26 330.74 219.219L324.502 179.874Z" fill="#F0F0F0"/>
<path d="M351.744 171.768L333.74 182.164V221.552L351.744 211.156V171.768Z" fill="#E0E0E0"/>
<path d="M334.323 182.739L351.744 172.732C352.809 173.863 354.206 174.626 355.733 174.912L338.448 184.878C338.448 184.878 337.333 184.616 334.323 182.739Z" fill="white"/>
<path d="M340.13 184.81C339.607 185.076 339.027 185.215 338.44 185.215C337.852 185.215 337.273 185.076 336.749 184.81L333.816 183.12C333.616 183.051 333.443 182.922 333.32 182.75C333.197 182.578 333.131 182.372 333.131 182.16C333.131 181.949 333.197 181.743 333.32 181.571C333.443 181.399 333.616 181.269 333.816 181.201L351.017 171.354L351.744 171.768L334.839 181.522C334.281 181.843 334.281 182.367 334.839 182.672L337.569 184.218C337.879 184.376 338.223 184.459 338.571 184.459C338.919 184.459 339.262 184.376 339.572 184.218L356.477 174.481L357.322 174.955L340.13 184.81Z" fill="#FAFAFA"/>
<path d="M357.305 174.955V214.342L340.13 224.198C339.606 224.464 339.027 224.603 338.44 224.603C337.852 224.603 337.273 224.464 336.749 224.198L333.816 222.507C333.626 222.421 333.463 222.287 333.341 222.118C333.22 221.949 333.144 221.751 333.123 221.544V182.156C333.143 182.364 333.217 182.562 333.339 182.732C333.461 182.901 333.625 183.035 333.816 183.12L336.749 184.81C337.274 185.073 337.853 185.209 338.44 185.209C339.026 185.209 339.605 185.073 340.13 184.81L357.305 174.955Z" fill="#E0E0E0"/>
<path d="M338.448 185.216C337.86 185.227 337.279 185.091 336.758 184.818L333.825 183.128C333.634 183.043 333.469 182.91 333.348 182.74C333.226 182.571 333.151 182.372 333.132 182.164V221.552C333.153 221.759 333.228 221.957 333.35 222.126C333.471 222.296 333.635 222.43 333.825 222.516L336.758 224.206C337.279 224.479 337.86 224.615 338.448 224.604V185.216Z" fill="#F0F0F0"/>
<path d="M359.114 175.994L341.102 186.399V225.778L359.114 215.382V175.994Z" fill="#EBEBEB"/>
<path d="M341.685 186.965L359.114 176.966C360.177 178.093 361.571 178.854 363.095 179.138L345.818 189.104C344.351 188.578 342.961 187.859 341.685 186.965Z" fill="white"/>
<path d="M347.492 189.045C346.967 189.308 346.389 189.446 345.801 189.446C345.214 189.446 344.635 189.308 344.111 189.045L341.17 187.354C340.97 187.286 340.796 187.156 340.673 186.984C340.551 186.812 340.485 186.606 340.485 186.395C340.485 186.183 340.551 185.977 340.673 185.805C340.796 185.633 340.97 185.504 341.17 185.435L358.387 175.58L359.114 175.994L342.209 185.748C341.651 186.069 341.651 186.593 342.209 186.898L344.939 188.445C345.251 188.603 345.596 188.685 345.945 188.685C346.295 188.685 346.639 188.603 346.951 188.445L363.856 178.707L364.701 179.181L347.492 189.045Z" fill="#FAFAFA"/>
<path d="M364.667 179.181V218.569L347.492 228.424C346.969 228.692 346.39 228.833 345.802 228.833C345.214 228.833 344.634 228.692 344.111 228.424L341.17 226.734C340.979 226.649 340.815 226.515 340.693 226.346C340.571 226.176 340.496 225.978 340.477 225.77V186.382C340.496 186.59 340.571 186.789 340.693 186.958C340.815 187.127 340.979 187.261 341.17 187.346L344.111 189.036C344.636 189.3 345.215 189.437 345.802 189.437C346.389 189.437 346.968 189.3 347.492 189.036L364.667 179.181Z" fill="#E0E0E0"/>
<path d="M345.819 189.442C345.23 189.456 344.649 189.319 344.128 189.045L341.187 187.354C340.996 187.269 340.831 187.136 340.71 186.966C340.588 186.797 340.513 186.598 340.494 186.391V225.778C340.513 225.986 340.588 226.185 340.71 226.354C340.831 226.523 340.996 226.657 341.187 226.742L344.128 228.432C344.649 228.707 345.23 228.844 345.819 228.83V189.442Z" fill="#F0F0F0"/>
<path d="M352.843 188.529L376.45 174.904L378.698 176.197V273.576L355.091 287.21L352.843 285.917V188.529Z" fill="#EBEBEB"/>
<path d="M378.698 273.576L355.091 287.21V189.831L378.698 176.197V273.576Z" fill="#E6E6E6"/>
<path d="M247.763 125.263L271.371 111.63L378.698 173.611V176.197L355.091 189.831L247.763 127.858V125.263Z" fill="#EBEBEB"/>
<path d="M355.091 187.236L247.763 125.263L271.371 111.63L378.698 173.611L355.091 187.236Z" fill="#FAFAFA"/>
<path d="M355.091 187.236V189.831L378.698 176.197V173.611L355.091 187.236Z" fill="#E6E6E6"/>
<path d="M314.139 151.457L313.057 151.981L292.975 140.385L294.057 139.861L314.139 151.457Z" fill="#FAFAFA"/>
<path d="M294.057 139.86L313.159 150.891L315.94 122.313L296.838 111.291L294.057 139.86Z" fill="white"/>
<path d="M290.929 141.339L314.706 155.066L317.985 121.358L294.209 107.632L290.929 141.339ZM295.84 110.717L315.94 122.33L313.057 151.998L292.975 140.401L295.84 110.717Z" fill="#F0F0F0"/>
<path d="M292.975 140.385L294.057 139.861L296.837 111.292L295.857 110.717L292.975 140.385Z" fill="#E0E0E0"/>
<path d="M294.209 107.632L295.308 107.125L319.084 120.851L317.985 121.358L294.209 107.632Z" fill="#FAFAFA"/>
<path d="M319.084 120.851L317.985 121.358L314.706 155.066L315.804 154.559L319.084 120.851Z" fill="#E0E0E0"/>
<path d="M294.893 139.32L312.508 149.488L312.981 144.679L309.702 130.529L306.583 135.356L307.225 139.421L302.018 124.418L295.366 134.511L294.893 139.32Z" fill="#F0F0F0"/>
<path d="M309.972 124.579C310.339 124.807 310.64 125.128 310.845 125.509C311.049 125.89 311.151 126.318 311.139 126.751C311.062 127.537 310.412 127.841 309.693 127.427C309.327 127.196 309.027 126.873 308.824 126.491C308.621 126.108 308.521 125.679 308.535 125.246C308.611 124.46 309.254 124.164 309.972 124.579Z" fill="#F0F0F0"/>
<path d="M351.786 179.806C355.241 179.879 358.643 178.951 361.582 177.135C363.864 175.614 365.124 173.712 365.124 171.785C365.124 169.858 363.864 167.956 361.582 166.435C358.612 164.686 355.228 163.763 351.782 163.763C348.335 163.763 344.951 164.686 341.981 166.435C339.699 167.956 338.44 169.858 338.44 171.785C338.44 173.712 339.699 175.614 341.981 177.135C344.923 178.953 348.328 179.88 351.786 179.806Z" fill="#E0E0E0"/>
<path d="M343.021 171.134C343.018 170.901 343.041 170.669 343.089 170.441C343.652 167.879 345.161 165.624 347.315 164.127H356.164C358.319 165.624 359.828 167.879 360.39 170.441C360.442 170.668 360.465 170.901 360.458 171.134C360.464 171.173 360.464 171.213 360.458 171.252C360.382 172.478 359.537 173.687 357.922 174.633C356.009 175.604 353.894 176.11 351.748 176.11C349.602 176.11 347.487 175.604 345.574 174.633C343.959 173.695 343.114 172.486 343.038 171.252C343.029 171.252 343.021 171.176 343.021 171.134Z" fill="#EBEBEB"/>
<path d="M355.944 163.992C358.26 165.327 358.26 167.5 355.944 168.835C354.643 169.493 353.206 169.836 351.748 169.836C350.29 169.836 348.852 169.493 347.551 168.835C345.235 167.5 345.235 165.327 347.551 163.992C348.851 163.329 350.289 162.984 351.748 162.984C353.207 162.984 354.645 163.329 355.944 163.992Z" fill="#FAFAFA"/>
<path d="M350.543 134.468H352.952V165.488C352.957 165.604 352.926 165.718 352.864 165.816C352.802 165.914 352.712 165.991 352.606 166.037C352.344 166.169 352.054 166.238 351.761 166.238C351.467 166.238 351.177 166.169 350.915 166.037C350.653 165.885 350.535 165.682 350.569 165.488L350.543 134.468Z" fill="#E0E0E0"/>
<path d="M333.96 129.828L342.328 108.46H361.168L369.544 129.828C370.736 133.166 369.096 136.784 364.608 139.37C357.508 143.47 346.013 143.47 338.905 139.37C334.4 136.784 332.76 133.166 333.96 129.828Z" fill="#F0F0F0"/>
<path d="M358.565 113.574C354.795 115.746 348.692 115.746 344.931 113.574C341.17 111.402 341.17 107.877 344.931 105.705C348.692 103.532 354.795 103.532 358.565 105.705C362.334 107.877 362.326 111.402 358.565 113.574Z" fill="#FAFAFA"/>
<path d="M351.744 114.089C353.924 114.137 356.081 113.625 358.007 112.602C359.461 111.757 360.272 110.708 360.272 109.643C360.272 108.578 359.427 107.513 358.007 106.677C356.065 105.699 353.922 105.189 351.748 105.189C349.574 105.189 347.43 105.699 345.489 106.677C344.027 107.522 343.224 108.57 343.224 109.643C343.224 110.717 344.027 111.765 345.489 112.602C347.412 113.624 349.566 114.136 351.744 114.089Z" fill="#E0E0E0"/>
<path d="M51.6182 277.769C58.659 270.508 62.7922 240.95 55.9289 235.194H21.0039C14.1406 240.95 18.2653 270.491 25.2977 277.76L25.4921 277.963L25.7372 278.2C25.9387 278.402 26.1502 278.594 26.3711 278.774L26.5402 278.91C26.7092 279.045 26.8783 279.18 27.0727 279.315C27.363 279.526 27.665 279.721 27.9771 279.899C33.7669 283.279 43.1913 283.279 48.9473 279.899C49.2641 279.721 49.569 279.524 49.8601 279.307C50.0376 279.189 50.1982 279.053 50.3588 278.927L50.5617 278.766C50.7814 278.588 50.9843 278.402 51.1787 278.217L51.4576 277.938L51.6182 277.769Z" fill="#F0F0F0"/>
<path d="M24.0298 232.87C16.0677 237.527 16.0677 245.066 24.0298 249.724C31.9919 254.381 44.9239 254.372 52.8945 249.724C60.865 245.075 60.865 237.527 52.8945 232.87C44.9239 228.213 32.0003 228.221 24.0298 232.87Z" fill="#F5F5F5"/>
<path d="M27.9009 235.11C22.0434 238.491 22.0434 244.069 27.9009 247.484C33.7584 250.899 43.2419 250.865 49.0909 247.484C54.9399 244.103 54.9483 238.525 49.0909 235.11C43.2334 231.695 33.7161 231.695 27.9009 235.11Z" fill="#E0E0E0"/>
<path d="M49.032 240.984C43.183 237.603 33.6911 237.603 27.8421 240.984C26.4234 241.761 25.2185 242.876 24.3344 244.23C25.2321 245.596 26.4586 246.715 27.9012 247.484C33.7502 250.865 43.2422 250.865 49.0912 247.484C50.5157 246.712 51.7222 245.592 52.5989 244.23C51.7029 242.864 50.4758 241.748 49.032 240.984Z" fill="#FAFAFA"/>
<path d="M22.83 180.651L36.0917 191.166L23.2695 185.249C23.2953 189.397 24.0477 193.508 25.4925 197.395C28.9991 199.493 32.3366 201.861 35.4747 204.478L25.6446 200.59C25.6446 200.59 24.9769 207.073 27.6647 216.954C28.3747 219.541 31.2823 224.485 33.1165 228.179C33.9581 229.883 34.9126 231.529 35.9734 233.107C36.0325 233.208 36.1001 233.301 36.1678 233.411C38.4217 232.126 40.7602 230.878 43.1832 229.666C44.7553 226.345 46.8177 218.137 47.5615 211.409C50.3592 185.723 30.902 170.957 15.2229 166.012C15.2229 166.012 20.6324 172.757 22.83 180.651Z" fill="#F0F0F0"/>
<path d="M33.8855 181.759C36.5902 184.48 38.1708 188.064 39.388 191.639C40.5723 195.254 41.3629 198.987 41.7462 202.771C42.5831 210.338 41.6186 217.996 38.9315 225.119C38.8957 225.211 38.8978 225.313 38.9374 225.404C38.977 225.494 39.0509 225.565 39.1428 225.601C39.2348 225.637 39.3371 225.635 39.4275 225.595C39.5178 225.555 39.5888 225.481 39.6246 225.39C42.2286 218.141 43.0773 210.378 42.1012 202.737C41.6701 198.936 40.8197 195.194 39.5655 191.58C38.2892 188.005 36.6325 184.43 33.8855 181.759Z" fill="white"/>
<path d="M80.1957 194.175C75.1949 200.374 70.5689 206.865 66.3424 213.615L52.8863 215.788L62.8093 217.52L57.4843 225.973L44.2142 228.737L54.5514 230.427C54.5514 230.427 51.686 240.519 44.2818 244.728C40.1993 247.044 38.1961 247.399 36.9705 246.233C36.1253 245.388 35.914 240.578 35.204 236.259C34.494 231.94 34.4264 224.916 38.5089 216.439C39.6163 214.173 41.0391 212.076 42.735 210.209C52.5397 199.297 71.0081 194.04 80.1957 194.175Z" fill="#F5F5F5"/>
<path d="M66.1142 198.579C59.158 201.63 52.5905 205.814 47.4008 211.502C44.7833 214.319 42.6217 217.528 40.9939 221.011C39.4039 224.51 38.407 228.249 38.0441 232.075C38.0441 232.075 38.0441 232.075 38.0441 232.075C38.7613 228.356 39.9485 224.744 41.5771 221.324C43.2249 217.917 45.3354 214.754 47.8488 211.925C52.8441 206.228 59.2848 201.909 66.148 198.672V198.621L66.1142 198.579Z" fill="white"/>
<path d="M0.00842285 199.728C1.13748 199.708 2.26669 199.759 3.38935 199.88C7.81844 200.397 12.1673 201.456 16.3383 203.033C17.8851 203.608 19.4403 204.267 20.9702 204.994C21.7309 205.358 22.4832 205.738 23.2354 206.144C26.941 208.064 30.3004 210.59 33.1753 213.616C34.4998 215.067 35.6358 216.68 36.5563 218.416C36.6746 218.636 36.8014 218.856 36.9113 219.084C37.1986 219.667 37.4607 220.251 37.7058 220.825C40.014 225.803 41.0175 231.286 40.6218 236.758C40.4866 240.621 39.168 245.033 38.4158 245.76C38.3155 245.856 38.205 245.941 38.0861 246.013C36.9789 246.715 35.2293 246.301 31.9582 244.475C25.3992 240.807 22.8297 231.518 22.8297 231.518L31.9413 229.971L20.294 227.672L15.5353 220.259L24.2835 218.687L12.3995 216.861C8.63109 210.918 4.50731 205.208 0.0506846 199.762L0.00842285 199.728Z" fill="#F0F0F0"/>
<path d="M3.38938 199.88C7.81847 200.397 12.1673 201.456 16.3383 203.033C17.8851 203.608 19.4403 204.267 20.9702 204.994C21.7309 205.358 22.4832 205.738 23.2354 206.144C26.941 208.064 30.3004 210.59 33.1754 213.615C34.4998 215.067 35.6358 216.68 36.5563 218.416C36.6746 218.636 36.8014 218.856 36.9113 219.084C37.1987 219.667 37.4607 220.251 37.7058 220.825C40.014 225.803 41.0175 231.286 40.6219 236.758C40.4866 240.621 39.1681 245.033 38.4158 245.76C38.3155 245.856 38.205 245.941 38.0862 246.013C37.8631 246.147 37.6162 246.236 37.3593 246.275C38.2045 240.291 35.2293 225.144 30.7665 218.864C26.1261 212.373 15.1212 202.949 0 199.703C1.13224 199.698 2.26384 199.757 3.38938 199.88Z" fill="#E6E6E6"/>
<path d="M271.996 31.8146L248.753 45.203C248.482 45.3785 248.257 45.6154 248.095 45.8945C247.933 46.1736 247.84 46.487 247.823 46.809V73.4676C247.839 73.7888 247.932 74.1015 248.093 74.3795C248.255 74.6574 248.481 74.8925 248.753 75.0651L252.083 76.9331C252.372 77.0768 252.69 77.1515 253.012 77.1515C253.335 77.1515 253.653 77.0768 253.942 76.9331L277.186 63.5361C277.457 63.3607 277.682 63.1238 277.844 62.8447C278.005 62.5656 278.098 62.2522 278.116 61.9302V35.2716C278.099 34.9507 278.005 34.6385 277.844 34.3608C277.682 34.083 277.457 33.8477 277.186 33.6741L273.864 31.7977C273.573 31.6552 273.253 31.5826 272.928 31.5855C272.604 31.5885 272.285 31.6669 271.996 31.8146Z" fill="#F28AC8"/>
<path d="M253.012 76.3837V49.7335C253.029 49.4102 253.122 49.0954 253.284 48.8148C253.445 48.5343 253.671 48.2959 253.942 48.1191L277.186 34.7306C277.701 34.4348 278.116 34.6715 278.116 35.2631V61.9218C278.098 62.2438 278.005 62.5571 277.843 62.8362C277.682 63.1153 277.456 63.3523 277.186 63.5277L253.942 76.9246C253.426 77.2205 253.012 76.9753 253.012 76.3837Z" fill="#F28AC8"/>
<path opacity="0.2" d="M253.942 76.9247C253.652 77.0647 253.334 77.1374 253.012 77.1374C252.69 77.1374 252.373 77.0647 252.083 76.9247L248.753 75.0568C248.481 74.8842 248.255 74.6491 248.093 74.3711C247.932 74.0932 247.839 73.7805 247.823 73.4593V46.8091C247.835 46.4727 247.937 46.1457 248.119 45.8624L253.291 48.8207C253.118 49.0942 253.021 49.4097 253.012 49.7336V76.3838C253.012 76.9247 253.393 77.2375 253.942 76.9247Z" fill="black"/>
<path opacity="0.4" d="M278.09 35.0941C278.014 34.6292 277.634 34.4601 277.169 34.7306L253.942 48.1191C253.668 48.2925 253.444 48.5342 253.291 48.8206L248.11 45.8623C248.265 45.592 248.486 45.3652 248.752 45.203L271.996 31.8061C272.285 31.6624 272.604 31.5876 272.926 31.5876C273.249 31.5876 273.567 31.6624 273.856 31.8061L277.186 33.6741C277.428 33.8338 277.634 34.0429 277.79 34.2876C277.946 34.5323 278.048 34.8071 278.09 35.0941Z" fill="white"/>
<path d="M247.822 55.946L240.351 63.5531C240.268 63.6417 240.206 63.7469 240.168 63.8615C240.13 63.9762 240.117 64.0977 240.13 64.2178C240.142 64.338 240.181 64.454 240.242 64.5581C240.304 64.6621 240.387 64.7518 240.486 64.821C240.646 64.9224 245.659 67.7962 245.659 67.7962L253.012 58.9382L247.822 55.946Z" fill="#F28AC8"/>
<path opacity="0.1" d="M247.822 55.946L240.351 63.5531C240.268 63.6417 240.206 63.7469 240.168 63.8615C240.13 63.9762 240.117 64.0977 240.13 64.2178C240.142 64.338 240.181 64.454 240.242 64.5581C240.304 64.6621 240.387 64.7518 240.486 64.821C240.646 64.9224 245.659 67.7962 245.659 67.7962L253.012 58.9382L247.822 55.946Z" fill="black"/>
<path d="M253.012 58.9382L245.54 66.5453C245.431 66.6719 245.362 66.8279 245.342 66.9937C245.321 67.1594 245.351 67.3276 245.426 67.4768C245.501 67.626 245.618 67.7496 245.763 67.832C245.909 67.9145 246.075 67.952 246.242 67.94L253.004 66.9595C253.739 66.951 253.739 58.9382 253.012 58.9382Z" fill="#F28AC8"/>
<path d="M258.988 64.1955C258.987 64.3526 259.026 64.5074 259.101 64.6453C259.177 64.7833 259.286 64.8999 259.418 64.9843C259.551 65.0687 259.702 65.1182 259.859 65.1281C260.016 65.1379 260.173 65.1079 260.315 65.0407C260.191 65.4868 260.125 65.9471 260.12 66.41C260.12 67.2552 260.839 67.7201 261.87 67.12C262.901 66.5199 269.773 62.5727 269.773 62.5727V52.2524C268.925 51.325 268.132 50.3484 267.398 49.3279C267.297 48.0959 267.297 46.8577 267.398 45.6258C267.398 45.2369 266.105 45.7948 265.285 47.1472C265.078 47.4712 264.921 47.8245 264.82 48.1953C264.595 48.9118 264.437 49.6474 264.347 50.3929C264.218 51.3101 264.272 52.2439 264.507 53.1399L259.732 55.8953C259.347 56.1216 259.03 56.4452 258.81 56.8335C258.509 57.3175 258.334 57.87 258.303 58.4395C258.303 59.3692 258.819 59.589 259.072 59.6144C258.783 59.8816 258.551 60.2039 258.388 60.5625C258.225 60.9211 258.136 61.3085 258.126 61.7021C258.126 62.4205 258.565 62.9446 259.292 62.6994C259.082 63.1697 258.978 63.6805 258.988 64.1955Z" fill="#FAFAFA"/>
<path d="M274.363 49.7589V60.8906C274.356 61.0248 274.317 61.1554 274.249 61.2715C274.181 61.3877 274.087 61.486 273.974 61.5584L271.328 63.0967C271.117 63.2235 270.939 63.0967 270.939 62.8769V51.7706C270.945 51.6349 270.984 51.5027 271.051 51.385C271.119 51.2673 271.214 51.1676 271.328 51.0944L274.008 49.5392C274.185 49.4124 274.363 49.5138 274.363 49.7589Z" fill="#FAFAFA"/>
<path d="M150.4 264.989C146.909 264.482 142.514 264.144 138.389 266.367C131.678 269.959 125.305 275.123 123.775 277C122.246 278.876 120.631 277.701 119.363 273.779C118.701 271.646 118.65 269.371 119.216 267.21C119.783 265.05 120.943 263.091 122.567 261.557C126.083 258.362 129.506 255.962 130.918 253.756C132.329 251.55 138.043 251.22 141.424 251.981C141.424 251.981 142.607 251.93 143.765 251.93C148.989 251.93 161.033 249.623 161.033 249.623L163.29 265.116C163.29 265.116 153.891 265.505 150.4 264.989Z" fill="#C8856A"/>
<path d="M124.882 291.14C123.496 291.91 119.735 292.366 117.571 291.064C113.058 288.351 111.655 279.687 112.736 274.794C114.055 268.877 117.14 265.707 118.036 262.115C118.932 258.523 118.357 253.528 119.65 250.375C120.172 249.161 120.948 248.075 121.927 247.188C122.905 246.301 124.063 245.635 125.322 245.236C126.126 244.963 126.982 244.877 127.825 244.985C128.667 245.094 129.473 245.393 130.182 245.861L131.551 246.749L124.882 291.14Z" fill="#263238"/>
<path d="M114.959 276.062C115.686 269.494 121.992 264.769 121.552 258.396C121.113 252.023 124.392 243.461 132.709 247.256C134.267 247.952 135.766 248.774 137.189 249.716C137.775 250.197 138.45 250.559 139.175 250.781C140.058 250.973 140.963 251.035 141.863 250.967C142.273 250.896 142.693 250.91 143.097 251.009C143.302 251.054 143.482 251.173 143.604 251.343C143.726 251.513 143.78 251.722 143.757 251.93L141.491 251.972C141.306 251.963 141.122 252.004 140.959 252.091C140.545 252.387 140.84 253.029 140.832 253.536C140.832 254.263 140.114 254.753 139.488 255.117L137.028 256.545C136.219 256.913 135.459 257.378 134.763 257.931C134.543 258.16 134.18 258.861 134.611 259.081C135.042 259.301 136.437 258.633 136.885 258.506C137.155 258.409 137.446 258.383 137.73 258.43C138.203 258.557 138.44 259.072 138.634 259.52C139.13 260.862 139.945 262.063 141.01 263.02C141.902 263.667 142.892 264.17 143.942 264.507C144.019 264.528 144.089 264.569 144.145 264.626C144.18 264.669 144.203 264.72 144.212 264.775C144.221 264.83 144.215 264.886 144.196 264.938C144.133 265.079 144.041 265.204 143.926 265.306C143.811 265.408 143.675 265.485 143.528 265.53C141.854 266.297 140.142 266.977 138.398 267.567C136.995 268.049 135.059 268.776 134.112 269.993C133.472 270.831 132.954 271.756 132.574 272.74C132.005 274.358 131.584 276.024 131.315 277.718C130.816 280.254 130.3 282.79 129.709 285.275C129.462 286.563 129.041 287.811 128.458 288.985C126.598 292.366 122.262 292.628 119.338 290.422C117.889 289.398 116.746 287.998 116.033 286.373C114.588 283.026 114.63 279.214 114.959 276.062Z" fill="#455A64"/>
<path d="M131.526 278.699C131.474 278.753 131.415 278.799 131.349 278.834C131.087 278.961 130.934 278.834 130.782 278.64C130.403 278.213 129.99 277.818 129.548 277.456C128.746 276.797 127.873 276.23 126.945 275.766C125.689 275.108 124.35 274.625 122.964 274.329L122.533 274.253C122.364 274.228 122.212 274.137 122.11 274.002C122.007 273.866 121.962 273.695 121.983 273.526C121.995 273.442 122.023 273.361 122.065 273.288C122.108 273.215 122.165 273.151 122.233 273.1C122.3 273.049 122.377 273.012 122.459 272.991C122.541 272.969 122.626 272.965 122.71 272.976C123.655 273.123 124.582 273.369 125.474 273.712C127.419 274.393 129.211 275.45 130.748 276.822C131.154 277.186 131.737 277.668 131.712 278.251C131.704 278.417 131.638 278.575 131.526 278.699Z" fill="#FAFAFA"/>
<path d="M132.338 275.242C131.966 275.605 131.56 274.988 131.323 274.726C130.949 274.321 130.545 273.945 130.115 273.602C129.331 272.98 128.48 272.447 127.579 272.013C126.455 271.458 125.265 271.049 124.037 270.796H123.885C123.717 270.769 123.565 270.676 123.464 270.539C123.363 270.401 123.32 270.229 123.344 270.06C123.356 269.976 123.384 269.895 123.427 269.821C123.471 269.748 123.528 269.684 123.597 269.634C123.666 269.583 123.744 269.547 123.827 269.527C123.91 269.508 123.996 269.505 124.08 269.519C125.023 269.681 125.946 269.942 126.835 270.297C128.728 270.997 130.455 272.082 131.907 273.483C132.089 273.619 132.242 273.79 132.357 273.986C132.471 274.182 132.545 274.399 132.574 274.625C132.587 274.818 132.537 275.011 132.431 275.174C132.403 275.2 132.371 275.223 132.338 275.242Z" fill="#FAFAFA"/>
<path d="M133.411 271.937C133.333 271.996 133.244 272.039 133.149 272.064C132.87 272.114 132.752 271.818 132.6 271.632C132.436 271.42 132.261 271.217 132.075 271.024C131.723 270.646 131.344 270.293 130.943 269.967C130.199 269.373 129.398 268.855 128.551 268.421C127.549 267.895 126.492 267.484 125.398 267.195H125.347C125.265 267.176 125.187 267.141 125.117 267.092C125.048 267.043 124.989 266.981 124.944 266.909C124.899 266.837 124.869 266.757 124.854 266.674C124.84 266.59 124.843 266.504 124.861 266.422C124.88 266.339 124.915 266.261 124.964 266.192C125.013 266.122 125.076 266.064 125.147 266.018C125.219 265.973 125.299 265.943 125.383 265.929C125.466 265.914 125.552 265.917 125.635 265.936C126.59 266.171 127.519 266.503 128.407 266.925C130.251 267.735 131.904 268.925 133.259 270.415C133.484 270.63 133.658 270.893 133.766 271.184C133.808 271.314 133.808 271.453 133.766 271.582C133.718 271.68 133.649 271.767 133.563 271.835C133.516 271.874 133.465 271.908 133.411 271.937Z" fill="#FAFAFA"/>
<path d="M129.328 261.49C129.417 261.453 129.512 261.433 129.607 261.43C129.895 261.43 129.937 261.769 130.03 261.988C130.137 262.232 130.259 262.469 130.393 262.698C130.644 263.154 130.927 263.592 131.239 264.008C131.815 264.768 132.466 265.467 133.183 266.096C134.016 266.856 134.935 267.517 135.921 268.065H135.972C136.124 268.143 136.24 268.278 136.293 268.44C136.346 268.603 136.332 268.779 136.255 268.932C136.178 269.084 136.043 269.2 135.881 269.253C135.718 269.306 135.541 269.292 135.389 269.215C132.746 267.774 130.566 265.614 129.1 262.986C128.937 262.731 128.836 262.441 128.804 262.14C128.792 262.004 128.832 261.869 128.914 261.76C128.987 261.679 129.073 261.61 129.168 261.557L129.328 261.49Z" fill="#FAFAFA"/>
<path d="M114.875 277.253C114.519 280.342 114.913 283.47 116.024 286.373C116.738 287.998 117.88 289.398 119.329 290.422C122.254 292.628 126.59 292.375 128.449 288.985C129.033 287.811 129.454 286.562 129.7 285.275C129.954 284.201 130.191 283.119 130.419 282.037C125.88 275.614 116.92 276.433 114.875 277.253Z" fill="#FAFAFA"/>
<path d="M233.588 300.117C232.295 303.126 230.553 306.988 231.551 311.223C233.174 318.095 236.276 325.051 237.594 326.877C238.913 328.702 237.467 329.86 233.647 330.063C231.574 330.142 229.521 329.638 227.72 328.611C225.919 327.583 224.441 326.072 223.453 324.248C221.433 320.326 220.072 316.683 218.458 314.883C216.844 313.083 217.233 310.285 218.695 307.428C220.157 304.571 221.611 288.731 221.611 288.731L237.18 291.715C237.18 291.715 234.881 297.108 233.588 300.117Z" fill="#C8856A"/>
<path d="M216.142 314.148C215.848 314.897 215.688 315.693 215.669 316.497C215.728 317.529 217.266 319.625 218.323 320.724C219.824 322.31 220.693 324.39 220.766 326.573C221.111 330.119 222.641 333.445 225.11 336.014C228.457 339.165 232.68 341.228 237.222 341.93C242.843 342.919 244.415 339.978 244.415 339.978C244.415 339.978 245.768 337.155 244.627 336.208C243.486 335.262 216.142 314.148 216.142 314.148Z" fill="#263238"/>
<path d="M219.768 300.852C219.257 303.509 218.39 306.085 217.19 308.51C216.48 309.989 215.5 312.364 216.134 314.148C216.895 316.869 219.963 318.796 221.002 322.515C222.042 326.235 223.2 332.658 229.598 336.606C235.997 340.553 242.032 340.257 244.035 338.761C246.038 337.265 245.548 334.991 242.006 330.976C238.245 326.708 234.847 316.878 234.847 316.878C234.002 314.029 233.157 311.198 233.301 307.783L235.752 304.199C235.752 303.024 225.609 300.032 224.273 301.199L223.428 306.143L223.048 301.072L219.768 300.852Z" fill="#455A64"/>
<path d="M225.744 333.318C226.415 331.751 227.504 330.398 228.892 329.409C230.28 328.419 231.913 327.829 233.613 327.705C239.792 326.961 242.319 329.844 243.494 331.576C244.889 333.639 246.545 337.493 244.136 338.947C241.533 340.527 238.296 340.544 232.971 338.651C227.646 336.758 225.744 333.318 225.744 333.318Z" fill="#FAFAFA"/>
<path d="M224.561 314.562C224.653 314.592 224.752 314.6 224.848 314.587C224.945 314.574 225.037 314.539 225.119 314.486C226.014 313.877 230.934 312.195 234.213 314.562C234.56 314.207 234.416 313.657 233.824 312.931C230.114 311.173 225.448 312.745 224.375 313.472C224.308 313.516 224.251 313.574 224.208 313.641C224.164 313.709 224.135 313.784 224.122 313.863C224.108 313.942 224.111 314.023 224.13 314.101C224.149 314.179 224.183 314.253 224.231 314.317C224.314 314.43 224.429 314.515 224.561 314.562Z" fill="#FAFAFA"/>
<path d="M235.295 318.086C235.347 317.78 235.322 317.465 235.223 317.17C235.125 316.876 234.955 316.61 234.729 316.396C231.111 314.976 226.775 316.447 225.744 317.148C225.677 317.193 225.62 317.251 225.577 317.318C225.533 317.386 225.504 317.462 225.492 317.541C225.479 317.621 225.483 317.702 225.503 317.78C225.523 317.857 225.559 317.93 225.609 317.993C225.708 318.116 225.847 318.199 226.002 318.228C226.157 318.257 226.317 318.231 226.454 318.154C227.375 317.579 232.024 316.016 235.295 318.086Z" fill="#FAFAFA"/>
<path d="M233.546 311.443C233.656 311.325 233.739 311.184 233.789 311.031C233.84 310.878 233.857 310.716 233.839 310.555C233.822 310.395 233.77 310.24 233.687 310.102C233.604 309.963 233.493 309.844 233.36 309.753C229.539 307.217 224.172 308.992 223.006 309.753C222.938 309.796 222.88 309.854 222.836 309.921C222.792 309.989 222.762 310.064 222.749 310.144C222.735 310.223 222.738 310.304 222.758 310.383C222.777 310.461 222.813 310.534 222.862 310.598C222.942 310.708 223.055 310.79 223.183 310.834C223.277 310.866 223.377 310.876 223.475 310.863C223.574 310.85 223.667 310.814 223.749 310.758C224.713 310.124 230.317 308.231 233.546 311.443Z" fill="#FAFAFA"/>
<path d="M238.854 326.124C238.757 325.31 238.381 324.554 237.789 323.986C234.104 322.346 229.548 323.876 228.491 324.595C228.425 324.64 228.369 324.698 228.327 324.766C228.284 324.834 228.255 324.909 228.243 324.988C228.23 325.067 228.234 325.148 228.253 325.226C228.273 325.303 228.308 325.376 228.356 325.44C228.437 325.549 228.549 325.631 228.677 325.677C228.771 325.708 228.871 325.718 228.969 325.705C229.068 325.692 229.161 325.656 229.244 325.6C230.173 324.967 235.6 323.132 238.854 326.124Z" fill="#FAFAFA"/>
<path d="M227.299 321.974C227.392 322.006 227.49 322.016 227.587 322.003C227.684 321.989 227.777 321.954 227.857 321.898C228.745 321.307 233.563 319.658 236.842 321.898C236.863 321.566 236.806 321.234 236.677 320.928C236.548 320.621 236.35 320.349 236.098 320.132C232.472 318.712 228.145 320.182 227.113 320.884C227.047 320.929 226.99 320.986 226.946 321.054C226.903 321.122 226.874 321.198 226.861 321.277C226.848 321.356 226.852 321.438 226.872 321.515C226.893 321.593 226.929 321.666 226.978 321.729C227.056 321.844 227.168 321.93 227.299 321.974Z" fill="#FAFAFA"/>
<path d="M154.914 250.552L184.455 245.143C184.455 245.143 176.797 211.443 173.585 195.223C170.99 182.139 169.621 174.752 177.676 163.105L214.799 169.469L227.037 171.557C228.356 178.226 228.5 178.632 230.655 183.39C239.564 201.242 248.033 217.85 254.668 234.899C257.204 241.466 256.747 243.435 252.978 254.263C247.746 269.477 243.435 277.236 236.606 292.907C232.836 293.296 224.147 292.188 221.527 289.264C223.335 270.289 224.13 253.494 230.021 242.548C220.969 231.027 210.31 217.123 210.31 217.123C210.547 225.888 211.68 242.793 210.496 255.252C209.752 263.07 204.774 268.226 196.246 268.201C184.37 268.201 154.533 265.75 154.533 265.75C152.15 263.958 152.26 254.187 154.914 250.552Z" fill="#455A64"/>
<path opacity="0.2" d="M210.344 217.157C209.753 207.86 209.668 199.467 209.668 199.467C209.668 199.467 219.371 196.212 222.346 192.012C221.577 198.097 214.604 203.143 214.604 203.143L214.663 218.205L223.834 234.603L210.344 217.157Z" fill="black"/>
<path opacity="0.2" d="M184.455 245.143C184.455 245.143 185.207 251.66 188.368 255.607C186.353 254.236 184.674 252.427 183.457 250.316C181.581 246.935 171.134 249.563 163.172 249.056L184.455 245.143Z" fill="black"/>
<path opacity="0.2" d="M230.055 242.582C227.561 247.205 225.989 252.894 224.856 259.343C225.822 256.954 226.914 254.617 228.128 252.344C229.318 249.988 230.767 247.771 232.447 245.735C231.717 244.634 230.918 243.581 230.055 242.582Z" fill="black"/>
<path d="M284.201 110.785C285.24 109.179 285.477 107.979 286.931 107.285C288.636 106.449 290.184 105.322 291.504 103.955C293.524 102.003 295.113 100.329 295.113 100.329C295.113 100.329 296.888 98.419 296.617 96.999C296.583 96.5745 296.39 96.1785 296.077 95.8901C295.763 95.6018 295.353 95.4424 294.927 95.4438C295.374 95.1838 295.72 94.7795 295.907 94.2973C296.094 93.8151 296.112 93.2835 295.958 92.7897C295.76 92.3032 295.398 91.9011 294.935 91.6527C294.472 91.4043 293.937 91.3252 293.422 91.4289C293.422 91.4289 295.442 89.9582 294.352 88.048C294.116 87.539 293.69 87.1435 293.164 86.9473C292.639 86.7511 292.057 86.77 291.546 86.9999C291.8 86.7846 292.01 86.5214 292.162 86.2252C292.315 85.9289 292.407 85.6056 292.435 85.2735C292.462 84.9415 292.424 84.6073 292.322 84.29C292.22 83.9728 292.057 83.6787 291.842 83.4246C291.047 82.2919 289.534 81.9369 285.925 84.5149C285.925 84.5149 283.897 83.7626 282.62 84.2951C281.817 84.6248 278.479 87.5155 276.399 89.73C275.393 90.8034 274.853 93.4997 275.258 96.0861C275.622 98.4359 275.343 100.726 273.069 105.105L284.201 110.785Z" fill="#C8856A"/>
<path d="M281.868 89.4257C282.877 91.0888 283.618 92.8999 284.066 94.7929C284.568 97.211 284.62 99.7011 284.218 102.138C285.096 100.115 285.425 97.8965 285.173 95.7057C285.465 95.8835 285.803 95.9716 286.145 95.9593C285.367 97.0412 284.818 98.1823 286.145 99.1712C286.428 99.4173 286.77 99.5844 287.138 99.6557C287.506 99.7269 287.887 99.6997 288.241 99.5769C288.007 99.8534 287.862 100.193 287.822 100.553C287.783 100.913 287.852 101.277 288.021 101.597C288.196 101.966 288.499 102.259 288.873 102.422C289.248 102.586 289.669 102.608 290.058 102.485C290.213 102.423 290.363 102.35 290.506 102.265C290.532 102.253 290.555 102.235 290.574 102.214C290.574 102.214 290.574 102.214 290.574 102.163H290.32C290.018 102.219 289.706 102.201 289.412 102.112C289.118 102.022 288.85 101.863 288.63 101.648C288.527 101.438 288.474 101.209 288.474 100.976C288.474 100.743 288.527 100.513 288.63 100.304C288.962 99.6562 289.399 99.068 289.923 98.5626C289.945 98.5393 289.96 98.5099 289.965 98.4781C289.965 98.402 289.855 98.3936 289.779 98.4105C289.357 98.5035 288.934 98.7063 288.554 98.8247C288.282 98.9138 287.992 98.9342 287.71 98.884C287.429 98.8339 287.164 98.7147 286.939 98.5373C285.984 97.8273 286.601 96.4834 287.184 95.7227C287.379 95.4691 287.59 95.2324 287.768 94.9788C287.768 94.9366 287.818 94.8774 287.768 94.8605C287.559 94.8765 287.356 94.931 287.168 95.0211C286.958 95.1003 286.739 95.1542 286.517 95.1817C286.231 95.2335 285.937 95.1982 285.671 95.0803C285.105 94.7929 285.223 94.1759 285.333 93.6518C285.52 92.8001 285.928 92.0128 286.517 91.3697L286.559 91.3105L286.728 91.4627C288.418 93.0517 290.371 91.6909 290.109 90.7949C289.847 89.899 289.331 86.1546 288.824 85.8841C287.885 85.3642 286.91 84.9095 285.908 84.5233L288.74 86.1293C288.74 86.1293 289.813 90.9893 289.39 91.2852C289.082 91.5268 288.7 91.6538 288.308 91.6445C287.916 91.6353 287.54 91.4903 287.244 91.2345C286.36 90.504 285.569 89.6696 284.885 88.7495C284.285 89.451 281.868 89.4257 281.868 89.4257ZM283.482 89.5778C283.866 89.6274 284.256 89.5566 284.598 89.375C284.598 89.375 284.953 89.7976 286.246 91.0654C285.889 91.2622 285.547 91.4854 285.223 91.7332C285.032 91.8566 284.82 91.9453 284.598 91.9952C284.536 92.0034 284.474 92.0034 284.412 91.9952C284.167 91.1661 283.856 90.3578 283.482 89.5778Z" fill="#AF6152"/>
<path d="M273.018 105.13C273.018 105.13 286.22 106.66 284.167 110.785C282.113 114.909 272.688 137.917 270.195 140.182L259.08 127.884L273.018 105.13Z" fill="#C8856A"/>
<path d="M216.049 105.882C221.839 107.108 222.566 107.252 226.107 109.263C229.649 111.275 233.486 113.997 235.363 115.095C242.125 119.034 258.539 127.546 258.539 127.546L268.868 111.951C270.744 115.628 275.697 118.713 280.092 120.505C280.092 120.505 275.232 133.488 268.8 143.681C266.772 146.902 264.574 147.35 260.348 146.504C256.612 145.761 252.741 145.051 242.015 140.858C234.746 138.01 229.336 135.618 218.407 132.626C216.962 132.237 214.401 108.367 216.049 105.882Z" fill="#37474F"/>
<path d="M193.845 98.7402C193.439 96.0693 188.774 93.8294 184.548 90.1104C178.741 84.9376 174.887 75.1244 182.063 66.951C182.697 54.991 196.203 50.824 207.69 52.4891C214.587 53.4949 221.214 57.4168 224.24 63.7645C226.404 68.3457 226.945 74.2623 224.113 78.9787C224.265 77.4742 224.223 75.2343 223.572 73.9749C223.418 74.7791 223.148 75.5565 222.769 76.2824C222.58 76.6463 222.316 76.9657 221.994 77.2193C221.672 77.4729 221.299 77.6549 220.901 77.7531C220.056 77.9052 219.54 77.4911 218.796 77.3305C218.053 77.1699 218.053 77.2713 217.486 77.7615L215.449 79.5704L210.665 83.7965L200.607 92.7475C200.227 93.0941 193.871 98.867 193.845 98.7402Z" fill="#263238"/>
<path d="M190.803 91.9783C190.146 92.0953 189.472 92.0519 188.836 91.8517C188.2 91.6516 187.622 91.3006 187.151 90.8288C186.059 89.9013 185.268 88.6697 184.878 87.2909C184.488 85.9121 184.517 84.4485 184.962 83.0864C185.102 82.6296 185.345 82.2109 185.672 81.862C185.998 81.5131 186.4 81.2432 186.847 81.0729C187.293 80.9026 187.773 80.8363 188.249 80.8791C188.725 80.9219 189.185 81.0727 189.594 81.3199C191.065 82.275 191.555 84.0669 192.814 83.7457C193.879 83.4752 193.271 82.0553 193.271 81.1593C199.508 78.2602 199.001 72.352 198.469 67.9568C199.754 65.0492 204.149 62.7332 209.161 65.6239C210.006 63.9335 210.361 63.0375 212.542 62.4543C215.627 61.6091 217.943 63.9081 219.067 65.9705C221.053 69.6219 221.484 74.1861 221.873 78.2433C222.626 86.0025 222.668 91.8177 219.693 95.3677C217.867 97.5484 214.182 98.0386 210.437 98.1823L209.533 104.226C209.533 104.226 211.908 109.762 209.33 112.856C206.151 113.72 202.759 113.298 199.889 111.681C192.73 107.649 192.78 101.538 192.78 101.538L193.237 89.8229C193.081 90.3781 192.769 90.8767 192.337 91.2589C191.905 91.6411 191.372 91.8909 190.803 91.9783Z" fill="#C8856A"/>
<path d="M206.82 77.3642C207.242 78.2602 206.093 77.7361 205.197 78.2095C204.301 78.6828 203.997 79.8999 203.574 79.0547C203.372 78.6159 203.348 78.1162 203.505 77.6596C203.663 77.2031 203.99 76.8248 204.419 76.6035C204.626 76.4928 204.853 76.4246 205.087 76.403C205.32 76.3814 205.556 76.4067 205.78 76.4776C206.004 76.5485 206.211 76.6635 206.389 76.8158C206.568 76.9681 206.714 77.1545 206.82 77.3642Z" fill="#263238"/>
<path d="M218.484 76.3923C218.551 77.3812 217.638 76.4599 216.675 76.5529C215.711 76.6459 214.925 77.7109 214.858 76.7219C214.834 76.2405 214.996 75.7683 215.31 75.4032C215.625 75.0381 216.068 74.8082 216.548 74.761C216.783 74.7354 217.021 74.7578 217.248 74.8268C217.474 74.8958 217.684 75.01 217.865 75.1625C218.046 75.315 218.194 75.5026 218.3 75.714C218.407 75.9254 218.469 76.1561 218.484 76.3923Z" fill="#263238"/>
<path d="M219.532 71.8618L215.602 70.053C215.707 69.7912 215.865 69.5537 216.065 69.3548C216.266 69.156 216.504 69.0001 216.767 68.8965C217.029 68.7929 217.31 68.7438 217.592 68.7523C217.874 68.7607 218.152 68.8266 218.408 68.9457C218.931 69.1976 219.338 69.6393 219.547 70.1811C219.756 70.7229 219.751 71.3239 219.532 71.8618Z" fill="#263238"/>
<path d="M203.346 71.7943L200.438 74.9978C200.22 74.8183 200.041 74.5964 199.912 74.3456C199.783 74.0947 199.706 73.8202 199.686 73.5386C199.666 73.2571 199.704 72.9745 199.797 72.7081C199.89 72.4416 200.036 72.1969 200.227 71.9887C200.625 71.5657 201.168 71.3101 201.748 71.274C202.327 71.2378 202.899 71.4239 203.346 71.7943Z" fill="#263238"/>
<path d="M206.304 86.1547L213.066 88.4199C212.951 88.9141 212.73 89.3775 212.418 89.7776C212.106 90.1777 211.711 90.5051 211.259 90.7368C210.808 90.9685 210.312 91.099 209.805 91.1193C209.298 91.1396 208.792 91.0491 208.324 90.8542C206.464 90.1526 205.797 88.2339 206.304 86.1547Z" fill="#AF6152"/>
<path d="M208.307 90.8541C208.805 91.0443 209.338 91.1278 209.87 91.0992C209.753 90.2683 209.334 89.5097 208.693 88.9674C208.053 88.4252 207.235 88.137 206.397 88.1578H206.202C206.274 88.7564 206.508 89.3241 206.879 89.7994C207.249 90.2746 207.743 90.6394 208.307 90.8541Z" fill="#FFA8A7"/>
<path d="M210.572 74.9974L212.449 85.0811L217.655 82.5707L210.572 74.9974Z" fill="#AF6152"/>
<path d="M210.471 98.1823C206.507 98.1823 198.477 97.4723 195.358 92.739C195.358 92.739 196.88 96.7961 199.635 98.3175C202.39 99.839 210.141 100.431 210.141 100.431L210.471 98.1823Z" fill="#AF6152"/>
<path d="M220.766 107.116C223.699 107.843 221.873 112.501 227.528 120.767L209.922 105.806L209.507 104.251C209.507 104.251 216.692 106.077 220.766 107.116Z" fill="#37474F"/>
<path d="M222.389 115.493C214.908 109.272 209.998 105.882 209.998 105.882C210.97 109.83 210.048 112.154 208.087 112.771C206.126 113.388 199.238 111.926 195.223 108.258L173.61 123.784C174.904 127.596 177.482 134.232 178.192 138.297C178.902 142.363 180.372 150.283 179.882 154.357C179.392 158.431 173.222 166.612 171.21 177.676C171.21 177.676 183.888 188.664 207.191 187.447C225.787 186.501 228.922 178.699 228.922 178.699C228.922 178.699 226.759 169.647 225.195 163.088C226.556 153.072 227.841 145.515 227.841 145.515C227.841 145.515 234.602 137.908 232.371 129.642C230.435 122.229 225.474 118.054 222.389 115.493Z" fill="#F28AC8"/>
<path d="M186.221 100.777C190.515 103.102 192.789 101.53 192.789 101.53C192.789 101.53 192.484 107.345 196.491 109.88C196.491 109.88 188.038 128.755 181.429 133.462C174.819 138.17 186.221 100.777 186.221 100.777Z" fill="#37474F"/>
<path d="M192.789 101.53C193.11 104.065 195.722 107.505 198.029 109.086C202.923 112.467 206.684 113.059 208.857 111.748C211.029 110.438 209.82 106.229 209.541 104.226L210.716 104.53C211.671 106.618 213.252 112.627 209.871 114.132C205.188 116.211 196.753 112.543 193.499 108.41C190.245 104.277 190.118 102.028 190.118 102.028C190.589 102.061 191.062 102.044 191.529 101.978C191.961 101.864 192.382 101.714 192.789 101.53Z" fill="#263238"/>
<path d="M136.615 50.7986C136.04 48.9644 136.133 47.7473 134.924 46.6992C133.503 45.437 132.31 43.9386 131.4 42.2702C129.971 39.8613 128.864 37.8243 128.864 37.8243C128.864 37.8243 127.664 35.5083 128.306 34.2151C128.452 33.811 128.747 33.4777 129.13 33.283C129.513 33.0884 129.956 33.0469 130.368 33.167C130.006 32.7963 129.78 32.3141 129.726 31.7985C129.672 31.283 129.795 30.7645 130.073 30.327C130.393 29.9153 130.845 29.6265 131.353 29.5095C131.861 29.3925 132.394 29.4543 132.862 29.6847C132.862 29.6847 131.298 27.7406 132.862 26.2108C133.229 25.7913 133.746 25.5318 134.301 25.4876C134.857 25.4433 135.408 25.6179 135.837 25.9741C135.648 25.6991 135.514 25.3893 135.445 25.0627C135.376 24.736 135.371 24.3989 135.433 24.0706C135.494 23.7423 135.619 23.4294 135.802 23.1497C135.985 22.8701 136.22 22.6292 136.496 22.441C137.561 21.5958 139.117 21.5958 141.931 25.0697C141.931 25.0697 144.087 24.8922 145.168 25.7374C145.862 26.2699 148.313 29.9636 149.733 32.6261C150.417 33.9277 150.223 36.6663 149.149 39.0583C148.177 41.2221 147.831 43.5042 148.871 48.3559L136.615 50.7986Z" fill="#C8856A"/>
<path d="M141.787 29.355C140.888 30.0608 139.906 30.654 138.863 31.1216C138.507 31.2818 138.108 31.3181 137.73 31.2246C137.351 31.1311 137.015 30.9133 136.775 30.606C136.445 30.2003 138.77 25.8051 138.77 25.8051L141.931 24.9598C140.863 25.0656 139.804 25.2464 138.761 25.5008C138.195 25.6276 136.699 29.093 136.226 29.896C135.752 30.699 137.274 32.5247 139.319 31.4428L139.522 31.3329V31.409C139.924 32.1909 140.108 33.0669 140.055 33.9447C140.055 34.4772 139.978 35.1111 139.345 35.2294C139.056 35.2778 138.76 35.2334 138.499 35.1026C138.287 35.0213 138.088 34.9103 137.908 34.773C137.755 34.638 137.577 34.5346 137.384 34.4687H137.341C137.341 34.4687 137.341 34.5448 137.341 34.587C137.451 34.8829 137.586 35.1702 137.713 35.4323C138.077 36.2775 138.313 37.782 137.198 38.2131C136.934 38.3219 136.648 38.3656 136.364 38.3406C136.08 38.3156 135.807 38.2226 135.566 38.0694C135.203 37.8412 134.882 37.5369 134.493 37.334C134.425 37.334 134.315 37.2833 134.298 37.334C134.282 37.3848 134.298 37.3932 134.298 37.4186C134.673 38.0426 134.939 38.7257 135.085 39.4387C135.131 39.6678 135.126 39.9044 135.069 40.1312C135.011 40.3579 134.904 40.5689 134.755 40.7488C134.485 40.8969 134.184 40.978 133.877 40.9854C133.569 40.9927 133.265 40.9261 132.988 40.791L132.752 40.6981C132.752 40.6981 132.752 40.7488 132.802 40.7741C132.921 40.8929 133.048 41.0031 133.183 41.1038C133.525 41.3223 133.935 41.4101 134.337 41.3511C134.739 41.2921 135.107 41.0903 135.372 40.7826C135.619 40.5191 135.783 40.1885 135.844 39.8321C135.904 39.4757 135.857 39.1095 135.71 38.7794C136.017 38.993 136.376 39.1206 136.749 39.1489C137.122 39.1771 137.496 39.105 137.832 38.94C139.395 38.3483 139.159 37.0974 138.677 35.8549C139.003 35.9479 139.348 35.9479 139.674 35.8549C138.855 37.9024 138.584 40.1282 138.888 42.3125C139.15 39.8543 139.86 37.4651 140.984 35.2632C141.918 33.5582 143.116 32.0119 144.534 30.6821C144.534 30.6821 142.193 30.2003 141.787 29.355ZM141.407 32.5585C141.342 32.5548 141.279 32.5375 141.221 32.5078C141.023 32.3987 140.845 32.2557 140.697 32.0851C140.433 31.7646 140.151 31.4597 139.852 31.1723C141.415 30.3271 141.872 30.0143 141.872 30.0143C142.152 30.2817 142.51 30.4533 142.894 30.5046C142.345 31.1608 141.848 31.8589 141.407 32.5923V32.5585Z" fill="#AF6152"/>
<path d="M148.871 48.2968C148.871 48.2968 135.736 46.2682 136.615 50.8325C137.494 55.3967 140.723 84.16 142.531 87.0084L157.112 77.7108L148.871 48.2968Z" fill="#C8856A"/>
<path d="M186.221 100.777C183.319 98.787 180.286 96.9939 177.143 95.4099C173.357 93.4151 159.131 83.1202 159.131 83.1202L151.854 58.9381C148 61.8626 143.867 64.7702 138.33 65.2858C138.33 65.2858 140.951 83.0357 142.083 88.9523C142.785 92.6967 143.495 93.5673 145.777 96.0269C149.825 100.397 157.094 107.809 163.045 114.09C168.412 119.753 173.433 125.475 175.977 130.403C176.662 131.721 178.251 134.629 180.203 134.147C183.17 133.395 186.306 125.416 187.734 120.801C190.05 113.236 186.297 103.735 186.221 100.777Z" fill="#37474F"/>
<path d="M106.871 279.239C105.696 281.598 106.026 284.624 106.829 287.049C107.266 288.29 107.872 289.464 108.629 290.54C109.04 291.113 109.51 291.64 110.032 292.112C110.463 292.572 111 292.921 111.596 293.127C111.925 293.203 111.951 292.67 111.816 292.484C110.97 291.369 110.015 290.396 109.28 289.222C108.739 288.36 108.307 287.435 107.995 286.466C107.348 284.242 107.162 281.91 107.446 279.611C107.446 279.324 107.099 278.766 106.888 279.239H106.871Z" fill="#F28AC8"/>
<path d="M103.617 282.654C102.45 284.057 102.467 286.12 102.822 287.819C102.98 288.654 103.265 289.461 103.668 290.211C103.894 290.621 104.16 291.009 104.462 291.368C104.759 291.799 105.195 292.115 105.696 292.264C105.933 292.307 105.958 291.859 105.899 291.732C105.569 291.014 105.054 290.405 104.673 289.703C104.377 289.169 104.144 288.602 103.98 288.013C103.621 286.399 103.621 284.725 103.98 283.111C103.98 282.916 103.786 282.392 103.558 282.679L103.617 282.654Z" fill="#F28AC8"/>
<path d="M136.311 88.8001C135.567 91.4372 136.437 94.4378 137.764 96.7537C138.425 97.8931 139.241 98.9343 140.19 99.8472C140.985 100.608 142.151 101.588 143.301 101.648C143.639 101.648 143.546 101.09 143.411 100.946C142.565 100.101 141.543 99.3993 140.689 98.5456C139.935 97.7911 139.287 96.9381 138.762 96.0099C137.611 93.8363 136.975 91.4275 136.902 88.9691C136.902 88.5972 136.429 88.369 136.311 88.8085V88.8001Z" fill="#F28AC8"/>
<path d="M133.673 92.6968C132.828 94.2521 133.133 96.2722 133.766 97.8612C134.096 98.7335 134.564 99.5469 135.153 100.27C135.437 100.607 135.751 100.918 136.091 101.2C136.414 101.519 136.838 101.716 137.291 101.758C137.553 101.758 137.57 101.318 137.452 101.149C136.961 100.439 136.268 99.8813 135.761 99.1882C135.331 98.6254 134.981 98.0052 134.722 97.3456C134.262 95.9194 134.064 94.4217 134.138 92.925C134.138 92.6799 133.834 92.3503 133.665 92.663L133.673 92.6968Z" fill="#F28AC8"/>
<path d="M299.584 85.808C299.212 83.0372 297.823 80.5036 295.687 78.6996C294.768 77.8714 293.741 77.1693 292.636 76.6119C291.63 76.1132 290.21 75.4709 289.078 75.8512C288.85 75.9273 288.85 76.4175 289.035 76.5358C290.05 77.1613 291.258 77.4571 292.323 77.9896C293.366 78.5047 294.328 79.168 295.18 79.959C296.917 81.6438 298.227 83.7185 299.001 86.0109C299.187 86.5011 299.618 86.2645 299.584 85.808Z" fill="#F28AC8"/>
<path d="M300.911 81.3201C300.993 80.7326 300.955 80.1347 300.801 79.562C300.702 79.1521 300.564 78.7529 300.387 78.3702C300.044 77.6181 299.598 76.9181 299.06 76.2909C298.528 75.634 297.898 75.0637 297.192 74.6005C296.821 74.3558 296.427 74.1464 296.017 73.975C295.82 73.871 295.604 73.807 295.382 73.7867C295.16 73.7664 294.936 73.7902 294.724 73.8567C294.675 73.8942 294.635 73.9416 294.605 73.9957C294.576 74.0498 294.558 74.1094 294.554 74.1708C294.549 74.2322 294.557 74.2938 294.578 74.3518C294.598 74.4098 294.631 74.4629 294.673 74.5075C295.324 75.0653 296.169 75.3527 296.871 75.843C297.5 76.2613 298.069 76.7648 298.561 77.339C299.453 78.5239 300.087 79.8831 300.421 81.3285C300.53 81.692 300.894 81.6751 300.945 81.3285L300.911 81.3201Z" fill="#F28AC8"/>
<path d="M262.943 251.465C264.82 249.868 265.716 247.104 265.91 244.703C266.13 242.083 265.707 238.685 263.687 236.8C263.442 236.564 263.298 237.062 263.34 237.231C263.653 238.525 264.11 239.767 264.355 241.103C264.545 242.159 264.596 243.236 264.507 244.306C264.426 245.456 264.204 246.591 263.848 247.687C263.448 248.752 262.994 249.796 262.487 250.814C262.352 251.093 262.563 251.803 262.943 251.482V251.465Z" fill="#F28AC8"/>
<path d="M267.254 249.546C268.818 248.701 269.595 246.859 269.916 245.194C270.084 244.359 270.118 243.503 270.018 242.658C269.96 241.62 269.545 240.635 268.843 239.869C268.632 239.691 268.505 240.012 268.496 240.181C268.55 241.08 268.657 241.975 268.818 242.861C268.866 243.603 268.812 244.348 268.657 245.075C268.281 246.424 267.711 247.71 266.966 248.896C266.874 249.073 266.966 249.741 267.279 249.555L267.254 249.546Z" fill="#F28AC8"/>
</svg>
